M48
; DRILL file {KiCad 5.1.4} date Thu 12 Dec 2019 07:46:16 PM CST
; FORMAT={3:3/ absolute / metric / suppress trailing zeros}
; #@! TF.CreationDate,2019-12-12T19:46:16-06:00
; #@! TF.GenerationSoftware,Kicad,Pcbnew,5.1.4
FMAT,2
METRIC,LZ
T1C0.400
T2C1.000
T3C1.000
T4C2.200
%
G90
G05
T1
X134163Y-068275
X134163Y-070155
X136398Y-076987
X139167Y-083718
X141453Y-08542
X144424Y-076632
X144577Y-066548
X145263Y-075006
X146304Y-078613
X146304Y-080061
X146431Y-068351
X15047Y-078537
X150978Y-066497
X151359Y-08702
X152756Y-075082
X152756Y-097485
X152832Y-066904
X152945Y-093548
X153391Y-083083
X155016Y-091719
X155067Y-097434
X155245Y-08448
X15588Y-066853
X156693Y-060909
X156743Y-091846
X159007Y-078398
X159041Y-077064
X161138Y-084353
X161315Y-093396
X163068Y-073812
X163068Y-076505
X164516Y-071044
X164821Y-08636
X164871Y-087681
X165075Y-077902
X165405Y-080315
X165481Y-074117
X166294Y-092329
X168148Y-074625
X168834Y-087732
X169361Y-072441
X169361Y-083845
X170764Y-068453
X172161Y-070637
X172517Y-08951
X174117Y-077749
X174727Y-068047
T2
X17747Y-0667
X166192Y-065049
T3
X151994Y-0635
X157074Y-062484
X157074Y-064516
T4
X154915Y-037059
T0
M30
