G04 #@! TF.GenerationSoftware,KiCad,Pcbnew,5.1.4*
G04 #@! TF.CreationDate,2019-12-12T19:44:32-06:00*
G04 #@! TF.ProjectId,chrimbus2019,63687269-6d62-4757-9332-3031392e6b69,rev?*
G04 #@! TF.SameCoordinates,Original*
G04 #@! TF.FileFunction,Soldermask,Bot*
G04 #@! TF.FilePolarity,Negative*
%FSLAX46Y46*%
G04 Gerber Fmt 4.6, Leading zero omitted, Abs format (unit mm)*
G04 Created by KiCad (PCBNEW 5.1.4) date 2019-12-12 19:44:32*
%MOMM*%
%LPD*%
G04 APERTURE LIST*
%ADD10C,0.100000*%
G04 APERTURE END LIST*
D10*
G36*
X158026000Y-82080000D02*
G01*
X151854000Y-82080000D01*
X151854000Y-75908000D01*
X158026000Y-75908000D01*
X158026000Y-82080000D01*
X158026000Y-82080000D01*
G37*
G36*
X172771000Y-82080000D02*
G01*
X166599000Y-82080000D01*
X166599000Y-75908000D01*
X172771000Y-75908000D01*
X172771000Y-82080000D01*
X172771000Y-82080000D01*
G37*
G36*
X143281000Y-82080000D02*
G01*
X137109000Y-82080000D01*
X137109000Y-75908000D01*
X143281000Y-75908000D01*
X143281000Y-82080000D01*
X143281000Y-82080000D01*
G37*
G36*
X177776364Y-65689789D02*
G01*
X177967633Y-65769015D01*
X177967635Y-65769016D01*
X178112430Y-65865765D01*
X178139773Y-65884035D01*
X178286165Y-66030427D01*
X178401185Y-66202567D01*
X178480411Y-66393836D01*
X178520800Y-66596884D01*
X178520800Y-66803916D01*
X178480411Y-67006964D01*
X178401185Y-67198233D01*
X178401184Y-67198235D01*
X178286165Y-67370373D01*
X178139773Y-67516765D01*
X177967635Y-67631784D01*
X177967634Y-67631785D01*
X177967633Y-67631785D01*
X177776364Y-67711011D01*
X177573316Y-67751400D01*
X177366284Y-67751400D01*
X177163236Y-67711011D01*
X176971967Y-67631785D01*
X176971966Y-67631785D01*
X176971965Y-67631784D01*
X176799827Y-67516765D01*
X176653435Y-67370373D01*
X176538416Y-67198235D01*
X176538415Y-67198233D01*
X176459189Y-67006964D01*
X176418800Y-66803916D01*
X176418800Y-66596884D01*
X176459189Y-66393836D01*
X176538415Y-66202567D01*
X176653435Y-66030427D01*
X176799827Y-65884035D01*
X176827170Y-65865765D01*
X176971965Y-65769016D01*
X176971967Y-65769015D01*
X177163236Y-65689789D01*
X177366284Y-65649400D01*
X177573316Y-65649400D01*
X177776364Y-65689789D01*
X177776364Y-65689789D01*
G37*
G36*
X166498764Y-64038789D02*
G01*
X166617594Y-64088010D01*
X166690035Y-64118016D01*
X166759989Y-64164758D01*
X166862173Y-64233035D01*
X167008565Y-64379427D01*
X167123585Y-64551567D01*
X167202811Y-64742836D01*
X167243200Y-64945884D01*
X167243200Y-65152916D01*
X167202811Y-65355964D01*
X167123585Y-65547233D01*
X167123584Y-65547235D01*
X167008565Y-65719373D01*
X166862173Y-65865765D01*
X166690035Y-65980784D01*
X166690034Y-65980785D01*
X166690033Y-65980785D01*
X166498764Y-66060011D01*
X166295716Y-66100400D01*
X166088684Y-66100400D01*
X165885636Y-66060011D01*
X165694367Y-65980785D01*
X165694366Y-65980785D01*
X165694365Y-65980784D01*
X165522227Y-65865765D01*
X165375835Y-65719373D01*
X165260816Y-65547235D01*
X165260815Y-65547233D01*
X165181589Y-65355964D01*
X165141200Y-65152916D01*
X165141200Y-64945884D01*
X165181589Y-64742836D01*
X165260815Y-64551567D01*
X165375835Y-64379427D01*
X165522227Y-64233035D01*
X165624411Y-64164758D01*
X165694365Y-64118016D01*
X165766806Y-64088010D01*
X165885636Y-64038789D01*
X166088684Y-63998400D01*
X166295716Y-63998400D01*
X166498764Y-64038789D01*
X166498764Y-64038789D01*
G37*
G36*
X157234321Y-63986174D02*
G01*
X157334595Y-64027709D01*
X157337763Y-64029826D01*
X157424842Y-64088010D01*
X157501590Y-64164758D01*
X157501591Y-64164760D01*
X157561891Y-64255005D01*
X157603426Y-64355279D01*
X157624600Y-64461730D01*
X157624600Y-64570270D01*
X157603426Y-64676721D01*
X157561891Y-64776995D01*
X157561890Y-64776996D01*
X157501590Y-64867242D01*
X157424842Y-64943990D01*
X157422007Y-64945884D01*
X157334595Y-65004291D01*
X157234321Y-65045826D01*
X157127870Y-65067000D01*
X157019330Y-65067000D01*
X156912879Y-65045826D01*
X156812605Y-65004291D01*
X156725193Y-64945884D01*
X156722358Y-64943990D01*
X156645610Y-64867242D01*
X156585310Y-64776996D01*
X156585309Y-64776995D01*
X156543774Y-64676721D01*
X156522600Y-64570270D01*
X156522600Y-64461730D01*
X156543774Y-64355279D01*
X156585309Y-64255005D01*
X156645609Y-64164760D01*
X156645610Y-64164758D01*
X156722358Y-64088010D01*
X156809437Y-64029826D01*
X156812605Y-64027709D01*
X156912879Y-63986174D01*
X157019330Y-63965000D01*
X157127870Y-63965000D01*
X157234321Y-63986174D01*
X157234321Y-63986174D01*
G37*
G36*
X152154321Y-62970174D02*
G01*
X152254595Y-63011709D01*
X152257763Y-63013826D01*
X152344842Y-63072010D01*
X152421590Y-63148758D01*
X152421591Y-63148760D01*
X152481891Y-63239005D01*
X152523426Y-63339279D01*
X152544600Y-63445730D01*
X152544600Y-63554270D01*
X152523426Y-63660721D01*
X152481891Y-63760995D01*
X152481890Y-63760996D01*
X152421590Y-63851242D01*
X152344842Y-63927990D01*
X152299412Y-63958345D01*
X152254595Y-63988291D01*
X152154321Y-64029826D01*
X152047870Y-64051000D01*
X151939330Y-64051000D01*
X151832879Y-64029826D01*
X151732605Y-63988291D01*
X151687788Y-63958345D01*
X151642358Y-63927990D01*
X151565610Y-63851242D01*
X151505310Y-63760996D01*
X151505309Y-63760995D01*
X151463774Y-63660721D01*
X151442600Y-63554270D01*
X151442600Y-63445730D01*
X151463774Y-63339279D01*
X151505309Y-63239005D01*
X151565609Y-63148760D01*
X151565610Y-63148758D01*
X151642358Y-63072010D01*
X151729437Y-63013826D01*
X151732605Y-63011709D01*
X151832879Y-62970174D01*
X151939330Y-62949000D01*
X152047870Y-62949000D01*
X152154321Y-62970174D01*
X152154321Y-62970174D01*
G37*
G36*
X157234321Y-61954174D02*
G01*
X157334595Y-61995709D01*
X157334596Y-61995710D01*
X157424842Y-62056010D01*
X157501590Y-62132758D01*
X157501591Y-62132760D01*
X157561891Y-62223005D01*
X157603426Y-62323279D01*
X157624600Y-62429730D01*
X157624600Y-62538270D01*
X157603426Y-62644721D01*
X157561891Y-62744995D01*
X157561890Y-62744996D01*
X157501590Y-62835242D01*
X157424842Y-62911990D01*
X157379412Y-62942345D01*
X157334595Y-62972291D01*
X157234321Y-63013826D01*
X157127870Y-63035000D01*
X157019330Y-63035000D01*
X156912879Y-63013826D01*
X156812605Y-62972291D01*
X156767788Y-62942345D01*
X156722358Y-62911990D01*
X156645610Y-62835242D01*
X156585310Y-62744996D01*
X156585309Y-62744995D01*
X156543774Y-62644721D01*
X156522600Y-62538270D01*
X156522600Y-62429730D01*
X156543774Y-62323279D01*
X156585309Y-62223005D01*
X156645609Y-62132760D01*
X156645610Y-62132758D01*
X156722358Y-62056010D01*
X156812604Y-61995710D01*
X156812605Y-61995709D01*
X156912879Y-61954174D01*
X157019330Y-61933000D01*
X157127870Y-61933000D01*
X157234321Y-61954174D01*
X157234321Y-61954174D01*
G37*
G36*
X155139149Y-35929716D02*
G01*
X155250334Y-35951832D01*
X155459803Y-36038597D01*
X155648320Y-36164560D01*
X155808640Y-36324880D01*
X155934603Y-36513397D01*
X156021368Y-36722866D01*
X156065600Y-36945236D01*
X156065600Y-37171964D01*
X156021368Y-37394334D01*
X155934603Y-37603803D01*
X155808640Y-37792320D01*
X155648320Y-37952640D01*
X155459803Y-38078603D01*
X155250334Y-38165368D01*
X155139149Y-38187484D01*
X155027965Y-38209600D01*
X154801235Y-38209600D01*
X154690051Y-38187484D01*
X154578866Y-38165368D01*
X154369397Y-38078603D01*
X154180880Y-37952640D01*
X154020560Y-37792320D01*
X153894597Y-37603803D01*
X153807832Y-37394334D01*
X153763600Y-37171964D01*
X153763600Y-36945236D01*
X153807832Y-36722866D01*
X153894597Y-36513397D01*
X154020560Y-36324880D01*
X154180880Y-36164560D01*
X154369397Y-36038597D01*
X154578866Y-35951832D01*
X154690051Y-35929716D01*
X154801235Y-35907600D01*
X155027965Y-35907600D01*
X155139149Y-35929716D01*
X155139149Y-35929716D01*
G37*
M02*
