  0
SECTION
  2
HEADER
  9
$ACADVER
  1
AC1014
  9
$HANDSEED
  5
FFFF
  9
$MEASUREMENT
 70
     1
  0
ENDSEC
  0
SECTION
  2
TABLES
  0
TABLE
  2
VPORT
  5
8
330
0
100
AcDbSymbolTable
 70
     4
  0
VPORT
  5
2E
330
8
100
AcDbSymbolTableRecord
100
AcDbViewportTableRecord
  2
*ACTIVE
 70
     0
 10
0.0
 20
0.0
 11
1.0
 21
1.0
 12
210.0
 22
148.5
 13
0.0
 23
0.0
 14
10.0
 24
10.0
 15
10.0
 25
10.0
 16
0.0
 26
0.0
 36
1.0
 17
0.0
 27
0.0
 37
0.0
 40
341.0
 41
1.24
 42
50.0
 43
0.0
 44
0.0
 50
0.0
 51
0.0
 71
     0
 72
   100
 73
     1
 74
     3
 75
     0
 76
     0
 77
     0
 78
     0
  0
ENDTAB
  0
TABLE
  2
LTYPE
  5
5
330
0
100
AcDbSymbolTable
 70
     1
  0
LTYPE
  5
14
330
5
100
AcDbSymbolTableRecord
100
AcDbLinetypeTableRecord
  2
BYBLOCK
 70
     0
  3

 72
    65
 73
     0
 40
0.0
  0
LTYPE
  5
15
330
5
100
AcDbSymbolTableRecord
100
AcDbLinetypeTableRecord
  2
BYLAYER
 70
     0
  3

 72
    65
 73
     0
 40
0.0
  0
LTYPE
  5
16
330
5
100
AcDbSymbolTableRecord
100
AcDbLinetypeTableRecord
  2
CONTINUOUS
 70
     0
  3
Solid line
 72
    65
 73
     0
 40
0.0
  0
ENDTAB
  0
TABLE
  2
LAYER
  5
2
100
AcDbSymbolTable
 70
2
  0
LAYER
  5
50
100
AcDbSymbolTableRecord
100
AcDbLayerTableRecord
  2
0
 70
0
  6
CONTINUOUS
  0
LAYER
  5
51
100
AcDbSymbolTableRecord
100
AcDbLayerTableRecord
  2
Layer_1
 70
0
  6
CONTINUOUS
  0
ENDTAB
  0
TABLE
  2
STYLE
  5
3
330
0
100
AcDbSymbolTable
 70
     1
  0
STYLE
  5
11
330
3
100
AcDbSymbolTableRecord
100
AcDbTextStyleTableRecord
  2
STANDARD
 70
     0
 40
0.0
 41
1.0
 50
0.0
 71
     0
 42
2.5
  3
txt
  4

  0
ENDTAB
  0
TABLE
  2
VIEW
  5
6
330
0
100
AcDbSymbolTable
 70
     0
  0
ENDTAB
  0
TABLE
  2
UCS
  5
7
330
0
100
AcDbSymbolTable
 70
     0
  0
ENDTAB
  0
TABLE
  2
APPID
  5
9
330
0
100
AcDbSymbolTable
 70
     2
  0
APPID
  5
12
330
9
100
AcDbSymbolTableRecord
100
AcDbRegAppTableRecord
  2
ACAD
 70
     0
  0
ENDTAB
  0
TABLE
  2
DIMSTYLE
  5
A
330
0
100
AcDbSymbolTable
 70
     1
  0
DIMSTYLE
105
27
330
A
100
AcDbSymbolTableRecord
100
AcDbDimStyleTableRecord
  2
ISO-25
 70
     0
  3

  4

  5

  6

  7

 40
1.0
 41
2.5
 42
0.625
 43
3.75
 44
1.25
 45
0.0
 46
0.0
 47
0.0
 48
0.0
140
2.5
141
2.5
142
0.0
143
0.03937007874016
144
1.0
145
0.0
146
1.0
147
0.625
 71
     0
 72
     0
 73
     0
 74
     0
 75
     0
 76
     0
 77
     1
 78
     8
170
     0
171
     3
172
     1
173
     0
174
     0
175
     0
176
     0
177
     0
178
     0
270
     2
271
     2
272
     2
273
     2
274
     3
340
11
275
     0
280
     0
281
     0
282
     0
283
     0
284
     8
285
     0
286
     0
287
     3
288
     0
  0
ENDTAB
  0
TABLE
  2
BLOCK_RECORD
  5
1
330
0
100
AcDbSymbolTable
 70
     1
  0
BLOCK_RECORD
  5
1F
330
1
100
AcDbSymbolTableRecord
100
AcDbBlockTableRecord
  2
*MODEL_SPACE
  0
BLOCK_RECORD
  5
1B
330
1
100
AcDbSymbolTableRecord
100
AcDbBlockTableRecord
  2
*PAPER_SPACE
  0
ENDTAB
  0
ENDSEC
  0
SECTION
  2
BLOCKS
  0
BLOCK
  5
20
330
1F
100
AcDbEntity
  8
0
100
AcDbBlockBegin
  2
*MODEL_SPACE
 70
     0
 10
0.0
 20
0.0
 30
0.0
  3
*MODEL_SPACE
  1

  0
ENDBLK
  5
21
330
1F
100
AcDbEntity
  8
0
100
AcDbBlockEnd
  0
BLOCK
  5
1C
330
1B
100
AcDbEntity
 67
     1
  8
0
100
AcDbBlockBegin
  2
*PAPER_SPACE
  1

  0
ENDBLK
  5
1D
330
1B
100
AcDbEntity
 67
     1
  8
0
100
AcDbBlockEnd
  0
ENDSEC
  0
SECTION
  2
ENTITIES
  0
SPLINE
  5
100
100
AcDbEntity
  8
Layer_1
 62
7
100
AcDbSpline
 70
0
 71
3
 72
10
 73
6
 74
4
 40
0.000000
 40
0.000000
 40
0.000000
 40
0.000000
 40
3.362524
 40
6.725010
 40
10.087876
 40
10.087876
 40
10.087876
 40
10.087876
 10
68.404782
 20
198.970413
 30
0.0
 10
69.380785
 20
198.419333
 30
0.0
 10
71.332779
 20
197.317179
 30
0.0
 10
74.259183
 20
195.660652
 30
0.0
 10
76.190372
 20
194.522098
 30
0.0
 10
77.156021
 20
193.952789
 30
0.0
 11
68.404782
 21
198.970413
 31
0.0
 11
71.332508
 21
197.316633
 31
0.0
 11
74.254129
 21
195.652169
 31
0.0
 11
77.156021
 21
193.952789
 31
0.0
  0
SPLINE
  5
101
100
AcDbEntity
  8
Layer_1
 62
7
100
AcDbSpline
 70
0
 71
3
 72
10
 73
6
 74
4
 40
0.000000
 40
0.000000
 40
0.000000
 40
0.000000
 40
2.036782
 40
4.073268
 40
6.110486
 40
6.110486
 40
6.110486
 40
6.110486
 10
77.156021
 20
193.952789
 30
0.0
 10
77.007590
 20
194.615448
 30
0.0
 10
76.710751
 20
195.940669
 30
0.0
 10
76.150375
 20
197.899524
 30
0.0
 10
75.801968
 20
199.211928
 30
0.0
 10
75.627733
 20
199.868248
 30
0.0
 11
77.156021
 21
193.952789
 31
0.0
 11
76.691549
 21
195.935904
 31
0.0
 11
76.156735
 21
197.900910
 31
0.0
 11
75.627733
 21
199.868248
 31
0.0
  0
SPLINE
  5
102
100
AcDbEntity
  8
Layer_1
 62
7
100
AcDbSpline
 70
0
 71
3
 72
10
 73
6
 74
4
 40
0.000000
 40
0.000000
 40
0.000000
 40
0.000000
 40
2.547405
 40
5.096372
 40
7.640446
 40
7.640446
 40
7.640446
 40
7.640446
 10
75.627733
 20
199.868248
 30
0.0
 10
76.446518
 20
200.093067
 30
0.0
 10
78.084588
 20
200.542844
 30
0.0
 10
80.533102
 20
201.246669
 30
0.0
 10
82.190983
 20
201.614092
 30
0.0
 10
83.019128
 20
201.797626
 30
0.0
 11
75.627733
 21
199.868248
 31
0.0
 11
78.082874
 21
200.547626
 31
0.0
 11
80.541115
 21
201.221636
 31
0.0
 11
83.019128
 21
201.797626
 31
0.0
  0
SPLINE
  5
103
100
AcDbEntity
  8
Layer_1
 62
7
100
AcDbSpline
 70
0
 71
3
 72
10
 73
6
 74
4
 40
0.000000
 40
0.000000
 40
0.000000
 40
0.000000
 40
4.548437
 40
9.099309
 40
13.649273
 40
13.649273
 40
13.649273
 40
13.649273
 10
83.019128
 20
201.797626
 30
0.0
 10
83.438792
 20
200.340672
 30
0.0
 10
84.278346
 20
197.425982
 30
0.0
 10
85.440032
 20
193.026763
 30
0.0
 10
86.195120
 20
190.088651
 30
0.0
 10
86.572627
 20
188.619741
 30
0.0
 11
83.019128
 21
201.797626
 31
0.0
 11
84.261851
 21
197.422251
 31
0.0
 11
85.435238
 21
193.025251
 31
0.0
 11
86.572627
 21
188.619741
 31
0.0
  0
SPLINE
  5
104
100
AcDbEntity
  8
Layer_1
 62
7
100
AcDbSpline
 70
0
 71
3
 72
10
 73
6
 74
4
 40
0.000000
 40
0.000000
 40
0.000000
 40
0.000000
 40
2.552294
 40
5.107309
 40
7.662368
 40
7.662368
 40
7.662368
 40
7.662368
 10
86.572627
 20
188.619741
 30
0.0
 10
87.292058
 20
188.165300
 30
0.0
 10
88.731687
 20
187.255933
 30
0.0
 10
90.964842
 20
186.014850
 30
0.0
 10
92.432174
 20
185.149779
 30
0.0
 10
93.165846
 20
184.717240
 30
0.0
 11
86.572627
 21
188.619741
 31
0.0
 11
88.743124
 21
187.276928
 31
0.0
 11
90.959336
 21
186.005511
 31
0.0
 11
93.165846
 21
184.717240
 31
0.0
  0
SPLINE
  5
105
100
AcDbEntity
  8
Layer_1
 62
7
100
AcDbSpline
 70
0
 71
3
 72
10
 73
6
 74
4
 40
0.000000
 40
0.000000
 40
0.000000
 40
0.000000
 40
0.400190
 40
0.789313
 40
1.184566
 40
1.184566
 40
1.184566
 40
1.184566
 10
93.165846
 20
184.717240
 30
0.0
 10
93.309680
 20
184.605372
 30
0.0
 10
93.593370
 20
184.384728
 30
0.0
 10
93.587031
 20
184.962827
 30
0.0
 10
93.537294
 20
185.195692
 30
0.0
 10
93.512231
 20
185.313034
 30
0.0
 11
93.165846
 21
184.717240
 31
0.0
 11
93.523337
 21
184.537373
 31
0.0
 11
93.575856
 21
184.922936
 31
0.0
 11
93.512231
 21
185.313034
 31
0.0
  0
SPLINE
  5
106
100
AcDbEntity
  8
Layer_1
 62
7
100
AcDbSpline
 70
0
 71
3
 72
10
 73
6
 74
4
 40
0.000000
 40
0.000000
 40
0.000000
 40
0.000000
 40
5.846538
 40
11.693913
 40
17.534585
 40
17.534585
 40
17.534585
 40
17.534585
 10
93.512231
 20
185.313034
 30
0.0
 10
93.092703
 20
187.216180
 30
0.0
 10
92.253587
 20
191.022744
 30
0.0
 10
90.932347
 20
196.716749
 30
0.0
 10
90.160644
 20
200.535786
 30
0.0
 10
89.775014
 20
202.444210
 30
0.0
 11
93.512231
 21
185.313034
 31
0.0
 11
92.243142
 21
191.020172
 31
0.0
 11
90.959123
 21
196.724827
 31
0.0
 11
89.775014
 21
202.444210
 31
0.0
  0
SPLINE
  5
107
100
AcDbEntity
  8
Layer_1
 62
7
100
AcDbSpline
 70
0
 71
3
 72
10
 73
6
 74
4
 40
0.000000
 40
0.000000
 40
0.000000
 40
0.000000
 40
6.121527
 40
12.244669
 40
18.366997
 40
18.366997
 40
18.366997
 40
18.366997
 10
89.775014
 20
202.444210
 30
0.0
 10
91.280961
 20
201.067326
 30
0.0
 10
94.293252
 20
198.313195
 30
0.0
 10
98.793995
 20
194.162716
 30
0.0
 10
101.807852
 20
191.409901
 30
0.0
 10
103.314681
 20
190.033585
 30
0.0
 11
89.775014
 21
202.444210
 31
0.0
 11
94.289907
 21
198.310345
 31
0.0
 11
98.797486
 21
194.166121
 31
0.0
 11
103.314681
 21
190.033585
 31
0.0
  0
SPLINE
  5
108
100
AcDbEntity
  8
Layer_1
 62
7
100
AcDbSpline
 70
0
 71
3
 72
10
 73
6
 74
4
 40
0.000000
 40
0.000000
 40
0.000000
 40
0.000000
 40
2.689644
 40
5.380807
 40
8.071907
 40
8.071907
 40
8.071907
 40
8.071907
 10
103.314681
 20
190.033585
 30
0.0
 10
103.349272
 20
190.929636
 30
0.0
 10
103.418473
 20
192.722244
 30
0.0
 10
103.377374
 20
195.413256
 30
0.0
 10
103.386438
 20
197.207290
 30
0.0
 10
103.390971
 20
198.104297
 30
0.0
 11
103.314681
 21
190.033585
 31
0.0
 11
103.394318
 21
192.722049
 31
0.0
 11
103.386491
 21
195.413201
 31
0.0
 11
103.390971
 21
198.104297
 31
0.0
  0
SPLINE
  5
109
100
AcDbEntity
  8
Layer_1
 62
7
100
AcDbSpline
 70
0
 71
3
 72
10
 73
6
 74
4
 40
0.000000
 40
0.000000
 40
0.000000
 40
0.000000
 40
4.632688
 40
9.263610
 40
13.892325
 40
13.892325
 40
13.892325
 40
13.892325
 10
103.390971
 20
198.104297
 30
0.0
 10
102.307418
 20
199.204562
 30
0.0
 10
100.140727
 20
201.404672
 30
0.0
 10
96.862195
 20
204.675090
 30
0.0
 10
94.675575
 20
206.853491
 30
0.0
 10
93.582525
 20
207.942431
 30
0.0
 11
103.390971
 21
198.104297
 31
0.0
 11
100.135441
 21
201.400253
 31
0.0
 11
96.861328
 21
204.675253
 31
0.0
 11
93.582525
 21
207.942431
 31
0.0
  0
SPLINE
  5
10a
100
AcDbEntity
  8
Layer_1
 62
7
100
AcDbSpline
 70
0
 71
3
 72
10
 73
6
 74
4
 40
0.000000
 40
0.000000
 40
0.000000
 40
0.000000
 40
2.559464
 40
5.119783
 40
7.678774
 40
7.678774
 40
7.678774
 40
7.678774
 10
93.582525
 20
207.942431
 30
0.0
 10
94.183886
 20
208.547601
 30
0.0
 10
95.386809
 20
209.758142
 30
0.0
 10
97.182036
 20
211.582735
 30
0.0
 10
98.403396
 20
212.774525
 30
0.0
 10
99.013918
 20
213.370266
 30
0.0
 11
93.582525
 21
207.942431
 31
0.0
 11
95.385118
 21
209.759439
 31
0.0
 11
97.188478
 21
211.576889
 31
0.0
 11
99.013918
 21
213.370266
 31
0.0
  0
SPLINE
  5
10b
100
AcDbEntity
  8
Layer_1
 62
7
100
AcDbSpline
 70
0
 71
3
 72
10
 73
6
 74
4
 40
0.000000
 40
0.000000
 40
0.000000
 40
0.000000
 40
2.056782
 40
4.112111
 40
6.167232
 40
6.167232
 40
6.167232
 40
6.167232
 10
99.013918
 20
213.370266
 30
0.0
 10
99.508333
 20
212.895270
 30
0.0
 10
100.496814
 20
211.945615
 30
0.0
 10
101.947831
 20
210.489224
 30
0.0
 10
102.909820
 20
209.513593
 30
0.0
 10
103.390791
 20
209.025802
 30
0.0
 11
99.013918
 21
213.370266
 31
0.0
 11
100.491912
 21
211.939921
 31
0.0
 11
101.946602
 21
210.487938
 31
0.0
 11
103.390791
 21
209.025802
 31
0.0
  0
SPLINE
  5
10c
100
AcDbEntity
  8
Layer_1
 62
7
100
AcDbSpline
 70
0
 71
3
 72
10
 73
6
 74
4
 40
0.000000
 40
0.000000
 40
0.000000
 40
0.000000
 40
3.384158
 40
6.770638
 40
10.155149
 40
10.155149
 40
10.155149
 40
10.155149
 10
103.390791
 20
209.025802
 30
0.0
 10
103.388642
 20
210.153853
 30
0.0
 10
103.384344
 20
212.410730
 30
0.0
 10
103.388092
 20
215.795780
 30
0.0
 10
103.388480
 20
218.052777
 30
0.0
 10
103.388674
 20
219.180947
 30
0.0
 11
103.390791
 21
209.025802
 31
0.0
 11
103.386044
 21
212.409956
 31
0.0
 11
103.387565
 21
215.796436
 31
0.0
 11
103.388674
 21
219.180947
 31
0.0
  0
SPLINE
  5
10d
100
AcDbEntity
  8
Layer_1
 62
7
100
AcDbSpline
 70
0
 71
3
 72
10
 73
6
 74
4
 40
0.000000
 40
0.000000
 40
0.000000
 40
0.000000
 40
2.530839
 40
5.061910
 40
7.591943
 40
7.591943
 40
7.591943
 40
7.591943
 10
103.538441
 20
219.181211
 30
0.0
 10
104.382050
 20
219.182959
 30
0.0
 10
106.069345
 20
219.186455
 30
0.0
 10
108.600019
 20
219.193834
 30
0.0
 10
110.286990
 20
219.177304
 30
0.0
 10
111.130303
 20
219.169041
 30
0.0
 11
103.538441
 21
219.181211
 31
0.0
 11
106.069274
 21
219.186811
 31
0.0
 11
108.600345
 21
219.188471
 31
0.0
 11
111.130303
 21
219.169041
 31
0.0
  0
SPLINE
  5
10e
100
AcDbEntity
  8
Layer_1
 62
7
100
AcDbSpline
 70
0
 71
3
 72
10
 73
6
 74
4
 40
0.000000
 40
0.000000
 40
0.000000
 40
0.000000
 40
3.384367
 40
6.768145
 40
10.151280
 40
10.151280
 40
10.151280
 40
10.151280
 10
111.130303
 20
219.169041
 30
0.0
 10
111.109490
 20
218.041066
 30
0.0
 10
111.067867
 20
215.785313
 30
0.0
 10
111.089229
 20
212.401419
 30
0.0
 10
111.108516
 20
210.145890
 30
0.0
 10
111.118158
 20
209.018232
 30
0.0
 11
111.130303
 21
219.169041
 31
0.0
 11
111.081832
 21
215.785020
 31
0.0
 11
111.090492
 21
212.401254
 31
0.0
 11
111.118158
 21
209.018232
 31
0.0
  0
SPLINE
  5
10f
100
AcDbEntity
  8
Layer_1
 62
7
100
AcDbSpline
 70
0
 71
3
 72
10
 73
6
 74
4
 40
0.000000
 40
0.000000
 40
0.000000
 40
0.000000
 40
2.045990
 40
4.090733
 40
6.133795
 40
6.133795
 40
6.133795
 40
6.133795
 10
111.118158
 20
209.018232
 30
0.0
 10
111.593658
 20
209.507128
 30
0.0
 10
112.544368
 20
210.484620
 30
0.0
 10
114.011768
 20
211.909405
 30
0.0
 10
114.929286
 20
212.917255
 30
0.0
 10
115.387856
 20
213.420973
 30
0.0
 11
111.118158
 21
209.018232
 31
0.0
 11
112.551644
 21
210.478094
 31
0.0
 11
113.997054
 21
211.924387
 31
0.0
 11
115.387856
 21
213.420973
 31
0.0
  0
SPLINE
  5
110
100
AcDbEntity
  8
Layer_1
 62
7
100
AcDbSpline
 70
0
 71
3
 72
10
 73
6
 74
4
 40
0.000000
 40
0.000000
 40
0.000000
 40
0.000000
 40
2.586501
 40
5.174164
 40
7.763442
 40
7.763442
 40
7.763442
 40
7.763442
 10
115.387856
 20
213.420973
 30
0.0
 10
116.008859
 20
212.822852
 30
0.0
 10
117.251144
 20
211.626341
 30
0.0
 10
119.069426
 20
209.784769
 30
0.0
 10
120.284035
 20
208.558996
 30
0.0
 10
120.891528
 20
207.945918
 30
0.0
 11
115.387856
 21
213.420973
 31
0.0
 11
117.243258
 21
211.618899
 31
0.0
 11
119.069576
 21
209.785715
 31
0.0
 11
120.891528
 21
207.945918
 31
0.0
  0
SPLINE
  5
111
100
AcDbEntity
  8
Layer_1
 62
7
100
AcDbSpline
 70
0
 71
3
 72
10
 73
6
 74
4
 40
0.000000
 40
0.000000
 40
0.000000
 40
0.000000
 40
4.470733
 40
8.940046
 40
13.407631
 40
13.407631
 40
13.407631
 40
13.407631
 10
120.891528
 20
207.945918
 30
0.0
 10
119.833779
 20
206.896157
 30
0.0
 10
117.718618
 20
204.796968
 30
0.0
 10
114.561736
 20
201.633395
 30
0.0
 10
112.469623
 20
199.512705
 30
0.0
 10
111.423768
 20
198.452565
 30
0.0
 11
120.891528
 21
207.945918
 31
0.0
 11
117.720831
 21
204.794073
 31
0.0
 11
114.564359
 21
201.629986
 31
0.0
 11
111.423768
 21
198.452565
 31
0.0
  0
SPLINE
  5
112
100
AcDbEntity
  8
Layer_1
 62
7
100
AcDbSpline
 70
0
 71
3
 72
10
 73
6
 74
4
 40
0.000000
 40
0.000000
 40
0.000000
 40
0.000000
 40
0.477593
 40
0.961330
 40
1.443282
 40
1.443282
 40
1.443282
 40
1.443282
 10
111.423768
 20
198.452565
 30
0.0
 10
111.318329
 20
198.326969
 30
0.0
 10
111.106096
 20
198.074160
 30
0.0
 10
111.095159
 20
197.572646
 30
0.0
 10
111.085238
 20
197.253644
 30
0.0
 10
111.080286
 20
197.094438
 30
0.0
 11
111.423768
 21
198.452565
 31
0.0
 11
111.158037
 21
198.055726
 31
0.0
 11
111.094492
 21
197.576180
 31
0.0
 11
111.080286
 21
197.094438
 31
0.0
  0
SPLINE
  5
113
100
AcDbEntity
  8
Layer_1
 62
7
100
AcDbSpline
 70
0
 71
3
 72
10
 73
6
 74
4
 40
0.000000
 40
0.000000
 40
0.000000
 40
0.000000
 40
2.355977
 40
4.710102
 40
7.065009
 40
7.065009
 40
7.065009
 40
7.065009
 10
111.080286
 20
197.094438
 30
0.0
 10
111.086633
 20
196.309139
 30
0.0
 10
111.099321
 20
194.739158
 30
0.0
 10
111.101812
 20
192.384094
 30
0.0
 10
111.082065
 20
190.814525
 30
0.0
 10
111.072190
 20
190.029611
 30
0.0
 11
111.080286
 21
197.094438
 31
0.0
 11
111.096567
 21
194.738517
 31
0.0
 11
111.096462
 21
192.384392
 31
0.0
 11
111.072190
 21
190.029611
 31
0.0
  0
SPLINE
  5
114
100
AcDbEntity
  8
Layer_1
 62
7
100
AcDbSpline
 70
0
 71
3
 72
10
 73
6
 74
4
 40
0.000000
 40
0.000000
 40
0.000000
 40
0.000000
 40
6.162650
 40
12.327371
 40
18.493821
 40
18.493821
 40
18.493821
 40
18.493821
 10
111.072190
 20
190.029611
 30
0.0
 10
112.602428
 20
191.400139
 30
0.0
 10
115.663419
 20
194.141657
 30
0.0
 10
120.182698
 20
198.334571
 30
0.0
 10
123.208445
 20
201.116664
 30
0.0
 10
124.721530
 20
202.507905
 30
0.0
 11
111.072190
 21
190.029611
 31
0.0
 11
115.650761
 21
194.154527
 31
0.0
 11
120.185379
 21
198.330773
 31
0.0
 11
124.721530
 21
202.507905
 31
0.0
  0
SPLINE
  5
115
100
AcDbEntity
  8
Layer_1
 62
7
100
AcDbSpline
 70
0
 71
3
 72
10
 73
6
 74
4
 40
0.000000
 40
0.000000
 40
0.000000
 40
0.000000
 40
6.172208
 40
12.344128
 40
18.516701
 40
18.516701
 40
18.516701
 40
18.516701
 10
124.721530
 20
202.507905
 30
0.0
 10
124.301902
 20
200.493702
 30
0.0
 10
123.462666
 20
196.465390
 30
0.0
 10
122.090831
 20
190.447346
 30
0.0
 10
121.195682
 20
186.431078
 30
0.0
 10
120.748084
 20
184.422838
 30
0.0
 11
124.721530
 21
202.507905
 31
0.0
 11
123.443822
 21
196.469395
 31
0.0
 11
122.095731
 21
190.446501
 31
0.0
 11
120.748084
 21
184.422838
 31
0.0
  0
SPLINE
  5
116
100
AcDbEntity
  8
Layer_1
 62
7
100
AcDbSpline
 70
0
 71
3
 72
10
 73
6
 74
4
 40
0.000000
 40
0.000000
 40
0.000000
 40
0.000000
 40
2.726657
 40
5.452972
 40
8.179563
 40
8.179563
 40
8.179563
 40
8.179563
 10
120.748084
 20
184.422838
 30
0.0
 10
121.544046
 20
184.861660
 30
0.0
 10
123.135871
 20
185.739247
 30
0.0
 10
125.492854
 20
187.110279
 30
0.0
 10
127.051758
 20
188.044949
 30
0.0
 10
127.831250
 20
188.512307
 30
0.0
 11
120.748084
 21
184.422838
 31
0.0
 11
123.130839
 21
185.748409
 31
0.0
 11
125.489680
 21
187.115400
 31
0.0
 11
127.831250
 21
188.512307
 31
0.0
  0
SPLINE
  5
117
100
AcDbEntity
  8
Layer_1
 62
7
100
AcDbSpline
 70
0
 71
3
 72
10
 73
6
 74
4
 40
0.000000
 40
0.000000
 40
0.000000
 40
0.000000
 40
4.605497
 40
9.214217
 40
13.806862
 40
13.806862
 40
13.806862
 40
13.806862
 10
127.831250
 20
188.512307
 30
0.0
 10
128.237333
 20
189.992777
 30
0.0
 10
129.049783
 20
192.954751
 30
0.0
 10
130.145965
 20
197.426264
 30
0.0
 10
131.061507
 20
200.354374
 30
0.0
 10
131.518478
 20
201.815872
 30
0.0
 11
127.831250
 21
188.512307
 31
0.0
 11
129.029289
 21
192.959251
 31
0.0
 11
130.193655
 21
197.418460
 31
0.0
 11
131.518478
 21
201.815872
 31
0.0
  0
SPLINE
  5
118
100
AcDbEntity
  8
Layer_1
 62
7
100
AcDbSpline
 70
0
 71
3
 72
10
 73
6
 74
4
 40
0.000000
 40
0.000000
 40
0.000000
 40
0.000000
 40
2.522311
 40
5.046190
 40
7.571330
 40
7.571330
 40
7.571330
 40
7.571330
 10
131.518478
 20
201.815872
 30
0.0
 10
132.338224
 20
201.628307
 30
0.0
 10
133.978227
 20
201.253062
 30
0.0
 10
136.405188
 20
200.558426
 30
0.0
 10
138.028923
 20
200.115951
 30
0.0
 10
138.840993
 20
199.894658
 30
0.0
 11
131.518478
 21
201.815872
 31
0.0
 11
133.972105
 21
201.231262
 31
0.0
 11
136.406106
 21
200.563727
 31
0.0
 11
138.840993
 21
199.894658
 31
0.0
  0
SPLINE
  5
119
100
AcDbEntity
  8
Layer_1
 62
7
100
AcDbSpline
 70
0
 71
3
 72
10
 73
6
 74
4
 40
0.000000
 40
0.000000
 40
0.000000
 40
0.000000
 40
2.059233
 40
4.120118
 40
6.181068
 40
6.181068
 40
6.181068
 40
6.181068
 10
138.840993
 20
199.894658
 30
0.0
 10
138.675495
 20
199.228479
 30
0.0
 10
138.344365
 20
197.895587
 30
0.0
 10
137.806332
 20
195.906614
 30
0.0
 10
137.438715
 20
194.582772
 30
0.0
 10
137.254904
 20
193.920840
 30
0.0
 11
138.840993
 21
199.894658
 31
0.0
 11
138.337626
 21
197.897895
 31
0.0
 11
137.804130
 21
195.907260
 31
0.0
 11
137.254904
 21
193.920840
 31
0.0
  0
LWPOLYLINE
  5
11a
100
AcDbEntity
  8
Layer_1
 62
7
100
AcDbPolyline
 90
3
 70
0
 10
103.388674
 20
219.180947
 30
0.0
 10
103.848472
 20
219.182799
 30
0.0
 10
103.538441
 20
219.181211
 30
0.0
  0
SPLINE
  5
11b
100
AcDbEntity
  8
Layer_1
 62
7
100
AcDbSpline
 70
0
 71
3
 72
10
 73
6
 74
4
 40
0.000000
 40
0.000000
 40
0.000000
 40
0.000000
 40
3.386952
 40
6.772994
 40
10.159938
 40
10.159938
 40
10.159938
 40
10.159938
 10
137.254904
 20
193.920840
 30
0.0
 10
138.235457
 20
194.480417
 30
0.0
 10
140.196301
 20
195.599420
 30
0.0
 10
143.126577
 20
197.297351
 30
0.0
 10
145.077859
 20
198.432925
 30
0.0
 10
146.053630
 20
199.000787
 30
0.0
 11
137.254904
 21
193.920840
 31
0.0
 11
140.194711
 21
195.602796
 31
0.0
 11
143.125780
 21
197.298118
 31
0.0
 11
146.053630
 21
199.000787
 31
0.0
  0
SPLINE
  5
11c
100
AcDbEntity
  8
Layer_1
 62
7
100
AcDbSpline
 70
0
 71
3
 72
10
 73
6
 74
4
 40
0.000000
 40
0.000000
 40
0.000000
 40
0.000000
 40
3.383975
 40
6.767950
 40
10.151998
 40
10.151998
 40
10.151998
 40
10.151998
 10
149.897970
 20
192.342196
 30
0.0
 10
148.920719
 20
191.778866
 30
0.0
 10
146.966215
 20
190.652205
 30
0.0
 10
144.038665
 20
188.954825
 30
0.0
 10
142.075687
 20
187.842909
 30
0.0
 10
141.094188
 20
187.286945
 30
0.0
 11
149.897970
 21
192.342196
 31
0.0
 11
146.966919
 21
190.650976
 31
0.0
 11
144.035868
 21
188.959756
 31
0.0
 11
141.094188
 21
187.286945
 31
0.0
  0
SPLINE
  5
11d
100
AcDbEntity
  8
Layer_1
 62
7
100
AcDbSpline
 70
0
 71
3
 72
10
 73
6
 74
4
 40
0.000000
 40
0.000000
 40
0.000000
 40
0.000000
 40
2.074143
 40
4.147062
 40
6.218048
 40
6.218048
 40
6.218048
 40
6.218048
 10
141.094188
 20
187.286945
 30
0.0
 10
141.761917
 20
187.107695
 30
0.0
 10
143.096983
 20
186.749299
 30
0.0
 10
145.098814
 20
186.211420
 30
0.0
 10
146.422280
 20
185.815656
 30
0.0
 10
147.083703
 20
185.617866
 30
0.0
 11
141.094188
 21
187.286945
 31
0.0
 11
143.097385
 21
186.749109
 31
0.0
 11
145.096779
 21
186.201918
 31
0.0
 11
147.083703
 21
185.617866
 31
0.0
  0
SPLINE
  5
11e
100
AcDbEntity
  8
Layer_1
 62
7
100
AcDbSpline
 70
0
 71
3
 72
10
 73
6
 74
4
 40
0.000000
 40
0.000000
 40
0.000000
 40
0.000000
 40
2.552794
 40
5.104926
 40
7.657687
 40
7.657687
 40
7.657687
 40
7.657687
 10
147.083703
 20
185.617866
 30
0.0
 10
146.858275
 20
184.797339
 30
0.0
 10
146.407475
 20
183.156497
 30
0.0
 10
145.738250
 20
180.693205
 30
0.0
 10
145.304869
 20
179.047681
 30
0.0
 10
145.088152
 20
178.224818
 30
0.0
 11
147.083703
 21
185.617866
 31
0.0
 11
146.408584
 21
183.155962
 31
0.0
 11
145.741492
 21
180.692557
 31
0.0
 11
145.088152
 21
178.224818
 31
0.0
  0
SPLINE
  5
11f
100
AcDbEntity
  8
Layer_1
 62
7
100
AcDbSpline
 70
0
 71
3
 72
10
 73
6
 74
4
 40
0.000000
 40
0.000000
 40
0.000000
 40
0.000000
 40
4.624915
 40
9.249219
 40
13.872310
 40
13.872310
 40
13.872310
 40
13.872310
 10
145.088152
 20
178.224818
 30
0.0
 10
143.597759
 20
178.619023
 30
0.0
 10
140.617170
 20
179.407380
 30
0.0
 10
136.159232
 20
180.636248
 30
0.0
 10
133.175771
 20
181.411369
 30
0.0
 10
131.684237
 20
181.798878
 30
0.0
 11
145.088152
 21
178.224818
 31
0.0
 11
140.619049
 21
179.415178
 31
0.0
 11
136.155901
 21
180.625339
 31
0.0
 11
131.684237
 21
181.798878
 31
0.0
  0
SPLINE
  5
120
100
AcDbEntity
  8
Layer_1
 62
7
100
AcDbSpline
 70
0
 71
3
 72
10
 73
6
 74
4
 40
0.000000
 40
0.000000
 40
0.000000
 40
0.000000
 40
2.725219
 40
5.448581
 40
8.171090
 40
8.171090
 40
8.171090
 40
8.171090
 10
131.684237
 20
181.798878
 30
0.0
 10
130.893029
 20
181.352553
 30
0.0
 10
129.311152
 20
180.460206
 30
0.0
 10
126.954838
 20
179.093997
 30
0.0
 10
125.376894
 20
178.196562
 30
0.0
 10
124.588046
 20
177.747914
 30
0.0
 11
131.684237
 21
181.798878
 31
0.0
 11
129.313279
 21
180.455234
 31
0.0
 11
126.952714
 21
179.097134
 31
0.0
 11
124.588046
 21
177.747914
 31
0.0
  0
SPLINE
  5
121
100
AcDbEntity
  8
Layer_1
 62
7
100
AcDbSpline
 70
0
 71
3
 72
10
 73
6
 74
4
 40
0.000000
 40
0.000000
 40
0.000000
 40
0.000000
 40
6.208771
 40
12.417808
 40
18.627062
 40
18.627062
 40
18.627062
 40
18.627062
 10
124.588046
 20
177.747914
 30
0.0
 10
126.563063
 20
177.129438
 30
0.0
 10
130.513181
 20
175.892459
 30
0.0
 10
136.436073
 20
174.029313
 30
0.0
 10
140.383643
 20
172.783690
 30
0.0
 10
142.357462
 20
172.160867
 30
0.0
 11
124.588046
 21
177.747914
 31
0.0
 11
130.512697
 21
175.891212
 31
0.0
 11
136.435728
 21
174.028460
 31
0.0
 11
142.357462
 21
172.160867
 31
0.0
  0
SPLINE
  5
122
100
AcDbEntity
  8
Layer_1
 62
7
100
AcDbSpline
 70
0
 71
3
 72
10
 73
6
 74
4
 40
0.000000
 40
0.000000
 40
0.000000
 40
0.000000
 40
6.205303
 40
12.410779
 40
18.616511
 40
18.616511
 40
18.616511
 40
18.616511
 10
142.357462
 20
172.160867
 30
0.0
 10
140.382809
 20
171.545118
 30
0.0
 10
136.433447
 20
170.313603
 30
0.0
 10
130.511294
 20
168.459632
 30
0.0
 10
126.576302
 20
167.182361
 30
0.0
 10
124.608765
 20
166.543713
 30
0.0
 11
142.357462
 21
172.160867
 31
0.0
 11
136.433835
 21
170.312509
 31
0.0
 11
130.514668
 21
168.449340
 31
0.0
 11
124.608765
 21
166.543713
 31
0.0
  0
SPLINE
  5
123
100
AcDbEntity
  8
Layer_1
 62
7
100
AcDbSpline
 70
0
 71
3
 72
10
 73
6
 74
4
 40
0.000000
 40
0.000000
 40
0.000000
 40
0.000000
 40
2.680681
 40
5.360477
 40
8.041339
 40
8.041339
 40
8.041339
 40
8.041339
 10
124.608765
 20
166.543713
 30
0.0
 10
125.385839
 20
166.102573
 30
0.0
 10
126.939730
 20
165.220440
 30
0.0
 10
129.264389
 20
163.885898
 30
0.0
 10
130.803557
 20
162.978168
 30
0.0
 10
131.573294
 20
162.524213
 30
0.0
 11
124.608765
 21
166.543713
 31
0.0
 11
126.938926
 21
165.218421
 31
0.0
 11
129.261448
 21
163.881558
 31
0.0
 11
131.573294
 21
162.524213
 31
0.0
  0
SPLINE
  5
124
100
AcDbEntity
  8
Layer_1
 62
7
100
AcDbSpline
 70
0
 71
3
 72
10
 73
6
 74
4
 40
0.000000
 40
0.000000
 40
0.000000
 40
0.000000
 40
4.651108
 40
9.303119
 40
13.954076
 40
13.954076
 40
13.954076
 40
13.954076
 10
131.573294
 20
162.524213
 30
0.0
 10
133.080090
 20
162.889772
 30
0.0
 10
136.093974
 20
163.620960
 30
0.0
 10
140.570786
 20
164.885653
 30
0.0
 10
143.574811
 20
165.655316
 30
0.0
 10
145.076654
 20
166.040105
 30
0.0
 11
131.573294
 21
162.524213
 31
0.0
 11
136.086379
 21
163.648878
 31
0.0
 11
140.575976
 21
164.867372
 31
0.0
 11
145.076654
 21
166.040105
 31
0.0
  0
SPLINE
  5
125
100
AcDbEntity
  8
Layer_1
 62
7
100
AcDbSpline
 70
0
 71
3
 72
10
 73
6
 74
4
 40
0.000000
 40
0.000000
 40
0.000000
 40
0.000000
 40
2.571090
 40
5.142607
 40
7.714144
 40
7.714144
 40
7.714144
 40
7.714144
 10
145.076654
 20
166.040105
 30
0.0
 10
145.304003
 20
165.213787
 30
0.0
 10
145.758740
 20
163.561013
 30
0.0
 10
146.431210
 20
161.079005
 30
0.0
 10
146.845599
 20
159.415444
 30
0.0
 10
147.052795
 20
158.583660
 30
0.0
 11
145.076654
 21
166.040105
 31
0.0
 11
145.757093
 21
163.560689
 31
0.0
 11
146.422721
 21
161.076813
 31
0.0
 11
147.052795
 21
158.583660
 31
0.0
  0
SPLINE
  5
126
100
AcDbEntity
  8
Layer_1
 62
7
100
AcDbSpline
 70
0
 71
3
 72
10
 73
6
 74
4
 40
0.000000
 40
0.000000
 40
0.000000
 40
0.000000
 40
2.026839
 40
4.054037
 40
6.082070
 40
6.082070
 40
6.082070
 40
6.082070
 10
147.052795
 20
158.583660
 30
0.0
 10
146.394532
 20
158.431363
 30
0.0
 10
145.077890
 20
158.126743
 30
0.0
 10
143.119540
 20
157.600451
 30
0.0
 10
141.824637
 20
157.212490
 30
0.0
 10
141.177053
 20
157.018469
 30
0.0
 11
147.052795
 21
158.583660
 31
0.0
 11
145.080830
 21
158.115226
 31
0.0
 11
143.122515
 21
157.591263
 31
0.0
 11
141.177053
 21
157.018469
 31
0.0
  0
SPLINE
  5
127
100
AcDbEntity
  8
Layer_1
 62
7
100
AcDbSpline
 70
0
 71
3
 72
10
 73
6
 74
4
 40
0.000000
 40
0.000000
 40
0.000000
 40
0.000000
 40
3.353309
 40
6.706064
 40
10.058774
 40
10.058774
 40
10.058774
 40
10.058774
 10
141.177053
 20
157.018469
 30
0.0
 10
142.145086
 20
156.459643
 30
0.0
 10
144.080993
 20
155.342082
 30
0.0
 10
146.959558
 20
153.621735
 30
0.0
 10
148.925789
 20
152.558221
 30
0.0
 10
149.908898
 20
152.026467
 30
0.0
 11
141.177053
 21
157.018469
 31
0.0
 11
144.076952
 21
155.334645
 31
0.0
 11
146.971396
 21
153.642557
 31
0.0
 11
149.908898
 21
152.026467
 31
0.0
  0
LWPOLYLINE
  5
128
100
AcDbEntity
  8
Layer_1
 62
7
100
AcDbPolyline
 90
2
 70
0
 10
146.053630
 20
199.000787
 30
0.0
 10
149.897970
 20
192.342196
 30
0.0
  0
SPLINE
  5
129
100
AcDbEntity
  8
Layer_1
 62
7
100
AcDbSpline
 70
0
 71
3
 72
10
 73
6
 74
4
 40
0.000000
 40
0.000000
 40
0.000000
 40
0.000000
 40
2.486622
 40
4.975451
 40
7.459211
 40
7.459211
 40
7.459211
 40
7.459211
 10
149.908898
 20
152.026467
 30
0.0
 10
149.503286
 20
151.303733
 30
0.0
 10
148.691703
 20
149.857622
 30
0.0
 10
147.373648
 20
147.744919
 30
0.0
 10
146.686224
 20
146.234614
 30
0.0
 10
146.342862
 20
145.480231
 30
0.0
 11
149.908898
 21
152.026467
 31
0.0
 11
148.675181
 21
149.867479
 31
0.0
 11
147.420659
 21
147.717956
 31
0.0
 11
146.342862
 21
145.480231
 31
0.0
  0
SPLINE
  5
12a
100
AcDbEntity
  8
Layer_1
 62
7
100
AcDbSpline
 70
0
 71
3
 72
10
 73
6
 74
4
 40
0.000000
 40
0.000000
 40
0.000000
 40
0.000000
 40
3.360667
 40
6.723259
 40
10.085255
 40
10.085255
 40
10.085255
 40
10.085255
 10
145.959708
 20
145.259016
 30
0.0
 10
145.008496
 20
145.851081
 30
0.0
 10
143.105526
 20
147.035551
 30
0.0
 10
140.160412
 20
148.658513
 30
0.0
 10
138.233624
 20
149.804060
 30
0.0
 10
137.270316
 20
150.376782
 30
0.0
 11
145.959708
 21
145.259016
 31
0.0
 11
143.090988
 21
147.009593
 31
0.0
 11
140.169474
 21
148.674461
 31
0.0
 11
137.270316
 21
150.376782
 31
0.0
  0
SPLINE
  5
12b
100
AcDbEntity
  8
Layer_1
 62
7
100
AcDbSpline
 70
0
 71
3
 72
10
 73
6
 74
4
 40
0.000000
 40
0.000000
 40
0.000000
 40
0.000000
 40
2.060370
 40
4.120154
 40
6.179628
 40
6.179628
 40
6.179628
 40
6.179628
 10
137.270316
 20
150.376782
 30
0.0
 10
137.445034
 20
149.712586
 30
0.0
 10
137.794420
 20
148.384382
 30
0.0
 10
138.342356
 20
146.398623
 30
0.0
 10
138.678677
 20
145.067319
 30
0.0
 10
138.846825
 20
144.401718
 30
0.0
 11
137.270316
 21
150.376782
 31
0.0
 11
137.798456
 21
148.385252
 31
0.0
 11
138.335151
 21
146.396617
 31
0.0
 11
138.846825
 21
144.401718
 31
0.0
  0
SPLINE
  5
12c
100
AcDbEntity
  8
Layer_1
 62
7
100
AcDbSpline
 70
0
 71
3
 72
10
 73
6
 74
4
 40
0.000000
 40
0.000000
 40
0.000000
 40
0.000000
 40
2.545727
 40
5.091344
 40
7.636939
 40
7.636939
 40
7.636939
 40
7.636939
 10
138.846825
 20
144.401718
 30
0.0
 10
138.029445
 20
144.173662
 30
0.0
 10
136.394720
 20
143.717560
 30
0.0
 10
133.922252
 20
143.108822
 30
0.0
 10
132.297110
 20
142.618996
 30
0.0
 10
131.484542
 20
142.374084
 30
0.0
 11
138.846825
 21
144.401718
 31
0.0
 11
136.391283
 21
143.730119
 31
0.0
 11
133.928031
 21
143.087818
 31
0.0
 11
131.484542
 21
142.374084
 31
0.0
  0
SPLINE
  5
12d
100
AcDbEntity
  8
Layer_1
 62
7
100
AcDbSpline
 70
0
 71
3
 72
10
 73
6
 74
4
 40
0.000000
 40
0.000000
 40
0.000000
 40
0.000000
 40
4.646096
 40
9.294332
 40
13.935317
 40
13.935317
 40
13.935317
 40
13.935317
 10
131.484542
 20
142.374084
 30
0.0
 10
131.053838
 20
143.861807
 30
0.0
 10
130.192232
 20
146.837938
 30
0.0
 10
129.080020
 20
151.349341
 30
0.0
 10
128.186187
 20
154.314444
 30
0.0
 10
127.739619
 20
155.795838
 30
0.0
 11
131.484542
 21
142.374084
 31
0.0
 11
130.222367
 21
146.845450
 31
0.0
 11
129.041272
 21
151.341128
 31
0.0
 11
127.739619
 21
155.795838
 31
0.0
  0
SPLINE
  5
12e
100
AcDbEntity
  8
Layer_1
 62
7
100
AcDbSpline
 70
0
 71
3
 72
10
 73
6
 74
4
 40
0.000000
 40
0.000000
 40
0.000000
 40
0.000000
 40
2.693826
 40
5.392514
 40
8.089757
 40
8.089757
 40
8.089757
 40
8.089757
 10
127.739619
 20
155.795838
 30
0.0
 10
126.977194
 20
156.270486
 30
0.0
 10
125.450967
 20
157.220639
 30
0.0
 10
123.089563
 20
158.524179
 30
0.0
 10
121.541910
 20
159.440715
 30
0.0
 10
120.768290
 20
159.898861
 30
0.0
 11
127.739619
 21
155.795838
 31
0.0
 11
125.440402
 21
157.199511
 31
0.0
 11
123.096000
 21
158.536184
 31
0.0
 11
120.768290
 21
159.898861
 31
0.0
  0
SPLINE
  5
12f
100
AcDbEntity
  8
Layer_1
 62
7
100
AcDbSpline
 70
0
 71
3
 72
10
 73
6
 74
4
 40
0.000000
 40
0.000000
 40
0.000000
 40
0.000000
 40
6.178578
 40
12.357930
 40
18.536780
 40
18.536780
 40
18.536780
 40
18.536780
 10
120.768290
 20
159.898861
 30
0.0
 10
121.211833
 20
157.887664
 30
0.0
 10
122.098974
 20
153.865018
 30
0.0
 10
123.471122
 20
147.840236
 30
0.0
 10
124.323463
 20
143.809912
 30
0.0
 10
124.749616
 20
141.794831
 30
0.0
 11
120.768290
 21
159.898861
 31
0.0
 11
122.105825
 21
153.866795
 31
0.0
 11
123.455545
 21
147.836650
 31
0.0
 11
124.749616
 21
141.794831
 31
0.0
  0
SPLINE
  5
130
100
AcDbEntity
  8
Layer_1
 62
7
100
AcDbSpline
 70
0
 71
3
 72
10
 73
6
 74
4
 40
0.000000
 40
0.000000
 40
0.000000
 40
0.000000
 40
6.197008
 40
12.393627
 40
18.588099
 40
18.588099
 40
18.588099
 40
18.588099
 10
124.749616
 20
141.794831
 30
0.0
 10
123.232371
 20
143.196609
 30
0.0
 10
120.197976
 20
146.000077
 30
0.0
 10
115.616865
 20
150.171982
 30
0.0
 10
112.582661
 20
152.974409
 30
0.0
 10
111.065821
 20
154.375380
 30
0.0
 11
124.749616
 21
141.794831
 31
0.0
 11
120.192864
 21
145.994703
 31
0.0
 11
115.621245
 21
150.177810
 31
0.0
 11
111.065821
 21
154.375380
 31
0.0
  0
SPLINE
  5
131
100
AcDbEntity
  8
Layer_1
 62
7
100
AcDbSpline
 70
0
 71
3
 72
10
 73
6
 74
4
 40
0.000000
 40
0.000000
 40
0.000000
 40
0.000000
 40
2.463070
 40
4.927007
 40
7.391670
 40
7.391670
 40
7.391670
 40
7.391670
 10
111.065821
 20
154.375380
 30
0.0
 10
111.079400
 20
153.554434
 30
0.0
 10
111.106561
 20
151.912254
 30
0.0
 10
111.084675
 20
149.448318
 30
0.0
 10
111.088104
 20
147.805457
 30
0.0
 10
111.089819
 20
146.983906
 30
0.0
 11
111.065821
 21
154.375380
 31
0.0
 11
111.096122
 21
151.912497
 31
0.0
 11
111.089181
 21
149.448569
 31
0.0
 11
111.089819
 21
146.983906
 31
0.0
  0
SPLINE
  5
132
100
AcDbEntity
  8
Layer_1
 62
7
100
AcDbSpline
 70
0
 71
3
 72
10
 73
6
 74
4
 40
0.000000
 40
0.000000
 40
0.000000
 40
0.000000
 40
0.606897
 40
1.209877
 40
1.823733
 40
1.823733
 40
1.823733
 40
1.823733
 10
111.089819
 20
146.983906
 30
0.0
 10
111.095225
 20
146.778138
 30
0.0
 10
111.106001
 20
146.367932
 30
0.0
 10
111.440787
 20
145.835774
 30
0.0
 10
111.717292
 20
145.541089
 30
0.0
 10
111.856780
 20
145.392429
 30
0.0
 11
111.089819
 21
146.983906
 31
0.0
 11
111.159209
 21
146.380989
 31
0.0
 11
111.451836
 21
145.853774
 31
0.0
 11
111.856780
 21
145.392429
 31
0.0
  0
SPLINE
  5
133
100
AcDbEntity
  8
Layer_1
 62
7
100
AcDbSpline
 70
0
 71
3
 72
10
 73
6
 74
4
 40
0.000000
 40
0.000000
 40
0.000000
 40
0.000000
 40
4.276064
 40
8.553521
 40
12.830433
 40
12.830433
 40
12.830433
 40
12.830433
 10
111.856780
 20
145.392429
 30
0.0
 10
112.860227
 20
144.380137
 30
0.0
 10
114.867448
 20
142.355224
 30
0.0
 10
117.919173
 20
139.358456
 30
0.0
 10
119.898291
 20
137.305485
 30
0.0
 10
120.887787
 20
136.279065
 30
0.0
 11
111.856780
 21
145.392429
 31
0.0
 11
114.873928
 21
142.362324
 31
0.0
 11
117.905415
 21
139.344589
 31
0.0
 11
120.887787
 21
136.279065
 31
0.0
  0
SPLINE
  5
134
100
AcDbEntity
  8
Layer_1
 62
7
100
AcDbSpline
 70
0
 71
3
 72
10
 73
6
 74
4
 40
0.000000
 40
0.000000
 40
0.000000
 40
0.000000
 40
2.549567
 40
5.100643
 40
7.652164
 40
7.652164
 40
7.652164
 40
7.652164
 10
120.887787
 20
136.279065
 30
0.0
 10
120.273397
 20
135.691763
 30
0.0
 10
119.044253
 20
134.516811
 30
0.0
 10
117.274872
 20
132.678786
 30
0.0
 10
116.049564
 20
131.498954
 30
0.0
 10
115.436857
 20
130.908987
 30
0.0
 11
120.887787
 21
136.279065
 31
0.0
 11
119.057044
 21
134.504614
 31
0.0
 11
117.263613
 21
132.690340
 31
0.0
 11
115.436857
 21
130.908987
 31
0.0
  0
SPLINE
  5
135
100
AcDbEntity
  8
Layer_1
 62
7
100
AcDbSpline
 70
0
 71
3
 72
10
 73
6
 74
4
 40
0.000000
 40
0.000000
 40
0.000000
 40
0.000000
 40
2.039468
 40
4.079505
 40
6.119148
 40
6.119148
 40
6.119148
 40
6.119148
 10
115.436857
 20
130.908987
 30
0.0
 10
114.958370
 20
131.391906
 30
0.0
 10
114.001261
 20
132.357880
 30
0.0
 10
112.555961
 20
133.797180
 30
0.0
 10
111.592610
 20
134.757003
 30
0.0
 10
111.110980
 20
135.236869
 30
0.0
 11
115.436857
 21
130.908987
 31
0.0
 11
113.999785
 21
132.356140
 31
0.0
 11
112.555928
 21
133.797331
 31
0.0
 11
111.110980
 21
135.236869
 31
0.0
  0
LWPOLYLINE
  5
136
100
AcDbEntity
  8
Layer_1
 62
7
100
AcDbPolyline
 90
2
 70
0
 10
146.342862
 20
145.480231
 30
0.0
 10
145.959708
 20
145.259016
 30
0.0
  0
SPLINE
  5
137
100
AcDbEntity
  8
Layer_1
 62
7
100
AcDbSpline
 70
0
 71
3
 72
10
 73
6
 74
4
 40
0.000000
 40
0.000000
 40
0.000000
 40
0.000000
 40
3.345099
 40
6.689562
 40
10.031891
 40
10.031891
 40
10.031891
 40
10.031891
 10
111.110980
 20
135.236869
 30
0.0
 10
111.110686
 20
134.121914
 30
0.0
 10
111.110097
 20
131.892215
 30
0.0
 10
111.040654
 20
128.547221
 30
0.0
 10
111.167419
 20
126.321011
 30
0.0
 10
111.230781
 20
125.208261
 30
0.0
 11
111.110980
 21
135.236869
 31
0.0
 11
111.098665
 21
131.891792
 31
0.0
 11
111.083930
 21
128.547362
 31
0.0
 11
111.230781
 21
125.208261
 31
0.0
  0
SPLINE
  5
138
100
AcDbEntity
  8
Layer_1
 62
7
100
AcDbSpline
 70
0
 71
3
 72
10
 73
6
 74
4
 40
0.000000
 40
0.000000
 40
0.000000
 40
0.000000
 40
2.440904
 40
4.887677
 40
7.332055
 40
7.332055
 40
7.332055
 40
7.332055
 10
110.771687
 20
124.943202
 30
0.0
 10
109.960969
 20
125.021774
 30
0.0
 10
108.337584
 20
125.179108
 30
0.0
 10
105.891288
 20
125.101710
 30
0.0
 10
104.261286
 20
125.094603
 30
0.0
 10
103.446684
 20
125.091051
 30
0.0
 11
110.771687
 21
124.943202
 31
0.0
 11
108.337698
 21
125.126813
 31
0.0
 11
105.890965
 21
125.112827
 31
0.0
 11
103.446684
 21
125.091051
 31
0.0
  0
SPLINE
  5
139
100
AcDbEntity
  8
Layer_1
 62
7
100
AcDbSpline
 70
0
 71
3
 72
10
 73
6
 74
4
 40
0.000000
 40
0.000000
 40
0.000000
 40
0.000000
 40
3.399382
 40
6.799931
 40
10.200194
 40
10.200194
 40
10.200194
 40
10.200194
 10
103.446684
 20
125.091051
 30
0.0
 10
103.418687
 20
126.223879
 30
0.0
 10
103.362684
 20
128.489925
 30
0.0
 10
103.372157
 20
131.890343
 30
0.0
 10
103.411347
 20
134.156933
 30
0.0
 10
103.430941
 20
135.290180
 30
0.0
 11
103.446684
 21
125.091051
 31
0.0
 11
103.378268
 21
128.489744
 31
0.0
 11
103.380376
 21
131.890292
 31
0.0
 11
103.430941
 21
135.290180
 31
0.0
  0
SPLINE
  5
13a
100
AcDbEntity
  8
Layer_1
 62
7
100
AcDbSpline
 70
0
 71
3
 72
10
 73
6
 74
4
 40
0.000000
 40
0.000000
 40
0.000000
 40
0.000000
 40
2.081027
 40
4.161283
 40
6.241628
 40
6.241628
 40
6.241628
 40
6.241628
 10
103.430941
 20
135.290180
 30
0.0
 10
102.940432
 20
134.799678
 30
0.0
 10
101.959596
 20
133.818857
 30
0.0
 10
100.475230
 20
132.360983
 30
0.0
 10
99.493104
 20
131.381780
 30
0.0
 10
99.002031
 20
130.892167
 30
0.0
 11
103.430941
 21
135.290180
 31
0.0
 11
101.957216
 21
133.820891
 31
0.0
 11
100.477085
 21
132.359154
 31
0.0
 11
99.002031
 21
130.892167
 31
0.0
  0
SPLINE
  5
13b
100
AcDbEntity
  8
Layer_1
 62
7
100
AcDbSpline
 70
0
 71
3
 72
10
 73
6
 74
4
 40
0.000000
 40
0.000000
 40
0.000000
 40
0.000000
 40
2.553422
 40
5.106878
 40
7.661278
 40
7.661278
 40
7.661278
 40
7.661278
 10
99.002031
 20
130.892167
 30
0.0
 10
98.407118
 20
131.500904
 30
0.0
 10
97.217286
 20
132.718384
 30
0.0
 10
95.395111
 20
134.507760
 30
0.0
 10
94.191159
 20
135.711672
 30
0.0
 10
93.589071
 20
136.313739
 30
0.0
 11
99.002031
 21
130.892167
 31
0.0
 11
97.211094
 21
132.712198
 31
0.0
 11
95.398062
 21
134.510268
 31
0.0
 11
93.589071
 21
136.313739
 31
0.0
  0
SPLINE
  5
13c
100
AcDbEntity
  8
Layer_1
 62
7
100
AcDbSpline
 70
0
 71
3
 72
10
 73
6
 74
4
 40
0.000000
 40
0.000000
 40
0.000000
 40
0.000000
 40
4.600499
 40
9.201206
 40
13.798111
 40
13.798111
 40
13.798111
 40
13.798111
 10
93.589071
 20
136.313739
 30
0.0
 10
94.664316
 20
137.407139
 30
0.0
 10
96.814854
 20
139.593990
 30
0.0
 10
100.107876
 20
142.805751
 30
0.0
 10
102.225446
 20
145.023177
 30
0.0
 10
103.283793
 20
146.131431
 30
0.0
 11
93.589071
 21
136.313739
 31
0.0
 11
96.826155
 21
139.582666
 31
0.0
 11
100.089390
 21
142.825781
 31
0.0
 11
103.283793
 21
146.131431
 31
0.0
  0
SPLINE
  5
13d
100
AcDbEntity
  8
Layer_1
 62
7
100
AcDbSpline
 70
0
 71
3
 72
10
 73
6
 74
4
 40
0.000000
 40
0.000000
 40
0.000000
 40
0.000000
 40
2.718464
 40
5.442894
 40
8.164799
 40
8.164799
 40
8.164799
 40
8.164799
 10
103.283793
 20
146.131431
 30
0.0
 10
103.333519
 20
147.036576
 30
0.0
 10
103.433081
 20
148.848851
 30
0.0
 10
103.371831
 20
151.571222
 30
0.0
 10
103.390097
 20
153.386541
 30
0.0
 10
103.399226
 20
154.293780
 30
0.0
 11
103.283793
 21
146.131431
 31
0.0
 11
103.397950
 21
148.847497
 31
0.0
 11
103.386607
 21
151.571903
 31
0.0
 11
103.399226
 21
154.293780
 31
0.0
  0
SPLINE
  5
13e
100
AcDbEntity
  8
Layer_1
 62
7
100
AcDbSpline
 70
0
 71
3
 72
10
 73
6
 74
4
 40
0.000000
 40
0.000000
 40
0.000000
 40
0.000000
 40
6.187974
 40
12.374961
 40
18.563219
 40
18.563219
 40
18.563219
 40
18.563219
 10
103.399226
 20
154.293780
 30
0.0
 10
101.873161
 20
152.906080
 30
0.0
 10
98.821275
 20
150.130903
 30
0.0
 10
94.271249
 20
145.937370
 30
0.0
 10
91.239863
 20
143.139698
 30
0.0
 10
89.724014
 20
141.740719
 30
0.0
 11
103.399226
 21
154.293780
 31
0.0
 11
98.825698
 21
150.125583
 31
0.0
 11
94.272037
 21
145.937149
 31
0.0
 11
89.724014
 21
141.740719
 31
0.0
  0
SPLINE
  5
13f
100
AcDbEntity
  8
Layer_1
 62
7
100
AcDbSpline
 70
0
 71
3
 72
10
 73
6
 74
4
 40
0.000000
 40
0.000000
 40
0.000000
 40
0.000000
 40
6.195106
 40
12.390376
 40
18.587270
 40
18.587270
 40
18.587270
 40
18.587270
 10
89.724014
 20
141.740719
 30
0.0
 10
90.158109
 20
143.759630
 30
0.0
 10
91.026311
 20
147.797507
 30
0.0
 10
92.402678
 20
153.838580
 30
0.0
 10
93.272541
 20
157.876705
 30
0.0
 10
93.707530
 20
159.896033
 30
0.0
 11
89.724014
 21
141.740719
 31
0.0
 11
91.038622
 21
147.794737
 31
0.0
 11
92.390620
 21
153.840684
 31
0.0
 11
93.707530
 21
159.896033
 31
0.0
  0
SPLINE
  5
140
100
AcDbEntity
  8
Layer_1
 62
7
100
AcDbSpline
 70
0
 71
3
 72
10
 73
6
 74
4
 40
0.000000
 40
0.000000
 40
0.000000
 40
0.000000
 40
2.660620
 40
5.323065
 40
7.984382
 40
7.984382
 40
7.984382
 40
7.984382
 10
93.707530
 20
159.896033
 30
0.0
 10
92.941072
 20
159.449850
 30
0.0
 10
91.407629
 20
158.557178
 30
0.0
 10
89.078328
 20
157.268439
 30
0.0
 10
87.569620
 20
156.333579
 30
0.0
 10
86.815426
 20
155.866249
 30
0.0
 11
93.707530
 21
159.896033
 31
0.0
 11
91.403292
 21
158.565851
 31
0.0
 11
89.089105
 21
157.249358
 31
0.0
 11
86.815426
 21
155.866249
 31
0.0
  0
SPLINE
  5
141
100
AcDbEntity
  8
Layer_1
 62
7
100
AcDbSpline
 70
0
 71
3
 72
10
 73
6
 74
4
 40
0.000000
 40
0.000000
 40
0.000000
 40
0.000000
 40
4.656354
 40
9.326489
 40
13.993463
 40
13.993463
 40
13.993463
 40
13.993463
 10
86.815426
 20
155.866249
 30
0.0
 10
86.345748
 20
154.386366
 30
0.0
 10
85.405002
 20
151.422220
 30
0.0
 10
84.314457
 20
146.884678
 30
0.0
 10
83.469647
 20
143.889061
 30
0.0
 10
83.047385
 20
142.391760
 30
0.0
 11
86.815426
 21
155.866249
 31
0.0
 11
85.459711
 21
151.411625
 31
0.0
 11
84.284904
 21
146.891670
 31
0.0
 11
83.047385
 21
142.391760
 31
0.0
  0
SPLINE
  5
142
100
AcDbEntity
  8
Layer_1
 62
7
100
AcDbSpline
 70
0
 71
3
 72
10
 73
6
 74
4
 40
0.000000
 40
0.000000
 40
0.000000
 40
0.000000
 40
2.566932
 40
5.133149
 40
7.699993
 40
7.699993
 40
7.699993
 40
7.699993
 10
83.047385
 20
142.391760
 30
0.0
 10
82.223347
 20
142.622215
 30
0.0
 10
80.575500
 20
143.083060
 30
0.0
 10
78.093455
 20
143.736885
 30
0.0
 10
76.441678
 20
144.183223
 30
0.0
 10
75.615688
 20
144.406420
 30
0.0
 11
83.047385
 21
142.391760
 31
0.0
 11
80.573572
 21
143.076878
 31
0.0
 11
78.094365
 21
143.739450
 31
0.0
 11
75.615688
 21
144.406420
 31
0.0
  0
SPLINE
  5
143
100
AcDbEntity
  8
Layer_1
 62
7
100
AcDbSpline
 70
0
 71
3
 72
10
 73
6
 74
4
 40
0.000000
 40
0.000000
 40
0.000000
 40
0.000000
 40
2.054546
 40
4.108439
 40
6.161097
 40
6.161097
 40
6.161097
 40
6.161097
 10
75.615688
 20
144.406420
 30
0.0
 10
75.788137
 20
145.069207
 30
0.0
 10
76.132980
 20
146.394572
 30
0.0
 10
76.674804
 20
148.375550
 30
0.0
 10
77.020936
 20
149.699924
 30
0.0
 10
77.193950
 20
150.361913
 30
0.0
 11
75.615688
 21
144.406420
 31
0.0
 11
76.137152
 21
146.393687
 31
0.0
 11
76.671158
 21
148.376947
 31
0.0
 11
77.193950
 21
150.361913
 31
0.0
  0
LWPOLYLINE
  5
144
100
AcDbEntity
  8
Layer_1
 62
7
100
AcDbPolyline
 90
2
 70
0
 10
111.230781
 20
125.208261
 30
0.0
 10
110.771687
 20
124.943202
 30
0.0
  0
SPLINE
  5
145
100
AcDbEntity
  8
Layer_1
 62
7
100
AcDbSpline
 70
0
 71
3
 72
10
 73
6
 74
4
 40
0.000000
 40
0.000000
 40
0.000000
 40
0.000000
 40
3.370985
 40
6.741096
 40
10.112089
 40
10.112089
 40
10.112089
 40
10.112089
 10
77.193950
 20
150.361913
 30
0.0
 10
76.220747
 20
149.800226
 30
0.0
 10
74.274591
 20
148.676999
 30
0.0
 10
71.349223
 20
147.002530
 30
0.0
 10
69.400946
 20
145.882985
 30
0.0
 10
68.426679
 20
145.323140
 30
0.0
 11
77.193950
 21
150.361913
 31
0.0
 11
74.273338
 21
148.678595
 31
0.0
 11
71.349949
 21
147.001856
 31
0.0
 11
68.426679
 21
145.323140
 31
0.0
  0
SPLINE
  5
146
100
AcDbEntity
  8
Layer_1
 62
7
100
AcDbSpline
 70
0
 71
3
 72
10
 73
6
 74
4
 40
0.000000
 40
0.000000
 40
0.000000
 40
0.000000
 40
3.368046
 40
6.736088
 40
10.104149
 40
10.104149
 40
10.104149
 40
10.104149
 10
64.588261
 20
151.971325
 30
0.0
 10
65.562008
 20
152.530098
 30
0.0
 10
67.509502
 20
153.647643
 30
0.0
 10
70.433772
 20
155.318754
 30
0.0
 10
72.371693
 20
156.452865
 30
0.0
 10
73.340657
 20
157.019922
 30
0.0
 11
64.588261
 21
151.971325
 31
0.0
 11
67.510007
 21
153.646776
 31
0.0
 11
70.430868
 21
155.323760
 31
0.0
 11
73.340657
 21
157.019922
 31
0.0
  0
SPLINE
  5
147
100
AcDbEntity
  8
Layer_1
 62
7
100
AcDbSpline
 70
0
 71
3
 72
10
 73
6
 74
4
 40
0.000000
 40
0.000000
 40
0.000000
 40
0.000000
 40
2.044783
 40
4.088292
 40
6.133181
 40
6.133181
 40
6.133181
 40
6.133181
 10
73.340657
 20
157.019922
 30
0.0
 10
72.683660
 20
157.201337
 30
0.0
 10
71.370075
 20
157.564056
 30
0.0
 10
69.402754
 20
158.120813
 30
0.0
 10
68.079883
 20
158.448680
 30
0.0
 10
67.418224
 20
158.612669
 30
0.0
 11
73.340657
 21
157.019922
 31
0.0
 11
71.370216
 21
157.566272
 31
0.0
 11
69.400336
 21
158.109878
 31
0.0
 11
67.418224
 21
158.612669
 31
0.0
  0
SPLINE
  5
148
100
AcDbEntity
  8
Layer_1
 62
7
100
AcDbSpline
 70
0
 71
3
 72
10
 73
6
 74
4
 40
0.000000
 40
0.000000
 40
0.000000
 40
0.000000
 40
2.568608
 40
5.138290
 40
7.708622
 40
7.708622
 40
7.708622
 40
7.708622
 10
67.418224
 20
158.612669
 30
0.0
 10
67.625280
 20
159.443508
 30
0.0
 10
68.039477
 20
161.105536
 30
0.0
 10
68.736703
 20
163.578946
 30
0.0
 10
69.164151
 20
165.238146
 30
0.0
 10
69.377902
 20
166.067852
 30
0.0
 11
67.418224
 21
158.612669
 31
0.0
 11
68.052022
 21
161.101854
 31
0.0
 11
68.727283
 21
163.581227
 31
0.0
 11
69.377902
 21
166.067852
 31
0.0
  0
SPLINE
  5
149
100
AcDbEntity
  8
Layer_1
 62
7
100
AcDbSpline
 70
0
 71
3
 72
10
 73
6
 74
4
 40
0.000000
 40
0.000000
 40
0.000000
 40
0.000000
 40
4.631547
 40
9.264322
 40
13.897710
 40
13.897710
 40
13.897710
 40
13.897710
 10
69.377902
 20
166.067852
 30
0.0
 10
70.872357
 20
165.680345
 30
0.0
 10
73.861663
 20
164.905228
 30
0.0
 10
78.324974
 20
163.663789
 30
0.0
 10
81.312957
 20
162.881245
 30
0.0
 10
82.807047
 20
162.489947
 30
0.0
 11
69.377902
 21
166.067852
 31
0.0
 11
73.857760
 21
164.892225
 31
0.0
 11
78.327806
 21
163.675135
 31
0.0
 11
82.807047
 21
162.489947
 31
0.0
  0
SPLINE
  5
14a
100
AcDbEntity
  8
Layer_1
 62
7
100
AcDbSpline
 70
0
 71
3
 72
10
 73
6
 74
4
 40
0.000000
 40
0.000000
 40
0.000000
 40
0.000000
 40
2.714404
 40
5.428759
 40
8.143266
 40
8.143266
 40
8.143266
 40
8.143266
 10
82.807047
 20
162.489947
 30
0.0
 10
83.593722
 20
162.936940
 30
0.0
 10
85.167057
 20
163.830919
 30
0.0
 10
87.520310
 20
165.183945
 30
0.0
 10
89.075534
 20
166.109196
 30
0.0
 10
89.853168
 20
166.571835
 30
0.0
 11
82.807047
 21
162.489947
 31
0.0
 11
85.165940
 21
163.832933
 31
0.0
 11
87.516862
 21
165.189727
 31
0.0
 11
89.853168
 21
166.571835
 31
0.0
  0
SPLINE
  5
14b
100
AcDbEntity
  8
Layer_1
 62
7
100
AcDbSpline
 70
0
 71
3
 72
10
 73
6
 74
4
 40
0.000000
 40
0.000000
 40
0.000000
 40
0.000000
 40
6.185205
 40
12.371254
 40
18.557448
 40
18.557448
 40
18.557448
 40
18.557448
 10
89.853168
 20
166.571835
 30
0.0
 10
87.882826
 20
167.178896
 30
0.0
 10
83.941871
 20
168.393099
 30
0.0
 10
78.043649
 20
170.257508
 30
0.0
 10
74.118204
 20
171.522003
 30
0.0
 10
72.155459
 20
172.154258
 30
0.0
 11
89.853168
 21
166.571835
 31
0.0
 11
83.944372
 21
168.400190
 31
0.0
 11
78.045420
 21
170.262867
 31
0.0
 11
72.155459
 21
172.154258
 31
0.0
  0
SPLINE
  5
14c
100
AcDbEntity
  8
Layer_1
 62
7
100
AcDbSpline
 70
0
 71
3
 72
10
 73
6
 74
4
 40
0.000000
 40
0.000000
 40
0.000000
 40
0.000000
 40
6.172422
 40
12.346554
 40
18.519748
 40
18.519748
 40
18.519748
 40
18.519748
 10
72.155459
 20
172.154258
 30
0.0
 10
74.119657
 20
172.766702
 30
0.0
 10
78.048599
 20
173.991760
 30
0.0
 10
83.945477
 20
175.818639
 30
0.0
 10
87.857484
 20
177.097836
 30
0.0
 10
89.813339
 20
177.737387
 30
0.0
 11
72.155459
 21
172.154258
 31
0.0
 11
78.048637
 21
173.989808
 31
0.0
 11
83.940898
 21
175.834033
 31
0.0
 11
89.813339
 21
177.737387
 31
0.0
  0
SPLINE
  5
14d
100
AcDbEntity
  8
Layer_1
 62
7
100
AcDbSpline
 70
0
 71
3
 72
10
 73
6
 74
4
 40
0.000000
 40
0.000000
 40
0.000000
 40
0.000000
 40
2.545666
 40
5.091225
 40
7.636245
 40
7.636245
 40
7.636245
 40
7.636245
 10
89.813339
 20
177.737387
 30
0.0
 10
89.080735
 20
178.165566
 30
0.0
 10
87.615558
 20
179.021907
 30
0.0
 10
85.414686
 20
180.300701
 30
0.0
 10
83.945851
 20
181.150323
 30
0.0
 10
83.211511
 20
181.575088
 30
0.0
 11
89.813339
 21
177.737387
 31
0.0
 11
87.614981
 21
179.020989
 31
0.0
 11
85.414116
 21
180.300075
 31
0.0
 11
83.211511
 21
181.575088
 31
0.0
  0
SPLINE
  5
14e
100
AcDbEntity
  8
Layer_1
 62
7
100
AcDbSpline
 70
0
 71
3
 72
10
 73
6
 74
4
 40
0.000000
 40
0.000000
 40
0.000000
 40
0.000000
 40
0.559639
 40
1.134779
 40
1.704443
 40
1.704443
 40
1.704443
 40
1.704443
 10
83.211511
 20
181.575088
 30
0.0
 10
83.031754
 20
181.641930
 30
0.0
 10
82.667261
 20
181.777465
 30
0.0
 10
82.103092
 20
181.604148
 30
0.0
 10
81.733313
 20
181.521701
 30
0.0
 10
81.549307
 20
181.480675
 30
0.0
 11
83.211511
 21
181.575088
 31
0.0
 11
82.669536
 21
181.714584
 31
0.0
 11
82.103589
 21
181.612163
 31
0.0
 11
81.549307
 21
181.480675
 31
0.0
  0
SPLINE
  5
14f
100
AcDbEntity
  8
Layer_1
 62
7
100
AcDbSpline
 70
0
 71
3
 72
10
 73
6
 74
4
 40
0.000000
 40
0.000000
 40
0.000000
 40
0.000000
 40
4.188000
 40
8.375770
 40
12.564109
 40
12.564109
 40
12.564109
 40
12.564109
 10
81.549307
 20
181.480675
 30
0.0
 10
80.200483
 20
181.120834
 30
0.0
 10
77.502907
 20
180.401172
 30
0.0
 10
73.454829
 20
179.327459
 30
0.0
 10
70.761164
 20
178.592826
 30
0.0
 10
69.414241
 20
178.225485
 30
0.0
 11
81.549307
 21
181.480675
 31
0.0
 11
77.502572
 21
180.402122
 31
0.0
 11
73.456278
 21
179.322803
 31
0.0
 11
69.414241
 21
178.225485
 31
0.0
  0
SPLINE
  5
150
100
AcDbEntity
  8
Layer_1
 62
7
100
AcDbSpline
 70
0
 71
3
 72
10
 73
6
 74
4
 40
0.000000
 40
0.000000
 40
0.000000
 40
0.000000
 40
2.582179
 40
5.165040
 40
7.748365
 40
7.748365
 40
7.748365
 40
7.748365
 10
69.414241
 20
178.225485
 30
0.0
 10
69.180702
 20
179.053948
 30
0.0
 10
68.713563
 20
180.711093
 30
0.0
 10
68.064200
 20
183.211016
 30
0.0
 10
67.624321
 20
184.875939
 30
0.0
 10
67.404362
 20
185.708475
 30
0.0
 11
69.414241
 21
178.225485
 31
0.0
 11
68.722191
 21
180.713198
 31
0.0
 11
68.062509
 21
183.210394
 31
0.0
 11
67.404362
 21
185.708475
 31
0.0
  0
SPLINE
  5
151
100
AcDbEntity
  8
Layer_1
 62
7
100
AcDbSpline
 70
0
 71
3
 72
10
 73
6
 74
4
 40
0.000000
 40
0.000000
 40
0.000000
 40
0.000000
 40
2.044712
 40
4.089564
 40
6.134611
 40
6.134611
 40
6.134611
 40
6.134611
 10
67.404362
 20
185.708475
 30
0.0
 10
68.069092
 20
185.859440
 30
0.0
 10
69.398598
 20
186.161380
 30
0.0
 10
71.371009
 20
186.702337
 30
0.0
 10
72.685330
 20
187.064285
 30
0.0
 10
73.342523
 20
187.245268
 30
0.0
 11
67.404362
 21
185.708475
 31
0.0
 11
69.394897
 21
186.176039
 31
0.0
 11
71.370778
 21
186.702643
 31
0.0
 11
73.342523
 21
187.245268
 31
0.0
  0
SPLINE
  5
152
100
AcDbEntity
  8
Layer_1
 62
7
100
AcDbSpline
 70
0
 71
3
 72
10
 73
6
 74
4
 40
0.000000
 40
0.000000
 40
0.000000
 40
0.000000
 40
3.367202
 40
6.734182
 40
10.100842
 40
10.100842
 40
10.100842
 40
10.100842
 10
73.342523
 20
187.245268
 30
0.0
 10
72.373284
 20
187.811265
 30
0.0
 10
70.434870
 20
188.943222
 30
0.0
 10
67.530365
 20
190.646311
 30
0.0
 10
65.579700
 20
191.756718
 30
0.0
 10
64.604414
 20
192.311896
 30
0.0
 11
73.342523
 21
187.245268
 31
0.0
 11
70.435305
 21
188.944130
 31
0.0
 11
67.526672
 21
190.640129
 31
0.0
 11
64.604414
 21
192.311896
 31
0.0
  0
SPLINE
  5
153
100
AcDbEntity
  8
Layer_1
 62
7
100
AcDbSpline
 70
0
 71
3
 72
10
 73
6
 74
4
 40
0.000000
 40
0.000000
 40
0.000000
 40
0.000000
 40
2.596714
 40
5.252026
 40
7.847268
 40
7.847268
 40
7.847268
 40
7.847268
 10
64.604414
 20
192.311896
 30
0.0
 10
65.027319
 20
193.067165
 30
0.0
 10
65.882674
 20
194.594746
 30
0.0
 10
67.235960
 20
196.833941
 30
0.0
 10
68.070862
 20
198.372411
 30
0.0
 10
68.483536
 20
199.132846
 30
0.0
 11
64.604414
 21
192.311896
 31
0.0
 11
65.885445
 21
194.570630
 31
0.0
 11
67.228270
 21
196.861373
 31
0.0
 11
68.483536
 21
199.132846
 31
0.0
  0
LWPOLYLINE
  5
154
100
AcDbEntity
  8
Layer_1
 62
7
100
AcDbPolyline
 90
2
 70
0
 10
68.426679
 20
145.323140
 30
0.0
 10
64.588261
 20
151.971325
 30
0.0
  0
ENDSEC
  0
SECTION
  2
OBJECTS
  0
DICTIONARY
  5
C
330
0
100
AcDbDictionary
  3
ACAD_GROUP
350
D
  3
ACAD_MLINESTYLE
350
17
  0
DICTIONARY
  5
D
330
C
100
AcDbDictionary
  0
DICTIONARY
  5
1A
330
C
100
AcDbDictionary
  0
DICTIONARY
  5
17
330
C
100
AcDbDictionary
  3
STANDARD
350
18
  0
DICTIONARY
  5
19
330
C
100
AcDbDictionary
  0
ENDSEC
  0
EOF
