<?xml version="1.0" encoding="UTF-8" standalone="no"?>
<!-- Created with Inkscape (http://www.inkscape.org/) -->

<svg
   xmlns:dc="http://purl.org/dc/elements/1.1/"
   xmlns:cc="http://creativecommons.org/ns#"
   xmlns:rdf="http://www.w3.org/1999/02/22-rdf-syntax-ns#"
   xmlns:svg="http://www.w3.org/2000/svg"
   xmlns="http://www.w3.org/2000/svg"
   xmlns:sodipodi="http://sodipodi.sourceforge.net/DTD/sodipodi-0.dtd"
   xmlns:inkscape="http://www.inkscape.org/namespaces/inkscape"
   width="210mm"
   height="297mm"
   viewBox="0 0 210 297"
   version="1.1"
   id="svg8"
   inkscape:version="0.92.4 5da689c313, 2019-01-14"
   sodipodi:docname="art.svg">
  <defs
     id="defs2">
    <marker
       style="overflow:visible"
       refY="0.0"
       refX="0.0"
       orient="auto"
       id="DistanceX">
      <path
         id="path836"
         style="stroke:#000000; stroke-width:0.5"
         d="M 3,-3 L -3,3 M 0,-5 L  0,5" />
    </marker>
    <pattern
       y="0"
       x="0"
       width="8"
       patternUnits="userSpaceOnUse"
       id="Hatch"
       height="8">
      <path
         id="path839"
         stroke-width="0.25"
         stroke="#000000"
         linecap="square"
         d="M8 4 l-4,4" />
      <path
         id="path841"
         stroke-width="0.25"
         stroke="#000000"
         linecap="square"
         d="M6 2 l-4,4" />
      <path
         id="path843"
         stroke-width="0.25"
         stroke="#000000"
         linecap="square"
         d="M4 0 l-4,4" />
    </pattern>
    <symbol
       id="*Model_Space" />
    <symbol
       id="*Paper_Space" />
  </defs>
  <sodipodi:namedview
     id="base"
     pagecolor="#ffffff"
     bordercolor="#666666"
     borderopacity="1.0"
     inkscape:pageopacity="0.0"
     inkscape:pageshadow="2"
     inkscape:zoom="1.4"
     inkscape:cx="274.87521"
     inkscape:cy="720.1167"
     inkscape:document-units="mm"
     inkscape:current-layer="g8386"
     showgrid="false"
     inkscape:window-width="1890"
     inkscape:window-height="1030"
     inkscape:window-x="1090"
     inkscape:window-y="522"
     inkscape:window-maximized="0" />
  <metadata
     id="metadata5">
    <rdf:RDF>
      <cc:Work
         rdf:about="">
        <dc:format>image/svg+xml</dc:format>
        <dc:type
           rdf:resource="http://purl.org/dc/dcmitype/StillImage" />
        <dc:title></dc:title>
      </cc:Work>
    </rdf:RDF>
  </metadata>
  <g
     inkscape:label="Layer 1"
     inkscape:groupmode="layer"
     id="layer1">
    <g
       id="g8386"
       inkscape:label="0"
       transform="matrix(0.26458333,0,0,0.26458333,63.595783,-95.357634)">
      <g
         style="fill:none;stroke:#000000;stroke-opacity:1"
         id="#ffffffff"
         transform="matrix(1.3046307,-0.75322887,0.75322887,1.3046307,-58.069274,1003.4508)" />
      <path
         id="path18778"
         d="m 18.175744,730.91234 c 11.059793,6.26084 22.162221,12.44489 33.07555,18.96425 -1.526612,-7.55522 -3.883755,-14.89187 -5.776205,-22.35764 9.294418,-2.46115 18.51189,-5.41713 27.935978,-7.29214 4.869944,16.47947 9.157779,33.15587 13.430548,49.80618 8.047245,5.3213 16.667845,9.73753 24.919255,14.74961 2.16536,2.45498 1.53124,-1.4755 1.30917,-2.25182 -4.62366,-21.59666 -9.98303,-43.08167 -14.124915,-64.74775 17.099315,15.5767 34.061185,31.33713 51.173545,46.9063 0.59197,-10.15259 0.12246,-20.33597 0.28834,-30.50348 -12.25174,-12.51331 -24.68761,-24.83334 -37.07129,-37.1835 6.83835,-6.83571 13.56022,-13.81291 20.5281,-20.51465 5.64629,5.35067 11.08787,10.88912 16.54251,16.42002 -0.0382,-12.7807 -0.003,-25.59893 -0.008,-38.38165 l 1.73782,-0.007 -1.17177,0.006 c 9.5632,-0.007 19.13541,-0.0889 28.69365,0.046 -0.33919,12.78986 -0.13835,25.58106 -0.0459,38.36526 5.31154,-5.62369 11.06788,-10.80839 16.13744,-16.64028 7.09865,6.72133 13.89227,13.75793 20.80128,20.69312 -12.00854,11.89073 -23.9458,23.84467 -35.78366,35.88039 -1.57899,1.24214 -1.14518,3.4096 -1.2982,5.13308 0.0827,8.91075 0.11661,17.79742 -0.0306,26.70171 17.44521,-15.42968 34.38334,-31.43635 51.58806,-47.16206 -4.6069,22.87287 -10.01435,45.56432 -15.01775,68.35301 9.05925,-4.91726 17.94526,-10.13457 26.77102,-15.45626 4.83623,-16.69086 8.38098,-33.87114 13.93598,-50.28119 9.33648,1.9503 18.44541,4.83216 27.67565,7.26128 -1.82741,7.56081 -3.90727,15.07604 -5.99467,22.57821 11.13455,-6.32416 22.18827,-12.75821 33.25503,-19.1998 l 14.52979,25.16633 c -11.09138,6.36882 -22.1225,12.84201 -33.27414,19.10646 7.56741,2.04974 15.16239,3.99658 22.63754,6.30833 -2.55959,9.30556 -5.10613,18.60359 -7.54224,27.94223 -16.92058,-4.39049 -33.72537,-9.21313 -50.66047,-13.50826 -8.999,5.02162 -17.8569,10.2575 -26.82025,15.31073 22.39586,7.0045 44.78068,14.05016 67.16,21.1164 -22.38585,6.99276 -44.79632,13.91275 -67.08169,21.23019 8.81752,4.99834 17.60894,10.01175 26.32263,15.19181 17.14527,-3.89752 33.96139,-9.11838 51.03632,-13.28841 2.5736,9.36866 5.18082,18.7353 7.46888,28.18184 -7.4799,1.65708 -14.87788,3.66695 -22.20753,5.91568 11.03168,6.24229 21.75739,13.00913 33.00225,18.86741 -4.37469,8.30089 -9.98719,15.99441 -13.47793,24.74168 l -1.44814,0.83609 c -10.64797,-6.93349 -22.02127,-12.68283 -32.8418,-19.34274 1.93765,7.54405 4.11416,15.01977 5.95846,22.58292 -9.2316,2.7206 -18.66268,4.70402 -27.82595,7.6635 -5.17768,-16.77147 -8.75255,-34.05085 -14.15404,-50.72789 -8.52661,-5.549 -17.66019,-10.19091 -26.34833,-15.50749 4.94676,22.81912 10.34718,45.55027 15.04753,68.42468 -17.15514,-15.94456 -34.57067,-31.61702 -51.71828,-47.54853 0.24137,9.30617 0.0175,18.62002 0.0907,27.93628 -0.29934,2.43419 1.29574,4.38345 2.89875,6.01503 11.29636,11.55153 23.03374,22.69188 34.13294,34.44421 -7.07884,6.53968 -13.5457,13.71755 -20.60194,20.29636 -5.41146,-5.48625 -10.89366,-10.91427 -16.34977,-16.35735 0.16465,12.63813 -0.61422,25.29915 0.45279,37.9034 l -1.73516,1.0018 c -9.1561,-1.3065 -18.4706,-0.4167 -27.68505,-0.5588 -0.41966,-12.83878 -0.31438,-25.70234 -0.0595,-38.54789 -5.54341,5.58362 -11.18824,11.05184 -16.73919,16.62241 -6.69421,-6.95483 -13.66186,-13.63003 -20.45843,-20.49098 12.06556,-12.51508 24.81788,-24.38296 36.64147,-37.10624 0.85693,-10.23599 0.155,-20.58089 0.43628,-30.84982 -17.34124,15.70015 -34.48919,31.58443 -51.68584,47.44464 4.80663,-22.9186 10.23613,-45.69237 15.05581,-68.61851 -8.62657,5.1545 -17.595578,9.77612 -26.048899,15.23068 -5.772753,16.60535 -9.138746,34.06511 -14.241413,50.9272 -9.332195,-2.66597 -18.72854,-5.05138 -28.088305,-7.61446 1.917256,-7.52571 4.040297,-14.99629 5.965086,-22.50895 -11.029644,6.38536 -22.091435,12.68491 -33.136143,19.04418 L 3.7510983,908.54669 C 14.78276,902.19495 25.867148,895.93454 36.831019,889.46538 c -7.464516,-2.02217 -14.853314,-4.24461 -22.383998,-6.01983 2.233824,-9.44799 5.077474,-18.7436 7.406659,-28.17707 16.974239,4.27253 33.785078,9.19605 50.755824,13.52279 8.922197,-5.06426 17.836861,-10.14156 26.631008,-15.42761 -22.35214,-6.83839 -44.643626,-13.90316 -66.888982,-21.09892 22.251351,-6.98468 44.604658,-13.73251 66.738448,-21.10159 -8.303053,-4.8605 -16.624667,-9.69289 -24.951794,-14.5047 -1.958212,-1.25255 -4.254362,0.0731 -6.282343,0.35684 -15.290784,4.09668 -30.60067,8.10001 -45.86482,12.30308 -2.715632,-9.37363 -5.072959,-18.84976 -7.596393,-28.28217 7.564232,-1.6014 14.985746,-3.78141 22.443444,-5.80835 C 25.837455,768.82846 14.898034,762.32417 3.8121477,756.07839 8.3489014,747.66653 14.082713,738.7825 18.473399,730.29842"
         inkscape:connector-curvature="0"
         style="opacity:1;fill:none;stroke:#000000;stroke-width:1.50645781;stroke-opacity:1"
         sodipodi:nodetypes="ccccccccccccccccccccccccccccccccccccccccccccccccccccccccccccccccccccccccccccccccccccccc" />
    </g>
  </g>
</svg>
