<?xml version="1.0" encoding="UTF-8" standalone="no"?>
<svg
   xmlns:dc="http://purl.org/dc/elements/1.1/"
   xmlns:cc="http://creativecommons.org/ns#"
   xmlns:rdf="http://www.w3.org/1999/02/22-rdf-syntax-ns#"
   xmlns:svg="http://www.w3.org/2000/svg"
   xmlns="http://www.w3.org/2000/svg"
   xmlns:sodipodi="http://sodipodi.sourceforge.net/DTD/sodipodi-0.dtd"
   xmlns:inkscape="http://www.inkscape.org/namespaces/inkscape"
   width="243.73499pt"
   height="269.29132pt"
   viewBox="0 0 243.73498 269.29132"
   version="1.1"
   id="svg6"
   sodipodi:docname="art.svg"
   inkscape:version="0.92.4 5da689c313, 2019-01-14">
  <metadata
     id="metadata12">
    <rdf:RDF>
      <cc:Work
         rdf:about="">
        <dc:format>image/svg+xml</dc:format>
        <dc:type
           rdf:resource="http://purl.org/dc/dcmitype/StillImage" />
        <dc:title></dc:title>
      </cc:Work>
    </rdf:RDF>
  </metadata>
  <defs
     id="defs10" />
  <sodipodi:namedview
     pagecolor="#ffffff"
     bordercolor="#666666"
     borderopacity="1"
     objecttolerance="10"
     gridtolerance="10"
     guidetolerance="10"
     inkscape:pageopacity="0"
     inkscape:pageshadow="2"
     inkscape:window-width="1890"
     inkscape:window-height="1030"
     id="namedview8"
     showgrid="false"
     inkscape:zoom="0.8271028"
     inkscape:cx="118.1139"
     inkscape:cy="-3.782589"
     inkscape:window-x="1090"
     inkscape:window-y="522"
     inkscape:window-maximized="0"
     inkscape:current-layer="#231e20ff" />
  <g
     id="#ffffffff"
     transform="translate(3.8438986,27.687687)" />
  <g
     id="#231e20ff"
     transform="translate(3.8438986,27.687687)">
    <path
       d="M 7.5124243,31.009414 8.4334921,30.477636 7.7630459,30.877783 C 16.069643,35.580069 24.408256,40.224675 32.60485,45.12112 31.458266,39.446678 29.687909,33.936399 28.266564,28.329135 c 6.980684,-1.848479 13.903582,-4.068604 20.981655,-5.47685 3.657639,12.377111 6.87807,24.902127 10.08719,37.407542 6.04398,3.996632 12.518591,7.313501 18.715914,11.077886 1.626327,1.843838 1.150054,-1.108181 0.983268,-1.691262 C 75.561935,53.42601 71.536703,37.289432 68.425892,21.016858 c 12.842664,11.699067 25.582084,23.536137 38.434538,35.229553 0.44459,-7.625227 0.092,-15.273583 0.21656,-22.910022 C 97.875172,23.938111 88.535047,14.685006 79.234154,5.40924 84.37015,0.27516386 89.418726,-4.9651141 94.652031,-9.9985565 c 4.240728,4.018685 8.327699,8.1784005 12.424459,12.3324584 -0.0287,-9.5991166 -0.007,-19.2012519 -0.0102,-28.8018849 l 1.26401,-0.729774 -0.83468,0.704012 c 7.18255,-0.0053 14.37189,-0.0668 21.55071,0.03456 -0.25474,9.605985 -0.10387,19.2129647 -0.0345,28.8147058 3.98929,-4.2237423 8.31267,-8.1177841 12.12023,-12.4978908 5.33152,5.0481364 10.434,10.33303131 15.62307,15.5417997 -9.01916,8.9306813 -17.98478,17.9088453 -26.87575,26.9484203 -1.18593,0.932926 -0.8601,2.56082 -0.97504,3.855264 0.0621,6.69252 0.0876,13.36697 -0.023,20.054653 13.10244,-11.588654 25.82404,-23.61067 38.74586,-35.421655 -3.46007,17.17895 -7.52141,34.221649 -11.27927,51.337373 6.80406,-3.693161 13.47802,-7.611687 20.10671,-11.608609 3.63231,-12.535889 6.29464,-25.439346 10.46679,-37.764318 7.01228,1.464798 13.85366,3.629251 20.78614,5.45368 -1.37249,5.678646 -2.93455,11.323054 -4.50232,16.957662 8.36274,-4.749846 16.66478,-9.58222 24.9766,-14.42025 l 10.91279,18.901475 c -8.33032,4.783387 -16.61539,9.645159 -24.99097,14.350157 5.68361,1.539476 11.3879,3.001678 17.00221,4.737942 -1.92238,6.989057 -3.83505,13.972452 -5.66473,20.986354 -12.70842,-3.297533 -25.32986,-6.919648 -38.04917,-10.14554 -6.75882,3.771543 -13.41165,7.704023 -20.1437,11.499315 16.82069,5.26082 33.6331,10.552547 50.44136,15.859707 -16.81318,5.25202 -33.64484,10.44936 -50.38256,15.94522 6.62251,3.75407 13.22543,7.51944 19.76996,11.41001 12.87718,-2.92729 25.50712,-6.84848 38.33144,-9.98044 1.93296,7.03647 3.89113,14.07138 5.60961,21.16631 -5.61786,1.24459 -11.17421,2.75412 -16.67924,4.44304 8.28548,4.68837 16.34118,9.77069 24.78676,14.17063 -3.28567,6.23448 -7.50101,12.0128 -10.12277,18.58254 l -1.08763,0.62796 c -7.99731,-5.20748 -16.53937,-9.52559 -24.66626,-14.52759 1.4553,5.66604 3.08999,11.28075 4.47519,16.96117 -6.93351,2.04334 -14.01685,3.53302 -20.89904,5.75575 -3.88877,-12.59641 -6.57371,-25.57432 -10.63057,-38.0998 -6.40402,-4.16765 -13.26391,-7.654 -19.78925,-11.64709 3.71532,17.13858 7.77138,34.2111 11.30164,51.39119 -12.88459,-11.97536 -25.96472,-23.74634 -38.84365,-35.7119 0.18129,6.98952 0.0131,13.98479 0.0681,20.98188 -0.22483,1.82823 0.97318,3.29224 2.17713,4.51766 8.48428,8.67593 17.29979,17.04302 25.63598,25.86975 -5.31666,4.91173 -10.17364,10.30277 -15.47335,15.24386 -4.06433,-4.12052 -8.18179,-8.19734 -12.27966,-12.28544 0.12366,9.49203 -0.46132,19.00126 0.34007,28.46781 l -1.30321,0.75241 c -6.87681,-0.98124 -13.87258,-0.31293 -20.79321,-0.41965 -0.31519,-9.64275 -0.23611,-19.3041 -0.0447,-28.9519 -4.16344,4.19368 -8.403057,8.30065 -12.572177,12.48449 -5.027781,-5.22352 -10.260919,-10.23701 -15.365554,-15.39002 9.061971,-9.39961 18.639781,-18.31311 27.520021,-27.86911 0.64362,-7.68785 0.11642,-15.45753 0.32768,-23.17014 -13.024355,11.7918 -25.903546,23.72189 -38.819292,35.6339 3.610077,-17.21331 7.687967,-34.31783 11.307852,-51.53679 -6.479181,3.87145 -13.215469,7.34257 -19.564442,11.43928 -4.335701,12.47166 -6.863802,25.58503 -10.696191,38.2495 -7.009062,-2.00229 -14.066308,-3.79388 -21.096062,-5.71896 1.439978,-5.65229 3.034515,-11.26315 4.480148,-16.90564 -8.283956,4.79581 -16.592047,9.52717 -24.8873176,14.30338 L -3.0707717,164.29227 c 8.2854676,-4.77055 16.6105387,-9.47251 24.8450897,-14.33125 -5.60633,-1.51874 -11.155767,-3.18797 -16.8117926,-4.52123 1.6777401,-7.09603 3.8134966,-14.07763 5.5628686,-21.16274 12.748715,3.20894 25.374711,6.90679 38.120797,10.15646 6.701126,-3.80357 13.396595,-7.61695 20.001549,-11.58709 C 51.85989,117.71036 35.117592,112.40428 18.409939,106.99981 35.122094,101.75388 51.910825,96.685832 68.534683,91.151199 62.298571,87.500658 56.04852,83.871235 49.794327,80.257266 48.323588,79.316521 46.599035,80.312197 45.075895,80.525276 33.59156,83.602135 22.092882,86.608884 10.628549,89.765658 8.58894,82.725471 6.8184407,75.608303 4.9231839,68.523978 10.604396,67.32123 16.178416,65.683905 21.779612,64.16154 13.51747,59.35516 5.3012808,54.470028 -3.024912,49.779057 0.38247208,43.461228 4.214745,37.381488 7.5124243,31.009413"
       id="path3"
       style="opacity:1;fill:none;stroke:#000000;stroke-width:1.13144386;stroke-opacity:1"
       inkscape:connector-curvature="0"
       sodipodi:nodetypes="ccccccccccccccccccccccccccccccccccccccccccccccccccccccccccccccccccccccccccccccccccccccccc" />
  </g>
</svg>
