<?xml version="1.0" encoding="UTF-8" ?>
<!DOCTYPE svg PUBLIC "-//W3C//DTD SVG 1.1//EN" "http://www.w3.org/Graphics/SVG/1.1/DTD/svg11.dtd">
<svg width="649pt" height="720pt" viewBox="0 0 649 720" version="1.1" xmlns="http://www.w3.org/2000/svg">
<g id="#000000ff">
<path fill="#000000" opacity="1.00" d=" M 298.68 0.01 C 307.31 4.96 315.90 9.98 324.54 14.92 C 333.12 9.92 341.72 4.96 350.32 0.01 C 350.35 9.94 350.34 19.88 350.32 29.81 C 358.90 34.82 367.51 39.74 376.10 44.73 C 367.59 49.81 358.96 54.71 350.35 59.64 C 350.31 69.62 350.35 79.59 350.34 89.57 C 344.70 86.27 339.03 83.00 333.37 79.73 C 333.35 92.81 333.37 105.90 333.35 118.98 C 348.88 103.41 364.44 87.88 379.97 72.30 C 384.13 76.51 388.33 80.68 392.50 84.88 C 373.50 103.74 354.69 122.80 335.67 141.64 C 334.54 142.86 333.09 144.12 333.35 145.97 C 333.40 160.17 333.26 174.37 333.45 188.58 C 348.95 173.04 364.48 157.54 379.98 142.00 C 384.13 146.21 388.35 150.34 392.47 154.58 C 373.92 173.03 355.53 191.63 336.95 210.04 C 335.38 211.73 332.99 213.31 333.35 215.96 C 333.35 235.51 333.39 255.06 333.34 274.61 C 343.41 274.62 353.48 274.62 363.56 274.61 C 368.57 265.95 373.50 257.25 378.59 248.64 C 381.55 244.06 379.99 238.40 380.24 233.30 C 371.65 228.46 363.16 223.46 354.62 218.56 C 363.05 213.25 371.89 208.62 380.38 203.40 C 380.24 193.50 380.33 183.59 380.32 173.69 C 388.91 178.69 397.54 183.59 406.10 188.63 C 414.71 183.68 423.30 178.70 431.90 173.74 C 431.98 182.17 431.93 190.59 431.87 199.01 C 432.02 200.90 431.36 203.50 433.56 204.43 C 441.57 209.20 449.78 213.66 457.74 218.53 C 449.17 223.43 440.65 228.44 432.06 233.32 C 431.76 243.27 432.00 253.23 431.91 263.19 C 423.30 258.26 414.74 253.24 406.11 248.32 C 402.07 251.14 396.58 252.47 394.06 257.04 C 389.07 265.84 384.03 274.61 378.89 283.33 C 383.77 292.17 388.96 300.85 393.96 309.63 C 410.77 299.82 427.74 290.27 444.48 280.35 C 447.36 275.97 447.48 270.17 449.25 265.22 C 455.35 242.49 461.41 219.74 467.53 197.01 C 473.24 198.52 478.96 200.02 484.65 201.60 C 478.71 223.52 472.87 245.47 467.02 267.42 C 478.75 260.70 490.39 253.82 502.17 247.18 C 503.83 246.15 505.94 245.19 506.19 242.98 C 513.39 216.03 520.62 189.09 527.83 162.14 C 533.52 163.67 539.21 165.21 544.91 166.73 C 539.07 188.70 533.16 210.65 527.27 232.60 C 539.00 225.74 550.89 219.15 562.53 212.13 C 556.94 208.88 551.34 205.67 545.75 202.44 C 554.23 197.23 562.98 192.48 571.52 187.37 C 571.44 177.48 571.49 167.59 571.49 157.70 C 580.16 162.50 588.69 167.54 597.26 172.52 C 605.93 167.60 614.53 162.56 623.17 157.59 C 623.20 167.57 623.13 177.55 623.22 187.53 C 631.88 192.33 640.31 197.54 649.00 202.26 L 649.00 202.69 C 640.13 207.04 631.86 212.51 623.20 217.25 C 623.14 227.21 623.21 237.17 623.17 247.13 C 614.50 242.20 605.93 237.10 597.23 232.23 C 588.68 237.25 580.07 242.17 571.49 247.13 C 571.47 240.59 571.49 234.05 571.48 227.51 C 560.22 234.11 548.83 240.48 537.64 247.19 C 558.79 252.88 579.96 258.52 601.11 264.20 C 599.71 269.90 598.12 275.55 596.65 281.23 C 569.67 274.28 542.79 266.88 515.87 259.68 C 503.74 266.66 491.63 273.66 479.51 280.65 C 478.85 280.94 477.01 282.46 479.00 282.47 C 499.61 288.01 520.24 293.53 540.86 299.07 C 539.16 304.66 538.26 310.51 536.07 315.94 C 509.22 309.10 482.49 301.70 455.72 294.51 C 437.99 304.50 420.46 314.85 402.80 324.98 C 407.88 333.69 412.86 342.45 417.95 351.17 C 427.97 351.16 438.00 351.15 448.04 351.20 C 453.39 351.41 457.38 347.25 461.92 345.05 C 461.88 335.10 461.90 325.15 461.90 315.20 C 470.58 320.11 479.16 325.21 487.85 330.10 C 496.42 325.10 505.04 320.18 513.62 315.18 C 513.64 325.14 513.62 335.09 513.63 345.05 C 521.75 349.79 529.94 354.41 538.04 359.17 C 539.72 359.75 538.15 360.94 537.32 361.28 C 529.40 365.79 521.51 370.36 513.63 374.92 C 513.62 384.88 513.64 394.83 513.61 404.79 C 505.05 399.77 496.43 394.87 487.86 389.86 C 479.16 394.74 470.59 399.86 461.90 404.76 C 461.90 394.81 461.88 384.87 461.92 374.92 C 457.37 372.68 453.34 368.51 447.94 368.78 C 437.94 368.84 427.94 368.81 417.93 368.81 C 412.87 377.52 407.87 386.28 402.80 394.99 C 419.88 404.89 437.01 414.70 454.06 424.66 C 481.75 417.29 509.40 409.78 537.10 402.45 C 538.60 408.14 540.11 413.82 541.69 419.48 C 519.79 425.44 497.86 431.25 475.95 437.17 C 486.82 443.68 497.90 449.82 508.79 456.27 C 511.34 457.57 513.98 460.12 517.04 458.83 C 543.81 451.60 570.59 444.45 597.38 437.27 C 598.92 442.97 600.45 448.67 601.95 454.38 C 580.06 460.27 558.14 466.06 536.27 472.02 C 547.94 478.94 559.76 485.62 571.48 492.45 C 571.48 485.91 571.47 479.37 571.49 472.84 C 580.08 477.81 588.72 482.70 597.25 487.77 C 605.90 482.81 614.51 477.78 623.17 472.83 C 623.19 482.80 623.14 492.76 623.21 502.73 C 631.87 507.46 640.14 512.92 649.00 517.28 L 649.00 517.71 C 640.30 522.44 631.85 527.62 623.21 532.45 C 623.13 542.42 623.19 552.40 623.17 562.38 C 614.52 557.40 605.91 552.35 597.23 547.44 C 588.69 552.47 580.11 557.42 571.49 562.30 C 571.50 552.42 571.41 542.53 571.55 532.64 C 563.01 527.50 554.28 522.69 545.73 517.58 C 551.31 514.28 556.93 511.06 562.55 507.84 C 551.34 501.11 539.93 494.73 528.64 488.13 C 534.28 509.41 540.13 530.64 545.65 551.95 C 539.95 553.38 534.28 554.90 528.62 556.46 C 522.46 533.55 516.36 510.63 510.20 487.73 C 509.04 483.84 508.44 479.78 506.88 476.03 C 505.46 474.40 503.38 473.57 501.58 472.47 C 490.46 466.14 479.42 459.69 468.33 453.31 C 474.04 474.54 479.72 495.79 485.41 517.03 C 479.73 518.56 474.04 520.01 468.40 521.66 C 461.18 495.41 454.29 469.07 447.20 442.79 C 446.91 441.24 445.78 440.17 444.44 439.48 C 427.59 429.82 410.80 420.04 393.96 410.35 C 388.92 419.01 384.02 427.75 378.89 436.35 C 383.67 445.09 388.86 453.60 393.69 462.31 C 396.07 467.30 401.89 468.71 406.12 471.65 C 414.77 466.68 423.35 461.62 432.04 456.72 C 431.88 466.16 431.81 475.61 431.99 485.04 C 431.76 486.78 433.59 487.42 434.74 488.22 C 442.45 492.59 450.14 497.01 457.78 501.52 C 449.74 506.22 441.61 510.78 433.58 515.51 C 431.71 516.22 431.92 518.35 431.88 519.99 C 431.93 528.73 431.93 537.48 431.91 546.23 C 423.31 541.26 414.72 536.29 406.11 531.33 C 397.54 536.35 388.91 541.28 380.32 546.26 C 380.27 536.28 380.38 526.30 380.26 516.31 C 371.66 511.42 363.03 506.59 354.60 501.42 C 363.15 496.51 371.64 491.49 380.25 486.68 C 379.99 481.60 381.55 475.95 378.62 471.39 C 373.53 462.76 368.56 454.05 363.55 445.37 C 353.48 445.35 343.41 445.36 333.34 445.36 C 333.38 465.13 333.35 484.89 333.36 504.66 C 353.61 524.88 373.79 545.16 394.06 565.37 C 389.91 569.59 385.74 573.79 381.50 577.92 C 365.47 561.87 349.50 545.76 333.37 529.81 C 333.31 543.20 333.43 556.59 333.30 569.98 C 333.35 572.08 333.04 574.59 334.98 576.02 C 354.73 595.65 374.34 615.42 394.07 635.07 C 389.90 639.24 385.72 643.38 381.60 647.59 C 365.44 631.62 349.50 615.44 333.37 599.45 C 333.34 613.03 333.35 626.62 333.37 640.21 C 339.03 636.96 344.69 633.69 350.33 630.40 C 350.36 640.38 350.29 650.36 350.37 660.35 C 359.03 665.20 367.55 670.28 376.18 675.16 C 367.58 680.20 358.91 685.11 350.32 690.15 C 350.35 700.10 350.33 710.04 350.33 719.99 C 341.77 714.98 333.14 710.07 324.58 705.07 C 315.88 709.94 307.31 715.03 298.67 719.99 C 298.65 710.03 298.66 700.08 298.67 690.13 C 290.07 685.12 281.41 680.20 272.83 675.16 C 281.46 670.26 290.00 665.20 298.64 660.32 C 298.69 650.35 298.65 640.37 298.67 630.40 C 304.31 633.69 309.97 636.96 315.63 640.23 C 315.66 627.14 315.62 614.06 315.65 600.98 C 300.11 616.54 284.56 632.09 269.03 647.65 C 264.87 643.45 260.67 639.27 256.50 635.09 C 275.64 616.06 294.64 596.88 313.78 577.85 C 314.77 576.80 315.86 575.64 315.64 574.07 C 315.65 559.84 315.63 545.60 315.63 531.36 C 300.05 546.86 284.56 562.43 269.02 577.97 C 264.87 573.79 260.71 569.62 256.53 565.47 C 275.77 546.07 295.17 526.82 314.44 507.45 C 315.75 506.35 315.66 504.58 315.69 503.04 C 315.60 483.82 315.64 464.59 315.66 445.36 C 305.58 445.36 295.51 445.35 285.43 445.37 C 280.43 454.05 275.47 462.76 270.38 471.39 C 267.46 475.94 269.02 481.59 268.75 486.67 C 277.38 491.50 285.89 496.55 294.49 501.45 C 285.96 506.49 277.39 511.45 268.76 516.30 C 268.60 526.27 268.74 536.26 268.68 546.24 C 260.07 541.30 251.47 536.33 242.89 531.33 C 234.28 536.28 225.69 541.26 217.09 546.22 C 217.00 536.25 217.26 526.28 216.93 516.31 C 208.34 511.40 199.72 506.55 191.26 501.43 C 199.32 496.78 207.40 492.16 215.43 487.49 C 217.33 486.81 216.99 484.62 217.12 483.02 C 217.11 474.25 217.02 465.49 217.08 456.73 C 225.68 461.71 234.28 466.68 242.88 471.65 C 247.12 468.71 252.94 467.30 255.32 462.30 C 260.14 453.59 265.33 445.09 270.11 436.36 C 264.98 427.75 260.08 419.01 255.04 410.35 C 238.80 419.68 222.63 429.13 206.36 438.41 C 204.96 439.22 203.40 440.15 203.18 441.94 C 195.92 468.94 188.74 495.97 181.45 522.97 C 175.76 521.42 170.05 519.92 164.36 518.38 C 170.28 496.45 176.14 474.50 181.99 452.55 C 170.44 459.17 158.97 465.91 147.39 472.47 C 145.57 473.62 143.11 474.56 142.80 477.01 C 135.60 503.95 128.38 530.89 121.17 557.84 C 115.47 556.28 109.77 554.74 104.06 553.21 C 109.97 531.28 115.83 509.34 121.70 487.39 C 109.91 494.17 98.12 500.96 86.37 507.80 C 92.04 511.04 97.72 514.26 103.30 517.65 C 94.67 522.60 86.02 527.54 77.46 532.62 C 77.58 542.50 77.50 552.39 77.51 562.27 C 68.86 557.45 60.31 552.45 51.77 547.44 C 43.08 552.35 34.48 557.41 25.83 562.37 C 25.79 552.39 25.87 542.42 25.78 532.44 C 17.13 527.63 8.71 522.42 0.00 517.73 L 0.00 517.27 C 8.86 512.91 17.16 507.47 25.81 502.70 C 25.84 492.74 25.80 482.79 25.83 472.84 C 34.48 477.78 43.09 482.81 51.74 487.76 C 60.28 482.71 68.91 477.81 77.51 472.84 C 77.53 479.37 77.52 485.91 77.51 492.45 C 88.77 485.87 100.15 479.48 111.34 472.80 C 90.21 467.05 69.04 461.42 47.88 455.79 C 49.31 450.02 50.84 444.28 52.48 438.58 C 79.33 445.94 106.27 452.96 133.12 460.30 C 145.76 452.91 158.58 445.79 171.12 438.23 C 170.20 437.55 169.09 437.21 168.01 436.92 C 148.05 431.66 128.14 426.20 108.17 420.94 C 109.62 415.20 111.14 409.48 112.78 403.79 C 139.60 411.09 166.51 418.08 193.30 425.48 C 210.98 415.42 228.55 405.14 246.19 394.99 C 241.13 386.28 236.13 377.52 231.06 368.81 C 221.04 368.82 211.02 368.83 201.00 368.78 C 195.63 368.53 191.61 372.69 187.08 374.92 C 187.12 384.87 187.10 394.82 187.10 404.77 C 178.41 399.85 169.84 394.72 161.11 389.86 C 152.56 394.88 143.94 399.77 135.39 404.79 C 135.35 394.83 135.38 384.88 135.37 374.93 C 126.94 369.84 118.15 365.31 109.90 359.96 C 118.17 354.64 126.93 350.09 135.37 345.05 C 135.38 335.09 135.35 325.14 135.39 315.18 C 143.95 320.18 152.57 325.08 161.12 330.10 C 169.84 325.23 178.40 320.10 187.10 315.20 C 187.10 325.15 187.12 335.10 187.08 345.05 C 191.63 347.27 195.65 351.44 201.04 351.20 C 211.05 351.14 221.06 351.17 231.06 351.16 C 236.13 342.44 241.13 333.69 246.20 324.97 C 229.12 315.09 212.01 305.26 194.97 295.32 C 167.26 302.66 139.60 310.13 111.91 317.55 C 110.40 311.85 108.89 306.15 107.31 300.46 C 129.19 294.53 151.09 288.70 172.98 282.81 C 160.22 275.16 147.28 267.79 134.33 260.45 C 106.80 268.02 79.17 275.21 51.63 282.73 C 50.08 277.01 48.55 271.30 47.05 265.58 C 68.98 259.75 90.88 253.79 112.81 247.97 C 101.10 241.07 89.27 234.36 77.52 227.52 C 77.51 234.06 77.53 240.60 77.51 247.15 C 68.93 242.16 60.32 237.24 51.76 232.23 C 43.07 237.11 34.50 242.20 25.83 247.13 C 25.80 237.18 25.85 227.22 25.81 217.27 C 17.17 212.46 8.82 207.10 0.00 202.64 L 0.00 202.15 C 8.72 197.52 17.15 192.34 25.77 187.54 C 25.88 177.55 25.79 167.57 25.83 157.59 C 34.48 162.55 43.07 167.61 51.75 172.52 C 60.31 167.52 68.86 162.52 77.50 157.67 C 77.51 167.57 77.56 177.47 77.47 187.37 C 86.03 192.42 94.68 197.34 103.29 202.33 C 97.72 205.70 92.04 208.88 86.41 212.16 C 97.67 218.81 109.04 225.25 120.35 231.82 C 114.69 210.56 108.90 189.33 103.33 168.04 C 109.02 166.58 114.69 165.04 120.37 163.52 C 127.06 188.49 133.80 213.45 140.40 238.45 C 141.20 241.05 141.35 244.48 144.27 245.68 C 156.43 252.61 168.52 259.66 180.65 266.65 C 174.97 245.41 169.25 224.18 163.60 202.93 C 169.34 201.43 175.03 199.77 180.80 198.42 C 187.55 224.52 194.77 250.51 201.60 276.59 C 201.89 278.34 202.98 279.72 204.57 280.49 C 221.41 290.17 238.22 299.91 255.04 309.63 C 260.04 300.85 265.22 292.17 270.11 283.33 C 265.10 274.82 260.16 266.27 255.31 257.67 C 252.95 252.67 247.13 251.25 242.89 248.35 C 234.26 253.26 225.70 258.29 217.08 263.21 C 217.13 253.35 216.95 243.49 217.16 233.64 C 208.67 228.32 199.79 223.67 191.27 218.40 C 198.92 214.03 206.51 209.55 214.18 205.23 C 215.29 204.40 217.23 203.79 217.03 202.06 C 216.99 192.62 217.20 183.17 216.94 173.73 C 225.65 178.58 234.23 183.68 242.89 188.63 C 251.46 183.61 260.08 178.68 268.68 173.70 C 268.67 183.60 268.75 193.51 268.63 203.41 C 277.13 208.60 285.93 213.29 294.40 218.53 C 285.85 223.47 277.32 228.44 268.74 233.34 C 269.01 238.42 267.46 244.07 270.41 248.63 C 275.50 257.25 280.43 265.96 285.46 274.62 C 295.52 274.61 305.59 274.62 315.66 274.61 C 315.62 254.84 315.64 235.08 315.64 215.31 C 295.40 195.10 275.24 174.80 254.95 154.63 C 259.03 150.36 263.27 146.25 267.42 142.04 C 283.54 158.04 299.51 174.19 315.63 190.21 C 315.65 176.13 315.63 162.04 315.66 147.96 C 315.85 146.38 315.15 144.99 314.01 143.95 C 294.29 124.30 274.65 104.56 254.93 84.90 C 259.10 80.72 263.28 76.56 267.43 72.37 C 283.53 88.40 299.55 104.51 315.63 120.55 C 315.65 106.96 315.64 93.36 315.63 79.76 C 309.94 82.98 304.30 86.27 298.66 89.57 C 298.66 79.60 298.67 69.63 298.65 59.65 C 290.02 54.75 281.46 49.71 272.83 44.80 C 281.41 39.74 290.09 34.85 298.68 29.80 C 298.65 19.87 298.65 9.94 298.68 0.01 M 286.93 294.83 C 274.39 316.55 261.87 338.29 249.32 360.00 C 261.89 381.70 274.39 403.44 286.93 425.16 C 311.97 425.17 337.01 425.17 362.05 425.16 C 374.60 403.45 387.10 381.70 399.67 360.00 C 387.10 338.29 374.61 316.54 362.05 294.82 C 337.01 294.82 311.97 294.80 286.93 294.83 Z" />
<path fill="#000000" opacity="1.00" d=" M 289.44 299.33 C 312.81 299.28 336.18 299.28 359.55 299.33 C 371.18 319.57 382.85 339.78 394.54 359.98 C 382.82 380.17 371.19 400.42 359.52 420.64 C 336.17 420.64 312.82 420.66 289.47 420.64 C 277.81 400.41 266.17 380.18 254.45 359.98 C 266.13 339.78 277.82 319.57 289.44 299.33 M 277.84 359.98 C 285.58 373.44 293.41 386.83 301.07 400.33 C 316.68 400.47 332.30 400.45 347.91 400.34 C 355.58 386.84 363.41 373.44 371.15 359.98 C 363.82 347.22 356.41 334.50 349.12 321.72 C 348.45 320.59 347.64 319.07 346.00 319.55 C 331.03 319.58 316.05 319.45 301.07 319.62 C 293.41 333.13 285.55 346.51 277.84 359.98 Z" />
<path fill="#000000" opacity="1.00" d=" M 302.24 321.46 C 308.86 325.18 315.41 329.03 321.97 332.84 C 323.07 333.33 324.38 334.49 325.60 333.58 C 332.71 329.65 339.64 325.40 346.75 321.47 C 346.70 330.01 346.75 338.55 346.72 347.10 C 354.17 351.39 361.60 355.71 369.06 359.98 C 361.58 364.22 354.16 368.56 346.72 372.87 C 346.75 381.43 346.69 389.99 346.76 398.55 C 339.40 394.25 331.96 390.11 324.66 385.70 C 317.09 389.80 309.76 394.32 302.24 398.50 C 302.28 389.95 302.24 381.41 302.26 372.86 C 294.82 368.56 287.40 364.21 279.92 359.98 C 287.39 355.72 294.81 351.39 302.26 347.10 C 302.24 338.55 302.28 330.01 302.24 321.46 Z" />
</g>
</svg>
