<?xml version="1.0" encoding="UTF-8" ?>
<!DOCTYPE svg PUBLIC "-//W3C//DTD SVG 1.1//EN" "http://www.w3.org/Graphics/SVG/1.1/DTD/svg11.dtd">
<svg width="425pt" height="425pt" viewBox="0 0 425 425" version="1.1" xmlns="http://www.w3.org/2000/svg">
<g id="#ffffffff">
</g>
<g id="#000000ff">
<path fill="#000000" opacity="1.00" d=" M 210.66 0.00 L 214.67 0.00 C 220.35 1.28 225.31 5.99 225.40 12.07 C 225.62 29.77 225.24 47.49 225.59 65.19 C 234.87 54.56 243.80 43.63 253.07 32.99 C 256.37 28.98 262.21 26.90 267.16 28.87 C 273.82 30.86 277.49 38.97 275.11 45.38 C 274.00 48.00 272.07 50.15 270.27 52.31 C 260.04 64.38 249.74 76.39 239.50 88.46 C 235.22 93.86 230.27 98.70 226.22 104.29 C 225.54 105.38 225.44 106.70 225.41 107.95 C 225.51 132.36 225.43 156.76 225.46 181.17 C 241.64 165.47 257.33 149.27 273.41 133.46 C 275.86 130.54 280.19 128.33 279.84 123.96 C 281.54 100.59 283.67 77.25 285.56 53.89 C 286.20 46.42 294.58 40.76 301.73 43.21 C 307.58 44.82 311.74 50.93 310.92 56.99 C 309.90 71.07 308.51 85.13 307.62 99.22 C 319.90 86.95 332.13 74.62 344.46 62.39 C 349.01 57.55 357.37 57.10 362.24 61.70 C 367.65 66.16 367.96 75.19 363.03 80.13 C 350.68 92.59 338.10 104.83 325.88 117.42 C 340.17 116.43 354.44 115.13 368.74 114.09 C 374.73 113.61 380.61 117.94 382.00 123.78 C 383.97 130.94 378.35 139.02 370.88 139.49 C 351.25 141.18 331.62 142.80 311.98 144.37 C 307.44 144.71 302.84 144.70 298.36 145.59 C 296.18 146.48 294.76 148.54 293.05 150.07 C 276.74 166.66 259.94 182.78 243.87 199.59 C 268.58 199.59 293.30 199.57 318.02 199.60 C 319.56 199.78 320.87 198.90 322.01 197.97 C 338.31 183.98 354.72 170.10 371.07 156.15 C 375.07 152.82 379.34 148.37 385.08 149.22 C 392.76 149.59 398.68 157.85 396.43 165.23 C 395.02 170.92 389.50 173.87 385.48 177.57 C 377.05 185.06 368.08 191.95 359.85 199.67 C 376.57 199.47 393.29 199.66 410.00 199.55 C 413.88 199.47 418.15 200.07 420.96 203.02 C 423.37 205.14 424.23 208.34 425.00 211.33 L 425.00 213.55 C 424.23 216.32 423.54 219.33 421.39 221.40 C 418.75 224.21 414.77 225.28 411.01 225.20 C 393.94 225.17 376.86 225.21 359.79 225.16 C 368.39 232.96 377.45 240.26 386.27 247.82 C 390.10 251.22 394.97 254.26 396.40 259.50 C 398.89 267.15 392.06 275.94 384.05 275.60 C 378.03 275.76 373.94 270.80 369.65 267.35 C 353.03 253.30 336.57 239.05 319.83 225.15 C 294.43 225.18 269.02 225.27 243.62 225.10 C 260.50 242.31 277.75 259.18 294.69 276.33 C 296.17 277.77 297.74 279.54 300.00 279.49 C 323.72 281.23 347.43 283.23 371.13 285.35 C 378.51 285.88 384.00 294.02 381.95 301.07 C 380.60 306.80 374.84 311.03 369.00 310.75 C 354.69 309.58 340.38 308.31 326.05 307.42 C 338.05 319.94 350.55 331.98 362.74 344.32 C 366.44 347.97 367.63 353.94 365.48 358.70 C 363.04 364.76 355.34 368.03 349.31 365.48 C 344.84 363.69 341.92 359.65 338.50 356.48 C 328.16 346.30 318.16 335.75 307.59 325.82 C 308.59 338.93 309.66 352.04 310.76 365.14 C 311.20 369.06 311.03 373.31 308.66 376.64 C 304.87 382.47 295.96 383.68 290.53 379.50 C 287.55 377.27 285.63 373.67 285.45 369.95 C 283.56 346.59 281.55 323.25 279.78 299.89 C 280.00 297.23 277.71 295.65 276.09 293.97 C 259.08 277.31 242.56 260.14 225.41 243.63 C 225.54 265.76 225.43 287.88 225.44 310.01 C 225.50 313.11 225.15 316.24 225.64 319.32 C 226.43 321.34 228.13 322.84 229.46 324.52 C 243.88 341.46 258.32 358.38 272.71 375.35 C 276.82 379.86 276.82 387.32 272.89 391.93 C 269.67 395.96 263.78 397.66 258.93 395.87 C 253.97 394.38 251.34 389.53 248.05 385.93 C 240.44 377.22 233.27 368.10 225.41 359.61 C 225.50 376.74 225.44 393.86 225.46 410.99 C 225.51 414.35 224.64 417.84 222.32 420.38 C 220.21 423.04 216.83 424.01 213.73 425.00 L 211.32 425.00 C 208.44 423.98 205.30 423.07 203.22 420.69 C 200.71 418.12 199.90 414.42 199.82 410.94 C 199.67 393.85 200.06 376.74 199.65 359.66 C 192.08 368.37 184.73 377.28 177.16 386.00 C 173.73 389.91 170.70 395.06 165.22 396.21 C 157.70 398.33 149.25 391.85 149.50 384.00 C 149.20 380.11 151.44 376.71 153.82 373.88 C 169.13 355.81 184.58 337.86 199.82 319.75 C 199.84 294.32 199.72 268.89 199.89 243.47 C 183.08 259.76 166.76 276.58 150.09 293.02 C 148.24 295.02 145.61 296.86 145.54 299.85 C 143.69 323.63 141.92 347.43 139.65 371.17 C 138.95 378.09 131.64 383.24 124.89 381.88 C 118.55 380.78 113.60 374.50 114.33 368.05 C 115.47 353.92 116.63 339.80 117.66 325.67 C 104.74 338.10 92.32 351.05 79.50 363.59 C 74.02 368.18 64.95 366.76 61.02 360.83 C 57.44 355.90 58.19 348.71 62.43 344.42 C 74.62 331.98 87.21 319.92 99.26 307.34 C 85.15 308.37 71.06 309.58 56.96 310.68 C 53.06 310.95 49.00 309.52 46.37 306.58 C 41.75 301.83 42.04 293.42 46.79 288.86 C 49.22 286.14 52.94 285.33 56.42 285.08 C 79.29 283.14 102.16 281.25 125.04 279.53 C 127.88 279.68 129.59 277.17 131.43 275.44 C 148.06 258.54 165.08 242.02 181.60 225.02 C 156.71 225.40 131.81 225.08 106.91 225.19 C 105.36 225.12 104.13 226.18 102.99 227.08 C 86.34 241.36 69.55 255.48 52.91 269.79 C 49.52 272.63 45.77 276.04 41.00 275.64 C 33.23 275.63 26.82 267.55 28.81 259.98 C 29.41 256.25 32.25 253.54 35.01 251.23 C 45.21 242.59 55.42 233.95 65.56 225.24 C 47.69 225.04 29.80 225.35 11.93 225.11 C 5.85 224.86 1.61 219.65 0.00 214.20 L 0.00 210.72 C 1.24 207.62 2.50 204.28 5.27 202.19 C 7.99 199.97 11.64 199.53 15.03 199.56 C 31.85 199.64 48.66 199.51 65.47 199.64 C 54.92 190.13 43.85 181.20 33.09 171.92 C 28.87 168.31 27.09 161.84 29.62 156.76 C 32.51 149.45 42.98 146.71 48.99 151.85 C 66.27 166.26 83.29 180.99 100.46 195.53 C 102.52 197.06 104.32 199.56 107.12 199.57 C 131.91 199.64 156.70 199.51 181.50 199.63 C 164.72 182.38 147.39 165.65 130.60 148.40 C 126.92 144.27 120.98 145.03 116.01 144.58 C 95.68 143.13 75.39 141.14 55.06 139.59 C 48.24 139.39 42.30 132.87 43.13 126.01 C 43.20 118.96 50.14 113.22 57.07 114.08 C 71.13 115.21 85.20 116.42 99.27 117.46 C 89.26 106.88 78.68 96.84 68.48 86.44 C 64.93 82.63 60.09 79.31 59.00 73.89 C 57.39 67.20 62.26 59.86 69.05 58.71 C 74.04 57.58 79.08 60.02 82.26 63.81 C 93.91 75.58 105.71 87.20 117.33 98.99 C 117.41 87.95 115.70 76.95 115.10 65.92 C 115.00 60.80 113.21 55.40 115.35 50.49 C 117.15 46.11 121.56 43.11 126.22 42.66 C 131.64 42.38 137.27 45.75 139.02 51.01 C 140.09 54.26 140.10 57.71 140.41 61.09 C 142.12 82.40 143.92 103.71 145.53 125.04 C 145.46 127.00 146.82 128.49 148.14 129.77 C 165.43 146.88 182.47 164.25 199.82 181.29 C 199.81 156.53 199.80 131.77 199.83 107.02 C 199.95 105.19 198.79 103.70 197.72 102.36 C 183.35 85.67 169.18 68.82 154.86 52.09 C 152.10 48.98 149.18 45.40 149.45 40.96 C 149.18 33.06 157.55 26.32 165.17 28.55 C 169.62 29.53 172.55 33.24 175.34 36.53 C 183.40 46.15 191.53 55.72 199.70 65.25 C 200.06 47.49 199.58 29.69 199.91 11.93 C 200.05 5.90 205.10 1.35 210.66 0.00 Z" />
</g>
</svg>
