<?xml version="1.0" encoding="UTF-8" ?>
<!DOCTYPE svg PUBLIC "-//W3C//DTD SVG 1.1//EN" "http://www.w3.org/Graphics/SVG/1.1/DTD/svg11.dtd">
<svg width="1000pt" height="1107pt" viewBox="0 0 1000 1107" version="1.1" xmlns="http://www.w3.org/2000/svg">
<g id="#000000ff">
<path fill="#000000" opacity="1.00" d=" M 461.88 0.00 L 538.19 0.00 C 547.64 21.95 557.06 43.91 566.45 65.89 C 558.27 81.27 550.17 96.69 541.98 112.06 C 540.52 114.45 541.05 117.34 540.96 119.99 C 541.02 147.40 540.95 174.81 541.00 202.21 C 567.24 186.53 593.39 170.67 619.70 155.11 C 633.78 178.50 647.79 201.93 661.86 225.32 C 621.59 249.57 581.17 273.57 540.98 297.94 C 541.02 309.25 540.98 320.57 541.00 331.89 C 552.60 325.01 564.02 317.82 575.73 311.13 C 586.75 329.71 597.92 348.20 609.03 366.73 C 630.60 367.04 652.17 367.44 673.75 367.76 C 673.53 381.20 673.28 394.64 673.07 408.09 C 682.88 402.48 692.63 396.77 702.47 391.21 C 703.37 344.20 704.03 297.20 704.89 250.19 C 732.21 250.56 759.51 251.09 786.83 251.55 C 786.34 282.12 785.79 312.70 785.29 343.28 C 810.27 328.97 835.15 314.46 860.12 300.13 C 861.44 299.46 862.32 298.25 863.10 297.04 C 871.89 282.85 880.84 268.76 889.65 254.58 C 890.26 252.99 892.02 252.92 893.48 252.73 C 916.27 250.15 939.01 247.09 961.83 244.64 C 974.57 266.66 987.26 288.71 1000.00 310.72 L 1000.00 310.77 C 985.69 329.91 971.30 349.01 957.08 368.22 C 938.88 369.11 920.60 369.05 902.46 370.48 C 876.94 384.78 851.78 399.78 826.33 414.23 C 852.95 429.28 879.82 443.90 906.47 458.90 C 893.28 482.83 880.01 506.71 866.76 530.60 C 825.61 507.85 784.60 484.83 743.37 462.24 C 733.61 467.94 723.76 473.49 714.00 479.21 C 725.78 485.72 737.61 492.16 749.30 498.83 C 738.85 517.66 728.47 536.53 717.92 555.31 C 728.26 574.30 738.82 593.18 749.32 612.10 C 737.63 618.77 725.75 625.09 714.07 631.74 C 723.82 637.42 733.67 642.93 743.34 648.74 C 784.52 626.01 825.56 603.01 866.76 580.31 C 879.94 604.24 893.31 628.08 906.51 652.01 C 879.75 666.83 852.98 681.66 826.24 696.52 C 851.21 710.96 876.21 725.36 901.17 739.82 C 902.86 740.94 904.96 740.78 906.91 740.90 C 923.64 741.26 940.36 742.21 957.09 742.78 C 969.27 758.98 981.34 775.26 993.49 791.49 C 995.67 794.08 997.19 797.31 1000.00 799.32 L 1000.00 800.74 C 995.46 807.13 992.07 814.28 987.96 820.96 C 979.24 836.07 970.53 851.17 961.81 866.28 C 939.25 863.61 916.69 860.96 894.12 858.35 C 892.78 857.96 890.87 858.43 890.09 857.00 C 880.62 842.10 871.46 826.98 861.83 812.18 C 856.65 808.21 850.53 805.55 845.00 802.07 C 825.10 790.58 805.23 779.03 785.31 767.57 C 785.75 798.20 786.34 828.82 786.82 859.45 C 759.51 859.88 732.19 860.27 704.88 860.82 C 704.02 813.79 703.40 766.76 702.44 719.73 C 692.61 714.15 682.92 708.33 673.08 702.75 C 673.25 716.25 673.54 729.74 673.74 743.24 C 652.18 743.56 630.63 743.98 609.07 744.25 C 597.77 762.68 586.78 781.30 575.62 799.81 C 564.08 792.91 552.59 785.93 541.01 779.12 C 540.95 790.41 541.05 801.70 540.95 813.00 C 581.22 837.27 621.56 861.40 661.85 885.62 C 647.80 909.06 633.77 932.53 619.67 955.95 C 593.48 940.15 567.26 924.40 541.00 908.71 C 541.07 938.12 540.77 967.56 541.15 996.96 C 549.29 1013.15 558.05 1029.05 566.46 1045.12 C 557.62 1065.75 548.74 1086.36 539.90 1107.00 L 460.16 1107.00 C 451.23 1086.40 442.40 1065.75 433.56 1045.11 C 441.96 1029.03 450.74 1013.13 458.87 996.95 C 459.24 967.57 458.94 938.16 459.02 908.77 C 432.75 924.44 406.57 940.25 380.33 955.95 C 366.30 932.49 352.17 909.09 338.16 885.62 C 378.45 861.40 418.78 837.25 459.05 813.01 C 458.98 801.71 459.06 790.41 459.01 779.12 C 447.42 785.97 435.87 792.87 424.38 799.88 C 413.19 781.35 402.27 762.66 390.93 744.23 C 369.39 743.97 347.84 743.62 326.30 743.17 C 326.50 729.72 326.75 716.27 326.96 702.82 C 317.11 708.40 307.35 714.13 297.55 719.80 C 296.69 766.80 295.98 813.81 295.15 860.81 C 267.83 860.47 240.51 859.80 213.20 859.45 C 213.67 828.84 214.26 798.23 214.70 767.62 C 189.92 781.87 165.22 796.25 140.43 810.47 C 138.69 811.33 137.50 812.88 136.54 814.52 C 127.60 828.99 118.38 843.29 109.51 857.80 C 85.76 860.87 61.94 863.31 38.19 866.34 C 25.46 844.29 12.80 822.19 0.00 800.17 L 0.00 800.17 C 14.38 781.11 28.49 761.84 42.94 742.83 C 58.97 742.18 74.99 741.42 91.03 740.99 C 93.61 740.78 96.47 741.32 98.79 739.90 C 123.73 725.40 148.77 711.07 173.73 696.58 C 146.98 681.75 120.26 666.86 93.49 652.08 C 106.69 628.15 120.04 604.30 133.24 580.37 C 174.41 603.10 215.46 626.06 256.62 648.81 C 266.31 643.02 276.15 637.47 285.92 631.81 C 274.19 625.22 262.43 618.68 250.65 612.18 C 261.10 593.32 271.54 574.45 282.07 555.63 C 271.78 536.61 261.06 517.82 250.69 498.84 C 262.43 492.27 274.17 485.68 285.97 479.21 C 276.13 473.54 266.35 467.76 256.43 462.23 C 215.42 485.07 174.31 507.73 133.38 530.69 C 119.98 506.85 106.77 482.89 93.52 458.96 C 120.19 443.97 147.02 429.27 173.74 414.36 C 148.28 399.83 123.04 384.86 97.50 370.52 C 79.35 369.13 61.08 369.22 42.90 368.22 C 28.63 349.08 14.34 329.95 0.00 310.85 L 0.00 310.82 C 12.66 288.73 25.44 266.70 38.17 244.65 C 61.98 247.42 85.78 250.20 109.55 253.23 C 118.40 267.71 127.61 281.97 136.52 296.42 C 137.33 297.61 138.04 299.00 139.33 299.77 C 164.45 314.28 189.56 328.84 214.71 343.30 C 214.21 312.72 213.67 282.13 213.18 251.55 C 240.50 251.17 267.81 250.64 295.13 250.19 C 295.96 297.19 296.66 344.20 297.53 391.20 C 307.38 396.76 317.13 402.48 326.95 408.09 C 326.72 394.65 326.50 381.21 326.27 367.77 C 347.83 367.44 369.39 367.02 390.96 366.74 C 402.21 348.27 413.18 329.63 424.43 311.16 C 435.97 318.05 447.49 324.96 459.01 331.88 C 459.01 320.56 459.00 309.24 459.01 297.91 C 418.79 273.60 378.43 249.52 338.13 225.33 C 352.18 201.89 366.26 178.48 380.30 155.04 C 406.56 170.74 432.77 186.50 459.01 202.22 C 458.94 172.83 459.25 143.42 458.86 114.05 C 450.75 97.87 441.98 81.98 433.57 65.94 C 442.94 43.93 452.32 21.92 461.88 0.00 M 467.23 57.33 C 467.21 110.47 467.24 163.61 467.22 216.76 C 439.19 199.92 411.25 182.91 383.05 166.37 C 371.87 185.09 360.64 203.79 349.38 222.47 C 388.60 246.14 427.95 269.60 467.19 293.24 C 467.24 310.96 467.21 328.67 467.20 346.39 C 453.84 338.44 440.57 330.34 427.18 322.45 C 416.68 339.90 406.22 357.38 395.74 374.83 C 375.36 375.18 354.98 375.48 334.61 375.89 C 334.85 391.44 335.14 406.98 335.39 422.53 C 320.06 413.61 304.67 404.80 289.34 395.87 C 288.67 350.09 287.83 304.31 287.08 258.53 C 265.22 258.91 243.36 259.30 221.50 259.62 C 222.05 292.31 222.61 325.00 223.15 357.69 C 177.18 331.11 131.21 304.52 85.18 278.05 C 74.18 296.86 63.50 315.87 52.39 334.62 C 98.17 361.46 144.30 387.72 190.21 414.36 C 185.94 417.12 181.35 419.34 176.97 421.91 C 152.82 435.22 128.78 448.74 104.62 462.04 C 115.21 481.18 125.84 500.31 136.43 519.46 C 176.60 497.32 216.53 474.74 256.78 452.76 C 271.92 461.68 287.22 470.33 302.43 479.14 C 289.09 487.07 275.29 494.24 261.82 501.97 C 271.71 519.74 281.45 537.59 291.46 555.30 C 281.69 573.25 271.64 591.04 261.79 608.95 C 275.40 616.48 289.03 623.95 302.55 631.63 C 287.22 640.40 271.95 649.28 256.65 658.10 C 216.58 635.93 176.52 613.76 136.55 591.41 C 125.75 610.44 115.31 629.68 104.63 648.79 C 123.42 659.22 142.22 669.64 161.01 680.08 C 170.69 685.63 180.71 690.64 190.18 696.54 C 144.22 723.02 98.30 749.57 52.42 776.17 C 63.34 795.10 74.29 814.01 85.18 832.96 C 131.15 806.38 177.11 779.78 223.16 753.33 C 222.61 786.01 222.06 818.69 221.51 851.38 C 243.37 851.70 265.23 852.09 287.08 852.47 C 287.83 806.70 288.68 760.93 289.35 715.16 C 304.57 706.05 320.01 697.30 335.38 688.45 C 335.17 704.00 334.87 719.56 334.62 735.11 C 355.00 735.37 375.38 735.88 395.76 736.15 C 406.22 753.64 416.76 771.08 427.18 788.60 C 440.56 780.64 453.85 772.55 467.21 764.57 C 467.25 782.28 467.25 799.99 467.21 817.70 C 427.93 841.19 388.77 864.88 349.45 888.30 C 360.59 907.18 371.85 926.00 383.32 944.68 C 411.20 927.72 439.23 911.00 467.23 894.26 C 467.25 947.37 467.23 1000.48 467.25 1053.60 C 489.10 1053.60 510.95 1053.60 532.80 1053.60 C 532.83 1000.49 532.79 947.37 532.82 894.26 C 560.96 910.88 588.82 927.98 616.96 944.63 C 628.04 925.76 639.67 907.22 650.54 888.24 C 611.18 864.93 572.11 841.13 532.83 817.67 C 532.81 799.97 532.79 782.27 532.84 764.56 C 546.17 772.58 559.48 780.62 572.84 788.60 C 583.27 771.09 593.82 753.65 604.28 736.17 C 624.66 735.82 645.04 735.52 665.42 735.11 C 665.20 719.55 664.87 704.00 664.64 688.44 C 680.01 697.29 695.42 706.06 710.67 715.13 C 711.38 760.91 712.16 806.69 712.94 852.47 C 734.79 852.09 756.64 851.69 778.49 851.38 C 777.96 818.70 777.39 786.01 776.84 753.33 C 822.88 779.81 868.86 806.41 914.82 833.03 C 925.75 814.14 936.51 795.14 947.59 776.34 C 941.08 772.06 934.14 768.50 927.46 764.50 C 888.20 741.79 848.87 719.20 809.66 696.40 C 838.22 680.56 866.77 664.71 895.32 648.84 C 884.76 629.72 874.09 610.67 863.61 591.52 C 823.34 613.47 783.47 636.18 743.21 658.13 C 728.00 649.32 712.80 640.50 697.54 631.77 C 710.88 623.85 724.62 616.60 738.16 609.02 C 728.76 592.03 719.38 575.03 709.92 558.07 C 709.40 556.89 707.99 555.55 709.16 554.28 C 718.82 536.86 728.59 519.48 738.11 501.98 C 724.57 494.36 710.90 486.98 697.42 479.28 C 712.66 470.42 728.01 461.75 743.21 452.81 C 783.39 474.89 823.44 497.20 863.47 519.55 C 874.20 500.46 884.72 481.25 895.35 462.12 C 866.79 446.32 838.29 430.42 809.75 414.58 C 855.44 387.80 901.48 361.59 947.25 334.95 C 945.52 330.25 942.17 325.90 939.81 321.33 C 931.47 306.90 923.18 292.45 914.80 278.05 C 868.76 304.53 822.80 331.17 776.82 357.76 C 777.36 325.05 777.94 292.33 778.46 259.62 C 756.61 259.31 734.77 258.88 712.92 258.59 C 712.14 304.35 711.31 350.10 710.65 395.85 C 695.34 404.79 679.94 413.60 664.62 422.53 C 664.87 406.98 665.16 391.44 665.41 375.89 C 645.03 375.63 624.65 375.13 604.27 374.84 C 593.82 357.40 583.32 339.98 572.93 322.50 C 559.41 330.20 546.21 338.49 532.80 346.38 C 532.80 328.67 532.77 310.96 532.82 293.25 C 572.05 269.71 611.22 246.05 650.54 222.66 C 639.65 203.74 628.04 185.23 617.02 166.39 C 588.78 182.91 560.88 200.03 532.79 216.82 C 532.79 163.66 532.81 110.49 532.79 57.33 C 510.93 57.33 489.08 57.33 467.23 57.33 Z" />
<path fill="#000000" opacity="1.00" d=" M 487.73 135.26 C 495.91 135.27 504.08 135.28 512.26 135.25 C 512.35 174.49 512.27 213.73 512.30 252.96 C 544.78 233.39 577.28 213.81 609.89 194.46 C 614.11 201.42 618.22 208.45 622.50 215.38 C 585.82 237.54 549.03 259.52 512.33 281.66 C 512.30 315.31 512.22 348.96 512.37 382.60 C 530.11 371.82 547.93 361.16 565.78 350.55 C 569.98 357.58 574.23 364.57 578.40 371.62 C 556.34 384.77 534.35 398.04 512.31 411.23 C 512.28 452.51 512.31 493.79 512.29 535.07 C 548.06 514.52 583.72 493.78 619.49 473.25 C 619.97 447.54 620.35 421.83 620.81 396.12 C 629.01 396.20 637.20 396.38 645.40 396.50 C 645.03 417.30 644.68 438.10 644.34 458.90 C 673.41 442.00 702.55 425.21 731.70 408.45 C 732.49 365.58 733.14 322.72 733.90 279.86 C 742.09 279.95 750.29 280.17 758.48 280.30 C 757.83 318.20 757.22 356.11 756.56 394.02 C 790.52 374.47 824.41 354.80 858.36 335.24 C 862.67 342.17 866.44 349.42 870.74 356.36 C 836.94 376.27 802.74 395.55 768.89 415.39 C 800.41 432.76 831.82 450.34 863.31 467.77 C 864.78 468.87 867.26 469.26 867.97 471.02 C 864.28 478.13 860.28 485.10 856.34 492.09 C 818.88 471.31 781.49 450.41 744.01 429.68 C 724.06 441.12 704.20 452.72 684.26 464.19 C 675.15 469.64 665.74 474.63 656.78 480.32 C 674.93 490.26 692.97 500.39 711.09 510.40 C 707.30 517.67 703.15 524.75 699.22 531.96 C 676.82 519.40 654.32 507.03 631.87 494.55 C 596.10 515.01 560.50 535.78 524.78 556.33 C 534.85 562.67 545.38 568.28 555.62 574.35 C 581.01 589.03 606.44 603.64 631.81 618.34 C 654.22 605.82 676.72 593.45 699.13 580.94 C 703.23 588.07 707.24 595.26 711.09 602.54 C 692.96 612.56 674.77 622.47 656.81 632.78 C 685.82 649.66 714.96 666.32 744.00 683.18 C 781.40 662.38 818.86 641.70 856.22 620.83 C 860.54 627.79 864.22 635.15 868.33 642.25 C 835.20 660.69 802.00 679.02 768.91 697.54 C 802.83 717.24 836.92 736.64 870.73 756.51 C 866.48 763.50 862.64 770.74 858.29 777.67 C 824.48 757.91 790.47 738.47 756.57 718.87 C 757.21 756.78 757.83 794.70 758.50 832.62 C 750.30 832.79 742.10 832.97 733.90 833.07 C 733.14 790.19 732.51 747.31 731.69 704.43 C 702.55 687.66 673.53 670.71 644.33 654.06 C 644.69 674.85 645.04 695.65 645.39 716.44 C 637.20 716.54 629.00 716.73 620.81 716.81 C 620.36 691.10 619.96 665.39 619.50 639.69 C 583.81 618.98 548.07 598.36 512.31 577.78 C 512.28 619.05 512.30 660.33 512.30 701.61 C 534.35 714.80 556.37 728.03 578.40 741.25 C 574.20 748.32 569.95 755.35 565.76 762.42 C 547.98 751.66 530.17 740.95 512.33 730.30 C 512.31 763.98 512.22 797.66 512.37 831.34 C 549.19 853.15 585.74 875.41 622.48 897.37 C 618.32 904.44 614.03 911.43 609.85 918.49 C 577.36 898.93 544.83 879.42 512.29 859.95 C 512.32 899.14 512.27 938.34 512.32 977.54 C 504.10 977.63 495.89 977.65 487.67 977.53 C 487.74 938.33 487.68 899.14 487.70 859.94 C 455.26 879.46 422.67 898.74 390.37 918.48 C 385.80 911.62 381.76 904.41 377.53 897.33 C 414.27 875.42 450.79 853.12 487.62 831.36 C 487.79 797.67 487.69 763.98 487.67 730.30 C 469.84 740.98 451.99 751.62 434.23 762.43 C 430.02 755.36 425.80 748.31 421.58 741.26 C 443.62 728.04 465.65 714.80 487.70 701.60 C 487.69 660.32 487.72 619.04 487.68 577.75 C 451.95 598.38 416.19 618.97 380.50 639.68 C 380.03 665.39 379.64 691.10 379.17 716.81 C 370.98 716.73 362.78 716.55 354.59 716.44 C 354.95 695.65 355.29 674.85 355.65 654.06 C 326.46 670.71 297.44 687.67 268.30 704.42 C 267.48 747.30 266.85 790.19 266.09 833.08 C 257.89 832.97 249.69 832.78 241.50 832.63 C 242.16 794.72 242.77 756.81 243.42 718.91 C 209.43 738.42 175.49 758.02 141.58 777.69 C 137.46 770.61 133.37 763.51 129.26 756.43 C 163.14 736.71 197.14 717.20 231.06 697.56 C 198.00 678.98 164.78 660.70 131.65 642.25 C 135.58 635.14 139.63 628.10 143.44 620.93 C 153.90 626.16 163.93 632.24 174.24 637.79 C 201.49 652.92 228.73 668.07 255.99 683.17 C 276.72 671.17 297.48 659.22 318.21 647.22 C 326.51 642.33 335.06 637.83 343.14 632.58 C 325.03 622.62 307.04 612.44 288.90 602.56 C 292.62 595.27 296.84 588.25 300.65 581.01 C 323.29 593.20 345.67 605.90 368.19 618.34 C 403.87 597.72 439.56 577.12 475.26 556.54 C 439.71 535.63 403.89 515.15 368.15 494.56 C 345.69 507.01 323.19 519.40 300.78 531.96 C 296.84 524.77 292.73 517.66 288.89 510.42 C 306.97 500.27 325.26 490.45 343.21 480.09 C 314.12 463.32 285.09 446.42 255.98 429.68 C 218.41 450.34 181.12 471.54 143.45 492.01 C 139.64 484.84 135.63 477.78 131.68 470.69 C 164.70 452.02 198.01 433.86 231.08 415.30 C 197.16 395.79 163.38 376.03 129.35 356.72 C 133.12 349.40 137.48 342.40 141.55 335.24 C 175.57 354.73 209.44 374.48 243.43 394.02 C 242.77 356.11 242.16 318.20 241.50 280.30 C 249.70 280.16 257.89 279.95 266.09 279.86 C 266.87 322.74 267.45 365.63 268.32 408.51 C 297.50 425.18 326.58 442.03 355.65 458.90 C 355.29 438.10 354.96 417.30 354.58 396.50 C 362.76 396.36 370.94 396.25 379.12 396.09 C 379.72 421.81 379.98 447.53 380.51 473.25 C 416.29 493.78 451.94 514.52 487.71 535.08 C 487.69 493.80 487.72 452.52 487.69 411.25 C 465.66 398.03 443.65 384.78 421.59 371.61 C 425.77 364.57 430.00 357.57 434.23 350.56 C 452.04 361.15 469.84 371.77 487.54 382.57 C 487.90 348.94 487.64 315.29 487.66 281.66 C 450.96 259.65 414.38 237.43 377.57 215.60 C 381.67 208.45 385.77 201.25 390.40 194.42 C 422.73 214.10 455.34 233.33 487.70 252.97 C 487.73 213.73 487.66 174.49 487.73 135.26 Z" />
<path fill="#000000" opacity="1.00" d=" M 400.32 382.78 C 422.69 396.03 444.98 409.43 467.21 422.92 C 467.22 448.17 467.22 473.42 467.21 498.68 C 445.37 486.02 423.51 473.39 401.62 460.81 C 401.17 434.80 400.72 408.79 400.32 382.78 M 408.77 397.39 C 409.07 416.94 409.41 436.49 409.74 456.04 C 426.21 465.44 442.62 474.94 459.01 484.47 C 458.91 465.42 459.24 446.35 458.84 427.31 C 442.07 417.48 425.52 407.25 408.77 397.39 Z" />
<path fill="#000000" opacity="1.00" d=" M 532.76 422.93 C 554.98 409.41 577.30 396.03 599.68 382.79 C 599.35 408.74 598.72 434.69 598.45 460.64 C 576.65 473.47 554.63 485.93 532.78 498.68 C 532.77 473.43 532.77 448.18 532.76 422.93 M 540.93 427.70 C 541.07 446.62 540.93 465.55 541.00 484.47 C 557.38 474.93 573.81 465.45 590.27 456.03 C 590.59 436.48 590.94 416.94 591.24 397.39 C 574.44 407.44 557.55 417.38 540.93 427.70 Z" />
<path fill="#000000" opacity="1.00" d=" M 300.66 555.40 C 323.41 542.85 346.08 530.14 368.84 517.62 C 390.70 530.16 412.49 542.81 434.34 555.39 C 412.60 568.20 390.63 580.63 368.83 593.33 C 346.14 580.63 323.32 568.16 300.66 555.40 M 317.51 555.48 C 334.66 564.93 351.73 574.51 368.88 583.95 C 385.15 574.25 401.68 565.00 418.02 555.42 C 401.59 546.01 385.26 536.44 368.82 527.05 C 351.62 536.35 334.59 545.97 317.51 555.48 Z" />
<path fill="#000000" opacity="1.00" d=" M 565.66 555.53 C 587.36 542.69 609.31 530.24 631.14 517.62 C 653.88 530.09 676.48 542.82 699.20 555.34 C 676.69 568.28 653.80 580.60 631.16 593.33 C 609.33 580.72 587.52 568.08 565.66 555.53 M 581.98 555.46 C 598.35 564.98 614.85 574.28 631.13 583.95 C 648.25 574.51 665.30 564.95 682.43 555.53 C 665.42 545.89 648.34 536.35 631.15 527.05 C 614.74 536.49 598.36 545.97 581.98 555.46 Z" />
<path fill="#000000" opacity="1.00" d=" M 403.77 648.89 C 424.96 636.78 445.98 624.38 467.20 612.33 C 467.21 637.58 467.21 662.84 467.20 688.10 C 444.82 701.31 422.71 714.99 400.29 728.14 C 400.74 702.44 401.15 676.74 401.59 651.04 C 401.41 649.78 403.04 649.52 403.77 648.89 M 409.74 654.96 C 409.40 674.51 409.07 694.06 408.75 713.61 C 419.47 707.07 430.27 700.67 441.02 694.19 C 446.93 690.43 453.35 687.24 458.94 683.13 C 459.08 664.28 459.00 645.42 458.98 626.57 C 442.53 635.97 426.17 645.53 409.74 654.96 Z" />
<path fill="#000000" opacity="1.00" d=" M 532.78 612.33 C 554.71 624.88 576.59 637.52 598.41 650.27 C 598.77 676.22 599.30 702.17 599.69 728.12 C 577.28 714.95 555.13 701.37 532.78 688.10 C 532.77 662.84 532.78 637.58 532.78 612.33 M 541.00 626.57 C 541.04 645.58 540.80 664.61 541.12 683.62 C 557.93 693.43 574.56 703.57 591.24 713.60 C 590.91 694.06 590.60 674.52 590.25 654.97 C 573.82 645.53 557.46 635.96 541.00 626.57 Z" />
</g>
</svg>
