<?xml version="1.0" encoding="UTF-8" ?>
<!DOCTYPE svg PUBLIC "-//W3C//DTD SVG 1.1//EN" "http://www.w3.org/Graphics/SVG/1.1/DTD/svg11.dtd">
<svg width="236pt" height="263pt" viewBox="0 0 236 263" version="1.1" xmlns="http://www.w3.org/2000/svg">
<g id="#ffffffff">
</g>
<g id="#040404ff">
<path fill="#040404" opacity="1.00" d=" M 109.50 14.74 C 111.07 12.06 112.69 9.22 115.67 7.90 C 116.27 8.77 116.87 9.65 117.46 10.53 C 121.90 11.90 125.36 15.26 128.46 18.58 C 131.57 22.66 128.40 27.73 129.73 32.21 C 127.95 34.07 125.66 35.23 123.31 36.19 C 123.18 38.41 123.06 40.65 123.53 42.84 C 125.15 41.13 126.74 39.39 128.26 37.60 C 131.39 37.07 134.49 37.80 137.42 38.87 C 138.75 39.23 138.75 40.85 139.32 41.86 C 138.35 44.15 137.95 46.65 137.02 48.95 C 132.77 52.60 127.19 54.52 123.49 58.89 C 124.19 62.45 123.68 66.05 122.40 69.42 C 124.96 67.36 127.07 64.61 130.05 63.15 C 133.74 62.91 137.12 65.45 138.30 68.89 C 137.35 71.61 137.11 74.49 136.71 77.32 C 136.16 77.45 135.06 77.71 134.51 77.84 C 130.73 80.65 126.70 83.14 123.42 86.58 C 123.50 97.44 123.14 108.30 123.30 119.16 C 125.28 116.78 126.45 113.89 127.91 111.21 C 130.64 105.66 134.15 100.53 136.75 94.91 C 136.85 93.33 135.84 91.58 136.81 90.14 C 144.76 74.76 152.54 59.31 161.32 44.39 C 163.96 40.76 167.44 37.68 171.40 35.58 C 171.87 35.58 172.82 35.58 173.29 35.58 C 173.16 39.20 173.09 42.84 173.69 46.43 C 173.86 47.81 174.39 49.35 173.51 50.62 C 171.63 54.26 169.30 57.62 166.95 60.96 C 160.53 73.79 152.54 85.81 146.25 98.66 C 144.44 100.41 142.00 101.64 141.09 104.14 C 138.34 109.99 133.99 115.07 131.89 121.19 C 138.85 117.98 145.22 113.65 151.80 109.76 C 154.00 108.69 154.09 105.96 155.09 104.00 C 156.23 98.80 156.81 93.49 157.18 88.19 C 159.57 86.04 162.33 84.34 165.00 82.57 C 167.87 84.71 170.81 87.00 172.70 90.08 C 172.23 92.75 171.36 95.35 171.27 98.08 C 173.82 96.90 176.15 95.31 178.68 94.08 C 178.84 90.07 179.30 86.08 179.24 82.06 C 178.99 77.39 183.35 74.37 186.93 72.28 C 189.45 76.47 195.23 79.21 194.87 84.64 C 196.19 83.81 197.51 82.98 198.82 82.12 C 198.90 79.96 199.07 77.80 199.46 75.68 C 204.38 72.39 209.09 68.79 214.02 65.52 C 217.12 64.53 219.36 67.93 222.37 68.09 C 225.42 68.07 227.85 71.07 227.95 73.91 C 225.29 77.59 223.64 81.81 221.97 85.96 C 218.46 87.80 214.89 89.58 211.18 90.99 C 209.71 91.65 208.18 90.80 206.77 90.41 C 204.04 92.45 200.46 93.28 198.18 95.89 C 201.55 96.76 205.67 97.07 207.58 100.46 C 209.48 102.14 209.35 106.15 206.45 106.56 C 203.31 106.98 200.37 108.57 197.25 108.80 C 192.98 106.95 188.67 105.18 184.25 103.73 C 181.11 105.43 177.85 106.97 175.05 109.19 C 177.82 110.28 180.98 110.13 183.66 111.32 C 184.60 114.53 185.72 117.81 185.65 121.20 C 183.39 121.95 181.12 122.67 178.84 123.30 C 172.55 120.54 165.71 119.68 159.25 117.47 C 153.94 120.40 148.88 123.77 143.45 126.51 C 141.22 127.61 139.09 128.93 137.24 130.59 C 146.20 130.15 155.70 131.02 164.14 127.48 C 174.09 127.78 184.04 127.22 193.98 127.20 C 202.34 126.51 210.80 127.17 219.10 125.72 C 222.68 128.24 227.05 129.71 230.08 132.93 C 226.54 135.44 223.62 139.11 219.49 140.61 C 202.04 140.86 184.49 139.96 166.99 140.55 C 164.11 141.05 161.98 138.27 159.10 138.59 C 150.35 138.74 141.58 138.23 132.84 138.61 C 137.46 141.64 142.59 143.79 147.27 146.73 C 150.81 149.01 154.88 150.38 159.02 151.04 C 164.06 149.11 168.84 146.53 173.26 143.45 C 175.27 142.90 177.20 144.14 179.10 144.67 C 181.39 145.57 183.89 145.38 186.28 145.73 C 188.69 147.27 186.48 149.90 186.19 151.96 C 186.29 153.65 186.64 155.32 186.83 157.01 C 181.86 157.84 176.38 159.05 173.05 163.14 C 175.29 164.45 178.01 165.34 180.53 164.18 C 186.23 161.74 192.12 159.54 197.23 155.95 C 200.13 156.85 202.92 158.14 205.97 158.49 C 207.63 158.63 208.31 160.40 209.29 161.49 C 207.32 164.22 205.92 167.31 204.07 170.10 C 201.20 171.73 197.88 172.41 194.89 173.81 C 197.45 175.06 199.92 176.51 201.82 178.67 C 203.38 177.83 205.05 176.17 206.97 176.87 C 210.68 178.36 213.93 180.74 217.45 182.63 C 220.33 184.17 223.03 186.63 223.46 190.06 C 223.74 192.55 225.17 195.86 222.49 197.54 C 219.16 199.05 216.04 201.76 212.18 201.30 C 207.63 197.22 202.76 193.51 198.06 189.59 C 197.12 185.03 192.62 183.05 188.77 181.37 C 191.04 184.05 190.93 187.96 192.45 191.08 C 190.31 194.22 190.54 198.14 189.06 201.53 C 185.84 201.78 183.86 198.96 181.22 197.65 C 178.34 196.36 177.70 192.95 177.38 190.14 C 176.88 184.50 174.71 179.23 173.49 173.74 C 171.65 172.70 169.87 171.55 168.01 170.54 C 168.36 175.56 169.57 180.52 171.42 185.21 C 170.00 188.30 167.29 190.45 164.93 192.80 C 162.77 189.69 159.10 188.09 156.94 185.07 C 154.76 177.80 154.05 170.10 151.17 163.01 C 148.78 159.96 145.57 157.67 142.10 155.98 C 137.68 153.83 133.98 150.32 129.17 148.97 C 130.63 152.90 133.46 156.09 135.16 159.90 C 137.53 164.00 139.18 168.46 141.47 172.59 C 142.14 174.16 143.99 174.18 145.42 174.54 C 153.78 188.98 161.03 204.16 170.35 217.99 C 169.72 222.12 169.80 226.32 169.20 230.44 C 167.54 231.87 166.43 229.64 165.20 228.79 C 162.54 226.32 158.30 225.80 156.40 222.48 C 150.51 210.23 144.14 198.21 137.26 186.47 C 136.63 186.39 135.39 186.22 134.77 186.14 C 133.94 183.43 134.88 180.74 134.85 178.02 C 130.82 170.84 127.97 163.06 123.59 156.05 C 122.96 164.67 123.90 173.34 123.34 181.97 C 124.46 187.59 130.21 190.31 134.24 193.70 C 136.61 195.80 141.33 196.16 141.37 200.11 C 141.34 203.73 142.50 207.16 143.72 210.53 C 141.08 210.71 138.45 209.77 135.85 210.43 C 134.53 210.62 132.95 211.25 131.89 210.08 C 129.25 207.56 126.90 204.46 123.48 202.95 C 123.28 204.57 123.23 206.21 123.17 207.84 C 126.41 209.60 128.28 212.84 130.69 215.48 C 134.31 218.89 138.44 221.72 142.19 224.98 C 143.68 228.26 142.41 232.10 142.57 235.60 C 139.03 235.08 135.47 234.80 131.90 234.78 C 130.54 235.07 129.98 233.68 129.23 232.89 C 127.58 230.52 125.23 228.83 122.97 227.10 C 122.84 229.08 122.69 231.06 122.48 233.04 C 123.80 234.52 125.27 235.89 126.44 237.50 C 127.66 242.05 126.53 246.97 128.39 251.38 C 125.42 253.56 122.65 255.98 120.04 258.58 C 116.18 255.74 110.62 254.22 108.62 249.53 C 108.54 245.33 108.97 241.09 109.21 236.89 C 109.26 234.89 110.88 233.58 112.18 232.30 C 112.29 231.25 112.51 229.17 112.63 228.13 C 108.46 229.17 106.62 234.73 101.97 234.22 C 98.85 234.17 95.79 235.08 92.67 234.64 C 92.45 234.01 92.01 232.76 91.79 232.13 C 92.63 229.08 93.04 225.94 93.45 222.80 C 100.38 219.43 106.50 214.41 111.47 208.54 C 113.03 207.05 112.17 204.76 112.20 202.89 C 108.04 205.66 104.59 209.45 99.95 211.51 C 98.94 210.80 97.93 210.09 96.94 209.37 C 95.17 209.49 93.40 209.59 91.64 209.65 C 91.38 209.23 90.87 208.38 90.61 207.96 C 91.51 205.24 92.61 202.53 92.58 199.63 C 94.15 196.80 97.34 195.75 99.63 193.67 C 103.64 189.92 108.25 186.91 112.44 183.38 C 112.67 181.96 112.87 180.55 113.07 179.13 C 112.25 174.80 113.52 170.44 113.03 166.09 C 112.60 162.78 113.06 159.47 113.17 156.16 C 110.12 158.68 108.97 162.82 106.92 166.14 C 105.13 170.38 100.54 174.31 102.46 179.29 C 94.99 193.23 86.47 206.61 79.65 220.90 C 78.39 224.10 74.68 224.80 71.71 225.50 C 70.32 226.06 69.45 224.47 68.76 223.55 C 67.06 221.10 67.53 218.05 67.49 215.26 C 74.32 204.04 80.60 192.49 87.19 181.15 C 89.02 177.87 89.97 173.69 93.46 171.72 C 96.81 170.00 97.66 166.10 99.41 163.09 C 102.47 157.59 106.01 152.32 108.33 146.46 C 103.97 148.16 100.01 150.62 96.16 153.23 C 88.41 157.68 80.46 161.93 73.40 167.43 C 73.31 173.99 72.97 180.64 73.82 187.16 C 72.04 189.42 69.87 191.41 67.07 192.30 C 64.50 189.70 61.36 187.56 59.59 184.27 C 61.17 181.17 60.10 177.63 60.34 174.31 C 57.66 175.18 55.45 176.94 53.42 178.84 C 53.26 184.22 52.80 189.67 53.83 194.99 C 51.01 198.23 49.23 202.15 47.31 205.95 C 44.33 203.35 40.00 201.74 38.31 198.00 C 38.52 194.34 38.91 190.67 38.75 186.99 C 36.07 187.86 33.83 189.57 31.61 191.23 C 31.47 193.51 32.52 196.54 30.06 197.95 C 26.91 200.14 23.46 201.97 19.92 203.45 C 17.67 204.52 15.82 202.38 13.95 201.50 C 11.08 201.09 8.11 201.47 5.35 200.38 C 5.11 195.95 9.09 192.49 8.27 187.98 C 8.91 184.23 13.18 182.84 15.97 180.89 C 17.56 180.08 18.86 178.19 20.80 178.42 C 22.59 179.09 24.19 180.19 25.99 180.82 C 29.95 179.97 33.15 177.29 36.66 175.43 C 33.32 172.09 28.69 170.94 24.44 169.25 C 23.14 167.90 23.66 165.73 23.38 164.03 C 23.42 162.42 22.59 159.48 25.05 159.43 C 28.60 159.33 32.42 158.35 35.72 160.15 C 40.02 162.26 44.00 164.96 48.14 167.37 C 50.73 166.62 53.32 165.64 55.32 163.75 C 51.16 161.49 46.49 160.06 42.65 157.33 C 42.01 154.47 42.17 151.50 42.54 148.61 C 47.34 147.57 52.61 146.17 57.13 148.92 C 61.57 150.75 64.13 155.50 68.74 156.92 C 71.68 155.68 74.62 154.45 77.64 153.42 C 85.49 148.35 94.03 144.44 101.99 139.54 C 93.15 137.84 84.03 138.94 75.12 139.49 C 68.66 143.23 60.99 140.84 53.94 141.26 C 41.65 141.86 29.32 141.30 17.04 142.25 C 16.06 138.73 12.79 136.98 10.88 134.12 C 9.62 132.61 11.24 131.19 12.34 130.32 C 13.98 129.05 15.81 127.59 17.98 127.57 C 30.66 127.27 43.31 128.41 55.99 128.11 C 61.33 127.97 66.71 128.69 71.99 127.68 C 73.92 129.00 75.47 131.39 78.15 130.89 C 84.84 130.72 91.50 131.47 98.19 131.09 C 91.53 126.89 84.37 123.52 77.49 119.69 C 76.44 119.16 75.60 118.39 74.98 117.38 C 67.63 117.16 61.63 122.49 54.80 124.38 C 50.59 123.92 46.29 123.75 42.17 122.73 C 42.86 119.18 44.23 115.80 44.78 112.21 C 48.70 110.85 52.66 109.59 56.63 108.37 C 54.00 106.99 51.35 105.66 48.78 104.18 C 44.62 105.16 40.60 106.70 37.01 109.01 C 31.93 112.29 26.86 107.01 21.54 107.36 C 19.36 104.86 21.37 101.78 22.31 99.22 C 23.87 95.36 28.90 96.00 32.17 94.76 C 30.25 93.79 28.37 92.27 26.14 92.29 C 23.54 93.59 20.94 95.08 17.91 94.83 C 15.47 90.03 10.42 87.79 6.64 84.28 C 6.24 80.86 5.19 77.43 5.66 73.96 C 6.23 71.36 9.19 70.87 11.22 69.86 C 13.19 69.11 15.31 67.25 17.47 68.55 C 20.48 70.31 23.37 72.30 26.55 73.76 C 28.14 74.67 30.13 75.15 31.21 76.76 C 32.00 78.93 32.21 81.27 32.92 83.47 C 34.31 83.57 35.69 83.69 37.08 83.84 C 35.48 79.10 36.54 72.03 42.03 70.39 C 44.66 72.55 47.21 74.82 49.77 77.06 C 50.81 78.08 52.05 79.34 51.83 80.94 C 51.52 85.83 52.36 90.79 54.43 95.24 C 56.83 96.15 59.13 97.28 61.49 98.28 C 61.78 94.48 59.29 91.07 59.39 87.37 C 61.53 86.01 63.44 84.30 65.64 83.05 C 68.49 85.30 70.86 88.08 73.73 90.32 C 75.91 91.82 75.61 94.65 75.69 96.95 C 75.59 100.82 76.73 104.55 77.79 108.23 C 87.07 112.31 95.20 118.52 104.32 122.94 C 102.29 117.14 98.79 112.03 96.38 106.41 C 94.99 102.41 90.44 101.42 86.95 100.05 C 79.82 86.94 72.49 73.89 65.60 60.63 C 64.32 58.15 62.16 56.31 60.76 53.92 C 60.93 50.27 62.40 46.67 61.59 42.94 C 61.95 42.56 62.65 41.80 63.00 41.42 C 66.57 43.93 70.89 44.68 74.95 46.02 C 77.62 46.73 78.22 49.70 79.34 51.83 C 83.56 59.85 87.53 67.98 91.99 75.87 C 94.84 81.04 97.19 86.54 100.72 91.30 C 100.38 93.12 98.95 95.06 100.17 96.84 C 104.11 104.32 108.22 111.72 112.41 119.04 C 113.00 113.00 112.37 106.94 112.57 100.89 C 112.80 96.39 112.35 91.87 111.56 87.44 C 110.40 83.96 107.20 81.77 104.71 79.28 C 102.03 76.79 96.77 76.41 96.56 71.94 C 96.55 69.21 94.65 64.57 98.41 63.60 C 103.23 60.46 107.31 65.83 110.79 68.55 C 110.62 65.15 110.86 61.73 110.66 58.34 C 106.47 54.33 101.16 51.76 96.40 48.58 C 94.91 45.23 94.32 41.53 93.74 37.92 C 95.27 35.79 97.88 37.40 99.93 36.95 C 101.86 36.73 104.19 35.51 105.78 37.27 C 107.80 39.30 109.88 41.30 112.23 42.97 C 112.46 40.64 112.45 38.29 111.96 36.00 C 110.32 34.98 108.70 33.92 107.09 32.85 C 107.43 28.54 106.95 24.26 106.63 19.97 C 106.42 17.79 108.56 16.48 109.50 14.74 M 113.90 17.11 C 113.71 17.66 113.32 18.76 113.13 19.31 C 112.66 19.62 111.73 20.23 111.26 20.54 C 111.42 24.21 111.25 27.90 111.53 31.56 C 113.25 32.80 115.96 33.61 115.72 36.23 C 115.35 40.65 117.24 45.36 115.10 49.50 C 111.29 46.83 107.84 43.67 103.95 41.13 C 102.28 40.05 100.32 41.24 98.60 41.55 C 98.87 43.20 98.91 44.93 99.54 46.50 C 101.58 48.22 104.07 49.35 106.23 50.93 C 109.73 52.99 112.27 56.22 115.32 58.83 C 114.27 64.11 115.40 69.76 113.19 74.79 C 109.15 71.62 105.77 66.56 100.08 66.65 C 100.53 68.68 101.03 70.70 101.45 72.73 C 106.34 75.58 110.27 79.70 114.29 83.61 C 115.46 84.69 115.79 86.32 115.83 87.85 C 116.06 101.27 116.32 114.68 116.46 128.10 C 116.96 130.98 113.23 131.22 111.21 131.72 C 108.99 130.71 107.63 128.26 105.03 127.93 C 98.77 124.81 93.03 120.71 86.92 117.30 C 82.88 114.69 77.89 113.07 74.98 109.03 C 72.79 103.79 71.73 98.07 71.54 92.40 C 69.83 90.50 67.55 89.21 65.69 87.46 C 64.93 88.25 64.17 89.04 63.41 89.84 C 64.51 93.56 65.11 97.42 65.39 101.29 C 65.08 101.71 64.46 102.54 64.16 102.96 C 63.65 102.68 62.63 102.13 62.12 101.85 C 58.37 102.09 54.84 100.15 51.94 97.97 C 48.89 92.47 48.38 86.11 47.80 79.98 C 45.81 78.19 43.53 76.75 41.16 75.54 C 41.56 80.62 40.82 85.68 42.51 90.60 C 39.00 89.57 35.59 88.21 32.21 86.84 C 28.73 85.42 27.99 81.42 26.33 78.47 C 23.89 76.96 21.28 75.69 18.60 74.66 C 15.69 73.62 12.84 75.34 10.07 76.07 C 10.90 78.50 11.52 81.00 11.80 83.56 C 14.21 84.98 16.45 86.68 18.48 88.60 C 21.75 88.47 24.88 87.32 28.17 87.49 C 30.24 89.53 33.37 89.77 35.53 91.66 C 37.03 93.03 38.80 94.03 40.51 95.12 C 40.37 95.47 40.08 96.19 39.94 96.55 C 35.37 96.92 31.07 98.51 26.64 99.57 C 26.14 101.13 25.65 102.68 25.20 104.25 C 27.68 105.38 30.26 106.27 32.90 106.93 C 36.75 103.90 41.43 102.37 45.94 100.64 C 47.51 99.68 48.97 101.02 50.36 101.60 C 54.80 102.59 60.56 104.78 61.94 109.57 C 57.01 110.81 52.44 113.08 47.63 114.67 C 47.15 116.55 46.57 118.43 46.37 120.37 C 48.87 121.10 51.47 121.35 54.06 121.44 C 59.10 117.43 65.48 115.89 71.16 113.05 C 72.80 113.82 74.39 114.71 76.09 115.35 C 81.07 116.71 85.21 119.90 89.78 122.17 C 93.75 124.50 98.40 125.94 101.57 129.44 C 103.13 131.58 106.97 131.19 106.89 134.56 C 103.96 134.41 101.05 133.43 98.11 133.83 C 90.08 135.02 81.89 133.13 73.87 134.42 C 73.20 133.52 72.54 132.61 71.88 131.71 C 66.59 131.38 61.30 131.24 56.01 131.56 C 43.65 131.04 31.27 131.20 18.91 131.18 C 17.77 132.09 16.65 133.03 15.54 133.99 C 17.44 135.40 19.33 136.83 21.06 138.45 C 26.06 138.67 31.06 138.42 36.06 138.24 C 44.69 138.79 53.31 137.90 61.95 138.23 C 65.42 138.24 69.07 138.73 72.33 137.26 C 77.93 134.89 84.06 135.82 89.95 135.59 C 93.48 135.60 97.16 135.09 100.52 136.48 C 103.16 137.66 106.22 135.74 108.75 137.32 C 108.45 140.22 104.86 141.31 102.66 142.67 C 96.33 146.73 89.45 149.89 83.48 154.49 C 79.39 156.17 75.42 158.15 71.52 160.24 C 69.80 161.12 67.54 161.30 65.94 160.06 C 62.02 157.25 57.81 154.87 53.89 152.06 C 51.64 150.27 48.59 151.30 45.97 151.31 C 45.72 153.34 46.12 156.12 48.17 157.06 C 52.02 159.07 55.79 161.26 59.32 163.80 C 59.69 164.70 59.55 165.94 58.57 166.40 C 55.12 168.59 51.18 171.31 46.87 170.15 C 42.58 168.45 38.92 165.43 34.53 163.91 C 32.16 163.30 29.68 163.42 27.25 163.37 C 27.32 164.67 27.40 165.97 27.51 167.27 C 31.66 168.92 36.13 170.46 39.19 173.88 C 40.67 175.14 39.54 177.30 38.39 178.38 C 35.25 180.79 31.70 182.66 28.07 184.23 C 25.74 185.16 23.50 183.46 21.17 183.39 C 18.40 184.83 15.44 186.09 13.02 188.09 C 12.17 190.75 12.11 193.61 11.19 196.27 C 13.81 197.38 16.42 198.54 19.10 199.51 C 22.27 197.71 25.48 195.90 28.18 193.41 C 28.11 192.04 28.23 190.69 28.53 189.36 C 32.77 187.01 36.02 182.70 41.29 182.58 C 43.25 186.85 41.14 191.45 41.28 195.89 C 41.90 197.85 44.01 198.31 45.70 198.98 C 46.92 197.10 48.11 195.20 49.30 193.30 C 49.11 188.36 49.06 183.37 49.77 178.48 C 50.06 175.87 52.80 175.01 54.57 173.57 C 57.20 171.90 59.98 169.28 63.35 170.50 C 63.61 171.08 64.13 172.24 64.40 172.82 C 64.10 177.01 61.38 182.40 65.06 185.71 C 66.63 185.97 68.20 186.20 69.78 186.40 C 68.87 179.78 69.61 173.12 69.32 166.48 C 72.50 163.09 76.97 161.44 80.46 158.43 C 89.45 153.02 98.84 148.27 107.82 142.84 C 109.07 142.11 110.57 142.09 111.95 141.75 C 112.32 142.31 113.07 143.43 113.44 143.99 C 108.32 153.31 103.04 162.56 98.03 171.94 C 97.04 173.72 95.34 174.86 93.49 175.60 C 92.42 179.18 90.59 182.45 88.48 185.51 C 83.24 194.93 77.87 204.29 72.88 213.86 C 71.74 215.92 72.30 218.39 72.10 220.63 C 77.11 220.04 78.68 214.72 80.89 211.00 C 86.64 201.30 91.84 191.29 97.63 181.62 C 99.04 179.85 98.77 177.71 98.09 175.71 C 103.32 166.08 108.63 156.48 114.24 147.05 C 114.35 145.73 116.65 145.85 116.59 147.06 C 116.66 159.45 116.36 171.86 116.89 184.24 C 110.04 189.80 102.96 195.07 95.80 200.23 C 95.51 202.15 95.16 204.06 94.74 205.96 C 96.85 206.36 98.97 206.75 101.05 207.29 C 105.86 204.86 107.96 199.18 113.10 197.30 C 114.16 198.45 115.32 199.54 116.18 200.87 C 116.42 203.59 116.22 206.33 116.37 209.06 C 110.84 215.06 103.84 219.37 97.67 224.63 C 96.79 226.40 97.29 228.56 97.02 230.49 C 99.27 230.20 101.56 230.07 103.79 230.62 C 107.14 228.25 110.13 225.44 113.21 222.73 C 113.68 222.70 114.63 222.64 115.11 222.61 C 116.49 225.66 115.56 229.46 117.83 232.25 C 116.65 234.27 114.95 235.89 113.11 237.30 C 113.19 240.98 113.71 244.74 112.66 248.35 C 114.10 250.22 116.34 251.72 118.73 251.85 C 120.09 250.93 121.29 249.81 122.55 248.76 C 122.47 245.43 122.45 242.09 122.38 238.76 C 121.59 236.46 118.68 235.08 119.24 232.31 C 119.59 228.33 117.11 223.89 119.80 220.32 C 124.84 222.50 128.08 227.17 131.98 230.83 C 133.83 231.04 135.69 231.20 137.55 231.41 C 137.77 229.83 138.02 228.26 138.32 226.69 C 135.90 223.73 132.49 221.82 129.58 219.38 C 125.65 216.52 123.62 211.75 119.47 209.14 C 119.08 205.80 119.27 202.45 119.31 199.11 C 119.70 198.75 120.49 198.04 120.89 197.69 C 122.75 198.01 125.47 197.22 126.60 199.18 C 128.05 202.30 130.79 204.53 133.44 206.61 C 135.11 206.86 136.80 206.85 138.49 206.99 C 137.88 204.47 137.26 201.95 137.21 199.34 C 134.20 197.12 130.86 195.39 127.91 193.08 C 125.31 191.10 121.75 189.81 120.54 186.49 C 118.59 181.55 119.75 176.17 119.76 171.02 C 120.00 162.98 119.24 154.94 119.68 146.90 C 120.09 146.28 120.90 145.03 121.31 144.40 C 122.25 145.44 122.90 146.67 123.11 148.07 C 124.46 153.69 128.66 157.97 130.85 163.23 C 132.98 167.64 135.12 172.12 138.23 175.96 C 138.87 177.73 137.95 179.60 137.82 181.40 C 145.43 193.37 151.59 206.17 158.69 218.44 C 159.84 220.65 161.89 222.17 164.46 222.07 C 164.89 219.76 165.24 217.23 163.85 215.15 C 157.39 203.45 150.88 191.74 145.07 179.69 C 142.87 177.93 139.59 177.19 138.63 174.21 C 133.80 163.73 127.78 153.84 123.18 143.26 C 125.47 143.40 127.58 144.35 129.80 144.84 C 138.30 149.53 147.54 153.46 154.33 160.61 C 156.33 163.72 155.84 167.72 157.33 171.07 C 159.38 176.66 157.95 184.29 163.90 187.66 C 165.00 186.73 166.10 185.80 167.20 184.88 C 166.05 179.92 164.63 175.03 163.72 170.02 C 163.19 168.43 163.98 166.95 164.55 165.53 C 168.26 166.14 172.05 166.63 175.00 169.22 C 176.21 171.69 177.60 174.14 178.02 176.91 C 179.00 181.98 181.26 186.75 181.70 191.94 C 181.70 194.54 184.42 195.49 186.15 196.86 C 186.79 194.29 187.66 191.78 188.06 189.16 C 187.31 185.60 185.36 182.45 184.25 179.01 C 184.01 177.10 186.34 175.62 187.96 176.56 C 191.15 178.14 194.61 179.41 197.42 181.63 C 197.54 182.34 197.78 183.75 197.90 184.46 C 198.43 184.22 199.49 183.74 200.02 183.50 C 202.38 184.57 201.51 187.95 203.55 189.31 C 205.65 190.93 207.95 192.28 210.10 193.84 C 211.41 194.71 212.76 196.02 214.48 195.69 C 216.21 194.95 217.53 193.59 218.73 192.19 C 217.78 190.35 216.92 188.46 216.15 186.54 C 213.62 185.37 211.24 183.92 208.89 182.43 C 205.72 180.03 201.53 184.57 198.73 181.40 C 195.89 178.59 191.61 177.58 189.38 174.11 C 191.35 170.05 196.18 170.29 199.88 169.06 C 201.60 166.90 202.45 164.10 204.08 161.83 C 201.82 160.80 199.14 159.31 196.72 160.80 C 191.17 163.63 185.37 165.94 179.97 169.04 C 175.36 167.21 170.62 165.65 166.24 163.30 C 166.28 162.86 166.35 161.97 166.39 161.53 C 171.06 158.78 176.09 156.64 181.30 155.16 C 181.85 152.75 182.56 150.37 182.83 147.91 C 179.82 147.82 176.59 146.21 173.72 147.75 C 169.12 150.32 164.53 152.92 159.75 155.15 C 156.43 153.73 152.93 152.94 149.37 152.47 C 141.64 147.98 133.81 143.65 126.26 138.88 C 126.65 138.19 126.36 136.81 127.41 136.72 C 130.90 136.18 134.35 135.10 137.92 135.26 C 145.64 135.63 153.36 134.95 161.08 135.35 C 163.83 135.58 166.15 137.64 169.01 137.26 C 184.98 137.08 200.97 136.66 216.94 136.71 C 219.02 135.76 220.74 134.17 222.63 132.89 C 218.53 128.59 212.30 131.05 207.12 130.52 C 193.45 130.64 179.77 130.12 166.10 130.62 C 162.72 130.38 160.50 134.42 157.05 133.53 C 152.37 132.73 147.64 133.43 142.94 133.61 C 137.45 134.02 131.95 133.47 126.47 133.85 C 126.71 132.82 127.25 132.05 128.11 131.52 C 136.49 127.22 144.33 121.98 152.62 117.52 C 155.14 116.35 157.24 113.75 160.28 114.21 C 165.80 114.83 170.68 117.72 175.85 119.51 C 178.08 120.39 180.44 119.57 182.66 119.11 C 182.00 118.17 181.33 117.23 180.68 116.30 C 180.69 115.57 180.73 114.13 180.75 113.41 C 177.26 112.62 173.11 112.80 170.42 110.14 L 170.52 108.93 C 173.48 104.40 179.10 103.00 183.18 99.75 C 187.51 101.21 191.67 103.12 196.02 104.53 C 198.56 104.36 201.01 103.56 203.46 102.92 C 203.18 102.42 202.61 101.42 202.33 100.91 C 199.22 99.74 196.07 98.72 192.86 97.86 C 192.74 97.40 192.51 96.48 192.39 96.02 C 196.35 91.43 202.09 89.27 207.08 86.10 C 207.84 86.21 209.37 86.42 210.14 86.52 C 214.90 84.30 218.60 79.95 219.75 74.79 C 217.62 73.72 215.41 72.80 213.10 72.21 C 210.04 74.42 206.47 75.91 203.82 78.66 C 203.73 80.28 204.06 82.02 203.44 83.57 C 201.25 85.58 198.47 86.82 196.05 88.54 C 194.74 90.09 192.92 91.21 190.84 91.30 C 187.34 90.38 190.07 85.77 190.06 83.28 C 188.82 81.50 187.51 79.75 186.05 78.14 C 183.19 80.48 182.43 83.92 182.24 87.43 C 180.70 90.63 182.69 95.08 179.52 97.44 C 175.90 100.12 171.85 102.22 167.67 103.87 C 166.02 99.58 168.73 95.29 168.95 90.99 C 168.42 89.15 166.62 87.89 164.96 87.16 C 162.36 88.25 159.98 90.96 160.36 93.98 C 160.37 98.31 159.77 102.61 159.73 106.94 C 157.96 108.82 156.98 111.54 154.42 112.53 C 145.25 117.53 136.21 122.72 127.24 128.06 C 126.22 129.32 123.50 132.40 123.30 128.95 C 124.84 126.37 126.72 123.99 127.97 121.23 C 127.48 121.35 126.50 121.57 126.01 121.68 C 124.08 124.22 122.94 128.00 119.43 128.65 C 119.37 114.79 119.99 100.89 119.42 87.02 C 122.73 81.89 127.82 78.42 133.05 75.45 C 133.21 73.15 133.39 70.86 133.66 68.58 C 132.42 67.54 130.74 66.52 129.15 67.54 C 125.85 69.68 123.40 72.81 121.00 75.87 C 120.34 75.66 119.04 75.26 118.38 75.06 C 118.54 69.30 119.22 63.56 119.24 57.80 C 123.66 54.33 128.25 51.09 132.64 47.60 C 134.31 46.64 134.06 44.63 134.27 42.99 C 133.11 42.46 131.96 41.90 130.81 41.32 C 128.18 44.02 125.33 46.53 121.84 48.06 C 119.66 44.38 119.70 39.96 118.09 36.06 C 117.89 32.63 122.08 32.64 124.34 31.44 C 123.93 27.70 124.65 23.63 122.61 20.26 C 120.36 18.94 118.29 17.34 116.20 15.79 C 115.63 16.12 114.48 16.78 113.90 17.11 M 164.01 47.01 C 155.41 61.70 147.47 76.83 139.81 92.03 C 139.82 93.33 139.77 94.62 139.64 95.92 C 136.67 102.75 132.33 108.89 129.27 115.68 C 129.98 115.38 130.67 115.04 131.34 114.66 C 135.98 108.67 137.53 100.61 143.78 95.84 C 152.78 79.96 161.19 63.75 169.83 47.69 C 169.74 45.83 169.57 43.98 169.29 42.14 C 166.80 42.75 165.66 45.30 164.01 47.01 M 65.77 48.48 C 65.69 50.82 64.73 53.50 66.40 55.53 C 70.22 61.29 72.56 67.86 76.30 73.66 C 80.30 81.63 84.83 89.31 88.97 97.20 C 90.89 98.14 92.93 98.15 95.00 97.78 C 98.87 103.56 100.92 110.34 104.73 116.17 C 107.31 120.27 108.87 124.96 111.54 128.94 C 111.58 127.23 112.20 125.32 111.12 123.80 C 107.88 118.32 105.59 112.32 102.06 107.00 C 99.85 103.83 98.19 100.33 96.53 96.85 C 95.52 95.29 96.57 93.61 97.05 92.10 C 90.03 79.15 82.85 66.28 75.86 53.31 C 74.34 49.30 69.18 49.70 65.77 48.48 Z" />
</g>
</svg>
