<?xml version="1.0" encoding="UTF-8" ?>
<!DOCTYPE svg PUBLIC "-//W3C//DTD SVG 1.1//EN" "http://www.w3.org/Graphics/SVG/1.1/DTD/svg11.dtd">
<svg width="176pt" height="192pt" viewBox="0 0 176 192" version="1.1" xmlns="http://www.w3.org/2000/svg">
<g id="#ffffffff">
</g>
<g id="#000000ff">
<path fill="#000000" opacity="1.00" d=" M 70.59 10.15 C 71.19 5.25 75.77 2.19 80.10 0.78 C 84.02 -0.05 87.71 2.19 91.03 3.97 C 96.38 6.86 97.01 13.70 97.06 19.10 C 96.61 24.90 88.67 26.09 88.12 31.77 C 94.63 31.32 99.63 26.63 105.44 24.21 C 106.13 28.15 107.05 32.90 104.31 36.28 C 99.92 41.19 92.49 42.66 89.15 48.64 C 93.58 48.79 97.07 45.52 101.24 44.52 C 102.52 48.07 102.70 52.81 99.39 55.33 C 95.65 58.14 91.36 60.21 87.01 61.92 C 83.55 63.26 80.14 61.21 77.06 59.82 C 73.48 58.02 69.36 55.87 68.06 51.79 C 67.61 50.01 67.24 46.75 69.92 46.79 C 74.03 47.15 77.65 49.65 81.83 49.69 C 78.18 42.90 68.66 43.61 63.55 38.44 C 61.19 34.89 61.87 30.29 61.18 26.26 C 65.83 28.19 70.45 30.20 75.22 31.81 C 76.80 32.48 78.52 32.39 80.18 32.12 C 78.89 27.38 72.98 27.27 70.51 23.64 C 69.12 19.30 70.09 14.58 70.59 10.15 Z" />
<path fill="#000000" opacity="1.00" d=" M 144.19 43.19 C 147.44 40.71 150.96 38.12 155.04 37.26 C 164.44 37.12 172.45 46.68 170.82 55.89 C 168.37 60.45 163.49 63.09 158.89 65.05 C 153.96 67.16 149.43 61.66 144.47 63.90 C 145.11 65.08 145.67 66.40 146.89 67.12 C 150.92 69.95 155.24 72.44 158.67 76.03 C 155.68 78.47 152.22 82.22 148.02 81.28 C 141.84 78.45 136.57 72.86 129.35 72.91 C 132.01 76.96 137.15 78.21 140.11 81.99 C 137.43 84.58 133.77 87.87 129.76 86.23 C 125.69 84.56 122.00 82.06 118.53 79.40 C 113.31 75.28 113.96 67.86 113.81 61.92 C 113.41 57.87 118.09 54.40 121.66 55.41 C 123.40 58.96 123.55 63.11 125.50 66.60 C 127.95 63.45 126.51 59.13 126.20 55.51 C 125.76 51.59 123.74 46.51 127.38 43.52 C 129.49 41.84 131.89 39.56 134.80 39.97 C 137.18 41.83 136.29 45.29 136.74 47.90 C 137.04 51.33 137.70 56.04 141.70 56.99 C 143.70 52.57 139.99 46.69 144.19 43.19 Z" />
<path fill="#000000" opacity="1.00" d=" M 4.99 49.90 C 8.08 47.78 11.45 44.19 15.56 45.55 C 19.30 46.86 23.03 48.42 26.30 50.68 C 31.01 53.85 27.03 61.23 31.83 64.32 C 34.09 58.57 31.81 52.02 34.35 46.40 C 38.39 44.92 44.54 48.08 44.83 52.80 C 45.59 59.34 44.56 66.22 47.18 72.45 C 50.84 69.05 48.39 63.25 49.98 58.90 C 53.87 59.48 58.49 61.55 58.97 65.97 C 59.51 70.44 59.89 75.19 58.40 79.52 C 56.30 83.84 51.93 86.33 48.39 89.33 C 46.46 90.61 44.62 92.79 42.12 92.62 C 39.71 91.87 37.70 90.25 35.59 88.93 C 37.39 84.71 41.87 82.32 43.27 77.87 C 36.96 79.68 33.18 85.75 27.16 88.12 C 23.08 89.88 18.07 87.60 15.81 84.04 C 18.57 78.44 27.43 76.72 27.61 69.65 C 22.57 70.34 18.66 76.22 13.28 73.77 C 9.12 71.87 3.81 70.78 1.28 66.63 C 0.03 61.02 -0.33 53.61 4.99 49.90 Z" />
<path fill="#000000" opacity="1.00" d=" M 92.85 66.85 C 97.10 63.34 102.12 60.87 107.20 58.81 C 108.53 63.72 108.48 68.86 108.24 73.89 C 108.03 76.03 108.02 78.61 106.13 80.03 C 105.02 81.20 103.02 81.09 102.05 79.81 C 100.48 77.81 100.51 74.97 98.84 73.06 C 95.81 73.19 93.31 76.27 90.35 75.75 C 89.20 72.60 90.19 68.92 92.85 66.85 Z" />
<path fill="#000000" opacity="1.00" d=" M 64.48 62.17 C 69.65 62.45 74.43 64.74 78.94 67.11 C 81.12 68.40 83.71 70.19 83.77 72.99 C 83.74 74.21 83.74 76.07 82.09 76.21 C 79.38 76.04 76.69 75.00 73.97 75.63 C 73.60 77.96 73.97 81.03 71.66 82.47 C 69.86 83.86 67.12 82.83 66.54 80.69 C 64.58 74.76 63.97 68.38 64.48 62.17 Z" />
<path fill="#000000" opacity="1.00" d=" M 85.03 81.55 C 89.24 81.84 93.30 80.55 97.26 79.29 C 98.06 81.91 97.81 84.74 98.74 87.32 C 100.73 91.27 105.36 92.53 108.92 94.61 C 105.56 96.73 101.13 98.68 100.43 103.08 C 99.54 106.01 100.90 109.79 98.94 112.22 C 95.88 111.63 93.15 109.77 89.99 109.63 C 85.76 109.70 82.33 112.80 78.12 113.02 C 77.57 109.72 78.03 106.26 76.98 103.06 C 75.75 100.09 71.91 100.15 69.87 97.98 C 69.39 94.45 73.77 93.62 75.73 91.56 C 78.79 88.72 76.23 84.17 77.85 80.82 C 80.26 80.69 82.62 81.53 85.03 81.55 Z" />
<path fill="#000000" opacity="1.00" d=" M 106.63 88.01 C 108.97 86.14 111.85 83.82 115.04 85.13 C 120.59 87.19 125.44 90.72 130.60 93.57 C 125.78 97.05 121.22 100.94 116.17 104.10 C 113.57 105.96 110.57 103.78 108.68 101.94 C 107.97 98.48 113.62 96.69 113.07 93.22 C 111.05 91.32 108.66 89.88 106.63 88.01 Z" />
<path fill="#000000" opacity="1.00" d=" M 60.62 88.79 C 63.02 87.49 66.33 88.29 67.47 90.88 C 67.09 94.00 63.20 95.08 62.55 97.96 C 64.32 100.12 67.32 101.28 68.36 104.01 C 69.03 106.47 65.76 107.32 63.94 107.08 C 57.67 106.07 51.68 103.18 46.87 99.03 C 49.99 94.05 55.36 91.03 60.62 88.79 Z" />
<path fill="#000000" opacity="1.00" d=" M 130.20 101.17 C 133.92 98.76 137.76 101.90 141.04 103.55 C 138.01 106.98 134.19 109.94 132.43 114.31 C 139.74 112.90 143.97 105.55 151.05 103.59 C 154.77 102.95 157.72 105.89 160.38 108.03 C 157.24 113.71 149.44 115.61 147.71 122.31 C 152.94 122.60 156.51 116.16 161.88 118.32 C 166.12 120.05 171.04 121.33 174.08 124.96 C 175.92 129.09 175.64 134.06 174.14 138.26 C 171.59 142.93 166.40 145.17 162.38 148.36 C 157.84 145.80 152.77 143.82 149.19 139.88 C 146.22 136.97 147.05 132.34 144.90 128.96 C 141.98 134.57 142.72 141.21 141.68 147.31 C 138.25 145.22 133.79 144.13 131.59 140.54 C 129.47 134.70 131.00 128.29 129.76 122.28 C 128.06 125.92 127.03 129.85 125.12 133.40 C 123.01 132.70 120.10 132.38 119.36 129.88 C 117.86 124.73 118.30 119.23 118.59 113.94 C 119.15 107.60 125.47 104.32 130.20 101.17 Z" />
<path fill="#000000" opacity="1.00" d=" M 41.29 106.20 C 44.19 104.32 47.48 106.48 50.08 107.90 C 54.22 110.54 59.02 113.22 60.79 118.10 C 62.07 121.89 62.53 125.96 62.49 129.95 C 62.52 133.95 58.63 136.72 55.05 137.41 C 51.67 134.52 54.82 127.85 49.96 125.59 C 48.74 132.10 51.15 138.58 50.66 145.09 C 49.94 149.41 45.12 151.02 41.75 152.87 C 38.56 148.59 39.66 143.00 38.67 138.09 C 38.44 136.39 36.54 134.43 34.93 136.12 C 33.44 140.16 36.45 145.38 32.65 148.64 C 28.32 152.46 22.49 157.29 16.38 154.53 C 12.53 152.84 7.44 150.89 6.91 146.07 C 6.37 141.06 5.96 134.82 10.37 131.32 C 13.21 129.09 16.23 126.47 19.97 126.06 C 24.61 126.57 28.58 130.03 33.43 129.50 C 30.35 123.08 22.42 121.73 17.71 116.94 C 18.39 113.86 22.33 112.42 25.12 111.61 C 33.24 110.71 38.43 119.37 46.43 119.31 C 44.79 116.03 41.28 114.49 38.99 111.78 C 37.19 109.70 39.61 107.36 41.29 106.20 Z" />
<path fill="#000000" opacity="1.00" d=" M 100.91 116.31 C 103.30 114.90 103.10 111.53 105.04 109.72 C 107.81 108.93 111.19 111.25 111.52 114.17 C 112.46 119.85 111.46 125.61 111.21 131.32 C 105.42 128.65 99.41 126.33 94.01 122.89 C 93.37 120.43 92.56 118.02 91.87 115.58 C 94.92 115.39 97.89 116.72 100.91 116.31 Z" />
<path fill="#000000" opacity="1.00" d=" M 68.92 115.83 C 69.62 113.63 71.20 110.91 73.96 111.62 C 76.96 112.99 74.44 117.68 76.97 119.21 C 79.85 118.56 82.39 116.94 85.16 115.93 C 85.93 118.40 86.24 121.30 84.48 123.45 C 81.55 127.33 77.37 130.32 72.75 131.85 C 71.31 132.25 68.97 132.54 68.41 130.71 C 66.84 125.89 67.41 120.59 68.92 115.83 Z" />
<path fill="#000000" opacity="1.00" d=" M 81.03 133.93 C 84.90 132.03 89.08 129.18 93.60 130.58 C 97.68 131.84 101.81 133.20 105.47 135.44 C 108.35 137.15 108.63 141.03 107.78 143.94 C 107.30 145.64 105.32 145.22 104.03 144.92 C 100.69 144.01 97.58 142.26 94.06 142.01 C 93.99 143.20 94.44 144.10 95.42 144.71 C 100.43 148.38 106.70 149.75 111.83 153.20 C 115.58 156.17 113.84 161.57 114.23 165.67 C 108.50 163.55 103.09 160.13 96.98 159.35 C 94.74 159.37 96.47 162.06 97.23 162.83 C 99.54 165.20 103.31 165.91 104.89 169.02 C 106.55 172.43 107.00 176.34 106.98 180.09 C 106.84 184.52 102.80 187.27 99.59 189.66 C 95.50 192.64 89.85 191.58 85.75 189.17 C 83.26 187.88 80.58 186.05 80.16 183.05 C 79.58 178.89 79.45 174.49 80.78 170.46 C 82.17 166.48 86.81 164.87 88.13 160.84 C 81.15 159.96 76.42 166.56 69.88 167.53 C 69.67 163.83 68.78 159.52 71.25 156.35 C 76.06 150.82 84.68 149.32 88.01 142.44 C 83.30 143.10 79.56 146.40 74.98 147.39 C 73.07 146.52 73.78 143.73 73.67 142.01 C 73.80 137.85 77.83 135.67 81.03 133.93 Z" />
</g>
</svg>
