<?xml version="1.0" encoding="UTF-8" ?>
<!DOCTYPE svg PUBLIC "-//W3C//DTD SVG 1.1//EN" "http://www.w3.org/Graphics/SVG/1.1/DTD/svg11.dtd">
<svg width="1000pt" height="937pt" viewBox="0 0 1000 937" version="1.1" xmlns="http://www.w3.org/2000/svg">
<g id="#ffffffff">
</g>
<g id="#2b182cff">
<path fill="#2b182c" opacity="1.00" d=" M 489.12 138.07 C 491.89 134.40 496.38 131.76 501.09 132.23 C 505.31 132.51 508.93 135.20 511.37 138.50 C 518.12 147.48 524.92 156.43 531.69 165.39 C 537.17 172.44 538.02 182.50 534.68 190.66 C 532.07 196.39 527.34 200.76 524.07 206.09 C 516.12 219.11 513.38 234.89 515.36 249.93 C 515.71 251.88 516.86 254.00 519.00 254.38 C 522.10 253.93 524.13 251.30 525.98 249.04 C 530.77 242.76 535.50 236.44 540.31 230.18 C 544.19 225.18 550.54 221.76 556.98 222.49 C 562.12 222.98 566.53 227.11 567.63 232.11 C 569.08 237.87 567.17 244.05 563.62 248.67 C 551.87 264.17 540.09 279.64 528.32 295.13 C 521.25 303.93 516.02 314.61 514.93 325.93 C 515.30 344.60 524.82 361.15 532.44 377.64 C 537.74 387.75 538.16 400.05 534.80 410.84 C 528.58 425.95 519.95 440.12 515.45 455.91 C 514.57 458.06 514.87 460.32 516.13 462.25 C 518.50 460.95 520.19 458.82 521.34 456.41 C 528.48 442.69 532.51 427.66 538.21 413.34 C 541.48 406.10 547.12 400.11 553.55 395.54 C 558.29 392.10 564.05 390.64 569.45 388.59 C 579.29 384.91 589.52 381.99 598.63 376.60 C 605.34 372.64 612.42 368.36 616.41 361.41 C 620.59 354.28 623.52 346.35 624.65 338.15 C 627.37 318.04 630.16 297.94 632.87 277.83 C 633.51 272.07 636.36 266.35 641.32 263.14 C 645.34 260.36 651.01 260.10 655.13 262.83 C 660.66 266.44 663.15 273.51 662.53 279.92 C 661.56 288.30 660.20 296.64 659.20 305.03 C 659.00 307.93 658.56 311.84 661.50 313.58 C 664.47 314.14 667.00 311.95 669.03 310.09 C 673.50 305.53 678.42 301.28 681.87 295.83 C 686.86 288.03 690.80 279.32 691.93 270.05 C 692.72 265.07 692.78 259.82 695.12 255.24 C 698.79 248.02 705.82 242.26 713.97 241.17 C 725.29 239.58 736.61 238.02 747.93 236.43 C 752.45 235.71 757.55 236.78 760.63 240.38 C 763.89 243.72 764.30 248.75 763.62 253.14 C 762.08 264.10 760.57 275.06 759.03 286.02 C 757.80 295.41 750.51 303.47 741.61 306.38 C 735.43 308.00 728.91 307.87 722.77 309.71 C 712.18 312.88 702.17 318.48 694.56 326.57 C 691.42 329.98 686.93 333.03 686.41 338.01 C 687.14 340.82 690.56 341.26 693.01 341.17 C 702.05 340.29 711.01 338.67 720.04 337.66 C 726.23 337.07 733.06 339.19 736.85 344.35 C 739.72 348.14 740.02 353.59 737.71 357.73 C 734.80 363.09 728.96 366.39 723.02 367.17 C 702.96 369.94 682.90 372.66 662.83 375.39 C 653.83 376.52 645.09 379.72 637.44 384.60 C 631.76 388.22 628.15 394.09 624.66 399.68 C 617.76 410.81 614.42 423.59 609.79 435.73 C 606.41 446.92 597.95 456.29 587.63 461.58 C 573.80 467.20 559.29 471.13 545.86 477.73 C 542.79 479.26 539.46 480.88 537.95 484.18 C 539.87 485.16 541.99 485.54 544.06 484.77 C 555.64 481.64 566.25 475.89 577.10 470.93 C 582.65 468.47 587.97 465.21 594.03 464.12 C 599.20 463.07 604.55 463.06 609.78 463.66 C 618.53 464.70 626.00 469.74 633.95 473.11 C 646.46 479.38 659.87 484.81 674.03 485.22 C 685.40 484.32 696.08 478.96 704.94 471.95 C 720.09 460.39 735.28 448.90 750.43 437.34 C 754.54 434.01 759.72 431.71 765.11 432.14 C 770.58 432.20 776.00 435.95 777.33 441.37 C 779.11 448.33 775.46 455.66 769.95 459.87 C 763.69 464.68 757.36 469.40 751.11 474.21 C 748.82 476.02 746.44 478.10 745.77 481.07 C 746.41 484.36 750.22 485.06 753.03 485.18 C 758.01 485.22 763.01 485.37 767.99 485.02 C 775.72 484.09 783.27 481.70 790.25 478.27 C 796.34 475.33 801.18 470.49 806.82 466.85 C 813.18 463.11 821.21 462.65 828.17 464.91 C 832.11 466.16 835.29 468.89 838.54 471.34 C 846.34 477.27 854.19 483.13 861.99 489.07 C 865.37 491.63 868.05 495.56 867.92 499.95 C 868.15 504.64 865.21 508.78 861.58 511.44 C 854.14 517.06 846.68 522.66 839.25 528.30 C 835.77 530.87 832.45 533.87 828.26 535.23 C 820.39 537.89 811.09 536.88 804.44 531.71 C 799.20 527.78 794.15 523.46 788.06 520.88 C 776.30 515.32 762.94 513.70 750.11 515.40 C 747.98 515.58 746.58 517.24 745.44 518.86 C 746.50 521.20 747.85 523.46 749.94 525.03 C 756.67 530.34 763.62 535.38 770.38 540.67 C 776.09 545.20 779.61 553.34 776.79 560.42 C 774.43 566.15 767.71 568.91 761.84 567.97 C 757.55 567.48 753.63 565.42 750.31 562.74 C 734.76 550.88 719.17 539.07 703.60 527.23 C 696.58 521.68 688.29 517.76 679.58 515.69 C 672.61 513.97 665.42 515.65 658.61 517.31 C 646.33 520.30 635.32 526.68 623.87 531.81 C 611.18 538.73 594.94 538.71 582.30 531.68 C 570.96 526.54 559.95 520.61 548.14 516.61 C 544.90 515.60 541.33 514.12 538.05 515.82 C 539.29 519.52 543.06 521.00 546.23 522.65 C 559.48 529.07 573.76 532.98 587.38 538.48 C 597.75 543.68 606.28 553.01 609.70 564.20 C 615.84 581.01 620.81 599.16 633.50 612.45 C 642.49 620.25 654.41 623.99 666.09 625.23 C 685.40 627.87 704.72 630.44 724.02 633.17 C 732.00 634.38 740.15 641.30 739.18 650.00 C 738.11 658.49 728.82 663.23 720.94 662.58 C 712.19 661.72 703.51 660.17 694.77 659.17 C 691.88 658.96 687.90 658.68 686.47 661.85 C 686.51 666.73 691.03 669.69 694.01 672.97 C 701.73 681.55 712.18 687.35 723.17 690.60 C 730.93 692.94 739.71 691.70 746.79 696.18 C 753.78 700.37 758.78 707.89 759.31 716.10 C 760.74 726.71 762.29 737.31 763.72 747.92 C 764.33 752.25 763.54 757.09 760.25 760.23 C 757.10 763.46 752.31 764.35 747.98 763.73 C 736.63 762.21 725.31 760.56 713.98 759.01 C 705.84 757.90 698.75 752.18 695.13 744.93 C 692.89 740.61 692.75 735.66 692.04 730.96 C 690.96 721.10 686.80 711.82 681.38 703.62 C 678.28 698.83 673.94 695.08 670.00 691.02 C 667.78 688.85 665.21 686.43 661.90 686.44 C 658.91 687.66 658.92 691.32 659.10 694.03 C 659.99 702.77 661.55 711.42 662.52 720.15 C 663.03 725.63 661.41 731.47 657.50 735.45 C 654.16 738.84 648.83 740.28 644.34 738.53 C 637.90 736.20 633.80 729.63 632.98 723.03 C 630.29 703.35 627.59 683.68 624.92 664.00 C 624.36 659.03 623.24 654.12 621.47 649.44 C 618.63 642.02 614.89 634.43 608.16 629.80 C 595.07 619.53 578.84 615.12 563.50 609.46 C 552.63 605.96 543.60 597.57 538.50 587.46 C 532.46 572.71 528.48 557.08 520.90 542.98 C 519.87 540.79 518.09 539.14 516.00 538.00 C 513.99 541.24 515.58 544.91 516.62 548.18 C 520.00 558.37 525.02 567.89 529.48 577.62 C 532.05 583.34 535.39 588.87 536.29 595.19 C 537.55 603.85 537.08 613.10 533.14 621.06 C 525.39 638.03 515.40 654.89 514.93 674.05 C 515.88 685.38 521.17 696.02 528.16 704.84 C 539.99 720.39 551.80 735.96 563.64 751.50 C 567.29 756.28 569.21 762.72 567.47 768.63 C 566.29 772.99 562.59 776.67 558.10 777.49 C 551.53 778.84 544.81 775.46 540.69 770.45 C 536.71 765.37 532.90 760.16 528.96 755.06 C 526.12 751.56 523.72 746.89 518.99 745.73 C 516.74 746.19 515.63 748.46 515.30 750.54 C 513.18 767.52 516.99 785.68 527.74 799.26 C 530.46 802.91 533.68 806.35 535.16 810.75 C 537.86 818.64 536.95 828.04 531.73 834.72 C 524.98 843.64 518.22 852.55 511.51 861.50 C 508.87 865.18 504.69 868.09 500.01 867.95 C 495.32 868.10 491.27 865.07 488.61 861.46 C 482.74 853.60 476.78 845.81 470.88 837.98 C 468.58 834.94 466.07 831.92 464.89 828.24 C 462.38 820.57 463.21 811.57 468.06 804.99 C 471.54 800.15 475.60 795.67 478.24 790.28 C 482.83 780.92 485.72 770.52 485.22 760.03 C 484.96 755.65 486.12 750.57 483.18 746.85 C 480.86 744.42 477.65 747.14 475.98 749.01 C 470.19 755.97 465.05 763.45 459.40 770.53 C 455.48 775.29 449.22 778.48 442.97 777.65 C 438.09 777.10 433.90 773.30 432.65 768.60 C 431.12 762.70 432.78 756.32 436.47 751.56 C 448.01 736.37 459.56 721.20 471.11 706.01 C 478.51 696.89 484.23 685.87 485.22 674.03 C 484.78 659.60 479.12 645.99 472.74 633.26 C 469.56 625.74 464.84 618.70 463.74 610.47 C 462.93 604.67 463.02 598.70 464.32 592.98 C 465.40 587.72 468.22 583.07 470.38 578.22 C 474.99 568.17 480.18 558.35 483.67 547.83 C 484.65 544.65 486.10 541.09 484.14 537.97 C 480.41 539.71 478.88 543.69 477.11 547.11 C 471.82 558.31 468.18 570.18 463.86 581.77 C 460.41 593.20 451.57 602.70 440.89 607.83 C 422.58 615.04 402.25 619.58 387.62 633.62 C 380.17 642.32 376.40 653.73 375.09 664.98 C 372.85 681.73 370.50 698.46 368.24 715.21 C 367.43 722.69 366.60 731.28 360.04 736.16 C 354.35 741.30 344.68 739.74 340.79 733.17 C 334.95 724.77 338.80 714.34 339.64 705.09 C 339.99 699.60 342.26 693.89 340.41 688.48 C 339.29 685.65 335.90 686.32 333.94 687.82 C 322.81 696.56 313.90 708.40 309.91 722.10 C 308.03 728.03 307.96 734.32 306.69 740.37 C 304.21 750.15 295.35 758.07 285.28 759.16 C 274.88 760.59 264.48 762.03 254.09 763.50 C 250.27 764.03 246.10 764.30 242.64 762.28 C 237.90 759.77 235.56 754.09 236.33 748.90 C 237.77 737.57 239.48 726.28 241.00 714.96 C 241.83 706.19 248.01 698.51 255.86 694.84 C 260.31 692.77 265.31 692.72 270.07 691.94 C 278.86 690.88 287.14 687.25 294.63 682.65 C 300.98 678.83 305.94 673.21 311.04 667.94 C 312.71 665.96 315.02 662.69 312.67 660.39 C 309.60 658.21 305.60 659.22 302.14 659.54 C 294.73 660.57 287.34 661.64 279.92 662.53 C 273.08 663.22 265.36 660.31 262.12 653.93 C 259.46 648.78 261.32 642.27 265.47 638.49 C 268.76 635.26 273.21 633.43 277.75 632.91 C 294.46 630.62 311.17 628.37 327.88 626.06 C 334.95 625.01 342.20 624.56 348.97 622.12 C 357.27 619.21 365.78 615.13 370.81 607.57 C 380.69 594.66 385.06 578.82 390.59 563.80 C 393.93 553.12 402.01 544.22 411.78 538.96 C 427.34 532.26 444.20 528.49 458.91 519.89 C 460.77 519.08 463.31 515.57 459.95 514.97 C 455.54 514.93 451.42 516.89 447.32 518.30 C 436.74 522.43 426.66 527.69 416.35 532.42 C 406.48 537.59 394.55 538.14 383.96 535.08 C 369.62 529.54 356.46 520.97 341.42 517.28 C 336.35 516.00 331.17 514.92 325.93 514.94 C 318.94 515.39 312.28 518.00 306.07 521.10 C 300.19 523.98 295.25 528.34 290.02 532.19 C 278.13 541.23 266.23 550.26 254.34 559.31 C 249.47 563.05 244.52 567.47 238.10 568.00 C 230.73 569.33 222.34 563.85 222.39 555.95 C 221.89 547.82 227.83 541.32 234.23 537.22 C 239.84 532.87 245.67 528.78 251.10 524.20 C 252.85 522.55 255.35 519.81 253.64 517.34 C 250.63 514.31 245.89 515.06 242.01 514.85 C 229.45 514.29 216.82 517.63 206.06 524.09 C 199.76 527.89 194.73 534.00 187.34 535.80 C 180.15 537.60 172.00 536.60 165.95 532.11 C 157.16 525.53 148.45 518.83 139.64 512.26 C 136.18 509.81 132.95 506.42 132.34 502.05 C 131.43 497.05 134.10 492.07 138.06 489.14 C 145.67 483.37 153.30 477.62 160.92 471.85 C 164.37 469.27 167.69 466.30 171.87 464.95 C 178.53 462.74 186.16 463.08 192.43 466.35 C 198.02 469.66 202.64 474.40 208.39 477.47 C 214.27 480.62 220.61 482.88 227.14 484.21 C 233.65 485.68 240.37 485.16 246.99 485.18 C 249.77 485.03 253.94 484.44 254.29 480.96 C 253.75 478.19 251.55 476.25 249.48 474.54 C 242.72 469.28 235.74 464.27 229.06 458.89 C 223.14 453.90 219.93 444.38 224.61 437.55 C 228.25 432.29 235.47 431.11 241.30 432.80 C 246.04 434.07 249.75 437.42 253.58 440.29 C 268.96 451.96 284.29 463.70 299.73 475.29 C 309.98 481.98 322.55 487.31 334.96 484.33 C 350.55 481.82 364.30 473.74 378.48 467.33 C 386.62 463.14 396.16 462.52 405.08 463.92 C 411.79 464.90 417.63 468.56 423.74 471.27 C 434.60 476.20 445.22 481.99 456.85 484.94 C 458.62 485.31 462.00 485.83 461.67 483.02 C 460.11 480.59 457.39 479.36 454.94 478.05 C 443.16 472.16 430.48 468.43 418.19 463.79 C 407.03 460.33 397.67 451.79 392.55 441.36 C 388.48 431.30 385.33 420.89 381.25 410.83 C 377.55 402.67 373.11 394.68 367.01 388.06 C 359.65 381.35 349.90 377.73 340.24 375.83 C 320.84 373.11 301.42 370.51 282.01 367.85 C 278.01 367.30 273.83 366.97 270.20 365.04 C 265.85 362.83 262.06 358.93 261.13 354.02 C 260.22 349.95 261.75 345.56 264.72 342.69 C 268.90 338.50 275.19 337.03 280.95 337.74 C 288.98 338.77 297.00 339.97 305.04 340.99 C 307.66 341.32 310.60 341.41 312.81 339.72 C 314.27 338.20 313.61 336.01 312.62 334.45 C 303.36 322.20 290.15 312.68 275.08 309.13 C 269.69 307.87 264.10 307.82 258.74 306.42 C 249.38 303.53 241.89 294.85 240.97 285.01 C 239.49 274.36 238.03 263.72 236.51 253.08 C 235.93 249.36 236.11 245.33 238.19 242.08 C 240.85 237.78 246.19 235.67 251.13 236.34 C 262.45 237.75 273.73 239.50 285.05 241.00 C 295.62 242.01 304.93 250.64 306.95 261.03 C 308.05 267.42 308.30 274.01 310.57 280.14 C 313.95 289.60 319.02 298.68 326.53 305.49 C 329.81 308.46 332.55 312.67 337.13 313.67 C 340.56 313.98 341.39 309.58 341.15 306.99 C 340.24 297.62 338.45 288.35 337.58 278.97 C 336.93 270.88 342.21 261.44 350.99 260.88 C 359.63 260.64 366.13 268.82 367.12 276.85 C 369.91 297.21 372.71 317.59 375.47 337.96 C 376.64 346.61 379.75 354.98 384.36 362.38 C 387.81 367.99 393.49 371.64 398.93 375.09 C 412.21 383.44 427.76 386.77 442.05 392.90 C 452.11 398.12 460.39 407.25 463.78 418.16 C 468.13 429.78 471.76 441.70 477.05 452.95 C 478.75 456.47 480.46 460.34 484.09 462.29 C 484.72 460.62 485.68 458.89 484.97 457.08 C 482.07 445.33 476.17 434.65 471.20 423.69 C 468.72 418.08 465.44 412.74 464.20 406.67 C 463.04 401.25 462.97 395.63 463.67 390.14 C 464.81 381.20 470.04 373.59 473.44 365.43 C 479.40 353.73 484.19 341.17 485.20 327.97 C 485.39 320.97 482.84 314.24 480.00 307.96 C 476.94 301.14 472.01 295.45 467.57 289.52 C 457.21 275.85 446.80 262.21 436.44 248.54 C 433.28 244.43 431.57 239.17 432.21 233.98 C 432.60 228.65 436.67 223.72 441.98 222.70 C 448.72 221.28 455.65 224.85 459.76 230.11 C 464.59 236.34 469.30 242.66 474.07 248.93 C 475.93 251.24 478.02 253.82 481.12 254.38 C 483.13 254.20 484.19 252.21 484.68 250.48 C 486.98 233.89 483.66 216.12 473.59 202.48 C 470.55 198.14 466.56 194.29 464.89 189.14 C 462.31 181.32 463.28 172.07 468.40 165.47 C 475.32 156.34 482.19 147.19 489.12 138.07 M 496.30 162.51 C 488.09 165.82 484.96 175.92 486.23 184.08 C 487.09 190.35 490.75 197.02 497.19 198.89 C 501.98 200.36 507.09 197.78 509.95 193.93 C 515.68 186.22 515.64 174.74 509.88 167.06 C 506.83 163.01 501.22 160.53 496.30 162.51 M 264.45 258.56 C 258.89 260.73 256.45 267.49 257.91 273.02 C 260.17 282.85 269.63 291.23 279.96 290.70 C 286.38 290.45 291.37 284.25 290.71 277.96 C 289.88 265.80 276.66 254.33 264.45 258.56 M 726.27 258.13 C 717.14 260.66 709.60 269.30 709.40 278.93 C 709.20 285.17 714.63 290.82 720.90 290.74 C 732.85 290.82 744.01 279.02 742.38 267.01 C 741.30 259.71 732.92 255.81 726.27 258.13 M 497.36 362.36 C 492.47 365.56 491.22 371.74 488.57 376.60 C 482.75 387.05 482.02 399.98 485.82 411.23 C 487.97 416.30 490.39 421.27 492.78 426.23 C 494.35 429.28 497.15 432.82 501.02 432.19 C 505.10 431.18 507.06 427.06 508.68 423.58 C 511.31 417.48 514.97 411.68 515.97 405.01 C 517.41 396.14 516.68 386.68 512.55 378.60 C 510.28 374.11 508.58 369.31 505.77 365.12 C 504.03 362.46 500.36 360.54 497.36 362.36 M 403.39 401.35 C 399.51 403.59 400.18 408.87 401.55 412.44 C 404.36 419.48 405.98 427.17 410.68 433.30 C 416.02 440.41 423.18 446.46 431.78 449.15 C 436.84 450.71 441.65 453.36 446.98 453.85 C 450.35 454.29 453.83 451.58 453.78 448.09 C 453.91 442.56 450.89 437.65 449.37 432.48 C 446.56 423.12 439.94 415.32 432.02 409.79 C 426.79 406.06 420.41 404.67 414.54 402.31 C 411.04 401.05 406.95 399.44 403.39 401.35 M 589.27 401.06 C 583.34 403.17 577.28 405.03 571.56 407.70 C 562.16 413.02 554.23 421.59 550.94 432.02 C 549.47 436.69 547.19 441.14 546.39 445.99 C 545.83 449.01 547.24 452.63 550.39 453.53 C 554.45 454.60 558.41 452.69 562.17 451.38 C 566.94 449.51 572.01 448.25 576.39 445.50 C 581.84 442.09 586.53 437.50 590.24 432.26 C 593.84 427.25 595.29 421.16 597.51 415.50 C 598.85 411.66 600.87 407.28 598.81 403.33 C 596.91 400.04 592.47 400.07 589.27 401.06 M 386.44 484.67 C 380.29 486.23 374.83 489.62 369.03 492.08 C 365.50 493.73 361.00 496.61 361.74 501.13 C 362.89 505.42 367.32 507.27 370.96 508.99 C 376.43 511.39 381.66 514.56 387.58 515.74 C 392.97 516.82 398.56 516.94 404.00 516.14 C 411.89 515.11 418.71 510.70 425.87 507.58 C 429.59 505.93 433.99 501.76 431.50 497.41 C 428.37 492.48 422.17 491.27 417.36 488.59 C 408.02 483.38 396.78 482.35 386.44 484.67 M 587.41 486.46 C 582.64 488.66 577.83 490.79 573.17 493.20 C 570.38 494.55 568.51 497.10 567.53 499.99 C 569.43 507.21 577.55 508.71 583.26 511.81 C 591.69 516.43 601.67 517.57 611.08 516.02 C 618.50 514.86 624.93 510.73 631.71 507.77 C 635.09 506.21 639.12 503.26 638.39 499.02 C 637.26 494.65 632.67 492.83 628.98 491.07 C 623.41 488.69 618.13 485.37 612.08 484.34 C 603.89 482.86 595.15 483.21 587.41 486.46 M 174.50 486.71 C 169.15 488.04 163.90 491.61 162.26 497.11 C 160.82 501.58 162.99 506.50 166.47 509.40 C 171.83 513.88 179.42 515.18 186.13 513.58 C 191.65 512.32 197.20 508.70 198.83 503.02 C 200.32 498.47 197.99 493.51 194.45 490.61 C 188.96 486.10 181.27 485.16 174.50 486.71 M 813.46 486.74 C 808.17 488.10 802.92 491.61 801.30 497.09 C 799.92 501.33 801.83 506.02 805.01 508.94 C 810.19 513.66 817.77 515.11 824.52 513.74 C 830.24 512.58 836.10 508.97 837.85 503.11 C 839.39 498.55 837.07 493.57 833.54 490.65 C 828.03 486.11 820.26 485.05 813.46 486.74 M 444.49 546.66 C 439.93 547.86 435.60 549.79 431.13 551.26 C 422.60 554.03 415.55 560.22 410.32 567.36 C 406.14 572.92 404.63 579.83 402.09 586.17 C 400.70 589.83 399.26 594.53 402.10 597.88 C 405.07 600.81 409.70 599.64 413.18 598.36 C 419.82 595.73 427.04 594.16 432.87 589.84 C 440.41 584.28 446.72 576.68 449.42 567.59 C 450.95 562.16 454.35 556.96 453.67 551.13 C 453.06 546.93 448.07 545.51 444.49 546.66 M 550.44 546.65 C 546.09 547.89 545.59 553.38 547.00 557.01 C 549.05 562.84 550.90 568.78 553.52 574.39 C 558.95 584.15 567.97 592.18 578.77 595.40 C 584.04 596.93 589.11 600.20 594.78 599.57 C 598.24 599.11 600.18 595.38 599.66 592.15 C 598.80 586.94 596.41 582.16 594.80 577.17 C 592.04 568.62 585.90 561.56 578.80 556.26 C 573.45 552.20 566.81 550.65 560.66 548.25 C 557.41 547.11 553.92 545.65 550.44 546.65 M 498.23 568.25 C 492.69 570.88 491.48 577.58 488.71 582.50 C 481.99 594.72 481.63 610.36 488.16 622.73 C 490.16 626.73 491.69 631.00 494.17 634.76 C 495.76 637.23 498.86 639.41 501.90 638.19 C 505.80 636.63 507.40 632.42 509.10 628.92 C 511.59 623.32 514.83 617.93 515.88 611.82 C 516.98 605.63 516.92 599.20 515.56 593.06 C 514.47 588.09 511.85 583.67 509.82 579.06 C 508.26 575.81 506.98 572.25 504.27 569.75 C 502.70 568.30 500.30 567.23 498.23 568.25 M 272.45 710.61 C 263.96 713.92 256.99 722.56 257.60 731.95 C 257.92 737.82 263.20 742.66 269.05 742.62 C 277.99 742.71 286.05 736.18 289.38 728.14 C 291.37 723.36 291.40 717.27 287.76 713.27 C 284.03 708.95 277.47 708.56 272.45 710.61 M 716.36 710.39 C 711.87 712.27 709.09 717.13 709.41 721.95 C 710.02 731.52 717.70 740.03 726.95 742.20 C 731.87 743.48 737.76 741.98 740.61 737.53 C 743.96 732.56 742.71 725.89 739.81 721.01 C 735.28 713.22 725.44 707.04 716.36 710.39 M 496.35 801.53 C 487.85 804.98 484.77 815.60 486.35 824.00 C 487.40 829.95 491.03 836.14 497.14 837.94 C 502.21 839.48 507.54 836.62 510.36 832.43 C 515.81 824.51 515.50 812.98 509.38 805.52 C 506.34 801.79 500.99 799.70 496.35 801.53 Z" />
</g>
</svg>
