<?xml version="1.0" encoding="UTF-8" ?>
<!DOCTYPE svg PUBLIC "-//W3C//DTD SVG 1.1//EN" "http://www.w3.org/Graphics/SVG/1.1/DTD/svg11.dtd">
<svg width="1250pt" height="1250pt" viewBox="0 0 1250 1250" version="1.1" xmlns="http://www.w3.org/2000/svg">
<g id="#000000ff">
<path fill="#000000" opacity="1.00" d=" M 590.68 0.00 L 598.35 0.00 C 607.89 4.81 617.21 10.07 626.84 14.71 C 636.26 9.79 645.53 4.57 655.13 0.00 L 662.13 0.00 C 660.75 12.34 656.83 24.35 656.86 36.84 C 665.30 46.62 676.39 53.94 683.58 64.81 C 670.94 67.53 658.07 68.91 645.27 70.62 C 640.77 94.80 636.49 119.03 632.11 143.23 C 630.80 150.21 630.09 157.40 627.34 164.01 C 626.06 163.97 625.76 162.53 625.23 161.64 C 622.16 155.10 622.09 147.73 620.65 140.77 C 616.69 117.69 611.60 94.81 608.64 71.57 C 596.09 68.03 582.85 68.26 570.31 64.72 C 576.82 53.63 587.89 46.53 596.31 37.11 C 597.51 35.94 596.67 34.21 596.60 32.79 C 594.56 21.87 593.15 10.83 590.68 0.00 Z" />
<path fill="#000000" opacity="1.00" d=" M 541.19 145.21 C 543.88 145.29 546.89 144.18 549.35 145.66 C 575.03 160.94 600.46 176.65 626.44 191.43 C 652.95 176.93 678.26 160.35 704.57 145.50 C 709.28 142.41 715.35 147.96 714.05 153.00 C 713.10 155.81 711.15 158.13 709.67 160.66 C 691.45 189.71 672.72 218.44 654.59 247.55 C 653.48 249.53 651.79 251.32 651.49 253.65 C 650.54 262.16 652.66 270.95 650.24 279.31 C 647.67 283.26 642.22 282.13 638.85 279.93 C 634.78 265.92 630.37 252.00 626.97 237.81 C 621.88 251.34 619.39 265.72 614.03 279.15 C 611.10 284.85 602.37 281.46 601.47 275.96 C 600.94 267.55 602.92 258.85 600.48 250.63 C 580.32 218.25 559.51 186.25 539.23 153.96 C 538.24 150.91 540.12 147.96 541.19 145.21 Z" />
<path fill="#000000" opacity="1.00" d=" M 194.72 192.35 C 198.54 180.47 201.98 168.48 205.94 156.65 C 208.36 155.87 210.28 157.65 211.49 159.53 C 217.78 168.60 224.15 177.61 230.47 186.66 C 243.44 186.73 256.41 186.11 269.38 186.65 C 265.03 198.27 255.39 206.60 248.89 216.91 C 247.39 218.87 248.91 221.20 250.10 222.87 C 266.44 245.93 282.30 269.34 298.58 292.45 C 300.17 294.56 299.13 297.24 298.75 299.56 C 295.23 296.17 290.97 293.75 287.05 290.90 C 265.92 276.35 244.90 261.64 223.78 247.08 C 220.32 244.67 216.94 248.26 214.29 250.20 C 205.87 256.01 198.51 263.48 189.05 267.67 C 187.85 254.52 189.75 241.31 188.55 228.15 C 178.75 221.06 168.87 214.08 158.91 207.20 C 158.91 206.32 158.89 204.56 158.89 203.68 C 170.84 199.94 182.81 196.22 194.72 192.35 Z" />
<path fill="#000000" opacity="1.00" d=" M 1042.45 159.21 C 1043.72 159.07 1045.02 158.94 1046.33 158.80 C 1050.05 170.75 1053.78 182.69 1057.60 194.61 C 1069.81 198.67 1082.20 202.17 1094.39 206.29 C 1093.17 208.31 1092.06 210.54 1090.00 211.85 C 1081.03 217.94 1072.23 224.27 1063.34 230.47 C 1063.16 243.69 1064.22 256.93 1063.06 270.12 C 1052.24 264.24 1043.22 255.72 1033.04 248.90 C 1031.36 247.45 1029.20 248.64 1027.71 249.72 C 1005.41 265.44 982.88 280.81 960.56 296.50 C 957.98 298.43 954.97 299.70 951.79 300.18 C 952.58 297.41 953.55 294.64 955.28 292.30 C 971.95 268.60 988.33 244.69 1004.94 220.93 C 997.24 210.41 988.24 200.73 982.31 189.03 C 995.44 187.79 1008.68 189.95 1021.79 188.38 C 1028.98 178.92 1035.77 169.07 1042.45 159.21 Z" />
<path fill="#000000" opacity="1.00" d=" M 343.23 226.37 C 346.21 225.92 349.20 225.65 352.21 225.52 C 353.19 226.95 354.45 228.28 354.91 230.00 C 363.60 266.93 371.14 304.13 380.01 341.01 C 384.26 349.57 393.55 354.09 398.55 362.16 C 397.97 364.71 397.30 367.25 396.52 369.75 C 393.57 370.04 390.36 370.96 387.59 369.48 C 375.72 363.27 364.34 356.17 352.34 350.22 C 356.55 358.13 360.95 365.95 365.21 373.83 C 368.44 379.41 373.24 385.06 372.25 391.96 C 372.30 395.11 368.44 395.39 366.36 396.76 C 356.68 393.01 352.32 382.37 343.32 377.73 C 312.88 370.54 282.26 364.10 251.76 357.17 C 243.78 355.26 235.52 354.25 227.97 350.86 C 227.74 347.65 227.87 344.44 228.31 341.26 C 258.57 332.39 289.42 325.77 319.84 317.49 C 327.80 287.16 334.71 256.56 343.23 226.37 Z" />
<path fill="#000000" opacity="1.00" d=" M 899.49 228.49 C 902.31 226.63 905.79 227.97 908.82 228.49 C 912.38 239.17 914.85 250.17 917.56 261.09 C 922.77 280.51 926.99 300.20 932.61 319.52 C 962.73 328.16 993.44 334.57 1023.58 343.17 C 1024.02 346.11 1024.33 349.08 1024.55 352.06 C 1022.86 353.39 1021.19 354.93 1018.97 355.22 C 982.98 363.53 946.81 371.02 910.87 379.56 C 909.06 380.08 906.94 380.12 905.57 381.56 C 899.19 387.58 894.05 395.28 885.81 398.98 C 884.12 398.04 882.42 397.10 880.74 396.17 C 880.12 394.09 878.28 391.85 879.69 389.71 C 885.62 376.89 893.64 365.17 899.68 352.40 C 892.40 356.18 885.30 360.27 878.06 364.12 C 871.85 367.71 865.66 373.19 857.97 372.17 C 854.82 372.21 854.59 368.30 853.26 366.22 C 857.20 356.63 867.72 352.17 872.38 343.16 C 880.17 308.80 887.70 274.36 895.38 239.97 C 896.31 236.03 896.76 231.68 899.49 228.49 Z" />
<path fill="#000000" opacity="1.00" d=" M 504.76 238.68 C 507.47 234.28 513.75 233.20 517.98 236.01 C 554.26 257.51 590.40 279.24 626.61 300.85 C 662.94 279.12 699.26 257.37 735.62 235.70 C 739.58 233.46 745.11 234.39 748.02 237.92 C 750.77 241.65 750.01 246.94 747.60 250.65 C 720.39 293.44 693.14 336.21 665.88 378.97 C 664.06 382.09 661.27 385.06 661.35 388.89 C 661.35 399.83 661.43 410.77 661.40 421.71 C 658.97 423.87 656.99 426.65 654.16 428.27 C 648.60 428.45 643.20 424.53 641.96 419.05 C 637.29 401.20 631.56 383.65 626.89 365.80 C 620.10 384.69 616.19 404.50 609.20 423.32 C 606.54 428.66 599.47 428.21 594.75 426.24 C 587.94 414.25 593.83 400.26 591.31 387.47 C 590.72 383.71 588.10 380.81 586.24 377.63 C 559.74 335.56 532.90 293.71 506.20 251.77 C 503.81 248.00 501.45 242.64 504.76 238.68 Z" />
<path fill="#000000" opacity="1.00" d=" M 430.58 266.41 C 432.84 265.53 435.10 264.67 437.38 263.82 C 439.48 264.69 441.64 265.44 443.63 266.58 C 445.64 268.51 446.44 271.34 447.04 273.98 C 457.74 321.48 468.11 369.04 478.72 416.55 C 479.73 420.72 479.93 425.17 482.10 428.97 C 488.23 440.14 501.21 445.59 506.83 457.13 C 509.54 463.45 502.54 471.03 495.97 468.97 C 490.22 467.30 485.32 463.66 480.06 460.93 C 467.61 454.03 454.91 447.56 442.88 439.94 C 451.11 457.06 460.99 473.31 469.92 490.06 C 471.04 493.26 473.36 497.72 470.33 500.51 C 467.61 503.84 462.80 506.98 458.56 504.38 C 448.51 498.00 442.10 487.45 432.59 480.41 C 430.40 478.72 427.52 478.63 424.95 477.95 C 375.62 466.93 326.29 455.91 276.93 445.02 C 273.58 444.24 269.87 443.10 267.90 440.05 C 265.88 436.37 266.18 431.32 269.35 428.36 C 271.88 425.63 275.79 425.36 279.18 424.43 C 303.45 418.20 327.76 412.11 352.06 406.00 C 367.08 402.08 382.26 398.71 397.17 394.39 C 406.66 355.24 416.82 316.25 426.45 277.12 C 427.31 273.37 428.84 269.82 430.58 266.41 Z" />
<path fill="#000000" opacity="1.00" d=" M 806.01 273.10 C 807.54 267.12 815.76 264.68 820.57 268.33 C 823.33 270.31 824.20 273.78 825.08 276.87 C 835.30 316.79 844.96 356.85 855.38 396.71 C 896.45 407.57 937.79 417.35 978.86 428.17 C 985.90 429.75 987.19 439.76 982.48 444.43 C 979.91 447.10 975.92 446.90 972.58 447.80 C 924.16 458.74 875.62 469.13 827.23 480.23 C 824.44 480.98 821.28 481.02 819.01 483.01 C 810.07 490.01 803.70 499.85 794.24 506.25 C 789.15 509.62 782.18 505.50 780.89 500.00 C 779.72 496.00 782.51 492.46 784.12 489.05 C 792.45 473.58 801.02 458.23 809.73 442.98 C 797.24 448.78 785.53 456.07 773.37 462.52 C 766.42 466.10 759.94 471.12 751.98 472.18 C 749.35 469.92 746.83 467.54 744.43 465.05 C 744.88 462.48 744.91 459.74 746.18 457.40 C 753.24 447.57 764.14 441.03 770.62 430.75 C 782.77 378.29 793.89 325.57 806.01 273.10 Z" />
<path fill="#000000" opacity="1.00" d=" M 624.52 407.11 C 624.70 405.30 626.44 404.39 627.59 403.21 C 634.76 434.08 639.13 465.51 645.24 496.59 C 657.43 498.31 669.70 499.67 681.80 502.00 C 682.39 503.69 682.42 505.80 683.96 507.00 C 690.30 512.44 697.32 517.02 704.00 522.03 C 727.86 505.18 752.03 488.78 775.88 471.91 C 777.94 470.37 780.38 469.50 782.83 468.78 C 782.67 471.95 781.43 474.94 779.50 477.44 C 762.85 500.87 746.90 524.78 730.09 548.10 C 737.00 557.91 744.51 567.28 751.51 577.03 C 748.68 587.19 752.68 597.38 753.35 607.54 C 782.54 613.57 811.99 618.23 841.27 623.83 C 843.65 624.11 845.45 625.74 847.08 627.37 C 839.60 630.09 831.65 630.97 823.88 632.49 C 800.40 636.71 776.92 640.94 753.46 645.23 C 751.59 657.37 750.48 669.64 747.97 681.67 C 746.22 682.26 744.05 682.33 742.87 683.93 C 737.72 690.47 732.89 697.25 727.99 703.97 C 743.41 726.22 759.13 748.27 774.27 770.72 C 776.77 774.58 779.60 778.25 781.65 782.39 C 778.50 782.99 775.51 781.74 773.07 779.86 C 749.46 763.09 725.38 746.98 701.88 730.07 C 691.98 736.79 683.05 744.85 672.90 751.22 C 662.71 749.10 652.60 752.49 642.47 753.30 C 636.41 782.50 631.77 811.96 626.17 841.24 C 625.93 843.64 624.29 845.41 622.55 846.91 C 615.13 816.04 610.95 784.53 604.76 753.41 C 592.56 751.44 580.15 750.61 568.11 747.79 C 567.54 746.14 567.74 743.97 566.14 742.90 C 559.54 737.78 552.79 732.86 546.02 727.97 C 522.10 744.79 498.03 761.39 473.99 778.06 C 471.96 779.46 469.74 780.54 467.50 781.56 C 467.07 778.45 468.26 775.51 470.14 773.09 C 486.91 749.49 502.98 725.39 519.91 701.90 C 513.01 692.09 505.53 682.72 498.51 673.01 C 501.28 662.84 497.38 652.64 496.67 642.49 C 467.24 636.28 437.50 631.74 407.99 625.97 C 405.87 625.69 404.45 623.99 403.02 622.60 C 406.63 621.32 410.35 620.35 414.12 619.70 C 441.62 614.76 469.11 609.80 496.58 604.77 C 498.29 592.55 499.75 580.29 501.99 568.16 C 503.70 567.56 505.87 567.57 507.06 565.99 C 512.47 559.66 517.07 552.69 522.04 546.02 C 505.19 522.08 488.67 497.92 471.86 473.95 C 470.45 471.90 469.41 469.63 468.81 467.22 C 472.04 467.07 474.88 468.66 477.40 470.49 C 499.02 485.62 520.76 500.57 542.37 515.73 C 544.79 517.29 547.93 519.93 550.83 517.85 C 559.96 512.05 567.74 504.34 577.06 498.79 C 587.26 500.74 597.37 497.56 607.51 496.76 C 614.00 467.03 617.91 436.81 624.52 407.11 M 580.76 514.85 C 580.61 522.10 580.49 529.36 580.46 536.62 C 585.09 539.93 589.76 543.21 594.50 546.38 C 595.37 541.17 596.30 535.98 597.13 530.78 C 591.62 525.52 586.05 520.33 580.76 514.85 M 656.46 531.21 C 656.86 536.71 657.76 542.14 658.56 547.59 C 663.10 544.89 667.58 542.06 671.77 538.85 C 671.71 531.33 671.69 523.81 671.42 516.30 C 666.30 521.13 660.83 525.65 656.46 531.21 M 593.97 569.47 C 587.33 566.33 580.95 571.29 574.58 572.71 C 571.38 583.41 568.24 594.13 564.73 604.73 C 563.71 607.78 560.48 609.20 558.72 611.74 C 556.31 615.32 554.51 619.28 552.68 623.18 C 557.56 634.52 564.23 644.96 569.52 656.11 C 566.45 662.70 571.31 669.02 572.72 675.34 C 583.37 678.66 594.11 681.72 604.70 685.24 C 608.08 686.23 609.35 690.03 612.30 691.69 C 615.86 693.84 619.70 695.49 623.31 697.55 C 634.30 692.04 644.98 685.95 656.03 680.57 C 662.66 683.47 668.99 678.75 675.33 677.32 C 678.80 666.42 681.75 655.36 685.56 644.58 C 686.72 641.92 689.62 640.65 691.24 638.31 C 693.64 634.70 695.47 630.75 697.32 626.83 C 692.44 615.48 685.79 605.02 680.50 593.88 C 683.51 587.39 678.73 581.19 677.50 574.93 C 666.00 570.65 653.89 568.17 642.51 563.53 C 641.51 561.92 640.88 559.85 639.03 559.03 C 634.98 556.77 630.81 554.73 626.80 552.42 C 615.77 557.94 605.04 564.02 593.97 569.47 M 516.18 578.55 C 521.15 583.59 525.58 589.20 531.24 593.52 C 536.73 593.24 542.14 592.20 547.58 591.40 C 544.88 586.90 542.13 582.43 538.93 578.28 C 531.34 578.26 523.76 578.36 516.18 578.55 M 703.61 594.56 C 708.82 595.43 714.01 596.37 719.24 597.11 C 724.51 591.60 729.73 586.04 735.20 580.72 C 727.76 580.57 720.33 580.43 712.89 580.64 C 709.83 585.30 706.75 589.95 703.61 594.56 M 514.87 669.28 C 522.15 669.38 529.44 669.47 536.74 669.53 C 540.05 664.95 543.13 660.21 546.23 655.49 C 541.11 654.68 536.03 653.66 530.93 652.83 C 525.58 658.32 520.30 663.88 514.87 669.28 M 702.42 658.60 C 705.13 663.12 707.94 667.58 711.17 671.76 C 718.73 671.71 726.29 671.59 733.85 671.42 C 728.86 666.40 724.43 660.79 718.74 656.52 C 713.24 656.68 707.84 657.79 702.42 658.60 M 578.20 711.24 C 578.30 718.73 578.32 726.23 578.60 733.72 C 583.58 728.82 589.29 724.55 593.34 718.80 C 593.53 713.28 592.03 707.83 591.40 702.37 C 586.88 705.14 582.37 707.95 578.20 711.24 M 655.54 703.71 C 654.61 708.84 653.65 713.98 652.87 719.14 C 658.39 724.47 664.02 729.68 669.28 735.28 C 669.43 727.81 669.55 720.35 669.36 712.88 C 664.77 709.79 660.06 706.90 655.54 703.71 Z" />
<path fill="#000000" opacity="1.00" d=" M 237.88 502.02 C 241.40 499.44 246.42 499.78 250.01 502.04 C 295.20 530.48 339.95 559.65 385.32 587.78 C 397.37 589.90 409.70 587.81 421.84 588.76 C 427.60 591.69 429.30 599.53 425.87 604.87 C 422.58 606.18 419.43 607.88 416.01 608.82 C 399.21 613.46 382.57 618.69 365.72 623.15 C 384.22 629.46 403.30 633.91 421.85 640.05 C 429.15 642.19 429.81 653.89 422.94 656.98 C 410.26 661.35 396.40 655.29 383.81 659.90 C 340.00 687.28 296.74 715.54 252.87 742.84 C 250.34 744.31 248.00 746.34 245.07 746.93 C 238.17 747.93 232.01 739.50 235.22 733.27 C 257.10 696.55 279.17 659.94 300.89 623.13 C 279.05 587.20 257.63 551.03 236.08 514.93 C 233.51 510.94 234.22 505.10 237.88 502.02 Z" />
<path fill="#000000" opacity="1.00" d=" M 995.79 507.81 C 998.94 505.85 1002.05 503.22 1005.97 503.21 C 1011.53 502.75 1016.63 508.49 1015.38 513.96 C 1014.71 517.55 1012.48 520.54 1010.69 523.65 C 991.09 556.43 971.48 589.21 951.87 622.00 C 950.65 624.10 949.17 626.86 950.80 629.17 C 971.85 664.74 993.22 700.12 1014.31 735.65 C 1016.50 739.42 1014.86 743.85 1013.51 747.60 C 1010.81 748.71 1007.99 749.86 1005.02 749.67 C 1001.67 749.60 999.06 747.26 996.35 745.64 C 954.32 719.02 912.47 692.11 870.36 665.62 C 867.76 664.11 865.39 661.79 862.22 661.76 C 850.90 660.62 839.54 661.83 828.20 661.34 C 825.56 658.77 821.70 656.20 822.10 652.01 C 821.75 646.53 827.09 643.08 831.74 641.77 C 849.40 637.12 866.75 631.39 884.45 626.89 C 866.64 620.77 848.31 616.32 830.32 610.77 C 827.57 609.82 824.67 608.46 823.25 605.76 C 820.32 600.88 823.39 593.49 829.00 592.30 C 840.55 589.75 852.47 593.42 864.02 590.91 C 866.44 590.41 868.38 588.77 870.45 587.53 C 912.28 561.03 954.02 534.41 995.79 507.81 Z" />
<path fill="#000000" opacity="1.00" d=" M 145.53 545.54 C 142.41 540.85 147.86 534.57 152.97 535.93 C 155.56 536.83 157.73 538.58 160.07 539.98 C 188.07 557.60 215.95 575.43 243.84 593.23 C 246.24 594.73 248.47 596.58 251.15 597.60 C 260.37 600.98 270.67 596.10 279.71 600.23 C 283.55 602.72 281.85 607.94 279.95 611.14 C 266.18 615.32 252.34 619.24 238.48 623.13 C 250.83 627.84 263.82 630.53 276.34 634.73 C 277.93 635.32 279.71 635.85 280.78 637.29 C 283.49 640.63 281.95 646.38 277.85 647.80 C 268.92 649.95 259.42 646.78 250.62 649.55 C 220.11 668.62 189.87 688.14 159.44 707.34 C 157.32 708.57 155.43 710.33 153.04 711.05 C 150.20 711.36 147.66 709.76 145.16 708.67 C 145.24 705.80 144.17 702.56 146.00 700.05 C 160.54 676.15 174.75 652.04 189.15 628.06 C 190.26 626.06 192.03 623.60 190.59 621.33 C 175.62 596.03 160.24 570.98 145.53 545.54 Z" />
<path fill="#000000" opacity="1.00" d=" M 1095.56 539.53 C 1100.88 536.41 1107.76 543.38 1104.86 548.68 C 1089.93 572.89 1075.69 597.53 1060.88 621.81 C 1059.77 623.83 1057.99 626.33 1059.40 628.65 C 1074.35 653.67 1089.29 678.70 1104.28 703.68 C 1105.84 707.03 1104.51 710.76 1102.83 713.78 C 1099.74 713.69 1096.34 714.29 1093.61 712.50 C 1061.90 692.16 1030.01 672.08 998.32 651.73 C 989.48 650.41 980.24 652.53 971.41 650.51 C 966.72 648.48 967.62 642.31 970.06 638.84 C 983.72 634.74 997.49 631.00 1011.11 626.75 C 998.40 621.77 984.85 619.42 972.11 614.55 C 966.60 613.14 966.52 604.61 971.55 602.53 C 980.58 599.68 990.36 603.31 999.37 600.49 C 1031.54 580.35 1063.47 559.79 1095.56 539.53 Z" />
<path fill="#000000" opacity="1.00" d=" M 35.73 593.18 C 46.89 585.94 53.37 573.38 64.80 566.43 C 67.47 579.07 68.92 591.93 70.60 604.73 C 94.58 609.09 118.55 613.46 142.55 617.70 C 150.04 619.13 157.76 619.92 164.81 623.02 C 158.09 627.42 149.89 627.72 142.24 629.16 C 119.54 633.27 96.84 637.36 74.14 641.46 C 72.21 641.66 70.59 643.18 70.44 645.14 C 68.32 656.52 67.43 668.10 65.22 679.48 C 62.81 678.49 60.29 677.52 58.45 675.58 C 50.86 668.18 44.15 659.88 35.92 653.15 C 23.87 654.72 11.90 656.89 0.00 659.32 L 0.00 651.68 C 4.40 641.95 10.87 633.22 14.20 623.01 C 10.26 613.21 4.16 604.48 0.00 594.79 L 0.00 587.87 C 11.95 589.32 23.70 592.79 35.73 593.18 Z" />
<path fill="#000000" opacity="1.00" d=" M 1185.27 569.94 C 1196.25 576.98 1203.63 588.05 1213.29 596.62 C 1225.20 596.31 1236.64 592.49 1248.48 591.51 C 1250.13 604.96 1239.24 614.88 1235.63 626.97 C 1240.20 638.56 1249.57 648.78 1249.13 661.92 C 1237.25 660.57 1225.68 657.09 1213.70 656.67 C 1205.80 663.09 1199.55 671.21 1192.20 678.20 C 1190.05 680.21 1187.94 682.74 1184.71 682.61 C 1182.74 670.20 1180.95 657.76 1179.44 645.29 C 1154.27 640.65 1129.08 636.09 1103.88 631.62 C 1097.74 630.25 1091.15 630.22 1085.62 626.89 C 1090.46 622.75 1097.18 622.88 1103.10 621.69 C 1127.89 617.31 1152.60 612.63 1177.40 608.36 C 1178.57 607.58 1179.51 606.36 1179.65 604.92 C 1181.70 593.29 1182.30 581.41 1185.27 569.94 Z" />
<path fill="#000000" opacity="1.00" d=" M 456.33 743.31 C 462.80 740.00 470.98 747.18 469.10 754.04 C 467.77 757.78 465.61 761.16 463.84 764.71 C 456.04 778.89 448.40 793.18 440.13 807.10 C 448.15 803.30 455.92 798.99 463.71 794.74 C 475.06 788.98 485.35 780.72 497.98 777.85 C 500.62 779.97 503.08 782.32 505.33 784.86 C 505.13 787.15 504.94 789.45 504.77 791.75 C 497.79 800.07 489.65 807.31 482.08 815.08 C 480.12 816.85 478.99 819.30 478.54 821.88 C 467.49 872.32 456.13 922.69 445.06 973.12 C 444.17 977.09 442.37 981.92 437.92 982.95 C 433.17 984.61 427.63 981.76 426.04 977.04 C 415.26 935.79 405.46 894.27 394.43 853.09 C 353.11 842.44 311.66 832.23 270.32 821.65 C 266.70 820.06 265.12 816.14 263.53 812.81 C 264.69 810.05 265.97 807.22 268.23 805.19 C 270.28 803.05 273.45 803.18 276.11 802.48 C 324.24 791.66 372.44 781.17 420.58 770.41 C 424.32 769.47 428.55 769.37 431.61 766.72 C 435.09 763.85 437.87 760.25 441.22 757.24 C 446.18 752.53 450.32 746.79 456.33 743.31 Z" />
<path fill="#000000" opacity="1.00" d=" M 778.01 751.51 C 780.23 749.18 782.46 746.84 784.85 744.68 C 787.72 745.16 791.24 744.29 793.49 746.61 C 801.38 753.38 807.87 761.61 815.83 768.32 C 817.10 769.34 818.35 770.57 820.03 770.94 C 872.29 782.75 924.68 794.03 976.92 806.00 C 985.25 807.92 985.43 822.04 976.93 823.87 C 935.79 834.90 894.30 844.58 853.13 855.51 C 844.50 889.38 835.95 923.27 827.45 957.18 C 824.90 966.01 823.83 975.40 819.44 983.60 C 817.19 984.48 814.93 985.32 812.67 986.15 C 810.56 985.26 808.37 984.51 806.37 983.41 C 804.36 981.48 803.60 978.63 803.02 976.01 C 793.39 933.15 783.81 890.29 774.41 847.38 C 772.32 838.52 770.56 829.56 768.16 820.79 C 761.41 811.07 751.12 804.48 744.10 794.97 C 740.43 789.95 743.99 782.01 749.96 780.91 C 753.89 780.18 757.60 782.13 760.92 783.99 C 776.27 792.71 792.02 800.73 807.12 809.90 C 801.09 796.96 793.58 784.79 786.86 772.22 C 783.44 765.55 778.41 759.29 778.01 751.51 Z" />
<path fill="#000000" opacity="1.00" d=" M 588.67 828.19 C 591.18 825.48 593.86 821.95 597.97 822.09 C 602.68 821.77 606.32 825.89 607.58 830.08 C 612.82 848.14 618.24 866.15 623.13 884.31 C 629.72 865.56 633.82 846.03 640.50 827.32 C 642.78 821.45 650.38 821.57 655.26 823.78 C 661.31 836.11 656.69 850.09 658.95 863.09 C 659.28 866.12 661.36 868.48 662.88 871.00 C 689.87 913.67 717.04 956.23 744.13 998.85 C 745.97 1001.80 747.59 1005.37 746.60 1008.91 C 745.23 1012.46 741.86 1015.45 737.93 1015.53 C 734.29 1015.81 731.29 1013.50 728.34 1011.77 C 693.26 991.02 658.39 969.92 623.32 949.14 C 587.07 970.99 550.67 992.60 514.34 1014.32 C 509.37 1017.15 501.52 1014.68 500.48 1008.65 C 499.37 1004.12 501.81 999.90 504.29 996.34 C 530.76 954.80 557.21 913.25 583.69 871.72 C 585.68 868.36 588.70 865.18 588.60 861.03 C 588.65 850.08 588.60 839.14 588.67 828.19 Z" />
<path fill="#000000" opacity="1.00" d=" M 341.69 869.72 C 350.37 865.10 354.57 854.66 364.04 851.24 C 368.25 851.74 372.60 856.81 369.98 861.00 C 364.01 873.46 356.48 885.10 350.36 897.50 C 358.54 892.93 366.87 888.64 375.02 884.02 C 380.28 881.20 385.51 876.63 391.90 877.69 C 394.93 877.87 395.75 881.51 396.59 883.87 C 393.05 893.29 382.69 897.42 378.03 906.06 C 376.39 909.08 376.20 912.58 375.46 915.89 C 368.75 947.32 361.31 978.59 354.77 1010.06 C 353.71 1013.96 353.18 1018.30 350.51 1021.52 C 347.64 1023.33 344.18 1021.96 341.14 1021.44 C 332.44 991.25 325.64 960.55 317.54 930.20 C 288.42 922.51 259.09 915.61 229.96 907.96 C 227.16 907.17 225.85 904.32 224.20 902.20 C 225.25 899.32 226.68 895.88 229.96 895.06 C 264.62 887.15 299.38 879.65 334.04 871.75 C 336.59 871.11 339.26 870.81 341.69 869.72 Z" />
<path fill="#000000" opacity="1.00" d=" M 877.82 858.05 C 877.82 854.89 881.60 854.55 883.71 853.24 C 892.65 857.20 897.76 866.06 905.13 871.90 C 941.65 880.41 978.33 888.26 1014.92 896.47 C 1017.28 897.06 1019.73 897.81 1021.55 899.52 C 1023.25 902.36 1021.98 905.76 1021.65 908.81 C 991.41 917.67 960.59 924.27 930.19 932.50 C 922.18 962.86 915.26 993.50 906.76 1023.73 C 902.93 1024.85 897.06 1025.34 895.27 1020.83 C 887.01 985.31 879.54 949.60 871.28 914.07 C 870.63 911.46 870.33 908.63 868.67 906.43 C 863.45 899.08 854.65 894.62 851.15 886.00 C 852.11 884.09 852.73 881.94 854.11 880.31 C 856.80 879.65 859.87 879.04 862.43 880.52 C 874.30 886.66 885.65 893.80 897.62 899.76 C 893.55 892.07 889.25 884.50 885.18 876.81 C 881.84 871.02 876.76 865.20 877.82 858.05 Z" />
<path fill="#000000" opacity="1.00" d=" M 285.98 955.92 C 289.75 953.24 293.79 950.95 298.04 949.15 C 297.33 952.12 296.70 955.24 294.81 957.73 C 279.25 979.62 264.13 1001.82 248.68 1023.79 C 247.56 1025.72 245.26 1028.00 246.65 1030.36 C 253.19 1040.96 262.28 1049.83 267.98 1060.99 C 254.70 1061.75 241.41 1060.84 228.12 1061.10 C 221.41 1071.30 214.06 1081.05 207.16 1091.12 C 205.95 1091.03 204.75 1090.96 203.55 1090.91 C 199.84 1079.04 196.36 1067.11 192.47 1055.31 C 180.13 1051.20 167.57 1047.78 155.28 1043.54 C 163.90 1033.31 176.38 1027.74 186.71 1019.56 C 186.78 1006.28 185.91 992.99 186.86 979.73 C 197.76 985.73 206.79 994.45 217.26 1001.10 C 219.38 1002.84 221.60 1000.47 223.46 999.46 C 244.25 984.87 265.23 970.55 285.98 955.92 Z" />
<path fill="#000000" opacity="1.00" d=" M 949.63 951.95 C 952.25 952.52 954.94 953.23 957.14 954.87 C 980.32 971.01 1003.45 987.24 1026.76 1003.20 C 1030.16 1005.07 1033.15 1001.49 1035.76 999.77 C 1044.17 993.96 1051.52 986.52 1060.95 982.29 C 1062.17 995.46 1060.21 1008.69 1061.45 1021.86 C 1071.30 1028.92 1081.18 1035.93 1091.16 1042.81 C 1091.07 1044.02 1090.99 1045.24 1090.94 1046.48 C 1079.03 1050.02 1067.20 1053.85 1055.35 1057.56 C 1051.43 1069.47 1048.03 1081.55 1044.02 1093.43 C 1042.22 1093.67 1040.35 1093.14 1039.37 1091.55 C 1032.72 1082.16 1026.15 1072.72 1019.52 1063.32 C 1006.32 1063.10 993.10 1064.23 979.92 1063.06 C 985.68 1052.16 994.29 1043.20 1001.12 1033.02 C 1002.66 1031.07 1001.02 1028.75 999.88 1027.09 C 985.22 1006.37 970.95 985.36 956.36 964.59 C 953.53 960.73 950.57 956.75 949.63 951.95 Z" />
<path fill="#000000" opacity="1.00" d=" M 599.26 970.15 C 602.86 967.79 609.19 966.58 611.30 971.46 C 615.84 984.67 619.25 998.25 623.19 1011.65 C 627.92 998.69 630.77 985.15 635.26 972.12 C 636.72 967.02 644.89 966.27 647.13 971.12 C 651.33 980.97 645.05 992.60 650.96 1002.00 C 670.88 1033.08 690.64 1064.28 710.45 1095.44 C 712.07 1098.55 709.84 1101.87 708.80 1104.81 C 705.86 1104.73 702.53 1105.86 699.97 1103.96 C 675.24 1088.99 650.41 1074.19 625.55 1059.46 C 623.58 1057.95 621.28 1059.48 619.49 1060.48 C 594.87 1075.20 570.32 1090.04 545.56 1104.50 C 542.46 1106.49 539.14 1103.90 536.29 1102.69 C 536.35 1099.64 535.62 1096.23 537.57 1093.60 C 556.70 1063.38 576.12 1033.35 595.04 1003.00 C 596.43 1000.58 598.58 998.33 598.50 995.37 C 598.97 986.97 598.24 978.52 599.26 970.15 Z" />
<path fill="#000000" opacity="1.00" d=" M 622.56 1086.24 C 623.85 1085.74 624.25 1087.24 624.85 1088.07 C 626.89 1091.80 627.06 1096.15 627.87 1100.24 C 632.00 1126.24 638.01 1151.92 641.20 1178.06 C 653.80 1183.02 668.17 1180.31 680.45 1186.42 C 671.54 1195.67 662.20 1204.50 653.00 1213.45 C 654.48 1225.22 657.20 1236.81 658.44 1248.62 C 645.10 1249.77 635.04 1239.55 623.16 1235.49 C 611.59 1240.28 601.31 1249.41 588.17 1249.29 C 589.49 1238.09 592.05 1227.07 593.44 1215.89 C 594.01 1213.25 591.86 1211.38 590.16 1209.80 C 583.50 1203.44 576.71 1197.21 570.28 1190.63 C 568.63 1189.10 567.82 1186.99 567.01 1184.97 C 579.49 1182.52 592.14 1181.13 604.74 1179.40 C 609.37 1154.48 613.69 1129.50 618.30 1104.57 C 619.57 1098.44 619.71 1091.93 622.56 1086.24 Z" />
</g>
<g id="#ffffffff">
</g>
</svg>
