<?xml version="1.0" encoding="UTF-8" ?>
<!DOCTYPE svg PUBLIC "-//W3C//DTD SVG 1.1//EN" "http://www.w3.org/Graphics/SVG/1.1/DTD/svg11.dtd">
<svg width="236pt" height="254pt" viewBox="0 0 236 254" version="1.1" xmlns="http://www.w3.org/2000/svg">
<g id="#fefefeff">
</g>
<g id="#343434ff">
<path fill="#343434" opacity="1.00" d=" M 115.48 2.60 C 117.32 1.95 119.31 2.44 121.21 2.49 C 123.52 5.46 124.45 9.37 127.14 12.04 C 130.22 13.55 134.50 11.20 137.17 13.88 C 139.08 15.63 138.36 18.52 137.35 20.55 C 135.59 22.76 132.38 23.54 131.19 26.24 C 130.12 28.59 129.23 31.39 130.51 33.84 C 131.20 35.82 133.76 36.16 135.46 35.36 C 138.78 31.48 138.47 25.42 142.79 22.25 C 145.17 23.43 147.28 25.07 149.66 26.25 C 152.18 26.31 154.60 25.21 157.13 25.49 C 160.23 27.55 158.58 31.40 156.71 33.66 C 154.54 36.16 155.42 39.47 156.37 42.27 C 155.32 44.09 154.45 46.67 152.01 46.91 C 149.16 46.74 146.79 44.95 144.07 44.31 C 137.84 43.98 131.10 46.14 127.42 51.45 C 121.81 58.14 121.20 69.80 128.50 75.49 C 131.04 78.01 136.50 75.99 135.47 72.10 C 135.12 67.97 131.04 62.10 136.04 59.30 C 139.10 59.58 140.94 62.64 143.94 63.16 C 147.35 60.51 148.01 54.34 153.04 54.08 C 155.76 53.60 156.16 56.52 156.73 58.48 C 158.70 57.66 161.48 56.89 162.45 59.49 C 164.01 64.05 159.86 67.88 158.66 72.04 C 161.26 73.51 163.98 74.78 166.56 76.30 C 165.92 77.95 165.77 80.16 163.89 80.92 C 160.46 82.40 156.69 82.97 153.31 84.63 C 153.31 86.59 152.59 89.10 154.54 90.42 C 158.32 93.25 163.62 92.64 167.70 90.75 C 173.29 88.25 176.99 82.75 178.55 76.98 C 179.45 72.43 178.23 67.76 176.18 63.69 C 174.63 60.33 170.26 59.53 168.70 56.17 C 168.61 54.20 169.81 52.53 170.62 50.83 C 172.39 50.30 174.21 49.87 175.86 49.03 C 178.55 47.20 178.69 43.24 181.51 41.56 C 182.74 41.36 183.99 41.38 185.24 41.33 C 186.24 43.57 187.07 45.88 187.83 48.22 C 190.09 50.05 194.81 50.40 194.71 54.00 C 193.52 57.99 189.72 60.45 187.70 63.99 C 186.73 65.84 188.26 67.35 189.16 68.83 C 193.10 69.16 196.50 66.51 198.13 63.07 C 198.88 60.62 198.26 57.83 199.63 55.56 C 200.72 54.05 202.55 53.38 204.09 52.44 C 207.77 53.62 209.30 57.29 210.87 60.46 C 215.18 62.06 219.81 60.15 224.15 61.75 C 224.93 63.73 226.30 65.87 225.33 68.04 C 223.91 71.05 221.86 73.72 220.53 76.78 C 222.00 79.79 224.79 82.61 224.32 86.19 C 223.30 88.59 220.45 89.76 217.98 89.45 C 216.21 88.90 214.58 88.00 212.84 87.38 C 208.75 86.33 204.37 88.33 202.41 92.06 C 203.22 93.23 203.79 94.65 205.02 95.47 C 209.39 96.21 213.65 93.57 218.00 94.54 C 220.97 95.26 219.43 98.97 219.71 101.12 C 218.92 105.00 225.13 106.64 223.59 110.62 C 222.89 113.56 219.19 112.70 216.97 112.78 C 212.86 112.05 210.46 116.15 207.01 117.56 C 205.43 116.78 203.88 115.96 202.42 114.99 C 201.91 111.41 202.12 107.36 199.60 104.47 C 196.46 100.08 191.72 96.45 186.12 96.35 C 178.01 95.23 168.92 99.83 166.61 108.01 C 165.65 110.85 167.34 115.16 170.88 114.57 C 174.16 113.62 175.96 110.35 178.58 108.38 C 180.12 106.69 182.54 107.35 184.53 107.51 C 184.80 110.52 184.55 113.52 184.44 116.53 C 187.74 117.39 191.17 117.17 194.52 117.69 C 195.99 118.29 197.84 119.23 197.80 121.09 C 198.24 122.95 196.48 124.02 195.39 125.16 C 197.21 126.51 198.86 129.01 197.11 131.13 C 193.73 134.25 188.61 132.78 184.46 133.72 C 184.21 137.12 186.69 143.96 180.93 143.42 C 176.65 141.57 174.37 136.96 169.94 135.29 C 167.80 136.84 165.55 139.07 166.56 142.00 C 168.68 151.13 179.45 155.86 188.10 153.85 C 193.78 153.04 198.08 148.61 200.97 143.94 C 202.70 140.71 200.72 135.35 204.88 133.71 C 208.56 132.26 210.94 135.58 213.62 137.36 C 217.00 138.29 222.17 135.87 223.85 140.14 C 224.19 143.31 221.07 145.25 219.54 147.65 C 219.74 150.27 219.88 152.90 219.65 155.53 C 214.24 157.49 208.80 153.52 203.40 155.53 C 203.39 157.29 202.58 159.56 204.22 160.85 C 206.71 162.99 210.58 164.27 213.69 162.76 C 215.40 162.05 217.09 161.32 218.83 160.69 C 220.02 161.05 221.21 161.41 222.41 161.74 C 223.36 162.98 224.74 164.22 224.42 165.96 C 223.50 168.80 221.78 171.28 220.48 173.94 C 221.96 176.86 223.98 179.47 225.35 182.44 C 226.28 184.45 224.93 186.51 224.33 188.40 C 220.25 190.20 215.80 189.02 211.52 189.42 C 209.86 191.83 208.73 194.65 206.55 196.66 C 204.70 198.37 201.84 197.32 200.35 195.65 C 197.34 192.86 199.80 187.98 196.75 185.19 C 194.70 182.29 189.49 179.61 187.41 183.91 C 187.25 189.90 195.76 192.34 194.63 198.68 C 192.46 199.83 190.04 200.57 188.09 202.07 C 187.07 204.09 186.46 206.29 185.65 208.39 C 185.00 208.65 183.70 209.15 183.05 209.41 C 182.09 208.99 181.13 208.58 180.18 208.17 C 178.96 205.96 178.04 203.53 176.32 201.64 C 174.50 200.60 172.42 200.14 170.45 199.46 C 169.51 197.32 167.63 194.73 169.76 192.67 C 172.47 190.09 176.32 188.32 177.26 184.35 C 182.12 174.30 175.32 161.39 164.80 158.64 C 161.12 157.87 156.48 157.68 153.81 160.83 C 152.57 162.39 153.42 164.42 153.64 166.17 C 158.15 168.21 164.62 167.70 166.75 173.07 C 164.96 175.71 161.84 176.60 159.08 177.85 C 159.05 182.65 164.62 186.39 162.33 191.33 C 161.23 193.60 158.53 192.43 156.66 192.15 C 156.74 194.70 154.74 197.37 151.94 196.40 C 148.05 194.55 146.64 190.05 144.02 186.92 C 141.01 188.26 138.55 191.51 134.94 190.71 C 134.54 190.05 133.74 188.72 133.34 188.05 C 133.47 183.53 136.90 179.05 134.51 174.68 C 133.83 174.41 132.47 173.87 131.79 173.60 C 126.30 174.89 123.19 180.67 123.20 186.00 C 122.67 192.07 125.73 197.88 130.03 201.97 C 133.08 204.62 137.15 205.56 141.05 206.13 C 145.04 207.07 148.23 203.65 152.07 203.37 C 154.20 204.07 155.23 206.18 156.40 207.90 C 155.70 210.64 154.31 213.94 156.49 216.38 C 158.35 218.56 159.45 221.28 158.38 224.11 C 157.75 224.36 156.49 224.86 155.86 225.11 C 153.64 224.78 151.36 223.94 149.11 224.43 C 147.20 225.40 145.53 226.79 143.77 228.00 C 137.79 225.98 139.01 218.17 134.92 214.24 C 133.34 214.73 131.80 215.36 130.31 216.09 C 130.13 218.69 129.82 221.48 131.02 223.91 C 132.46 227.42 137.44 228.00 138.21 231.96 C 138.61 234.15 137.88 237.66 135.08 237.63 C 132.29 237.86 129.48 237.90 126.72 238.41 C 125.29 240.81 124.08 243.35 122.65 245.75 C 121.16 248.78 116.66 249.08 114.27 247.00 C 112.13 244.46 111.65 240.84 109.12 238.57 C 106.19 237.14 102.75 238.37 99.70 237.31 C 96.70 235.22 97.45 230.14 100.46 228.40 C 103.05 226.69 105.63 224.53 105.94 221.21 C 107.20 218.00 105.06 214.69 101.77 214.13 C 97.35 217.35 98.14 223.77 94.30 227.32 C 90.77 228.98 88.67 223.57 85.13 224.37 C 82.68 224.38 78.38 226.22 77.42 222.82 C 76.07 218.99 81.04 216.71 80.70 213.03 C 80.56 210.31 79.22 206.89 81.79 204.84 C 85.14 201.39 89.22 206.09 92.96 206.34 C 97.08 205.94 101.43 205.31 104.90 202.88 C 110.06 198.89 113.42 192.38 112.88 185.79 C 112.74 180.88 110.21 175.14 105.04 173.82 C 103.21 173.53 101.90 175.19 100.44 175.99 C 100.47 180.97 104.15 186.04 101.35 190.82 C 97.68 191.51 95.24 188.47 92.33 186.87 C 89.42 189.90 88.09 194.52 84.13 196.42 C 81.11 197.40 79.67 194.52 79.32 192.05 C 77.24 192.82 74.25 193.31 73.48 190.56 C 71.97 185.85 77.32 182.46 76.92 177.78 C 74.93 176.89 72.86 176.17 70.99 175.05 C 69.19 173.46 70.17 170.14 72.37 169.40 C 75.54 168.06 78.99 167.56 82.17 166.23 C 82.63 165.06 83.09 163.90 83.54 162.73 C 81.13 157.56 74.56 157.41 69.86 159.05 C 63.45 161.47 58.89 167.55 57.39 174.12 C 56.70 178.80 58.15 183.56 60.45 187.59 C 62.48 190.66 68.28 191.67 67.22 196.18 C 66.64 199.96 62.56 200.51 59.59 201.53 C 57.71 204.50 56.72 208.51 52.97 209.67 C 49.63 208.41 49.13 204.77 48.04 201.84 C 45.59 200.28 40.59 199.80 41.47 195.90 C 42.98 191.98 47.08 189.74 48.54 185.80 C 49.28 183.99 47.73 182.39 46.27 181.61 C 43.10 181.17 40.63 183.63 38.86 185.91 C 37.01 188.17 37.59 191.24 37.29 193.93 C 35.50 195.59 33.73 198.13 30.92 197.54 C 27.71 195.88 26.57 192.11 24.54 189.34 C 19.91 188.65 13.19 191.61 10.67 186.12 C 9.30 181.37 14.29 178.24 15.36 174.02 C 14.34 170.56 11.74 167.69 11.45 163.96 C 13.09 162.57 14.90 161.40 16.85 160.51 C 20.47 161.46 23.93 164.50 27.81 163.01 C 30.50 162.50 32.49 160.58 33.53 158.11 C 33.16 157.42 32.42 156.03 32.06 155.33 C 26.99 153.51 21.57 157.87 16.76 155.23 C 15.14 152.31 17.98 148.33 15.16 145.85 C 13.14 143.93 11.75 141.58 12.47 138.70 C 15.12 137.29 18.08 137.50 20.97 137.55 C 23.68 137.59 25.28 134.99 27.16 133.45 C 29.30 133.42 31.38 133.84 33.36 134.64 C 33.96 137.54 34.13 140.52 34.90 143.37 C 37.47 148.03 41.52 152.43 46.92 153.60 C 53.23 155.27 60.49 153.81 65.29 149.28 C 67.75 146.82 69.99 143.58 69.65 139.93 C 69.76 137.72 67.49 136.60 66.14 135.25 C 61.66 136.92 59.46 141.73 55.07 143.47 C 53.84 143.27 52.63 142.97 51.44 142.57 C 51.37 139.60 51.58 136.63 51.52 133.66 C 47.41 132.75 42.23 134.26 38.98 131.03 C 37.15 128.90 39.03 126.51 40.73 125.06 C 39.01 123.93 37.48 121.92 38.61 119.83 C 41.77 115.89 47.41 118.03 51.66 116.53 C 51.60 113.55 51.37 110.57 51.50 107.59 C 53.31 107.56 55.47 106.65 57.03 107.96 C 59.74 110.18 62.08 112.83 64.93 114.91 C 66.78 114.40 69.03 113.85 69.49 111.66 C 70.40 107.59 67.91 103.61 65.04 100.94 C 60.16 96.35 52.90 95.44 46.57 96.84 C 42.13 98.00 38.83 101.48 36.09 104.98 C 33.74 107.89 34.62 111.93 33.33 115.25 C 30.56 118.40 25.43 116.77 23.53 113.39 C 20.30 112.36 16.82 113.34 13.61 112.33 C 10.12 109.20 14.28 105.56 16.51 103.25 C 16.70 100.51 15.36 97.35 16.99 94.90 C 21.63 93.10 26.40 96.29 31.14 95.47 C 32.33 94.64 32.84 93.19 33.64 92.03 C 31.33 87.24 25.00 85.82 20.58 88.48 C 17.63 90.39 13.22 89.39 11.68 86.16 C 11.52 83.40 13.23 81.14 14.45 78.83 C 16.80 75.17 12.44 71.96 11.16 68.74 C 8.99 65.76 11.51 61.25 15.02 61.00 C 18.32 60.38 22.28 62.59 25.09 60.13 C 27.10 57.24 28.40 53.56 32.09 52.40 C 34.70 53.75 37.81 55.62 37.40 59.07 C 37.11 63.32 40.06 67.40 44.10 68.62 C 46.31 69.42 48.99 67.59 48.68 65.18 C 47.44 60.72 42.42 58.38 41.39 53.84 C 41.29 49.90 47.04 50.58 48.38 47.49 C 49.27 45.43 50.06 43.32 51.12 41.33 C 52.50 41.37 53.88 41.42 55.26 41.47 C 56.50 43.41 57.57 45.44 58.75 47.41 C 60.01 49.81 63.04 49.92 65.32 50.74 C 66.30 52.43 67.48 54.17 67.40 56.22 C 65.24 60.05 59.83 61.15 58.98 65.92 C 53.86 76.11 60.93 89.54 71.86 91.92 C 76.15 93.20 82.14 92.06 83.48 87.16 C 83.21 86.50 82.65 85.20 82.37 84.55 C 79.23 83.02 75.83 82.11 72.43 81.38 C 71.59 80.29 70.14 79.46 70.06 77.96 C 69.67 73.91 75.56 74.74 76.86 71.88 C 76.86 67.92 72.80 65.10 73.22 60.98 C 73.16 58.84 75.30 57.95 76.94 57.24 C 77.69 57.75 78.44 58.26 79.19 58.78 C 79.90 56.85 80.16 53.74 82.94 54.09 C 88.93 53.80 88.36 63.32 94.08 62.89 C 95.87 61.53 97.49 59.06 100.04 59.45 C 103.75 60.79 102.46 65.27 101.60 68.09 C 101.13 70.43 99.51 73.45 101.65 75.40 C 102.76 76.69 104.59 76.40 106.09 76.73 C 110.67 73.63 113.44 68.30 113.12 62.75 C 112.55 56.36 109.05 50.06 103.52 46.68 C 98.92 44.56 93.18 43.05 88.45 45.64 C 86.35 46.70 83.20 47.82 81.53 45.47 C 79.40 43.50 80.46 40.46 80.66 37.99 C 81.21 35.30 78.94 33.31 77.86 31.10 C 76.50 29.22 77.37 26.46 79.34 25.40 C 81.90 25.19 84.40 26.48 86.92 26.05 C 89.05 24.87 91.01 23.41 93.15 22.25 C 97.40 24.94 97.23 30.42 99.76 34.29 C 100.70 36.39 104.37 36.36 105.30 34.25 C 107.07 31.77 106.01 28.63 104.84 26.15 C 103.56 23.51 100.45 22.65 98.68 20.47 C 97.66 18.46 97.15 15.69 98.86 13.91 C 101.54 11.19 105.79 13.48 108.91 12.00 C 111.92 9.49 112.15 4.81 115.48 2.60 M 111.78 27.08 C 112.48 32.26 115.24 36.83 117.98 41.16 C 120.91 37.26 123.12 32.78 124.25 28.02 C 125.03 23.49 122.28 18.78 117.92 17.25 C 114.14 18.96 111.42 22.85 111.78 27.08 M 24.91 71.05 C 22.97 74.98 26.02 79.35 29.39 81.31 C 34.29 83.68 39.89 83.50 45.19 83.36 C 42.55 78.18 39.58 72.41 34.11 69.76 C 31.12 68.87 27.29 68.69 24.91 71.05 M 199.33 71.36 C 195.69 74.64 192.95 78.86 190.98 83.33 C 195.90 83.51 201.04 83.69 205.69 81.82 C 209.14 80.38 212.04 76.86 211.77 72.98 C 211.74 71.30 210.24 70.08 208.83 69.47 C 205.61 68.87 201.88 69.04 199.33 71.36 M 95.35 97.56 C 98.13 102.77 103.51 105.77 108.41 108.69 C 108.65 103.11 108.48 97.15 105.65 92.17 C 104.05 89.28 100.39 87.67 97.21 88.77 C 94.54 90.73 93.70 94.68 95.35 97.56 M 130.30 92.38 C 127.53 97.28 127.56 103.20 127.70 108.68 C 132.49 105.74 137.85 102.91 140.64 97.80 C 142.49 94.88 141.51 90.77 138.85 88.70 C 135.55 87.72 131.88 89.35 130.30 92.38 M 76.51 123.38 C 75.20 126.33 77.64 129.41 80.28 130.50 C 86.93 132.41 93.31 128.39 98.79 125.10 C 93.90 122.42 88.77 119.25 82.99 119.43 C 80.28 119.35 77.82 121.09 76.51 123.38 M 137.29 125.15 C 142.30 128.23 147.88 131.51 154.00 130.84 C 156.97 130.74 159.83 128.11 159.95 125.11 C 159.63 121.72 156.23 119.34 152.96 119.42 C 147.21 119.30 142.16 122.49 137.29 125.15 M 127.69 141.94 C 127.47 147.05 127.66 152.39 129.82 157.11 C 131.02 159.95 133.88 162.20 137.08 161.89 C 141.31 162.03 142.45 156.23 140.93 153.14 C 138.22 147.81 132.77 144.67 127.69 141.94 M 94.90 153.99 C 93.72 156.71 95.38 159.38 96.70 161.68 C 99.50 162.02 102.81 162.13 104.66 159.57 C 108.62 154.69 108.52 147.87 108.42 141.91 C 103.15 144.80 97.20 148.08 94.90 153.99 M 30.42 168.61 C 25.95 170.30 22.47 175.99 25.54 180.39 C 28.44 181.14 31.65 182.09 34.47 180.51 C 39.73 177.87 42.40 172.23 45.21 167.37 C 40.28 166.98 35.13 166.86 30.42 168.61 M 190.99 167.32 C 193.09 171.29 195.26 175.35 198.56 178.47 C 201.91 181.70 207.85 182.67 211.37 179.16 C 212.93 174.78 209.56 170.19 205.61 168.51 C 200.95 166.85 195.86 167.01 190.99 167.32 M 111.71 223.97 C 111.84 227.84 114.56 233.19 119.07 232.57 C 122.62 230.95 124.90 226.81 124.29 222.94 C 123.49 217.85 120.78 213.35 118.06 209.07 C 115.17 213.63 112.25 218.50 111.71 223.97 Z" />
</g>
</svg>
