<?xml version="1.0" encoding="UTF-8" ?>
<!DOCTYPE svg PUBLIC "-//W3C//DTD SVG 1.1//EN" "http://www.w3.org/Graphics/SVG/1.1/DTD/svg11.dtd">
<svg width="1172pt" height="1172pt" viewBox="0 0 1172 1172" version="1.1" xmlns="http://www.w3.org/2000/svg">
<g id="#000000ff">
<path fill="#000000" opacity="1.00" d=" M 680.00 53.00 C 691.01 29.30 712.20 12.07 735.00 0.31 C 726.00 14.80 720.29 31.25 718.12 48.16 C 715.04 71.48 717.69 95.12 722.17 118.07 C 727.93 147.94 736.83 177.09 742.62 206.95 C 772.34 186.97 804.39 170.60 833.17 149.22 C 849.25 137.20 864.36 123.47 875.79 106.84 C 884.23 94.66 890.38 80.90 893.74 66.46 C 899.56 84.96 902.73 104.67 899.98 124.02 C 897.75 140.37 890.95 156.00 880.81 169.00 C 868.52 185.07 852.24 197.56 835.22 208.27 C 806.80 225.95 775.95 239.18 746.33 254.65 C 745.62 260.56 744.67 266.45 743.05 272.19 C 776.53 254.12 812.93 242.04 845.81 222.79 C 860.57 214.12 874.61 203.90 886.10 191.12 C 895.49 180.75 902.93 168.62 907.77 155.48 C 911.18 174.39 911.64 194.25 905.84 212.74 C 901.17 227.96 892.01 241.59 880.33 252.31 C 867.49 264.23 852.08 272.94 836.27 280.27 C 815.80 289.66 794.36 296.63 773.11 304.00 C 753.32 310.86 733.34 317.66 715.01 327.95 C 705.46 333.30 696.54 339.99 689.58 348.50 C 689.46 342.78 689.84 337.05 690.88 331.43 C 687.69 336.01 683.99 340.22 679.96 344.07 C 681.77 326.16 676.35 308.56 669.89 292.08 C 654.94 254.79 633.44 220.33 620.98 182.01 C 614.93 163.34 611.23 143.44 613.91 123.81 C 615.97 108.26 622.46 93.43 632.10 81.09 C 640.48 70.26 650.90 61.15 662.12 53.37 C 651.65 75.76 650.08 101.37 654.26 125.49 C 661.73 169.75 683.47 209.70 696.15 252.44 C 699.09 247.33 702.50 242.52 706.27 238.00 C 694.82 200.78 679.44 164.55 672.98 125.96 C 668.93 101.66 669.24 75.63 680.00 53.00 M 702.29 283.95 C 702.81 291.59 702.60 299.30 701.19 306.84 C 705.52 300.51 710.85 294.92 716.65 289.91 C 716.43 284.47 715.86 279.04 715.00 273.66 C 710.61 276.90 706.26 280.21 702.29 283.95 Z" />
<path fill="#000000" opacity="1.00" d=" M 436.26 1.06 C 458.64 12.58 479.44 29.35 490.62 52.38 C 501.76 74.80 502.42 100.83 498.53 125.13 C 492.28 164.23 476.63 200.86 465.10 238.52 C 468.88 243.04 472.24 247.92 475.15 253.05 C 486.56 214.78 505.05 178.87 514.26 139.90 C 519.28 118.74 521.23 96.40 516.27 75.04 C 514.65 67.83 512.14 60.85 509.16 54.11 C 525.90 65.71 541.08 80.51 549.83 99.14 C 557.25 114.60 559.45 132.18 557.67 149.13 C 555.51 170.54 548.05 190.95 539.61 210.60 C 530.08 232.38 518.96 253.42 509.02 275.01 C 499.27 296.92 489.10 320.23 491.30 344.77 C 487.15 340.85 483.40 336.52 480.16 331.82 C 481.14 337.33 481.48 342.93 481.40 348.52 C 471.28 336.05 457.07 327.86 442.71 321.19 C 421.02 311.22 398.11 304.34 375.67 296.31 C 350.37 287.45 324.88 277.79 302.83 262.22 C 286.02 250.39 271.93 233.90 265.57 214.12 C 259.32 195.27 259.69 174.87 263.20 155.51 C 269.01 171.31 278.65 185.58 290.75 197.24 C 309.84 215.77 333.68 228.30 357.55 239.49 C 381.04 250.40 405.21 259.90 428.02 272.24 C 426.50 266.56 425.50 260.76 424.98 254.91 C 400.46 241.97 375.09 230.69 350.85 217.20 C 334.14 207.82 317.86 197.35 303.88 184.16 C 289.67 170.81 278.11 154.09 273.20 135.04 C 267.17 112.45 270.25 88.46 277.22 66.47 C 281.26 83.95 289.51 100.34 300.71 114.33 C 318.90 137.13 343.15 154.01 367.65 169.36 C 387.94 182.10 408.86 193.82 428.74 207.20 C 434.41 178.08 443.04 149.62 448.76 120.50 C 453.96 94.40 456.95 67.25 451.83 40.88 C 449.14 26.79 443.80 13.25 436.26 1.06 M 456.32 273.92 C 455.47 279.30 454.88 284.72 454.63 290.16 C 460.38 295.21 465.71 300.79 469.99 307.16 C 468.68 299.60 468.45 291.89 469.01 284.25 C 465.03 280.50 460.71 277.16 456.32 273.92 Z" />
<path fill="#000000" opacity="1.00" d=" M 570.40 115.40 C 575.77 120.61 581.19 125.86 585.51 132.00 C 589.43 125.35 595.37 120.16 600.81 114.77 C 594.07 136.96 596.12 160.94 603.29 182.74 C 615.61 220.61 639.14 253.26 656.16 288.95 C 664.02 305.83 670.82 324.08 669.64 343.00 C 668.93 356.24 663.35 368.85 655.12 379.12 C 654.27 360.01 645.05 342.68 635.50 326.58 C 619.55 300.54 600.87 276.24 585.79 249.65 C 576.28 266.76 565.15 282.88 554.16 299.05 C 543.65 314.81 532.75 330.46 524.79 347.73 C 520.07 357.80 516.62 368.62 516.15 379.80 C 507.50 369.14 501.91 355.82 501.54 342.00 C 500.88 323.52 507.58 305.80 515.28 289.31 C 532.36 253.61 555.92 220.92 568.14 182.97 C 575.19 161.28 577.18 137.43 570.40 115.40 Z" />
<path fill="#000000" opacity="1.00" d=" M 263.24 242.25 C 271.56 257.73 284.12 270.69 298.79 280.28 C 320.10 294.25 344.56 302.28 368.85 309.36 C 390.53 315.73 412.59 321.04 433.63 329.42 C 448.82 335.56 463.88 343.61 474.50 356.42 C 482.62 366.07 487.22 378.32 488.56 390.79 C 476.16 379.45 459.97 373.62 444.03 369.23 C 412.34 360.77 379.55 357.23 347.99 348.21 C 355.21 373.44 359.06 399.45 364.47 425.09 C 367.45 438.92 370.79 452.77 376.21 465.89 C 379.76 474.50 384.50 482.69 390.80 489.60 C 376.22 488.10 362.03 481.87 351.76 471.28 C 338.95 458.34 331.58 441.25 325.55 424.35 C 312.43 386.45 305.88 346.02 286.65 310.42 C 276.45 291.38 261.47 274.53 242.27 264.28 C 249.71 264.07 257.20 264.17 264.59 265.20 C 262.71 257.72 263.23 249.89 263.24 242.25 Z" />
<path fill="#000000" opacity="1.00" d=" M 859.67 287.66 C 879.49 277.41 897.18 262.11 907.73 242.21 C 907.91 249.67 907.84 257.17 906.80 264.58 C 914.28 262.73 922.09 263.22 929.73 263.25 C 917.72 269.79 907.06 278.76 898.53 289.45 C 887.35 303.33 879.55 319.58 873.26 336.17 C 865.42 356.93 860.08 378.51 853.81 399.78 C 848.74 417.45 843.14 435.16 834.23 451.33 C 827.63 463.15 818.58 474.01 806.62 480.66 C 798.83 485.09 790.06 487.52 781.20 488.57 C 792.53 476.17 798.37 460.00 802.76 444.06 C 811.22 412.36 814.76 379.56 823.79 347.99 C 799.24 355.02 773.94 358.85 748.97 364.04 C 735.45 366.88 721.94 370.07 709.02 375.03 C 699.35 378.75 690.08 383.78 682.40 390.80 C 683.86 376.67 689.72 362.89 699.76 352.73 C 712.13 339.97 728.70 332.48 745.14 326.44 C 783.10 312.93 823.72 306.56 859.67 287.66 Z" />
<path fill="#000000" opacity="1.00" d=" M 957.01 265.86 C 976.09 259.33 996.84 259.60 1016.48 263.22 C 1001.54 268.68 987.98 277.61 976.71 288.79 C 958.57 306.71 946.00 329.28 935.10 352.10 C 923.02 377.27 913.07 403.44 899.76 428.02 C 905.43 426.50 911.24 425.51 917.09 424.98 C 930.49 399.60 942.09 373.29 956.24 348.31 C 965.49 332.10 975.85 316.34 988.83 302.84 C 999.91 291.37 1013.08 281.62 1028.12 276.04 C 1052.95 266.53 1080.67 269.27 1105.53 277.22 C 1089.00 281.05 1073.43 288.60 1059.99 298.92 C 1040.89 313.50 1025.78 332.56 1012.49 352.41 C 995.75 377.32 981.55 403.83 964.79 428.74 C 992.42 434.11 1019.44 442.16 1047.00 447.85 C 1071.92 453.06 1097.65 456.50 1123.06 453.16 C 1139.98 450.98 1156.45 445.28 1170.95 436.27 C 1162.85 451.84 1152.51 466.52 1139.02 477.89 C 1125.22 489.70 1107.91 497.17 1089.94 499.56 C 1066.47 502.76 1042.73 498.71 1020.01 492.85 C 990.68 485.15 962.43 474.01 933.47 465.10 C 928.94 468.89 924.07 472.27 918.91 475.15 C 946.57 483.34 972.88 495.34 1000.12 504.73 C 1022.60 512.58 1046.00 518.97 1069.97 519.15 C 1086.42 519.34 1102.91 516.01 1117.89 509.16 C 1103.64 529.95 1083.81 548.32 1058.97 554.99 C 1032.40 562.35 1004.38 556.18 979.17 546.78 C 955.13 537.86 932.40 525.89 909.31 514.82 C 894.79 507.84 880.10 501.10 864.72 496.20 C 852.64 492.44 839.92 490.00 827.23 491.30 C 831.14 487.15 835.47 483.41 840.16 480.16 C 834.66 481.14 829.06 481.48 823.48 481.40 C 837.11 470.31 845.61 454.46 852.64 438.67 C 866.96 405.55 875.76 370.33 890.53 337.38 C 897.69 321.46 906.17 305.90 917.78 292.75 C 928.31 280.68 941.77 271.00 957.01 265.86 M 864.84 469.99 C 872.40 468.68 880.11 468.45 887.77 469.00 C 891.49 465.02 894.84 460.70 898.09 456.32 C 892.70 455.47 887.28 454.89 881.84 454.63 C 876.79 460.38 871.21 465.71 864.84 469.99 Z" />
<path fill="#000000" opacity="1.00" d=" M 155.52 264.23 C 178.38 260.02 203.00 260.42 224.28 270.69 C 243.68 279.85 258.49 296.46 269.29 314.67 C 284.55 340.49 293.71 369.22 303.49 397.40 C 310.51 417.69 317.42 438.21 327.96 457.01 C 333.31 466.55 340.00 475.47 348.50 482.42 C 342.79 482.53 337.06 482.15 331.43 481.12 C 336.02 484.31 340.22 488.01 344.08 492.04 C 326.45 490.25 309.09 495.50 292.84 501.81 C 255.27 516.75 220.62 538.46 182.04 551.00 C 162.78 557.26 142.15 561.01 121.93 557.80 C 105.63 555.32 90.30 547.85 77.77 537.22 C 68.39 529.34 60.35 519.96 53.40 509.90 C 76.23 520.55 102.37 521.97 126.91 517.50 C 170.63 509.79 210.16 488.40 252.44 475.85 C 247.33 472.92 242.53 469.49 237.99 465.74 C 215.04 472.88 192.49 481.25 169.52 488.37 C 147.90 494.97 125.70 500.52 103.00 501.35 C 83.71 502.07 63.91 498.54 47.01 488.91 C 26.26 477.28 11.11 457.84 0.32 437.00 C 15.33 446.33 32.44 452.10 49.98 454.11 C 77.46 457.38 105.10 452.87 131.90 446.95 C 156.99 441.38 181.71 434.27 206.95 429.37 C 189.10 402.81 174.13 374.44 155.91 348.12 C 140.38 325.79 122.07 304.49 98.22 290.78 C 88.34 285.05 77.58 280.89 66.47 278.25 C 90.84 270.47 117.91 267.66 142.39 276.52 C 166.48 285.02 185.36 303.70 199.85 324.17 C 222.09 355.72 236.80 391.62 254.64 425.66 C 260.55 426.39 266.45 427.32 272.19 428.95 C 258.64 403.95 248.59 377.28 236.22 351.72 C 224.27 326.86 210.11 302.20 188.96 284.00 C 179.10 275.49 167.73 268.76 155.52 264.23 M 273.65 456.99 C 276.90 461.37 280.20 465.73 283.95 469.71 C 291.60 469.18 299.31 469.41 306.86 470.81 C 300.50 466.49 294.92 461.14 289.91 455.35 C 284.46 455.56 279.03 456.14 273.65 456.99 Z" />
<path fill="#000000" opacity="1.00" d=" M 557.55 320.48 C 566.95 310.20 576.71 300.24 585.95 289.80 C 599.11 304.69 613.56 318.45 625.91 334.04 C 634.14 344.58 641.63 356.39 643.65 369.85 C 645.14 379.17 643.27 388.73 639.46 397.28 C 634.90 383.43 625.17 372.14 614.92 362.11 C 605.66 352.88 595.73 344.35 586.04 335.58 C 573.90 346.57 561.39 357.20 550.18 369.15 C 542.40 377.61 535.14 387.06 531.89 398.27 C 526.86 387.34 525.53 374.62 529.32 363.10 C 534.56 346.57 546.21 333.19 557.55 320.48 Z" />
<path fill="#000000" opacity="1.00" d=" M 546.81 389.82 C 556.64 374.99 571.95 365.20 586.17 355.03 C 599.91 364.90 614.65 374.45 624.24 388.76 C 630.54 397.89 632.55 409.63 629.92 420.38 C 620.09 403.79 602.15 394.92 586.27 385.21 C 569.97 395.21 551.33 404.13 541.31 421.26 C 538.82 410.57 540.60 398.94 546.81 389.82 Z" />
<path fill="#000000" opacity="1.00" d=" M 376.54 376.60 C 400.04 378.12 423.81 376.92 447.05 381.35 C 461.27 384.11 475.73 390.53 484.13 402.87 C 486.77 406.56 488.71 410.69 490.40 414.89 C 480.30 409.50 468.74 407.83 457.44 407.35 C 441.06 406.49 424.68 408.64 408.35 408.54 C 409.34 410.91 408.56 413.54 408.57 416.02 C 407.71 433.90 406.06 451.91 408.31 469.76 C 409.29 477.28 411.34 484.70 414.90 491.43 C 405.55 487.95 397.03 481.92 391.42 473.59 C 383.51 462.02 380.73 447.87 379.29 434.17 C 377.35 415.04 377.74 395.78 376.54 376.60 Z" />
<path fill="#000000" opacity="1.00" d=" M 735.95 379.50 C 755.69 377.32 775.59 377.79 795.40 376.53 C 793.91 399.70 795.03 423.11 790.84 446.04 C 788.22 460.14 782.23 474.55 770.32 483.26 C 766.31 486.32 761.75 488.55 757.09 490.41 C 762.58 480.18 764.20 468.44 764.67 456.99 C 765.26 440.91 763.82 424.86 763.12 408.82 C 741.70 408.27 720.09 405.37 698.78 408.85 C 692.43 409.92 686.26 411.92 680.56 414.91 C 683.97 405.79 689.76 397.43 697.81 391.84 C 708.93 383.98 722.64 381.02 735.95 379.50 Z" />
<path fill="#000000" opacity="1.00" d=" M 556.54 417.61 C 564.97 409.79 576.04 405.94 586.62 402.03 C 597.48 406.02 608.90 410.33 616.88 419.10 C 621.76 424.33 624.23 431.33 624.86 438.37 C 614.53 428.79 600.23 425.75 586.97 422.49 C 572.90 426.14 557.54 428.89 546.41 439.03 C 547.05 430.96 550.47 423.07 556.54 417.61 Z" />
<path fill="#000000" opacity="1.00" d=" M 422.78 422.58 C 439.80 419.74 457.36 416.03 474.55 419.68 C 485.16 421.87 494.35 428.78 500.08 437.88 C 481.37 433.04 462.33 439.40 444.20 443.85 C 439.74 462.45 432.90 481.89 437.89 501.11 C 428.74 495.38 421.84 486.15 419.66 475.51 C 415.96 457.92 419.93 439.99 422.78 422.58 Z" />
<path fill="#000000" opacity="1.00" d=" M 696.49 419.66 C 714.09 415.96 732.01 419.93 749.42 422.78 C 751.60 435.43 753.98 448.16 753.83 461.05 C 753.70 470.11 752.09 479.46 747.16 487.22 C 743.93 492.50 739.20 496.65 734.11 500.07 C 738.95 481.35 732.63 462.27 728.10 444.15 C 709.49 439.77 690.09 432.88 670.89 437.89 C 676.62 428.74 685.86 421.84 696.49 419.66 Z" />
<path fill="#000000" opacity="1.00" d=" M 558.38 445.31 C 566.53 439.02 576.93 437.18 586.70 434.86 C 595.74 436.42 605.03 438.83 612.55 444.32 C 617.85 448.13 621.18 454.07 622.64 460.35 C 612.50 453.34 599.70 452.62 587.82 451.44 C 574.62 453.51 560.13 453.14 548.66 461.02 C 550.08 454.90 553.28 449.10 558.38 445.31 Z" />
<path fill="#000000" opacity="1.00" d=" M 456.40 455.42 C 466.99 450.60 478.14 445.50 490.06 446.16 C 497.10 446.46 503.70 449.62 509.02 454.11 C 494.90 454.75 482.51 462.62 470.89 469.91 C 463.66 482.43 454.71 495.08 454.11 510.05 C 449.36 504.47 446.18 497.42 446.11 490.02 C 445.83 477.70 451.34 466.33 456.40 455.42 Z" />
<path fill="#000000" opacity="1.00" d=" M 661.93 454.11 C 667.52 449.37 674.57 446.18 681.98 446.10 C 694.29 445.83 705.65 451.34 716.56 456.38 C 721.40 466.98 726.50 478.14 725.84 490.08 C 725.53 497.11 722.37 503.70 717.89 509.02 C 717.24 494.88 709.37 482.46 702.04 470.84 C 689.52 463.65 676.89 454.69 661.93 454.11 Z" />
<path fill="#000000" opacity="1.00" d=" M 563.95 467.09 C 572.35 465.67 580.86 468.62 589.18 466.68 C 598.20 465.94 607.77 465.04 616.33 468.67 C 621.03 470.60 624.57 474.47 627.16 478.74 C 615.41 475.20 603.20 478.71 591.51 480.69 C 592.54 482.85 592.98 485.47 594.59 487.28 C 598.20 489.05 602.02 490.39 605.73 491.95 C 612.98 488.83 622.20 486.70 629.03 491.91 C 632.41 495.75 635.22 500.10 637.24 504.81 C 641.42 506.56 645.60 508.32 649.81 510.00 C 651.70 509.19 653.60 508.39 655.51 507.61 C 648.65 497.97 642.53 486.82 631.69 481.10 C 636.77 479.77 642.30 479.64 647.15 481.86 C 656.04 485.73 662.06 493.68 668.32 500.73 C 675.59 505.97 682.60 511.93 687.75 519.34 C 691.80 525.11 692.87 532.56 690.91 539.30 C 685.20 528.42 674.00 522.34 664.39 515.41 C 663.44 517.57 662.53 519.74 661.64 521.92 C 663.23 525.76 664.80 529.61 666.45 533.43 C 673.77 536.39 681.87 541.40 682.95 549.98 C 682.63 555.06 681.51 560.10 679.64 564.85 C 681.33 568.99 683.07 573.11 684.75 577.27 C 686.68 578.10 688.62 578.92 690.58 579.74 C 692.58 568.06 696.07 555.86 692.51 544.12 C 699.83 548.00 704.32 555.78 704.90 563.93 C 706.33 572.34 703.38 580.85 705.32 589.17 C 706.05 598.18 706.96 607.73 703.35 616.28 C 701.43 621.01 697.54 624.56 693.25 627.16 C 696.80 615.41 693.29 603.19 691.31 591.50 C 688.88 592.88 684.99 592.93 684.02 596.00 C 682.68 599.21 681.38 602.45 680.05 605.67 C 683.13 612.94 685.31 622.15 680.11 629.01 C 676.27 632.40 671.90 635.21 667.19 637.24 C 665.44 641.40 663.69 645.58 662.00 649.77 C 662.79 651.66 663.56 653.56 664.33 655.47 C 674.04 648.75 685.11 642.54 690.85 631.75 C 692.38 637.04 692.28 642.87 689.82 647.87 C 685.82 656.38 678.14 662.22 671.27 668.31 C 666.03 675.58 660.08 682.58 652.68 687.74 C 646.91 691.79 639.46 692.89 632.73 690.89 C 643.59 685.18 649.67 673.99 656.59 664.37 C 654.42 663.44 652.25 662.53 650.07 661.64 C 646.23 663.23 642.38 664.80 638.57 666.44 C 635.62 673.74 630.65 681.81 622.12 682.94 C 616.99 682.66 611.92 681.53 607.16 679.64 C 603.00 681.33 598.87 683.07 594.72 684.76 C 593.89 686.69 593.07 688.63 592.26 690.58 C 603.94 692.58 616.14 696.08 627.88 692.51 C 624.00 699.82 616.24 704.30 608.10 704.90 C 599.69 706.34 591.17 703.38 582.85 705.31 C 573.83 706.06 564.26 706.96 555.70 703.35 C 550.97 701.42 547.43 697.53 544.84 693.25 C 556.59 696.80 568.80 693.29 580.50 691.31 C 579.11 688.87 579.06 684.96 575.98 684.01 C 572.67 682.82 569.54 680.97 566.12 680.23 C 558.82 683.04 549.73 685.34 542.94 680.07 C 539.59 676.23 536.77 671.89 534.76 667.20 C 531.22 665.72 527.70 664.21 524.16 662.76 C 521.53 661.21 518.95 663.66 516.48 664.42 C 523.37 674.03 529.46 685.18 540.30 690.90 C 535.21 692.22 529.67 692.35 524.81 690.13 C 515.91 686.24 509.90 678.26 503.63 671.22 C 496.36 666.00 489.38 660.04 484.24 652.65 C 480.17 646.87 479.14 639.41 481.09 632.66 C 486.77 643.57 498.00 649.69 507.66 656.58 C 508.56 654.41 509.46 652.24 510.35 650.07 C 508.76 646.23 507.19 642.38 505.55 638.57 C 498.21 635.61 490.07 630.57 489.04 621.96 C 489.39 616.89 490.47 611.87 492.36 607.15 C 490.64 602.98 488.93 598.82 487.19 594.67 C 485.26 593.86 483.33 593.06 481.41 592.27 C 479.42 603.94 475.92 616.15 479.49 627.88 C 471.81 623.85 467.40 615.54 466.99 607.05 C 465.80 598.97 468.60 590.81 466.68 582.82 C 465.93 573.79 465.04 564.23 468.66 555.67 C 470.59 550.96 474.47 547.43 478.75 544.84 C 475.20 556.59 478.70 568.80 480.69 580.49 C 482.86 579.49 485.35 578.95 487.26 577.47 C 488.90 573.78 490.64 570.07 491.80 566.20 C 489.54 559.83 487.11 552.62 490.12 546.05 C 491.20 542.71 494.35 540.97 497.01 539.04 C 499.41 537.28 502.11 536.00 504.80 534.76 C 506.56 530.59 508.31 526.41 510.00 522.20 C 509.19 520.30 508.39 518.39 507.61 516.49 C 497.96 523.34 486.83 529.47 481.11 540.30 C 479.78 535.23 479.63 529.72 481.85 524.87 C 485.71 515.95 493.70 509.92 500.77 503.64 C 505.98 496.38 511.94 489.41 519.31 484.27 C 525.08 480.20 532.55 479.11 539.29 481.11 C 528.40 486.81 522.30 498.01 515.42 507.66 C 517.58 508.56 519.76 509.46 521.94 510.35 C 525.77 508.76 529.61 507.19 533.42 505.56 C 536.39 498.22 541.41 490.08 550.02 489.04 C 555.09 489.38 560.11 490.47 564.84 492.36 C 569.00 490.65 573.16 488.93 577.33 487.20 C 578.13 485.27 578.92 483.33 579.73 481.41 C 568.05 479.42 555.85 475.92 544.12 479.49 C 548.00 472.16 555.79 467.67 563.95 467.09 M 615.33 499.25 C 607.63 502.01 601.21 507.30 593.81 510.69 C 591.04 531.29 588.42 551.90 585.53 572.47 C 585.37 565.98 584.07 559.59 583.34 553.15 C 581.45 539.26 579.72 525.35 577.74 511.47 C 567.44 506.59 558.25 499.62 547.68 495.27 C 547.22 496.57 546.43 497.82 546.40 499.25 C 546.52 503.16 543.89 506.36 543.03 510.06 C 541.52 515.79 540.21 521.58 538.25 527.18 C 550.55 543.29 562.88 559.36 575.19 575.45 C 559.19 563.54 543.47 551.24 527.59 539.16 C 516.80 542.91 505.35 544.48 494.79 548.94 C 495.28 550.13 495.79 551.32 496.32 552.51 C 499.41 554.55 499.57 558.67 501.36 561.66 C 504.43 567.18 507.92 572.47 510.67 578.18 C 531.27 580.98 551.90 583.54 572.47 586.49 C 566.55 586.56 560.73 587.76 554.87 588.43 C 540.40 590.38 525.92 592.21 511.46 594.25 C 506.59 604.56 499.63 613.75 495.27 624.32 C 496.57 624.77 497.82 625.55 499.25 625.60 C 503.15 625.46 506.35 628.11 510.04 628.96 C 515.78 630.47 521.57 631.79 527.18 633.75 C 543.41 621.26 559.79 608.98 575.89 596.33 C 563.73 612.42 551.40 628.38 539.16 644.41 C 542.92 655.21 544.48 666.68 548.96 677.25 C 552.02 676.56 553.69 673.61 556.65 672.76 C 564.35 670.00 570.76 664.70 578.17 661.33 C 580.95 640.74 583.59 620.13 586.44 599.54 C 586.59 605.10 587.64 610.58 588.29 616.09 C 590.28 630.89 592.18 645.71 594.23 660.50 C 604.53 665.41 613.74 672.36 624.31 676.73 C 624.77 675.41 625.55 674.16 625.59 672.75 C 625.47 668.85 628.10 665.66 628.96 661.97 C 630.47 656.23 631.78 650.42 633.74 644.81 C 621.26 628.59 608.98 612.22 596.34 596.12 C 612.44 608.27 628.39 620.62 644.43 632.84 C 655.20 629.07 666.66 627.53 677.20 623.05 C 676.70 621.86 676.20 620.68 675.69 619.51 C 672.59 617.46 672.43 613.33 670.64 610.35 C 667.57 604.82 664.06 599.53 661.32 593.82 C 640.76 591.07 620.19 588.37 599.63 585.60 C 619.99 583.53 640.23 580.37 660.52 577.76 C 665.41 567.45 672.37 558.25 676.73 547.68 C 675.42 547.21 674.17 546.44 672.76 546.40 C 668.86 546.53 665.68 543.91 662.01 543.05 C 656.25 541.53 650.44 540.22 644.81 538.26 C 628.59 550.73 612.21 563.02 596.11 575.67 C 608.26 559.57 620.61 543.62 632.84 527.58 C 629.07 516.78 627.52 505.31 623.04 494.75 C 619.96 495.43 618.29 498.39 615.33 499.25 Z" />
<path fill="#000000" opacity="1.00" d=" M 479.60 478.44 C 487.70 473.25 496.25 467.80 506.07 466.88 C 512.05 466.21 517.98 468.14 523.04 471.24 C 511.01 473.46 501.55 481.87 492.35 489.35 C 484.36 500.20 473.79 510.26 471.23 524.06 C 467.91 518.69 466.02 512.30 467.00 505.97 C 468.25 495.67 474.60 487.18 479.60 478.44 Z" />
<path fill="#000000" opacity="1.00" d=" M 647.94 471.24 C 653.32 467.89 659.76 466.02 666.11 467.01 C 676.38 468.29 684.85 474.61 693.57 479.61 C 698.75 487.72 704.20 496.26 705.12 506.07 C 705.79 512.05 703.86 517.97 700.77 523.03 C 698.54 511.06 690.19 501.64 682.76 492.48 C 671.90 484.41 661.79 473.81 647.94 471.24 Z" />
<path fill="#000000" opacity="1.00" d=" M 288.92 515.86 C 305.83 507.97 324.12 501.16 343.09 502.37 C 356.29 503.09 368.86 508.65 379.10 516.87 C 359.76 517.76 342.25 527.17 325.97 536.86 C 300.18 552.75 276.03 571.22 249.67 586.21 C 267.00 595.86 283.32 607.15 299.71 618.28 C 315.06 628.51 330.31 639.10 347.09 646.91 C 357.17 651.68 367.99 655.27 379.20 655.80 C 374.17 660.94 367.39 664.12 360.78 666.78 C 346.43 672.19 330.47 671.19 315.94 667.02 C 298.44 661.98 282.18 653.52 266.30 644.77 C 247.26 634.42 228.67 623.20 208.97 614.12 C 192.17 606.39 174.50 600.00 156.01 598.03 C 142.42 596.50 128.53 597.68 115.41 601.59 C 120.61 596.23 125.85 590.80 131.99 586.50 C 125.36 582.54 120.15 576.64 114.77 571.19 C 136.71 577.85 160.41 575.93 182.01 568.94 C 220.17 556.70 253.01 532.98 288.92 515.86 Z" />
<path fill="#000000" opacity="1.00" d=" M 792.19 516.15 C 802.60 507.73 815.51 502.17 828.98 501.58 C 847.53 500.63 865.39 507.25 881.95 514.94 C 907.34 527.00 931.02 542.30 956.26 554.66 C 976.60 564.57 998.24 572.98 1021.03 574.40 C 1033.00 575.18 1045.09 573.82 1056.58 570.41 C 1051.39 575.78 1046.13 581.19 1040.00 585.51 C 1046.64 589.44 1051.84 595.36 1057.22 600.80 C 1032.73 593.34 1006.25 596.71 982.61 605.58 C 947.48 618.39 916.67 640.12 883.07 656.15 C 866.16 664.03 847.88 670.83 828.92 669.63 C 815.72 668.90 803.13 663.36 792.90 655.13 C 810.50 654.37 826.68 646.36 841.66 637.73 C 869.18 621.44 894.39 601.53 922.30 585.88 C 896.64 571.35 873.07 553.54 848.14 537.87 C 831.02 527.50 812.66 517.10 792.19 516.15 Z" />
<path fill="#000000" opacity="1.00" d=" M 773.85 531.90 C 784.10 527.11 796.00 525.66 806.97 528.77 C 821.33 532.67 833.40 541.93 844.57 551.41 C 857.46 562.54 869.42 574.69 882.19 585.95 C 871.59 595.41 861.45 605.37 850.93 614.90 C 838.94 625.53 826.31 636.27 810.92 641.54 C 799.19 645.70 786.02 644.71 774.79 639.48 C 784.45 636.16 793.10 630.48 800.68 623.70 C 813.62 612.16 824.79 598.85 836.42 586.04 C 825.59 574.07 815.09 561.76 803.36 550.65 C 794.79 542.69 785.21 535.28 773.85 531.90 Z" />
<path fill="#000000" opacity="1.00" d=" M 333.97 546.15 C 344.52 537.90 356.36 530.37 369.85 528.35 C 379.22 526.85 388.84 528.73 397.42 532.62 C 383.20 536.97 371.85 547.19 361.62 557.56 C 352.58 566.69 344.20 576.43 335.58 585.95 C 346.57 598.09 357.19 610.60 369.14 621.82 C 377.59 629.60 387.04 636.81 398.21 640.11 C 387.14 645.27 374.19 646.46 362.56 642.51 C 345.61 636.92 331.99 624.78 318.96 613.05 C 309.22 604.08 299.72 594.83 289.80 586.05 C 304.67 572.90 318.40 558.49 333.97 546.15 Z" />
<path fill="#000000" opacity="1.00" d=" M 750.75 541.31 C 761.47 538.80 773.14 540.62 782.28 546.88 C 797.06 556.71 806.81 571.99 816.97 586.16 C 807.25 599.72 797.83 614.17 783.90 623.81 C 774.61 630.46 762.55 632.59 751.47 629.93 C 768.21 620.24 777.03 602.15 786.79 586.26 C 779.40 573.90 772.45 561.05 762.50 550.51 C 759.08 546.85 755.05 543.85 750.75 541.31 Z" />
<path fill="#000000" opacity="1.00" d=" M 387.59 548.54 C 396.89 541.80 409.14 539.14 420.30 542.18 C 403.71 551.94 394.92 569.91 385.21 585.74 C 395.21 602.03 404.13 620.66 421.25 630.69 C 410.57 633.17 398.94 631.41 389.83 625.19 C 374.99 615.37 365.21 600.05 355.03 585.84 C 364.62 572.44 373.94 558.20 387.59 548.54 Z" />
<path fill="#000000" opacity="1.00" d=" M 419.54 554.72 C 424.70 550.09 431.51 547.76 438.34 547.14 C 428.80 557.50 425.74 571.78 422.48 585.03 C 426.14 599.10 428.89 614.47 439.03 625.59 C 431.20 624.94 423.51 621.76 418.10 615.96 C 409.96 607.50 406.01 596.16 402.03 585.37 C 406.10 574.34 410.48 562.69 419.54 554.72 Z" />
<path fill="#000000" opacity="1.00" d=" M 732.97 546.40 C 741.02 547.06 748.89 550.45 754.35 556.51 C 762.19 564.93 766.04 576.02 769.97 586.61 C 765.98 597.46 761.69 608.86 752.95 616.84 C 747.71 621.74 740.68 624.23 733.63 624.87 C 743.22 614.52 746.25 600.20 749.52 586.94 C 745.83 572.88 743.11 557.52 732.97 546.40 Z" />
<path fill="#000000" opacity="1.00" d=" M 444.35 559.41 C 448.15 554.12 454.09 550.82 460.35 549.35 C 453.34 559.51 452.61 572.32 451.44 584.21 C 453.51 597.40 453.14 611.89 461.03 623.35 C 454.91 621.92 449.11 618.72 445.31 613.62 C 439.02 605.46 437.17 595.07 434.86 585.29 C 436.41 576.24 438.85 566.93 444.35 559.41 Z" />
<path fill="#000000" opacity="1.00" d=" M 710.96 548.64 C 717.53 550.13 723.67 553.80 727.48 559.44 C 733.15 567.47 734.92 577.35 737.14 586.72 C 735.58 595.74 733.16 605.02 727.69 612.53 C 723.89 617.82 717.96 621.18 711.69 622.61 C 718.65 612.45 719.40 599.67 720.56 587.79 C 718.48 574.59 718.86 560.10 710.96 548.64 Z" />
<path fill="#000000" opacity="1.00" d=" M 997.03 618.83 C 1019.04 612.49 1043.16 610.19 1065.12 617.97 C 1087.58 625.68 1105.38 642.89 1118.63 662.12 C 1096.71 651.88 1071.68 650.12 1048.02 654.02 C 1003.17 661.22 962.77 683.33 919.56 696.16 C 924.67 699.08 929.47 702.50 934.00 706.27 C 971.48 694.74 1007.96 679.22 1046.85 672.85 C 1070.41 669.03 1095.55 669.32 1117.63 679.36 C 1141.98 690.18 1159.72 711.75 1171.68 735.00 C 1156.94 725.84 1140.18 720.11 1122.97 718.00 C 1099.31 715.04 1075.35 717.87 1052.11 722.54 C 1022.87 728.28 994.31 736.95 965.06 742.62 C 984.89 772.14 1001.18 803.96 1022.35 832.60 C 1033.95 848.20 1047.13 862.88 1062.98 874.27 C 1075.70 883.47 1090.22 890.18 1105.52 893.74 C 1086.70 899.67 1066.61 902.84 1046.96 899.83 C 1030.54 897.42 1014.93 890.35 1001.98 880.02 C 986.39 867.83 974.22 851.89 963.75 835.25 C 946.07 806.82 932.81 775.98 917.37 746.34 C 911.45 745.61 905.55 744.68 899.80 743.05 C 918.00 776.74 930.12 813.41 949.59 846.46 C 959.26 862.81 970.90 878.29 985.78 890.28 C 994.97 897.74 1005.40 903.63 1016.48 907.77 C 997.12 911.27 976.71 911.65 957.86 905.39 C 942.97 900.53 929.68 891.37 919.20 879.80 C 905.47 864.79 896.02 846.49 888.05 827.93 C 879.41 807.49 872.65 786.33 865.34 765.40 C 858.55 746.16 851.54 726.75 840.67 709.37 C 835.97 701.97 830.29 695.16 823.51 689.58 C 829.22 689.46 834.94 689.85 840.57 690.88 C 835.98 687.69 831.78 683.99 827.92 679.96 C 845.81 681.77 863.41 676.36 879.88 669.91 C 919.44 654.07 955.89 630.75 997.03 618.83 M 865.13 701.18 C 871.48 705.50 877.07 710.84 882.08 716.65 C 887.52 716.43 892.95 715.86 898.34 715.00 C 895.10 710.61 891.79 706.26 888.05 702.29 C 880.40 702.81 872.68 702.60 865.13 701.18 Z" />
<path fill="#000000" opacity="1.00" d=" M 92.62 625.58 C 106.01 617.76 121.50 613.80 136.97 613.76 C 157.72 613.61 177.97 619.43 197.16 626.87 C 232.72 640.55 265.37 660.81 301.23 673.76 C 315.13 678.68 329.94 682.19 344.77 680.70 C 340.86 684.85 336.52 688.58 331.83 691.83 C 337.33 690.86 342.92 690.51 348.51 690.60 C 334.87 701.71 326.37 717.58 319.33 733.38 C 303.66 769.66 294.58 808.52 277.04 844.04 C 268.98 860.34 258.97 876.04 245.31 888.24 C 234.72 897.78 221.82 904.77 207.98 908.22 C 190.84 912.58 172.80 911.91 155.51 908.80 C 173.15 902.35 188.76 891.04 201.17 877.03 C 222.30 853.28 235.38 823.88 248.18 795.13 C 255.79 777.89 263.27 760.57 272.24 743.98 C 266.57 745.49 260.78 746.50 254.93 747.00 C 237.61 779.61 223.49 814.05 202.73 844.74 C 191.80 860.80 178.76 875.80 162.42 886.54 C 149.78 894.83 135.14 900.04 120.09 901.49 C 101.99 903.31 83.73 900.21 66.48 894.77 C 84.85 890.55 101.98 881.62 116.43 869.58 C 139.33 850.63 156.12 825.68 171.67 800.66 C 183.51 781.52 194.63 761.93 207.21 743.27 C 164.10 734.92 122.10 719.82 77.94 717.70 C 51.33 716.29 23.81 721.34 1.06 735.73 C 9.24 719.97 19.74 705.12 33.46 693.70 C 45.85 683.26 61.00 676.21 76.92 673.29 C 97.90 669.34 119.49 671.79 140.18 676.30 C 173.76 683.78 205.71 696.81 238.52 706.90 C 243.05 703.11 247.92 699.74 253.08 696.84 C 216.45 685.95 182.05 668.57 145.00 658.99 C 125.83 654.04 105.80 651.28 86.04 653.78 C 75.00 655.12 64.24 658.28 54.10 662.83 C 64.35 648.10 76.95 634.60 92.62 625.58 M 284.23 702.99 C 280.50 706.97 277.17 711.29 273.91 715.66 C 279.29 716.55 284.71 717.09 290.15 717.38 C 295.21 711.63 300.78 706.29 307.16 702.02 C 299.59 703.31 291.88 703.54 284.23 702.99 Z" />
<path fill="#000000" opacity="1.00" d=" M 700.77 647.94 C 704.08 653.31 705.97 659.71 705.00 666.04 C 703.75 676.33 697.40 684.82 692.40 693.55 C 684.32 698.74 675.79 704.16 666.00 705.11 C 660.00 705.80 654.05 703.88 648.97 700.77 C 660.98 698.53 670.43 690.14 679.61 682.68 C 687.62 671.83 698.19 661.76 700.77 647.94 Z" />
<path fill="#000000" opacity="1.00" d=" M 466.81 664.97 C 466.38 659.28 468.33 653.76 471.23 648.96 C 473.46 660.98 481.86 670.44 489.33 679.63 C 500.19 687.63 510.25 698.21 524.07 700.77 C 518.68 704.08 512.27 705.98 505.93 705.00 C 495.65 703.73 487.16 697.39 478.43 692.40 C 473.08 684.03 467.43 675.15 466.81 664.97 Z" />
<path fill="#000000" opacity="1.00" d=" M 717.89 661.94 C 722.62 667.52 725.82 674.56 725.89 681.97 C 726.17 694.29 720.66 705.66 715.61 716.57 C 705.31 721.26 694.52 726.19 682.95 725.89 C 675.56 725.80 668.54 722.61 662.97 717.89 C 677.11 717.24 689.52 709.37 701.15 702.05 C 708.35 689.53 717.30 676.90 717.89 661.94 Z" />
<path fill="#000000" opacity="1.00" d=" M 446.11 682.97 C 446.19 675.58 449.37 668.55 454.11 662.98 C 454.75 677.10 462.62 689.48 469.90 701.11 C 482.43 708.34 495.08 717.29 510.06 717.89 C 504.48 722.62 497.45 725.81 490.05 725.89 C 477.73 726.18 466.35 720.66 455.43 715.61 C 450.74 705.31 445.81 694.54 446.11 682.97 Z" />
<path fill="#000000" opacity="1.00" d=" M 734.11 670.89 C 743.23 676.60 750.12 685.80 752.32 696.40 C 756.05 714.02 752.08 731.98 749.22 749.42 C 732.36 752.22 715.01 755.89 697.97 752.44 C 687.15 750.34 677.73 743.38 671.92 734.11 C 682.34 737.03 693.33 735.93 703.81 733.90 C 711.89 732.34 719.86 730.26 727.81 728.14 C 732.25 709.53 739.11 690.10 734.11 670.89 Z" />
<path fill="#000000" opacity="1.00" d=" M 419.68 697.45 C 421.87 686.84 428.77 677.64 437.89 671.92 C 433.03 690.64 439.40 709.67 443.85 727.80 C 462.46 732.26 481.90 739.11 501.11 734.11 C 495.39 743.24 486.17 750.14 475.55 752.33 C 457.94 756.04 440.00 752.07 422.58 749.22 C 419.75 732.20 416.03 714.64 419.68 697.45 Z" />
<path fill="#000000" opacity="1.00" d=" M 757.09 680.56 C 765.52 683.74 773.33 688.88 778.86 696.07 C 786.88 706.33 790.23 719.33 792.02 732.00 C 794.78 753.02 794.11 774.28 795.46 795.40 C 776.79 794.27 758.04 794.60 739.42 792.76 C 725.53 791.35 711.17 788.58 699.43 780.58 C 691.09 774.98 685.09 766.43 681.59 757.10 C 693.63 763.52 707.57 764.65 720.98 764.81 C 735.06 764.83 749.12 763.86 763.17 763.04 C 763.72 745.00 765.68 726.95 764.38 708.90 C 763.67 699.13 761.75 689.27 757.09 680.56 Z" />
<path fill="#000000" opacity="1.00" d=" M 402.85 687.89 C 406.55 685.23 410.70 683.28 414.91 681.59 C 409.10 692.41 407.63 704.89 407.26 716.99 C 406.89 732.36 408.16 747.71 408.90 763.06 C 424.27 763.78 439.63 765.05 455.03 764.76 C 467.47 764.47 480.30 763.05 491.44 757.10 C 487.95 766.44 481.93 774.98 473.58 780.59 C 462.02 788.48 447.89 791.26 434.20 792.70 C 415.06 794.64 395.78 794.25 376.60 795.46 C 378.12 771.93 376.91 748.12 381.37 724.86 C 384.13 710.67 390.55 696.27 402.85 687.89 Z" />
<path fill="#000000" opacity="1.00" d=" M 781.20 682.39 C 795.78 683.90 809.97 690.13 820.23 700.71 C 832.42 712.99 839.66 729.10 845.55 745.11 C 858.99 782.85 865.35 823.20 883.99 859.00 C 894.23 879.09 909.65 897.01 929.73 907.72 C 922.28 907.93 914.80 907.83 907.41 906.80 C 909.27 914.28 908.77 922.10 908.75 929.75 C 901.88 917.07 892.27 905.96 880.84 897.19 C 863.73 883.97 843.50 875.57 823.14 868.79 C 794.85 859.33 765.43 853.37 737.68 842.30 C 722.69 836.17 707.86 828.15 697.41 815.47 C 689.33 805.84 684.78 793.62 683.43 781.20 C 695.61 792.35 711.48 798.18 727.14 802.54 C 759.08 811.17 792.18 814.68 824.02 823.79 C 816.58 797.88 812.74 771.15 807.09 744.84 C 802.07 722.90 796.66 699.60 781.20 682.39 Z" />
<path fill="#000000" opacity="1.00" d=" M 370.67 688.69 C 377.05 685.87 383.89 684.26 390.80 683.43 C 379.46 695.83 373.63 712.01 369.24 727.94 C 360.78 759.64 357.23 792.44 348.21 824.01 C 372.07 817.17 396.64 813.36 420.93 808.40 C 434.67 805.56 448.40 802.40 461.56 797.51 C 471.74 793.71 481.55 788.57 489.61 781.20 C 488.10 795.81 481.84 810.03 471.22 820.30 C 458.31 833.04 441.29 840.40 424.46 846.41 C 387.44 859.25 348.06 865.75 313.04 883.97 C 292.93 894.21 275.00 909.64 264.28 929.73 C 264.07 922.28 264.17 914.80 265.20 907.41 C 257.72 909.27 249.90 908.77 242.26 908.75 C 254.51 902.10 265.33 892.89 273.95 881.94 C 286.52 866.09 294.78 847.35 301.44 828.39 C 309.44 805.28 315.07 781.44 322.40 758.13 C 327.24 743.04 332.81 727.98 341.45 714.61 C 348.58 703.54 358.47 693.95 370.67 688.69 Z" />
<path fill="#000000" opacity="1.00" d=" M 584.18 720.56 C 597.38 718.50 611.87 718.85 623.34 710.97 C 621.89 717.34 618.44 723.32 613.04 727.13 C 604.95 733.08 594.84 734.87 585.29 737.14 C 576.01 735.53 566.42 733.04 558.83 727.20 C 553.84 723.41 550.79 717.66 549.35 711.65 C 559.50 718.66 572.30 719.39 584.18 720.56 Z" />
<path fill="#000000" opacity="1.00" d=" M 547.13 733.62 C 557.44 743.21 571.75 746.23 584.99 749.51 C 599.08 745.88 614.45 743.10 625.59 732.97 C 624.93 740.76 621.79 748.42 616.04 753.83 C 607.56 762.01 596.19 765.97 585.37 769.97 C 574.32 765.89 562.65 761.51 554.69 752.41 C 550.06 747.24 547.76 740.44 547.13 733.62 Z" />
<path fill="#000000" opacity="1.00" d=" M 621.50 762.49 C 625.14 759.07 628.15 755.05 630.69 750.76 C 633.19 761.46 631.39 773.12 625.15 782.24 C 615.33 797.04 600.03 806.77 585.88 816.96 C 575.23 809.48 564.39 802.06 555.32 792.65 C 549.04 786.10 543.65 778.28 541.77 769.27 C 540.47 763.40 540.86 757.31 542.07 751.47 C 551.75 768.21 569.85 777.03 585.74 786.79 C 598.10 779.40 610.94 772.45 621.50 762.49 Z" />
<path fill="#000000" opacity="1.00" d=" M 532.61 774.58 C 536.84 788.34 546.56 799.47 556.59 809.42 C 566.00 818.82 576.10 827.49 585.96 836.42 C 597.76 825.75 609.88 815.38 620.88 803.86 C 628.75 795.49 636.00 786.15 639.75 775.15 C 639.95 775.11 640.35 775.05 640.55 775.01 C 645.25 785.23 646.20 797.13 642.96 807.93 C 639.11 821.20 630.70 832.50 621.96 842.97 C 610.47 856.48 597.77 868.89 586.05 882.19 C 575.66 870.51 564.60 859.46 554.26 847.74 C 544.26 836.20 534.32 823.84 529.86 808.98 C 526.32 797.67 527.65 785.25 532.61 774.58 Z" />
<path fill="#000000" opacity="1.00" d=" M 647.84 822.89 C 652.23 813.21 655.42 802.83 655.83 792.15 C 664.03 802.34 669.58 814.86 670.35 828.01 C 671.58 846.41 665.19 864.22 657.64 880.70 C 647.32 902.76 634.39 923.47 623.07 945.02 C 612.81 964.59 603.43 985.00 599.37 1006.86 C 596.24 1023.31 596.74 1040.52 601.60 1056.59 C 596.23 1051.39 590.80 1046.15 586.50 1040.00 C 582.54 1046.63 576.64 1051.84 571.19 1057.22 C 576.50 1039.48 576.48 1020.43 572.31 1002.46 C 566.58 977.36 554.52 954.35 542.18 931.97 C 530.37 910.44 517.37 889.39 508.78 866.29 C 503.41 851.59 500.22 835.46 503.63 819.93 C 505.71 809.98 510.61 800.83 516.87 792.90 C 517.70 811.51 526.51 828.47 535.77 844.21 C 551.85 870.72 570.90 895.34 586.21 922.34 C 598.04 901.00 612.48 881.28 625.86 860.91 C 634.00 848.74 641.80 836.26 647.84 822.89 Z" />
<path fill="#000000" opacity="1.00" d=" M 439.68 852.65 C 455.47 845.62 471.31 837.12 482.42 823.51 C 482.53 829.22 482.15 834.94 481.12 840.57 C 484.30 835.98 488.01 831.78 492.04 827.92 C 490.27 845.26 495.34 862.35 501.50 878.37 C 511.35 903.41 524.31 927.05 535.56 951.47 C 546.62 975.73 556.94 1001.07 558.76 1027.96 C 560.21 1047.66 555.50 1067.90 544.51 1084.41 C 535.57 1098.13 523.26 1109.34 509.88 1118.63 C 520.56 1095.80 521.96 1069.65 517.50 1045.11 C 509.80 1001.38 488.39 961.85 475.85 919.56 C 472.92 924.66 469.50 929.46 465.74 933.99 C 474.34 961.81 484.93 989.01 492.61 1017.12 C 498.81 1040.16 503.30 1064.20 500.61 1088.12 C 498.67 1105.80 491.98 1123.02 480.88 1136.98 C 469.24 1151.82 453.62 1163.03 437.00 1171.68 C 446.16 1156.94 451.89 1140.17 454.00 1122.95 C 456.89 1099.91 454.25 1076.57 449.82 1053.90 C 444.06 1024.05 435.17 994.90 429.37 965.05 C 408.21 979.28 385.89 991.65 364.38 1005.34 C 342.18 1019.49 320.40 1035.09 303.49 1055.51 C 291.44 1069.97 282.49 1087.11 278.27 1105.50 C 272.80 1088.27 269.73 1070.01 271.54 1051.92 C 273.09 1035.65 279.07 1019.89 288.53 1006.58 C 303.38 985.63 324.77 970.51 346.70 957.75 C 372.24 942.97 399.39 931.22 425.40 917.34 C 426.77 911.65 427.10 905.49 428.95 899.81 C 394.82 918.24 357.63 930.42 324.28 950.34 C 302.45 963.31 282.17 980.43 270.19 1003.20 C 267.88 1007.48 265.99 1011.96 264.23 1016.49 C 260.91 998.10 260.38 978.83 265.70 960.76 C 269.93 946.10 278.26 932.78 289.12 922.12 C 302.96 908.44 320.17 898.79 337.77 890.81 C 370.89 875.88 406.35 867.05 439.68 852.65 M 455.35 882.09 C 455.57 887.53 456.13 892.96 456.99 898.34 C 461.38 895.10 465.73 891.79 469.71 888.05 C 469.18 880.40 469.41 872.68 470.81 865.14 C 466.50 871.50 461.14 877.07 455.35 882.09 Z" />
<path fill="#000000" opacity="1.00" d=" M 690.60 823.48 C 699.57 834.54 711.83 842.27 724.46 848.51 C 762.42 866.72 804.11 875.56 842.00 893.97 C 858.44 901.91 874.32 911.71 886.86 925.17 C 896.86 935.82 904.29 948.92 907.97 963.09 C 912.60 980.49 911.98 998.88 908.79 1016.47 C 902.60 999.57 891.96 984.48 878.71 972.36 C 854.71 950.32 824.54 936.91 795.11 923.81 C 777.88 916.20 760.56 908.73 743.98 899.76 C 745.50 905.43 746.49 911.23 747.01 917.08 C 779.39 934.26 813.54 948.32 844.07 968.81 C 858.37 978.51 871.88 989.75 882.32 1003.63 C 892.21 1016.50 898.82 1031.91 901.02 1048.01 C 903.73 1067.32 900.64 1087.02 894.76 1105.48 C 890.43 1086.64 881.14 1069.14 868.65 1054.45 C 848.69 1030.82 822.45 1013.73 796.33 997.67 C 778.59 986.80 760.53 976.43 743.26 964.79 C 734.92 1007.90 719.82 1049.90 717.70 1094.05 C 716.29 1120.66 721.34 1148.18 735.72 1170.93 C 720.11 1162.83 705.41 1152.45 694.02 1138.93 C 683.19 1126.20 675.95 1110.53 673.11 1094.08 C 669.31 1072.84 672.00 1051.06 676.67 1030.19 C 684.21 997.21 696.96 965.76 706.90 933.49 C 703.12 928.95 699.75 924.08 696.85 918.94 C 685.93 955.55 668.57 989.96 658.99 1027.00 C 653.96 1046.49 651.19 1066.88 653.91 1086.95 C 655.30 1097.64 658.42 1108.06 662.83 1117.89 C 648.29 1107.78 634.96 1095.38 625.93 1079.99 C 615.95 1063.35 612.32 1043.41 614.19 1024.21 C 616.42 1000.03 625.34 977.13 635.17 955.14 C 648.22 925.97 664.37 898.12 674.78 867.82 C 679.14 854.80 682.09 841.01 680.70 827.23 C 684.85 831.14 688.58 835.48 691.84 840.17 C 690.85 834.66 690.51 829.06 690.60 823.48 M 703.00 887.77 C 706.98 891.49 711.29 894.83 715.67 898.09 C 716.53 892.71 717.10 887.28 717.37 881.85 C 711.63 876.79 706.29 871.22 702.02 864.84 C 703.30 872.41 703.55 880.12 703.00 887.77 Z" />
</g>
</svg>
