<?xml version="1.0" encoding="UTF-8" ?>
<!DOCTYPE svg PUBLIC "-//W3C//DTD SVG 1.1//EN" "http://www.w3.org/Graphics/SVG/1.1/DTD/svg11.dtd">
<svg width="423pt" height="480pt" viewBox="0 0 423 480" version="1.1" xmlns="http://www.w3.org/2000/svg">
<g id="#ffffffff">
</g>
<g id="#000000ff">
<path fill="#000000" opacity="1.00" d=" M 206.45 6.94 C 208.53 4.55 211.51 3.61 214.61 4.28 C 216.65 7.22 217.88 10.61 218.93 14.00 C 220.16 16.21 221.14 18.55 222.13 20.89 C 230.42 38.61 239.77 55.90 250.69 72.15 C 253.47 76.88 257.01 81.10 259.73 85.87 C 259.72 86.71 259.69 88.40 259.67 89.24 C 257.17 92.74 252.91 93.99 249.04 95.35 C 245.15 96.49 241.58 98.47 237.70 99.64 C 236.79 100.33 235.89 101.03 235.00 101.73 C 237.06 105.22 241.01 106.85 244.41 108.74 C 247.04 110.58 249.68 112.40 252.39 114.12 C 252.58 116.50 252.39 118.87 252.27 121.25 C 251.59 122.73 251.01 124.26 250.50 125.82 C 249.86 127.13 249.31 128.48 248.77 129.84 C 248.25 131.50 247.87 133.20 247.54 134.92 C 246.15 138.25 245.32 141.77 244.02 145.14 C 243.06 149.57 242.20 154.02 241.22 158.44 C 239.98 161.23 240.83 164.42 239.54 167.18 C 238.50 170.94 239.35 174.97 237.85 178.62 C 237.23 181.08 237.57 183.66 237.16 186.15 C 235.65 191.55 235.79 197.24 235.85 202.80 C 241.51 203.61 245.31 198.38 250.04 196.19 C 251.89 194.65 253.86 193.26 255.78 191.80 C 268.02 182.86 279.09 172.46 289.33 161.32 C 293.61 156.59 296.96 151.07 301.45 146.54 C 306.19 144.90 310.22 148.00 314.25 149.92 C 316.68 151.70 319.46 152.89 322.38 153.60 C 322.45 149.49 322.89 145.27 321.70 141.26 C 320.72 137.89 321.24 134.20 319.53 131.03 C 319.48 128.26 319.49 125.49 319.46 122.72 C 320.90 121.05 322.64 119.47 324.99 119.42 C 333.42 119.04 341.62 121.68 350.02 121.83 C 359.95 122.83 369.96 122.10 379.92 122.66 C 391.35 122.39 402.88 122.45 414.18 120.28 C 415.34 121.33 416.62 122.28 417.64 123.50 C 418.64 125.49 416.86 127.36 416.31 129.21 C 411.85 134.24 408.22 139.92 404.21 145.29 C 403.20 146.59 402.19 147.90 401.18 149.20 C 400.14 150.75 399.17 152.33 398.16 153.90 C 397.14 155.40 396.20 156.95 395.31 158.52 C 390.99 165.18 387.22 172.19 383.27 179.08 C 381.81 181.20 380.75 183.55 379.59 185.84 C 375.96 192.15 373.38 198.98 369.84 205.34 C 367.91 206.17 365.83 206.75 363.71 206.41 C 360.74 204.83 358.46 202.25 355.84 200.19 C 351.82 197.45 348.79 192.15 343.52 192.09 C 343.26 197.61 343.39 203.13 343.43 208.65 L 342.70 208.35 C 342.25 210.85 342.13 214.34 339.07 215.05 C 329.53 218.17 319.33 219.04 310.04 222.97 C 301.76 225.22 293.98 228.89 286.01 232.01 C 279.94 235.19 273.52 237.63 267.45 240.82 C 266.59 241.94 264.36 242.76 265.23 244.45 C 271.20 248.53 278.35 250.20 284.99 252.85 C 291.61 254.65 298.25 256.46 305.08 257.32 C 313.50 259.67 322.30 260.02 330.99 260.59 C 335.17 260.69 339.91 260.13 343.37 263.04 C 343.92 267.66 343.73 272.33 343.94 276.98 C 345.38 281.18 344.59 285.71 344.81 290.07 C 348.23 291.51 350.46 287.65 353.14 286.16 C 357.12 282.73 361.27 279.47 364.87 275.64 C 366.78 274.52 368.81 273.49 371.03 273.21 C 374.33 273.39 375.79 276.69 377.35 279.11 C 378.04 281.21 378.94 283.29 380.40 284.99 C 385.97 299.29 394.14 312.36 401.75 325.63 C 404.66 329.94 407.21 334.49 410.28 338.69 C 411.06 339.87 411.85 341.05 412.60 342.26 C 415.04 345.33 417.25 348.57 419.53 351.77 C 419.52 353.37 419.51 354.97 419.51 356.58 C 417.62 357.97 415.59 360.02 413.02 359.41 C 403.03 358.34 392.97 358.01 382.95 357.27 C 364.33 356.87 345.73 357.74 327.16 359.11 C 325.58 359.23 324.05 358.80 322.51 358.59 C 321.81 356.49 320.16 354.32 321.39 352.10 C 322.81 349.13 322.33 345.82 322.65 342.66 C 324.26 337.03 324.27 331.11 324.90 325.33 C 323.47 325.35 321.98 325.11 320.62 325.65 C 314.27 328.21 309.01 333.32 302.19 334.70 C 297.14 335.41 295.04 329.73 292.12 326.74 C 291.37 326.18 290.62 325.61 289.88 325.06 C 289.69 324.63 289.32 323.78 289.14 323.35 C 288.11 322.40 287.10 321.43 286.14 320.42 C 285.17 319.46 284.20 318.49 283.31 317.47 C 281.35 315.31 279.11 313.44 277.09 311.35 C 264.18 300.24 251.02 289.24 236.36 280.52 C 235.87 280.53 234.89 280.54 234.40 280.55 C 234.40 284.32 234.35 288.09 234.46 291.86 C 236.06 294.12 235.71 296.98 236.27 299.56 C 236.85 302.15 237.57 304.71 237.95 307.35 C 238.14 307.75 238.51 308.57 238.70 308.98 C 238.74 311.34 239.16 313.69 239.99 315.91 C 242.20 322.90 243.69 330.15 246.60 336.91 C 248.87 343.92 252.05 350.58 255.21 357.23 C 255.27 358.66 255.34 360.09 255.41 361.53 C 250.71 366.99 243.92 369.93 238.05 373.91 C 236.33 375.23 234.45 376.31 232.51 377.27 C 233.04 378.48 233.34 380.00 234.82 380.42 C 242.05 383.77 249.54 386.63 257.17 388.93 C 259.45 390.16 262.20 392.31 261.28 395.27 C 260.61 396.79 259.67 398.18 258.72 399.55 C 256.16 402.89 253.97 406.51 251.28 409.76 C 249.96 411.84 248.27 413.67 247.24 415.92 L 246.84 415.89 C 245.85 417.49 244.81 419.06 243.66 420.57 C 242.65 422.06 241.67 423.58 240.69 425.10 C 238.61 428.50 236.24 431.71 234.21 435.14 C 233.30 436.60 232.58 438.17 231.70 439.65 C 230.44 441.73 229.27 443.87 228.03 445.97 C 225.83 449.86 223.88 453.87 221.75 457.79 C 220.94 459.58 220.08 461.35 219.21 463.11 C 218.05 465.31 216.99 467.57 216.01 469.86 C 215.30 471.26 214.63 472.69 213.99 474.14 C 212.39 475.13 210.88 476.63 208.88 476.60 C 207.24 476.29 205.98 475.10 204.56 474.32 C 204.53 473.80 204.46 472.75 204.42 472.22 C 203.17 470.49 202.80 468.38 202.16 466.40 C 201.05 463.92 200.05 461.40 198.83 458.99 C 198.69 458.53 198.39 457.62 198.24 457.17 C 197.35 455.55 196.60 453.86 195.74 452.23 C 194.30 447.64 191.95 443.42 189.89 439.09 C 188.76 437.15 187.79 435.13 186.89 433.08 C 183.49 427.51 180.43 421.75 177.30 416.03 C 174.51 411.04 171.02 406.48 168.35 401.42 C 166.54 398.78 164.32 396.32 163.52 393.14 C 164.10 391.17 164.17 388.71 166.28 387.69 C 173.05 383.71 181.34 383.22 187.97 378.91 C 184.27 373.37 176.46 372.82 172.52 367.44 C 170.64 365.90 172.16 363.57 172.79 361.80 C 173.41 359.43 174.45 357.19 174.96 354.79 C 176.05 351.46 177.42 348.19 177.92 344.70 C 179.56 341.41 178.82 337.60 180.23 334.25 C 180.72 331.49 180.98 328.68 182.08 326.07 C 182.01 320.95 183.91 316.07 183.77 310.93 C 185.54 303.09 185.35 295.00 185.13 287.02 C 180.83 288.31 177.30 291.16 173.72 293.74 C 169.76 296.84 165.99 300.19 161.85 303.06 C 160.92 304.02 159.98 304.99 159.03 305.95 C 157.95 306.71 156.88 307.48 155.81 308.26 C 154.88 309.38 153.87 310.42 152.83 311.45 C 151.85 312.40 150.83 313.32 149.79 314.22 C 148.59 315.59 147.27 316.86 146.01 318.18 C 144.17 319.99 142.56 322.02 140.66 323.76 C 138.75 326.06 136.54 328.18 135.24 330.91 C 134.89 331.15 134.18 331.61 133.83 331.84 C 132.89 333.25 131.87 334.61 130.79 335.92 C 130.15 336.70 129.52 337.50 128.87 338.29 C 127.21 340.97 123.82 341.98 120.88 340.97 C 114.78 338.99 109.77 334.29 103.26 333.42 C 102.55 337.08 103.26 340.73 104.28 344.25 C 104.44 348.57 106.23 352.57 106.82 356.82 L 107.54 356.48 C 107.51 357.33 107.47 359.01 107.44 359.86 C 106.60 361.24 105.95 362.74 105.04 364.09 C 102.59 365.37 99.76 365.32 97.07 365.25 C 86.78 363.97 76.39 364.10 66.06 363.26 C 51.69 362.83 37.34 363.78 22.99 364.32 C 18.37 364.70 13.69 365.82 9.17 364.16 C 6.90 357.43 13.46 352.58 16.73 347.55 C 17.96 345.78 19.12 343.97 20.38 342.23 C 21.10 340.99 21.88 339.79 22.68 338.61 C 24.44 335.30 26.88 332.44 28.66 329.16 C 36.98 315.49 44.54 301.36 51.05 286.75 C 52.53 282.99 54.65 278.30 59.49 278.72 C 67.54 282.05 72.17 290.75 80.53 293.58 C 82.34 289.97 81.27 285.87 81.75 282.02 C 82.33 277.67 82.11 273.30 82.16 268.93 C 81.97 267.28 83.17 266.00 83.83 264.62 C 85.73 263.60 87.75 262.60 89.95 262.65 C 96.12 262.76 101.91 260.46 107.90 259.41 C 120.41 256.27 132.73 252.42 144.84 247.99 C 150.02 246.20 155.03 243.93 159.86 241.33 C 159.81 240.87 159.70 239.95 159.65 239.48 C 150.43 234.27 140.05 231.70 130.27 227.85 C 119.44 225.40 108.85 221.69 97.75 220.56 C 92.65 220.10 87.64 219.04 82.61 218.13 C 81.99 216.79 81.27 215.49 80.79 214.09 C 80.20 206.45 81.21 198.52 78.71 191.12 C 75.25 191.50 73.32 194.78 70.45 196.37 C 67.05 198.25 64.76 201.47 61.68 203.78 C 60.90 204.61 60.11 205.44 59.33 206.27 C 57.01 207.78 54.14 209.95 51.29 208.43 C 48.11 205.98 46.87 201.99 44.91 198.64 C 44.84 198.21 44.69 197.35 44.61 196.92 C 43.58 195.45 42.80 193.84 42.04 192.23 C 41.62 191.21 41.15 190.21 40.64 189.24 C 35.42 178.17 29.82 167.11 22.78 157.05 C 21.84 155.28 20.89 153.53 19.88 151.82 C 18.20 149.01 16.11 146.48 14.39 143.71 C 13.56 142.52 12.74 141.33 11.88 140.16 C 9.58 136.80 7.44 133.29 4.62 130.32 C 4.41 129.18 4.19 128.05 3.96 126.92 C 4.50 125.46 4.18 123.24 6.01 122.63 C 9.50 120.87 13.38 122.50 17.04 122.51 C 25.35 123.05 33.55 124.43 41.87 124.75 C 56.58 124.48 71.35 125.44 86.04 124.21 C 91.12 123.51 96.23 122.86 101.37 123.29 C 104.14 126.99 103.38 131.97 101.70 135.96 C 101.79 141.54 99.47 146.84 100.16 152.46 C 107.39 152.60 112.68 145.17 120.14 146.43 C 121.16 147.54 122.21 148.64 123.28 149.71 C 128.65 156.30 134.98 162.08 141.16 167.91 C 144.07 170.31 147.01 172.68 149.77 175.26 C 152.08 177.34 154.62 179.13 157.03 181.10 C 158.54 182.11 160.06 183.12 161.53 184.18 C 164.59 186.09 167.53 188.18 170.51 190.20 C 175.58 193.37 180.42 197.54 186.41 198.72 C 187.30 189.46 185.96 180.19 183.86 171.19 C 183.31 166.68 182.09 162.28 180.96 157.88 C 180.70 155.76 180.68 153.52 179.47 151.67 C 179.04 149.67 178.63 147.66 177.95 145.73 C 177.82 145.25 177.55 144.29 177.41 143.81 C 176.14 141.72 175.93 139.22 175.00 136.98 C 174.85 136.55 174.56 135.68 174.41 135.24 C 173.46 133.60 172.78 131.84 171.98 130.13 C 171.69 129.20 171.37 128.28 171.03 127.37 C 170.04 125.09 168.99 122.81 168.45 120.38 C 169.26 119.20 170.03 118.00 170.79 116.79 C 178.04 112.31 185.93 108.82 192.59 103.44 C 190.71 101.78 188.41 100.75 186.19 99.65 C 178.58 96.60 170.66 94.52 163.02 91.55 C 162.59 90.19 162.13 88.84 161.65 87.49 C 161.78 87.55 162.04 87.65 162.17 87.71 C 162.37 86.39 162.57 85.08 162.79 83.77 C 168.84 74.83 174.96 65.94 180.84 56.89 C 183.61 52.05 186.30 47.16 189.30 42.45 C 193.71 34.39 198.04 26.29 202.01 18.00 C 203.42 14.28 205.28 10.74 206.45 6.94 M 209.50 22.38 C 205.35 29.17 202.58 36.70 198.35 43.46 C 197.16 45.25 196.12 47.13 195.14 49.04 C 193.97 50.66 193.01 52.41 192.18 54.21 C 190.96 55.83 189.96 57.59 189.14 59.44 C 188.99 59.47 188.69 59.52 188.54 59.55 C 188.09 60.65 187.61 61.73 187.10 62.81 C 185.70 64.52 184.42 66.32 183.22 68.17 C 179.87 73.52 176.22 78.68 173.29 84.28 C 174.41 85.03 175.49 85.89 176.79 86.32 C 186.92 90.09 197.35 93.11 207.23 97.48 C 207.85 98.25 208.48 99.03 209.11 99.80 C 209.12 100.95 209.14 102.10 209.17 103.25 C 207.78 105.01 206.38 106.89 204.31 107.90 C 198.21 111.28 191.98 114.37 186.04 118.03 C 183.82 119.36 181.61 120.73 179.64 122.43 C 180.16 123.97 180.58 125.54 180.94 127.13 C 181.76 128.69 182.46 130.31 183.31 131.86 C 184.51 136.59 186.62 141.04 187.86 145.77 C 188.15 147.51 188.58 149.25 189.46 150.80 C 189.52 155.31 191.14 159.59 191.84 164.02 C 193.46 170.21 193.80 176.67 195.46 182.86 C 195.07 191.94 198.44 200.81 196.91 209.90 C 196.12 212.35 193.49 213.78 191.03 213.89 C 186.87 212.95 183.44 210.26 179.80 208.19 C 176.77 206.21 173.76 204.19 170.77 202.14 C 163.90 198.25 157.51 193.57 151.10 188.99 C 146.43 185.76 142.15 182.01 137.86 178.32 C 136.91 177.22 135.92 176.16 134.89 175.14 C 130.83 172.62 128.02 168.67 124.42 165.61 C 121.16 162.81 118.63 159.28 115.31 156.55 C 107.27 159.20 100.43 165.01 92.08 166.62 C 91.23 165.84 90.38 165.06 89.52 164.30 C 89.25 159.63 89.64 154.95 89.67 150.28 C 91.47 147.43 90.27 143.62 92.54 141.04 C 92.54 138.60 92.72 136.14 92.41 133.71 C 89.71 131.61 86.03 133.62 82.93 133.48 C 71.28 133.99 59.62 134.65 47.95 134.18 C 41.01 133.38 33.94 134.17 27.06 132.71 C 24.42 132.03 21.68 132.36 19.04 132.83 C 21.16 137.16 24.16 140.94 26.79 144.96 C 29.10 149.49 32.31 153.47 34.76 157.93 C 35.74 159.54 36.66 161.19 37.56 162.85 C 37.79 163.18 38.23 163.84 38.46 164.18 C 39.96 167.07 41.59 169.90 43.03 172.83 C 47.52 180.75 50.92 189.19 55.22 197.19 C 56.47 196.51 57.69 195.76 58.85 194.94 C 65.82 189.19 72.23 182.78 79.35 177.21 C 81.78 175.09 85.24 175.22 88.08 176.36 C 88.92 181.19 88.13 186.14 89.22 190.93 C 89.97 196.97 89.40 203.10 89.56 209.17 C 93.05 211.15 97.11 211.41 100.99 212.06 C 115.28 213.58 129.06 217.93 142.75 222.12 C 154.13 226.45 165.89 229.98 176.61 235.88 C 176.50 236.63 176.27 238.12 176.16 238.87 L 178.18 238.63 C 177.09 240.90 176.06 243.30 174.17 245.03 C 172.57 245.61 170.99 246.22 169.41 246.82 C 169.29 246.28 169.05 245.19 168.93 244.64 C 168.86 245.30 168.73 246.62 168.66 247.28 C 154.66 254.54 139.53 259.18 124.56 263.97 C 121.22 265.27 117.66 265.77 114.22 266.69 C 106.74 269.16 98.86 269.89 91.24 271.80 C 90.82 274.94 90.86 278.11 90.78 281.27 C 91.13 288.32 91.89 295.62 90.32 302.55 C 90.36 303.09 90.41 303.64 90.46 304.19 C 90.01 305.22 89.59 306.26 89.19 307.31 C 87.47 308.17 85.70 309.53 83.67 309.37 C 77.94 307.22 74.05 302.25 69.14 298.84 C 65.58 296.44 63.17 292.36 58.84 291.20 C 55.83 295.01 54.25 299.76 51.97 304.03 C 49.27 309.41 46.63 314.83 43.67 320.07 C 42.71 321.78 41.75 323.51 40.76 325.21 C 39.79 326.86 38.80 328.51 37.71 330.10 C 36.94 331.33 36.19 332.57 35.49 333.85 C 34.99 334.73 34.51 335.61 34.03 336.50 C 32.92 338.03 31.85 339.60 30.92 341.25 C 30.30 342.07 29.66 342.89 29.04 343.72 C 27.83 345.90 26.62 348.10 25.17 350.13 C 23.98 351.73 22.92 353.41 21.92 355.14 C 38.26 355.32 54.63 353.32 70.98 354.64 C 79.20 354.34 87.35 355.67 95.56 355.67 C 95.48 352.70 95.93 349.61 94.76 346.80 C 93.89 344.25 94.12 341.43 92.82 339.02 C 92.69 333.51 90.49 328.27 91.12 322.70 C 92.87 321.27 94.49 319.24 96.97 319.29 C 100.19 319.61 103.01 321.35 105.89 322.68 C 110.24 325.16 114.80 327.25 119.10 329.83 C 121.05 331.09 123.98 331.67 125.19 329.13 C 133.55 318.61 142.62 308.64 152.78 299.81 C 154.91 297.92 156.99 295.98 159.16 294.13 C 167.19 288.23 174.76 281.67 183.15 276.22 C 186.05 274.25 189.09 271.40 192.91 272.23 C 194.10 273.08 195.87 274.12 195.55 275.86 C 195.38 280.67 196.18 285.61 194.82 290.31 C 194.16 293.93 194.22 297.64 193.76 301.29 C 193.50 304.18 192.88 307.04 192.66 309.94 C 192.47 312.29 192.90 314.79 191.73 316.96 C 191.38 319.54 191.16 322.14 191.00 324.74 C 189.68 327.91 189.41 331.34 189.58 334.74 L 188.72 334.02 C 188.58 337.39 187.60 340.62 186.84 343.89 C 186.46 348.77 183.39 352.99 183.45 357.97 C 183.15 358.20 182.55 358.66 182.25 358.89 C 182.22 360.36 182.18 361.84 182.15 363.32 C 188.89 366.77 195.36 370.74 202.14 374.09 C 204.63 377.13 203.54 381.44 201.34 384.31 C 196.47 385.65 192.05 388.21 187.13 389.41 C 183.23 391.05 178.84 391.47 175.33 393.98 C 178.07 400.28 182.43 405.66 185.57 411.75 C 186.91 413.85 187.97 416.11 189.23 418.27 C 190.12 419.89 191.00 421.52 191.82 423.19 C 195.37 428.93 197.64 435.37 201.49 440.94 C 201.52 441.48 201.59 442.54 201.62 443.08 C 201.92 443.49 202.51 444.32 202.81 444.74 C 204.87 449.96 206.81 455.36 210.05 460.00 C 211.25 458.76 212.30 457.39 213.37 456.04 C 213.44 455.60 213.58 454.70 213.65 454.26 C 214.54 452.88 215.32 451.44 216.18 450.05 C 216.32 449.64 216.61 448.82 216.75 448.42 C 217.56 446.99 218.30 445.53 219.10 444.12 C 222.25 438.64 225.78 433.39 228.68 427.78 C 230.90 424.42 233.05 421.02 235.38 417.75 C 237.02 414.99 239.05 412.49 240.72 409.76 C 241.90 408.15 243.03 406.51 244.27 404.96 C 245.96 402.55 248.20 400.32 248.95 397.39 C 239.37 392.37 228.72 389.75 219.00 385.02 C 218.18 384.00 217.36 382.98 216.52 382.00 C 216.48 380.85 216.46 379.70 216.43 378.55 C 217.52 377.26 218.51 375.85 219.84 374.79 C 227.56 369.98 235.50 365.53 243.20 360.69 C 243.49 360.11 244.06 358.95 244.35 358.37 C 241.99 353.07 240.13 347.55 237.68 342.29 C 236.60 337.34 234.35 332.78 233.15 327.87 C 232.80 326.55 232.46 325.24 232.09 323.93 C 231.33 321.29 231.11 318.51 230.02 315.96 C 229.74 314.39 229.49 312.83 229.27 311.26 L 228.64 311.71 C 228.49 309.61 228.24 307.52 227.56 305.53 C 225.14 293.61 223.51 281.52 222.39 269.40 C 223.21 268.25 223.99 267.08 224.72 265.87 C 227.82 265.08 231.26 264.60 234.12 266.39 C 237.10 268.88 240.57 270.69 243.56 273.18 C 258.42 283.22 272.84 294.05 285.79 306.49 C 290.11 310.31 294.09 314.50 297.81 318.91 C 299.96 320.74 301.40 323.51 304.10 324.61 C 312.76 320.80 320.43 314.97 329.00 310.93 C 330.59 310.06 332.41 310.58 334.12 310.67 C 338.60 316.54 333.26 323.47 334.34 329.95 C 332.94 332.84 333.08 336.15 332.28 339.21 C 331.42 342.60 331.30 346.10 331.48 349.58 C 341.67 349.92 351.80 348.29 361.99 348.55 C 376.02 347.34 390.04 349.42 404.06 349.16 C 401.60 343.81 398.25 338.92 395.11 333.96 C 394.41 332.90 393.70 331.85 392.99 330.81 C 391.66 328.55 390.45 326.23 389.13 323.98 C 388.02 322.34 386.97 320.67 386.02 318.95 C 382.78 312.97 379.75 306.89 376.49 300.93 C 373.55 295.79 372.05 289.55 367.69 285.40 C 366.70 286.07 365.72 286.74 364.74 287.43 C 360.26 292.08 355.02 295.91 350.29 300.31 C 346.86 302.79 343.55 307.03 338.89 306.42 C 335.33 305.56 335.19 301.93 335.36 298.94 C 333.60 289.68 334.78 280.20 334.39 270.83 C 332.66 270.26 330.94 269.54 329.09 269.61 C 319.61 269.43 310.14 268.48 300.92 266.25 C 294.39 265.80 288.35 263.25 281.98 262.06 C 273.13 259.23 264.29 256.12 256.06 251.80 C 252.74 250.72 249.23 249.60 247.84 246.04 C 247.80 245.12 247.73 243.29 247.69 242.38 C 249.76 239.81 252.76 238.42 255.47 236.68 C 260.69 234.36 265.48 231.13 270.90 229.25 C 286.79 221.88 303.12 215.32 320.10 210.93 C 324.17 209.35 328.63 209.20 332.68 207.53 C 332.85 206.01 333.06 204.51 333.26 203.00 C 332.47 197.04 332.99 191.01 332.82 185.02 C 332.59 182.27 333.66 179.72 334.57 177.20 C 336.74 175.83 339.20 175.34 341.74 175.52 C 346.47 179.36 351.21 183.19 355.86 187.12 C 358.84 189.64 361.36 192.89 365.11 194.33 C 367.10 190.91 368.96 187.40 370.64 183.81 C 371.72 181.97 372.73 180.08 373.61 178.13 C 373.81 177.81 374.22 177.18 374.42 176.86 C 375.30 175.10 376.29 173.40 377.42 171.79 C 380.26 166.83 382.50 161.46 386.20 157.05 C 388.47 151.88 392.30 147.66 395.09 142.79 C 396.40 141.14 397.68 139.48 398.99 137.82 C 399.52 136.90 400.04 135.97 400.57 135.04 C 401.32 133.80 402.01 132.53 402.71 131.26 C 395.81 131.34 388.90 131.13 382.02 131.73 C 368.33 131.88 354.65 131.50 341.01 130.39 C 337.51 130.23 334.01 128.77 330.52 129.70 C 328.89 132.98 330.09 137.07 331.30 140.34 C 331.50 142.67 331.05 145.23 332.48 147.28 C 333.11 151.47 332.87 155.88 334.35 159.90 C 334.39 161.27 334.43 162.64 334.46 164.01 C 333.04 166.41 330.94 168.78 327.86 168.62 C 324.98 168.08 322.40 166.59 320.08 164.86 C 315.58 162.67 311.53 159.64 306.96 157.60 C 304.11 156.69 302.43 159.55 300.61 161.15 C 295.71 168.29 288.86 173.85 282.89 180.07 C 280.87 182.02 278.79 183.90 276.72 185.78 C 273.79 188.17 271.21 190.96 268.16 193.21 C 265.60 195.23 263.03 197.25 260.48 199.29 C 259.01 200.18 257.59 201.14 256.20 202.14 C 250.02 207.50 242.91 211.58 236.21 216.24 C 232.96 218.50 227.70 219.71 225.42 215.52 C 225.77 209.99 224.62 204.28 226.33 198.91 C 227.49 194.68 226.16 190.18 227.52 185.97 C 228.55 182.73 228.52 179.32 228.42 175.95 C 228.66 175.63 229.14 174.97 229.38 174.64 C 229.62 171.72 229.88 168.80 229.92 165.87 C 232.44 160.44 231.59 153.94 234.28 148.56 C 234.36 147.32 234.42 146.08 234.50 144.85 C 235.21 143.47 235.73 142.00 236.14 140.50 C 236.55 139.77 236.96 139.05 237.39 138.33 C 237.38 137.06 237.39 135.79 237.40 134.53 C 237.70 134.22 238.29 133.59 238.59 133.27 C 238.96 130.50 239.95 127.88 240.67 125.20 C 241.68 123.49 241.87 121.54 241.94 119.60 C 239.87 117.72 237.45 116.32 234.95 115.10 C 229.27 111.05 222.42 108.65 217.83 103.18 C 217.85 102.36 217.88 101.53 217.91 100.70 C 218.49 99.68 219.07 98.65 219.64 97.62 C 220.69 96.94 221.70 96.18 222.86 95.68 C 230.73 92.68 238.85 90.28 246.47 86.67 C 246.39 85.83 246.30 84.99 246.22 84.16 C 245.61 83.14 245.04 82.10 244.51 81.05 C 243.46 79.32 242.40 77.59 241.26 75.92 C 240.00 74.27 238.83 72.55 237.67 70.83 C 236.48 68.54 235.29 66.26 233.99 64.03 C 232.59 62.03 231.26 59.98 229.94 57.94 C 229.79 56.93 229.65 55.92 229.51 54.91 C 227.74 53.61 226.70 51.68 225.68 49.80 C 220.72 40.67 216.46 31.18 211.52 22.05 C 211.01 22.13 210.00 22.29 209.50 22.38 Z" />
</g>
</svg>
