<?xml version="1.0" encoding="UTF-8" ?>
<!DOCTYPE svg PUBLIC "-//W3C//DTD SVG 1.1//EN" "http://www.w3.org/Graphics/SVG/1.1/DTD/svg11.dtd">
<svg width="305pt" height="265pt" viewBox="0 0 305 265" version="1.1" xmlns="http://www.w3.org/2000/svg">
<g id="#ffffffff">
</g>
<g id="#232323ff">
<path fill="#232323" opacity="1.00" d=" M 83.35 10.00 C 85.13 9.73 86.92 9.74 88.60 10.45 C 92.32 17.26 96.80 23.63 100.34 30.55 C 101.88 32.70 102.79 35.04 101.41 37.53 C 101.77 37.71 102.49 38.07 102.85 38.25 C 102.68 39.80 100.25 39.25 99.26 40.05 C 99.06 41.65 97.60 43.27 98.28 44.85 C 103.00 51.34 106.52 58.58 110.75 65.38 C 112.49 68.50 113.55 72.86 117.79 73.07 C 118.49 71.42 119.58 69.87 119.88 68.09 C 115.43 58.60 109.44 49.95 104.09 40.97 C 103.75 37.48 104.01 33.93 102.87 30.55 C 103.99 29.25 105.01 27.87 106.07 26.53 C 106.96 23.01 109.44 20.21 110.96 16.96 C 112.11 14.16 115.36 13.90 117.87 13.11 C 119.30 14.72 120.02 16.88 120.41 18.97 C 120.29 22.23 117.80 24.72 116.23 27.41 C 116.01 27.93 115.58 28.97 115.37 29.49 C 114.77 30.60 114.05 31.64 113.15 32.54 C 112.75 33.63 112.36 34.73 111.99 35.83 C 110.48 38.28 107.54 38.50 105.03 39.23 C 107.50 43.33 110.44 47.15 112.39 51.53 C 115.41 56.04 118.17 60.72 120.87 65.41 C 122.68 68.16 120.28 71.13 119.04 73.55 C 123.57 72.81 128.24 72.73 132.81 73.16 C 132.92 73.45 133.16 74.04 133.28 74.33 C 128.31 74.44 123.35 74.62 118.38 74.75 C 115.98 80.62 111.42 85.33 109.44 91.40 C 116.31 95.64 121.17 102.42 127.61 107.25 C 128.87 108.10 129.85 109.25 130.59 110.59 C 130.87 110.40 131.44 110.02 131.72 109.84 C 126.26 105.11 121.09 100.02 116.26 94.66 C 111.76 92.26 115.86 87.41 117.70 84.59 C 118.87 82.21 120.41 80.06 122.04 77.97 C 126.69 77.88 131.35 78.24 136.00 78.01 C 140.23 85.63 141.24 94.44 144.47 102.46 C 144.69 102.10 145.13 101.38 145.36 101.03 C 142.49 92.23 139.78 83.36 137.40 74.42 C 136.18 74.28 134.97 74.12 133.76 73.95 C 133.76 73.55 133.75 72.76 133.75 72.36 C 130.65 71.44 130.16 68.23 129.03 65.66 C 128.98 64.57 128.95 63.48 128.91 62.39 C 130.70 60.48 132.61 58.70 134.51 56.91 C 136.87 58.14 139.30 59.21 141.79 60.17 C 142.45 62.22 143.11 64.26 143.79 66.31 C 143.12 66.34 141.79 66.39 141.12 66.41 C 141.40 63.49 140.33 60.65 137.36 59.70 C 134.67 57.64 132.16 60.86 130.74 62.88 C 129.33 64.63 131.20 66.77 131.39 68.66 C 133.54 69.77 135.71 71.21 138.15 71.49 C 140.42 70.04 142.00 67.62 144.49 66.44 C 144.61 70.28 140.46 71.16 139.09 74.10 C 140.29 78.39 141.12 82.80 142.88 86.92 C 145.02 91.78 145.11 97.44 148.17 101.91 C 151.73 101.55 155.31 101.63 158.88 101.73 C 159.56 100.44 159.34 98.48 160.82 97.75 L 161.44 97.78 C 161.33 98.72 161.10 100.59 160.98 101.53 C 163.02 101.44 165.07 101.47 167.09 101.84 C 168.61 99.91 169.76 97.72 170.67 95.43 C 173.13 90.38 176.08 85.58 178.83 80.69 C 178.86 80.31 178.91 79.56 178.94 79.19 C 174.42 79.73 169.87 79.51 165.35 80.07 C 164.45 85.47 163.10 90.79 162.14 96.19 C 161.88 96.11 161.36 95.95 161.09 95.87 C 160.99 95.55 160.78 94.91 160.67 94.59 C 161.46 89.75 162.62 84.98 163.71 80.21 C 163.56 79.66 163.26 78.56 163.11 78.00 C 169.31 78.24 175.51 77.38 181.68 77.92 C 182.31 79.09 182.99 80.25 183.70 81.38 C 185.65 84.25 187.69 87.06 189.30 90.14 C 186.86 93.94 183.85 97.46 180.35 100.33 C 178.70 102.02 176.97 103.65 175.39 105.42 C 174.48 106.22 173.51 106.96 172.50 107.62 C 173.50 104.56 176.03 102.41 178.28 100.25 C 181.75 97.31 184.83 93.75 187.17 89.85 C 185.77 87.86 184.57 85.73 183.20 83.72 C 182.51 82.48 181.81 81.24 181.12 80.01 C 177.25 86.72 173.90 93.71 170.04 100.43 C 168.13 102.86 170.31 105.74 171.92 107.67 C 173.45 111.89 176.36 115.41 178.34 119.42 C 183.33 118.14 188.03 115.92 193.05 114.72 C 192.78 115.26 192.26 116.35 191.99 116.89 C 188.22 117.95 184.24 118.64 180.92 120.89 C 185.75 119.48 190.51 117.83 195.29 116.26 C 195.87 116.52 197.03 117.03 197.62 117.29 C 192.26 119.50 186.70 121.23 181.03 122.41 C 180.45 124.86 183.10 126.61 183.46 128.98 C 192.35 128.68 201.29 128.96 210.14 127.94 C 207.63 123.87 205.04 119.85 202.58 115.75 C 201.11 116.47 199.56 117.08 197.92 117.30 C 198.12 114.21 200.97 115.24 203.07 115.29 C 202.50 114.82 201.35 113.87 200.78 113.40 C 198.20 114.66 195.51 115.71 192.66 116.16 C 196.11 112.05 202.31 112.34 206.85 109.77 C 206.93 108.72 207.01 107.66 207.11 106.61 C 207.85 105.10 208.49 103.53 209.14 101.97 C 211.56 101.01 213.93 99.14 216.54 99.09 C 218.91 101.30 221.85 102.79 224.10 105.12 C 222.60 107.18 221.96 109.65 221.10 112.00 C 219.19 113.17 216.87 113.53 214.88 114.59 C 213.91 114.38 211.96 113.97 210.99 113.77 C 214.72 118.69 216.73 124.72 221.01 129.26 C 221.89 128.20 221.91 125.96 223.59 125.84 C 229.06 125.30 234.52 126.23 239.99 125.93 C 244.07 125.85 248.14 125.18 252.23 125.43 C 251.44 123.23 250.97 120.94 250.55 118.65 C 253.30 113.58 257.34 109.25 259.63 103.96 C 262.20 102.92 264.86 102.11 267.35 100.88 C 267.84 103.21 268.26 105.55 268.66 107.90 C 266.00 112.15 263.42 116.44 260.81 120.72 C 259.20 122.83 257.23 124.57 254.59 125.22 C 255.62 123.68 256.97 122.41 258.50 121.40 C 260.56 115.26 267.62 110.72 265.88 103.64 C 262.88 104.11 259.31 105.22 258.17 108.37 C 256.57 112.19 253.48 115.20 252.10 119.09 C 252.68 121.94 253.47 124.74 254.27 127.54 C 254.81 127.15 255.88 126.38 256.41 125.99 C 266.41 125.95 276.41 126.00 286.41 125.90 C 286.82 127.26 287.37 128.56 288.07 129.80 C 287.92 131.73 287.40 133.74 285.85 135.04 C 278.93 136.48 271.84 134.49 264.87 135.43 C 261.81 135.86 258.57 135.83 255.95 133.96 C 256.72 133.44 257.50 132.93 258.28 132.42 L 258.08 134.02 C 267.30 133.19 276.65 134.35 285.79 132.71 C 287.80 130.83 285.05 127.70 282.86 127.61 C 274.18 127.14 265.40 128.12 256.78 127.46 C 256.37 130.04 254.97 132.12 253.26 134.03 C 255.32 135.16 258.01 135.69 259.18 137.95 C 260.80 140.68 262.26 143.51 263.79 146.31 C 264.75 148.11 265.77 149.90 266.96 151.57 C 266.97 153.98 267.28 156.44 266.70 158.81 C 264.26 157.88 261.89 156.78 259.19 156.98 C 257.52 152.50 254.02 149.00 252.61 144.40 C 250.60 141.99 249.58 138.92 250.71 135.85 C 241.97 135.66 233.22 136.32 224.48 135.86 C 224.55 136.34 224.69 137.30 224.76 137.78 C 224.31 135.55 219.28 135.87 221.87 133.31 C 221.21 132.46 220.55 131.61 219.90 130.77 C 219.73 135.94 215.32 139.61 213.62 144.30 C 215.16 143.28 216.45 141.76 218.30 141.27 C 221.49 141.89 225.51 142.83 226.59 146.38 C 227.23 148.48 229.24 150.38 228.92 152.65 C 226.79 154.17 224.34 155.24 222.53 157.18 C 219.12 156.78 216.02 155.16 212.77 154.17 C 212.03 151.71 211.24 149.28 210.68 146.78 C 206.83 146.00 202.84 145.90 199.17 144.38 C 196.08 143.67 193.12 142.48 189.97 142.04 C 185.69 141.51 181.86 139.14 177.52 138.90 C 176.25 141.36 174.85 143.75 173.28 146.04 C 174.31 146.90 175.34 147.77 176.38 148.64 C 177.74 149.20 178.75 150.23 179.49 151.48 C 183.72 154.46 187.06 158.60 191.64 161.14 C 193.17 163.91 195.77 165.90 198.15 167.92 C 201.42 168.10 204.52 166.86 207.67 166.18 C 209.73 168.26 211.84 170.29 213.96 172.31 C 212.52 175.23 213.80 178.73 211.92 181.48 C 209.10 182.35 206.07 183.79 203.32 181.92 C 201.80 180.39 198.92 179.74 198.73 177.30 C 198.45 175.91 198.83 174.49 198.84 173.11 C 197.12 174.37 196.09 176.27 195.15 178.14 C 193.23 182.15 190.73 185.86 188.65 189.79 C 190.09 189.62 191.52 189.44 192.96 189.25 C 198.06 195.70 201.02 203.49 206.02 210.00 C 207.14 211.43 208.13 212.95 208.81 214.65 C 211.04 213.20 212.80 211.18 214.33 209.03 C 219.23 208.93 224.12 209.21 229.01 209.02 C 231.58 210.18 233.81 212.15 235.36 214.53 C 234.16 215.67 232.96 216.80 231.75 217.93 C 229.88 218.54 227.98 219.25 225.97 219.00 C 222.06 218.78 218.11 219.36 214.23 218.71 C 212.08 217.83 210.06 216.02 207.59 216.89 C 209.05 217.94 210.94 218.60 211.75 220.35 C 216.36 227.82 220.43 235.60 224.95 243.12 C 225.46 245.49 224.24 247.95 223.12 250.00 C 221.23 249.75 219.33 249.49 217.42 249.61 C 213.69 241.95 208.75 234.96 204.68 227.47 C 204.12 226.39 202.80 225.50 203.00 224.16 C 203.75 222.59 204.67 221.10 205.43 219.53 C 204.44 219.68 202.45 219.99 201.46 220.14 C 201.11 221.93 201.01 223.75 201.88 225.43 C 201.19 227.44 200.29 229.37 198.92 231.01 C 196.17 234.40 194.72 238.65 191.84 241.94 C 190.19 243.03 188.10 243.05 186.24 243.60 C 185.36 241.10 184.84 238.50 184.01 235.99 C 187.75 231.55 189.96 226.10 193.50 221.50 C 195.43 220.68 197.34 219.84 199.23 218.92 C 198.20 217.18 197.14 215.46 196.18 213.69 C 192.28 207.65 189.21 201.05 184.84 195.33 C 185.03 193.72 185.54 192.18 186.07 190.66 C 179.68 191.06 173.18 190.45 166.88 191.48 C 166.78 190.57 166.68 189.66 166.58 188.75 C 173.57 189.10 180.57 189.06 187.56 188.96 C 190.97 182.62 194.23 176.18 198.08 170.09 C 191.58 164.21 185.17 158.23 178.34 152.73 C 176.18 150.98 174.47 148.50 171.69 147.68 C 172.13 149.61 173.90 150.58 175.21 151.84 C 177.37 153.81 179.43 155.89 181.49 157.96 C 183.51 159.79 185.37 161.79 187.41 163.61 C 189.77 165.24 191.58 167.52 193.25 169.82 C 192.12 171.76 190.81 173.59 189.74 175.57 C 187.88 178.81 185.97 182.03 183.78 185.05 C 176.75 185.01 169.73 184.98 162.71 184.91 C 163.15 186.15 163.67 187.37 164.21 188.58 C 165.17 189.43 166.04 190.40 166.56 191.59 C 167.85 192.08 169.14 192.57 170.43 193.07 C 171.20 195.28 171.99 197.48 172.75 199.70 C 171.27 202.44 169.37 204.90 167.07 206.99 C 164.57 206.12 161.96 205.61 159.52 204.61 C 158.22 201.43 156.27 197.72 158.28 194.42 C 160.12 193.51 161.42 191.90 162.83 190.46 C 160.64 183.52 158.19 176.64 156.65 169.52 C 155.23 165.74 153.97 161.90 152.83 158.02 C 151.15 158.02 149.47 158.02 147.80 158.01 C 146.63 166.05 144.73 174.00 143.94 182.11 C 143.80 183.64 143.22 185.09 142.79 186.57 C 140.71 190.05 145.62 193.05 148.24 194.62 C 147.19 197.52 146.37 200.50 146.16 203.60 C 143.69 204.13 141.56 206.05 139.00 205.99 C 137.05 204.11 135.05 202.28 132.75 200.82 C 133.32 198.37 133.86 195.89 134.75 193.53 C 135.82 192.58 137.05 191.84 138.21 191.00 C 131.92 191.07 125.63 190.94 119.34 191.08 C 120.17 192.25 121.04 193.40 121.92 194.53 C 120.99 195.77 120.22 197.11 119.68 198.57 C 117.98 201.22 116.43 203.97 114.85 206.70 C 113.29 210.61 110.50 213.85 108.79 217.69 C 110.73 218.44 112.67 219.20 114.64 219.88 C 116.45 224.30 119.18 228.25 121.33 232.50 C 122.15 234.17 122.91 235.87 123.80 237.51 C 123.17 239.49 122.61 241.49 122.12 243.51 C 119.94 243.08 117.73 242.64 115.76 241.57 C 114.02 238.36 111.85 235.37 110.48 231.97 L 110.00 232.71 C 109.59 230.39 108.41 228.34 106.99 226.50 C 107.03 223.98 107.21 221.47 107.65 219.00 C 106.05 219.01 104.45 219.01 102.85 218.99 C 103.59 220.93 105.12 222.73 105.09 224.86 C 102.58 228.60 100.78 232.76 98.27 236.50 C 95.33 241.78 93.07 247.48 89.12 252.13 C 87.10 251.72 85.07 251.34 83.04 250.97 C 82.17 249.27 81.22 247.57 80.84 245.67 C 83.73 240.62 86.80 235.63 89.28 230.36 C 90.35 228.73 91.33 227.04 92.26 225.34 C 93.63 222.91 94.92 220.44 96.18 217.96 C 98.45 218.37 100.13 217.67 100.82 215.39 C 101.28 218.23 104.08 217.90 106.07 217.20 C 109.79 212.39 112.88 207.08 115.65 201.66 C 116.26 200.24 117.47 199.25 118.62 198.27 L 117.68 196.97 L 119.97 196.90 C 119.62 195.18 119.19 193.48 118.83 191.76 C 117.38 191.18 115.82 191.24 114.29 191.24 C 111.73 193.22 110.63 196.30 109.10 199.03 C 106.39 203.46 104.18 208.19 101.13 212.41 C 101.04 213.11 100.85 214.53 100.76 215.23 C 100.17 215.26 99.00 215.30 98.41 215.33 C 96.81 216.93 94.87 218.10 92.87 219.15 C 88.16 218.62 83.42 219.20 78.71 218.90 C 77.42 218.99 76.14 219.03 74.86 219.01 C 73.45 217.56 72.38 215.81 70.95 214.39 C 69.77 211.41 73.04 210.25 75.07 208.95 C 81.06 209.06 87.06 209.00 93.05 208.99 C 95.72 208.93 97.29 211.50 99.34 212.77 C 101.10 209.99 102.75 207.12 104.77 204.51 C 104.87 203.99 105.07 202.95 105.17 202.43 C 105.93 201.44 106.66 200.43 107.32 199.37 C 109.25 196.24 110.53 192.70 113.04 189.96 C 114.57 189.96 116.09 189.96 117.61 189.95 C 115.88 186.21 113.67 182.73 111.75 179.09 C 111.48 179.22 110.95 179.50 110.68 179.63 C 111.09 177.64 109.85 175.91 108.75 174.39 C 108.88 173.85 109.15 172.78 109.29 172.24 C 111.02 174.44 112.23 176.98 113.68 179.37 C 115.05 182.20 117.10 184.63 118.39 187.51 C 118.63 188.13 119.09 189.38 119.33 190.00 C 126.26 190.05 133.18 189.37 140.11 189.66 C 143.09 180.58 143.25 170.89 145.67 161.68 C 145.76 160.97 145.95 159.53 146.04 158.82 C 145.52 158.57 144.48 158.09 143.96 157.84 C 144.41 162.36 142.28 166.55 141.85 171.00 C 140.78 175.41 139.82 179.85 139.63 184.41 C 133.58 185.56 127.32 184.65 121.19 184.57 C 121.43 183.91 121.67 183.24 121.92 182.58 C 118.80 178.63 116.45 174.18 113.86 169.90 C 113.91 169.33 114.01 168.18 114.06 167.61 C 120.52 162.68 125.23 155.96 131.04 150.36 C 129.80 147.28 127.88 151.59 126.41 152.40 C 125.57 153.22 124.74 154.05 123.90 154.87 C 121.10 158.36 117.41 161.00 114.63 164.51 C 113.75 165.70 112.59 166.63 111.30 167.33 C 110.59 168.02 109.91 168.73 109.25 169.48 C 107.69 171.63 109.39 174.84 107.29 176.76 C 107.81 177.03 108.86 177.56 109.39 177.83 C 107.02 180.00 105.05 182.56 102.62 184.66 C 99.75 184.20 96.85 184.07 93.97 183.76 C 93.66 180.87 94.92 177.49 92.82 175.08 C 93.73 174.47 94.64 173.87 95.56 173.28 C 96.49 171.75 97.71 170.44 99.05 169.27 C 101.47 170.11 104.03 170.00 106.55 170.00 C 110.04 166.97 113.51 163.88 116.24 160.12 C 120.57 155.85 125.53 152.07 128.99 147.02 C 127.88 144.94 126.65 142.91 125.15 141.09 C 123.95 141.61 122.78 142.21 121.60 142.79 C 115.37 144.52 109.32 146.94 103.16 148.90 C 99.75 149.35 95.38 150.78 94.79 154.68 C 93.97 158.91 89.50 160.01 85.93 160.99 C 82.74 160.94 80.63 158.12 78.23 156.40 C 79.11 153.75 79.92 151.07 80.86 148.44 C 82.65 147.23 84.85 146.60 86.91 145.96 C 89.44 145.48 91.19 148.57 93.77 147.61 C 89.23 143.78 88.10 137.44 83.83 133.47 C 83.81 134.35 83.77 136.10 83.75 136.97 C 74.52 137.47 65.15 136.17 56.01 137.71 C 55.44 137.48 54.30 137.01 53.73 136.77 C 52.76 138.73 53.04 140.88 53.68 142.89 C 49.77 147.93 47.92 154.76 42.30 158.30 C 41.25 159.01 38.86 160.32 38.79 158.06 C 39.74 156.70 41.73 156.92 43.08 156.14 C 44.70 155.65 45.00 153.85 45.71 152.55 C 46.98 149.01 49.92 146.38 51.26 142.87 C 51.39 140.91 51.27 138.95 51.35 136.99 C 48.91 138.49 45.37 139.37 44.70 142.58 C 42.62 145.94 40.82 149.53 37.96 152.32 C 40.74 146.65 43.10 139.92 49.06 136.83 C 50.44 136.25 50.70 135.29 49.81 133.94 C 47.87 133.64 47.15 135.84 46.03 137.00 C 39.34 137.11 32.65 137.29 25.99 137.91 C 22.97 137.04 18.33 139.08 16.65 135.59 C 15.81 134.13 15.30 132.51 14.69 130.95 C 15.44 129.62 16.13 128.23 17.08 127.02 C 26.18 127.38 35.29 127.23 44.38 126.54 C 46.80 126.35 47.98 128.50 49.13 130.24 C 49.47 129.53 50.16 128.10 50.50 127.38 C 43.95 126.11 41.71 119.45 38.33 114.62 C 36.07 112.41 36.74 108.91 37.26 106.12 C 39.88 106.38 43.40 106.24 44.89 108.89 C 47.67 113.22 50.58 117.47 53.27 121.86 C 52.55 124.04 51.98 126.32 52.17 128.64 C 54.41 127.96 56.63 126.83 59.05 127.12 C 66.73 127.29 74.40 127.00 82.09 126.95 C 83.12 128.44 84.14 129.94 85.18 131.43 C 85.44 130.67 85.96 129.15 86.22 128.39 C 87.06 127.13 87.85 125.84 88.62 124.53 C 90.18 120.75 93.09 117.65 94.23 113.65 C 92.20 113.78 91.48 115.67 90.58 117.16 C 87.56 117.37 84.89 115.96 82.17 114.89 C 81.92 114.33 81.41 113.22 81.16 112.66 C 80.85 111.04 80.43 109.45 79.95 107.87 C 80.54 106.93 81.02 105.93 81.47 104.92 C 84.39 102.77 88.40 100.52 91.55 103.56 C 94.53 104.22 95.42 107.01 95.15 109.76 C 98.74 113.18 104.19 112.64 108.51 114.67 C 114.60 115.77 120.27 119.07 126.53 119.02 C 126.96 117.68 127.70 116.50 128.64 115.46 C 129.11 114.17 129.62 112.88 130.12 111.60 C 126.40 109.55 123.93 105.95 120.66 103.33 C 116.83 99.30 112.36 95.97 108.49 92.00 C 105.87 91.89 103.28 92.15 100.81 93.06 C 98.47 91.87 97.06 89.44 94.81 88.07 C 94.60 87.12 94.39 86.17 94.19 85.23 C 94.73 83.65 95.00 82.01 95.16 80.36 C 95.50 79.84 96.19 78.80 96.53 78.28 C 98.47 78.08 100.44 77.94 102.22 77.06 C 103.37 77.76 104.52 78.47 105.71 79.11 C 106.90 80.14 108.02 81.24 109.11 82.38 C 109.03 84.08 108.94 85.77 108.87 87.47 C 112.29 83.54 113.96 78.39 117.08 74.21 C 115.24 73.38 112.46 73.39 111.78 71.06 C 108.22 63.83 104.09 56.90 99.80 50.08 C 99.33 49.20 98.98 48.27 98.75 47.30 C 98.08 46.50 97.48 45.64 96.67 44.99 C 96.17 45.46 95.19 46.42 94.70 46.90 C 91.80 48.29 88.56 48.24 85.46 47.71 C 81.13 46.98 76.73 46.94 72.35 47.00 C 71.03 45.33 69.51 43.85 67.90 42.46 C 69.57 41.24 71.14 39.88 72.86 38.74 C 74.84 38.42 76.90 38.85 78.86 39.21 C 78.80 39.45 78.68 39.91 78.62 40.15 C 75.69 40.41 72.05 38.99 70.13 42.02 C 70.83 42.96 71.55 43.88 72.29 44.78 C 72.78 44.90 73.76 45.14 74.25 45.26 C 76.59 45.17 78.93 45.38 81.26 45.54 C 81.30 45.23 81.37 44.62 81.40 44.31 C 81.68 44.89 81.95 45.46 82.22 46.04 C 86.06 45.92 89.89 46.08 93.72 45.95 C 95.46 43.98 97.36 42.10 98.38 39.61 C 96.20 39.37 93.97 38.81 91.80 39.47 C 92.62 40.38 94.24 40.70 94.74 41.81 C 92.43 41.92 90.35 40.07 87.99 40.85 C 85.34 40.73 82.69 40.76 80.05 40.48 C 80.07 40.17 80.09 39.54 80.11 39.23 C 84.47 40.01 89.07 39.90 93.09 37.85 C 90.07 33.72 87.94 29.03 85.21 24.72 C 84.96 24.21 84.47 23.20 84.23 22.70 C 82.79 20.29 81.32 17.89 80.33 15.26 C 81.39 13.54 82.47 11.82 83.35 10.00 M 82.52 13.56 C 80.77 16.95 84.36 19.52 85.62 22.36 C 88.40 27.59 91.53 32.63 94.27 37.87 C 95.84 38.00 97.41 38.18 98.97 38.40 C 99.63 37.15 100.28 35.88 100.94 34.62 C 96.10 26.44 91.34 18.20 85.93 10.39 C 84.19 10.66 83.36 12.21 82.52 13.56 M 114.33 15.00 C 110.27 20.03 107.58 25.99 103.97 31.34 C 104.28 33.25 104.73 35.14 105.19 37.02 C 105.93 37.01 107.41 37.00 108.15 36.99 C 110.62 35.29 111.30 32.28 112.86 29.89 C 115.08 26.58 116.55 22.79 119.17 19.74 C 118.58 18.44 118.01 17.14 117.49 15.82 C 116.44 15.54 115.38 15.27 114.33 15.00 M 98.11 79.12 C 95.35 80.19 95.45 83.64 95.13 86.09 C 96.93 87.23 98.32 88.90 100.05 90.12 C 102.28 91.08 104.73 90.32 106.95 89.73 C 106.67 86.75 108.06 83.00 105.37 80.82 C 103.75 78.33 100.62 79.02 98.11 79.12 M 123.45 80.03 C 124.56 81.79 125.63 83.58 126.74 85.35 C 129.19 89.46 131.70 93.55 134.41 97.50 C 134.88 98.58 135.33 99.67 135.75 100.78 C 137.89 101.25 140.05 101.60 142.21 101.99 C 140.08 94.65 137.32 87.44 135.69 79.99 C 131.61 79.90 127.53 79.98 123.45 80.03 M 121.57 80.71 C 120.05 84.81 117.59 88.43 115.13 92.00 C 116.25 92.87 117.37 93.74 118.50 94.59 C 122.22 99.93 128.18 103.16 132.22 108.23 C 133.26 106.53 134.29 104.82 135.29 103.10 C 130.79 95.59 126.50 87.95 121.57 80.71 M 209.94 103.37 C 208.96 105.16 208.92 107.31 208.35 109.24 C 209.84 110.24 211.27 111.43 212.99 112.01 C 215.09 111.77 217.10 111.06 219.19 110.72 C 219.79 108.56 220.52 106.44 221.34 104.36 C 219.64 103.16 218.33 100.95 216.03 100.98 C 213.85 101.26 211.84 102.31 209.94 103.37 M 85.52 103.51 C 82.68 104.19 80.85 107.38 82.19 110.13 C 82.49 113.10 85.36 114.52 88.00 114.97 C 90.23 114.02 92.25 112.67 94.50 111.76 C 92.88 110.60 92.88 108.74 92.90 106.95 C 92.62 106.52 92.07 105.67 91.80 105.25 C 89.82 104.40 87.78 102.06 85.52 103.51 M 136.42 104.09 C 134.83 107.76 132.67 111.15 130.76 114.66 C 127.63 120.22 124.36 125.71 121.53 131.44 C 127.27 139.41 131.22 148.49 136.85 156.51 C 138.32 157.71 136.96 159.30 136.39 160.55 C 136.13 161.02 135.59 161.97 135.32 162.44 C 134.40 164.15 133.31 165.76 132.29 167.41 C 129.17 172.51 126.76 178.02 123.45 183.00 C 128.27 182.95 133.09 183.07 137.90 182.89 C 138.43 178.91 138.99 174.91 140.30 171.10 C 141.57 166.93 140.87 162.15 143.39 158.40 C 141.65 158.56 139.83 159.42 138.10 158.78 C 138.20 158.45 138.40 157.79 138.50 157.46 C 141.23 156.87 144.02 156.61 146.80 156.32 C 152.80 155.48 158.89 156.29 164.92 155.87 C 169.04 151.48 171.00 145.56 174.39 140.63 C 177.01 136.85 178.94 132.67 181.22 128.69 C 179.12 122.04 174.33 116.79 171.34 110.57 C 170.08 108.09 168.58 105.74 167.24 103.30 C 161.38 103.20 155.52 103.44 149.67 103.43 C 145.26 104.17 140.69 102.47 136.42 104.09 M 37.57 111.00 C 40.17 114.84 42.44 118.91 45.28 122.58 C 46.76 124.22 48.67 125.78 50.96 125.98 C 52.27 120.79 46.89 117.14 45.25 112.61 C 44.22 109.82 41.38 108.61 39.06 107.10 C 38.53 108.39 38.04 109.69 37.57 111.00 M 202.97 113.47 C 205.94 116.90 207.51 121.23 210.22 124.85 C 211.70 126.68 212.54 129.52 215.36 129.60 C 213.41 134.38 210.75 138.81 207.92 143.11 C 204.68 142.02 201.34 141.25 197.95 140.89 C 191.61 138.85 185.14 137.24 178.62 135.92 C 178.83 136.34 179.27 137.18 179.48 137.60 C 190.21 139.95 200.69 143.39 211.57 145.04 C 213.52 140.13 216.39 135.67 219.18 131.21 C 218.86 129.39 217.62 127.95 216.68 126.43 C 213.21 121.61 211.25 115.91 207.89 111.01 C 206.25 111.83 204.60 112.63 202.97 113.47 M 96.36 112.85 C 93.82 119.74 89.37 125.65 86.06 132.16 C 86.79 134.46 88.29 136.42 89.34 138.58 C 91.49 142.09 94.08 145.38 95.56 149.26 C 102.71 147.61 109.49 144.73 116.48 142.55 C 119.41 141.68 122.02 139.76 125.19 139.82 C 124.84 139.45 124.15 138.72 123.81 138.36 C 122.43 138.85 121.03 139.28 119.66 139.79 C 114.41 141.25 109.14 142.62 103.92 144.17 C 102.26 144.60 99.82 145.17 98.73 143.41 C 96.02 139.85 93.57 135.98 91.97 131.78 C 92.35 130.31 92.96 128.91 93.67 127.58 C 94.59 126.13 95.46 124.65 96.32 123.17 C 97.53 121.68 97.84 119.45 99.69 118.54 C 99.31 117.91 98.57 116.64 98.20 116.01 C 104.39 117.24 110.56 118.89 116.60 120.75 C 119.61 120.80 122.52 121.55 125.46 122.12 C 125.22 121.83 124.73 121.26 124.49 120.97 C 115.03 118.55 105.84 115.21 96.36 112.85 M 100.92 118.04 C 98.35 122.36 96.38 126.98 93.80 131.29 C 97.70 129.65 101.87 131.08 105.92 130.45 C 110.51 129.85 115.18 130.05 119.77 130.59 C 121.23 128.31 122.13 125.74 123.21 123.28 C 115.67 122.08 108.17 120.46 100.92 118.04 M 224.10 127.49 C 222.48 128.27 221.59 130.01 220.45 131.32 C 220.97 131.29 222.00 131.23 222.52 131.20 C 223.23 132.14 223.56 133.97 225.03 133.92 C 233.93 134.07 242.85 133.97 251.72 133.46 C 252.55 132.19 253.16 130.80 253.85 129.45 C 253.21 128.63 252.57 127.82 251.93 127.00 C 249.49 126.99 247.03 126.99 244.62 127.45 C 237.79 126.83 230.93 127.10 224.10 127.49 M 17.37 129.02 C 16.89 130.20 16.38 131.37 15.88 132.55 C 17.36 134.00 18.48 136.50 20.90 136.40 C 29.29 135.68 37.73 135.72 46.11 134.82 C 46.82 133.82 47.50 132.80 48.14 131.76 C 47.21 130.46 46.24 129.19 45.21 127.96 C 35.95 128.83 26.65 128.22 17.37 129.02 M 51.32 129.29 C 48.65 131.29 50.97 134.45 52.94 135.92 C 62.99 135.23 73.06 134.92 83.14 134.96 C 83.36 134.19 83.59 133.42 83.82 132.65 C 82.72 131.24 82.15 129.34 80.78 128.19 C 71.04 129.61 60.99 127.59 51.32 129.29 M 182.88 130.00 C 181.92 131.49 181.00 133.01 180.24 134.61 C 189.19 136.67 198.06 139.08 207.06 140.89 C 209.59 138.11 210.85 134.47 212.76 131.27 C 209.04 128.64 204.14 130.82 199.90 130.00 C 199.41 130.19 198.44 130.58 197.95 130.78 C 192.95 129.99 187.75 131.55 182.88 130.00 M 93.78 131.97 C 94.56 133.52 95.39 135.04 96.23 136.56 C 97.88 138.89 99.29 141.38 100.90 143.74 C 108.11 140.88 115.68 139.02 123.17 137.05 C 121.97 135.22 120.60 133.52 119.01 132.01 C 110.60 132.02 102.19 132.07 93.78 131.97 M 252.26 135.65 C 250.80 138.92 252.12 141.89 253.88 144.68 C 256.20 148.25 257.75 152.33 260.59 155.57 C 261.72 155.85 262.86 156.08 264.03 156.24 C 264.48 155.24 264.94 154.24 265.40 153.24 C 264.42 151.69 263.41 150.15 262.65 148.47 C 259.86 143.71 257.69 138.03 252.26 135.65 M 211.99 146.98 C 212.42 148.29 212.83 149.61 213.20 150.94 C 215.24 152.96 218.03 154.09 220.81 154.62 C 223.11 154.02 225.11 152.62 227.12 151.38 C 225.81 149.21 224.67 146.94 223.55 144.67 C 222.52 144.26 221.49 143.84 220.47 143.41 C 219.90 143.32 218.75 143.14 218.18 143.05 C 216.39 144.76 214.25 146.01 211.99 146.98 M 83.34 148.01 C 81.10 149.53 80.22 152.32 80.04 154.89 C 81.78 158.68 86.42 159.27 89.97 157.86 C 92.18 156.09 93.37 153.50 94.58 151.01 C 93.04 149.80 91.46 148.62 90.13 147.18 C 87.83 147.05 85.54 147.33 83.34 148.01 M 167.87 154.73 C 168.13 155.86 168.41 157.00 169.03 158.00 C 173.87 166.33 178.69 174.68 183.68 182.91 C 186.28 178.55 188.97 174.16 190.98 169.50 C 190.06 168.33 189.11 167.16 187.95 166.22 C 182.13 161.66 177.56 155.75 171.79 151.16 C 169.89 150.57 169.23 153.79 167.87 154.73 M 116.21 168.52 C 116.15 169.03 116.02 170.04 115.96 170.55 C 118.43 173.97 120.46 177.69 122.78 181.22 C 124.00 179.29 125.22 177.36 126.26 175.33 C 129.55 169.63 132.29 163.61 136.12 158.25 C 134.56 156.28 132.98 154.32 131.62 152.20 C 126.74 157.87 121.20 162.94 116.21 168.52 M 158.80 158.08 C 159.07 159.22 159.37 160.36 159.71 161.48 C 161.34 167.57 163.60 173.46 165.33 179.52 C 165.70 180.71 166.04 181.91 166.35 183.12 C 171.60 182.73 176.85 183.14 182.10 182.98 C 180.57 180.48 179.17 177.86 177.25 175.63 C 176.56 174.33 175.88 173.02 175.21 171.71 C 172.47 166.77 169.10 162.22 166.41 157.25 C 164.00 158.26 161.36 158.03 158.80 158.08 M 154.99 158.00 C 155.91 161.18 156.67 164.41 157.78 167.53 C 157.91 167.99 158.17 168.93 158.29 169.39 C 159.48 174.19 161.08 178.86 162.36 183.63 C 163.04 183.55 164.40 183.39 165.07 183.31 C 162.10 176.20 160.72 168.55 157.63 161.47 C 157.27 160.32 156.97 159.17 156.71 158.00 C 156.28 158.00 155.42 158.00 154.99 158.00 M 200.04 169.10 C 200.03 171.68 200.01 174.26 200.00 176.85 C 201.81 178.27 203.60 179.71 205.45 181.08 C 207.50 180.40 210.62 180.45 211.19 177.82 C 211.49 175.98 211.60 174.13 211.89 172.29 C 210.21 170.71 208.60 169.06 206.76 167.67 C 204.46 167.81 202.25 168.53 200.04 169.10 M 99.37 171.00 C 97.86 172.40 96.35 173.81 94.96 175.34 C 94.96 177.42 94.97 179.51 95.32 181.57 C 97.26 182.01 99.23 182.29 101.21 182.54 C 103.26 181.37 105.04 179.69 106.53 177.87 C 106.30 175.68 106.06 173.50 106.33 171.31 C 104.01 171.14 101.69 171.03 99.37 171.00 M 140.55 191.51 C 138.94 192.50 137.00 193.07 135.66 194.45 C 134.96 195.89 134.48 197.44 134.07 198.99 C 134.48 200.65 135.89 201.90 136.73 203.38 C 137.93 203.60 139.13 203.81 140.33 204.01 C 141.71 203.22 143.25 202.68 144.54 201.73 C 145.19 199.60 145.70 197.44 146.12 195.26 C 144.97 194.24 143.83 193.21 142.70 192.17 C 141.98 191.95 141.27 191.73 140.55 191.51 M 186.29 192.44 C 187.78 196.49 189.78 200.33 192.13 203.94 C 195.21 208.54 197.42 213.75 201.00 218.00 C 202.61 218.25 204.27 218.28 205.79 218.95 C 206.60 217.89 207.43 216.85 208.15 215.74 C 205.35 212.80 203.39 209.16 201.11 205.79 C 200.11 204.08 199.16 202.34 198.41 200.52 C 195.52 197.83 194.36 193.91 191.92 190.88 C 189.86 190.36 187.84 191.10 186.29 192.44 M 160.06 193.90 C 158.73 196.67 158.58 199.96 160.00 202.73 C 161.04 203.25 162.08 203.78 163.11 204.33 C 164.13 204.58 165.15 204.86 166.17 205.15 C 168.46 203.28 170.63 200.81 169.99 197.60 C 169.49 196.57 169.04 195.52 168.62 194.46 C 167.01 193.75 165.48 192.88 163.88 192.15 C 162.58 192.67 161.35 193.34 160.06 193.90 M 72.31 212.05 C 72.55 212.77 73.03 214.21 73.27 214.93 C 75.89 218.36 80.40 216.66 84.05 217.02 C 87.22 216.97 90.42 217.97 93.53 216.97 C 94.96 215.54 96.55 214.29 98.12 213.02 C 91.76 208.31 83.72 210.71 76.48 209.66 C 75.04 210.37 73.68 211.21 72.31 212.05 M 210.18 214.74 C 211.49 215.57 212.69 216.71 214.24 217.07 C 219.07 216.72 223.93 217.17 228.76 216.80 C 230.47 216.01 231.79 214.61 233.22 213.42 C 230.95 212.90 229.11 211.44 227.16 210.26 C 223.36 210.52 219.54 210.39 215.75 210.20 C 213.81 211.61 212.00 213.19 210.18 214.74 M 96.98 219.13 C 92.68 228.54 86.95 237.24 82.50 246.57 C 83.13 247.71 83.78 248.85 84.42 250.00 C 85.85 249.98 87.27 249.98 88.70 249.99 C 89.36 248.84 90.03 247.70 90.73 246.58 C 91.67 244.86 92.59 243.13 93.71 241.52 C 94.23 240.46 94.75 239.40 95.25 238.34 C 96.60 236.53 97.49 234.46 98.64 232.53 C 100.27 229.41 102.07 226.38 103.89 223.37 C 103.11 221.65 102.20 220.01 100.70 218.81 C 99.46 218.93 98.22 219.03 96.98 219.13 M 109.22 219.78 C 107.15 223.20 107.94 227.53 110.64 230.37 C 112.19 233.99 114.19 237.38 115.96 240.88 C 117.61 240.94 119.27 241.21 120.92 240.99 C 122.37 235.39 117.58 231.16 115.93 226.24 C 114.86 223.08 112.38 220.77 109.22 219.78 M 204.75 224.32 C 206.00 228.34 208.83 231.54 211.06 235.03 C 213.63 239.56 216.49 243.91 219.11 248.40 C 220.46 248.22 221.81 248.02 223.16 247.81 C 223.42 246.87 223.65 245.94 223.87 245.01 C 221.18 239.79 218.17 234.75 215.34 229.62 C 213.22 226.45 211.91 222.59 209.01 220.03 C 206.61 219.26 205.52 222.60 204.75 224.32 M 194.09 221.62 C 191.93 227.16 187.95 231.67 185.09 236.83 C 185.67 238.24 186.20 239.68 186.70 241.13 C 188.24 240.74 190.19 240.93 191.34 239.62 C 193.03 237.40 193.94 234.73 195.39 232.37 C 196.40 230.80 197.97 229.65 198.81 227.97 C 199.21 225.34 198.98 222.66 199.02 220.01 C 197.35 220.48 195.72 221.04 194.09 221.62 Z" />
<path fill="#232323" opacity="1.00" d=" M 213.36 11.26 C 213.80 10.92 214.67 10.26 215.10 9.93 C 216.79 10.11 218.76 9.53 220.19 10.73 C 221.81 11.91 222.32 13.95 222.93 15.75 C 220.15 20.22 218.68 25.39 215.41 29.55 C 213.56 32.64 211.77 35.77 209.99 38.89 C 208.47 39.52 206.82 39.70 205.22 40.02 C 205.92 41.45 206.61 42.88 207.37 44.28 C 208.98 42.99 210.19 40.79 212.44 40.57 C 217.09 40.30 221.76 40.50 226.40 40.90 C 227.70 40.72 229.08 40.53 229.85 41.97 C 224.89 41.40 219.92 42.22 214.97 41.52 C 212.15 40.99 209.50 42.76 208.11 45.12 C 207.38 46.93 209.88 47.30 211.03 47.88 C 215.72 48.27 220.44 47.93 225.15 48.19 C 225.69 48.41 226.79 48.84 227.34 49.06 C 229.37 48.37 231.30 47.41 232.86 45.89 C 231.90 44.26 230.72 42.74 230.01 40.98 C 232.77 41.39 233.79 44.54 234.66 46.82 C 232.94 48.72 230.84 51.02 227.99 50.44 C 221.96 49.93 215.91 50.06 209.87 50.02 C 209.45 49.70 208.62 49.05 208.20 48.72 C 207.69 47.61 207.17 46.50 206.64 45.40 C 204.62 48.30 202.99 51.45 201.43 54.62 C 198.27 59.82 195.34 65.17 192.38 70.49 C 191.52 72.80 188.71 72.37 186.80 72.92 C 189.20 76.72 191.50 80.57 193.78 84.44 C 194.16 82.94 194.20 81.33 194.79 79.88 C 196.36 78.19 198.24 76.78 199.47 74.79 C 201.36 74.61 203.18 75.20 204.95 75.79 C 206.50 75.87 208.04 76.10 209.27 77.14 C 209.37 79.51 210.66 81.61 210.96 83.91 C 210.29 84.88 209.53 85.79 208.79 86.71 C 206.76 87.93 205.27 90.16 202.85 90.62 C 200.29 90.51 197.86 89.46 195.30 89.19 C 191.90 94.40 186.49 97.77 182.46 102.42 C 179.54 105.19 177.06 108.54 173.52 110.58 C 175.32 106.28 179.23 103.55 182.30 100.23 C 186.35 96.53 189.82 92.24 194.11 88.80 C 191.54 83.76 188.64 78.89 185.71 74.06 C 185.04 72.82 183.39 73.42 182.29 73.41 C 175.61 74.08 168.89 73.54 162.20 73.44 C 163.20 77.64 161.52 81.83 160.69 85.92 C 159.29 90.83 159.43 96.07 157.74 100.89 C 155.58 102.15 155.78 99.41 156.43 98.15 C 157.71 94.66 157.71 90.91 158.46 87.31 C 159.80 82.82 160.39 78.16 161.08 73.54 C 159.31 72.17 157.64 70.68 156.02 69.12 C 156.01 67.75 156.00 66.38 155.98 65.01 L 157.35 64.93 C 157.16 63.33 156.99 61.73 156.86 60.13 C 159.61 59.17 162.22 57.88 164.73 56.42 C 166.62 58.18 168.61 59.88 170.25 61.88 C 170.40 64.50 169.78 67.09 169.61 69.70 C 168.28 70.38 166.95 71.05 165.61 71.69 C 167.06 73.43 169.59 72.33 171.55 72.58 C 175.71 71.36 180.27 72.79 184.28 71.03 C 183.14 69.40 182.00 67.76 180.77 66.19 C 183.23 64.50 184.75 61.88 186.17 59.32 C 189.59 53.09 193.02 46.86 196.79 40.83 C 197.85 37.77 193.14 38.15 191.26 37.42 C 190.69 36.44 190.13 35.45 189.62 34.44 C 188.68 32.72 187.62 31.07 186.65 29.37 C 185.55 27.44 184.30 25.56 183.55 23.45 C 183.53 21.32 183.94 19.22 184.04 17.10 C 184.54 16.91 185.56 16.52 186.07 16.32 C 189.10 17.70 191.88 19.56 192.61 23.04 C 195.34 25.75 196.76 29.39 199.00 32.46 C 198.98 34.32 198.98 36.17 198.98 38.02 C 202.30 39.43 200.70 35.45 201.02 33.59 C 204.99 26.07 209.74 18.95 213.36 11.26 M 207.30 25.46 C 206.03 27.80 204.77 30.15 203.72 32.60 C 201.41 33.44 202.19 35.31 203.14 36.95 C 203.69 39.00 206.16 37.86 207.68 38.16 C 210.20 34.75 212.29 31.06 214.66 27.56 C 214.94 27.07 215.49 26.11 215.76 25.63 C 217.21 21.94 219.44 18.62 220.94 14.96 C 220.84 11.61 217.69 10.69 214.89 11.68 C 212.45 16.32 209.88 20.90 207.30 25.46 M 185.18 18.80 C 183.02 23.89 187.86 27.98 189.79 32.28 C 190.54 33.64 191.41 34.94 192.27 36.25 C 193.79 36.32 195.20 36.89 196.56 37.55 C 196.94 35.93 196.98 34.27 196.96 32.62 C 194.02 28.94 191.79 24.77 189.18 20.87 C 188.38 19.39 186.64 19.17 185.18 18.80 M 198.42 40.08 C 193.90 48.24 190.12 56.96 184.51 64.42 C 184.14 65.11 183.40 66.48 183.04 67.17 C 184.11 68.52 185.09 69.95 186.21 71.27 C 187.39 71.31 188.57 71.30 189.75 71.25 C 190.46 70.06 191.08 68.83 191.69 67.59 C 195.79 59.50 200.65 51.82 204.99 43.86 C 204.61 42.61 204.08 41.41 203.51 40.24 C 201.87 39.55 200.11 40.03 198.42 40.08 M 162.52 59.01 C 161.14 59.87 159.73 60.66 158.30 61.44 C 157.94 63.21 157.60 64.99 157.30 66.78 C 158.55 68.01 159.67 69.36 160.57 70.87 C 161.21 70.99 162.51 71.23 163.16 71.34 C 164.75 70.18 166.37 69.05 167.99 67.93 C 167.96 65.73 168.10 63.52 167.86 61.33 C 166.61 59.51 164.76 58.55 162.52 59.01 M 200.48 76.18 C 196.90 77.94 195.31 81.84 195.11 85.63 C 197.15 87.72 200.34 87.77 202.98 88.67 C 204.88 87.04 206.85 85.49 208.83 83.94 C 208.66 83.44 208.31 82.43 208.14 81.93 C 209.01 77.38 203.92 76.26 200.48 76.18 Z" />
<path fill="#232323" opacity="1.00" d=" M 138.52 105.82 C 144.70 105.61 150.90 106.42 157.07 105.83 C 160.02 105.57 163.38 105.02 165.67 107.39 C 168.20 110.91 170.35 114.69 172.29 118.57 C 174.49 121.49 176.72 124.64 177.22 128.36 C 176.03 129.58 175.09 131.00 174.31 132.51 C 172.63 135.97 170.39 139.13 168.77 142.62 C 167.51 145.03 166.11 147.37 164.81 149.75 C 163.91 150.82 163.01 151.89 162.13 152.97 C 155.13 153.24 148.09 152.58 141.13 153.50 C 140.17 153.45 139.22 153.31 138.28 153.07 C 136.66 150.55 135.05 148.02 133.30 145.58 C 130.71 140.59 127.72 135.82 125.12 130.84 C 125.82 129.68 126.53 128.52 127.27 127.39 C 127.69 124.53 129.97 122.52 131.22 120.02 C 133.75 115.34 136.40 110.71 138.52 105.82 M 139.46 108.36 C 136.04 114.95 132.74 121.69 128.30 127.68 C 132.10 128.10 135.93 128.03 139.74 127.97 C 140.81 125.66 142.72 123.63 143.00 121.03 C 142.39 119.46 141.56 117.99 140.86 116.46 C 139.94 115.21 139.04 113.93 138.49 112.47 C 141.88 113.39 142.67 117.35 144.40 119.96 C 145.17 119.61 146.70 118.90 147.46 118.54 C 145.81 115.76 144.93 112.45 142.71 110.05 C 141.64 110.27 140.58 110.54 139.53 110.86 C 139.87 110.38 140.54 109.42 140.88 108.94 C 141.57 108.96 142.95 108.99 143.65 109.00 C 145.81 112.25 148.17 115.39 149.51 119.10 C 150.88 119.04 152.26 118.99 153.63 118.96 C 155.15 116.08 156.88 113.31 158.70 110.61 C 160.48 108.55 163.64 109.35 165.93 109.74 C 164.82 107.07 162.05 107.72 159.88 107.55 C 155.22 107.81 150.60 107.69 145.99 107.02 C 143.86 107.34 140.78 106.12 139.46 108.36 M 160.32 111.09 C 158.41 113.29 156.91 115.82 155.76 118.49 C 156.44 118.74 157.82 119.24 158.51 119.49 C 160.33 116.69 162.34 114.00 164.58 111.51 C 163.20 111.27 161.64 110.25 160.32 111.09 M 164.92 113.58 C 162.87 116.34 160.76 119.08 159.16 122.15 C 159.75 123.08 160.34 124.01 160.93 124.94 C 164.48 124.99 168.08 124.86 171.59 125.54 C 173.14 126.25 173.73 128.15 174.86 129.36 C 174.89 128.53 174.97 126.88 175.00 126.05 C 173.99 124.65 173.01 123.22 172.06 121.77 C 171.87 121.04 171.69 120.30 171.50 119.57 C 168.39 117.05 168.06 112.56 164.94 110.05 C 164.92 111.23 164.91 112.40 164.92 113.58 M 145.48 120.01 C 143.75 123.21 142.28 126.57 140.14 129.53 C 140.96 131.13 141.84 132.72 142.71 134.30 C 143.83 136.30 145.29 138.15 147.19 139.47 C 150.57 139.67 153.95 139.13 157.26 138.43 C 158.49 135.14 160.41 132.18 162.07 129.11 C 160.62 127.03 159.33 124.84 158.49 122.44 C 157.86 121.70 157.24 120.97 156.62 120.23 C 155.98 120.10 154.70 119.84 154.06 119.71 C 151.21 119.93 148.34 119.82 145.48 120.01 M 163.78 129.73 C 166.08 129.82 168.39 129.99 170.64 130.54 C 171.52 129.18 173.21 127.77 171.81 126.14 C 169.21 126.07 166.61 126.26 164.00 126.16 C 161.51 125.83 163.24 128.71 163.78 129.73 M 130.22 128.99 C 129.97 129.88 129.48 131.66 129.24 132.54 C 132.83 132.59 136.50 132.09 140.03 133.00 C 139.16 131.79 138.64 130.44 138.86 128.96 C 135.98 128.91 133.10 128.91 130.22 128.99 M 162.80 131.28 C 160.80 132.60 159.83 134.97 158.73 137.01 C 160.23 139.43 161.33 142.08 162.91 144.46 C 163.01 145.06 163.22 146.27 163.32 146.88 C 162.41 147.94 161.50 149.01 160.61 150.10 C 160.04 150.00 158.89 149.80 158.31 149.70 C 156.59 146.93 155.30 143.92 153.63 141.12 C 151.41 140.20 148.08 140.79 147.73 143.63 C 145.87 145.81 144.66 148.42 143.51 151.02 C 141.61 151.07 139.56 150.57 137.86 151.71 C 144.58 152.92 151.10 150.33 157.81 151.28 C 159.27 151.09 160.74 150.94 162.22 150.84 C 165.94 143.88 169.87 137.03 173.49 130.01 C 170.35 132.70 166.49 131.72 162.80 131.28 M 128.71 132.37 C 128.94 133.11 129.41 134.60 129.64 135.34 C 131.65 138.67 133.60 142.05 135.29 145.55 C 136.46 147.36 137.68 149.15 139.20 150.69 C 137.43 145.76 141.72 141.95 143.70 137.88 C 142.76 136.53 141.75 135.24 140.69 134.00 C 136.71 133.56 131.96 135.38 128.71 132.37 M 144.32 138.96 C 142.94 142.75 137.87 146.53 141.29 150.65 C 143.09 147.60 144.71 144.44 146.75 141.53 C 145.90 140.72 145.10 139.84 144.32 138.96 M 154.68 140.45 C 156.32 143.35 158.18 146.13 159.91 148.98 C 163.35 145.98 159.28 142.44 157.87 139.56 C 157.07 139.78 155.48 140.23 154.68 140.45 Z" />
<path fill="#232323" opacity="1.00" d=" M 148.23 125.89 C 149.76 125.47 151.30 124.67 152.93 125.00 C 154.38 125.60 155.16 127.02 156.13 128.15 C 156.11 129.57 156.07 131.00 155.96 132.42 C 154.72 133.15 153.52 133.94 152.35 134.79 C 151.16 134.42 149.97 134.05 148.78 133.69 C 147.90 132.19 146.71 130.84 146.17 129.17 C 146.79 128.03 147.54 126.98 148.23 125.89 M 150.04 127.74 C 149.61 129.02 149.19 130.31 148.77 131.60 C 149.24 132.07 150.20 133.02 150.68 133.49 C 151.47 133.27 153.06 132.82 153.86 132.59 C 154.50 131.12 154.77 129.46 153.69 128.09 C 152.49 127.88 151.26 127.85 150.04 127.74 Z" />
<path fill="#232323" opacity="1.00" d=" M 37.79 157.74 C 36.10 156.39 36.83 154.04 37.80 152.52 C 37.98 154.24 38.17 156.01 37.79 157.74 Z" />
</g>
</svg>
