<?xml version="1.0" encoding="UTF-8" ?>
<!DOCTYPE svg PUBLIC "-//W3C//DTD SVG 1.1//EN" "http://www.w3.org/Graphics/SVG/1.1/DTD/svg11.dtd">
<svg width="180pt" height="148pt" viewBox="0 0 180 148" version="1.1" xmlns="http://www.w3.org/2000/svg">
<g id="#fcfefcff">
</g>
<g id="#040204ff">
<path fill="#040204" opacity="1.00" d=" M 88.60 20.69 C 89.91 19.72 91.49 20.45 92.83 20.93 C 92.83 22.33 92.83 23.73 92.84 25.13 C 96.53 26.52 100.26 27.85 103.96 29.25 C 104.23 32.56 104.08 35.87 104.15 39.18 C 100.51 40.92 96.62 42.08 92.85 43.51 C 92.84 45.35 92.84 47.19 92.83 49.03 C 99.45 44.91 105.96 40.63 112.59 36.53 C 114.17 35.39 116.38 36.09 117.07 37.92 C 109.39 43.01 101.53 47.83 93.79 52.81 C 96.09 56.18 98.41 59.52 100.75 62.86 C 106.46 62.44 112.17 62.07 117.87 61.66 C 120.60 55.39 123.14 49.03 125.88 42.77 C 126.57 40.47 129.40 41.13 130.99 42.00 C 128.81 48.20 125.95 54.14 123.50 60.24 C 125.98 59.37 128.46 58.47 130.93 57.56 C 131.05 54.82 130.57 51.99 131.24 49.31 C 135.72 47.43 140.30 45.48 145.04 44.43 C 148.79 45.48 152.35 47.09 156.04 48.33 C 158.67 47.66 162.58 44.70 164.50 47.98 C 163.16 49.92 160.47 50.09 158.45 51.05 C 158.44 53.72 158.43 56.39 158.49 59.06 C 154.12 61.07 149.56 62.70 144.97 64.09 C 140.95 63.41 137.28 61.44 133.42 60.20 C 130.93 61.11 128.45 62.02 125.97 62.94 C 135.46 64.82 145.18 65.79 154.55 68.15 C 155.49 70.32 152.69 70.94 151.12 70.42 C 141.15 68.78 131.21 67.01 121.25 65.36 C 117.86 68.31 114.46 71.25 111.06 74.20 C 114.46 77.16 117.85 80.12 121.27 83.05 C 131.20 81.36 141.13 79.64 151.06 77.98 C 152.56 77.57 154.81 77.83 154.86 79.80 C 153.71 80.92 152.04 80.95 150.56 81.26 C 142.33 82.59 134.13 84.09 125.90 85.40 C 128.39 86.35 130.89 87.28 133.40 88.19 C 137.29 86.98 140.98 84.98 145.00 84.30 C 149.53 85.57 153.85 87.51 158.30 89.01 C 158.48 91.80 158.48 94.59 158.45 97.39 C 160.31 98.53 164.35 98.28 164.27 101.09 C 161.71 103.14 158.65 100.79 156.04 100.06 C 151.16 101.23 146.24 105.56 141.19 102.94 C 137.82 101.64 134.38 100.52 131.07 99.08 C 131.11 96.31 131.09 93.55 130.91 90.79 C 128.42 89.96 125.96 89.04 123.50 88.13 C 125.99 94.15 128.58 100.12 131.05 106.16 C 129.68 107.23 126.88 107.98 126.03 105.94 C 123.23 99.59 120.62 93.16 117.92 86.77 C 112.20 86.33 106.47 85.97 100.75 85.57 C 98.40 88.90 96.07 92.24 93.78 95.61 C 101.40 100.59 109.23 105.24 116.75 110.37 C 116.99 112.65 113.76 112.86 112.39 111.78 C 105.81 107.75 99.39 103.47 92.86 99.38 C 92.84 101.21 92.84 103.05 92.84 104.88 C 96.49 106.35 100.36 107.32 103.87 109.13 C 104.45 112.37 103.99 115.71 104.10 118.98 C 100.45 120.61 96.63 121.82 92.90 123.24 C 92.75 124.66 93.15 126.25 92.44 127.55 C 91.25 128.60 89.67 127.97 88.29 127.89 C 88.08 126.35 87.94 124.81 87.87 123.26 C 84.18 121.82 80.41 120.57 76.75 119.05 C 76.69 115.71 76.67 112.38 76.77 109.04 C 80.46 107.57 84.22 106.28 87.94 104.87 C 87.93 103.04 87.93 101.22 87.93 99.39 C 81.47 103.44 75.07 107.60 68.61 111.64 C 67.31 112.62 65.60 112.59 64.26 111.72 C 63.44 109.95 65.49 109.39 66.59 108.55 C 73.42 104.25 80.22 99.92 87.03 95.57 C 84.69 92.25 82.41 88.89 80.07 85.57 C 74.36 85.93 68.65 86.36 62.94 86.74 C 60.16 93.07 57.63 99.52 54.83 105.84 C 53.97 108.03 51.22 107.17 49.74 106.19 C 52.21 100.16 54.79 94.17 57.31 88.16 C 54.79 89.05 52.27 89.96 49.77 90.91 C 49.78 93.62 49.77 96.33 49.77 99.04 C 45.27 100.86 40.75 102.74 36.06 104.01 C 32.18 103.09 28.54 101.33 24.75 100.07 C 22.22 100.77 17.63 103.91 16.37 100.05 C 18.04 98.63 20.28 98.21 22.28 97.42 C 22.34 94.67 22.36 91.92 22.41 89.18 C 25.96 87.65 29.64 86.44 33.25 85.06 C 34.59 84.61 36.04 83.92 37.44 84.59 C 40.80 85.70 44.07 87.04 47.41 88.20 C 49.89 87.28 52.37 86.37 54.85 85.43 C 46.59 84.04 38.35 82.60 30.09 81.25 C 28.65 80.98 27.11 80.84 25.94 79.86 C 25.97 77.70 28.36 77.66 29.95 78.01 C 39.83 79.67 49.70 81.40 59.58 83.04 C 62.95 80.08 66.36 77.17 69.73 74.21 C 66.36 71.25 62.96 68.32 59.59 65.37 C 49.33 67.01 39.12 68.93 28.85 70.53 C 27.34 71.14 24.56 68.94 26.86 67.90 C 36.11 65.91 45.53 64.69 54.84 62.95 C 52.35 62.03 49.86 61.11 47.37 60.20 C 43.60 61.45 39.99 63.24 36.11 64.11 C 31.55 62.93 27.11 61.15 22.78 59.32 C 21.81 56.77 22.58 53.76 22.36 51.04 C 20.35 50.10 17.72 49.92 16.32 48.02 C 18.16 44.69 22.11 47.63 24.72 48.33 C 28.48 47.10 32.09 45.42 35.92 44.41 C 40.65 45.52 45.12 47.60 49.69 49.25 C 49.79 52.01 49.79 54.78 49.80 57.54 C 52.29 58.45 54.78 59.35 57.27 60.24 C 54.87 54.14 52.03 48.21 49.79 42.05 C 51.25 41.33 53.62 40.38 54.65 42.26 C 57.57 48.65 60.12 55.22 62.93 61.67 C 68.64 62.07 74.35 62.45 80.06 62.85 C 82.41 59.52 84.72 56.17 87.02 52.81 C 79.50 47.95 71.82 43.31 64.40 38.31 C 62.87 36.46 66.39 35.46 67.68 36.29 C 74.56 40.32 81.15 44.83 87.94 49.01 C 87.93 47.18 87.93 45.34 87.92 43.50 C 84.16 42.05 80.26 40.95 76.65 39.14 C 76.74 35.84 76.64 32.54 76.83 29.24 C 80.51 27.88 84.20 26.55 87.87 25.16 C 88.11 23.70 87.48 21.88 88.60 20.69 M 81.49 31.10 C 81.48 33.26 81.48 35.43 81.48 37.59 C 84.45 38.69 87.43 39.78 90.41 40.86 C 93.38 39.77 96.34 38.69 99.31 37.61 C 99.32 35.44 99.33 33.28 99.34 31.12 C 96.35 29.99 93.36 28.88 90.35 27.82 C 87.40 28.91 84.44 30.00 81.49 31.10 M 27.13 51.04 C 27.13 53.20 27.13 55.36 27.14 57.52 C 30.12 58.61 33.10 59.71 36.09 60.80 C 39.01 59.71 41.94 58.62 44.89 57.61 C 45.08 55.40 45.10 53.17 44.92 50.95 C 41.96 49.94 39.03 48.84 36.10 47.75 C 33.10 48.83 30.11 49.93 27.13 51.04 M 135.83 51.02 C 135.82 53.18 135.82 55.35 135.81 57.51 C 138.77 58.62 141.74 59.71 144.72 60.79 C 147.70 59.71 150.68 58.61 153.66 57.52 C 153.67 55.36 153.67 53.20 153.68 51.05 C 150.70 49.94 147.71 48.84 144.73 47.75 C 141.76 48.83 138.79 49.92 135.83 51.02 M 90.40 55.62 C 87.93 59.12 85.55 62.67 83.05 66.14 C 77.05 65.75 71.06 65.29 65.06 64.90 C 68.63 68.00 72.19 71.11 75.77 74.20 C 72.21 77.31 68.62 80.38 65.09 83.51 C 71.08 83.07 77.07 82.71 83.06 82.26 C 85.54 85.75 87.93 89.30 90.43 92.79 C 92.85 89.27 95.29 85.77 97.72 82.27 C 103.73 82.70 109.75 83.08 115.76 83.51 C 112.19 80.41 108.61 77.31 105.05 74.20 C 108.61 71.11 112.17 68.03 115.69 64.91 C 109.68 65.27 103.69 65.79 97.69 66.12 C 95.26 62.62 92.85 59.11 90.40 55.62 M 27.13 90.90 C 27.13 93.06 27.13 95.22 27.14 97.38 C 30.11 98.46 33.08 99.56 36.05 100.65 C 38.97 99.58 41.88 98.50 44.82 97.52 C 45.11 95.28 45.13 93.02 44.88 90.78 C 41.94 89.79 39.02 88.70 36.11 87.61 C 33.11 88.67 30.12 89.79 27.13 90.90 M 135.81 90.92 C 135.82 93.07 135.82 95.23 135.83 97.39 C 138.81 98.48 141.78 99.58 144.76 100.66 C 147.72 99.56 150.69 98.47 153.66 97.38 C 153.67 95.22 153.67 93.07 153.68 90.92 C 150.73 89.79 147.76 88.71 144.80 87.62 C 141.78 88.68 138.79 89.78 135.81 90.92 M 81.49 110.81 C 81.48 112.98 81.48 115.15 81.49 117.32 C 84.46 118.41 87.42 119.50 90.39 120.59 C 93.38 119.51 96.35 118.42 99.33 117.31 C 99.32 115.15 99.32 112.99 99.33 110.82 C 96.35 109.72 93.37 108.62 90.39 107.55 C 87.42 108.63 84.45 109.72 81.49 110.81 Z" />
</g>
</svg>
