<?xml version="1.0" encoding="UTF-8" ?>
<!DOCTYPE svg PUBLIC "-//W3C//DTD SVG 1.1//EN" "http://www.w3.org/Graphics/SVG/1.1/DTD/svg11.dtd">
<svg width="194pt" height="179pt" viewBox="0 0 194 179" version="1.1" xmlns="http://www.w3.org/2000/svg">
<g id="#ffffffff">
</g>
<g id="#000000ff">
<path fill="#000000" opacity="1.00" d=" M 95.37 11.99 C 96.35 7.11 100.84 4.10 103.90 0.50 C 106.05 4.63 109.66 8.31 110.36 13.01 C 108.79 17.57 105.28 21.20 102.25 24.87 C 99.41 20.99 95.54 17.07 95.37 11.99 Z" />
<path fill="#000000" opacity="1.00" d=" M 54.48 3.74 C 60.09 7.99 64.75 13.31 69.47 18.49 C 71.71 21.23 74.34 23.79 75.81 27.05 C 76.79 32.39 76.03 38.11 73.70 43.02 C 67.88 40.72 60.83 37.78 59.16 31.06 C 56.91 22.10 55.55 12.91 54.48 3.74 Z" />
<path fill="#000000" opacity="1.00" d=" M 132.39 25.39 C 138.66 19.80 144.67 13.77 151.84 9.31 C 149.93 18.83 146.53 28.00 143.01 37.04 C 141.53 41.90 136.26 43.69 131.91 45.14 C 130.51 45.57 128.15 46.32 127.62 44.28 C 126.54 40.99 125.72 37.48 125.94 33.99 C 126.73 30.34 129.84 27.87 132.39 25.39 Z" />
<path fill="#000000" opacity="1.00" d=" M 82.03 25.06 C 80.88 22.35 83.47 17.56 86.80 19.24 C 92.17 21.67 96.47 25.88 101.26 29.24 C 106.56 26.59 111.65 23.46 117.18 21.32 C 121.34 19.32 125.45 27.03 121.26 29.27 C 116.17 32.91 110.57 35.77 105.23 39.01 C 105.03 48.30 105.99 57.94 102.79 66.85 C 102.20 68.80 100.78 70.27 99.08 71.32 C 97.62 69.96 96.22 68.40 95.82 66.36 C 93.82 57.96 95.58 49.28 94.85 40.79 C 93.45 33.63 84.84 31.43 82.03 25.06 Z" />
<path fill="#000000" opacity="1.00" d=" M 79.18 37.15 C 80.74 33.68 87.50 33.87 87.94 37.99 C 88.20 42.03 86.72 45.91 86.34 49.91 C 85.03 58.10 93.45 64.97 90.27 73.23 C 87.96 72.57 85.29 72.28 83.60 70.37 C 80.64 67.25 79.20 62.94 75.83 60.15 C 72.04 56.33 66.95 54.36 62.54 51.41 C 59.25 49.35 61.84 44.98 64.18 43.29 C 68.41 42.81 71.93 46.30 76.10 46.74 C 77.36 43.62 77.72 40.19 79.18 37.15 Z" />
<path fill="#000000" opacity="1.00" d=" M 46.63 40.13 C 46.76 35.91 52.68 36.14 55.31 37.70 C 58.37 43.94 54.12 52.29 59.09 57.90 C 65.39 63.70 73.74 67.16 79.10 74.02 C 80.73 75.91 81.03 78.46 80.68 80.85 C 76.74 80.91 73.00 79.40 69.62 77.53 C 62.96 73.81 56.81 69.27 50.53 64.96 C 45.26 67.45 40.24 70.51 34.78 72.57 C 32.59 73.66 31.17 71.29 30.36 69.65 C 29.76 68.31 28.53 66.52 29.78 65.16 C 34.19 60.82 41.27 60.18 45.22 55.29 C 47.27 50.53 45.84 45.14 46.63 40.13 Z" />
<path fill="#000000" opacity="1.00" d=" M 114.69 41.21 C 114.70 37.37 119.67 36.19 122.54 37.55 C 124.37 41.36 122.91 45.87 124.14 49.87 C 128.22 49.70 131.90 47.05 136.00 47.51 C 138.97 49.03 141.41 54.66 137.56 56.61 C 133.85 58.15 129.79 58.95 126.53 61.45 C 120.01 65.32 115.89 72.33 108.82 75.35 C 105.56 71.45 108.34 66.17 110.37 62.37 C 114.42 56.07 114.27 48.39 114.69 41.21 Z" />
<path fill="#000000" opacity="1.00" d=" M 22.54 41.68 C 26.86 41.05 31.37 38.88 35.72 40.24 C 38.94 42.90 40.48 47.14 41.81 50.99 C 42.98 53.50 40.18 54.90 38.11 54.85 C 34.55 54.94 30.01 55.69 27.41 52.64 C 25.06 49.36 23.97 45.40 22.54 41.68 Z" />
<path fill="#000000" opacity="1.00" d=" M 144.17 45.90 C 144.26 44.45 145.31 42.96 146.88 42.97 C 148.98 42.90 152.10 42.24 153.27 44.53 C 154.95 50.52 152.91 57.06 155.04 62.97 C 158.11 68.02 164.87 68.92 168.57 73.35 C 169.76 75.51 167.87 77.87 166.74 79.65 C 165.74 81.57 163.47 80.73 161.99 79.99 C 156.83 77.30 151.90 74.20 146.84 71.33 C 136.88 76.30 127.03 83.91 115.36 83.19 C 115.22 78.71 118.79 75.53 122.15 73.18 C 128.84 68.64 136.54 65.95 143.82 62.53 C 143.91 56.99 143.59 51.42 144.17 45.90 Z" />
<path fill="#000000" opacity="1.00" d=" M 165.35 48.55 C 169.42 48.16 174.22 48.25 177.82 50.19 C 177.47 54.21 174.99 58.21 172.09 61.04 C 168.50 64.12 162.90 63.51 159.44 60.54 C 157.92 58.91 159.40 56.73 160.04 55.05 C 161.35 52.62 162.48 49.49 165.35 48.55 Z" />
<path fill="#000000" opacity="1.00" d=" M 41.73 78.85 C 40.75 75.68 43.95 73.16 45.93 71.15 C 50.99 73.88 54.27 78.97 59.43 81.55 C 63.48 83.91 68.43 82.82 72.69 84.54 C 75.13 85.34 77.18 86.94 78.86 88.84 C 71.71 95.07 61.27 91.55 53.66 96.68 C 50.86 98.32 48.35 100.83 44.98 101.19 C 41.65 101.52 39.48 97.01 41.30 94.39 C 43.17 91.35 46.32 89.45 48.98 87.19 C 46.53 84.44 43.66 82.01 41.73 78.85 Z" />
<path fill="#000000" opacity="1.00" d=" M 94.40 77.68 C 97.02 76.20 100.23 76.58 102.70 78.17 C 105.90 80.19 110.00 82.15 110.81 86.25 C 111.98 92.10 109.18 99.08 103.45 101.43 C 100.57 102.71 97.22 103.90 94.12 102.66 C 90.25 101.06 86.13 98.34 85.34 93.91 C 84.78 90.26 84.44 85.98 86.87 82.88 C 88.88 80.54 91.68 79.05 94.40 77.68 Z" />
<path fill="#000000" opacity="1.00" d=" M 0.13 84.08 C 9.76 80.82 19.89 79.25 29.96 78.11 C 35.31 77.15 39.92 81.30 42.85 85.30 C 44.21 87.16 41.76 88.59 40.56 89.63 C 37.11 92.00 33.55 95.79 28.94 94.62 C 22.91 93.21 17.15 90.84 11.29 88.85 C 7.55 87.32 3.44 86.50 0.13 84.08 Z" />
<path fill="#000000" opacity="1.00" d=" M 136.97 85.91 C 141.74 84.65 145.34 80.89 150.07 79.61 C 153.77 78.45 156.44 83.63 154.53 86.50 C 152.62 89.31 149.54 91.02 146.94 93.10 C 149.59 96.34 153.41 98.89 154.98 102.86 C 153.56 105.49 150.17 109.26 146.95 107.10 C 143.16 104.61 139.91 101.30 135.76 99.36 C 130.85 96.53 124.48 97.94 120.00 94.13 C 118.96 93.23 116.42 91.67 118.34 90.30 C 123.66 86.17 130.99 88.31 136.97 85.91 Z" />
<path fill="#000000" opacity="1.00" d=" M 154.08 91.17 C 157.84 88.66 162.06 85.67 166.85 86.47 C 173.16 87.52 179.08 90.10 185.12 92.12 C 188.26 93.38 191.92 94.18 193.99 97.11 C 184.82 99.72 175.45 101.89 165.98 103.04 C 160.14 104.05 156.17 98.87 153.04 94.81 C 151.71 93.47 152.71 91.90 154.08 91.17 Z" />
<path fill="#000000" opacity="1.00" d=" M 67.49 98.45 C 71.73 96.73 76.72 97.30 81.07 98.53 C 79.70 103.46 75.15 106.43 71.16 109.15 C 66.05 112.65 59.96 114.39 54.93 117.99 C 51.41 120.56 52.75 125.34 52.07 129.02 C 51.77 132.61 50.27 137.33 46.05 137.72 C 44.34 137.80 41.38 138.30 40.91 136.02 C 40.26 130.18 43.14 124.26 41.50 118.51 C 37.81 113.07 30.53 111.45 26.66 106.14 C 25.68 104.06 27.94 102.34 29.40 101.25 C 31.15 99.93 33.44 100.76 35.20 101.61 C 39.74 103.95 43.94 106.86 48.29 109.53 C 54.82 106.11 62.13 103.72 67.49 98.45 Z" />
<path fill="#000000" opacity="1.00" d=" M 113.19 99.77 C 118.75 100.12 124.96 100.80 129.24 104.76 C 134.02 108.58 139.23 111.83 144.29 115.26 C 149.54 113.12 154.63 110.55 160.08 108.94 C 164.30 106.92 167.87 113.82 164.69 116.59 C 160.78 120.16 154.68 120.22 151.17 124.29 C 148.10 129.67 149.33 136.36 146.88 141.97 C 145.59 144.40 142.32 143.91 140.04 143.77 C 138.09 143.80 137.68 141.61 137.90 140.09 C 138.31 134.70 139.22 129.35 139.87 123.98 C 131.87 118.89 122.93 114.73 116.73 107.32 C 114.83 105.20 113.68 102.56 113.19 99.77 Z" />
<path fill="#000000" opacity="1.00" d=" M 74.87 115.06 C 77.18 110.62 81.40 107.38 86.30 106.31 C 88.03 111.44 85.97 116.81 83.41 121.26 C 80.14 126.98 81.47 133.73 81.33 139.97 C 81.27 144.34 74.60 144.51 72.47 141.63 C 70.66 138.26 70.98 134.27 70.23 130.61 C 66.79 131.11 63.60 132.88 60.10 132.93 C 56.05 132.78 55.23 126.42 58.53 124.59 C 63.84 121.25 71.45 121.03 74.87 115.06 Z" />
<path fill="#000000" opacity="1.00" d=" M 108.48 122.40 C 105.04 118.22 104.18 112.02 106.79 107.19 C 112.49 109.13 116.40 114.41 118.06 120.02 C 122.07 124.84 128.77 125.84 133.70 129.39 C 135.83 131.36 133.48 134.29 132.08 135.99 C 128.40 139.19 123.77 133.22 119.76 135.78 C 117.18 138.08 118.39 142.40 115.75 144.72 C 113.82 146.71 110.45 146.54 108.62 144.52 C 106.85 137.25 110.12 129.69 108.48 122.40 Z" />
<path fill="#000000" opacity="1.00" d=" M 90.98 121.93 C 91.71 117.53 92.53 112.74 95.93 109.53 C 98.38 112.09 100.59 115.17 100.65 118.86 C 101.07 127.05 99.74 135.20 99.18 143.35 C 103.66 146.40 108.35 149.14 112.61 152.50 C 114.05 153.67 116.00 155.64 114.64 157.59 C 113.18 159.66 110.72 162.87 107.86 161.15 C 102.81 158.38 98.26 154.81 93.44 151.68 C 88.32 154.11 83.45 157.21 78.02 158.90 C 74.74 159.99 73.06 155.65 72.89 153.12 C 77.22 148.82 82.60 145.66 88.09 143.07 C 90.21 136.22 89.78 128.95 90.98 121.93 Z" />
<path fill="#000000" opacity="1.00" d=" M 23.52 118.73 C 27.36 117.10 33.14 116.87 36.22 120.06 C 36.76 123.60 34.51 126.81 32.62 129.60 C 30.04 133.36 24.87 132.28 21.07 131.62 C 19.32 131.47 17.60 129.94 18.32 128.06 C 19.28 124.65 20.51 120.85 23.52 118.73 Z" />
<path fill="#000000" opacity="1.00" d=" M 155.48 126.66 C 158.93 125.28 163.13 125.30 166.59 126.67 C 169.88 129.03 170.97 133.40 172.04 137.11 C 171.93 137.47 171.70 138.19 171.59 138.55 C 168.32 140.18 164.55 140.58 160.95 140.85 C 157.39 140.69 156.38 136.61 155.17 133.93 C 154.43 131.70 152.94 128.24 155.48 126.66 Z" />
<path fill="#000000" opacity="1.00" d=" M 57.24 138.27 C 60.87 136.39 64.88 135.40 68.70 133.99 C 68.27 140.21 70.20 147.52 65.79 152.73 C 61.88 157.19 57.05 160.71 52.54 164.54 C 49.93 166.47 47.51 168.99 44.17 169.57 C 45.60 162.58 48.13 155.88 50.42 149.14 C 51.93 145.16 53.25 140.47 57.24 138.27 Z" />
<path fill="#000000" opacity="1.00" d=" M 120.51 140.50 C 121.26 138.41 123.74 139.23 125.27 139.80 C 128.95 141.38 133.29 142.91 135.20 146.74 C 137.20 151.08 137.64 155.92 138.69 160.54 C 139.53 165.74 141.29 170.84 141.15 176.16 C 136.69 174.59 133.94 170.46 130.75 167.23 C 127.23 163.04 123.36 159.03 120.68 154.22 C 118.32 150.03 119.08 144.87 120.51 140.50 Z" />
<path fill="#000000" opacity="1.00" d=" M 85.25 166.15 C 87.13 162.08 90.99 159.33 93.83 155.94 C 96.21 160.08 99.92 163.94 100.00 168.98 C 99.93 173.08 96.62 175.92 93.90 178.54 C 92.25 178.34 90.46 178.06 89.74 176.33 C 87.98 173.12 85.35 169.92 85.25 166.15 Z" />
</g>
</svg>
