<?xml version="1.0" encoding="UTF-8" ?>
<!DOCTYPE svg PUBLIC "-//W3C//DTD SVG 1.1//EN" "http://www.w3.org/Graphics/SVG/1.1/DTD/svg11.dtd">
<svg width="185pt" height="185pt" viewBox="0 0 185 185" version="1.1" xmlns="http://www.w3.org/2000/svg">
<g id="#ffffffff">
</g>
<g id="#000000ff">
<path fill="#000000" opacity="1.00" d=" M 89.00 2.27 C 91.28 0.75 93.72 0.77 96.00 2.28 C 96.00 2.61 96.00 3.26 96.00 3.59 C 100.31 4.25 98.83 9.01 99.01 12.07 C 99.34 14.12 97.07 15.02 96.11 16.49 C 95.88 18.14 96.03 19.81 96.05 21.47 C 99.47 19.93 101.56 16.60 104.30 14.17 C 106.69 10.73 111.70 15.42 109.52 18.50 C 105.54 23.60 100.43 27.68 96.09 32.47 C 95.85 34.80 96.01 37.15 96.11 39.49 C 98.54 38.75 99.75 35.32 102.58 36.00 C 103.25 36.80 103.89 37.63 104.49 38.48 C 104.60 38.99 104.82 40.01 104.93 40.51 C 102.11 43.62 98.91 46.35 96.10 49.47 C 95.90 58.78 95.97 68.12 96.08 77.44 C 97.59 76.94 98.75 75.93 99.38 74.47 C 99.89 71.89 101.49 69.82 102.72 67.55 C 103.53 66.10 104.55 64.78 105.48 63.41 C 105.86 62.21 105.95 60.96 106.04 59.72 C 103.47 57.61 106.15 55.37 107.35 53.48 C 107.89 50.91 109.47 48.83 110.72 46.58 C 112.27 43.84 114.30 41.39 115.73 38.57 C 117.16 36.30 118.61 34.03 119.71 31.58 C 120.79 29.10 122.42 26.93 123.79 24.62 C 124.01 24.10 124.43 23.07 124.64 22.56 C 125.71 20.93 126.84 19.33 127.71 17.58 C 128.40 15.74 129.94 14.51 131.53 13.47 C 133.81 12.83 136.22 12.86 138.56 13.08 C 139.88 13.66 139.91 15.29 140.37 16.45 C 141.29 18.49 141.06 20.78 140.96 22.95 C 140.21 24.52 139.01 25.85 138.26 27.43 C 137.47 28.84 136.52 30.15 135.74 31.57 C 134.82 33.29 133.72 34.90 132.72 36.57 C 130.77 39.79 129.24 43.21 127.29 46.43 C 126.28 48.09 125.17 49.70 124.27 51.43 C 122.84 53.71 121.40 55.98 120.24 58.42 C 120.02 58.93 119.59 59.96 119.38 60.47 C 118.24 63.55 115.03 64.33 112.23 65.16 C 112.02 65.73 111.59 66.88 111.38 67.45 C 109.67 70.12 107.71 72.62 106.26 75.45 C 105.13 77.28 103.68 78.96 103.74 81.26 C 106.04 81.33 107.72 79.86 109.55 78.74 C 112.37 77.30 114.87 75.32 117.54 73.64 C 120.10 73.10 122.16 71.53 124.41 70.30 C 126.47 69.49 128.12 67.78 128.37 65.51 C 128.84 63.84 129.15 62.13 129.67 60.48 C 129.96 59.49 130.26 58.50 130.57 57.51 C 131.41 55.34 133.29 54.55 135.53 54.92 C 136.00 56.26 136.90 57.36 137.81 58.42 C 137.20 59.63 136.85 60.91 136.77 62.27 C 139.16 62.30 140.90 60.68 142.87 59.61 C 144.10 57.36 143.79 54.73 144.72 52.40 C 144.89 50.59 145.43 48.88 146.39 47.34 C 147.05 45.46 147.04 43.44 147.48 41.52 C 148.40 38.76 152.34 37.71 153.92 40.45 C 153.98 42.82 154.51 45.43 153.24 47.57 C 153.11 48.04 152.86 48.97 152.74 49.43 C 152.26 50.64 151.93 51.90 151.74 53.20 C 154.80 53.66 156.79 51.12 157.70 48.53 C 158.56 46.76 159.97 45.35 161.44 44.08 C 163.80 43.93 166.31 43.66 168.54 44.63 C 169.72 45.07 171.30 45.13 171.93 46.43 C 172.13 48.78 172.17 51.19 171.53 53.48 C 170.49 55.06 169.24 56.60 167.41 57.31 C 166.49 57.83 165.56 58.31 164.61 58.77 C 162.74 57.65 160.16 57.53 158.37 58.87 C 157.78 58.92 156.59 59.02 156.00 59.07 C 156.00 59.50 156.00 60.37 156.00 60.81 C 157.76 61.43 159.55 62.01 161.42 62.28 C 163.04 63.25 164.97 62.94 166.77 63.03 C 167.63 65.16 169.32 68.49 166.53 69.94 C 164.49 70.06 162.26 70.36 160.40 69.28 C 159.14 69.02 157.87 68.81 156.66 68.40 C 154.90 67.08 152.76 66.87 150.63 66.83 C 147.39 64.72 143.71 66.35 141.00 68.48 C 141.00 68.81 140.99 69.46 140.99 69.79 C 144.80 69.13 148.28 74.56 144.57 76.94 C 142.50 77.03 140.23 77.43 138.40 76.22 C 137.95 76.11 137.05 75.89 136.60 75.78 C 134.91 74.65 132.84 75.02 130.94 74.96 C 128.37 74.49 126.74 76.83 124.58 77.72 C 122.12 79.11 119.89 80.88 117.44 82.28 C 115.18 83.52 113.10 85.12 110.52 85.62 C 109.07 86.26 108.05 87.41 107.56 88.91 C 113.69 89.06 119.83 89.03 125.97 88.97 C 127.56 89.06 127.81 87.05 128.41 86.00 C 145.27 86.02 162.13 85.95 178.98 86.03 C 180.56 85.96 180.81 87.95 181.41 89.00 C 181.74 89.00 182.39 89.00 182.71 89.00 C 184.25 91.28 184.26 93.72 182.72 96.00 C 182.39 96.00 181.74 96.00 181.41 96.00 C 180.81 97.05 180.57 99.04 178.98 98.97 C 162.96 99.04 146.93 98.98 130.91 99.00 C 128.30 99.50 127.66 95.45 125.04 96.00 C 119.21 96.01 113.38 95.93 107.56 96.08 C 108.05 97.59 109.07 98.74 110.51 99.38 C 113.10 99.87 115.17 101.48 117.43 102.72 C 120.17 104.28 122.62 106.32 125.45 107.74 C 128.44 110.50 132.98 110.81 136.61 109.22 C 137.05 109.11 137.95 108.89 138.40 108.78 C 140.23 107.58 142.50 107.96 144.57 108.06 C 148.28 110.44 144.80 115.87 140.99 115.21 C 140.99 115.54 141.00 116.20 141.00 116.53 C 143.49 118.35 146.13 119.71 149.32 118.94 C 151.56 117.46 154.54 118.42 156.70 116.63 C 158.35 116.08 160.13 115.93 161.68 115.08 C 163.81 115.23 166.67 114.09 167.97 116.43 C 168.40 118.41 167.45 120.20 166.76 121.99 C 165.40 122.01 164.03 122.04 162.67 122.11 C 160.53 123.06 158.18 123.37 155.99 124.18 C 155.99 124.57 156.00 125.36 156.00 125.76 C 157.34 125.86 158.57 126.26 159.69 126.97 C 161.38 126.97 163.19 127.26 164.66 126.20 C 165.57 126.69 166.49 127.19 167.40 127.68 C 169.23 128.40 170.49 129.92 171.53 131.53 C 172.17 133.81 172.13 136.22 171.92 138.56 C 171.32 139.88 169.71 139.91 168.55 140.38 C 166.32 141.32 163.82 141.08 161.47 140.91 C 159.72 139.18 157.35 137.64 156.87 135.06 C 156.31 132.76 153.98 131.60 151.74 131.80 C 151.92 133.11 152.26 134.38 152.75 135.60 C 152.88 136.05 153.13 136.95 153.26 137.40 C 153.86 139.11 154.08 140.94 154.82 142.60 C 153.85 144.03 153.23 146.65 150.99 146.05 C 149.12 146.59 148.44 144.65 147.49 143.49 C 147.04 141.56 147.04 139.54 146.39 137.66 C 145.42 136.12 144.89 134.41 144.71 132.60 C 143.80 130.26 144.10 127.64 142.87 125.39 C 140.90 124.32 139.16 122.71 136.76 122.74 C 136.86 124.09 137.21 125.37 137.80 126.58 C 136.89 127.64 136.01 128.74 135.52 130.08 C 133.27 130.46 131.44 129.66 130.57 127.49 C 130.25 126.51 129.96 125.51 129.68 124.52 C 129.15 122.86 128.84 121.15 128.37 119.48 C 128.13 116.80 125.86 115.17 123.55 114.26 C 121.67 113.03 119.77 111.85 117.54 111.36 C 114.87 109.67 112.37 107.70 109.55 106.26 C 107.72 105.14 106.04 103.67 103.74 103.74 C 103.66 106.39 105.63 108.21 106.72 110.42 C 108.12 112.89 109.84 115.16 111.38 117.55 C 111.59 118.12 112.02 119.26 112.23 119.84 C 115.44 120.59 118.72 121.92 119.77 125.39 C 120.38 126.75 121.03 128.10 121.68 129.46 C 122.51 130.84 123.48 132.14 124.27 133.56 C 125.31 135.58 126.67 137.42 127.76 139.43 C 129.42 142.06 130.58 144.94 132.24 147.57 C 133.17 149.28 134.28 150.89 135.28 152.57 C 136.31 154.60 137.70 156.42 138.74 158.45 C 141.29 161.19 141.75 165.11 140.38 168.55 C 139.91 169.71 139.88 171.33 138.55 171.92 C 136.22 172.13 133.81 172.16 131.53 171.53 C 129.93 170.49 128.40 169.24 127.70 167.41 C 126.27 164.76 124.46 162.34 123.30 159.54 C 122.48 158.14 121.51 156.84 120.66 155.46 C 120.44 154.95 119.98 153.93 119.75 153.42 C 118.60 150.98 117.16 148.70 115.73 146.42 C 114.30 143.61 112.28 141.17 110.72 138.44 C 109.48 136.18 107.90 134.09 107.35 131.52 C 106.15 129.65 103.48 127.36 106.04 125.29 C 105.95 124.05 105.86 122.80 105.49 121.60 C 104.33 119.97 103.14 118.35 102.24 116.55 C 101.03 114.66 99.85 112.75 99.38 110.52 C 98.74 109.06 97.59 108.05 96.08 107.56 C 95.97 116.88 95.90 126.22 96.10 135.53 C 98.71 138.43 101.67 141.00 104.34 143.85 C 105.12 144.60 105.16 145.49 104.49 146.51 C 103.53 147.63 102.90 149.64 101.07 149.02 C 99.22 148.23 98.06 146.24 96.11 145.51 C 96.01 147.85 95.85 150.20 96.10 152.54 C 100.43 157.32 105.54 161.40 109.52 166.50 C 111.19 169.13 108.34 172.79 105.47 171.91 C 102.21 169.26 99.93 165.36 96.05 163.53 C 96.04 165.18 95.87 166.86 96.12 168.51 C 97.10 169.99 99.36 170.91 99.01 172.98 C 98.85 176.04 100.29 180.75 96.00 181.42 C 96.00 181.74 96.00 182.38 96.00 182.71 C 93.72 184.25 91.28 184.26 89.00 182.71 C 89.00 182.39 89.00 181.73 89.00 181.41 C 84.68 180.75 86.17 175.99 85.99 172.92 C 85.67 170.88 87.92 169.98 88.89 168.51 C 89.13 166.86 88.95 165.18 88.94 163.52 C 85.86 165.12 83.18 167.75 81.61 170.84 C 79.90 171.64 77.48 173.02 76.21 170.79 C 74.48 169.87 74.99 168.01 75.48 166.51 C 79.45 161.40 84.57 157.32 88.90 152.54 C 89.15 150.20 88.99 147.85 88.89 145.51 C 86.46 146.25 85.25 149.67 82.43 149.01 C 81.75 148.20 81.11 147.37 80.51 146.51 C 80.41 146.00 80.22 144.99 80.12 144.48 C 82.88 141.34 86.11 138.65 88.90 135.53 C 89.10 126.21 89.03 116.88 88.91 107.56 C 87.41 108.05 86.26 109.07 85.62 110.51 C 85.12 113.10 83.51 115.18 82.28 117.44 C 81.47 118.89 80.45 120.22 79.52 121.59 C 79.14 122.79 79.04 124.03 78.96 125.28 C 81.53 127.39 78.85 129.63 77.65 131.52 C 77.14 133.75 75.97 135.66 74.75 137.56 C 73.16 140.67 70.83 143.32 69.27 146.44 C 68.47 147.86 67.51 149.16 66.67 150.54 C 66.44 151.05 65.98 152.07 65.75 152.58 C 64.19 156.01 61.78 158.96 60.30 162.44 C 59.29 164.09 58.17 165.68 57.29 167.42 C 56.60 169.25 55.06 170.48 53.47 171.53 C 51.19 172.16 48.78 172.13 46.45 171.92 C 45.12 171.33 45.09 169.71 44.62 168.55 C 43.25 165.10 43.70 161.18 46.27 158.44 C 47.31 156.42 48.69 154.59 49.73 152.57 C 50.72 150.89 51.82 149.29 52.76 147.58 C 54.55 144.64 55.91 141.49 57.71 138.57 C 58.72 136.90 59.83 135.29 60.74 133.56 C 61.51 132.14 62.49 130.85 63.32 129.46 C 64.09 127.82 64.91 126.19 65.65 124.53 C 66.59 122.57 68.19 120.78 70.51 120.72 C 71.08 120.47 72.21 119.99 72.78 119.74 C 72.99 119.19 73.42 118.09 73.63 117.54 C 75.33 114.87 77.30 112.37 78.74 109.55 C 79.86 107.72 81.32 106.04 81.25 103.74 C 78.96 103.66 77.28 105.14 75.45 106.26 C 72.62 107.70 70.13 109.68 67.45 111.36 C 65.23 111.87 63.33 113.03 61.45 114.26 C 59.14 115.17 56.87 116.80 56.63 119.48 C 56.16 121.15 55.84 122.86 55.33 124.51 C 55.04 125.51 54.74 126.50 54.43 127.49 C 53.56 129.63 51.76 130.47 49.51 130.07 C 49.29 128.40 46.03 126.97 47.93 125.36 C 47.95 124.70 48.01 123.39 48.04 122.74 C 45.73 122.78 44.05 124.37 42.13 125.39 C 40.92 127.64 41.18 130.25 40.30 132.60 C 40.02 133.86 39.81 135.14 39.37 136.35 C 37.85 138.45 38.02 141.06 37.53 143.49 C 36.59 146.24 32.69 147.27 31.07 144.57 C 31.02 142.19 30.47 139.55 31.78 137.40 C 31.89 136.95 32.13 136.05 32.25 135.60 C 32.73 134.37 33.07 133.11 33.26 131.80 C 31.02 131.59 28.68 132.76 28.13 135.07 C 27.65 137.65 25.28 139.18 23.53 140.91 C 21.19 141.07 18.67 141.35 16.46 140.37 C 15.30 139.88 13.60 139.91 13.08 138.53 C 12.86 136.20 12.84 133.80 13.47 131.52 C 14.51 129.93 15.76 128.43 17.56 127.68 C 18.53 127.17 19.52 126.68 20.49 126.19 C 22.23 127.49 24.89 127.40 26.62 126.13 C 27.22 126.08 28.41 125.98 29.00 125.93 C 29.00 125.49 29.01 124.61 29.01 124.17 C 26.82 123.37 24.47 123.06 22.33 122.11 C 20.97 122.04 19.60 122.01 18.24 121.99 C 17.38 119.85 15.67 116.52 18.46 115.06 C 20.51 114.93 22.73 114.65 24.60 115.72 C 25.86 115.98 27.13 116.20 28.35 116.61 C 30.11 117.92 32.24 118.13 34.37 118.17 C 37.61 120.28 41.28 118.64 44.00 116.52 C 44.00 116.20 44.01 115.54 44.01 115.21 C 40.20 115.87 36.71 110.43 40.44 108.06 C 42.50 107.98 44.78 107.56 46.60 108.79 C 47.05 108.90 47.95 109.11 48.40 109.22 C 50.67 110.56 53.45 109.94 55.96 109.95 C 57.52 109.22 58.84 108.01 60.42 107.27 C 62.89 105.89 65.12 104.12 67.57 102.72 C 69.82 101.48 71.90 99.88 74.48 99.38 C 75.93 98.74 76.95 97.59 77.44 96.08 C 71.29 95.94 65.14 95.97 58.99 96.03 C 57.43 95.98 57.18 97.96 56.59 99.00 C 39.74 98.98 22.88 99.04 6.03 98.97 C 4.45 99.06 4.19 97.05 3.59 96.00 C 3.25 96.00 2.59 96.00 2.26 96.00 C 0.79 93.72 0.79 91.28 2.25 89.00 C 2.59 89.00 3.26 89.00 3.59 89.00 C 4.19 87.94 4.45 85.93 6.05 86.03 C 22.06 85.96 38.07 86.02 54.08 86.00 C 56.70 85.49 57.33 89.56 59.97 89.00 C 65.79 88.99 71.62 89.07 77.44 88.92 C 76.95 87.41 75.93 86.26 74.48 85.62 C 71.90 85.12 69.82 83.53 67.57 82.28 C 64.82 80.72 62.37 78.68 59.54 77.26 C 56.56 74.50 52.01 74.19 48.39 75.78 C 47.95 75.89 47.05 76.11 46.60 76.21 C 44.36 77.30 40.62 77.95 39.04 75.54 C 37.98 72.38 40.92 69.53 44.01 69.79 C 44.01 69.46 44.00 68.80 44.00 68.48 C 41.29 66.36 37.61 64.72 34.37 66.82 C 32.78 67.00 31.12 66.92 29.65 67.65 C 27.71 68.89 25.34 68.90 23.32 69.92 C 21.18 69.77 18.32 70.91 17.03 68.56 C 16.61 66.60 17.54 64.81 18.22 63.04 C 20.02 62.93 21.96 63.26 23.59 62.28 C 25.45 62.01 27.24 61.44 29.01 60.80 C 29.00 60.37 29.00 59.50 29.00 59.07 C 28.41 59.02 27.22 58.92 26.62 58.87 C 24.89 57.62 22.22 57.47 20.50 58.82 C 19.52 58.32 18.54 57.83 17.57 57.32 C 15.76 56.57 14.50 55.07 13.47 53.47 C 12.84 51.20 12.86 48.81 13.08 46.48 C 13.59 45.09 15.30 45.12 16.45 44.63 C 18.67 43.66 21.18 43.92 23.53 44.09 C 25.30 45.82 27.66 47.39 28.15 49.98 C 28.71 52.27 31.03 53.40 33.25 53.20 C 33.08 51.89 32.74 50.62 32.25 49.40 C 32.12 48.95 31.88 48.04 31.75 47.59 C 31.06 45.86 30.91 43.98 30.19 42.26 C 31.18 40.92 31.80 38.41 33.94 38.95 C 35.83 38.38 36.55 40.32 37.53 41.51 C 38.02 43.95 37.85 46.57 39.39 48.68 C 39.79 49.89 40.03 51.15 40.31 52.40 C 41.18 54.75 40.92 57.36 42.13 59.61 C 44.10 60.68 45.84 62.30 48.23 62.27 C 48.14 60.91 47.79 59.63 47.20 58.43 C 48.11 57.35 48.99 56.25 49.48 54.91 C 51.70 54.55 53.60 55.34 54.43 57.51 C 54.74 58.50 55.04 59.49 55.33 60.48 C 55.85 62.14 56.16 63.85 56.63 65.52 C 56.87 68.20 59.14 69.82 61.44 70.74 C 63.33 71.97 65.24 73.14 67.46 73.65 C 69.86 75.15 72.11 76.88 74.58 78.28 C 76.79 79.37 78.61 81.32 81.25 81.26 C 81.33 78.61 79.36 76.79 78.27 74.58 C 76.88 72.11 75.15 69.84 73.63 67.45 C 73.42 66.90 72.99 65.81 72.78 65.26 C 72.21 65.01 71.08 64.53 70.51 64.28 C 66.83 64.18 65.67 60.29 64.26 57.58 C 64.03 57.07 63.56 56.05 63.33 55.54 C 62.49 54.16 61.52 52.86 60.73 51.44 C 59.83 49.71 58.72 48.10 57.71 46.42 C 55.76 43.20 54.23 39.78 52.27 36.56 C 51.47 35.16 50.52 33.85 49.74 32.44 C 48.82 30.71 47.72 29.10 46.73 27.41 C 44.23 24.30 42.91 20.32 44.62 16.45 C 45.09 15.28 45.12 13.66 46.45 13.07 C 48.79 12.86 51.19 12.84 53.47 13.47 C 55.40 14.63 56.97 16.30 57.72 18.45 C 58.71 20.11 59.81 21.71 60.79 23.38 C 61.00 23.90 61.42 24.93 61.63 25.44 C 62.98 27.41 64.33 29.39 65.29 31.58 C 66.39 34.03 67.84 36.30 69.27 38.57 C 70.84 41.68 73.16 44.34 74.75 47.44 C 75.97 49.34 77.14 51.25 77.65 53.48 C 78.85 55.36 81.53 57.63 78.96 59.71 C 79.04 60.96 79.14 62.21 79.52 63.42 C 80.46 64.79 81.47 66.11 82.28 67.56 C 83.51 69.82 85.12 71.89 85.62 74.48 C 86.25 75.93 87.41 76.95 88.92 77.44 C 89.03 68.12 89.10 58.78 88.90 49.47 C 86.11 46.20 82.50 43.59 79.98 40.14 C 80.12 39.72 80.39 38.90 80.52 38.48 C 81.46 37.37 82.10 35.37 83.93 35.97 C 85.77 36.77 86.94 38.75 88.89 39.49 C 88.99 37.15 89.15 34.80 88.91 32.47 C 84.57 27.68 79.45 23.60 75.48 18.49 C 73.83 15.85 76.64 12.24 79.53 13.08 C 82.78 15.74 85.07 19.63 88.95 21.47 C 88.95 19.81 89.14 18.13 88.88 16.49 C 87.89 15.00 85.63 14.08 85.99 12.00 C 86.15 8.94 84.71 4.25 89.00 3.58 C 89.00 3.26 89.00 2.60 89.00 2.27 Z" />
</g>
</svg>
