<?xml version="1.0" encoding="UTF-8" ?>
<!DOCTYPE svg PUBLIC "-//W3C//DTD SVG 1.1//EN" "http://www.w3.org/Graphics/SVG/1.1/DTD/svg11.dtd">
<svg width="935pt" height="935pt" viewBox="0 0 935 935" version="1.1" xmlns="http://www.w3.org/2000/svg">
<g id="#000000ff">
<path fill="#000000" opacity="1.00" d=" M 464.46 0.00 L 470.94 0.00 C 477.18 1.43 483.02 5.22 485.99 11.01 C 488.75 15.86 488.43 21.61 488.39 26.99 C 488.37 45.11 488.36 63.23 488.40 81.34 C 501.64 68.26 514.75 55.03 527.93 41.87 C 531.84 37.85 537.29 35.26 542.95 35.29 C 550.35 35.08 557.64 39.21 561.30 45.63 C 565.13 52.08 565.09 60.63 561.14 67.01 C 558.98 70.47 555.86 73.16 553.02 76.05 C 532.00 97.03 511.04 118.07 490.00 139.03 C 487.80 140.68 488.46 143.61 488.33 145.98 C 488.45 168.76 488.32 191.55 488.40 214.33 C 514.34 188.62 540.03 162.66 565.94 136.92 C 574.70 128.32 590.78 130.22 597.35 140.57 C 601.84 147.09 602.15 156.23 598.04 163.00 C 596.18 166.06 593.49 168.46 590.99 170.96 C 556.77 205.10 522.67 239.35 488.42 273.46 C 488.31 290.30 488.41 307.14 488.37 323.98 C 488.30 330.32 488.75 336.71 487.76 343.01 C 504.10 330.91 520.59 319.03 536.95 306.95 C 540.24 304.46 543.90 302.22 548.08 301.68 C 555.85 300.31 564.18 303.84 568.62 310.36 C 571.83 314.82 572.84 320.54 572.10 325.93 C 569.75 346.51 567.67 367.12 565.25 387.69 C 568.65 384.83 572.51 382.62 576.39 380.47 C 591.85 371.58 607.26 362.60 622.75 353.75 C 625.68 352.57 625.82 349.10 626.65 346.50 C 638.53 301.77 650.62 257.08 662.54 212.36 C 663.74 207.71 664.84 202.76 668.10 199.05 C 673.38 192.58 682.69 189.92 690.61 192.55 C 700.77 195.58 707.25 207.10 704.49 217.37 C 695.13 252.52 685.65 287.65 676.27 322.80 C 697.58 310.51 718.88 298.21 740.18 285.90 C 748.10 256.24 756.08 226.60 764.00 196.95 C 765.27 192.27 766.19 187.25 769.34 183.39 C 774.05 177.24 782.34 174.14 789.93 175.76 C 798.20 177.23 805.01 184.24 806.43 192.49 C 807.50 197.86 805.67 203.16 804.28 208.28 C 799.99 224.26 795.68 240.24 791.45 256.23 C 809.04 246.26 826.48 236.01 844.02 225.97 C 849.95 222.55 857.55 222.34 863.65 225.44 C 870.32 228.65 874.89 235.67 875.21 243.06 C 875.70 250.67 871.62 258.31 865.02 262.13 C 847.50 272.33 829.88 282.37 812.37 292.59 C 830.52 297.46 848.69 302.31 866.84 307.18 C 872.98 308.76 878.29 313.25 880.77 319.10 C 883.69 325.69 882.82 333.77 878.60 339.61 C 874.48 345.42 867.23 348.87 860.12 348.27 C 856.17 347.88 852.40 346.60 848.59 345.60 C 819.43 337.77 790.26 329.98 761.11 322.15 C 740.38 334.13 719.62 346.05 698.91 358.08 C 696.89 358.66 699.10 359.77 699.90 359.79 C 733.91 368.89 767.94 378.00 801.95 387.13 C 809.13 388.91 815.09 394.77 816.90 401.95 C 819.11 409.80 816.16 418.80 809.70 423.78 C 804.53 427.95 797.37 429.25 791.00 427.50 C 742.65 414.53 694.30 401.59 645.95 388.63 C 628.32 398.81 610.68 408.97 593.07 419.18 C 590.66 420.54 588.15 421.71 585.63 422.83 C 604.96 431.35 624.28 439.88 643.60 448.43 C 650.87 451.55 656.00 459.07 656.04 467.02 C 656.42 475.28 651.29 483.39 643.70 486.65 C 624.37 495.21 604.98 503.66 585.66 512.23 C 590.06 514.00 594.17 516.39 598.24 518.82 C 614.14 528.01 630.05 537.19 645.95 546.37 C 692.00 534.01 738.05 521.69 784.09 509.34 C 789.26 507.98 794.56 506.02 800.00 506.98 C 808.63 508.18 815.94 515.40 817.29 524.01 C 819.28 533.99 812.76 544.79 802.94 547.55 C 767.80 557.13 732.57 566.34 697.43 575.93 C 718.52 588.47 739.90 600.53 761.12 612.85 C 792.54 604.39 823.99 596.02 855.41 587.56 C 861.96 585.60 869.41 586.91 874.71 591.28 C 880.81 596.08 883.73 604.45 882.01 612.01 C 880.47 619.61 874.32 625.96 866.80 627.82 C 848.66 632.69 830.51 637.55 812.36 642.41 C 829.68 652.50 847.06 662.46 864.41 672.49 C 870.12 675.64 874.25 681.50 875.05 688.00 C 876.23 695.91 872.36 704.29 865.56 708.50 C 859.20 712.60 850.61 712.84 844.05 709.05 C 826.49 699.01 809.06 688.73 791.45 678.78 C 795.82 695.20 800.22 711.61 804.65 728.02 C 806.15 733.16 807.63 738.65 806.11 743.97 C 804.10 752.24 796.57 758.76 788.10 759.53 C 781.01 760.37 773.66 757.24 769.32 751.58 C 766.17 747.71 765.27 742.67 763.98 737.99 C 756.07 708.35 748.11 678.72 740.17 649.08 C 718.87 636.79 697.58 624.49 676.28 612.20 C 685.59 647.08 694.96 681.94 704.31 716.81 C 705.82 722.31 705.12 728.38 702.14 733.27 C 697.98 740.48 689.20 744.57 681.00 743.20 C 672.99 742.09 666.01 735.88 664.02 728.04 C 651.24 680.43 638.47 632.82 625.75 585.20 C 625.33 583.78 624.80 582.24 623.34 581.62 C 608.78 573.22 594.21 564.82 579.66 556.40 C 574.71 553.49 569.50 550.94 565.11 547.19 C 567.48 567.13 569.41 587.13 571.70 607.09 C 572.01 610.05 572.31 613.05 571.89 616.03 C 570.86 622.90 566.13 629.06 559.75 631.81 C 552.93 634.95 544.54 633.89 538.58 629.37 C 521.67 616.94 504.70 604.60 487.84 592.11 C 488.69 598.38 488.32 604.71 488.37 611.01 C 488.42 627.86 488.30 644.71 488.43 661.56 C 522.69 695.65 556.79 729.92 591.01 764.06 C 593.66 766.72 596.56 769.26 598.41 772.61 C 602.61 780.15 601.49 790.29 595.60 796.65 C 588.33 805.17 573.99 805.89 565.95 798.08 C 540.03 772.35 514.34 746.38 488.40 720.67 C 488.33 744.12 488.43 767.58 488.34 791.03 C 488.27 792.85 488.44 794.82 490.03 796.01 C 512.58 818.47 535.05 841.01 557.57 863.50 C 561.20 867.08 563.73 871.87 564.06 877.01 C 564.95 885.62 559.82 894.42 551.88 897.86 C 544.15 901.48 534.37 899.68 528.41 893.58 C 515.04 880.31 501.81 866.89 488.40 853.66 C 488.32 874.08 488.45 894.51 488.34 914.94 C 488.32 925.09 479.76 934.02 469.75 935.00 L 464.52 935.00 C 454.86 933.49 446.69 924.90 446.66 914.96 C 446.55 894.53 446.68 874.09 446.60 853.65 C 433.88 866.25 421.24 878.94 408.60 891.63 C 405.87 894.43 402.85 897.13 399.08 898.42 C 391.45 901.34 382.21 899.26 376.64 893.26 C 370.73 887.23 369.17 877.48 372.84 869.90 C 374.55 866.17 377.58 863.32 380.44 860.48 C 402.52 838.50 424.45 816.38 446.56 794.44 C 446.69 769.86 446.61 745.27 446.60 720.69 C 422.83 744.22 399.28 767.98 375.59 791.59 C 371.85 795.18 368.54 799.49 363.72 801.68 C 355.86 805.32 345.81 803.54 339.88 797.17 C 333.78 791.02 332.35 780.95 336.26 773.27 C 337.97 769.81 340.85 767.17 343.55 764.49 C 377.92 730.22 412.15 695.80 446.57 661.57 C 446.70 644.72 446.58 627.87 446.63 611.03 C 446.68 604.67 446.29 598.28 447.19 591.96 C 431.62 603.46 415.94 614.80 400.35 626.27 C 397.12 628.62 393.95 631.23 390.09 632.46 C 382.74 634.94 374.09 632.89 368.70 627.29 C 364.22 622.85 362.08 616.32 362.83 610.07 C 365.15 589.15 367.32 568.20 369.77 547.29 C 364.44 551.72 358.11 554.62 352.23 558.20 C 338.32 566.37 324.14 574.15 310.38 582.55 C 307.98 587.96 307.20 593.96 305.43 599.59 C 293.94 642.43 282.49 685.28 270.98 728.11 C 268.87 736.26 261.36 742.61 252.96 743.32 C 245.31 744.19 237.38 740.43 233.27 733.91 C 229.97 728.92 229.13 722.55 230.71 716.81 C 240.05 681.94 249.42 647.07 258.73 612.19 C 237.42 624.49 216.11 636.78 194.82 649.10 C 186.35 680.76 177.88 712.42 169.37 744.07 C 167.24 752.76 158.97 759.42 150.02 759.62 C 142.09 760.05 134.17 755.50 130.60 748.39 C 127.92 743.46 127.68 737.53 129.23 732.20 C 134.05 714.44 138.76 696.65 143.56 678.88 C 125.66 688.72 108.18 699.31 90.39 709.33 C 83.30 713.20 74.00 712.32 67.72 707.25 C 61.95 702.79 58.87 695.16 59.97 687.95 C 60.77 681.47 64.89 675.63 70.58 672.49 C 87.89 662.50 105.21 652.53 122.50 642.51 C 104.26 637.27 85.84 632.69 67.55 627.62 C 59.98 625.54 54.00 618.79 52.80 611.04 C 51.41 603.27 54.88 594.92 61.38 590.46 C 66.57 586.70 73.47 585.76 79.57 587.55 C 111.01 596.01 142.46 604.40 173.90 612.85 C 194.63 600.86 215.39 588.93 236.10 576.91 C 238.51 576.31 235.65 575.42 235.07 575.20 C 201.05 566.08 167.02 556.98 133.01 547.85 C 123.11 545.51 116.10 535.16 117.53 525.11 C 118.43 516.43 125.35 508.86 133.89 507.17 C 140.12 505.71 146.25 508.17 152.20 509.70 C 197.82 521.92 243.44 534.14 289.06 546.36 C 306.84 536.07 324.65 525.84 342.42 515.53 C 344.75 514.19 347.23 513.15 349.73 512.18 C 330.96 504.06 312.32 495.63 293.57 487.46 C 285.03 484.53 278.55 476.13 278.97 466.94 C 278.96 459.02 283.99 451.44 291.25 448.29 C 310.58 439.73 329.95 431.26 349.29 422.72 C 346.80 421.65 344.33 420.57 341.99 419.22 C 324.36 408.99 306.70 398.82 289.05 388.63 C 240.88 401.56 192.71 414.43 144.55 427.37 C 133.36 431.12 120.17 423.64 117.93 412.02 C 116.02 404.23 119.19 395.53 125.61 390.74 C 130.03 387.28 135.76 386.52 141.00 385.00 C 173.02 376.35 205.12 367.96 237.08 359.15 C 235.03 356.96 232.17 355.85 229.65 354.32 C 211.05 343.61 192.49 332.85 173.89 322.15 C 144.74 329.99 115.58 337.77 86.43 345.60 C 82.62 346.60 78.86 347.87 74.92 348.27 C 68.03 348.86 60.99 345.66 56.82 340.15 C 52.48 334.56 51.32 326.71 53.84 320.10 C 56.06 314.02 61.28 309.14 67.53 307.38 C 85.85 302.33 104.27 297.67 122.56 292.51 C 105.04 282.35 87.48 272.29 69.97 262.12 C 63.05 258.14 58.97 249.93 59.88 242.01 C 60.55 234.73 65.38 228.01 72.09 225.09 C 78.08 222.34 85.34 222.70 91.05 226.00 C 108.58 236.02 125.97 246.29 143.55 256.21 C 138.76 238.11 133.87 220.04 129.03 201.96 C 127.21 195.47 128.64 188.18 132.97 182.99 C 138.11 176.55 147.26 173.78 155.12 176.21 C 162.03 178.17 167.61 183.96 169.37 190.92 C 177.88 222.57 186.35 254.23 194.82 285.89 C 216.12 298.20 237.42 310.51 258.73 322.78 C 249.40 287.81 239.98 252.86 230.64 217.89 C 228.57 210.42 231.05 201.95 236.89 196.85 C 243.11 191.17 252.85 189.91 260.31 193.81 C 265.83 196.54 269.84 201.83 271.25 207.80 C 283.58 254.02 296.06 300.20 308.34 346.44 C 309.18 349.07 309.30 352.58 312.29 353.77 C 328.59 363.07 344.79 372.55 361.08 381.87 C 364.21 383.57 367.17 385.55 369.91 387.84 C 367.56 367.60 365.55 347.32 363.24 327.08 C 362.78 323.10 362.62 318.94 364.10 315.14 C 366.79 307.27 374.62 301.49 382.96 301.33 C 388.04 301.03 393.03 302.89 397.04 305.96 C 413.71 318.27 430.51 330.43 447.15 342.78 C 446.32 336.58 446.67 330.31 446.63 324.08 C 446.59 307.21 446.67 290.34 446.59 273.47 C 411.02 238.02 375.56 202.47 340.05 166.98 C 333.85 160.93 332.34 150.89 336.15 143.17 C 339.10 137.00 345.27 132.49 352.07 131.65 C 358.37 130.74 365.03 132.86 369.55 137.37 C 395.26 162.99 420.82 188.77 446.60 214.31 C 446.62 189.74 446.67 165.16 446.58 140.59 C 423.65 117.79 400.85 94.85 377.95 72.03 C 374.39 68.58 371.63 64.11 371.07 59.11 C 369.98 51.90 373.02 44.26 378.78 39.79 C 384.84 34.87 393.73 33.90 400.74 37.29 C 405.12 39.32 408.25 43.12 411.63 46.44 C 423.29 58.08 434.90 69.77 446.61 81.37 C 446.64 63.56 446.63 45.76 446.61 27.96 C 446.65 22.74 446.10 17.23 448.36 12.35 C 451.17 5.80 457.53 1.27 464.46 0.00 M 409.68 367.16 C 411.66 385.76 413.70 404.36 415.70 422.96 C 416.86 431.51 412.10 440.50 404.28 444.20 C 386.86 452.09 369.19 459.42 351.85 467.49 C 368.96 474.94 385.99 482.56 403.07 490.07 C 408.68 492.43 413.12 497.31 414.87 503.15 C 416.46 507.98 415.48 513.11 414.97 518.03 C 413.15 534.58 411.32 551.13 409.54 567.68 C 424.82 556.57 440.03 545.37 455.31 534.26 C 462.32 529.09 472.58 529.10 479.59 534.27 C 494.87 545.40 510.06 556.64 525.34 567.76 C 523.34 548.87 521.22 529.99 519.26 511.10 C 518.40 502.56 523.50 493.88 531.34 490.42 C 548.60 482.78 565.90 475.22 583.17 467.60 C 565.78 459.59 548.13 452.15 530.69 444.24 C 522.89 440.51 518.20 431.52 519.39 422.97 C 521.42 404.38 523.45 385.79 525.50 367.21 C 510.21 378.35 494.96 389.56 479.66 400.69 C 472.47 405.97 461.91 405.75 454.88 400.29 C 439.81 389.24 424.77 378.17 409.68 367.16 Z" />
</g>
</svg>
