<?xml version="1.0" encoding="UTF-8" ?>
<!DOCTYPE svg PUBLIC "-//W3C//DTD SVG 1.1//EN" "http://www.w3.org/Graphics/SVG/1.1/DTD/svg11.dtd">
<svg width="225pt" height="225pt" viewBox="0 0 225 225" version="1.1" xmlns="http://www.w3.org/2000/svg">
<g id="#ffffffff">
</g>
<g id="#000000ff">
<path fill="#000000" opacity="1.00" d=" M 140.23 14.27 C 142.76 15.80 145.31 17.28 147.86 18.77 C 144.62 24.68 145.59 32.28 150.03 37.32 C 151.03 36.16 152.05 35.03 153.09 33.90 C 149.43 29.65 149.44 22.55 153.63 18.66 C 157.65 14.37 165.31 14.36 169.34 18.64 C 173.88 22.82 173.62 30.95 168.85 34.86 C 166.35 37.41 162.63 37.64 159.28 37.54 C 158.89 39.02 158.52 40.50 158.20 41.99 C 164.78 42.95 171.58 40.13 175.10 34.41 C 177.65 35.89 180.20 37.37 182.76 38.84 C 177.58 47.68 166.66 52.68 156.61 50.51 C 155.97 60.21 157.76 70.06 161.96 78.84 C 166.22 76.23 171.23 74.33 174.91 71.08 C 172.91 63.06 176.12 53.95 183.50 49.84 C 184.80 52.34 186.19 54.79 187.61 57.22 C 184.47 59.47 182.28 63.15 183.00 67.12 C 183.53 73.90 191.89 77.71 197.67 74.45 C 199.02 76.92 200.43 79.37 201.86 81.80 C 194.47 85.87 184.76 84.37 179.04 78.15 C 174.62 80.62 170.25 83.16 165.97 85.87 C 171.53 93.85 179.11 100.27 187.78 104.64 C 191.20 94.90 200.74 87.91 211.09 87.80 C 211.10 90.82 211.10 93.84 211.10 96.86 C 204.33 96.65 198.46 101.50 196.07 107.61 C 197.50 108.05 198.93 108.50 200.36 108.95 C 202.35 103.96 207.69 100.27 213.16 101.47 C 218.97 102.22 223.16 108.30 222.18 114.02 C 221.40 121.13 212.90 125.56 206.52 122.49 C 203.68 121.24 201.86 118.60 200.45 115.96 C 199.02 116.35 197.59 116.75 196.17 117.15 C 198.46 123.40 204.39 127.88 211.09 128.10 C 211.10 131.09 211.10 134.07 211.10 137.06 C 200.79 136.66 191.26 129.95 187.81 120.17 C 179.16 124.52 171.55 130.88 166.00 138.84 C 170.24 141.59 174.62 144.13 179.07 146.53 C 184.77 140.32 194.50 138.90 201.84 142.97 C 200.43 145.41 198.99 147.83 197.62 150.29 C 193.58 148.29 188.32 148.85 185.33 152.39 C 181.22 156.80 182.55 164.45 187.65 167.52 C 186.20 169.97 184.80 172.43 183.35 174.87 C 176.10 170.51 172.73 161.41 175.04 153.31 C 170.75 150.67 166.31 148.30 161.91 145.86 C 157.80 154.61 155.89 164.35 156.47 174.00 C 166.65 172.35 177.44 176.89 182.76 185.85 C 180.22 187.35 177.68 188.83 175.12 190.28 C 171.52 184.63 164.52 181.46 157.92 182.98 C 158.33 184.37 158.76 185.75 159.18 187.15 C 166.08 185.86 173.36 191.77 172.57 198.97 C 172.48 206.86 162.75 212.00 156.10 207.91 C 149.89 204.84 148.71 195.98 153.04 190.84 C 151.99 189.76 150.94 188.68 149.89 187.62 C 145.57 192.62 144.60 200.16 147.93 205.94 C 145.35 207.44 142.76 208.92 140.18 210.42 C 135.04 201.51 136.28 189.73 143.07 182.04 C 135.07 176.55 125.68 173.36 116.06 172.39 C 115.66 177.42 115.52 182.49 115.82 187.54 C 123.99 189.45 130.13 196.99 130.33 205.39 C 127.53 205.39 124.72 205.38 121.92 205.38 C 121.34 200.77 118.07 196.25 113.15 195.84 C 107.35 194.71 102.20 199.84 101.77 205.41 C 98.97 205.38 96.17 205.38 93.37 205.38 C 93.49 196.98 99.67 189.34 107.89 187.54 C 107.97 182.48 107.96 177.43 107.77 172.38 C 98.08 173.27 88.57 176.40 80.56 181.97 C 87.36 189.72 88.36 201.38 83.63 210.44 C 80.98 209.02 78.39 207.51 75.83 205.96 C 79.02 200.07 78.12 192.71 73.80 187.63 C 72.71 188.57 71.64 189.55 70.58 190.53 C 72.94 194.02 74.25 198.55 72.39 202.57 C 70.09 208.34 62.63 211.06 57.15 208.14 C 51.88 205.60 49.29 198.53 52.15 193.32 C 54.22 188.77 59.49 186.50 64.30 187.11 C 64.71 185.73 65.12 184.35 65.52 182.98 C 58.90 181.43 52.15 184.80 48.48 190.31 C 45.95 188.77 43.35 187.33 40.80 185.82 C 46.22 177.03 56.82 172.34 67.00 174.02 C 67.56 164.39 65.92 154.64 61.71 145.92 C 57.25 148.26 52.86 150.72 48.59 153.37 C 51.02 161.46 47.45 170.44 40.35 174.88 C 38.87 172.41 37.42 169.92 35.95 167.45 C 40.20 164.82 42.34 158.91 39.68 154.44 C 37.32 149.52 30.84 147.72 26.12 150.29 C 24.70 147.88 23.19 145.51 21.88 143.04 C 29.06 138.73 38.92 140.42 44.55 146.54 C 49.03 144.16 53.40 141.58 57.66 138.82 C 52.07 130.85 44.48 124.41 35.80 120.03 C 32.58 129.93 22.88 136.61 12.61 137.02 C 12.59 134.04 12.59 131.08 12.57 128.11 C 19.27 127.84 25.33 123.33 27.50 116.99 C 26.10 116.60 24.69 116.23 23.27 115.87 C 21.44 119.97 17.66 123.45 12.94 123.40 C 6.70 123.94 0.85 118.24 1.39 111.96 C 1.33 105.24 8.43 99.84 14.89 101.56 C 18.81 102.23 21.54 105.42 23.28 108.77 C 24.65 108.34 26.03 107.95 27.41 107.58 C 25.26 101.40 19.27 96.66 12.59 96.84 C 12.60 93.82 12.59 90.80 12.58 87.79 C 22.75 88.00 32.51 94.71 35.66 104.49 C 44.52 100.40 52.06 93.75 57.64 85.80 C 53.34 83.16 49.01 80.60 44.60 78.16 C 38.89 84.43 29.19 85.79 21.78 81.83 C 23.17 79.35 24.63 76.91 26.08 74.46 C 30.98 77.11 37.53 75.06 39.86 69.99 C 42.24 65.54 40.13 59.87 36.02 57.26 C 37.44 54.77 38.88 52.29 40.28 49.79 C 47.45 54.24 51.04 63.26 48.58 71.41 C 52.93 73.97 57.26 76.55 61.79 78.78 C 65.90 69.97 67.78 60.20 67.00 50.50 C 56.94 52.71 46.16 47.59 40.88 38.88 C 43.42 37.38 45.98 35.90 48.51 34.38 C 52.08 40.16 58.99 43.02 65.65 41.95 C 65.27 40.46 64.89 38.97 64.50 37.48 C 56.98 39.08 49.33 31.86 51.22 24.24 C 52.51 16.92 61.79 13.00 67.98 17.06 C 73.87 20.38 74.84 28.81 70.67 33.89 C 71.68 34.97 72.70 36.05 73.72 37.12 C 78.12 32.09 79.07 24.61 75.80 18.72 C 78.36 17.24 80.94 15.77 83.52 14.31 C 88.47 23.27 87.32 34.95 80.64 42.72 C 88.69 48.10 98.09 51.65 107.80 52.17 C 107.95 47.20 107.94 42.23 107.92 37.27 C 99.73 35.28 93.48 27.79 93.37 19.30 C 96.18 19.32 99.00 19.33 101.81 19.24 C 102.10 24.51 106.58 29.37 112.04 29.02 C 117.35 29.12 121.43 24.34 121.88 19.29 C 124.68 19.32 127.48 19.31 130.28 19.28 C 130.20 27.72 123.93 35.28 115.79 37.26 C 115.57 42.24 115.64 47.24 116.05 52.21 C 125.69 51.53 135.13 48.22 143.08 42.73 C 136.27 35.03 135.02 23.16 140.23 14.27 M 90.06 74.96 C 82.30 73.84 74.33 76.54 68.94 82.25 C 75.69 84.97 82.69 87.76 90.07 87.80 C 94.14 87.85 98.31 86.00 100.53 82.50 C 104.91 75.94 106.08 67.91 107.10 60.26 C 99.36 62.02 93.21 67.80 90.06 74.96 M 116.57 60.23 C 117.94 69.34 118.94 80.36 127.04 86.21 C 136.14 90.27 146.04 85.47 154.67 82.31 C 149.38 76.39 141.11 73.79 133.33 75.05 C 130.76 67.59 124.14 62.10 116.57 60.23 M 105.38 90.49 C 95.71 93.20 88.51 102.91 89.01 112.99 C 89.08 123.53 97.52 133.14 107.88 134.81 C 112.85 135.47 118.08 134.94 122.53 132.50 C 131.75 127.76 136.92 116.19 133.80 106.21 C 130.75 94.33 117.10 86.71 105.38 90.49 M 150.22 98.19 C 145.88 102.53 140.98 108.26 142.41 114.87 C 145.15 123.38 152.63 129.11 159.47 134.32 C 161.61 126.84 160.15 118.37 154.97 112.46 C 160.00 106.37 161.66 98.02 159.52 90.43 C 156.19 92.73 153.07 95.32 150.22 98.19 M 64.24 90.45 C 61.84 97.95 63.66 106.39 68.67 112.41 C 63.61 118.36 61.85 126.81 64.26 134.26 C 68.25 131.32 72.13 128.16 75.46 124.47 C 79.32 120.18 83.31 114.14 80.69 108.20 C 77.42 100.60 70.66 95.31 64.24 90.45 M 69.03 142.46 C 74.32 148.31 82.47 150.96 90.22 149.76 C 93.03 157.03 99.43 162.77 107.10 164.39 C 106.59 160.19 105.91 156.00 104.78 151.91 C 103.18 146.06 100.31 139.21 93.91 137.42 C 85.31 135.80 76.86 139.30 69.03 142.46 M 122.76 142.77 C 118.67 149.21 117.55 156.98 116.54 164.40 C 124.17 162.72 130.68 157.10 133.36 149.75 C 141.13 150.96 149.30 148.29 154.62 142.46 C 147.72 139.66 140.53 136.74 132.94 137.01 C 128.84 136.98 124.85 139.23 122.76 142.77 Z" />
</g>
</svg>
