<?xml version="1.0" encoding="UTF-8" ?>
<!DOCTYPE svg PUBLIC "-//W3C//DTD SVG 1.1//EN" "http://www.w3.org/Graphics/SVG/1.1/DTD/svg11.dtd">
<svg width="225pt" height="225pt" viewBox="0 0 225 225" version="1.1" xmlns="http://www.w3.org/2000/svg">
<g id="#ffffffff">
</g>
<g id="#000000ff">
<path fill="#000000" opacity="1.00" d=" M 109.98 2.77 C 112.65 2.76 115.32 2.76 118.00 2.76 C 118.00 7.26 118.00 11.75 118.00 16.24 C 121.63 14.15 125.23 12.01 128.87 9.93 C 129.94 12.36 130.73 14.91 131.62 17.41 C 127.05 19.97 122.52 22.60 118.00 25.24 C 118.00 27.63 118.00 30.03 118.00 32.42 C 123.27 29.37 128.57 26.34 133.79 23.21 C 134.65 25.69 135.54 28.17 136.43 30.65 C 130.30 34.22 124.17 37.82 118.00 41.33 C 117.93 49.87 118.14 58.41 117.88 66.95 C 121.41 63.81 125.13 60.88 128.73 57.82 C 130.05 62.34 131.86 66.69 133.50 71.10 C 135.44 67.59 137.51 64.16 139.48 60.67 C 136.86 53.92 134.44 47.11 131.90 40.33 C 134.22 39.19 136.46 37.89 138.67 36.55 C 140.63 41.75 142.46 46.99 144.50 52.16 C 146.04 49.41 147.51 46.62 149.23 43.98 C 151.47 45.25 153.66 46.62 155.91 47.88 C 154.33 50.61 152.72 53.34 151.16 56.09 C 156.61 55.05 162.10 54.17 167.57 53.20 C 167.50 55.78 167.50 58.36 167.55 60.94 C 160.47 62.18 153.40 63.47 146.29 64.54 C 144.21 68.02 142.19 71.54 140.17 75.06 C 144.80 74.15 149.46 73.38 154.11 72.60 C 153.16 77.17 152.47 81.79 151.67 86.38 C 159.01 82.07 166.41 77.85 173.80 73.61 C 173.80 66.46 173.84 59.31 173.84 52.15 C 176.42 51.75 178.98 51.22 181.53 50.69 C 181.47 56.86 181.46 63.02 181.47 69.19 C 183.59 67.96 185.70 66.72 187.82 65.50 C 187.78 60.23 187.81 54.97 187.80 49.70 C 190.39 49.20 193.00 48.77 195.60 48.31 C 195.46 52.58 195.52 56.85 195.52 61.12 C 199.43 58.77 203.42 56.53 207.37 54.24 C 208.67 56.51 209.99 58.76 211.31 61.02 C 207.44 63.35 203.48 65.55 199.56 67.80 C 203.21 69.99 206.93 72.08 210.62 74.22 C 208.90 76.22 207.22 78.25 205.52 80.27 C 200.91 77.60 196.30 74.96 191.69 72.29 C 189.63 73.51 187.55 74.70 185.49 75.91 C 190.78 79.03 196.17 81.99 201.46 85.11 C 199.73 87.05 198.04 89.02 196.43 91.07 C 190.11 87.55 183.90 83.84 177.54 80.39 C 170.33 84.79 162.87 88.75 155.67 93.15 C 160.02 94.72 164.36 96.33 168.70 97.93 C 165.76 101.59 162.65 105.10 159.73 108.78 C 163.70 108.76 167.67 108.75 171.64 108.78 C 176.23 103.16 181.02 97.71 185.50 92.00 C 187.79 93.32 190.08 94.65 192.37 95.99 C 188.74 100.19 185.16 104.44 181.70 108.78 C 184.84 108.77 187.98 108.76 191.12 108.76 C 191.11 111.31 191.11 113.86 191.12 116.41 C 187.98 116.38 184.83 116.37 181.69 116.39 C 185.19 120.71 188.79 124.94 192.37 129.20 C 190.07 130.51 187.76 131.83 185.44 133.12 C 181.05 127.38 176.19 122.02 171.68 116.38 C 167.71 116.40 163.73 116.38 159.75 116.39 C 162.68 120.05 165.75 123.59 168.71 127.22 C 164.35 128.84 159.97 130.41 155.61 132.03 C 162.93 136.32 170.34 140.45 177.66 144.76 C 183.89 141.17 190.16 137.61 196.42 134.06 C 198.02 136.11 199.74 138.08 201.48 140.03 C 196.14 143.12 190.78 146.16 185.43 149.22 C 187.53 150.43 189.65 151.60 191.74 152.83 C 196.32 150.12 200.97 147.52 205.57 144.85 C 207.22 146.90 208.89 148.93 210.60 150.93 C 206.95 153.12 203.20 155.12 199.56 157.31 C 203.48 159.57 207.41 161.81 211.31 164.10 C 210.00 166.37 208.68 168.63 207.43 170.93 C 203.47 168.62 199.46 166.39 195.54 164.01 C 195.54 168.30 195.49 172.59 195.66 176.88 C 193.05 176.36 190.42 175.95 187.81 175.46 C 187.85 170.19 187.81 164.92 187.84 159.66 C 185.70 158.43 183.59 157.16 181.47 155.90 C 181.50 162.08 181.48 168.25 181.58 174.42 C 179.00 173.95 176.43 173.41 173.86 172.93 C 173.84 165.81 173.81 158.68 173.81 151.56 C 166.44 147.30 159.06 143.07 151.70 138.80 C 152.48 143.38 153.19 147.98 154.12 152.53 C 149.47 151.76 144.80 151.02 140.18 150.06 C 142.14 153.60 144.22 157.07 146.24 160.58 C 153.36 161.66 160.44 163.03 167.56 164.15 C 167.50 166.76 167.50 169.38 167.57 171.99 C 162.12 170.86 156.59 170.21 151.16 169.00 C 152.68 171.81 154.33 174.53 155.92 177.30 C 153.66 178.57 151.42 179.88 149.20 181.20 C 147.59 178.49 146.04 175.75 144.47 173.02 C 142.51 178.21 140.61 183.42 138.68 188.62 C 136.44 187.29 134.21 185.96 131.92 184.72 C 134.49 177.96 136.96 171.16 139.48 164.38 C 137.43 160.97 135.49 157.49 133.46 154.08 C 131.92 158.49 130.07 162.79 128.74 167.27 C 125.12 164.31 121.52 161.33 117.96 158.30 C 118.04 166.78 117.98 175.26 118.00 183.74 C 124.13 187.34 130.27 190.91 136.44 194.46 C 135.57 196.96 134.67 199.46 133.82 201.97 C 128.62 198.78 123.29 195.79 118.00 192.74 C 118.00 195.11 118.00 197.49 117.99 199.87 C 122.50 202.58 127.09 205.16 131.66 207.77 C 130.75 210.26 129.84 212.76 128.91 215.24 C 125.28 213.09 121.61 211.02 117.99 208.85 C 118.00 213.36 118.00 217.87 118.00 222.38 C 115.32 222.36 112.65 222.36 109.97 222.38 C 109.99 217.87 109.97 213.36 110.00 208.85 C 106.35 211.00 102.64 213.07 99.00 215.24 C 98.05 212.77 97.13 210.29 96.24 207.80 C 100.83 205.14 105.46 202.56 110.00 199.82 C 109.98 197.45 109.99 195.09 109.99 192.73 C 104.65 195.73 99.34 198.81 94.08 201.96 C 93.20 199.46 92.30 196.98 91.43 194.49 C 97.64 190.93 103.82 187.31 110.00 183.71 C 110.00 175.24 110.01 166.77 110.00 158.30 C 106.43 161.30 102.81 164.25 99.25 167.26 C 97.71 162.83 96.01 158.45 94.44 154.03 C 92.43 157.49 90.40 160.94 88.43 164.42 C 90.99 171.18 93.34 178.02 96.05 184.72 C 93.73 185.92 91.50 187.26 89.29 188.64 C 87.29 183.44 85.34 178.23 83.48 172.98 C 81.87 175.70 80.31 178.46 78.72 181.19 C 76.48 179.89 74.24 178.59 71.98 177.33 C 73.54 174.55 75.15 171.81 76.75 169.05 C 71.28 170.18 65.74 170.90 60.27 172.02 C 60.35 169.40 60.35 166.78 60.31 164.16 C 67.43 163.07 74.50 161.66 81.62 160.61 C 83.69 157.12 85.68 153.59 87.73 150.09 C 83.11 151.02 78.45 151.77 73.80 152.54 C 74.68 147.98 75.49 143.41 76.15 138.82 C 68.83 143.10 61.46 147.30 54.12 151.54 C 54.08 158.67 54.08 165.80 54.06 172.93 C 51.48 173.43 48.90 173.97 46.31 174.44 C 46.37 168.26 46.41 162.09 46.41 155.92 C 44.33 157.17 42.24 158.42 40.11 159.60 C 40.10 164.89 40.09 170.18 40.12 175.47 C 37.49 175.96 34.84 176.37 32.22 176.90 C 32.36 172.61 32.35 168.32 32.34 164.03 C 28.43 166.43 24.41 168.64 20.46 170.97 C 19.21 168.67 17.92 166.39 16.59 164.14 C 20.46 161.84 24.35 159.57 28.30 157.42 C 24.73 155.08 20.94 153.13 17.27 150.96 C 18.99 148.94 20.67 146.90 22.36 144.86 C 26.96 147.55 31.60 150.19 36.20 152.88 C 38.24 151.64 40.33 150.46 42.36 149.20 C 37.06 146.15 31.74 143.12 26.42 140.10 C 28.14 138.12 29.85 136.12 31.47 134.06 C 37.69 137.68 43.99 141.14 50.18 144.80 C 57.54 140.51 64.94 136.30 72.33 132.06 C 67.95 130.42 63.55 128.87 59.16 127.26 C 62.11 123.58 65.21 120.03 68.21 116.39 C 64.23 116.38 60.25 116.41 56.27 116.36 C 51.67 121.97 46.89 127.45 42.37 133.13 C 40.09 131.81 37.79 130.52 35.49 129.23 C 39.10 124.97 42.70 120.69 46.25 116.38 C 43.09 116.38 39.93 116.38 36.77 116.41 C 36.78 113.86 36.78 111.31 36.78 108.76 C 39.92 108.76 43.07 108.76 46.22 108.80 C 42.72 104.48 39.12 100.25 35.57 95.97 C 37.82 94.65 40.08 93.32 42.38 92.07 C 46.95 97.72 51.62 103.30 56.35 108.82 C 60.28 108.73 64.22 108.76 68.16 108.80 C 65.22 105.13 62.13 101.59 59.16 97.95 C 63.57 96.37 67.93 94.68 72.35 93.12 C 64.99 88.90 57.58 84.74 50.29 80.41 C 43.98 83.94 37.73 87.57 31.43 91.12 C 29.84 89.07 28.16 87.09 26.44 85.15 C 31.72 82.02 37.07 79.03 42.39 75.97 C 40.32 74.76 38.26 73.55 36.22 72.29 C 31.63 74.98 27.00 77.58 22.42 80.27 C 20.68 78.28 18.98 76.27 17.26 74.27 C 20.93 72.07 24.68 70.02 28.33 67.80 C 24.41 65.56 20.48 63.36 16.59 61.08 C 17.88 58.80 19.17 56.54 20.46 54.26 C 24.42 56.51 28.40 58.75 32.29 61.14 C 32.28 56.87 32.35 52.60 32.20 48.33 C 34.83 48.77 37.46 49.21 40.09 49.72 C 40.07 55.00 40.10 60.27 40.07 65.55 C 42.18 66.75 44.30 67.96 46.40 69.19 C 46.37 63.03 46.35 56.87 46.27 50.71 C 48.86 51.20 51.43 51.76 54.03 52.15 C 54.10 59.32 54.06 66.50 54.11 73.67 C 61.51 77.81 68.78 82.15 76.16 86.32 C 75.45 81.73 74.64 77.16 73.77 72.61 C 78.42 73.39 83.08 74.16 87.71 75.07 C 85.68 71.54 83.69 67.99 81.54 64.54 C 74.43 63.48 67.37 62.16 60.28 60.95 C 60.33 58.37 60.33 55.79 60.27 53.21 C 65.76 54.19 71.27 55.03 76.74 56.10 C 75.16 53.36 73.58 50.62 71.96 47.90 C 74.21 46.61 76.42 45.23 78.70 43.99 C 80.34 46.68 81.85 49.44 83.47 52.14 C 85.30 46.92 87.30 41.76 89.20 36.56 C 91.41 37.90 93.66 39.18 95.95 40.39 C 93.41 47.14 91.00 53.94 88.42 60.67 C 90.36 64.19 92.42 67.63 94.44 71.10 C 95.98 66.64 97.77 62.28 99.23 57.79 C 102.71 60.95 106.43 63.81 109.98 66.89 C 109.98 58.39 110.00 49.89 109.97 41.39 C 103.73 37.90 97.61 34.22 91.41 30.68 C 92.29 28.19 93.19 25.71 94.12 23.25 C 99.37 26.38 104.67 29.42 109.98 32.46 C 109.97 30.08 109.97 27.70 110.00 25.31 C 105.42 22.66 100.83 20.02 96.24 17.37 C 97.13 14.86 98.05 12.35 99.00 9.86 C 102.60 12.10 106.29 14.20 109.99 16.27 C 109.97 11.77 109.97 7.27 109.98 2.77 M 102.65 70.73 C 101.60 73.68 100.56 76.65 99.39 79.57 C 102.82 85.77 106.46 91.85 109.99 97.99 C 110.02 90.92 109.99 83.85 110.00 76.78 C 107.50 74.82 105.10 72.75 102.65 70.73 M 117.95 76.72 C 118.10 83.88 117.96 91.04 117.80 98.20 C 121.36 92.01 124.93 85.83 128.50 79.65 C 127.36 76.68 126.22 73.70 125.15 70.70 C 122.80 72.76 120.37 74.74 117.95 76.72 M 83.17 81.92 C 84.01 85.06 83.80 88.55 85.21 91.49 C 91.16 95.08 97.26 98.44 103.26 101.96 C 99.75 95.77 96.19 89.61 92.56 83.49 C 89.41 83.10 86.30 82.47 83.17 81.92 M 135.34 83.47 C 131.74 89.58 128.12 95.67 124.72 101.89 C 130.76 98.43 136.75 94.87 142.85 91.51 C 143.67 88.35 144.08 85.11 144.68 81.91 C 141.57 82.46 138.47 83.10 135.34 83.47 M 72.02 101.29 C 74.06 103.86 76.10 106.43 78.35 108.83 C 85.34 108.68 92.34 108.81 99.34 108.77 C 93.29 105.04 87.02 101.69 80.91 98.04 C 77.97 99.18 75.02 100.29 72.02 101.29 M 128.61 108.78 C 135.62 108.79 142.64 108.72 149.65 108.80 C 151.77 106.35 153.78 103.81 155.88 101.34 C 152.89 100.28 149.92 99.15 146.95 98.04 C 140.87 101.67 134.59 104.97 128.61 108.78 M 78.26 116.35 C 76.11 118.80 74.11 121.37 71.97 123.82 C 74.98 124.90 77.99 126.00 81.00 127.10 C 87.07 123.43 93.38 120.17 99.34 116.33 C 92.31 116.41 85.29 116.42 78.26 116.35 M 128.64 116.33 C 134.54 120.23 140.88 123.42 146.92 127.09 C 149.91 125.95 152.94 124.90 155.93 123.77 C 153.79 121.35 151.77 118.84 149.70 116.37 C 142.68 116.40 135.66 116.42 128.64 116.33 M 84.91 134.01 C 84.08 136.99 83.89 140.12 83.18 143.14 C 86.33 142.72 89.45 142.06 92.61 141.65 C 96.16 135.51 99.75 129.40 103.26 123.23 C 97.16 126.84 90.83 130.13 84.91 134.01 M 124.74 123.29 C 128.07 129.50 131.79 135.49 135.25 141.63 C 138.41 142.06 141.54 142.73 144.71 143.14 C 144.06 139.95 143.69 136.70 142.79 133.57 C 136.69 130.29 130.79 126.66 124.74 123.29 M 118.00 148.50 C 120.42 150.45 122.84 152.42 125.23 154.42 C 126.30 151.40 127.42 148.41 128.49 145.39 C 124.88 139.31 121.39 133.16 117.85 127.04 C 118.15 134.19 117.94 141.34 118.00 148.50 M 99.39 145.45 C 100.54 148.43 101.60 151.43 102.67 154.44 C 104.99 152.23 107.95 150.59 109.92 148.09 C 110.13 141.11 109.95 134.11 109.99 127.13 C 106.47 133.24 102.95 139.36 99.39 145.45 Z" />
</g>
</svg>
