<?xml version="1.0" encoding="UTF-8" ?>
<!DOCTYPE svg PUBLIC "-//W3C//DTD SVG 1.1//EN" "http://www.w3.org/Graphics/SVG/1.1/DTD/svg11.dtd">
<svg width="800pt" height="800pt" viewBox="0 0 800 800" version="1.1" xmlns="http://www.w3.org/2000/svg">
<g id="#ffffffff">
</g>
<g id="#000000ff">
<path fill="#000000" opacity="1.00" d=" M 387.04 59.07 C 394.13 54.61 403.55 54.20 411.01 57.99 C 419.28 61.97 424.69 70.93 424.63 80.08 C 424.74 106.03 424.56 131.98 424.73 157.93 C 442.97 140.10 460.78 121.84 478.95 103.93 C 488.31 94.75 505.08 95.46 513.68 105.36 C 522.57 114.43 522.29 130.38 513.25 139.27 C 483.79 168.90 454.17 198.38 424.65 227.95 C 424.70 271.05 424.61 314.15 424.70 357.25 C 460.35 336.74 495.93 316.11 531.57 295.60 C 533.43 294.20 536.49 293.67 537.08 291.14 C 547.84 251.23 558.46 211.27 569.23 171.37 C 572.51 159.00 586.43 150.88 598.80 154.31 C 608.77 156.64 616.64 165.77 617.43 175.98 C 618.04 181.65 615.99 187.07 614.63 192.48 C 608.82 214.18 602.88 235.85 597.23 257.60 C 617.02 246.32 636.68 234.81 656.44 223.46 C 660.51 221.22 664.36 218.51 668.72 216.83 C 677.46 213.60 687.92 215.91 694.46 222.54 C 699.21 227.39 702.10 234.18 701.68 241.02 C 701.52 249.36 696.60 257.34 689.35 261.41 C 666.90 274.50 644.30 287.32 621.92 300.51 C 644.95 306.65 667.97 312.85 691.01 318.97 C 694.52 319.89 698.13 320.77 701.24 322.75 C 708.90 327.26 713.59 336.18 713.18 345.03 C 712.78 350.98 710.38 356.85 706.15 361.11 C 699.94 367.55 690.09 370.11 681.53 367.50 C 646.49 358.14 611.46 348.76 576.43 339.38 C 571.34 338.20 566.37 336.32 561.22 335.55 C 539.99 347.50 519.00 359.92 497.84 372.01 C 492.61 375.11 487.33 378.11 482.06 381.13 C 478.93 382.92 475.79 384.69 472.70 386.54 C 467.41 389.65 462.09 392.70 456.74 395.71 C 454.27 397.15 451.79 398.58 449.31 400.01 C 459.93 406.19 470.60 412.31 481.25 418.44 C 493.07 425.27 504.92 432.06 516.71 438.96 C 531.58 447.42 546.30 456.15 561.21 464.53 C 571.16 462.42 580.94 459.31 590.83 456.83 C 617.22 449.75 643.62 442.69 670.02 435.62 C 675.01 434.28 679.95 432.71 685.04 431.81 C 691.74 430.83 698.78 432.73 704.00 437.06 C 711.24 442.70 714.72 452.72 712.54 461.64 C 710.63 470.35 703.66 477.72 695.01 479.98 C 670.60 486.55 646.14 492.98 621.77 499.69 C 641.44 510.78 660.89 522.28 680.51 533.47 C 684.84 536.12 689.53 538.29 693.46 541.56 C 700.49 547.68 703.42 557.92 700.77 566.84 C 698.91 573.40 694.18 579.10 688.04 582.08 C 681.01 585.68 672.23 585.47 665.32 581.68 C 642.56 568.68 619.96 555.40 597.17 542.46 C 603.50 566.17 609.83 589.88 616.24 613.57 C 617.92 619.16 618.06 625.34 615.84 630.81 C 612.36 640.07 602.86 646.53 592.98 646.46 C 582.53 646.68 572.50 639.44 569.46 629.43 C 558.33 588.85 547.86 548.07 536.56 507.55 C 499.45 485.69 461.95 464.44 424.71 442.79 C 424.66 485.83 424.58 528.88 424.74 571.92 C 430.01 578.04 436.14 583.41 441.73 589.25 C 464.07 611.59 486.39 633.93 508.74 656.25 C 511.72 659.28 515.07 662.11 517.08 665.93 C 520.93 672.61 521.26 681.14 518.06 688.14 C 515.34 694.08 510.23 698.93 504.06 701.13 C 495.40 704.37 484.94 702.21 478.42 695.61 C 460.48 677.82 442.75 659.82 424.74 642.09 C 424.54 668.03 424.75 693.98 424.64 719.92 C 424.67 728.55 419.92 737.13 412.33 741.34 C 405.31 745.46 396.23 745.74 388.97 742.05 C 382.56 738.93 377.67 732.84 376.05 725.89 C 375.00 721.67 375.41 717.29 375.34 712.99 C 375.30 689.35 375.41 665.71 375.28 642.07 C 359.22 657.74 343.53 673.78 327.59 689.58 C 323.51 693.54 319.81 698.26 314.41 700.48 C 307.90 703.39 300.14 703.33 293.72 700.22 C 285.32 696.28 279.60 687.28 279.71 677.99 C 279.61 671.09 282.77 664.43 287.71 659.70 C 315.71 631.70 343.68 603.69 371.71 575.72 C 373.17 574.02 375.78 572.63 375.35 570.04 C 375.31 527.62 375.37 485.19 375.32 442.77 C 339.47 463.43 303.67 484.16 267.82 504.80 C 266.12 506.05 263.37 506.54 262.90 508.88 C 252.18 548.54 241.63 588.25 230.95 627.93 C 229.31 634.32 225.02 640.01 219.25 643.26 C 211.00 648.05 200.03 647.34 192.40 641.64 C 184.30 635.81 180.53 624.80 183.31 615.22 C 189.75 590.96 196.38 566.76 202.73 542.49 C 182.93 553.69 163.32 565.24 143.57 576.55 C 137.93 579.63 132.54 583.82 125.93 584.48 C 116.11 585.84 105.81 580.53 101.19 571.76 C 94.58 560.25 99.45 544.19 111.29 538.22 C 133.49 525.33 155.79 512.61 177.95 499.67 C 156.34 493.61 134.59 487.98 112.91 482.12 C 107.88 480.65 102.50 479.87 98.06 476.90 C 89.70 471.58 85.07 460.88 87.33 451.18 C 88.99 442.50 95.80 435.13 104.25 432.64 C 108.58 431.31 113.25 431.18 117.65 432.31 C 127.15 434.75 136.61 437.41 146.08 439.99 C 176.17 447.94 206.22 456.07 236.28 464.12 C 238.81 465.27 241.01 463.25 243.12 462.14 C 257.04 454.01 271.02 445.99 284.98 437.95 C 291.03 434.33 297.18 430.90 303.25 427.34 C 308.63 424.41 313.93 421.30 319.18 418.15 C 329.60 412.05 340.18 406.23 350.52 400.01 C 335.17 390.94 319.59 382.29 304.25 373.21 C 282.96 361.02 261.75 348.70 240.51 336.41 C 239.38 335.66 238.05 335.32 236.74 335.81 C 200.34 345.55 163.95 355.35 127.53 365.05 C 121.23 366.62 114.92 369.27 108.29 368.27 C 96.71 367.08 87.20 356.63 86.80 345.03 C 86.14 334.06 93.72 323.24 104.32 320.25 C 128.85 313.58 153.44 307.17 177.96 300.46 C 155.42 287.11 132.57 274.28 109.99 261.02 C 101.14 255.85 96.48 244.73 98.78 234.78 C 100.62 226.03 107.56 218.66 116.19 216.30 C 122.79 214.38 130.08 215.53 135.93 219.06 C 158.23 232.01 180.57 244.85 202.89 257.77 C 196.42 234.00 190.13 210.19 183.71 186.42 C 182.38 181.81 181.90 176.86 183.17 172.18 C 185.27 163.50 192.49 156.32 201.20 154.31 C 210.48 151.86 221.00 155.58 226.68 163.32 C 228.91 166.14 230.30 169.52 231.19 172.98 C 241.66 212.12 252.18 251.24 262.64 290.38 C 262.96 291.57 263.29 292.89 264.59 293.38 C 301.49 314.68 338.38 336.01 375.29 357.30 C 375.40 314.18 375.29 271.06 375.35 227.94 C 345.97 198.56 316.58 169.19 287.21 139.80 C 281.02 133.81 278.25 124.54 280.42 116.17 C 282.89 105.58 293.07 97.36 303.99 97.42 C 311.24 97.21 318.24 100.60 323.09 105.89 C 340.49 123.23 357.73 140.74 375.27 157.93 C 375.43 131.98 375.29 106.02 375.34 80.07 C 375.29 71.69 379.79 63.35 387.04 59.07 Z" />
</g>
<g id="#f2f2f2ff">
</g>
<g id="#fdfdfdff">
</g>
<g id="#f1f1f1ff">
</g>
</svg>
