<?xml version="1.0" encoding="UTF-8" ?>
<!DOCTYPE svg PUBLIC "-//W3C//DTD SVG 1.1//EN" "http://www.w3.org/Graphics/SVG/1.1/DTD/svg11.dtd">
<svg width="852pt" height="852pt" viewBox="0 0 852 852" version="1.1" xmlns="http://www.w3.org/2000/svg">
<g id="#1e1916ff">
<path fill="#1e1916" opacity="1.00" d=" M 344.57 81.73 C 371.65 66.29 398.75 50.89 425.85 35.49 C 452.93 50.96 480.11 66.25 507.13 81.81 C 507.04 96.02 507.12 110.24 507.10 124.45 C 488.91 125.67 470.72 126.79 452.54 127.99 C 453.30 140.27 454.09 152.54 454.88 164.82 C 468.91 165.20 482.94 165.57 496.97 165.93 C 498.95 165.67 500.37 167.18 501.85 168.22 C 511.68 175.62 521.59 182.91 531.43 190.29 C 520.57 198.58 509.70 206.85 498.86 215.16 C 485.19 215.42 471.52 215.57 457.85 215.81 C 457.84 222.13 457.84 228.45 457.85 234.77 C 467.55 235.18 477.24 235.54 486.94 235.96 C 486.75 246.84 486.54 257.73 486.33 268.62 C 477.25 269.04 468.16 269.39 459.08 269.81 C 458.66 277.30 458.24 284.79 457.85 292.28 C 478.05 282.85 498.20 273.33 518.39 263.89 C 520.57 285.42 522.70 306.96 524.90 328.50 C 531.22 325.53 537.56 322.60 543.86 319.57 C 539.68 311.30 535.58 303.00 531.45 294.72 C 540.33 289.16 549.23 283.62 558.14 278.09 C 563.48 286.77 568.78 295.48 574.14 304.15 C 580.28 300.42 586.42 296.67 592.54 292.91 C 586.11 281.25 579.39 269.73 573.11 257.99 C 573.15 243.94 573.83 229.87 574.14 215.82 C 587.78 221.13 601.42 226.46 615.05 231.82 C 621.89 243.87 628.95 255.80 635.65 267.93 C 647.27 262.87 658.68 257.30 670.21 252.01 C 662.34 236.96 654.39 221.95 646.52 206.90 C 659.26 199.40 671.87 191.65 684.73 184.36 C 711.04 199.76 737.59 214.76 763.97 230.03 C 764.35 261.08 764.75 292.13 765.14 323.18 C 752.66 330.10 740.23 337.11 727.69 343.92 C 718.08 329.46 708.37 315.07 698.71 300.64 C 687.63 306.75 676.55 312.86 665.48 319.00 C 672.88 332.00 680.83 344.73 687.93 357.87 C 686.88 371.03 685.70 384.20 684.43 397.35 C 671.03 392.15 657.58 387.06 644.16 381.90 C 637.39 369.27 630.70 356.60 623.93 343.97 C 617.01 347.50 610.09 351.03 603.18 354.59 C 608.72 363.69 614.26 372.79 619.80 381.89 C 609.92 387.62 600.04 393.35 590.15 399.06 C 585.39 390.00 580.69 380.90 575.92 371.84 C 568.79 375.96 561.68 380.10 554.57 384.25 C 573.53 398.12 592.56 411.91 611.51 425.79 C 592.51 439.61 573.54 453.47 554.54 467.30 C 561.68 471.43 568.78 475.63 575.93 479.77 C 580.68 470.68 585.39 461.57 590.15 452.48 C 600.04 458.21 609.92 463.96 619.80 469.71 C 614.27 479.01 608.69 488.27 603.19 497.59 C 610.11 500.93 617.01 504.29 623.93 507.64 C 630.70 495.11 637.22 482.44 644.10 469.98 C 657.34 464.32 671.06 459.56 684.50 454.27 C 685.61 466.58 686.65 478.89 687.80 491.20 C 687.90 492.61 688.19 494.14 687.23 495.36 C 680.00 507.79 672.62 520.13 665.51 532.63 C 676.62 538.66 687.63 544.87 698.71 550.96 C 708.40 536.53 718.05 522.08 727.76 507.66 C 740.22 514.77 752.68 521.90 765.13 529.04 C 764.71 559.89 764.43 590.76 763.91 621.61 C 737.32 636.71 710.96 652.24 684.31 667.24 C 671.79 659.77 659.08 652.63 646.51 645.25 C 654.41 630.05 662.28 614.84 670.22 599.66 C 658.80 594.20 647.28 588.95 635.81 583.61 C 628.73 595.62 622.15 607.96 614.82 619.80 C 601.33 625.29 587.69 630.44 574.14 635.80 C 573.75 622.52 573.42 609.24 573.00 595.96 C 572.58 593.46 574.29 591.45 575.38 589.38 C 581.12 579.16 586.82 568.93 592.54 558.69 C 586.42 554.91 580.28 551.15 574.14 547.39 C 568.79 556.09 563.49 564.82 558.13 573.51 C 549.23 567.98 540.33 562.44 531.45 556.89 C 535.56 548.58 539.73 540.30 543.84 531.99 C 537.53 529.02 531.21 526.06 524.89 523.11 C 522.71 544.64 520.57 566.18 518.40 587.71 C 498.20 578.26 478.04 568.72 457.85 559.25 C 458.25 566.97 458.66 574.70 459.08 582.42 C 468.16 582.62 477.24 582.82 486.32 583.03 C 486.55 594.09 486.74 605.15 486.94 616.21 C 477.24 616.43 467.55 616.61 457.85 616.84 C 457.84 623.16 457.83 629.48 457.85 635.80 C 471.21 636.00 484.58 636.14 497.94 636.36 C 499.18 636.32 500.03 637.41 501.02 638.02 C 511.12 645.83 521.30 653.54 531.43 661.32 C 520.50 669.36 509.77 677.69 498.71 685.52 C 484.11 686.17 469.48 686.35 454.88 686.85 C 454.09 699.10 453.31 711.35 452.54 723.61 C 470.72 725.00 488.91 726.36 507.09 727.75 C 507.10 741.78 507.10 755.80 507.09 769.83 C 480.02 785.29 452.93 800.72 425.85 816.16 C 398.74 800.75 371.67 785.27 344.58 769.83 C 344.57 755.81 344.56 741.78 344.58 727.76 C 362.76 726.36 380.94 725.00 399.12 723.61 C 398.37 711.36 397.56 699.11 396.79 686.85 C 383.17 686.46 369.55 686.05 355.93 685.73 C 354.62 685.58 353.12 685.90 352.04 685.00 C 341.43 677.12 330.83 669.22 320.24 661.32 C 331.19 653.07 341.91 644.46 353.01 636.45 C 366.40 636.05 379.80 636.06 393.20 635.80 C 393.21 629.48 393.21 623.16 393.20 616.84 C 383.53 616.62 373.85 616.43 364.18 616.22 C 364.54 605.16 364.95 594.10 365.33 583.04 C 374.41 582.81 383.50 582.63 392.59 582.41 C 392.80 574.69 393.01 566.97 393.20 559.25 C 373.03 568.72 352.89 578.25 332.71 587.72 C 330.72 566.18 328.77 544.63 326.78 523.09 C 320.46 526.07 314.14 529.01 307.83 531.99 C 311.93 540.30 316.11 548.58 320.21 556.89 C 311.32 562.44 302.43 568.00 293.51 573.51 C 287.99 564.80 282.46 556.09 276.91 547.40 C 270.97 551.15 265.04 554.92 259.12 558.69 C 265.57 570.43 272.37 582.00 278.62 593.85 C 278.23 607.83 277.45 621.81 276.91 635.80 C 263.49 630.33 249.83 625.33 236.55 619.56 C 229.55 607.64 222.79 595.57 215.86 583.60 C 204.39 588.93 192.91 594.25 181.45 599.60 C 189.34 614.83 197.27 630.03 205.15 645.26 C 192.49 652.60 179.84 659.94 167.16 667.25 C 140.66 651.94 114.04 636.84 87.63 621.37 C 87.40 590.60 86.87 559.82 86.53 529.04 C 98.98 521.90 111.44 514.77 123.91 507.66 C 133.62 522.08 143.26 536.54 152.96 550.96 C 164.04 544.84 175.11 538.69 186.18 532.56 C 178.50 519.68 170.72 506.84 163.03 493.96 C 164.41 480.73 165.79 467.50 167.16 454.27 C 180.61 459.38 194.03 464.57 207.48 469.68 C 214.28 482.31 220.96 495.00 227.73 507.64 C 234.45 504.28 241.17 500.94 247.86 497.56 C 242.51 488.31 237.24 479.01 231.88 469.77 C 241.69 463.90 251.64 458.27 261.50 452.47 C 266.28 461.56 270.98 470.68 275.74 479.77 C 282.87 475.62 289.98 471.46 297.10 467.30 C 278.13 453.43 259.13 439.62 240.16 425.77 C 259.12 411.92 278.13 398.11 297.09 384.25 C 290.00 380.09 282.87 375.97 275.76 371.84 C 270.97 380.88 266.28 389.98 261.54 399.06 C 251.63 393.37 241.76 387.63 231.88 381.89 C 237.18 372.78 242.55 363.69 247.86 354.59 C 241.15 351.04 234.45 347.49 227.73 343.97 C 221.01 356.59 214.26 369.18 207.59 381.83 C 194.14 387.07 180.65 392.17 167.17 397.33 C 165.83 384.55 164.50 371.77 163.18 359.00 C 162.79 357.34 164.02 356.03 164.75 354.69 C 171.94 342.82 179.05 330.90 186.18 318.99 C 175.12 312.86 164.05 306.75 152.96 300.65 C 143.25 315.07 133.62 329.53 123.91 343.95 C 111.45 337.03 98.99 330.12 86.54 323.19 C 86.92 292.13 87.31 261.08 87.70 230.02 C 114.18 214.78 140.68 199.57 167.16 184.35 C 179.83 191.86 192.50 199.36 205.15 206.90 C 197.27 221.95 189.33 236.96 181.45 252.00 C 192.91 257.35 204.39 262.68 215.86 268.00 C 222.82 255.94 229.69 243.82 236.67 231.77 C 250.10 226.48 263.49 221.11 276.91 215.81 C 277.50 229.20 278.04 242.58 278.64 255.97 C 278.80 257.30 278.51 258.54 277.76 259.66 C 271.53 270.73 265.33 281.82 259.12 292.91 C 265.04 296.67 270.97 300.42 276.92 304.15 C 282.47 295.47 287.98 286.77 293.54 278.09 C 302.43 283.63 311.34 289.16 320.22 294.72 C 316.10 303.02 311.93 311.30 307.83 319.62 C 314.14 322.58 320.45 325.55 326.78 328.50 C 328.77 306.96 330.73 285.42 332.71 263.88 C 352.88 273.34 373.02 282.84 393.20 292.28 C 393.01 284.79 392.80 277.30 392.59 269.81 C 383.50 269.40 374.42 269.03 365.34 268.63 C 364.94 257.74 364.54 246.84 364.18 235.95 C 373.85 235.55 383.53 235.17 393.20 234.77 C 393.21 228.45 393.21 222.13 393.20 215.81 C 379.77 215.59 366.34 215.38 352.91 215.19 C 341.99 206.93 331.13 198.58 320.24 190.29 C 330.75 182.44 341.28 174.62 351.79 166.77 C 352.94 165.70 354.58 166.00 356.02 165.88 C 369.61 165.58 383.20 165.17 396.79 164.82 C 397.57 152.55 398.36 140.27 399.13 128.00 C 380.94 126.79 362.76 125.67 344.57 124.45 C 344.57 110.21 344.58 95.97 344.57 81.73 Z" />
</g>
</svg>
