<?xml version="1.0" encoding="UTF-8" ?>
<!DOCTYPE svg PUBLIC "-//W3C//DTD SVG 1.1//EN" "http://www.w3.org/Graphics/SVG/1.1/DTD/svg11.dtd">
<svg width="626pt" height="626pt" viewBox="0 0 626 626" version="1.1" xmlns="http://www.w3.org/2000/svg">
<g id="#ffffffff">
</g>
<g id="#000000ff">
<path fill="#000000" opacity="1.00" d=" M 252.35 0.00 L 255.62 0.00 C 259.86 0.21 263.68 2.38 266.59 5.38 C 277.60 16.38 288.59 27.39 299.60 38.39 C 304.09 42.73 308.23 47.43 313.02 51.45 C 315.45 49.42 317.78 47.27 319.93 44.93 C 330.59 34.27 341.24 23.59 351.90 12.92 C 356.93 8.08 361.43 2.06 368.43 0.00 L 373.63 0.00 C 381.82 1.30 388.24 8.69 388.28 16.99 C 387.75 21.87 385.45 26.51 381.83 29.83 C 358.83 52.60 336.15 75.70 313.03 98.35 C 290.92 76.66 269.22 54.55 247.26 32.71 C 243.86 29.26 239.86 25.94 238.65 21.02 C 237.89 16.99 237.88 12.53 240.00 8.88 C 242.31 4.10 247.29 1.10 252.35 0.00 Z" />
<path fill="#000000" opacity="1.00" d=" M 142.12 59.99 C 142.64 48.99 156.45 41.71 165.88 47.29 C 169.83 49.04 172.40 52.75 174.13 56.57 C 175.08 60.29 174.81 64.19 174.86 68.00 C 174.88 95.02 174.81 122.04 174.89 149.06 C 174.69 151.83 177.10 153.50 178.83 155.23 C 192.28 168.44 205.45 181.94 218.88 195.17 C 219.92 196.41 221.61 195.43 222.57 194.59 C 236.22 183.78 252.07 176.03 268.55 170.55 C 279.83 167.64 291.19 164.63 302.91 164.31 C 302.50 163.37 302.21 162.35 301.47 161.61 C 274.18 134.54 247.09 107.25 219.89 80.09 C 216.70 76.92 214.75 72.51 214.77 68.00 C 215.12 61.18 219.80 54.65 226.44 52.68 C 232.03 51.55 238.53 51.98 242.73 56.30 C 266.23 79.57 289.43 103.17 313.04 126.33 C 315.63 124.52 317.64 122.05 319.92 119.88 C 340.90 98.89 361.90 77.90 382.91 56.92 C 387.22 52.19 394.27 51.31 400.21 52.83 C 408.80 55.29 413.93 65.98 410.32 74.19 C 409.25 76.66 407.58 78.81 405.80 80.80 C 380.42 106.10 355.13 131.48 329.77 156.79 C 327.62 159.24 324.64 161.04 323.28 164.10 C 351.96 166.26 380.12 176.47 403.01 194.00 C 404.33 195.04 406.49 196.81 407.86 194.84 C 421.70 181.07 435.44 167.19 449.29 153.42 C 450.47 152.25 451.61 150.83 451.34 149.05 C 451.37 120.38 451.34 91.71 451.35 63.04 C 451.00 55.89 455.59 48.63 462.53 46.46 C 472.24 42.41 484.12 50.55 484.28 60.97 C 484.53 79.94 484.20 98.92 484.45 117.90 C 489.39 113.73 493.69 108.87 498.33 104.39 C 510.67 92.05 522.98 79.67 535.34 67.35 C 541.78 60.39 554.14 60.38 560.18 67.84 C 565.44 74.19 565.17 84.42 559.29 90.29 C 545.02 104.70 530.59 118.94 516.31 133.33 C 513.74 136.06 510.62 138.35 508.72 141.65 C 526.82 141.80 544.92 141.66 563.02 141.72 C 567.34 141.73 571.88 142.80 575.04 145.93 C 581.03 150.98 582.48 160.58 578.03 167.07 C 575.05 171.66 569.66 175.06 564.06 174.68 C 535.02 174.74 505.98 174.66 476.95 174.71 C 473.67 174.52 471.95 177.88 469.75 179.75 C 458.14 191.13 447.01 202.99 435.19 214.15 C 433.51 215.81 431.78 217.42 430.31 219.27 C 429.96 220.78 431.22 221.87 431.98 223.00 C 445.84 240.99 455.18 262.30 459.53 284.56 C 461.19 290.58 460.90 296.89 462.20 302.96 C 462.94 302.49 463.65 301.99 464.35 301.46 C 490.59 275.01 517.04 248.76 543.32 222.35 C 546.33 219.13 549.81 215.96 554.29 215.07 C 559.72 213.53 565.44 215.88 569.51 219.49 C 575.61 225.65 575.84 236.52 569.65 242.71 C 548.00 264.38 526.32 286.02 504.63 307.66 C 502.84 309.30 501.12 311.03 499.68 312.99 C 506.99 321.11 515.10 328.48 522.70 336.34 C 538.35 352.00 554.04 367.63 569.65 383.33 C 576.19 389.98 575.41 402.28 567.69 407.68 C 563.89 410.71 558.70 412.31 553.94 410.83 C 549.38 409.83 545.94 406.41 542.84 403.15 C 517.68 377.99 492.52 352.82 467.35 327.66 C 465.71 325.90 464.13 323.92 461.77 323.12 C 459.89 352.56 448.94 381.39 430.70 404.60 C 429.27 406.48 431.68 407.95 432.73 409.25 C 445.65 422.30 458.69 435.23 471.61 448.28 C 473.07 449.72 474.67 451.55 476.95 451.27 C 506.24 451.33 535.54 451.24 564.83 451.34 C 575.27 451.30 583.23 463.08 579.76 472.81 C 577.70 479.10 571.72 484.00 565.02 484.21 C 546.03 484.48 527.04 484.10 508.05 484.37 C 511.94 488.98 516.51 492.94 520.72 497.25 C 532.23 509.10 544.14 520.55 555.70 532.36 C 558.98 535.41 562.25 538.83 563.39 543.31 C 564.22 547.68 563.98 552.48 561.36 556.23 C 556.46 564.82 543.44 566.37 536.38 559.60 C 522.90 546.42 509.77 532.88 496.27 519.72 C 492.36 515.79 488.65 511.65 484.42 508.06 C 484.10 527.04 484.50 546.04 484.22 565.02 C 484.02 575.41 472.20 583.53 462.50 579.56 C 456.00 577.48 451.06 570.94 451.32 564.06 C 451.27 535.03 451.34 505.99 451.29 476.95 C 451.54 474.93 450.11 473.38 448.80 472.07 C 434.54 457.93 420.43 443.63 406.17 429.49 C 382.61 448.37 353.18 459.82 323.05 461.67 C 323.48 462.60 323.81 463.61 324.53 464.38 C 349.81 489.47 374.87 514.77 400.11 539.90 C 404.33 544.39 409.93 548.43 410.96 554.94 C 413.26 565.88 401.86 576.75 391.05 573.78 C 385.85 572.85 382.24 568.84 378.72 565.27 C 357.45 543.88 335.99 522.67 314.77 501.23 C 314.00 500.37 312.63 499.45 311.70 500.68 C 289.03 523.34 266.34 545.99 243.69 568.67 C 240.23 572.39 235.03 574.62 229.95 574.24 C 225.57 573.34 220.70 571.84 218.19 567.83 C 214.97 563.79 213.58 558.14 215.32 553.18 C 216.81 548.00 221.20 544.52 224.83 540.83 C 248.98 516.65 273.16 492.49 297.30 468.31 C 299.32 466.24 301.93 464.53 302.92 461.68 C 273.71 459.83 245.10 449.02 222.00 431.03 C 219.79 428.94 217.70 431.62 216.21 433.14 C 202.95 446.88 189.19 460.14 175.80 473.76 C 174.79 474.89 174.90 476.52 174.84 477.94 C 174.84 506.65 174.91 535.36 174.81 564.07 C 175.10 573.34 166.08 581.35 156.95 580.45 C 150.96 579.75 145.08 575.88 142.94 570.07 C 141.18 564.56 141.92 558.69 141.78 553.00 C 141.67 538.01 141.98 523.01 141.61 508.02 C 124.44 525.03 107.48 542.28 90.28 559.26 C 85.05 564.12 76.57 565.45 70.39 561.68 C 63.19 557.90 60.19 548.07 63.66 540.80 C 64.70 538.31 66.55 536.31 68.42 534.44 C 81.61 521.29 94.76 508.12 107.93 494.95 C 111.28 491.42 115.04 488.27 118.00 484.40 C 102.34 484.15 86.67 484.36 71.00 484.29 C 66.77 484.19 62.47 484.65 58.30 483.75 C 52.63 482.72 48.02 478.07 46.36 472.64 C 42.66 462.75 51.40 450.84 61.94 451.32 C 90.98 451.28 120.01 451.29 149.05 451.31 C 150.50 451.42 152.02 451.15 152.95 449.93 C 167.34 435.54 181.73 421.14 196.14 406.76 C 195.62 404.59 194.20 402.87 192.83 401.18 C 176.08 378.58 166.19 351.05 164.33 323.01 C 162.51 324.27 160.88 325.77 159.41 327.43 C 135.79 351.12 112.08 374.72 88.47 398.42 C 83.65 403.04 79.27 408.68 72.72 410.90 C 66.98 412.82 60.79 410.40 56.48 406.52 C 52.35 402.05 51.25 395.39 52.87 389.63 C 54.27 384.66 58.52 381.46 61.94 377.91 C 81.95 357.92 101.94 337.92 121.95 317.93 C 123.55 316.42 125.05 314.80 126.46 313.11 C 105.23 291.51 83.64 270.25 62.25 248.79 C 58.49 244.90 53.75 241.32 52.50 235.76 C 52.15 232.01 51.71 227.91 53.53 224.46 C 55.81 219.18 61.26 215.50 66.93 214.95 C 71.80 214.37 76.68 216.47 80.11 219.87 C 107.26 247.08 134.52 274.17 161.60 301.45 C 162.41 302.19 163.47 302.56 164.44 303.03 C 166.28 273.81 176.98 245.12 195.09 222.07 C 196.30 221.00 196.07 219.12 194.86 218.16 C 181.16 204.19 167.26 190.43 153.46 176.57 C 152.50 175.72 151.50 174.51 150.06 174.72 C 120.69 174.68 91.31 174.74 61.94 174.67 C 50.89 175.23 41.98 162.02 46.98 152.06 C 49.22 145.89 55.42 141.68 61.97 141.73 C 80.87 141.61 99.77 141.85 118.67 141.63 C 101.31 124.58 84.21 107.25 66.99 90.06 C 59.75 83.20 61.07 69.68 69.79 64.70 C 76.27 60.39 85.46 61.64 90.86 67.16 C 105.88 82.12 120.85 97.15 135.86 112.12 C 137.70 114.08 139.52 116.11 141.82 117.55 C 142.29 98.37 141.69 79.17 142.12 59.99 M 298.50 197.74 C 289.48 198.48 280.82 201.26 272.32 204.23 C 259.91 209.34 247.98 215.95 238.01 225.03 C 219.97 239.85 207.18 260.66 200.86 283.05 C 197.93 292.07 197.49 301.61 196.83 311.00 C 196.62 315.37 197.24 319.73 197.49 324.09 C 201.50 371.10 237.72 412.77 282.98 425.11 C 310.03 432.58 339.89 429.58 364.83 416.61 C 382.34 407.54 397.78 394.23 408.87 377.88 C 423.43 356.74 430.96 330.64 428.79 304.97 C 427.64 282.94 419.11 261.61 406.01 243.99 C 394.39 229.17 379.89 216.29 362.72 208.29 C 343.01 198.48 320.32 194.80 298.50 197.74 Z" />
<path fill="#000000" opacity="1.00" d=" M 0.00 247.42 C 0.77 239.43 7.86 232.52 15.97 232.50 C 21.17 232.06 26.08 234.74 29.61 238.39 C 52.48 261.33 75.41 284.22 98.28 307.17 C 96.17 309.74 93.92 312.21 91.46 314.45 C 70.99 334.99 50.42 355.42 30.03 376.04 C 26.45 379.91 21.41 382.87 15.97 382.45 C 7.08 382.35 -0.73 373.87 0.08 364.98 C 0.15 360.06 3.34 355.98 6.51 352.53 C 19.57 339.58 32.50 326.52 45.54 313.55 C 47.67 311.61 49.58 309.45 51.45 307.26 C 36.58 292.24 21.49 277.41 6.57 262.42 C 3.62 259.34 1.11 255.75 0.00 251.58 L 0.00 247.42 Z" />
<path fill="#000000" opacity="1.00" d=" M 597.43 237.43 C 602.38 232.43 610.56 230.87 616.83 234.23 C 621.68 236.45 624.77 241.34 626.00 246.39 L 626.00 249.61 C 625.86 255.70 621.56 260.42 617.43 264.41 C 603.12 278.81 588.62 293.03 574.43 307.55 C 589.31 322.35 604.09 337.25 618.99 352.03 C 622.02 355.03 624.49 358.60 626.00 362.60 L 626.00 368.60 C 624.37 376.01 617.85 382.42 610.02 382.45 C 604.04 382.94 598.79 379.28 594.97 375.03 C 574.83 354.85 554.62 334.71 534.48 314.53 C 532.06 312.21 529.65 309.87 527.61 307.21 C 550.87 283.94 574.17 260.70 597.43 237.43 Z" />
<path fill="#000000" opacity="1.00" d=" M 243.26 597.24 C 266.53 574.07 289.62 550.71 313.02 527.68 C 336.41 550.38 359.13 573.77 382.30 596.69 C 387.42 601.22 389.11 608.75 386.97 615.15 C 384.88 621.20 378.87 625.44 372.57 626.00 L 368.39 626.00 C 363.63 624.47 359.71 621.23 356.41 617.57 C 345.42 606.56 334.41 595.57 323.42 584.57 C 319.99 581.21 316.78 577.61 313.05 574.57 C 298.73 588.05 285.15 602.33 271.10 616.11 C 267.22 620.20 263.15 624.53 257.48 626.00 L 251.44 626.00 C 247.73 624.57 243.90 622.77 241.45 619.51 C 236.44 612.98 237.22 602.86 243.26 597.24 Z" />
</g>
</svg>
