<?xml version="1.0" encoding="UTF-8" ?>
<!DOCTYPE svg PUBLIC "-//W3C//DTD SVG 1.1//EN" "http://www.w3.org/Graphics/SVG/1.1/DTD/svg11.dtd">
<svg width="312pt" height="328pt" viewBox="0 0 312 328" version="1.1" xmlns="http://www.w3.org/2000/svg">
<g id="#ffffffff">
</g>
<g id="#000000ff">
<path fill="#000000" opacity="1.00" d=" M 155.26 9.94 C 163.96 10.28 165.85 19.45 168.40 25.84 C 170.34 31.79 173.46 37.47 174.31 43.71 C 172.67 48.71 167.93 51.72 164.37 55.30 C 164.02 62.31 163.72 69.33 163.22 76.34 C 162.43 69.28 162.05 62.19 161.70 55.10 C 164.71 51.06 170.44 48.18 171.64 43.13 C 169.51 32.58 164.07 22.95 160.11 12.99 C 159.29 12.99 157.66 12.97 156.85 12.96 C 152.74 20.44 149.80 28.46 146.21 36.19 C 145.22 38.62 144.11 41.16 144.24 43.85 C 146.36 48.71 152.11 51.00 153.97 55.99 C 155.44 62.93 154.67 70.09 153.60 77.03 C 147.93 74.06 143.52 69.37 138.43 65.61 C 134.66 63.55 130.40 68.03 131.01 71.85 C 137.39 80.42 146.38 86.56 153.29 94.63 C 156.27 100.94 154.97 108.48 153.53 115.11 C 150.63 115.09 144.81 115.04 141.91 115.02 C 137.08 108.08 133.89 100.02 128.41 93.56 C 125.90 90.50 120.60 92.22 120.03 96.03 C 123.02 103.25 128.48 109.23 131.40 116.52 C 133.27 120.71 131.28 125.49 127.60 127.75 C 120.96 128.84 115.18 124.58 110.34 120.67 C 105.27 111.28 105.75 99.74 100.53 90.40 C 98.13 86.47 93.60 88.98 90.57 90.57 C 91.57 96.78 92.92 102.92 93.88 109.13 C 87.57 108.61 82.01 105.46 76.76 102.20 C 71.12 98.87 71.24 91.38 69.01 85.94 C 56.45 84.53 43.72 79.00 31.03 81.70 C 37.44 91.88 45.72 100.70 53.25 110.03 C 59.35 109.15 65.41 107.05 71.63 107.53 C 77.60 109.71 82.67 113.79 87.51 117.80 C 81.35 115.61 75.82 111.98 69.73 109.66 C 63.97 109.15 58.43 112.84 52.70 112.10 C 48.96 109.64 46.69 105.55 43.68 102.32 C 38.24 95.17 30.37 89.06 29.25 79.50 C 40.74 77.17 52.21 80.48 63.51 82.31 C 65.70 83.20 68.67 82.74 70.70 84.26 C 73.35 88.74 72.99 94.62 76.23 98.76 C 81.10 102.52 86.88 104.88 92.12 108.07 C 90.86 102.73 89.21 97.46 88.32 92.04 C 88.88 85.98 97.97 83.80 101.75 88.25 C 107.76 97.26 106.84 108.92 111.64 118.40 C 115.89 122.24 121.36 124.42 126.27 127.28 C 127.85 124.12 130.98 120.55 129.07 116.88 C 125.03 109.01 119.68 101.80 116.59 93.44 C 119.79 91.30 123.24 89.74 126.94 88.76 C 134.40 95.24 137.68 104.89 142.97 112.99 C 146.05 112.98 149.17 113.01 152.26 113.00 C 151.57 107.34 153.19 101.04 151.27 95.63 C 143.93 88.31 136.54 80.98 128.54 74.38 C 128.98 70.54 128.79 64.80 133.44 63.37 C 142.14 60.80 146.50 70.98 152.42 74.95 C 152.15 68.75 152.53 62.43 151.49 56.31 C 148.66 51.62 144.16 48.26 140.67 44.09 C 145.60 32.74 149.94 21.12 155.26 9.94 Z" />
<path fill="#000000" opacity="1.00" d=" M 175.70 63.69 C 181.71 60.57 189.95 67.01 186.62 73.64 C 180.41 81.90 171.21 87.57 165.02 95.88 C 163.68 101.64 164.13 107.79 163.79 113.72 C 167.07 112.65 172.23 114.05 174.46 110.48 C 179.46 103.87 182.50 96.00 187.00 89.05 C 190.09 90.00 193.97 89.33 196.79 91.29 C 200.35 101.31 190.86 108.92 187.12 117.15 C 184.88 120.87 188.57 124.65 190.03 127.98 C 194.72 124.71 200.34 122.53 204.46 118.54 C 208.85 107.50 209.27 95.01 215.78 84.78 C 220.48 85.47 227.34 86.76 227.38 92.97 C 226.74 98.38 224.88 103.60 223.76 108.94 C 229.29 105.52 235.44 102.99 240.13 98.37 C 242.51 93.96 242.87 88.70 245.32 84.34 C 257.70 80.52 270.82 79.67 283.69 78.72 C 283.98 81.33 284.39 83.94 284.36 86.58 C 277.76 96.07 269.77 104.47 261.83 112.84 C 256.93 112.03 252.20 109.80 247.20 109.75 C 241.08 111.85 235.65 115.57 229.87 118.42 C 235.56 120.08 241.73 120.86 246.76 124.24 C 250.86 127.70 248.72 135.43 243.61 136.63 C 234.33 137.93 225.86 132.68 216.92 131.20 C 208.86 127.47 202.52 134.94 195.90 138.25 C 197.58 140.69 199.31 143.11 201.03 145.53 C 210.54 145.15 220.08 144.94 229.59 145.68 C 229.98 150.18 230.16 154.81 228.81 159.18 C 219.52 159.07 210.23 158.98 200.95 158.93 C 199.28 161.67 197.53 164.36 195.79 167.07 C 201.70 169.74 207.16 175.61 214.28 174.09 C 224.14 172.24 233.59 168.69 243.32 166.32 C 246.19 169.45 250.74 173.47 248.21 178.15 C 244.45 185.05 234.62 183.64 228.19 185.02 C 234.00 182.37 240.97 181.96 245.94 177.72 C 247.99 173.69 244.50 169.03 240.39 169.63 C 229.82 171.45 219.89 176.54 209.05 176.80 C 204.23 175.04 199.66 172.43 195.46 169.48 C 192.58 165.15 197.10 160.83 198.93 157.06 C 207.83 156.94 216.82 157.61 225.69 156.58 C 229.89 155.97 228.15 150.82 227.79 147.95 C 218.89 147.99 209.96 148.41 201.07 147.79 C 196.10 146.71 195.90 140.07 194.46 136.34 C 200.92 132.86 206.99 127.20 214.92 128.25 C 223.19 129.60 230.93 133.23 239.18 134.70 C 243.55 135.45 248.21 131.07 245.77 126.39 C 240.75 122.97 234.48 122.39 228.91 120.21 C 228.99 118.87 229.07 117.54 229.16 116.21 C 234.76 113.08 240.28 109.63 246.40 107.59 C 251.46 107.02 256.26 109.68 261.17 110.42 C 267.75 102.90 274.69 95.64 280.87 87.78 C 282.72 85.81 282.21 83.05 282.01 80.62 C 269.99 81.30 258.14 83.46 246.43 86.13 C 245.00 90.76 244.69 95.93 242.04 100.09 C 236.54 105.45 229.29 108.59 221.84 110.13 C 222.47 104.65 223.68 99.27 224.52 93.82 C 225.30 90.19 220.89 86.91 217.60 88.52 C 214.84 89.40 214.56 93.00 213.41 95.22 C 210.82 103.54 209.59 112.34 206.20 120.39 C 201.06 125.16 194.61 128.25 187.80 129.78 C 186.29 125.61 183.27 121.42 184.82 116.77 C 187.45 110.70 191.46 105.38 194.61 99.60 C 196.28 96.84 194.85 93.64 194.38 90.76 C 192.88 91.48 189.88 92.90 188.38 93.62 C 182.77 100.16 178.85 107.89 174.04 115.00 C 171.21 115.00 165.55 114.99 162.72 114.99 C 163.15 107.50 159.02 98.08 164.97 92.00 C 171.81 84.87 179.58 78.61 185.80 70.90 C 183.55 68.86 181.74 64.63 178.24 65.20 C 173.44 68.57 169.51 73.03 164.69 76.38 C 167.48 71.56 170.58 66.29 175.70 63.69 Z" />
<path fill="#000000" opacity="1.00" d=" M 69.22 124.19 C 74.58 120.44 81.24 119.61 87.61 119.31 C 82.06 122.18 74.50 122.23 70.23 127.20 C 70.63 130.05 71.45 132.82 72.45 135.52 C 81.88 133.62 91.02 130.45 100.48 128.70 C 108.61 125.87 115.05 132.28 121.73 135.65 C 120.94 139.68 119.25 143.42 117.24 146.98 C 108.59 146.98 99.90 146.57 91.29 147.42 C 88.40 147.97 86.88 151.04 87.00 153.77 C 88.19 155.03 89.66 156.12 91.40 156.46 C 99.96 157.35 108.58 157.03 117.17 157.05 C 118.99 160.52 120.60 164.10 121.93 167.79 C 115.73 170.52 110.54 177.17 103.18 176.38 C 93.81 174.90 84.83 171.73 75.60 169.66 C 71.11 168.73 67.54 175.02 70.64 178.35 C 75.22 181.10 80.73 181.86 85.83 183.35 C 85.89 183.96 86.02 185.18 86.09 185.79 C 80.69 184.20 74.77 183.86 69.80 181.18 C 65.82 176.81 68.52 170.44 71.69 166.47 C 80.99 168.57 90.14 171.29 99.34 173.78 C 101.53 174.26 103.94 175.04 106.09 173.98 C 110.93 171.69 115.41 168.73 120.09 166.13 C 118.44 163.92 116.81 161.69 115.29 159.39 C 106.58 159.07 97.82 159.57 89.15 158.71 C 86.37 157.53 85.18 154.12 83.06 152.11 C 85.04 149.82 86.64 146.98 89.40 145.55 C 97.82 144.80 106.30 145.26 114.72 144.59 C 117.00 142.70 118.59 140.16 120.44 137.88 C 116.01 135.14 111.43 132.61 106.61 130.59 C 94.81 130.03 84.11 137.44 72.30 136.68 C 67.00 135.29 65.99 128.00 69.22 124.19 Z" />
<path fill="#000000" opacity="1.00" d=" M 144.13 129.05 C 153.37 129.01 162.61 129.00 171.85 129.03 C 175.45 135.41 179.68 141.45 182.74 148.13 C 184.24 150.74 184.41 154.25 182.89 156.89 C 179.46 163.04 175.77 169.05 171.99 174.99 C 162.66 174.99 153.34 175.01 144.02 174.98 C 140.28 169.04 136.31 163.21 133.23 156.88 C 130.54 152.73 133.09 147.94 135.18 144.21 C 138.07 139.10 141.18 134.13 144.13 129.05 M 145.38 131.14 C 142.53 136.60 139.12 141.73 136.06 147.07 C 134.40 149.86 133.88 153.60 135.58 156.50 C 138.70 162.03 142.43 167.21 145.18 172.96 C 153.66 172.97 162.14 172.94 170.62 172.84 C 173.40 167.63 176.58 162.67 179.65 157.63 C 180.93 155.29 182.60 152.44 181.13 149.80 C 177.98 143.39 173.91 137.48 170.68 131.12 C 162.24 131.05 153.81 131.05 145.38 131.14 Z" />
<path fill="#000000" opacity="1.00" d=" M 107.35 191.53 C 107.83 180.96 119.65 177.28 128.18 175.34 C 129.58 179.24 132.61 183.01 131.13 187.42 C 128.44 195.02 121.70 200.86 120.07 208.85 C 121.14 210.76 122.72 212.61 124.92 213.18 C 132.08 208.71 134.14 199.46 139.19 193.10 C 141.59 187.49 148.51 190.03 153.28 189.73 C 153.29 196.17 155.13 203.04 153.23 209.27 C 147.13 217.70 138.06 223.49 131.68 231.69 C 129.11 235.31 134.43 241.23 138.36 238.20 C 142.98 235.56 146.46 231.31 151.11 228.66 C 147.87 233.15 144.28 237.36 140.73 241.61 C 137.14 240.74 130.38 241.65 129.34 236.61 C 126.69 230.52 132.95 227.05 136.18 223.18 C 140.91 218.00 147.22 214.20 151.06 208.24 C 151.86 202.93 151.97 197.56 152.26 192.22 C 149.13 191.93 146.04 191.73 142.93 191.40 C 138.62 198.84 134.64 206.51 129.28 213.27 C 125.42 218.01 116.12 213.39 117.63 207.41 C 120.55 199.12 127.11 192.60 129.67 184.14 C 128.84 181.59 127.26 179.39 125.93 177.09 C 121.15 179.86 115.76 181.85 111.64 185.57 C 107.87 194.57 107.25 204.61 103.62 213.68 C 101.40 220.37 89.78 219.69 88.45 212.68 C 88.12 206.88 90.99 201.40 91.93 195.78 C 86.55 199.30 81.04 202.63 75.24 205.43 C 74.00 210.30 72.74 215.17 71.65 220.08 C 57.60 222.30 43.20 227.35 28.87 224.48 C 31.94 210.72 44.81 202.89 52.35 191.80 C 58.38 192.57 64.34 194.77 70.46 194.09 C 76.13 191.75 81.04 187.58 87.29 186.68 C 82.81 190.17 78.16 193.56 72.97 195.93 C 66.37 198.17 59.69 195.28 53.24 194.07 C 46.35 203.46 37.53 211.37 31.47 221.37 C 32.44 222.24 33.42 223.12 34.39 224.01 C 46.15 222.99 57.75 220.73 69.33 218.51 C 70.74 213.86 71.23 208.83 73.63 204.56 C 79.53 199.82 86.41 196.20 93.75 194.26 C 93.49 200.70 91.88 206.97 90.76 213.29 C 93.53 214.51 96.33 215.60 99.17 216.69 C 102.79 208.62 105.14 200.07 107.35 191.53 Z" />
<path fill="#000000" opacity="1.00" d=" M 188.31 176.26 C 193.77 175.93 198.51 179.52 203.12 181.89 C 208.47 184.82 208.29 191.85 210.22 196.92 C 212.66 203.08 211.94 211.07 217.21 215.76 C 219.96 215.34 222.67 214.59 225.28 213.63 C 224.23 207.71 223.01 201.81 222.08 195.86 C 229.61 196.14 236.56 199.97 242.04 204.90 C 244.55 208.80 244.93 213.64 246.42 217.96 C 257.63 221.26 269.16 223.35 280.82 224.12 C 281.60 223.07 282.39 222.03 283.18 220.99 C 275.92 211.82 268.23 203.00 260.81 193.96 C 255.40 195.34 249.84 197.41 244.19 196.69 C 238.41 194.43 232.89 191.23 228.47 186.83 C 233.93 188.45 238.67 191.75 243.96 193.79 C 250.14 195.84 256.16 192.72 262.14 191.65 C 269.17 200.00 276.66 207.99 283.02 216.89 C 284.31 218.89 284.76 221.25 285.61 223.49 C 284.59 224.36 283.59 225.24 282.59 226.13 C 269.59 226.37 256.91 223.29 244.44 219.98 C 243.09 215.54 242.75 210.66 240.36 206.62 C 235.29 202.68 229.59 199.69 223.97 196.67 C 225.12 202.37 226.95 208.02 226.83 213.89 C 225.05 220.21 214.59 219.44 212.40 213.69 C 209.08 204.57 207.76 194.76 204.19 185.74 C 199.43 182.31 194.09 179.76 188.69 177.51 C 187.52 180.77 185.14 184.48 187.08 187.93 C 190.55 194.72 195.72 200.69 197.97 208.06 C 199.13 214.63 188.80 217.98 185.40 212.60 C 180.35 206.08 177.15 198.34 172.73 191.40 C 169.50 191.64 166.28 191.89 163.05 192.14 C 162.99 195.92 162.85 203.48 162.78 207.26 C 169.56 214.50 177.39 220.64 184.30 227.73 C 187.16 230.64 188.35 236.11 185.22 239.18 C 182.53 240.84 179.17 240.82 176.15 241.57 C 171.90 237.42 167.75 233.16 163.22 229.32 C 163.39 235.41 162.21 241.70 163.39 247.75 C 166.12 252.15 170.72 255.02 173.83 259.13 C 175.06 260.67 173.83 262.68 173.51 264.35 C 170.02 273.21 167.46 282.55 162.85 290.93 C 161.64 294.04 157.91 294.65 155.39 296.07 C 148.18 285.03 145.11 272.11 140.58 259.89 C 143.97 256.18 147.70 252.80 151.43 249.43 C 151.89 242.82 152.41 236.22 152.98 229.62 C 153.51 235.71 154.40 241.86 153.95 247.99 C 152.64 253.86 145.09 256.06 144.11 261.99 C 146.12 270.36 149.94 278.23 152.59 286.41 C 153.64 289.25 155.88 293.21 159.52 291.67 C 163.09 286.98 164.51 281.09 166.80 275.73 C 168.52 270.92 171.16 266.28 171.61 261.11 C 169.43 256.35 164.81 253.31 161.18 249.70 C 161.08 242.84 161.04 235.99 161.00 229.14 C 162.58 228.92 164.16 228.69 165.74 228.45 C 169.55 231.86 172.75 236.24 177.36 238.65 C 181.24 240.25 183.78 235.97 185.86 233.47 C 178.01 224.79 169.45 216.80 160.99 208.73 C 161.15 202.44 161.27 196.15 161.65 189.87 C 166.36 190.13 172.94 187.08 175.87 192.10 C 180.57 198.49 182.81 206.78 188.87 212.13 C 191.97 215.07 197.83 209.98 194.68 206.19 C 192.11 199.90 187.44 194.65 184.72 188.40 C 183.13 184.14 184.41 178.76 188.31 176.26 Z" />
</g>
</svg>
