<?xml version="1.0" encoding="UTF-8" ?>
<!DOCTYPE svg PUBLIC "-//W3C//DTD SVG 1.1//EN" "http://www.w3.org/Graphics/SVG/1.1/DTD/svg11.dtd">
<svg width="720pt" height="720pt" viewBox="0 0 720 720" version="1.1" xmlns="http://www.w3.org/2000/svg">
<g id="#000000ff">
<path fill="#000000" opacity="1.00" d=" M 334.26 0.00 L 334.57 0.00 C 334.98 1.32 336.54 1.81 337.49 2.70 C 345.01 8.15 352.48 13.67 359.99 19.13 C 368.36 12.67 377.47 7.10 385.29 0.00 L 385.74 0.00 C 385.46 10.77 383.62 21.45 382.62 32.18 C 392.43 36.64 402.40 40.75 412.15 45.34 C 402.33 49.83 392.31 53.89 382.56 58.56 C 383.99 69.23 384.86 79.97 386.21 90.65 C 380.99 86.82 375.74 83.06 370.58 79.17 C 370.56 95.58 370.54 112.00 370.58 128.42 C 386.20 113.11 401.51 97.47 417.06 82.09 C 421.12 77.92 428.58 78.20 432.34 82.62 C 435.97 86.55 435.83 93.33 431.95 97.06 C 411.51 117.65 390.81 138.00 370.48 158.70 C 370.67 169.80 370.49 180.91 370.58 192.01 C 385.30 177.23 400.11 162.54 414.82 147.75 C 417.07 145.41 419.60 142.93 423.01 142.62 C 429.07 141.60 435.22 146.90 434.95 153.07 C 435.12 156.22 433.49 159.10 431.27 161.22 C 411.02 181.45 390.77 201.68 370.55 221.94 C 370.59 243.95 370.53 265.96 370.57 287.97 C 371.11 292.37 373.36 296.34 374.51 300.59 C 374.81 300.14 375.40 299.23 375.69 298.77 C 382.24 282.85 388.84 266.95 395.45 251.06 C 396.20 249.46 396.13 247.67 396.19 245.96 C 388.79 243.81 381.39 241.64 373.99 239.50 C 380.40 235.22 387.16 231.50 393.66 227.36 C 391.76 219.93 389.95 212.47 388.19 205.01 C 395.04 208.56 401.67 212.51 408.56 215.99 C 414.08 210.64 419.66 205.35 425.20 200.02 C 425.35 207.74 425.55 215.46 425.70 223.19 C 433.03 225.34 440.38 227.48 447.73 229.57 C 441.42 233.86 434.78 237.67 428.21 241.56 C 429.80 249.15 431.87 256.62 433.61 264.17 C 427.02 260.62 420.48 256.98 413.91 253.40 C 406.39 271.54 398.90 289.68 391.37 307.81 C 396.14 305.15 401.89 303.87 405.54 299.53 C 421.68 283.28 437.93 267.12 454.11 250.90 C 454.15 226.27 454.13 201.64 454.12 177.01 C 454.18 173.27 453.56 169.08 456.07 165.92 C 459.17 161.33 466.07 160.06 470.58 163.32 C 473.79 165.42 475.46 169.29 475.26 173.07 C 475.23 191.96 475.27 210.85 475.24 229.75 C 483.15 221.88 491.05 214.00 498.91 206.08 C 498.84 180.04 498.88 154.00 498.89 127.97 C 498.57 122.62 502.61 117.41 507.99 116.74 C 514.03 115.66 520.16 120.87 520.07 127.02 C 520.20 146.29 520.11 165.58 520.11 184.86 C 530.42 174.57 540.79 164.34 551.00 153.95 C 544.70 152.92 538.35 152.19 532.11 150.87 C 540.51 144.18 548.82 137.40 557.23 130.73 C 553.33 120.61 549.42 110.50 545.46 100.41 C 555.56 104.37 565.64 108.37 575.83 112.12 C 582.54 103.71 589.27 95.31 596.07 86.97 C 597.68 97.63 599.36 108.28 600.99 118.94 C 611.62 120.66 622.28 122.24 632.92 123.90 C 624.66 130.82 616.14 137.44 607.77 144.23 C 611.68 154.33 615.57 164.43 619.54 174.50 C 609.45 170.55 599.35 166.64 589.24 162.77 C 582.48 171.15 575.84 179.62 568.94 187.88 C 567.86 181.61 567.24 175.26 565.85 169.05 C 554.32 180.67 542.70 192.20 531.15 203.80 C 552.75 203.79 574.35 203.79 595.95 203.79 C 601.33 203.43 606.54 207.57 607.19 212.96 C 608.19 218.88 603.12 225.03 597.05 224.89 C 568.01 225.00 538.97 224.80 509.93 224.99 C 502.07 232.91 494.15 240.77 486.27 248.66 C 508.18 248.71 530.10 248.62 552.01 248.70 C 557.51 248.64 562.43 253.52 562.44 259.01 C 562.69 264.66 557.70 269.96 552.00 269.77 C 523.04 269.83 494.08 269.75 465.12 269.81 C 450.07 284.84 435.09 299.94 419.98 314.92 C 415.92 318.54 414.73 324.11 412.12 328.70 C 428.76 321.83 445.37 314.88 462.03 308.05 C 463.70 307.43 464.92 306.12 466.18 304.92 C 462.45 298.13 458.74 291.33 455.01 284.54 C 462.57 286.29 470.05 288.38 477.65 289.94 C 481.66 283.53 485.09 276.68 489.68 270.69 C 491.87 277.95 493.82 285.30 496.15 292.52 C 503.81 292.56 511.46 292.84 519.12 292.93 C 513.89 298.63 508.49 304.15 503.18 309.77 C 506.92 316.47 510.56 323.24 514.29 329.95 C 506.78 328.27 499.33 326.34 491.85 324.54 C 487.79 331.12 483.77 337.73 479.80 344.36 C 477.70 337.20 475.59 330.04 473.54 322.87 C 456.73 329.46 440.17 336.70 423.41 343.43 C 422.05 343.95 420.79 344.65 419.58 345.43 C 423.73 346.68 427.67 348.81 432.00 349.39 C 455.35 349.44 478.70 349.38 502.05 349.42 C 503.55 349.71 504.54 348.42 505.53 347.55 C 521.98 330.98 538.53 314.51 555.04 298.00 C 557.81 295.39 560.20 291.95 564.08 290.94 C 568.62 289.59 573.90 291.79 576.11 295.98 C 578.45 299.93 577.66 305.31 574.42 308.52 C 560.88 322.19 547.14 335.66 533.66 349.38 C 544.78 349.44 555.90 349.39 567.03 349.41 C 585.61 330.90 604.11 312.29 622.71 293.80 C 626.65 289.46 634.13 289.51 638.02 293.88 C 641.94 297.84 641.78 304.90 637.67 308.68 C 624.13 322.27 610.54 335.82 596.96 349.38 C 611.58 349.43 626.20 349.42 640.81 349.39 C 636.95 344.25 633.19 339.05 629.40 333.86 C 640.04 335.08 650.73 335.92 661.32 337.46 C 666.07 327.75 670.14 317.71 674.56 307.85 C 679.32 317.52 683.28 327.58 687.80 337.36 C 698.52 336.30 709.22 334.52 720.00 334.26 L 720.00 334.56 C 718.67 334.94 718.20 336.48 717.33 337.41 C 711.88 344.97 706.32 352.44 700.85 359.99 C 707.30 368.50 713.20 377.44 720.00 385.69 L 720.00 385.84 C 709.22 385.34 698.53 383.64 687.78 382.62 C 683.43 392.49 679.03 402.34 674.75 412.25 C 670.12 402.43 666.13 392.31 661.41 382.54 C 650.76 383.93 640.06 384.91 629.40 386.15 C 633.18 380.93 636.96 375.71 640.83 370.57 C 624.38 370.52 607.92 370.55 591.47 370.55 C 606.74 385.90 622.08 401.18 637.38 416.50 C 641.16 419.86 642.05 425.95 639.21 430.16 C 635.92 435.68 627.38 436.62 622.96 431.97 C 604.09 413.17 585.30 394.30 566.45 375.48 C 564.72 373.84 563.23 371.88 561.19 370.61 C 550.12 370.45 539.05 370.57 527.98 370.57 C 543.25 385.80 558.47 401.09 573.73 416.32 C 576.10 418.53 577.74 421.66 577.46 424.98 C 577.30 430.77 571.66 435.70 565.88 434.91 C 561.73 434.79 558.91 431.41 556.21 428.72 C 536.83 409.31 517.46 389.89 498.02 370.54 C 475.99 370.57 453.95 370.51 431.92 370.57 C 427.53 371.31 423.34 373.12 419.24 374.85 C 435.96 381.71 452.63 388.69 469.33 395.58 C 470.81 396.23 472.45 396.11 474.03 396.18 C 476.10 388.80 478.40 381.48 480.38 374.08 C 484.96 380.29 488.38 387.28 492.72 393.66 C 500.10 391.67 507.55 389.93 515.00 388.19 C 511.42 395.03 507.46 401.67 503.98 408.56 C 509.37 414.05 514.63 419.66 519.98 425.19 C 512.26 425.36 504.54 425.55 496.82 425.70 C 494.51 433.03 492.71 440.52 490.16 447.78 C 486.33 441.21 482.18 434.83 478.43 428.21 C 470.83 429.80 463.34 431.87 455.78 433.62 C 459.39 427.05 462.97 420.47 466.59 413.90 C 448.45 406.39 430.32 398.88 412.18 391.36 C 414.83 396.12 416.10 401.89 420.45 405.51 C 436.69 421.68 452.87 437.91 469.08 454.10 C 495.41 454.16 521.74 454.07 548.08 454.15 C 553.78 453.98 558.83 459.29 558.49 464.97 C 558.46 470.49 553.47 475.33 547.95 475.22 C 528.71 475.27 509.47 475.23 490.23 475.24 C 498.11 483.13 505.97 491.05 513.91 498.89 C 539.95 498.85 565.98 498.86 592.02 498.88 C 598.08 498.50 603.79 503.83 603.36 509.98 C 603.21 515.35 598.42 520.05 593.04 520.07 C 573.74 520.19 554.42 520.08 535.11 520.12 C 545.42 530.43 555.70 540.77 566.05 551.03 C 566.95 544.66 568.01 538.32 568.95 531.96 C 575.76 540.35 582.50 548.79 589.26 557.23 C 599.37 553.33 609.46 549.40 619.55 545.45 C 615.64 555.58 611.59 565.65 607.82 575.83 C 616.27 582.49 624.67 589.22 632.97 596.05 C 622.30 597.69 611.62 599.31 600.97 601.06 C 599.40 611.72 597.67 622.36 596.07 633.01 C 589.31 624.66 582.56 616.30 575.89 607.88 C 565.65 611.49 555.61 615.63 545.48 619.53 C 549.43 609.45 553.34 599.35 557.24 589.25 C 548.85 582.47 540.36 575.82 532.06 568.93 C 538.35 567.96 544.64 566.97 550.94 566.05 C 539.50 554.28 527.78 542.76 516.17 531.16 C 516.18 553.09 516.24 575.04 516.14 596.97 C 516.16 603.08 510.04 608.28 504.01 607.19 C 498.70 606.47 494.67 601.36 494.98 596.05 C 495.11 567.36 495.02 538.66 495.03 509.98 C 487.10 502.09 479.23 494.15 471.30 486.27 C 471.30 508.18 471.35 530.09 471.28 552.00 C 471.37 557.50 466.47 562.39 460.99 562.44 C 455.37 562.69 450.07 557.75 450.21 552.07 C 450.12 523.06 450.27 494.06 450.14 465.05 C 434.56 449.56 419.06 433.98 403.51 418.46 C 399.89 415.58 395.29 414.34 391.27 412.13 C 398.17 428.80 405.09 445.46 411.97 462.13 C 412.58 463.71 413.83 464.90 414.94 466.14 C 421.85 462.57 428.60 458.70 435.44 455.00 C 433.68 462.54 431.61 470.02 430.05 477.62 C 436.45 481.63 443.27 485.09 449.31 489.64 C 442.05 491.88 434.67 493.74 427.46 496.17 C 427.41 503.79 427.16 511.42 427.05 519.04 C 421.29 513.92 415.84 508.46 410.22 503.18 C 403.49 506.90 396.74 510.57 390.00 514.29 C 391.72 506.78 393.61 499.32 395.45 491.85 C 388.94 487.71 382.21 483.94 375.76 479.73 C 382.89 477.66 390.01 475.56 397.15 473.52 C 389.79 455.38 382.30 437.29 374.68 419.26 C 373.36 423.53 371.12 427.58 370.58 432.06 C 370.54 455.40 370.58 478.74 370.56 502.08 C 370.28 503.59 371.55 504.58 372.46 505.56 C 388.67 521.67 404.80 537.86 420.96 554.02 C 423.25 556.42 425.88 558.55 427.82 561.28 C 430.94 565.91 429.37 572.83 424.62 575.73 C 420.65 578.47 414.88 577.87 411.50 574.44 C 397.82 560.87 384.27 547.15 370.58 533.59 C 370.54 544.74 370.58 555.89 370.56 567.04 C 389.11 585.62 407.71 604.15 426.24 622.75 C 430.33 626.55 430.51 633.58 426.56 637.55 C 422.73 641.90 415.26 641.97 411.35 637.69 C 397.75 624.13 384.16 610.55 370.58 596.96 C 370.55 611.58 370.56 626.20 370.58 640.82 C 375.73 636.91 380.98 633.14 386.21 629.32 C 384.89 640.02 383.95 650.76 382.59 661.45 C 392.40 665.99 402.37 670.17 412.22 674.62 C 402.41 679.12 392.46 683.33 382.62 687.77 C 383.63 698.51 385.48 709.21 385.73 720.00 L 385.43 720.00 C 385.04 719.57 384.25 718.71 383.86 718.28 C 375.90 712.48 367.97 706.61 359.98 700.84 C 352.81 706.05 345.68 711.33 338.50 716.55 C 337.11 717.55 335.88 718.75 334.71 720.00 L 334.26 720.00 C 334.52 709.20 336.37 698.51 337.37 687.76 C 327.54 683.33 317.57 679.20 307.82 674.60 C 317.67 670.19 327.63 666.01 337.42 661.45 C 336.02 650.76 335.11 640.02 333.79 629.33 C 339.01 633.15 344.26 636.93 349.42 640.84 C 349.43 624.43 349.46 608.03 349.40 591.63 C 334.26 606.38 319.45 621.47 304.49 636.40 C 301.33 640.30 295.69 642.23 291.03 639.88 C 284.63 637.16 282.94 627.74 288.00 622.97 C 308.45 602.36 329.15 581.99 349.51 561.30 C 349.32 550.18 349.51 539.07 349.41 527.95 C 333.99 543.37 318.60 558.80 303.16 574.19 C 300.83 576.63 297.34 577.91 293.99 577.35 C 285.58 576.51 281.91 564.76 288.27 559.23 C 308.63 538.80 329.07 518.45 349.44 498.03 C 349.44 477.03 349.39 456.03 349.46 435.04 C 349.90 429.37 346.92 424.29 345.17 419.09 C 339.06 434.00 332.84 448.87 326.69 463.77 C 325.37 467.07 323.44 470.33 323.81 474.04 C 331.17 476.27 338.73 477.99 345.92 480.75 C 339.33 484.60 332.83 488.60 326.34 492.62 C 328.22 500.06 330.04 507.51 331.81 514.98 C 324.96 511.42 318.33 507.47 311.45 503.97 C 305.90 509.31 300.34 514.63 294.80 519.98 C 294.64 512.26 294.45 504.54 294.30 496.82 C 286.91 494.57 279.49 492.47 272.09 490.28 C 278.63 486.28 285.13 482.21 291.79 478.40 C 290.17 470.83 288.12 463.36 286.39 455.81 C 292.96 459.38 299.52 462.98 306.08 466.59 C 313.59 448.45 321.09 430.31 328.62 412.17 C 323.83 414.81 318.04 416.09 314.43 420.48 C 298.28 436.70 282.08 452.87 265.90 469.06 C 265.81 495.39 265.92 521.73 265.84 548.07 C 266.02 553.76 260.71 558.78 255.06 558.49 C 249.54 558.48 244.64 553.49 244.77 547.96 C 244.71 528.71 244.75 509.46 244.76 490.21 C 236.85 498.09 228.95 505.98 221.09 513.91 C 221.14 539.94 221.12 565.96 221.10 591.99 C 221.41 597.33 217.41 602.55 212.03 603.24 C 205.98 604.33 199.86 599.13 199.92 592.99 C 199.82 573.70 199.87 554.40 199.90 535.11 C 189.54 545.38 179.23 555.69 168.96 566.04 C 175.31 566.95 181.65 567.97 187.99 568.94 C 179.63 575.75 171.20 582.49 162.77 589.22 C 166.63 599.34 170.57 609.44 174.52 619.53 C 164.45 615.55 154.33 611.69 144.23 607.78 C 137.48 616.20 130.75 624.65 123.93 633.02 C 122.27 622.34 120.69 611.66 118.95 601.00 C 108.29 599.37 97.64 597.67 86.97 596.06 C 95.36 589.28 103.72 582.47 112.20 575.81 C 108.36 565.66 104.37 555.57 100.46 545.45 C 110.54 549.41 120.63 553.34 130.74 557.22 C 137.50 548.82 144.18 540.35 151.05 532.02 C 152.01 538.36 153.04 544.69 153.95 551.04 C 165.61 539.45 177.22 527.81 188.84 516.18 C 166.90 516.15 144.95 516.25 123.01 516.14 C 116.88 516.17 111.72 510.03 112.81 504.00 C 113.52 498.72 118.62 494.59 123.95 495.07 C 148.29 494.82 172.63 495.15 196.98 494.93 C 201.31 494.83 205.67 495.40 209.98 494.84 C 218.09 487.22 225.77 479.13 233.71 471.32 C 211.81 471.27 189.92 471.36 168.03 471.28 C 162.52 471.38 157.59 466.51 157.56 461.02 C 157.26 455.35 162.27 450.03 168.00 450.22 C 196.98 450.10 225.98 450.29 254.97 450.12 C 270.55 434.36 286.37 418.81 301.94 403.03 C 304.40 399.39 305.81 395.14 307.86 391.26 C 291.21 398.16 274.56 405.05 257.91 411.93 C 256.28 412.56 255.06 413.84 253.81 415.01 C 257.47 421.84 261.26 428.60 264.95 435.42 C 257.39 433.71 249.93 431.55 242.33 430.07 C 238.42 436.59 234.60 443.17 230.41 449.51 C 228.15 442.18 226.21 434.75 223.84 427.46 C 216.22 427.26 208.57 427.46 200.97 426.80 C 206.28 421.29 211.52 415.73 216.82 410.21 C 213.06 403.49 209.41 396.72 205.70 389.98 C 213.20 391.70 220.67 393.59 228.14 395.44 C 232.27 388.94 235.99 382.18 240.26 375.78 C 242.33 382.91 244.40 390.04 246.51 397.17 C 264.63 389.75 282.72 382.26 300.78 374.67 C 295.57 373.10 290.60 370.05 284.99 370.51 C 262.63 370.58 240.27 370.53 217.91 370.54 C 215.90 370.30 214.77 372.31 213.43 373.45 C 196.01 390.97 178.48 408.41 161.03 425.91 C 157.48 429.90 150.94 430.66 146.72 427.29 C 141.73 423.75 141.09 415.76 145.52 411.52 C 159.14 397.83 172.81 384.20 186.46 370.55 C 175.29 370.53 164.11 370.55 152.94 370.55 C 135.35 388.08 117.79 405.65 100.26 423.24 C 97.63 425.86 94.93 429.06 90.96 429.37 C 85.38 430.19 79.70 425.78 79.19 420.16 C 78.66 416.63 80.21 413.15 82.78 410.78 C 96.22 397.40 109.57 383.92 123.05 370.58 C 108.43 370.51 93.80 370.54 79.17 370.57 C 83.06 375.72 86.82 380.96 90.63 386.17 C 79.98 384.88 69.29 384.01 58.67 382.53 C 53.80 392.22 50.00 402.43 45.23 412.17 C 40.93 402.31 36.57 392.47 32.22 382.64 C 21.47 383.59 10.79 385.44 0.00 385.74 L 0.00 385.44 C 1.30 384.98 1.81 383.46 2.69 382.52 C 8.13 374.97 13.67 367.50 19.15 359.99 C 12.70 351.55 6.97 342.51 0.00 334.49 L 0.00 334.29 C 10.78 334.43 21.48 336.39 32.21 337.35 C 36.64 327.53 40.78 317.57 45.36 307.82 C 49.84 317.64 53.93 327.65 58.56 337.40 C 69.23 336.00 79.95 335.08 90.63 333.80 C 86.82 339.01 83.05 344.23 79.17 349.39 C 95.64 349.42 112.11 349.41 128.58 349.39 C 113.11 333.94 97.62 318.51 82.20 303.02 C 78.33 299.33 78.07 292.66 81.63 288.68 C 85.31 284.11 92.96 283.78 97.03 288.00 C 117.60 308.45 138.01 329.07 158.63 349.46 C 169.77 349.32 180.90 349.48 192.04 349.38 C 177.60 335.01 163.24 320.56 148.80 306.20 C 146.18 303.56 142.96 300.91 142.61 296.93 C 141.71 291.30 146.23 285.45 151.96 285.09 C 155.18 284.70 158.46 285.88 160.71 288.21 C 181.16 308.57 201.51 329.04 221.96 349.41 C 242.97 349.43 263.97 349.37 284.98 349.44 C 290.62 349.91 295.61 346.79 300.86 345.26 C 286.57 339.10 272.11 333.32 257.75 327.30 C 253.90 325.90 250.24 323.41 245.97 323.79 C 243.84 331.18 241.63 338.55 239.53 345.96 C 235.17 339.58 231.55 332.74 227.29 326.30 C 219.88 328.25 212.42 330.00 204.97 331.77 C 208.59 324.95 212.51 318.27 216.02 311.38 C 210.62 305.92 205.36 300.31 200.01 294.80 C 207.73 294.64 215.45 294.45 223.17 294.30 C 225.39 286.90 227.50 279.47 229.69 272.06 C 233.75 278.63 237.69 285.27 241.74 291.85 C 249.23 290.02 256.70 288.13 264.21 286.39 C 260.60 292.94 257.02 299.51 253.40 306.06 C 271.56 313.52 289.66 321.09 307.81 328.57 C 305.22 324.03 304.04 318.50 300.02 314.91 C 283.99 299.01 268.07 282.99 252.10 267.03 C 251.30 266.11 250.28 265.72 249.05 265.85 C 223.36 265.84 197.66 265.88 171.97 265.84 C 166.27 266.03 161.20 260.74 161.50 255.06 C 161.49 249.52 166.49 244.67 172.02 244.77 C 191.26 244.68 210.51 244.76 229.76 244.74 C 221.89 236.83 214.02 228.93 206.10 221.09 C 180.07 221.10 154.03 221.11 128.01 221.09 C 122.66 221.41 117.44 217.41 116.75 212.03 C 115.65 205.98 120.85 199.85 126.99 199.91 C 146.29 199.76 165.60 199.90 184.90 199.85 C 174.59 189.54 164.30 179.20 153.95 168.93 C 153.04 175.29 151.98 181.62 151.05 187.97 C 144.24 179.61 137.50 171.18 130.74 162.77 C 120.63 166.65 110.52 170.55 100.44 174.51 C 104.41 164.44 108.30 154.33 112.21 144.24 C 103.84 137.44 95.34 130.81 87.05 123.91 C 97.67 122.27 108.28 120.61 118.91 119.02 C 120.71 108.38 122.24 97.68 123.92 87.02 C 130.76 95.30 137.44 103.73 144.15 112.11 C 154.34 108.39 164.42 104.36 174.53 100.42 C 170.57 110.51 166.67 120.62 162.75 130.73 C 171.19 137.46 179.60 144.22 187.96 151.03 C 181.62 151.98 175.30 153.05 168.95 153.94 C 180.52 165.62 192.18 177.21 203.83 188.82 C 203.81 166.89 203.75 144.95 203.85 123.02 C 203.80 116.88 209.94 111.70 215.99 112.81 C 220.88 113.50 225.01 117.97 224.89 122.98 C 224.99 151.99 224.86 181.00 224.96 210.01 C 232.88 217.90 240.76 225.83 248.69 233.70 C 248.70 211.79 248.65 189.88 248.71 167.98 C 248.62 162.45 253.56 157.54 259.06 157.55 C 264.67 157.31 269.93 162.25 269.78 167.92 C 269.86 196.90 269.74 225.90 269.83 254.88 C 285.40 270.40 300.92 285.98 316.48 301.51 C 320.11 304.36 324.71 305.62 328.72 307.85 C 321.83 291.22 314.93 274.59 308.06 257.95 C 307.45 256.28 306.13 255.06 304.94 253.81 C 298.12 257.49 291.34 261.24 284.54 264.97 C 286.33 257.44 288.32 249.95 289.97 242.39 C 283.57 238.32 276.77 234.83 270.68 230.32 C 277.94 228.08 285.29 226.14 292.53 223.83 C 292.58 216.21 292.83 208.59 292.95 200.98 C 298.72 206.06 304.16 211.52 309.77 216.79 C 316.49 213.07 323.24 209.39 329.99 205.72 C 328.26 213.20 326.38 220.65 324.54 228.11 C 331.13 232.17 337.75 236.20 344.40 240.17 C 337.23 242.24 330.09 244.43 322.90 246.40 C 330.09 264.62 337.74 282.67 345.32 300.74 C 346.63 296.49 348.80 292.46 349.41 288.03 C 349.46 264.67 349.40 241.30 349.44 217.94 C 349.76 216.41 348.40 215.44 347.55 214.45 C 329.66 196.66 311.87 178.78 294.01 160.96 C 290.08 157.42 289.34 150.95 292.66 146.76 C 296.19 141.74 304.19 141.09 308.46 145.51 C 322.14 159.12 335.76 172.79 349.41 186.42 C 349.45 175.27 349.39 164.11 349.44 152.96 C 330.92 134.32 312.27 115.81 293.74 97.19 C 289.45 93.25 289.52 85.79 293.90 81.95 C 297.86 78.03 304.91 78.22 308.69 82.32 C 322.29 95.85 335.84 109.44 349.40 123.02 C 349.44 108.40 349.43 93.78 349.41 79.16 C 344.24 83.05 338.99 86.83 333.78 90.66 C 335.01 79.86 336.27 69.06 337.25 58.24 C 327.38 54.08 317.63 49.66 307.83 45.34 C 317.58 40.75 327.55 36.64 337.36 32.17 C 336.36 21.45 334.50 10.77 334.26 0.00 M 359.67 301.26 C 355.93 311.70 352.54 322.30 348.37 332.56 C 338.37 327.46 328.12 322.83 317.99 317.99 C 322.83 328.15 327.56 338.38 332.57 348.46 C 322.21 352.38 311.72 355.97 301.27 359.64 C 301.27 359.80 301.26 360.13 301.26 360.29 C 311.70 364.01 322.26 367.45 332.56 371.56 C 327.51 381.61 322.82 391.85 317.99 402.01 C 328.27 397.25 338.36 392.02 348.77 387.59 C 352.21 398.13 356.28 408.45 359.72 418.99 C 360.35 418.52 360.75 417.89 360.90 417.11 C 364.19 407.20 367.98 397.47 371.23 387.55 C 381.62 392.07 391.73 397.24 402.02 402.00 C 397.27 391.71 392.09 381.61 387.58 371.23 C 398.00 367.70 408.30 363.83 418.71 360.29 C 418.72 360.13 418.74 359.81 418.75 359.65 C 408.28 355.99 397.79 352.38 387.42 348.48 C 392.42 338.38 397.16 328.16 401.99 317.98 C 391.85 322.84 381.60 327.47 371.58 332.56 C 367.48 322.26 364.03 311.70 360.31 301.25 C 360.15 301.26 359.83 301.26 359.67 301.26 Z" />
<path fill="#000000" opacity="1.00" d=" M 359.74 320.06 C 359.93 320.27 360.31 320.70 360.50 320.92 C 362.89 327.73 365.18 334.57 367.80 341.30 C 374.71 338.04 381.59 334.72 388.49 331.44 C 385.23 338.39 381.96 345.33 378.57 352.22 C 385.06 354.49 391.51 356.90 398.03 359.09 C 398.80 359.23 399.43 359.61 399.92 360.23 C 392.76 362.61 385.64 365.14 378.58 367.77 C 381.97 374.61 385.21 381.53 388.46 388.44 C 381.55 385.20 374.65 381.94 367.81 378.56 C 365.34 385.02 363.09 391.56 360.85 398.10 C 360.69 398.84 360.32 399.45 359.75 399.94 C 357.38 392.76 354.79 385.66 352.22 378.56 C 345.33 381.91 338.44 385.23 331.48 388.44 C 334.81 381.55 338.00 374.60 341.41 367.75 C 335.62 365.58 329.76 363.60 323.94 361.51 C 322.63 360.96 321.00 360.88 320.06 359.71 C 327.24 357.39 334.29 354.70 341.41 352.22 C 338.02 345.33 334.76 338.38 331.48 331.45 C 338.39 334.75 345.34 337.99 352.21 341.38 C 354.80 334.30 357.37 327.21 359.74 320.06 M 359.57 337.32 C 358.10 341.15 356.87 345.08 355.44 348.93 C 351.30 347.05 347.23 345.03 343.13 343.09 C 345.00 347.24 347.10 351.27 348.93 355.43 C 344.99 356.81 341.06 358.19 337.11 359.55 C 337.12 359.76 337.13 360.18 337.14 360.38 C 341.08 361.77 345.05 363.08 348.97 364.55 C 347.04 368.67 345.03 372.74 343.12 376.87 C 347.24 374.93 351.27 372.83 355.46 371.05 C 356.83 375.07 358.35 379.04 359.61 383.10 C 359.81 382.98 360.19 382.76 360.38 382.65 C 361.89 378.83 363.10 374.90 364.52 371.05 C 368.69 372.85 372.74 374.92 376.85 376.86 C 374.98 372.70 372.82 368.68 371.06 364.48 C 374.92 363.09 378.84 361.85 382.66 360.39 C 382.77 360.18 382.98 359.77 383.09 359.57 C 379.03 358.35 375.10 356.77 371.07 355.48 C 372.83 351.28 374.96 347.25 376.87 343.13 C 372.72 344.98 368.68 347.09 364.51 348.91 C 363.16 344.90 361.62 340.96 360.39 336.91 C 360.18 337.01 359.78 337.22 359.57 337.32 Z" />
</g>
</svg>
