<?xml version="1.0" encoding="UTF-8" ?>
<!DOCTYPE svg PUBLIC "-//W3C//DTD SVG 1.1//EN" "http://www.w3.org/Graphics/SVG/1.1/DTD/svg11.dtd">
<svg width="750pt" height="778pt" viewBox="0 0 750 778" version="1.1" xmlns="http://www.w3.org/2000/svg">
<g id="#fcfcfcff">
</g>
<g id="#494949ff">
<path fill="#494949" opacity="1.00" d=" M 342.69 23.89 C 346.83 17.21 354.38 13.28 362.03 12.33 C 370.01 11.59 378.26 13.39 385.06 17.68 C 389.96 21.11 394.48 25.80 395.89 31.79 C 397.93 39.66 396.05 48.45 390.94 54.79 C 386.02 61.18 378.79 66.61 377.64 75.11 C 377.09 78.32 378.84 81.49 381.54 83.16 C 387.39 82.38 392.43 78.57 398.27 77.57 C 408.10 76.08 418.14 81.82 423.15 90.14 C 427.02 96.05 425.63 103.36 425.60 110.01 C 422.98 120.87 413.30 130.48 401.71 130.66 C 395.01 131.09 389.21 127.10 382.77 126.13 C 381.45 135.69 380.71 145.43 382.31 155.00 C 382.74 163.50 382.79 172.03 382.80 180.54 C 384.38 180.28 386.28 180.66 387.52 179.41 C 396.88 171.10 404.09 160.77 412.46 151.53 C 416.37 147.39 419.70 142.69 424.12 139.05 C 430.09 134.01 436.28 128.47 444.08 126.62 C 449.45 126.33 455.45 125.44 460.22 128.54 C 465.05 131.35 469.06 136.07 470.07 141.67 C 471.35 148.37 470.73 155.82 466.71 161.54 C 463.26 167.16 457.26 170.86 450.92 172.33 C 442.59 172.44 434.35 174.22 426.51 176.97 C 415.16 181.46 405.64 189.54 397.65 198.62 C 392.65 204.61 388.55 211.46 386.30 218.97 C 384.18 225.44 384.81 232.31 384.80 239.00 C 384.85 249.00 384.90 259.01 384.54 269.01 C 384.39 274.88 383.78 280.94 385.93 286.55 C 386.08 286.40 386.37 286.08 386.52 285.93 C 391.25 274.22 397.79 263.33 404.40 252.61 C 423.15 224.25 446.89 198.27 476.88 181.63 C 482.69 178.44 488.71 175.51 495.19 173.96 C 498.48 186.41 497.38 199.34 497.50 212.07 C 497.59 217.81 495.43 223.30 495.44 229.04 C 495.35 235.47 492.68 241.48 492.18 247.87 C 487.71 265.68 481.02 282.92 472.49 299.18 C 469.83 304.80 466.05 309.86 464.06 315.78 C 468.42 315.55 472.56 313.93 476.53 312.20 C 486.84 307.19 495.79 299.75 506.26 295.04 C 509.52 293.44 513.58 293.10 515.99 290.11 C 523.49 281.90 526.78 270.84 528.40 260.08 C 528.77 254.00 528.49 247.88 526.84 241.99 C 525.03 229.76 519.01 218.55 517.81 206.21 C 516.67 196.38 521.02 185.98 529.53 180.68 C 533.61 177.67 538.95 177.09 543.84 177.88 C 549.58 179.22 554.50 183.39 556.98 188.72 C 560.84 195.86 559.28 204.23 559.49 211.99 C 559.72 218.05 558.67 224.03 557.16 229.88 C 555.62 239.61 552.60 249.03 550.85 258.72 C 549.86 262.36 549.02 266.08 549.39 269.89 C 560.79 267.99 571.40 263.09 581.70 258.03 C 587.30 255.17 593.11 252.50 597.87 248.29 C 590.26 243.18 582.90 236.54 580.27 227.45 C 577.88 217.94 582.14 208.25 587.80 200.77 C 593.12 195.09 601.64 195.02 608.81 195.96 C 616.86 197.91 624.68 202.44 629.12 209.62 C 631.25 213.06 632.66 216.96 633.27 220.95 C 633.01 224.57 631.85 228.03 631.18 231.58 C 637.69 232.88 643.33 228.40 647.33 223.79 C 649.18 219.59 647.97 214.88 649.22 210.56 C 651.57 202.30 658.41 195.44 666.80 193.40 C 669.84 192.69 672.90 192.00 676.00 191.66 C 686.65 192.39 698.05 196.33 704.13 205.66 C 711.75 217.59 706.14 234.20 695.10 241.97 C 687.81 247.61 677.68 250.35 668.87 246.79 C 663.97 245.70 660.51 240.16 655.12 241.58 C 651.33 242.80 648.38 245.67 645.38 248.15 C 651.16 252.01 657.04 256.37 659.87 262.97 C 665.96 276.80 659.09 294.67 645.48 301.16 C 636.31 305.99 624.40 302.92 617.53 295.53 C 611.43 288.38 612.35 278.09 607.25 270.39 C 590.59 274.86 574.37 283.25 563.20 296.65 C 566.83 298.34 570.87 298.62 574.66 299.83 C 586.43 303.35 598.01 307.51 609.47 311.92 C 620.55 316.09 631.76 322.34 638.10 332.69 C 642.49 339.41 641.25 348.96 635.52 354.51 C 625.24 364.58 606.53 363.90 597.03 353.05 C 590.60 346.32 586.92 337.23 579.34 331.55 C 571.62 325.97 563.15 321.14 553.88 318.71 C 546.61 317.91 539.25 318.19 531.95 318.38 C 528.01 318.38 524.35 320.00 520.72 321.32 C 504.80 327.45 490.96 337.62 476.24 346.03 C 473.66 347.51 471.12 349.11 468.94 351.16 C 475.88 355.33 482.03 347.92 488.95 347.62 C 497.62 347.57 506.45 346.76 514.99 348.69 C 520.14 349.83 525.52 349.38 530.59 351.04 C 559.83 357.09 588.09 368.08 613.58 383.65 C 616.74 385.71 620.08 387.56 622.88 390.11 C 623.79 390.78 623.50 392.12 622.66 392.71 C 614.71 400.79 605.81 407.99 596.02 413.73 C 578.89 423.74 559.73 429.77 540.31 433.41 C 534.16 433.95 528.15 435.48 522.02 436.16 C 510.93 436.79 499.79 435.96 488.71 436.74 C 490.29 438.42 491.97 440.03 493.88 441.34 C 504.02 448.24 514.00 455.39 524.58 461.61 C 532.89 466.84 543.05 471.83 553.03 468.64 C 563.72 465.99 571.55 457.69 579.06 450.17 C 585.80 443.60 592.39 436.30 601.37 432.78 C 607.34 430.62 613.61 429.13 620.00 429.13 C 628.31 427.81 638.50 429.55 643.45 437.04 C 643.88 441.32 643.82 445.66 643.39 449.95 C 640.14 458.79 632.55 465.40 624.34 469.63 C 612.70 475.96 599.73 479.08 587.07 482.64 C 581.30 484.37 575.28 485.60 570.10 488.83 C 577.17 496.66 586.18 502.27 595.15 507.66 C 600.24 510.55 604.37 515.17 610.16 516.72 C 610.84 508.87 611.54 500.26 616.79 493.95 C 620.90 488.58 627.16 484.24 634.17 484.49 C 646.86 484.31 657.42 494.67 661.34 506.10 C 661.59 512.89 663.28 520.78 658.72 526.57 C 654.80 532.85 647.84 536.19 641.31 539.09 C 640.71 544.26 645.90 546.93 649.83 548.83 C 652.77 550.44 655.75 548.09 658.52 547.20 C 666.08 543.95 674.83 541.78 682.86 544.65 C 689.91 547.50 696.96 551.86 700.42 558.92 C 703.63 564.32 702.63 570.90 702.29 576.87 C 699.17 587.35 691.60 596.65 681.36 600.82 C 677.02 603.15 671.94 602.74 667.22 602.33 C 658.00 599.77 650.90 592.21 646.88 583.77 C 644.91 577.02 646.03 568.78 640.44 563.55 C 638.97 561.33 636.33 561.43 633.99 561.46 C 633.55 565.72 631.46 569.50 629.36 573.15 C 624.65 581.29 617.96 589.09 608.80 592.21 C 604.12 592.82 598.99 593.07 594.81 590.50 C 587.51 587.21 581.99 580.48 579.75 572.85 C 579.08 568.27 579.18 563.61 579.37 559.00 C 579.55 550.85 585.63 544.01 592.59 540.43 C 592.51 539.28 592.45 538.15 592.38 537.02 C 578.53 528.60 567.43 515.40 551.72 510.22 C 551.46 517.56 550.44 525.25 553.17 532.27 C 556.89 545.10 563.87 556.84 566.50 570.00 C 566.78 574.96 566.88 579.96 566.41 584.92 C 564.46 591.63 560.14 597.77 553.88 601.09 C 550.69 603.33 546.64 602.55 542.99 602.77 C 539.66 602.60 535.92 603.31 533.03 601.25 C 526.82 597.77 522.29 591.02 522.22 583.81 C 522.08 577.21 521.89 570.49 523.75 564.08 C 527.06 551.13 532.43 538.09 530.30 524.48 C 528.04 515.93 524.18 507.93 520.50 499.93 C 518.15 495.32 516.52 489.82 511.75 487.08 C 497.76 478.40 483.79 469.65 469.82 460.93 C 467.09 459.30 464.49 456.89 461.09 457.10 C 461.20 462.05 464.45 466.01 466.40 470.34 C 482.45 503.38 495.89 538.27 500.28 574.94 C 500.51 580.97 500.35 587.00 500.39 593.04 C 500.41 596.09 500.24 599.39 498.42 601.98 C 481.14 597.55 465.20 588.69 451.28 577.64 C 429.68 560.52 412.77 538.32 397.90 515.31 C 397.05 513.08 393.01 511.80 392.75 515.04 C 391.76 528.01 392.55 541.04 392.29 554.04 C 391.76 558.76 390.82 563.44 390.28 568.17 C 394.04 571.96 397.13 576.34 400.26 580.65 C 406.32 588.47 413.81 595.73 423.33 599.04 C 432.96 602.19 443.16 602.92 452.93 605.53 C 459.56 607.29 466.47 609.61 471.50 614.51 C 476.80 619.94 478.05 628.15 476.02 635.29 C 473.34 640.99 470.37 646.74 465.85 651.23 C 460.98 651.89 456.00 651.70 451.12 651.27 C 441.52 649.11 433.10 643.66 425.44 637.69 C 413.10 628.01 403.04 615.79 390.89 605.92 C 388.70 612.07 387.26 618.45 387.30 625.01 C 385.07 634.15 383.98 643.64 385.10 653.03 C 385.46 655.89 385.62 658.77 385.82 661.66 C 394.35 659.73 401.79 653.12 410.97 654.52 C 419.56 656.17 428.07 661.78 431.09 670.28 C 436.73 685.36 426.11 703.37 410.91 707.39 C 405.85 707.75 400.41 708.13 395.83 705.52 C 391.30 703.72 388.02 698.82 382.69 699.44 C 382.52 704.80 382.18 710.21 382.81 715.56 C 385.96 718.43 390.35 719.50 393.66 722.21 C 399.19 726.02 403.13 731.83 405.29 738.12 C 405.76 742.05 405.68 746.04 405.37 749.99 C 402.93 759.68 396.06 768.22 386.87 772.29 C 381.44 775.34 374.99 774.66 369.04 774.28 C 360.83 772.21 353.84 766.44 349.42 759.32 C 344.21 750.59 344.16 739.31 349.22 730.49 C 352.84 723.90 360.83 721.30 364.36 714.65 C 364.69 710.92 365.97 705.30 361.42 703.69 C 356.77 702.31 352.25 704.49 347.75 705.37 C 344.03 705.72 340.18 705.92 336.52 705.06 C 326.69 701.49 318.05 691.88 319.17 680.90 C 317.65 666.78 330.08 651.78 344.82 653.36 C 351.73 652.96 357.53 657.04 363.67 659.48 C 365.17 656.96 365.29 653.90 365.28 651.05 C 365.25 644.70 365.30 638.35 365.31 632.00 C 365.36 627.79 364.34 623.66 364.46 619.45 C 364.62 613.53 363.16 607.77 362.14 601.99 C 356.85 604.48 353.16 609.12 348.80 612.84 C 335.15 625.29 323.52 640.61 306.74 649.13 C 302.02 651.92 296.37 651.92 291.09 651.32 C 283.67 649.25 278.19 643.01 275.65 635.91 C 275.23 631.36 275.16 626.72 275.72 622.19 C 278.34 615.30 283.01 608.50 290.10 605.73 C 296.91 605.38 303.60 603.97 310.35 603.05 C 317.56 601.75 324.21 598.40 330.40 594.60 C 339.53 588.96 347.93 582.01 354.80 573.74 C 360.18 567.32 363.38 559.25 364.61 551.03 C 364.68 541.31 365.53 531.39 363.07 521.89 C 361.54 515.96 363.84 509.48 361.15 503.86 C 356.88 508.65 354.16 514.51 350.64 519.81 C 333.93 545.86 314.52 570.76 289.77 589.65 C 279.00 597.76 267.44 605.02 254.78 609.80 C 252.07 603.16 252.55 595.99 252.22 588.99 C 250.60 578.80 252.57 568.59 252.53 558.37 C 255.96 532.53 263.74 507.29 275.07 483.79 C 277.65 477.94 281.32 472.56 283.13 466.39 C 274.54 465.57 267.31 471.01 260.15 474.88 C 250.22 480.95 238.80 485.10 230.63 493.66 C 224.68 500.01 223.24 508.90 221.58 517.09 C 221.23 523.71 221.25 530.37 221.48 537.00 C 223.09 549.15 229.75 559.76 233.15 571.38 C 236.93 585.90 224.75 601.53 210.06 602.56 C 201.96 603.38 193.73 598.17 190.85 590.58 C 187.08 582.91 188.71 574.14 188.65 565.93 C 190.54 555.81 192.46 545.67 195.28 535.75 C 197.13 527.63 200.23 519.65 199.84 511.19 C 192.94 510.88 186.31 513.10 179.99 515.61 C 170.86 519.35 162.52 524.69 154.26 530.03 C 152.51 531.40 149.75 532.44 150.08 535.13 C 152.78 538.00 156.40 539.94 158.67 543.24 C 161.96 547.50 163.21 552.86 164.15 558.06 C 163.41 564.32 161.65 570.72 157.69 575.76 C 152.09 583.27 142.37 587.65 133.05 586.19 C 126.12 584.57 119.36 580.85 115.46 574.74 C 111.55 568.84 111.43 561.44 108.07 555.28 C 98.48 559.03 95.96 569.88 91.93 578.25 C 88.52 585.81 82.98 594.21 73.99 595.21 C 67.48 596.59 60.61 596.25 54.39 593.84 C 47.57 591.06 42.40 584.99 40.44 577.93 C 39.95 572.03 40.04 566.06 40.43 560.16 C 42.81 549.55 50.44 539.83 61.10 536.67 C 65.07 536.20 69.08 536.35 73.07 536.47 C 78.12 536.44 82.06 540.34 86.89 541.14 C 89.33 540.46 91.58 539.26 93.99 538.50 C 95.55 537.59 97.12 536.72 98.76 535.99 C 98.49 534.43 98.53 532.68 97.37 531.47 C 93.30 526.05 86.56 523.80 81.77 519.18 C 79.37 514.86 77.99 509.93 78.36 504.96 C 78.15 493.91 87.79 484.93 98.01 482.58 C 104.28 482.10 110.64 482.02 116.89 482.71 C 125.13 485.18 132.36 492.60 132.67 501.50 C 132.78 506.25 133.03 511.14 131.65 515.76 C 138.46 514.83 144.68 511.61 150.65 508.38 C 162.02 502.01 172.70 494.51 183.53 487.28 C 185.10 486.46 185.43 484.70 185.75 483.13 C 179.85 481.24 174.08 478.94 168.03 477.55 C 153.45 473.69 138.05 471.87 124.60 464.59 C 118.36 460.98 112.53 455.89 109.70 449.11 C 105.20 437.07 112.66 422.19 125.03 418.67 C 129.90 418.41 135.24 417.63 139.69 420.13 C 157.16 428.39 168.91 444.56 184.92 454.93 C 190.00 457.97 195.33 460.84 201.13 462.24 C 208.00 462.87 214.98 462.83 221.86 462.20 C 235.33 458.76 247.45 451.53 258.67 443.51 C 263.74 439.84 268.32 435.35 274.18 432.91 C 274.26 432.17 274.35 431.44 274.44 430.71 C 263.91 431.03 253.45 430.07 242.98 429.18 C 235.35 427.88 227.44 429.40 219.93 427.09 C 185.69 422.31 152.84 408.81 124.42 389.22 C 142.96 368.84 169.53 358.01 196.01 352.53 C 201.78 352.13 207.16 349.53 212.98 349.52 C 217.74 349.54 222.21 347.49 226.96 347.41 C 236.69 347.35 246.02 343.82 255.80 344.25 C 254.64 342.14 253.56 339.93 251.79 338.25 C 242.59 330.05 232.00 323.21 220.19 319.45 C 211.45 317.09 202.14 314.99 193.18 317.48 C 187.10 318.74 181.05 320.60 175.83 324.07 C 165.24 330.51 157.93 340.74 150.45 350.34 C 145.98 355.66 141.26 361.27 134.76 364.13 C 123.76 366.63 110.62 360.84 106.64 349.93 C 106.27 345.73 106.00 341.24 108.00 337.39 C 110.70 330.81 115.11 325.10 120.35 320.35 C 128.01 312.50 138.51 308.06 149.19 306.19 C 153.84 305.44 158.39 304.20 163.07 303.61 C 169.31 302.90 174.94 299.98 180.68 297.65 C 180.46 295.81 179.77 294.04 178.08 293.08 C 166.86 285.04 156.68 275.53 144.74 268.52 C 142.50 267.00 137.96 266.46 137.52 270.03 C 136.19 277.20 134.27 284.65 129.17 290.16 C 125.43 294.15 120.88 298.49 115.06 298.56 C 110.50 298.67 105.58 299.13 101.45 296.78 C 92.06 291.94 85.65 282.29 83.61 272.05 C 82.44 264.09 85.42 255.78 91.27 250.28 C 93.95 247.45 97.29 245.43 100.51 243.29 C 100.53 241.21 98.19 240.48 96.69 239.63 C 94.00 238.65 91.25 237.05 88.30 237.58 C 82.78 238.90 78.11 242.36 72.75 244.12 C 68.71 244.89 64.33 244.77 60.60 242.86 C 54.58 240.11 48.06 237.25 44.29 231.51 C 42.13 228.08 40.21 224.22 40.26 220.07 C 39.04 205.75 48.27 190.79 62.15 186.44 C 66.93 186.01 71.87 185.78 76.60 186.73 C 84.23 189.53 92.71 193.88 95.18 202.27 C 95.79 205.85 95.91 209.58 97.41 212.95 C 99.34 218.39 104.99 222.92 110.97 221.42 C 112.99 213.71 117.53 206.74 122.89 200.91 C 128.57 194.57 137.10 189.98 145.81 191.53 C 151.78 192.82 157.52 195.89 161.42 200.68 C 172.46 214.90 166.25 239.61 148.64 245.24 C 148.68 246.34 148.72 247.44 148.77 248.55 C 159.50 254.18 169.59 260.95 180.52 266.22 C 186.37 268.86 191.64 273.50 198.32 273.71 C 198.38 269.05 198.99 264.25 197.58 259.72 C 193.75 244.55 186.60 230.37 183.54 214.99 C 183.18 209.02 183.15 202.99 183.56 197.02 C 185.21 190.45 189.19 183.97 195.79 181.47 C 207.28 177.80 222.09 183.22 226.34 195.09 C 226.94 200.00 226.78 205.00 226.34 209.92 C 224.07 218.06 221.02 225.99 218.89 234.18 C 218.18 239.08 218.52 244.06 218.41 249.00 C 217.66 262.97 224.65 275.63 229.92 288.11 C 231.27 290.83 231.84 294.44 234.92 295.81 C 253.16 305.16 270.02 316.92 287.62 327.34 C 287.99 327.76 288.73 328.58 289.10 329.00 C 289.83 328.40 289.84 327.73 289.13 326.99 C 286.45 323.02 282.77 319.89 279.68 316.26 C 265.49 301.00 252.89 283.51 246.94 263.29 C 244.64 257.01 244.02 250.32 242.55 243.83 C 241.91 230.55 242.29 217.24 242.33 203.95 C 242.23 199.56 243.54 195.35 244.23 191.07 C 244.87 186.85 243.86 182.30 245.89 178.36 C 249.96 178.94 253.73 180.71 257.59 182.06 C 281.48 191.07 302.79 206.32 319.98 225.11 C 333.05 239.62 343.88 256.02 353.10 273.20 C 355.11 270.11 357.08 266.77 357.34 263.00 C 358.02 248.65 357.13 234.28 357.46 219.93 C 357.46 216.56 358.59 213.36 359.30 210.10 C 357.60 203.60 352.10 199.08 347.04 195.07 C 335.78 186.25 321.47 183.38 308.35 178.54 C 298.53 176.75 288.86 173.23 280.59 167.58 C 276.45 164.69 271.99 160.57 272.34 155.07 C 272.41 149.02 271.47 142.43 274.77 137.01 C 276.68 133.56 279.51 129.34 283.91 129.37 C 287.81 129.34 291.86 128.95 295.66 130.01 C 305.86 134.12 314.98 140.49 323.43 147.45 C 333.30 155.23 342.26 164.07 351.15 172.93 C 353.04 175.00 355.59 176.19 358.18 177.15 C 360.44 169.48 359.82 161.36 361.21 153.54 C 362.00 143.72 359.25 134.10 359.22 124.29 C 357.03 124.81 354.87 125.39 352.72 126.02 C 345.64 129.52 337.64 132.40 329.72 130.20 C 322.72 127.93 316.64 122.60 313.81 115.78 C 312.97 109.99 313.03 104.01 313.76 98.21 C 316.83 89.53 323.32 81.85 332.11 78.64 C 337.67 78.04 343.33 78.07 348.90 78.59 C 352.49 79.82 355.86 81.63 359.25 83.33 C 359.54 79.68 360.03 75.97 359.44 72.33 C 354.87 61.84 341.53 58.67 337.60 47.72 C 336.01 39.46 338.49 31.00 342.69 23.89 M 274.78 228.56 C 274.72 234.06 274.64 239.55 274.78 245.05 C 276.27 261.10 280.40 277.25 289.37 290.83 C 300.16 307.96 317.88 319.58 336.59 326.49 C 340.05 322.52 339.37 316.88 339.49 312.00 C 339.37 306.73 339.77 301.41 339.09 296.17 C 337.39 289.26 335.94 282.23 332.98 275.72 C 325.78 258.22 312.30 243.31 295.26 234.97 C 288.78 232.01 282.11 228.32 274.78 228.56 M 462.47 230.56 C 451.70 232.01 442.54 238.60 434.60 245.61 C 425.92 254.44 418.39 264.57 413.26 275.89 C 408.07 287.77 404.09 300.81 405.90 313.89 C 407.24 318.25 407.97 323.28 411.55 326.47 C 425.94 322.05 438.40 312.50 447.76 300.85 C 458.92 287.11 466.87 270.56 469.52 253.00 C 469.76 247.40 469.74 241.78 469.52 236.17 C 469.50 234.09 468.47 232.19 467.31 230.52 C 465.70 230.29 464.07 230.36 462.47 230.56 M 365.11 365.24 C 354.74 367.27 346.03 375.78 343.41 386.00 C 338.91 400.83 349.19 417.83 364.11 421.44 C 369.34 421.92 374.65 421.93 379.88 421.33 C 394.93 416.81 405.24 398.62 398.81 383.69 C 395.75 374.67 387.87 367.79 378.76 365.35 C 374.22 364.96 369.65 365.04 365.11 365.24 M 220.34 367.61 C 204.30 371.21 188.43 378.64 177.55 391.29 C 191.51 401.39 207.89 408.44 225.04 410.60 C 231.70 410.83 238.38 410.87 245.04 410.59 C 257.15 408.96 268.96 404.99 279.51 398.77 C 284.04 396.07 288.98 393.54 292.06 389.08 C 279.63 378.11 264.35 370.22 247.97 367.43 C 238.77 367.15 229.52 366.90 220.34 367.61 M 448.11 393.88 C 449.06 397.94 453.08 399.58 456.30 401.57 C 466.55 407.90 477.94 412.50 489.82 414.59 C 498.42 417.04 507.57 416.76 516.17 414.52 C 532.10 411.71 547.03 404.52 560.09 395.11 C 562.09 394.03 562.56 390.84 560.32 389.77 C 548.18 380.26 533.56 373.48 518.16 371.66 C 507.93 370.84 497.57 371.18 487.47 373.01 C 472.91 376.76 459.52 384.17 448.11 393.88 M 324.35 462.56 C 312.25 469.62 302.57 480.12 294.65 491.55 C 286.69 503.49 280.78 516.89 277.72 530.92 C 277.19 537.29 277.35 543.70 277.48 550.08 C 277.36 554.29 279.70 557.94 280.94 561.83 C 288.37 559.78 294.90 555.50 300.96 550.88 C 318.65 536.71 332.50 517.28 338.70 495.36 C 339.77 490.29 340.48 485.13 341.27 480.01 C 340.59 474.73 339.68 469.44 338.53 464.24 C 337.38 462.36 336.69 460.15 335.18 458.52 C 331.27 458.81 327.70 460.67 324.35 462.56 M 413.68 458.05 C 411.40 460.86 410.89 464.61 410.61 468.11 C 410.40 475.03 410.26 481.97 410.68 488.89 C 412.87 501.87 417.81 514.52 425.86 525.02 C 436.46 539.26 451.38 549.80 467.39 557.17 C 468.72 557.62 470.55 557.91 471.57 556.64 C 472.65 554.61 472.43 552.24 472.78 550.04 C 474.98 535.37 473.43 519.92 466.84 506.50 C 457.80 487.41 441.42 472.76 423.40 462.27 C 420.31 460.59 417.34 458.22 413.68 458.05 Z" />
</g>
</svg>
