<?xml version="1.0" encoding="UTF-8" ?>
<!DOCTYPE svg PUBLIC "-//W3C//DTD SVG 1.1//EN" "http://www.w3.org/Graphics/SVG/1.1/DTD/svg11.dtd">
<svg width="512pt" height="512pt" viewBox="0 0 512 512" version="1.1" xmlns="http://www.w3.org/2000/svg">
<g id="#ffffffff">
</g>
<g id="#000000ff">
<path fill="#000000" opacity="1.00" d=" M 250.60 1.67 C 253.91 0.27 258.05 0.53 261.45 1.58 C 262.83 2.53 264.18 3.53 265.65 4.34 C 266.63 6.03 268.02 7.51 268.31 9.51 C 268.47 9.89 268.79 10.64 268.95 11.02 C 269.11 19.12 268.90 27.23 269.04 35.33 C 270.33 35.03 271.37 34.23 272.26 33.28 C 278.72 26.73 285.26 20.26 291.75 13.75 C 293.58 11.92 295.29 9.92 297.52 8.56 C 298.51 8.27 299.51 7.99 300.52 7.73 C 301.96 6.64 304.03 6.66 305.48 7.72 C 306.48 7.99 307.48 8.27 308.47 8.56 C 310.83 10.09 313.01 12.03 314.34 14.55 C 315.96 17.14 316.92 20.68 315.28 23.48 C 315.01 24.48 314.73 25.48 314.44 26.48 C 313.79 27.47 313.09 28.42 312.27 29.26 C 299.91 41.57 287.58 53.91 275.26 66.26 C 274.41 67.10 273.45 67.79 272.48 68.47 C 271.34 68.80 270.18 69.04 269.00 69.18 C 269.00 119.91 268.99 170.63 269.00 221.36 C 290.09 200.57 310.94 179.52 331.88 158.58 C 332.18 138.05 331.89 117.49 332.01 96.95 C 331.91 95.63 332.76 94.54 333.21 93.36 C 334.12 91.37 335.43 89.49 337.55 88.67 C 339.73 87.31 342.28 86.95 344.70 86.27 L 345.48 86.90 C 347.14 87.03 348.89 86.82 350.45 87.58 C 351.83 88.52 353.18 89.52 354.65 90.34 C 355.62 92.02 357.02 93.51 357.30 95.52 C 358.24 96.85 357.97 98.49 358.02 100.02 C 357.97 111.80 358.01 123.58 358.00 135.36 C 365.56 128.13 372.81 120.59 380.25 113.25 C 381.44 112.00 383.12 111.44 384.61 110.64 C 386.49 110.48 388.80 108.57 390.47 109.83 C 391.81 109.99 393.19 110.06 394.48 110.53 C 397.21 112.40 399.60 114.78 401.46 117.52 C 402.25 120.35 402.52 123.69 401.34 126.44 C 401.09 126.94 400.60 127.94 400.35 128.43 C 399.70 129.69 398.79 130.79 397.78 131.77 C 391.39 138.04 385.12 144.44 378.74 150.72 C 377.78 151.62 376.96 152.65 376.67 153.96 C 387.76 154.04 398.84 154.00 409.93 153.98 C 411.45 154.02 413.09 153.77 414.44 154.66 C 414.94 154.91 415.93 155.41 416.43 155.66 C 418.61 156.67 420.21 158.51 421.46 160.52 C 422.11 162.10 421.99 163.83 422.11 165.50 C 423.23 166.47 423.25 167.47 422.18 168.49 C 422.01 169.83 421.91 171.19 421.47 172.48 C 419.91 174.85 417.90 176.94 415.48 178.44 C 414.48 178.73 413.48 179.01 412.48 179.28 C 412.11 179.45 411.36 179.79 410.98 179.95 C 390.46 180.15 369.93 179.80 349.42 180.12 C 329.98 199.45 310.66 218.90 291.23 238.24 C 289.87 239.66 288.12 240.92 287.67 242.96 C 339.31 242.98 390.96 243.13 442.58 242.88 C 455.01 230.55 467.35 218.11 479.75 205.75 C 481.95 203.63 483.89 201.18 486.52 199.56 C 487.51 199.27 488.51 198.99 489.52 198.73 C 490.67 197.75 492.39 197.65 493.49 198.81 C 497.69 198.93 501.22 202.17 503.46 205.52 C 503.92 206.80 504.01 208.16 504.19 209.50 C 505.35 210.59 505.24 212.32 504.27 213.48 C 504.00 214.48 503.72 215.48 503.44 216.48 C 502.68 217.67 501.78 218.78 500.77 219.77 C 494.05 226.38 487.45 233.12 480.73 239.73 C 479.78 240.62 478.96 241.65 478.67 242.96 C 485.45 243.04 492.23 243.00 499.02 242.97 C 500.50 243.01 502.11 242.79 503.44 243.65 C 503.94 243.91 504.92 244.41 505.41 244.67 C 508.07 245.60 509.29 248.21 510.33 250.61 C 511.75 253.93 511.37 258.03 510.46 261.48 C 508.92 263.88 506.87 265.92 504.48 267.46 C 503.36 267.89 502.20 268.07 501.00 268.02 C 492.89 268.01 484.78 267.95 476.67 268.04 C 476.96 269.34 477.77 270.37 478.73 271.26 C 486.28 278.72 493.72 286.28 501.27 293.73 C 502.11 294.54 502.77 295.52 503.34 296.55 C 505.70 300.08 505.71 304.93 503.33 308.45 C 502.29 310.57 500.57 312.30 498.45 313.33 C 495.27 315.43 491.08 315.57 487.55 314.42 C 485.62 313.02 483.47 311.91 481.74 310.26 C 470.09 298.58 458.42 286.92 446.75 275.26 C 445.03 273.11 442.83 270.93 442.81 268.00 C 391.43 268.03 340.05 267.94 288.67 268.04 C 288.93 269.10 289.46 270.00 290.24 270.75 C 310.32 290.77 330.31 310.88 350.42 330.88 C 369.92 331.20 389.46 330.85 408.98 331.05 C 409.35 331.21 410.11 331.55 410.48 331.72 C 411.48 331.98 412.48 332.27 413.48 332.57 C 415.89 334.06 417.92 336.13 419.46 338.52 C 420.33 342.02 420.41 345.97 419.42 349.45 C 418.47 350.83 417.46 352.18 416.65 353.66 C 414.97 354.64 413.47 356.01 411.48 356.31 C 410.13 357.24 408.48 356.97 406.96 357.02 C 396.85 356.98 386.75 357.00 376.64 357.00 C 382.54 363.22 388.73 369.15 394.75 375.25 C 397.74 378.23 401.25 381.25 402.31 385.52 C 403.35 387.29 403.42 389.73 402.28 391.48 C 402.00 392.48 401.72 393.47 401.43 394.47 C 399.06 398.10 395.09 401.65 390.47 401.10 C 388.88 402.54 386.46 400.37 384.52 400.45 C 382.30 399.07 380.57 397.08 378.74 395.25 C 372.92 389.40 367.06 383.60 361.26 377.73 C 360.37 376.78 359.34 375.96 358.04 375.67 C 357.95 387.45 358.01 399.24 358.02 411.03 C 358.09 412.21 357.90 413.36 357.42 414.45 C 356.47 415.83 355.47 417.18 354.66 418.66 C 352.97 419.63 351.48 421.02 349.49 421.31 C 347.07 422.42 343.92 422.45 341.52 421.31 C 339.51 421.02 338.02 419.63 336.34 418.65 C 335.53 417.17 334.52 415.83 333.56 414.45 C 332.58 412.56 333.64 410.07 332.06 408.48 C 331.83 388.47 332.21 368.43 331.88 348.42 C 312.89 329.31 293.76 310.33 274.76 291.23 C 273.33 289.87 272.08 288.11 270.04 287.67 C 269.94 338.99 270.03 390.32 270.00 441.64 C 275.48 443.90 279.06 448.82 283.26 452.76 C 286.45 456.21 290.32 459.10 292.80 463.16 C 299.76 470.84 307.88 477.51 314.44 485.52 C 314.73 486.51 315.01 487.51 315.28 488.52 C 316.75 491.00 316.13 494.22 314.80 496.65 C 313.39 499.46 311.13 501.78 308.48 503.43 C 307.48 503.72 306.48 504.00 305.48 504.27 C 304.04 505.35 301.95 505.36 300.52 504.27 C 299.51 504.00 298.51 503.72 297.52 503.44 C 296.32 502.68 295.21 501.78 294.23 500.77 C 286.95 493.38 279.55 486.12 272.27 478.73 C 271.37 477.78 270.34 476.96 269.04 476.67 C 268.95 483.78 269.00 490.89 269.02 498.00 C 268.98 499.51 269.22 501.14 268.32 502.48 C 267.46 505.47 265.66 508.60 262.64 509.78 C 259.01 511.70 254.38 511.60 250.56 510.42 C 249.17 509.47 247.81 508.47 246.35 507.66 C 245.36 505.97 243.98 504.48 243.69 502.48 C 242.75 501.14 243.02 499.49 242.98 497.98 C 243.02 491.53 243.00 485.09 243.00 478.64 C 236.78 484.54 230.86 490.73 224.75 496.74 C 222.71 498.67 220.99 501.02 218.46 502.34 C 216.88 503.18 215.22 503.86 213.48 504.28 C 212.30 505.26 210.68 505.27 209.52 504.27 C 208.52 504.00 207.53 503.71 206.55 503.41 C 205.16 502.48 203.82 501.46 202.34 500.66 C 201.53 499.18 200.53 497.83 199.58 496.45 C 198.68 493.65 198.51 490.29 199.66 487.56 C 199.91 487.06 200.40 486.06 200.65 485.57 C 201.08 484.72 201.62 483.95 202.25 483.25 C 215.78 469.69 229.38 456.18 242.88 442.58 C 243.16 390.95 242.92 339.29 243.00 287.64 C 221.91 308.43 201.06 329.48 180.12 350.42 C 179.80 370.92 180.15 391.45 179.95 411.96 C 179.78 412.34 179.45 413.10 179.28 413.48 C 179.00 414.48 178.72 415.47 178.43 416.47 C 176.38 419.82 172.58 422.58 168.49 422.11 C 167.53 423.22 166.54 423.25 165.52 422.19 C 163.37 422.13 161.37 421.43 159.56 420.32 C 156.94 419.10 155.48 416.14 154.69 413.48 C 154.53 413.10 154.21 412.33 154.05 411.95 C 153.90 400.19 154.10 388.43 153.96 376.67 C 152.66 376.97 151.62 377.78 150.73 378.73 C 144.94 384.60 139.07 390.41 133.25 396.25 C 131.43 398.09 129.69 400.06 127.49 401.47 C 124.21 402.38 120.40 402.51 117.36 400.80 C 114.97 399.64 112.81 397.90 111.67 395.45 C 109.52 392.26 109.49 388.09 110.54 384.52 C 117.98 375.67 126.95 368.16 134.72 359.60 C 134.88 359.21 135.18 358.43 135.33 358.04 C 124.56 357.96 113.79 358.00 103.02 358.02 C 101.50 357.97 99.85 358.25 98.52 357.31 C 95.86 356.52 92.90 355.06 91.68 352.44 C 90.56 350.62 89.86 348.62 89.81 346.48 C 88.75 345.45 88.77 344.47 89.89 343.51 C 89.43 339.15 92.51 334.99 96.36 333.21 C 97.54 332.77 98.62 331.91 99.95 332.01 C 120.49 331.89 141.05 332.18 161.58 331.88 C 182.52 310.94 203.57 290.09 224.36 269.00 C 173.69 268.99 123.03 269.00 72.36 269.00 C 71.35 271.28 69.94 273.41 68.25 275.26 C 55.41 288.09 42.57 300.91 29.75 313.77 C 28.97 314.84 27.70 315.05 26.48 315.28 C 24.42 316.46 21.61 316.39 19.52 315.31 C 15.24 314.29 11.71 310.75 10.69 306.48 C 9.59 304.40 9.60 301.64 10.67 299.56 C 10.91 299.06 11.40 298.06 11.64 297.56 C 12.59 295.92 13.93 294.58 14.97 293.01 C 17.14 289.57 20.85 287.45 23.00 284.00 C 25.14 280.53 28.89 278.44 31.02 274.96 C 32.21 272.79 34.73 271.54 35.33 269.04 C 27.23 268.89 19.12 269.12 11.02 268.95 C 10.64 268.79 9.89 268.48 9.52 268.32 C 6.53 267.46 3.41 265.67 2.22 262.64 C 0.26 259.01 0.43 254.39 1.58 250.55 C 2.53 249.16 3.53 247.82 4.34 246.35 C 6.03 245.37 7.51 243.97 9.51 243.69 C 9.90 243.53 10.68 243.21 11.07 243.05 C 19.15 242.89 27.24 243.10 35.33 242.96 C 35.06 241.90 34.54 240.99 33.76 240.25 C 26.92 233.42 20.08 226.59 13.25 219.75 C 12.00 218.56 11.44 216.89 10.66 215.40 C 9.61 213.33 9.56 210.56 10.71 208.52 C 10.98 207.52 11.27 206.52 11.57 205.53 C 12.76 203.50 14.39 201.69 16.55 200.67 C 19.71 198.62 23.98 198.31 27.44 199.66 C 27.94 199.91 28.94 200.40 29.43 200.65 C 30.27 201.08 31.04 201.61 31.75 202.24 C 45.31 215.78 58.82 229.38 72.41 242.88 C 123.71 243.14 175.03 242.98 226.33 242.96 C 225.23 239.64 221.90 237.83 219.76 235.23 C 217.78 232.80 214.80 231.58 212.73 229.26 C 206.44 222.88 200.05 216.61 193.77 210.23 C 192.33 208.61 190.28 207.76 188.75 206.26 C 182.07 199.60 175.44 192.88 168.73 186.26 C 166.05 184.56 163.79 182.38 161.59 180.12 C 141.07 179.80 120.53 180.15 100.01 179.95 C 99.63 179.79 98.89 179.45 98.52 179.29 C 97.52 179.01 96.52 178.72 95.53 178.42 C 92.17 176.38 89.41 172.58 89.89 168.49 C 88.77 167.53 88.75 166.53 89.82 165.52 C 89.87 163.69 90.36 161.96 91.21 160.36 C 92.41 157.33 95.52 155.54 98.52 154.69 C 99.87 153.76 101.51 154.02 103.05 153.98 C 113.81 154.00 124.57 154.04 135.33 153.96 C 135.04 152.65 134.22 151.62 133.27 150.73 C 126.55 144.12 119.95 137.38 113.23 130.77 C 112.21 129.78 111.33 128.66 110.54 127.48 C 109.75 124.66 109.48 121.34 110.65 118.60 C 111.84 115.73 113.64 113.01 116.54 111.67 C 119.74 109.53 123.90 109.49 127.49 110.54 C 129.69 111.94 131.42 113.91 133.25 115.75 C 139.07 121.59 144.93 127.39 150.72 133.26 C 151.62 134.21 152.65 135.03 153.96 135.33 C 154.10 123.57 153.89 111.81 154.05 100.05 C 154.21 99.67 154.53 98.90 154.68 98.52 C 155.59 94.99 158.00 91.74 161.60 90.66 C 162.79 89.97 164.18 89.99 165.51 89.83 C 166.53 88.75 167.52 88.77 168.49 89.89 C 172.51 89.46 176.52 92.10 178.33 95.59 C 178.59 96.08 179.09 97.06 179.35 97.56 C 180.47 99.49 179.87 101.81 180.01 103.93 C 180.07 123.15 179.84 142.38 180.12 161.58 C 201.06 182.52 221.91 203.57 243.00 224.36 C 242.93 173.71 243.16 123.05 242.88 72.42 C 230.55 59.99 218.12 47.65 205.75 35.25 C 203.97 33.40 201.84 31.79 200.66 29.45 C 198.62 26.30 198.32 22.05 199.65 18.60 C 200.80 15.67 202.73 13.09 205.53 11.56 C 206.52 11.27 207.52 10.99 208.52 10.72 C 211.32 9.08 214.86 10.03 217.45 11.66 C 219.59 12.72 221.09 14.61 222.76 16.25 C 228.41 21.94 234.11 27.56 239.73 33.27 C 240.62 34.22 241.65 35.03 242.96 35.33 C 243.11 27.22 242.88 19.10 243.05 10.99 C 243.21 10.62 243.53 9.89 243.69 9.52 C 244.58 5.99 247.00 2.74 250.60 1.67 Z" />
</g>
</svg>
