<?xml version="1.0" encoding="UTF-8" ?>
<!DOCTYPE svg PUBLIC "-//W3C//DTD SVG 1.1//EN" "http://www.w3.org/Graphics/SVG/1.1/DTD/svg11.dtd">
<svg width="627pt" height="720pt" viewBox="0 0 627 720" version="1.1" xmlns="http://www.w3.org/2000/svg">
<g id="#000000ff">
<path fill="#000000" opacity="1.00" d=" M 311.59 0.00 L 315.14 0.00 C 319.21 0.82 322.97 3.28 324.92 7.00 C 326.88 10.30 326.86 14.24 326.83 17.95 C 326.73 26.46 326.90 34.97 326.72 43.47 C 329.14 41.52 331.78 39.40 335.06 39.39 C 340.57 39.00 345.82 43.47 346.31 48.96 C 346.81 52.56 345.06 56.02 342.52 58.47 C 337.28 63.70 332.01 68.89 326.80 74.15 C 326.79 87.19 326.81 100.23 326.80 113.28 C 336.23 103.88 345.65 94.47 355.05 85.03 C 357.38 82.61 360.59 80.84 364.05 81.19 C 369.63 81.29 374.36 86.45 374.23 91.98 C 374.30 95.21 372.54 98.09 370.31 100.28 C 355.78 114.78 341.26 129.29 326.78 143.83 C 326.82 156.87 326.79 169.91 326.80 182.95 C 345.71 164.09 364.56 145.17 383.47 126.31 C 386.29 123.36 390.77 122.05 394.67 123.47 C 399.50 124.93 402.70 130.11 401.91 135.08 C 401.59 139.43 397.88 142.22 395.09 145.11 C 372.31 167.82 349.58 190.59 326.81 213.32 C 326.78 226.39 326.82 239.46 326.79 252.53 C 354.95 224.43 383.04 196.27 411.20 168.17 C 413.46 165.66 416.81 164.92 419.98 164.35 C 420.88 154.29 420.89 143.71 416.77 134.30 C 415.51 131.22 413.32 128.67 410.93 126.42 C 418.80 129.30 427.28 126.77 434.59 123.48 C 446.91 117.78 457.47 108.56 465.18 97.41 C 459.16 109.60 456.64 123.46 457.82 136.99 C 458.60 144.91 460.73 153.40 467.00 158.81 C 458.98 156.03 450.39 158.61 442.99 162.01 C 438.27 164.17 433.92 167.04 429.71 170.07 C 430.91 173.14 431.85 176.49 430.74 179.74 C 420.44 218.05 410.24 256.40 399.88 294.70 C 411.23 288.15 422.61 281.66 433.93 275.06 C 442.50 242.67 451.27 210.33 459.89 177.95 C 460.71 173.97 463.45 170.34 467.47 169.19 C 472.87 167.33 479.22 170.75 480.88 176.16 C 482.11 179.66 480.72 183.29 479.87 186.71 C 473.26 211.10 466.78 235.52 460.22 259.93 C 471.51 253.32 482.88 246.86 494.18 240.27 C 499.58 220.21 504.89 200.13 510.32 180.09 C 511.63 174.26 518.30 170.43 523.97 172.45 C 529.49 174.05 532.84 180.42 531.02 185.90 C 527.55 198.97 524.01 212.03 520.51 225.10 C 531.82 218.55 543.15 212.03 554.48 205.49 C 556.47 198.19 558.32 190.84 560.37 183.55 C 561.35 179.41 564.82 175.95 569.08 175.32 C 573.72 174.48 578.66 177.08 580.60 181.37 C 582.03 184.10 581.43 187.24 581.19 190.16 C 589.14 185.38 597.24 180.86 605.25 176.17 C 609.62 173.45 615.34 172.64 620.04 175.06 C 623.81 176.77 626.14 180.56 627.00 184.51 L 627.00 187.95 C 626.13 192.62 623.23 196.77 619.03 199.02 C 610.79 203.73 602.65 208.60 594.32 213.15 C 597.07 214.35 600.22 215.42 601.86 218.16 C 605.05 222.62 603.98 229.43 599.54 232.68 C 596.54 235.21 592.30 235.26 588.69 234.23 C 581.74 232.36 574.79 230.47 567.85 228.58 C 556.49 235.10 545.20 241.73 533.80 248.16 C 546.48 251.56 559.16 254.98 571.86 258.33 C 575.14 259.16 578.49 260.79 580.09 263.95 C 582.95 268.74 581.16 275.51 576.38 278.34 C 573.21 280.47 569.18 280.02 565.70 279.03 C 546.36 273.72 526.96 268.67 507.61 263.40 C 496.19 269.84 484.90 276.52 473.50 283.01 C 497.88 289.43 522.20 296.09 546.58 302.51 C 550.58 303.56 555.24 304.54 557.51 308.42 C 561.10 313.61 558.71 321.55 552.92 323.99 C 548.38 326.09 543.47 323.92 538.99 322.81 C 508.39 314.58 477.78 306.37 447.16 298.21 C 435.87 304.78 424.51 311.24 413.25 317.86 C 451.74 328.03 490.16 338.43 528.61 348.72 C 531.84 349.41 534.12 351.89 536.12 354.34 C 548.06 348.91 561.23 341.12 564.78 327.53 C 565.61 335.27 571.64 341.03 577.48 345.53 C 588.85 354.01 602.74 358.96 616.87 360.00 C 601.81 361.11 587.00 366.65 575.26 376.20 C 570.33 380.41 565.41 385.70 564.81 392.48 C 561.24 378.89 548.08 371.10 536.13 365.66 C 534.06 368.26 531.59 370.77 528.18 371.40 C 489.87 381.61 451.60 391.96 413.29 402.13 C 424.54 408.76 435.89 415.20 447.18 421.77 C 479.72 413.08 512.25 404.33 544.79 395.64 C 550.02 393.87 556.33 396.35 558.35 401.62 C 561.07 407.43 557.24 414.87 551.01 416.20 C 525.18 423.16 499.34 430.08 473.49 436.95 C 484.89 443.47 496.22 450.11 507.63 456.60 C 526.45 451.39 545.37 446.52 564.20 441.36 C 567.91 440.31 572.16 439.26 575.74 441.30 C 580.96 443.89 583.11 451.05 580.08 456.06 C 578.46 459.19 575.13 460.86 571.84 461.64 C 559.13 464.96 546.46 468.41 533.77 471.80 C 545.21 478.21 556.48 484.91 567.86 491.42 C 574.55 489.56 581.26 487.81 587.96 485.97 C 591.40 484.99 595.36 484.54 598.51 486.60 C 603.49 489.43 605.27 496.47 602.19 501.31 C 600.61 504.32 597.31 505.61 594.35 506.83 C 602.66 511.37 610.81 516.23 619.03 520.95 C 623.29 523.25 626.29 527.52 627.00 532.31 L 627.00 535.24 C 626.23 540.46 622.22 545.01 616.98 546.02 C 612.67 547.14 608.22 545.69 604.55 543.44 C 596.78 538.85 588.89 534.47 581.17 529.80 C 581.59 533.21 582.02 537.00 579.85 539.96 C 576.85 544.84 569.71 546.32 565.00 543.08 C 562.49 541.53 560.95 538.85 560.24 536.06 C 558.28 528.87 556.42 521.66 554.47 514.48 C 543.16 507.94 531.82 501.44 520.52 494.88 C 523.95 507.68 527.38 520.49 530.84 533.29 C 531.97 536.93 531.65 541.18 529.04 544.12 C 525.45 548.73 517.93 549.30 513.64 545.38 C 511.41 543.55 510.47 540.72 509.77 538.04 C 504.63 518.58 499.36 499.15 494.18 479.70 C 482.88 473.11 471.54 466.62 460.22 460.07 C 466.91 484.93 473.51 509.81 480.25 534.66 C 481.22 538.11 482.14 542.01 480.26 545.35 C 477.57 551.01 469.67 553.16 464.59 549.41 C 461.23 547.35 460.15 543.36 459.26 539.79 C 450.89 508.14 442.29 476.55 433.89 444.91 C 422.56 438.36 411.26 431.77 399.89 425.28 C 410.23 463.60 420.45 501.95 430.74 540.28 C 431.84 543.53 430.90 546.87 429.71 549.94 C 437.83 555.82 446.95 560.95 457.04 562.25 C 460.39 562.75 463.76 562.13 466.98 561.21 C 460.97 566.38 458.79 574.41 457.92 581.99 C 456.50 595.87 459.04 610.16 465.22 622.68 C 457.25 611.04 446.10 601.49 433.13 595.87 C 426.23 592.94 418.32 590.92 411.00 593.55 C 416.38 588.91 418.74 581.88 419.77 575.06 C 420.81 568.64 420.53 562.11 419.98 555.66 C 416.83 555.05 413.49 554.34 411.23 551.86 C 383.07 523.74 354.95 495.58 326.79 467.46 C 326.80 479.29 326.83 491.11 326.76 502.94 C 326.83 504.67 326.56 506.75 328.13 507.96 C 350.61 530.44 373.06 552.94 395.59 575.38 C 399.42 578.75 403.44 583.45 401.72 588.98 C 400.14 596.70 389.35 599.86 383.92 594.08 C 364.82 575.13 345.87 556.03 326.80 537.04 C 326.79 550.09 326.82 563.14 326.78 576.19 C 341.40 590.92 356.17 605.51 370.80 620.23 C 374.62 623.76 375.38 630.00 372.28 634.23 C 368.84 639.54 360.52 640.42 356.09 635.89 C 346.25 626.23 336.59 616.39 326.79 606.69 C 326.81 619.74 326.79 632.78 326.80 645.83 C 332.01 651.07 337.26 656.26 342.48 661.49 C 345.05 663.94 346.82 667.43 346.30 671.06 C 345.79 676.55 340.52 681.02 335.02 680.62 C 331.75 680.61 329.14 678.42 326.72 676.51 C 326.84 686.36 326.85 696.21 326.76 706.06 C 326.81 712.83 321.54 719.15 314.75 720.00 L 311.88 720.00 C 307.82 719.15 304.03 716.72 302.07 712.99 C 300.10 709.67 300.13 705.70 300.16 701.97 C 300.26 693.48 300.09 684.99 300.27 676.51 C 296.89 679.76 291.85 681.96 287.29 679.80 C 280.81 677.39 278.39 668.24 283.11 663.08 C 288.60 657.14 294.55 651.63 300.19 645.83 C 300.20 632.78 300.18 619.74 300.20 606.69 C 291.29 615.59 282.34 624.46 273.49 633.42 C 270.95 636.05 267.94 638.88 264.02 638.81 C 258.42 639.26 253.20 634.57 252.81 629.02 C 252.38 625.47 254.18 622.12 256.67 619.72 C 271.17 605.20 285.74 590.74 300.21 576.19 C 300.17 563.14 300.20 550.09 300.19 537.03 C 281.48 555.74 262.75 574.43 244.07 593.17 C 240.75 597.00 234.84 598.37 230.40 595.68 C 224.15 592.47 223.08 583.07 228.36 578.46 C 252.29 554.56 276.17 530.59 300.15 506.74 C 300.26 493.65 300.16 480.55 300.21 467.46 C 272.05 495.56 243.94 523.71 215.80 551.82 C 213.54 554.32 210.19 555.08 207.01 555.66 C 206.10 565.71 206.10 576.28 210.21 585.69 C 211.46 588.74 213.63 591.27 215.96 593.55 C 208.37 590.83 200.21 593.08 193.12 596.19 C 180.48 601.85 169.63 611.23 161.80 622.62 C 167.95 610.10 170.50 595.85 169.07 581.98 C 168.19 574.41 166.02 566.37 160.01 561.21 C 167.49 563.80 175.52 561.69 182.51 558.64 C 187.79 556.40 192.62 553.26 197.27 549.94 C 196.08 546.87 195.14 543.53 196.25 540.28 C 206.55 501.95 216.76 463.59 227.11 425.27 C 215.75 431.78 204.43 438.35 193.10 444.91 C 184.37 477.62 175.59 510.33 166.81 543.03 C 165.58 548.59 159.53 552.45 153.97 551.03 C 148.32 549.83 144.29 543.60 145.95 537.97 C 152.78 511.98 159.86 486.05 166.77 460.07 C 155.46 466.62 144.11 473.11 132.82 479.70 C 127.44 499.75 122.10 519.81 116.69 539.84 C 115.38 546.01 108.25 549.64 102.43 547.34 C 97.23 545.49 94.24 539.35 95.98 534.10 C 99.43 521.01 103.00 507.95 106.48 494.87 C 95.18 501.45 83.84 507.93 72.53 514.47 C 70.52 521.80 68.68 529.16 66.63 536.47 C 65.57 540.92 61.58 544.56 56.95 544.77 C 52.30 545.23 47.65 542.23 46.06 537.86 C 45.00 535.28 45.62 532.46 45.82 529.80 C 37.68 534.70 29.40 539.38 21.17 544.14 C 16.12 547.22 9.17 547.23 4.51 543.38 C 2.04 541.44 0.73 538.46 0.00 535.49 L 0.00 532.37 C 0.67 527.52 3.72 523.23 8.01 520.92 C 16.22 516.22 24.34 511.36 32.64 506.83 C 29.93 505.65 26.85 504.59 25.20 501.93 C 21.78 497.28 23.10 490.05 27.97 486.94 C 30.95 484.69 34.93 484.84 38.37 485.80 C 45.29 487.66 52.23 489.48 59.14 491.40 C 70.52 484.90 81.79 478.22 93.23 471.82 C 80.09 468.27 66.93 464.79 53.80 461.24 C 49.51 460.20 46.04 456.47 45.60 452.05 C 44.92 447.03 48.29 441.89 53.15 440.51 C 56.37 439.56 59.70 440.54 62.83 441.37 C 81.64 446.53 100.53 451.37 119.32 456.61 C 130.77 450.15 142.09 443.47 153.50 436.95 C 128.41 430.33 103.36 423.49 78.27 416.87 C 73.22 416.08 68.34 412.46 67.85 407.08 C 66.71 399.80 74.32 393.22 81.37 395.46 C 114.21 404.13 147.00 413.03 179.82 421.77 C 191.10 415.20 202.46 408.77 213.71 402.13 C 175.90 392.12 138.15 381.85 100.34 371.83 C 96.41 371.19 93.14 368.86 90.86 365.66 C 78.92 371.10 65.76 378.88 62.19 392.47 C 61.27 384.02 54.36 377.97 47.90 373.27 C 36.69 365.49 23.36 360.85 9.73 360.00 C 24.95 358.98 39.95 353.42 51.79 343.73 C 56.71 339.55 61.52 334.27 62.24 327.55 C 65.75 341.14 78.95 348.89 90.86 354.33 C 92.86 351.89 95.15 349.43 98.37 348.72 C 136.83 338.42 175.26 328.04 213.74 317.86 C 202.49 311.24 191.13 304.80 179.87 298.21 C 147.28 306.87 114.73 315.64 82.17 324.37 C 79.04 325.18 75.50 325.15 72.75 323.27 C 68.11 320.43 66.35 313.82 69.09 309.09 C 70.65 305.98 73.85 304.21 77.12 303.42 C 102.58 296.65 128.02 289.74 153.49 283.01 C 142.09 276.52 130.80 269.83 119.36 263.39 C 99.78 268.74 80.14 273.87 60.55 279.22 C 57.08 280.20 53.05 280.26 50.06 277.97 C 45.46 274.84 44.10 267.98 47.25 263.38 C 49.08 260.24 52.68 258.94 56.01 258.08 C 68.42 254.84 80.81 251.47 93.20 248.16 C 81.80 241.73 70.51 235.09 59.15 228.58 C 52.27 230.46 45.40 232.32 38.52 234.18 C 35.04 235.15 31.00 235.33 27.97 233.05 C 23.13 229.93 21.78 222.75 25.18 218.10 C 26.81 215.39 29.95 214.35 32.68 213.15 C 24.99 209.00 17.53 204.43 9.91 200.17 C 5.05 197.85 1.08 193.67 0.00 188.27 L 0.00 184.71 C 0.77 180.15 3.84 175.96 8.32 174.48 C 13.03 172.62 18.29 173.93 22.43 176.55 C 30.19 181.14 38.10 185.49 45.81 190.16 C 45.62 187.51 45.02 184.72 46.05 182.16 C 47.66 177.76 52.35 174.72 57.04 175.23 C 61.64 175.49 65.59 179.12 66.63 183.55 C 68.68 190.84 70.53 198.18 72.52 205.49 C 83.84 212.03 95.17 218.56 106.49 225.13 C 103.52 214.15 100.62 203.16 97.64 192.18 C 96.85 189.16 95.81 186.16 95.54 183.03 C 95.11 177.30 100.23 171.88 105.99 172.03 C 110.94 171.67 115.56 175.36 116.68 180.12 C 122.11 200.15 127.42 220.22 132.82 240.26 C 144.11 246.86 155.49 253.32 166.77 259.93 C 160.53 236.62 154.29 213.31 148.03 190.00 C 147.16 186.66 146.02 183.36 145.64 179.92 C 145.14 174.14 150.27 168.79 156.01 168.71 C 161.00 168.45 165.71 172.15 166.82 177.00 C 174.98 207.33 183.11 237.68 191.21 268.03 C 192.22 271.01 192.10 275.11 195.49 276.53 C 206.06 282.53 216.56 288.66 227.11 294.70 C 216.75 256.38 206.55 218.01 196.24 179.68 C 195.14 176.44 196.10 173.12 197.28 170.07 C 192.67 166.74 187.86 163.63 182.61 161.39 C 175.59 158.33 167.52 156.20 160.01 158.80 C 166.26 153.37 168.39 144.89 169.17 136.97 C 170.35 123.45 167.81 109.61 161.83 97.43 C 169.54 108.57 180.10 117.79 192.42 123.48 C 199.69 126.76 208.12 129.27 215.96 126.45 C 205.79 136.04 206.00 151.44 207.00 164.34 C 210.16 164.93 213.51 165.65 215.77 168.15 C 243.94 196.25 272.04 224.42 300.21 252.53 C 300.17 239.45 300.22 226.37 300.18 213.30 C 276.23 189.40 252.31 165.48 228.39 141.56 C 224.38 137.94 223.75 131.34 227.16 127.11 C 230.76 122.13 238.76 121.46 243.06 125.91 C 262.18 144.85 281.12 163.97 300.19 182.96 C 300.20 169.91 300.17 156.87 300.21 143.82 C 285.73 129.29 271.22 114.78 256.70 100.29 C 254.46 98.11 252.71 95.23 252.76 92.01 C 252.62 86.45 257.38 81.26 262.99 81.19 C 266.45 80.85 269.65 82.65 271.98 85.07 C 281.37 94.49 290.76 103.90 300.20 113.27 C 300.18 100.23 300.20 87.18 300.19 74.14 C 295.14 69.07 290.07 64.02 284.99 58.99 C 282.54 56.65 280.45 53.56 280.62 50.02 C 280.54 44.12 286.04 38.97 291.90 39.40 C 295.19 39.37 297.83 41.55 300.27 43.47 C 300.15 33.62 300.15 23.76 300.23 13.91 C 300.17 7.32 305.13 1.29 311.59 0.00 M 174.42 119.09 C 175.88 130.09 175.62 141.59 171.65 152.07 C 182.70 153.90 192.80 159.37 201.55 166.19 C 200.07 155.21 200.35 143.73 204.31 133.27 C 193.29 131.33 183.15 125.95 174.42 119.09 M 422.84 133.23 C 426.45 143.80 427.01 155.18 425.45 166.19 C 434.18 159.36 444.30 153.90 455.34 152.07 C 451.38 141.59 451.12 130.09 452.58 119.09 C 443.88 125.91 433.81 131.29 422.84 133.23 M 326.81 283.00 C 326.80 300.97 326.81 318.95 326.81 336.93 C 342.27 327.89 357.92 319.16 373.27 309.96 C 375.17 305.63 375.80 300.82 377.22 296.31 C 385.02 267.29 392.72 238.24 400.59 209.24 C 375.98 233.81 351.41 258.42 326.81 283.00 M 226.42 209.25 C 235.32 242.16 244.10 275.11 252.92 308.04 C 253.15 309.26 253.80 310.35 255.00 310.84 C 270.08 319.52 285.14 328.23 300.20 336.93 C 300.19 318.95 300.20 300.98 300.20 283.01 C 275.61 258.42 251.02 233.82 226.42 209.25 M 235.29 334.29 C 203.33 342.90 171.36 351.45 139.39 360.01 C 172.93 369.00 206.50 377.90 240.02 386.97 C 255.67 378.04 271.22 368.94 286.88 360.01 C 271.89 351.41 256.94 342.76 241.99 334.10 C 239.95 332.46 237.48 333.81 235.29 334.29 M 385.03 334.09 C 370.07 342.75 355.12 351.41 340.13 360.01 C 355.11 368.60 370.07 377.24 385.00 385.90 C 386.09 386.58 387.34 387.09 388.61 386.54 C 421.57 377.65 454.56 368.89 487.52 360.01 C 454.56 351.14 421.58 342.31 388.60 333.48 C 387.34 332.94 386.11 333.41 385.03 334.09 M 35.32 360.02 C 45.57 364.20 55.34 370.20 62.47 378.80 C 69.63 370.20 79.40 364.15 89.70 360.00 C 79.41 355.83 69.65 349.79 62.47 341.20 C 55.33 349.81 45.54 355.76 35.32 360.02 M 537.35 360.02 C 547.63 364.19 557.37 370.23 564.54 378.80 C 571.66 370.16 581.48 364.25 591.69 359.96 C 581.40 355.85 571.67 349.78 564.53 341.20 C 557.38 349.81 547.60 355.79 537.35 360.02 M 253.40 410.13 C 244.43 443.67 235.49 477.22 226.41 510.73 C 251.03 486.16 275.60 461.55 300.20 436.96 C 300.20 419.00 300.20 401.03 300.20 383.07 C 284.60 392.09 268.95 401.03 253.40 410.13 M 326.81 383.09 C 326.81 401.06 326.81 419.02 326.81 436.99 C 351.41 461.57 375.98 486.17 400.60 510.74 C 391.51 477.23 382.59 443.68 373.61 410.15 C 358.05 401.05 342.41 392.11 326.81 383.09 M 171.67 567.92 C 175.61 578.41 175.89 589.89 174.42 600.88 C 183.17 594.05 193.29 588.66 204.31 586.73 C 200.35 576.26 200.08 564.78 201.55 553.80 C 192.82 560.63 182.70 566.07 171.67 567.92 M 425.45 553.80 C 427.01 564.81 426.46 576.20 422.84 586.77 C 433.80 588.70 443.88 594.09 452.58 600.89 C 451.12 589.89 451.39 578.41 455.34 567.93 C 444.30 566.07 434.18 560.63 425.45 553.80 Z" />
</g>
</svg>
