<?xml version="1.0" encoding="UTF-8" ?>
<!DOCTYPE svg PUBLIC "-//W3C//DTD SVG 1.1//EN" "http://www.w3.org/Graphics/SVG/1.1/DTD/svg11.dtd">
<svg width="626pt" height="626pt" viewBox="0 0 626 626" version="1.1" xmlns="http://www.w3.org/2000/svg">
<g id="#ffffffff">
</g>
<g id="#000000ff">
<path fill="#000000" opacity="1.00" d=" M 298.68 0.00 L 329.16 0.00 C 329.22 51.21 329.04 102.43 329.26 153.64 C 354.61 127.91 380.34 102.56 405.80 76.94 C 405.79 55.76 405.82 34.59 405.78 13.41 C 415.94 13.43 426.10 13.28 436.25 13.50 C 435.50 18.99 435.87 24.53 435.80 30.04 C 435.91 35.50 435.31 41.03 436.65 46.39 C 442.76 39.57 449.58 33.40 455.90 26.76 C 457.24 25.49 458.37 23.85 460.15 23.16 C 467.31 30.02 474.10 37.26 481.29 44.09 C 473.76 51.74 466.20 59.36 458.57 66.90 C 458.63 67.24 458.74 67.91 458.80 68.25 C 469.37 68.18 479.95 68.21 490.52 68.23 C 490.47 78.26 490.57 88.29 490.47 98.33 C 469.96 98.32 449.44 98.28 428.94 98.34 C 426.10 98.17 424.58 100.99 422.77 102.67 C 393.13 132.39 363.42 162.04 333.77 191.75 C 332.13 193.65 329.16 195.00 329.21 197.87 C 329.13 211.50 329.11 225.14 329.24 238.77 C 344.61 223.22 360.18 207.86 375.56 192.33 C 376.11 191.79 377.29 190.97 377.91 191.91 C 382.25 196.29 386.70 200.57 390.96 205.03 C 393.13 207.66 396.79 209.43 397.78 212.82 C 389.65 221.64 380.82 229.85 372.43 238.45 C 358.14 252.77 343.79 267.05 329.53 281.40 C 328.67 286.45 329.40 291.69 329.16 296.82 C 336.66 296.83 344.16 296.88 351.66 296.79 C 374.10 274.30 396.62 251.89 418.98 229.33 C 425.39 235.14 431.16 241.62 437.46 247.56 C 438.67 248.58 439.49 249.94 440.15 251.37 C 424.72 266.26 409.69 281.59 394.55 296.79 C 407.35 296.90 420.16 296.78 432.96 296.86 C 434.77 296.73 437.05 297.19 438.34 295.55 C 469.96 263.78 501.79 232.22 533.33 200.37 C 533.23 178.11 533.23 155.84 533.34 133.59 C 543.42 133.56 553.51 133.60 563.61 133.56 C 563.83 145.73 563.43 157.90 563.82 170.06 C 571.62 162.17 579.51 154.38 587.32 146.51 C 594.52 153.64 601.69 160.78 608.74 168.05 C 604.13 172.36 599.82 176.99 595.30 181.39 C 593.06 183.53 591.21 186.12 588.37 187.54 C 598.26 189.09 608.35 187.70 618.32 188.37 C 618.26 197.67 618.28 206.98 618.30 216.29 C 618.09 216.85 617.65 217.98 617.43 218.54 C 597.83 218.38 578.22 218.63 558.62 218.42 C 548.38 227.93 538.79 238.13 528.80 247.91 C 512.51 264.19 496.19 280.44 479.93 296.77 C 528.62 296.92 577.31 296.80 626.00 296.83 L 626.00 327.32 C 576.26 327.44 526.51 327.09 476.77 327.50 C 484.23 335.95 492.62 343.54 500.47 351.64 C 517.13 368.33 533.83 384.97 550.47 401.68 C 552.40 403.33 553.94 406.32 556.91 405.82 C 577.19 405.77 597.47 405.81 617.74 405.79 C 617.79 415.79 617.77 425.79 617.74 435.78 C 606.91 435.68 596.08 435.96 585.25 435.65 C 591.82 444.03 600.27 450.73 607.32 458.69 C 607.49 459.18 607.83 460.16 608.00 460.65 C 600.82 467.28 594.17 474.47 587.13 481.25 C 579.37 473.42 571.52 465.68 563.75 457.86 C 563.55 468.74 563.73 479.63 563.65 490.52 C 553.53 490.52 543.41 490.50 533.29 490.52 C 533.29 469.57 533.19 448.62 533.34 427.67 C 500.16 394.04 466.60 360.75 433.17 327.36 C 419.30 327.37 405.42 327.14 391.55 327.48 C 393.38 329.99 395.53 332.24 397.81 334.36 C 411.42 347.98 425.01 361.63 438.68 375.19 C 439.26 375.91 439.73 376.71 440.09 377.59 C 434.79 382.12 430.21 387.41 425.17 392.21 C 422.97 394.22 421.28 397.25 418.12 397.82 C 410.14 389.13 401.49 381.06 393.24 372.62 C 378.21 357.57 363.17 342.53 348.17 327.46 C 341.86 327.21 335.54 327.32 329.23 327.37 C 329.13 335.47 329.10 343.58 329.24 351.68 C 343.74 366.11 358.16 380.61 372.64 395.07 C 380.52 402.76 388.00 410.88 396.14 418.30 C 395.67 419.41 395.35 420.66 394.41 421.50 C 388.65 427.08 382.99 432.77 377.40 438.51 C 376.60 439.27 375.55 439.64 374.61 440.15 C 359.71 424.71 344.37 409.68 329.19 394.53 C 329.14 407.68 329.17 420.84 329.15 433.99 C 329.29 435.28 329.00 436.89 330.03 437.90 C 361.95 469.64 393.64 501.64 425.62 533.33 C 447.89 533.25 470.16 533.21 492.43 533.35 C 492.42 543.36 492.43 553.38 492.43 563.40 C 480.27 563.62 468.08 563.02 455.94 563.74 C 463.76 571.62 471.62 579.45 479.48 587.29 C 472.41 594.54 465.19 601.64 458.01 608.78 C 451.34 602.10 444.83 595.25 437.86 588.87 C 437.58 598.69 437.99 608.51 437.63 618.32 C 427.62 618.21 417.61 618.31 407.61 618.26 C 407.44 598.40 407.46 578.53 407.59 558.66 C 400.13 550.40 391.88 542.85 384.12 534.85 C 368.30 519.02 352.49 503.17 336.67 487.35 C 334.23 484.76 331.50 482.46 329.31 479.65 C 328.96 528.43 329.26 577.22 329.16 626.00 L 298.68 626.00 C 298.68 596.00 298.68 566.01 298.68 536.01 C 298.55 516.25 298.94 496.49 298.48 476.74 C 286.43 487.92 275.14 499.92 263.40 511.44 C 249.41 525.40 235.45 539.40 221.43 553.34 C 219.90 554.38 220.25 556.33 220.17 557.93 C 220.23 573.28 220.19 588.63 220.20 603.99 C 220.13 608.77 220.51 613.59 219.74 618.34 C 209.78 618.16 199.82 618.36 189.87 618.23 C 189.94 609.21 189.51 600.17 190.18 591.17 C 190.17 589.23 189.92 587.32 189.44 585.45 C 181.56 593.12 173.93 601.06 166.02 608.70 C 159.13 601.28 151.74 594.32 144.63 587.12 C 152.43 579.60 160.01 571.85 167.68 564.19 C 167.21 563.26 165.86 563.66 165.03 563.45 C 155.19 563.35 145.34 563.44 135.50 563.42 C 135.48 553.37 135.46 543.32 135.51 533.27 C 156.46 533.31 177.42 533.19 198.37 533.33 C 231.97 500.17 265.22 466.62 298.61 433.24 C 298.59 419.13 299.01 405.00 298.38 390.91 C 283.50 406.19 268.18 421.05 253.22 436.27 C 251.83 437.81 250.40 439.42 248.37 440.11 C 241.83 432.72 234.44 426.11 227.65 418.95 C 251.28 395.35 274.88 371.71 298.54 348.14 C 298.81 341.22 298.64 334.30 298.66 327.38 C 293.08 327.40 287.48 327.08 281.91 327.50 C 271.95 336.66 262.68 346.60 253.01 356.09 C 239.61 369.34 226.43 382.84 212.94 396.00 C 212.58 395.90 211.86 395.71 211.50 395.61 C 205.58 389.87 199.91 383.84 193.95 378.13 C 192.89 377.11 192.04 375.92 191.22 374.71 C 205.61 360.93 219.39 346.52 233.65 332.61 C 235.29 331.00 236.79 329.25 238.26 327.50 C 224.39 327.11 210.51 327.40 196.63 327.35 C 164.11 359.61 131.89 392.18 99.37 424.45 C 98.23 425.28 98.42 426.75 98.35 427.99 C 98.35 449.45 98.36 470.91 98.35 492.37 C 88.40 492.58 78.44 492.20 68.49 492.58 C 67.22 489.54 67.81 486.21 67.71 483.02 C 67.62 474.22 67.92 465.40 67.51 456.60 C 59.51 464.02 52.14 472.09 44.20 479.57 C 37.31 472.18 29.96 465.25 22.94 457.99 C 28.03 453.06 32.92 447.94 38.01 443.00 C 39.55 441.43 41.32 439.94 42.04 437.78 C 32.49 437.75 22.94 437.78 13.39 437.77 C 13.39 427.67 13.32 417.57 13.43 407.47 C 33.38 407.53 53.34 407.41 73.29 407.53 C 100.03 380.97 126.71 354.34 153.25 327.59 C 151.52 327.44 149.78 327.33 148.03 327.32 C 98.69 327.32 49.34 327.32 0.00 327.32 L 0.00 296.84 C 51.21 296.79 102.43 296.93 153.64 296.77 C 127.93 271.38 102.51 245.70 76.94 220.19 C 55.75 220.22 34.57 220.19 13.38 220.21 C 13.37 210.21 13.41 200.21 13.36 190.21 C 24.37 189.69 35.53 191.20 46.44 189.33 C 38.27 182.28 31.38 173.85 23.16 166.86 C 23.29 166.50 23.56 165.79 23.69 165.43 C 27.25 161.42 31.26 157.83 34.97 153.96 C 38.12 151.12 40.69 147.60 44.19 145.17 C 52.54 151.91 59.06 160.78 67.57 167.37 C 67.86 156.78 67.65 146.18 67.70 135.58 C 77.92 135.42 88.14 135.46 98.36 135.55 C 98.36 156.04 98.31 176.53 98.38 197.02 C 98.26 200.17 101.50 201.72 103.32 203.80 C 134.05 234.63 164.94 265.31 195.61 296.18 C 196.90 297.04 198.57 296.73 200.04 296.86 C 212.98 296.79 225.91 296.91 238.85 296.79 C 223.42 281.65 208.30 266.19 192.91 251.02 C 192.32 250.18 190.65 249.07 191.91 248.06 C 197.51 242.31 203.34 236.77 208.89 230.96 C 210.04 229.71 211.44 228.74 212.91 227.92 C 235.65 250.88 258.57 273.68 281.44 296.51 C 287.11 297.27 292.92 296.67 298.64 296.79 C 298.69 291.77 298.70 286.75 298.62 281.73 C 275.63 258.79 252.80 235.68 229.66 212.89 C 233.55 207.47 238.96 203.33 243.46 198.43 C 246.07 196.03 248.22 193.09 251.29 191.22 C 265.06 205.61 279.46 219.40 293.39 233.64 C 295.00 235.28 296.74 236.77 298.50 238.24 C 298.89 224.39 298.58 210.52 298.67 196.66 C 267.24 165.01 235.61 133.55 204.11 101.96 C 202.55 100.58 201.31 98.16 198.92 98.34 C 177.15 98.28 155.39 98.33 133.62 98.31 C 133.54 88.11 133.51 77.91 133.64 67.71 C 145.76 67.52 157.89 68.02 169.99 67.42 C 162.71 61.27 156.49 53.99 149.53 47.50 C 148.49 46.31 145.89 44.48 147.92 42.99 C 154.58 36.27 161.21 29.52 168.02 22.95 C 172.94 28.00 178.02 32.89 182.94 37.94 C 184.51 39.51 186.06 41.23 188.20 42.02 C 188.26 32.47 188.19 22.92 188.24 13.38 C 198.33 13.42 208.41 13.30 218.50 13.45 C 218.45 33.38 218.56 53.30 218.44 73.23 C 244.93 100.06 271.69 126.65 298.39 153.29 C 298.55 151.52 298.67 149.75 298.69 147.98 C 298.67 98.66 298.68 49.33 298.68 0.00 Z" />
</g>
</svg>
