<?xml version="1.0" encoding="UTF-8" ?>
<!DOCTYPE svg PUBLIC "-//W3C//DTD SVG 1.1//EN" "http://www.w3.org/Graphics/SVG/1.1/DTD/svg11.dtd">
<svg width="225pt" height="225pt" viewBox="0 0 225 225" version="1.1" xmlns="http://www.w3.org/2000/svg">
<g id="#ffffffff">
</g>
<g id="#000000ff">
<path fill="#000000" opacity="1.00" d=" M 112.14 0.00 L 113.51 0.00 C 114.50 0.82 116.31 1.36 116.20 2.96 C 116.47 7.02 116.21 11.09 116.29 15.16 C 119.62 12.80 122.63 10.00 126.12 7.88 C 129.26 6.55 131.65 9.94 131.16 12.79 C 126.46 16.97 121.28 20.56 116.29 24.38 C 116.29 33.82 116.31 43.25 116.28 52.69 C 124.37 46.68 132.34 40.49 140.46 34.52 C 143.73 31.73 148.29 37.31 145.05 39.98 C 135.81 47.49 125.97 54.29 116.67 61.73 C 115.73 66.02 116.57 70.77 116.29 75.23 C 124.47 69.41 132.39 63.22 140.60 57.45 C 142.61 55.92 144.73 57.63 146.13 59.10 C 145.18 70.25 143.77 81.35 142.71 92.49 C 147.73 89.62 152.83 86.87 157.80 83.90 C 159.18 71.30 160.63 58.71 162.15 46.13 C 162.73 42.11 169.46 43.03 169.16 46.98 C 168.06 57.77 166.68 68.54 165.37 79.31 C 172.59 75.36 179.67 71.17 186.82 67.10 C 187.48 60.44 188.46 53.80 188.99 47.12 C 190.88 44.75 194.31 44.49 195.97 47.27 C 196.20 52.38 194.89 57.45 194.43 62.54 C 198.69 60.24 202.70 57.47 207.10 55.46 C 210.36 54.27 213.18 59.05 210.67 61.41 C 207.41 63.89 203.61 65.54 200.15 67.72 C 203.36 69.23 206.77 70.32 209.83 72.14 C 212.72 74.16 210.48 79.20 207.02 78.49 C 201.93 76.81 197.13 74.33 192.15 72.33 C 185.12 76.49 177.98 80.46 170.95 84.61 C 179.41 88.24 187.91 91.82 196.37 95.47 C 197.85 95.97 199.15 97.35 199.13 98.99 C 199.41 101.61 196.12 103.77 193.83 102.42 C 183.52 98.07 173.23 93.65 162.97 89.19 C 158.03 92.04 153.14 94.95 148.15 97.69 C 156.32 101.68 164.78 105.06 173.06 108.81 C 174.95 109.47 176.66 111.64 175.78 113.68 C 175.23 115.17 173.75 115.91 172.40 116.51 C 163.73 120.24 155.10 124.10 146.45 127.88 C 151.62 130.55 156.55 133.74 161.85 136.12 C 172.75 131.77 183.40 126.80 194.29 122.43 C 197.89 120.92 201.02 126.44 197.80 128.78 C 188.54 133.09 179.00 136.81 169.64 140.91 C 176.84 144.83 183.75 149.28 191.03 153.03 C 196.45 151.10 201.52 148.25 207.01 146.52 C 210.49 145.67 212.71 150.88 209.82 152.86 C 206.36 154.89 202.50 156.10 198.86 157.75 C 202.20 159.90 205.94 161.45 209.08 163.89 C 211.86 166.24 208.79 171.28 205.44 169.91 C 201.73 168.11 198.29 165.82 194.69 163.82 C 194.90 168.47 196.27 173.07 195.97 177.73 C 194.46 180.33 190.62 180.56 189.13 177.81 C 187.98 171.70 187.51 165.46 186.73 159.29 C 179.66 155.09 172.47 151.10 165.41 146.90 C 166.62 157.28 168.03 167.63 169.11 178.01 C 169.33 182.00 162.71 182.82 161.95 178.95 C 160.37 166.79 158.90 154.61 157.55 142.42 C 152.65 139.54 147.56 137.00 142.68 134.09 C 143.74 144.08 144.82 154.06 145.95 164.04 C 146.49 166.82 142.86 169.42 140.51 167.53 C 132.35 161.73 124.43 155.60 116.29 149.77 C 116.27 155.42 116.35 161.07 116.25 166.72 C 125.65 174.04 135.30 181.03 144.72 188.34 C 147.11 189.94 146.17 193.72 143.68 194.68 C 142.21 195.65 140.63 194.50 139.45 193.63 C 131.72 187.78 124.03 181.87 116.23 176.10 C 116.36 184.27 116.26 192.45 116.29 200.62 C 121.22 204.44 126.42 207.93 131.04 212.12 C 131.05 212.82 131.07 214.22 131.07 214.92 C 129.88 216.40 128.31 218.02 126.20 217.24 C 122.68 215.08 119.65 212.22 116.29 209.84 C 116.21 213.90 116.47 217.97 116.20 222.02 C 116.19 223.63 114.45 224.27 113.33 225.00 L 112.05 225.00 C 110.73 224.38 109.23 223.51 109.05 221.90 C 108.76 217.92 109.02 213.93 109.00 209.94 C 106.04 211.98 103.23 214.24 100.28 216.29 C 99.13 217.22 97.57 217.64 96.14 217.19 C 93.43 216.68 92.91 212.62 95.00 211.10 C 99.51 207.41 104.39 204.19 108.98 200.61 C 108.93 192.46 108.92 184.31 108.99 176.16 C 101.35 181.83 93.72 187.51 86.10 193.22 C 84.54 194.34 82.37 195.89 80.53 194.40 C 78.22 193.25 78.11 189.63 80.28 188.30 C 89.78 181.07 99.48 174.10 108.97 166.85 C 108.94 161.18 108.92 155.51 108.99 149.84 C 100.72 155.64 92.68 161.76 84.39 167.53 C 81.99 169.28 78.01 167.15 78.67 164.07 C 79.60 154.08 80.68 144.09 81.95 134.14 C 78.11 136.26 74.24 138.36 70.51 140.68 C 68.36 152.60 67.71 164.84 65.77 176.82 C 65.57 177.38 65.17 178.50 64.97 179.06 C 62.52 180.15 58.58 179.52 58.70 176.16 C 59.61 165.88 61.13 155.65 62.28 145.39 C 54.93 149.67 47.57 153.94 40.17 158.14 C 39.30 158.81 37.78 159.15 37.66 160.45 C 36.84 165.90 36.51 171.44 35.63 176.88 C 35.09 180.62 29.23 180.76 28.50 177.03 C 28.51 172.70 29.31 168.41 29.89 164.13 C 26.17 166.02 22.77 168.51 18.95 170.21 C 15.67 171.16 13.17 166.95 15.19 164.36 C 18.50 161.81 22.38 160.15 25.87 157.87 C 22.22 156.22 18.37 154.97 14.86 153.01 C 12.04 151.25 13.61 146.30 16.97 146.47 C 22.88 147.90 28.07 151.47 33.93 153.06 C 42.22 148.72 50.15 143.71 58.33 139.16 C 49.64 135.38 40.90 131.71 32.19 128.00 C 30.83 127.32 28.95 126.66 28.75 124.91 C 27.81 122.02 31.27 119.17 33.90 120.78 C 44.76 125.27 55.54 129.98 66.33 134.63 C 70.17 132.28 74.12 130.12 77.96 127.77 C 68.94 123.89 59.93 119.96 50.98 115.93 C 48.10 115.14 47.69 110.51 50.47 109.35 C 59.68 105.05 69.06 101.10 78.35 96.99 C 74.49 94.73 70.57 92.57 66.75 90.25 C 55.89 94.88 45.06 99.57 34.18 104.14 C 31.88 105.59 28.47 103.76 28.62 100.98 C 28.46 98.89 30.37 97.75 32.04 97.06 C 40.93 93.26 49.85 89.51 58.72 85.64 C 51.24 81.26 43.57 77.22 35.99 73.01 C 34.93 72.45 33.73 71.57 32.51 72.31 C 27.61 74.21 22.91 76.64 17.94 78.37 C 14.59 79.60 11.89 74.90 14.27 72.42 C 17.68 70.11 21.76 69.08 25.43 67.28 C 22.61 65.44 19.46 64.16 16.65 62.31 C 13.72 60.09 16.28 54.70 19.91 55.88 C 23.37 57.38 26.49 59.57 29.90 61.20 C 29.37 56.82 28.52 52.46 28.50 48.05 C 29.05 44.60 34.29 44.24 35.42 47.43 C 36.90 53.37 36.39 59.80 38.10 65.64 C 46.04 70.31 54.30 74.44 62.22 79.17 C 61.11 69.07 59.60 59.01 58.70 48.90 C 58.53 45.49 62.50 44.84 64.97 45.95 C 66.26 48.72 66.31 51.81 66.72 54.79 C 67.86 64.44 69.03 74.09 70.20 83.74 C 74.08 86.00 77.92 88.34 81.90 90.44 C 80.70 80.61 79.67 70.76 78.70 60.92 C 78.21 57.94 82.02 55.66 84.41 57.48 C 92.69 63.25 100.72 69.37 108.99 75.16 C 108.93 70.72 108.92 66.29 108.99 61.85 C 99.85 55.00 90.68 48.18 81.52 41.37 C 80.12 40.29 78.38 38.98 78.78 36.95 C 78.86 34.28 82.46 32.86 84.50 34.50 C 92.71 40.46 100.78 46.62 108.97 52.61 C 108.95 43.21 108.92 33.80 108.98 24.40 C 104.27 20.61 99.10 17.40 94.56 13.42 C 91.97 10.63 95.54 6.20 98.92 7.88 C 102.44 10.05 105.59 12.74 109.00 15.07 C 109.02 11.06 108.75 7.03 109.06 3.03 C 109.36 1.45 110.77 0.58 112.14 0.00 M 87.05 68.44 C 87.81 76.34 88.78 84.22 89.50 92.13 C 89.71 93.20 89.64 94.48 90.42 95.34 C 94.17 97.59 98.00 99.72 101.75 101.97 C 103.83 100.09 106.32 98.80 108.96 97.89 C 108.96 93.40 108.91 88.90 108.99 84.41 C 101.75 78.99 94.36 73.77 87.05 68.44 M 116.32 84.32 C 116.26 88.90 116.33 93.48 116.26 98.06 C 119.34 98.91 121.96 100.77 124.02 103.17 C 127.63 101.14 131.24 99.12 134.77 96.96 C 135.63 87.42 136.90 77.91 137.93 68.38 C 130.73 73.70 123.56 79.07 116.32 84.32 M 61.50 112.48 C 69.61 116.09 77.68 119.91 85.95 123.11 C 89.98 121.04 93.78 118.55 97.77 116.41 C 97.27 113.72 97.26 110.99 97.90 108.32 C 94.02 106.04 90.12 103.79 86.24 101.51 C 78.00 105.19 69.71 108.76 61.50 112.48 M 127.02 110.02 C 127.19 112.27 127.29 114.57 126.47 116.72 C 130.26 119.24 134.40 121.18 138.35 123.42 C 146.59 119.75 154.84 116.15 163.09 112.51 C 155.46 109.09 147.79 105.77 140.16 102.34 C 135.81 104.96 131.36 107.40 127.02 110.02 M 109.39 105.48 C 104.20 107.39 103.05 115.12 107.50 118.41 C 111.23 121.59 117.65 119.94 119.28 115.27 C 122.04 109.47 115.20 102.71 109.39 105.48 M 90.06 129.33 C 88.68 138.35 88.12 147.49 87.02 156.56 C 94.36 151.26 101.73 146.00 108.99 140.59 C 108.91 136.07 108.95 131.55 108.97 127.04 C 106.33 126.09 103.79 124.84 101.77 122.86 C 97.76 124.81 94.05 127.33 90.06 129.33 M 116.27 127.04 C 116.32 131.57 116.27 136.11 116.30 140.65 C 123.54 145.94 130.73 151.28 137.93 156.61 C 136.85 147.71 136.11 138.76 134.91 129.87 C 130.93 127.61 126.85 125.52 122.88 123.22 C 120.95 124.93 118.63 126.05 116.27 127.04 Z" />
</g>
</svg>
