<?xml version="1.0" encoding="UTF-8" ?>
<!DOCTYPE svg PUBLIC "-//W3C//DTD SVG 1.1//EN" "http://www.w3.org/Graphics/SVG/1.1/DTD/svg11.dtd">
<svg width="214pt" height="236pt" viewBox="0 0 214 236" version="1.1" xmlns="http://www.w3.org/2000/svg">
<g id="#ffffffff">
</g>
<g id="#231f20ff">
<path fill="#231f20" opacity="1.00" d=" M 102.25 1.00 C 105.52 1.00 108.79 1.00 112.07 1.00 C 112.06 8.79 112.06 16.57 112.06 24.36 C 115.88 20.94 119.32 17.13 123.02 13.60 C 125.31 15.92 127.60 18.26 130.01 20.46 C 124.17 26.59 118.13 32.53 112.08 38.46 C 112.04 44.00 112.07 49.54 112.07 55.08 C 119.01 48.17 125.94 41.25 132.89 34.37 C 135.19 36.70 137.55 38.97 139.86 41.29 C 130.53 50.49 121.31 59.81 112.05 69.09 C 112.08 73.99 112.03 78.89 112.09 83.80 C 119.51 88.07 126.95 92.31 134.32 96.66 C 138.56 94.12 143.10 92.04 147.14 89.22 C 150.86 76.74 154.16 64.12 157.75 51.60 C 160.90 52.46 164.02 53.42 167.20 54.14 C 164.59 63.62 161.86 73.08 159.28 82.58 C 164.11 79.95 168.82 77.08 173.71 74.55 C 176.09 66.44 178.40 58.29 180.49 50.09 C 183.78 50.73 186.99 51.69 190.18 52.72 C 188.60 57.63 187.22 62.61 185.99 67.62 C 192.96 63.50 200.08 59.65 207.11 55.63 C 208.70 58.48 210.33 61.31 211.96 64.14 C 205.02 68.31 197.71 71.89 190.91 76.28 C 195.86 77.54 200.76 79.01 205.72 80.27 C 204.81 83.45 204.04 86.67 202.97 89.80 C 195.73 87.61 188.39 85.77 181.14 83.61 C 179.99 83.34 178.67 82.69 177.60 83.55 C 173.09 86.08 168.62 88.67 164.08 91.14 C 173.51 93.83 182.95 96.47 192.42 99.04 C 191.68 102.24 190.70 105.38 189.82 108.55 C 177.26 105.04 164.71 101.45 152.11 98.06 C 147.68 100.21 143.51 102.89 139.16 105.21 C 139.12 113.68 139.09 122.16 139.18 130.63 C 143.58 132.92 147.84 135.48 152.18 137.89 C 164.80 134.38 177.39 130.73 190.07 127.39 C 190.86 130.54 191.74 133.66 192.69 136.76 C 183.19 139.31 173.77 142.19 164.22 144.55 C 169.06 147.49 174.04 150.19 178.98 152.95 C 187.04 150.54 195.16 148.26 203.32 146.16 C 204.12 149.27 204.96 152.37 205.93 155.44 C 200.99 156.98 195.97 158.28 190.96 159.58 C 197.86 163.78 204.95 167.65 212.03 171.54 C 210.60 174.54 208.90 177.40 207.16 180.22 C 200.20 176.12 193.11 172.29 186.10 168.28 C 187.26 173.21 188.96 177.99 190.08 182.93 C 187.30 184.59 183.81 184.83 180.74 185.86 C 178.49 177.68 176.31 169.47 173.86 161.35 C 169.01 158.70 164.23 155.93 159.40 153.25 C 162.03 162.75 164.76 172.23 167.31 181.75 C 164.15 182.46 161.04 183.37 157.93 184.28 C 154.44 172.03 151.05 159.76 147.65 147.49 C 147.41 146.13 145.92 145.72 144.93 145.04 C 141.50 143.12 138.03 141.28 134.70 139.18 C 127.06 143.35 119.62 147.85 112.06 152.16 C 112.06 157.08 112.07 162.01 112.06 166.93 C 121.32 176.19 130.54 185.51 139.85 194.72 C 137.58 197.07 135.26 199.36 132.95 201.68 C 125.93 194.78 119.07 187.74 112.05 180.84 C 112.23 186.42 111.74 192.06 112.29 197.59 C 118.10 203.68 124.27 209.43 130.05 215.55 C 127.64 217.79 125.36 220.16 123.04 222.48 C 119.40 218.84 115.85 215.12 112.08 211.61 C 112.04 219.41 112.07 227.20 112.06 235.00 C 108.79 235.00 105.51 235.00 102.24 235.00 C 102.26 227.18 102.28 219.35 102.24 211.53 C 98.59 215.08 94.93 218.63 91.50 222.39 C 88.85 220.30 86.60 217.79 84.30 215.35 C 90.03 209.71 95.72 204.02 101.37 198.30 C 102.69 197.24 102.15 195.43 102.28 193.99 C 102.19 189.60 102.39 185.21 102.15 180.83 C 95.17 187.75 88.27 194.75 81.28 201.65 C 79.06 199.31 76.76 197.04 74.44 194.79 C 83.63 185.43 92.95 176.21 102.23 166.93 C 102.27 162.00 102.28 157.07 102.22 152.14 C 94.74 147.90 87.32 143.58 79.89 139.25 C 75.63 141.59 71.47 144.10 67.17 146.36 C 63.36 158.99 60.16 171.80 56.37 184.43 C 53.30 183.40 50.18 182.52 47.03 181.75 C 49.70 172.27 52.25 162.76 55.01 153.31 C 50.12 155.99 45.30 158.81 40.41 161.49 C 38.19 169.64 35.72 177.72 33.70 185.92 C 30.52 185.12 27.37 184.23 24.20 183.39 C 25.38 178.35 27.06 173.45 28.21 168.40 C 21.18 172.37 14.13 176.31 7.13 180.33 C 5.50 177.50 3.92 174.63 2.27 171.80 C 9.18 167.60 16.50 164.07 23.27 159.66 C 18.35 158.45 13.52 156.87 8.57 155.74 C 9.30 152.51 10.24 149.34 11.14 146.16 C 19.31 148.43 27.48 150.72 35.65 152.99 C 40.41 150.14 45.30 147.52 50.13 144.78 C 40.68 142.10 31.21 139.45 21.74 136.86 C 22.60 133.76 23.57 130.69 24.14 127.52 C 36.87 130.61 49.39 134.56 62.06 137.88 C 66.49 135.75 70.63 133.07 74.96 130.76 C 75.01 122.22 74.99 113.69 74.97 105.16 C 70.66 102.81 66.53 100.09 62.06 98.06 C 49.43 101.35 36.89 105.06 24.29 108.50 C 23.52 105.34 22.65 102.21 21.71 99.09 C 31.17 96.35 40.68 93.80 50.16 91.12 C 45.33 88.48 40.60 85.64 35.73 83.07 C 27.47 84.90 19.36 87.52 11.19 89.74 C 10.22 86.57 9.33 83.37 8.56 80.15 C 13.45 79.02 18.21 77.44 23.09 76.31 C 16.60 71.66 9.15 68.29 2.28 64.15 C 3.87 61.27 5.47 58.40 7.12 55.55 C 14.13 59.53 21.12 63.54 28.18 67.41 C 27.04 62.44 25.51 57.56 24.10 52.66 C 27.25 51.57 30.48 50.75 33.71 49.97 C 35.75 58.18 38.18 66.28 40.45 74.43 C 45.33 77.18 50.31 79.76 55.03 82.80 C 52.37 73.25 49.72 63.70 47.02 54.17 C 50.17 53.34 53.30 52.44 56.42 51.50 C 60.15 64.14 63.39 76.93 67.18 89.55 C 71.50 91.79 75.67 94.28 79.91 96.66 C 87.33 92.31 94.77 88.04 102.23 83.77 C 102.27 78.86 102.29 73.95 102.22 69.04 C 92.95 59.79 83.63 50.59 74.39 41.30 C 76.73 39.03 79.05 36.73 81.27 34.35 C 88.29 41.24 95.16 48.28 102.17 55.18 C 102.33 50.10 102.25 45.02 102.26 39.93 C 102.54 38.47 101.18 37.59 100.37 36.63 C 94.96 31.33 89.71 25.88 84.26 20.63 C 86.58 18.22 88.85 15.75 91.44 13.62 C 94.87 17.41 98.54 21.00 102.25 24.52 C 102.27 16.68 102.26 8.84 102.25 1.00 M 84.87 105.09 C 84.85 113.68 84.81 122.26 84.89 130.84 C 92.32 135.11 99.75 139.38 107.15 143.71 C 114.49 139.35 121.89 135.08 129.33 130.88 C 129.36 122.27 129.39 113.65 129.31 105.04 C 121.80 100.96 114.58 96.30 107.00 92.37 C 99.58 96.54 92.29 100.93 84.87 105.09 Z" />
<path fill="#231f20" opacity="1.00" d=" M 105.14 110.07 C 110.84 108.41 116.69 114.32 115.01 119.99 C 114.00 125.77 106.10 128.22 101.83 124.30 C 96.73 120.38 98.87 111.42 105.14 110.07 Z" />
</g>
</svg>
