<?xml version="1.0" encoding="UTF-8" ?>
<!DOCTYPE svg PUBLIC "-//W3C//DTD SVG 1.1//EN" "http://www.w3.org/Graphics/SVG/1.1/DTD/svg11.dtd">
<svg width="1219pt" height="1042pt" viewBox="0 0 1219 1042" version="1.1" xmlns="http://www.w3.org/2000/svg">
<g id="#c0c1c1ba">
</g>
<g id="#050605e6">
<path fill="#050605" opacity="0.90" d=" M 574.57 91.68 C 594.02 91.60 613.47 91.57 632.92 91.60 C 633.84 94.35 635.11 97.06 635.18 100.00 C 634.88 103.03 633.74 105.91 633.48 108.94 C 632.90 114.66 633.79 120.50 632.41 126.14 C 630.82 132.63 631.18 139.36 631.00 145.98 C 630.96 150.72 629.18 155.25 629.35 160.00 C 629.49 169.93 626.52 179.60 626.88 189.55 C 644.29 181.37 662.33 174.64 679.89 166.81 C 683.26 165.35 686.48 163.51 689.98 162.38 C 693.02 163.78 694.70 166.88 696.24 169.68 C 701.87 180.85 707.48 192.04 712.94 203.29 C 702.86 205.71 694.19 211.57 684.90 215.87 C 665.18 225.13 646.51 236.41 627.00 246.09 C 627.00 260.39 627.00 274.69 627.00 288.99 C 626.97 293.99 627.44 299.10 625.98 303.96 C 624.29 310.16 625.07 316.63 624.94 322.97 C 624.88 334.62 625.32 346.30 624.66 357.94 C 622.73 366.45 622.34 375.21 623.02 383.89 C 640.24 362.66 656.96 341.04 674.43 320.01 C 666.30 301.27 658.89 282.22 651.36 263.24 C 660.56 260.49 669.64 256.91 677.50 251.29 C 687.84 262.55 691.85 277.71 699.49 290.65 C 711.86 275.09 722.29 258.09 734.94 242.74 C 743.58 249.86 752.11 257.09 760.89 264.03 C 762.70 265.52 765.02 267.29 764.62 269.97 C 764.53 272.08 762.53 273.03 761.01 274.06 C 750.95 280.05 743.72 289.55 734.43 296.54 C 729.15 300.38 724.77 305.25 720.25 309.92 C 735.28 311.39 749.87 315.61 764.90 317.13 C 765.33 329.85 755.00 339.77 755.18 352.45 C 749.05 354.15 743.81 349.82 738.07 348.59 C 722.82 344.82 707.58 341.02 692.37 337.12 C 687.22 347.31 677.07 353.41 670.62 362.61 C 665.34 370.23 657.45 375.53 652.14 383.14 C 646.78 390.98 638.60 396.34 633.24 404.19 C 630.91 407.55 628.05 410.51 625.04 413.27 C 624.95 449.18 624.94 485.09 624.97 521.00 C 700.77 471.70 774.94 419.94 850.54 370.34 C 852.81 369.27 851.70 366.70 851.31 364.82 C 848.54 355.73 850.51 346.16 849.65 336.87 C 849.29 332.52 847.77 328.35 847.66 323.98 C 847.30 316.07 848.65 308.03 846.69 300.24 C 845.42 295.33 845.36 290.24 845.57 285.21 C 860.91 279.06 877.60 278.36 893.54 274.55 C 893.65 296.98 893.61 319.40 893.64 341.82 C 916.59 324.52 939.19 306.76 961.98 289.24 C 967.65 296.34 970.62 305.06 975.56 312.62 C 980.21 320.90 985.10 329.06 989.71 337.37 C 975.19 340.93 962.84 349.78 948.95 354.94 C 936.34 360.40 924.44 367.41 911.50 372.13 C 918.31 378.52 926.27 383.53 933.64 389.25 C 943.02 396.24 952.40 403.25 961.19 410.99 C 958.77 415.19 955.42 418.72 952.73 422.73 C 947.74 429.99 943.14 437.51 937.89 444.59 C 933.75 439.34 927.94 435.98 922.20 432.79 C 905.32 422.04 888.54 411.12 871.52 400.60 C 868.20 398.38 864.60 400.97 861.88 402.88 C 830.35 425.64 797.39 446.29 765.32 468.26 C 731.63 491.83 697.06 514.09 663.01 537.12 C 658.49 540.22 654.32 543.83 649.58 546.60 C 648.36 547.44 646.86 548.04 646.06 549.34 C 673.40 563.89 699.97 579.86 726.90 595.16 C 729.12 596.35 731.31 597.97 733.96 597.97 C 740.80 598.28 747.46 596.36 754.11 595.01 C 774.73 591.30 795.40 587.80 816.00 583.98 C 824.44 582.62 832.92 581.33 841.13 578.88 C 846.50 559.45 852.80 540.24 856.53 520.40 C 869.13 521.48 881.48 524.74 894.16 525.13 C 889.95 540.60 883.06 555.17 878.51 570.53 C 897.36 564.14 916.31 558.01 935.12 551.49 C 940.95 564.82 940.96 579.61 943.93 593.66 C 929.57 591.99 915.33 595.28 901.03 595.90 C 895.45 596.02 890.06 597.57 884.62 598.63 C 892.69 610.60 899.44 623.44 908.31 634.87 C 898.92 640.55 890.65 647.81 881.71 654.13 C 881.05 651.45 880.43 648.66 878.66 646.48 C 867.96 633.14 857.55 619.56 847.10 606.02 C 820.45 608.57 794.29 614.64 767.64 617.17 C 771.63 622.16 777.32 625.17 782.84 628.13 C 802.07 640.41 821.85 651.83 841.32 663.72 C 855.71 672.29 870.01 681.03 884.65 689.16 C 903.69 676.29 922.88 663.64 941.98 650.86 C 949.37 645.82 957.23 641.39 963.76 635.20 C 977.36 649.10 988.74 664.97 1002.45 678.77 C 1001.26 678.42 1000.08 678.08 998.92 677.74 C 997.57 679.21 996.15 680.71 994.17 681.27 C 984.17 684.95 975.59 691.45 966.04 696.06 C 955.80 701.77 945.73 707.78 935.44 713.39 C 935.38 713.99 935.25 715.20 935.19 715.81 C 963.22 726.30 990.45 738.79 1018.35 749.65 C 1020.67 750.48 1022.86 752.35 1023.03 754.98 C 1022.75 757.02 1021.45 758.72 1020.47 760.47 C 1010.95 775.74 1003.23 792.21 992.09 806.43 C 992.35 805.11 992.66 803.82 992.97 802.52 C 983.73 799.01 976.62 791.94 968.47 786.64 C 950.78 773.95 932.71 761.81 915.09 749.03 C 911.45 772.97 909.15 797.09 905.60 821.04 C 894.06 816.97 881.70 819.90 869.87 817.80 C 866.62 817.33 863.36 816.95 860.10 816.59 C 864.77 802.37 860.22 787.26 863.32 772.83 C 866.60 756.34 861.62 739.30 865.99 722.93 C 839.11 704.55 811.03 688.00 783.59 670.48 C 771.68 662.84 759.30 655.94 747.78 647.69 C 755.00 663.17 760.49 679.36 766.77 695.23 C 770.51 704.94 775.15 714.36 777.53 724.53 C 797.20 727.89 817.05 730.03 836.71 733.46 C 837.40 734.94 838.09 736.43 838.79 737.94 C 836.17 746.39 834.57 755.25 835.27 764.12 C 828.48 763.77 821.81 762.09 814.99 762.36 C 806.35 762.56 797.45 763.11 789.18 760.12 C 799.86 778.62 805.97 799.34 816.62 817.86 C 810.10 817.53 804.18 820.42 798.12 822.32 C 790.46 824.91 783.25 828.62 775.93 832.02 C 775.50 820.57 771.70 809.71 769.70 798.52 C 767.80 789.06 766.10 779.54 763.76 770.17 C 754.31 782.55 742.74 793.27 734.56 806.61 C 729.35 803.68 727.22 797.88 723.53 793.52 C 719.17 788.35 715.57 782.24 709.39 779.01 C 719.27 768.66 729.61 758.78 739.62 748.56 C 744.66 743.63 748.05 737.27 753.47 732.69 C 742.83 702.77 734.41 672.12 723.87 642.17 C 722.49 638.02 720.31 633.86 716.39 631.62 C 687.31 614.83 658.47 597.65 629.28 581.06 C 629.43 587.80 626.78 594.22 626.99 600.96 C 627.02 620.95 626.97 640.93 627.02 660.91 C 627.14 666.05 624.89 670.88 624.95 676.02 C 624.95 697.01 624.97 718.01 625.00 739.01 C 625.03 742.41 624.31 745.75 623.59 749.06 C 622.51 753.97 622.89 759.02 622.85 764.00 C 622.92 779.90 622.74 795.81 622.97 811.71 C 648.37 823.46 672.97 836.85 698.30 848.74 C 693.55 864.61 688.00 880.22 682.76 895.93 C 670.73 888.28 658.37 881.19 646.20 873.77 C 639.05 869.73 632.42 864.72 624.75 861.69 C 626.71 876.49 628.44 891.33 630.75 906.09 C 631.61 920.02 635.33 933.61 635.68 947.60 C 617.33 948.07 598.96 947.85 580.61 947.70 C 583.58 940.11 582.90 931.89 583.22 923.93 C 583.29 918.88 585.14 914.07 585.21 909.02 C 585.30 904.34 584.90 899.59 585.99 894.99 C 588.65 884.12 585.98 872.59 589.70 861.90 C 569.44 870.24 549.11 878.45 529.12 887.43 C 529.84 880.33 525.56 874.45 522.64 868.39 C 519.59 862.42 516.54 856.44 513.85 850.30 C 523.23 845.05 533.23 840.97 542.38 835.31 C 556.92 826.73 572.61 820.34 587.32 812.06 C 587.13 736.93 587.65 661.80 587.00 586.68 C 558.80 603.24 530.78 620.11 502.30 636.21 C 489.26 670.91 476.80 705.82 464.44 740.77 C 479.52 754.77 493.40 770.01 508.47 784.03 C 499.36 792.70 492.06 802.99 484.48 812.96 C 474.89 800.47 463.72 789.29 454.35 776.62 C 449.62 796.75 445.77 817.09 441.13 837.23 C 428.25 831.92 415.15 827.13 402.02 822.48 C 406.62 815.83 409.03 808.05 412.64 800.88 C 416.80 789.90 423.03 779.83 426.89 768.72 C 416.26 769.21 405.46 767.43 394.98 769.89 C 391.23 770.76 387.38 770.94 383.54 771.00 C 383.73 760.51 379.16 750.37 380.92 739.85 C 394.92 737.36 409.05 735.67 423.11 733.55 C 427.99 732.76 433.18 733.04 437.74 730.85 C 441.22 729.32 441.81 725.21 443.14 722.08 C 451.82 699.98 460.34 677.81 469.03 655.71 C 437.95 671.79 407.81 689.62 377.00 706.22 C 372.02 708.78 367.51 712.17 362.40 714.48 C 357.43 716.95 352.03 719.15 348.30 723.42 C 346.92 726.89 349.13 730.57 349.60 734.07 C 350.89 743.34 348.81 752.88 351.00 762.07 C 353.50 772.21 350.63 782.80 352.99 792.95 C 355.14 802.01 353.88 811.36 353.98 820.57 C 335.45 820.66 317.86 827.37 299.58 829.42 C 299.55 822.50 302.22 815.91 302.00 808.99 C 301.99 789.87 302.01 770.76 301.99 751.65 C 275.26 773.05 247.51 793.16 221.09 814.96 C 221.36 813.64 221.65 812.33 221.95 811.04 C 212.15 794.40 203.26 777.24 193.46 760.60 C 209.52 751.41 227.04 745.18 243.36 736.50 C 255.82 731.19 268.19 725.57 279.99 718.88 C 276.63 714.50 271.82 711.71 267.53 708.38 C 253.09 697.49 239.22 685.82 224.02 675.98 C 225.21 671.31 229.75 669.04 232.15 665.15 C 237.82 656.50 243.93 648.07 248.38 638.70 C 275.54 655.20 302.13 672.62 328.93 689.71 C 339.66 683.72 351.10 679.07 361.58 672.62 C 371.63 666.29 382.94 662.27 392.95 655.87 C 400.69 650.99 409.17 647.49 417.25 643.24 C 422.02 640.74 426.44 637.65 431.23 635.18 C 437.53 631.79 444.17 629.08 450.36 625.49 C 429.91 621.14 409.06 619.20 388.52 615.33 C 382.42 614.52 376.15 614.35 370.35 612.05 C 358.28 628.65 345.27 644.55 332.47 660.58 C 327.98 656.38 323.64 651.93 318.45 648.59 C 315.98 646.96 313.03 646.22 310.63 644.50 C 309.77 643.15 309.12 641.69 308.43 640.26 C 318.34 629.32 325.44 616.30 333.61 604.09 C 325.65 604.16 317.60 604.57 309.80 602.66 C 297.32 601.89 284.96 599.08 272.40 599.80 C 275.66 586.02 276.91 571.83 280.90 558.22 C 299.80 564.84 318.80 571.17 337.87 577.30 C 336.42 569.52 332.42 562.58 330.40 554.97 C 328.51 547.55 323.92 541.18 322.07 533.74 C 333.61 529.75 346.14 530.65 357.73 526.86 C 365.48 546.29 370.24 566.71 375.32 586.95 C 407.95 593.28 440.32 600.87 472.87 607.57 C 474.66 607.82 476.69 608.59 478.34 607.42 C 509.34 589.93 539.89 571.65 571.24 554.77 C 539.87 536.64 509.07 517.57 477.89 499.12 C 443.01 478.88 408.63 457.79 373.97 437.18 C 369.19 434.68 364.43 432.10 360.12 428.83 C 335.72 444.43 312.58 461.91 287.99 477.21 C 279.25 463.36 267.23 452.06 257.32 439.11 C 276.44 428.06 295.99 417.75 315.07 406.64 C 302.69 399.70 289.02 395.64 276.06 389.99 C 264.41 384.57 252.32 380.17 240.36 375.49 C 238.03 374.66 236.32 372.83 234.63 371.13 C 246.33 357.89 252.23 340.82 262.84 326.83 C 286.76 342.10 309.42 359.24 332.90 375.16 C 332.94 369.89 333.77 364.68 334.70 359.50 C 336.08 347.30 337.59 335.10 339.28 322.94 C 339.72 319.92 339.01 316.45 340.87 313.81 C 342.45 311.76 345.05 312.90 347.14 313.25 C 357.50 315.78 368.19 313.81 378.69 314.58 C 379.41 316.44 380.26 318.26 380.77 320.20 C 380.55 322.82 379.34 325.28 379.16 327.93 C 378.50 340.98 379.83 354.10 378.74 367.13 C 376.16 377.80 377.15 388.82 377.07 399.68 C 447.36 439.71 516.84 481.14 587.35 520.78 C 587.35 489.53 587.27 458.29 587.34 427.04 C 588.28 418.61 580.61 413.68 575.89 408.00 C 563.50 393.12 551.27 378.10 538.68 363.39 C 535.46 359.57 532.01 355.95 528.99 351.98 C 525.26 347.00 520.41 342.91 517.32 337.45 C 497.27 343.97 476.56 348.13 456.29 353.86 C 455.33 341.23 447.61 330.73 443.66 319.02 C 458.84 314.86 474.73 314.13 489.90 309.91 C 485.83 305.65 481.81 301.25 476.92 297.90 C 470.09 293.24 465.35 286.21 458.55 281.51 C 452.76 277.51 448.11 272.19 443.17 267.24 C 445.68 266.58 448.53 266.46 450.59 264.70 C 459.15 257.52 467.47 250.00 476.59 243.52 C 488.19 259.64 500.02 275.61 511.14 292.06 C 517.30 279.20 524.11 266.65 529.94 253.63 C 540.25 255.23 549.59 260.10 558.70 264.93 C 551.99 283.69 543.54 301.79 537.09 320.65 C 553.68 341.72 570.56 362.56 587.25 383.55 C 587.64 376.02 586.82 368.46 587.55 360.94 C 587.94 356.58 589.35 352.35 589.32 347.94 C 589.50 313.46 589.37 278.97 589.35 244.48 C 582.39 242.96 576.28 239.20 569.96 236.11 C 557.31 229.79 544.67 223.45 532.02 217.12 C 524.79 213.60 517.75 209.69 510.29 206.66 C 507.27 205.43 504.47 203.75 501.79 201.93 C 507.24 194.13 510.20 185.00 512.99 176.00 C 514.59 170.64 516.99 165.51 518.01 159.98 C 518.57 157.04 519.67 154.24 521.09 151.60 C 522.61 152.14 524.16 152.64 525.61 153.38 C 546.14 165.70 566.50 178.32 587.30 190.19 C 583.91 157.25 578.55 124.55 574.57 91.68 M 582.88 100.08 C 586.75 124.31 589.31 148.73 592.95 172.99 C 593.63 178.04 593.61 183.19 594.83 188.16 C 596.16 193.53 596.80 199.10 595.87 204.60 C 573.29 189.30 548.83 177.04 526.27 161.71 C 520.46 173.73 518.28 187.15 512.09 199.01 C 540.90 212.93 569.51 227.25 597.96 241.90 C 597.56 258.26 598.36 274.64 597.60 290.99 C 597.37 296.38 595.62 301.59 595.75 307.01 C 595.82 336.23 595.79 365.45 595.77 394.67 C 593.03 396.38 590.38 398.23 587.82 400.20 C 587.95 398.84 588.10 397.48 588.25 396.13 C 579.80 385.11 570.99 374.37 562.34 363.51 C 550.91 350.08 541.23 335.14 528.43 322.90 C 535.18 304.69 542.69 286.79 549.80 268.73 C 544.76 266.12 539.46 264.07 534.10 262.24 C 528.87 274.69 521.60 286.18 516.72 298.79 C 515.62 301.82 513.53 304.30 511.52 306.76 C 507.34 297.08 500.38 289.11 494.43 280.54 C 487.99 271.55 481.62 262.50 475.14 253.53 C 469.02 258.83 462.11 263.20 456.59 269.18 C 461.06 277.07 469.72 280.85 475.78 287.24 C 485.00 296.77 496.32 304.09 504.83 314.35 C 488.32 319.66 470.80 320.31 454.08 324.75 C 457.32 330.80 459.58 337.30 461.10 343.99 C 470.39 343.43 479.24 340.43 488.08 337.75 C 493.62 336.01 499.39 335.17 504.95 333.48 C 509.22 332.26 513.57 330.91 518.06 331.13 C 519.86 331.05 521.15 332.45 522.38 333.54 C 528.21 339.17 532.65 346.01 538.16 351.93 C 551.05 367.92 564.76 383.24 577.78 399.13 C 583.42 406.19 589.09 413.28 595.72 419.46 C 595.82 453.00 595.82 486.53 595.74 520.07 C 595.64 522.86 596.03 525.75 595.36 528.49 C 593.97 530.29 592.18 531.73 590.55 533.31 C 589.52 531.78 588.74 529.93 587.04 529.03 C 532.68 498.20 478.82 466.49 424.65 435.32 C 409.53 426.41 393.97 418.24 379.14 408.86 C 375.93 406.84 372.22 405.91 368.47 405.68 C 368.04 397.99 371.07 390.67 370.84 383.00 C 371.06 371.19 369.89 359.30 371.40 347.54 C 373.43 339.61 372.89 331.41 372.83 323.31 C 363.98 321.56 354.98 320.27 345.94 320.78 C 345.73 343.24 339.59 365.16 339.48 387.63 C 335.15 385.86 331.09 383.51 327.51 380.48 C 307.40 365.42 286.18 351.89 266.12 336.75 C 257.47 346.60 252.11 358.67 245.20 369.68 C 252.35 371.92 259.34 374.63 266.11 377.83 C 287.04 386.86 308.40 394.88 329.22 404.17 C 328.37 405.97 327.51 407.77 326.66 409.58 C 319.14 411.10 313.34 416.36 306.64 419.70 C 293.90 427.09 280.78 433.82 268.18 441.46 C 275.29 449.47 281.55 458.27 289.46 465.54 C 290.28 466.14 291.37 467.56 292.39 466.29 C 302.14 459.37 312.20 452.88 321.77 445.70 C 331.65 438.94 341.96 432.81 351.53 425.60 C 353.99 423.81 356.17 421.54 359.01 420.35 C 364.73 422.78 369.56 426.88 375.04 429.80 C 410.27 450.09 444.92 471.37 479.84 492.18 C 497.76 502.99 516.04 513.17 533.85 524.15 C 548.78 533.29 563.75 542.38 579.11 550.79 C 579.06 553.73 579.04 556.67 579.01 559.61 C 574.38 560.47 570.19 562.65 566.33 565.25 C 537.16 582.22 507.49 598.35 478.64 615.88 C 441.93 609.45 405.79 600.15 369.12 593.48 C 365.19 573.77 358.99 554.65 353.74 535.28 C 348.43 537.42 342.69 537.45 337.08 537.75 C 334.33 537.82 332.31 541.14 333.57 543.62 C 339.67 558.74 345.00 574.16 350.47 589.52 C 329.07 582.24 307.70 574.86 286.10 568.16 C 284.25 576.09 283.55 584.23 281.59 592.14 C 288.88 594.95 296.84 592.47 304.24 594.69 C 311.08 596.56 318.30 594.90 325.15 596.73 C 331.35 598.38 337.80 597.75 344.14 597.83 C 343.77 600.60 344.08 603.79 341.97 605.96 C 332.92 616.36 326.79 628.87 318.15 639.57 C 322.82 642.72 326.96 646.56 331.13 650.33 C 342.74 636.75 354.10 622.91 364.10 608.10 C 364.81 607.14 365.54 605.84 366.97 606.08 C 373.02 605.70 379.13 606.07 385.06 607.38 C 398.98 609.96 413.06 611.58 427.01 614.02 C 438.75 615.03 450.15 618.57 461.98 618.85 C 463.00 621.18 463.88 623.58 464.55 626.05 C 457.66 629.64 450.82 633.34 443.99 637.06 C 434.36 642.59 424.04 646.82 414.59 652.67 C 405.58 657.81 396.09 662.04 387.02 667.06 C 382.93 669.31 379.05 671.94 374.79 673.86 C 358.64 681.42 343.89 691.80 327.19 698.20 C 314.34 687.50 299.36 679.85 285.64 670.39 C 273.71 663.89 263.35 654.75 250.80 649.38 C 245.67 657.43 240.58 665.52 234.79 673.12 C 244.11 683.41 256.21 690.50 267.05 698.99 C 276.20 705.78 284.81 713.30 294.40 719.50 C 289.10 724.91 281.54 726.65 274.98 729.97 C 270.65 732.10 266.08 733.70 261.73 735.79 C 252.02 740.33 242.69 745.70 232.74 749.73 C 222.75 753.56 213.61 759.21 203.77 763.38 C 210.09 776.75 218.44 789.02 225.32 802.09 C 253.14 781.46 279.69 759.18 307.96 739.15 C 308.52 743.11 309.04 747.10 308.79 751.11 C 307.65 774.34 308.64 797.60 308.25 820.84 C 321.11 817.23 334.41 815.66 347.43 812.77 C 343.56 801.80 347.58 790.04 344.65 778.93 C 342.80 771.40 343.94 763.63 343.68 755.98 C 343.60 750.26 341.44 744.80 341.54 739.07 C 341.57 732.28 341.99 725.29 339.41 718.85 C 370.29 702.02 400.88 684.65 431.73 667.77 C 446.72 659.42 461.45 650.52 477.13 643.48 C 478.04 645.74 479.83 648.17 478.65 650.70 C 471.34 669.35 464.35 688.15 456.81 706.72 C 452.32 717.61 449.16 729.06 443.57 739.49 C 424.58 739.28 406.12 744.45 387.29 746.08 C 389.42 751.23 389.82 756.83 389.80 762.35 C 396.55 762.28 403.40 762.87 410.04 761.36 C 419.26 759.23 428.76 760.40 438.11 760.43 C 436.65 766.57 433.78 772.22 430.84 777.76 C 428.29 782.43 426.67 787.52 424.38 792.31 C 420.25 801.00 417.11 810.14 412.35 818.53 C 419.90 821.81 427.91 823.84 435.57 826.84 C 441.48 805.31 444.07 783.03 450.11 761.54 C 462.22 774.57 473.05 788.72 484.51 802.31 C 488.49 795.88 493.16 789.93 497.71 783.92 C 488.85 775.19 479.33 767.01 471.82 757.03 C 467.35 751.39 462.44 745.81 455.93 742.50 C 461.66 726.16 467.59 709.89 473.48 693.60 C 479.98 676.01 485.90 658.21 492.66 640.72 C 493.59 637.85 493.70 634.81 493.92 631.83 C 502.50 629.19 509.52 623.48 517.27 619.20 C 522.50 616.57 527.45 613.44 532.47 610.43 C 550.99 599.42 569.76 588.84 588.02 577.42 C 590.67 578.58 593.26 579.88 595.81 581.26 C 595.75 659.68 595.84 738.11 595.79 816.53 C 590.96 818.29 586.10 820.08 581.63 822.64 C 563.38 834.14 542.97 841.73 524.50 852.77 C 526.56 861.44 531.57 868.97 535.54 876.84 C 553.72 867.90 573.32 862.09 591.06 852.23 C 593.48 851.28 595.85 853.14 598.08 853.95 C 594.11 862.66 597.15 872.43 594.65 881.44 C 592.38 889.48 594.87 897.96 592.66 906.00 C 591.54 910.26 591.46 914.68 591.60 919.06 C 591.92 925.93 589.42 932.48 588.96 939.29 C 601.70 939.39 614.44 939.36 627.19 939.32 C 624.94 915.74 620.99 892.37 618.30 868.84 C 616.96 861.98 614.82 855.01 616.41 847.97 C 617.50 848.29 618.54 848.76 619.53 849.38 C 638.86 861.96 659.60 872.22 678.66 885.25 C 682.23 874.41 685.74 863.56 689.65 852.84 C 671.10 844.13 652.90 834.71 634.55 825.57 C 628.09 822.54 621.93 818.14 614.47 818.25 C 614.64 809.20 613.83 800.14 614.59 791.11 C 614.89 786.71 616.25 782.45 616.39 778.04 C 616.70 756.36 616.34 734.68 616.54 713.00 C 616.61 707.91 618.75 703.09 618.58 697.98 C 618.58 677.67 618.60 657.35 618.55 637.03 C 618.49 631.60 620.68 626.46 620.70 621.05 C 620.72 605.11 620.63 589.18 620.70 573.24 C 623.16 572.67 625.61 571.98 628.14 571.69 C 631.01 572.60 633.40 574.62 636.00 576.12 C 663.56 593.09 691.84 608.84 719.75 625.22 C 722.17 626.73 725.12 627.84 726.60 630.45 C 729.86 635.92 731.82 642.03 733.71 648.08 C 743.35 677.24 751.90 706.77 762.38 735.65 C 747.10 748.17 734.07 763.10 719.97 776.86 C 724.01 783.59 729.99 788.89 733.78 795.79 C 738.19 788.98 744.16 783.40 749.07 776.98 C 755.78 770.13 760.04 761.00 768.15 755.55 C 773.61 777.16 777.42 799.14 781.59 821.02 C 789.80 818.16 797.77 814.65 806.01 811.86 C 795.46 793.29 788.99 772.75 778.78 754.00 C 786.53 754.06 794.29 753.88 802.04 754.04 C 808.11 754.12 813.96 756.14 820.04 756.22 C 823.01 756.32 826.74 756.43 828.56 753.58 C 829.36 749.09 828.85 744.49 828.99 739.96 C 812.73 737.17 796.39 734.84 780.08 732.32 C 777.46 731.85 774.82 732.28 772.22 732.61 C 768.41 717.74 762.35 703.56 756.74 689.31 C 750.25 672.90 744.13 656.35 737.59 639.96 C 740.14 639.17 743.07 636.12 745.67 638.26 C 756.08 644.92 766.62 651.39 777.02 658.07 C 808.35 676.82 838.42 697.60 870.06 715.85 C 872.20 716.79 873.12 718.97 874.05 720.96 C 872.06 728.16 873.04 735.67 872.76 743.03 C 872.66 747.43 871.09 751.62 870.89 756.02 C 870.15 768.33 871.37 780.69 870.35 792.99 C 869.52 798.62 868.33 804.23 868.42 809.97 C 878.83 809.34 889.00 812.11 899.36 812.57 C 902.43 787.17 906.52 761.89 908.48 736.37 C 921.62 744.39 933.79 753.84 946.35 762.70 C 961.63 773.04 976.55 783.91 991.78 794.31 C 999.62 781.80 1007.40 769.23 1014.43 756.24 C 1000.74 749.63 986.20 745.07 972.45 738.61 C 953.47 731.21 934.90 722.82 915.82 715.68 C 921.13 713.19 926.37 710.53 931.37 707.45 C 950.55 695.98 970.68 686.15 989.62 674.26 C 979.63 665.48 972.47 654.04 962.61 645.13 C 945.11 657.61 927.04 669.28 909.14 681.18 C 901.65 686.30 893.92 691.09 886.90 696.86 C 885.51 698.17 883.47 698.42 881.97 697.17 C 842.42 671.64 801.53 648.28 761.44 623.64 C 758.80 621.95 755.78 621.06 752.77 620.32 C 752.49 617.79 752.20 615.26 751.92 612.74 C 784.26 607.43 816.65 602.30 849.13 597.86 C 855.61 605.70 861.65 613.89 868.21 621.66 C 873.78 628.53 878.33 636.27 884.94 642.27 C 889.53 639.48 893.87 636.26 897.77 632.56 C 889.45 618.90 879.31 606.38 872.01 592.11 C 876.08 591.66 880.15 591.12 884.15 590.21 C 890.33 588.72 896.79 590.02 902.98 588.57 C 906.93 587.61 910.98 587.32 915.04 587.37 C 921.98 587.54 928.62 585.04 935.54 584.86 C 933.67 576.79 931.66 568.73 930.80 560.47 C 912.39 567.52 893.27 572.59 874.98 579.97 C 872.26 580.99 869.34 581.28 866.49 581.67 C 872.55 564.85 878.38 547.92 885.12 531.35 C 877.56 531.69 870.29 529.29 862.81 528.82 C 859.84 538.14 857.96 547.77 854.97 557.09 C 852.42 566.93 848.56 576.49 847.62 586.68 C 819.53 589.69 792.06 596.61 764.14 600.76 C 753.77 603.66 742.19 602.51 732.81 608.53 C 718.82 596.57 701.53 589.70 686.15 579.87 C 671.40 572.13 657.24 563.35 642.53 555.58 C 639.12 553.76 636.83 550.34 636.75 546.43 C 650.82 536.93 664.79 527.27 678.99 517.94 C 708.24 498.68 737.15 478.91 766.08 459.17 C 783.94 446.95 802.23 435.39 820.06 423.13 C 834.93 413.03 849.69 402.77 864.57 392.67 C 866.87 390.84 870.06 390.89 872.41 392.65 C 893.99 406.02 915.14 420.11 936.84 433.31 C 942.00 426.17 947.19 418.99 951.58 411.34 C 932.91 398.08 914.61 384.24 897.14 369.40 C 913.20 366.26 926.45 355.95 941.70 350.57 C 954.11 344.64 966.44 338.54 979.06 333.06 C 972.68 321.96 966.59 310.69 959.75 299.88 C 956.70 302.10 953.70 304.39 950.77 306.75 C 940.85 314.93 930.20 322.15 920.22 330.24 C 908.79 339.33 897.43 348.54 885.30 356.68 C 885.01 346.78 885.16 336.87 885.13 326.96 C 885.23 321.99 884.86 316.93 885.96 312.04 C 888.09 302.49 887.10 292.65 887.15 282.96 C 876.15 285.58 864.97 287.33 854.00 290.06 C 854.24 298.31 853.25 306.69 855.16 314.81 C 857.46 324.72 854.71 335.02 857.03 344.94 C 859.25 354.50 857.85 364.36 858.14 374.06 C 842.79 384.05 827.41 394.01 812.19 404.18 C 782.89 423.48 754.30 443.82 725.00 463.11 C 690.95 485.79 656.78 508.27 623.05 531.43 C 620.85 530.38 618.65 529.35 616.45 528.31 C 616.59 488.64 616.37 448.97 616.56 409.30 C 625.10 404.51 631.27 396.67 637.14 389.04 C 642.54 382.56 649.38 377.38 654.25 370.43 C 659.44 362.98 667.11 357.73 672.42 350.38 C 678.10 342.40 685.84 336.27 692.32 329.00 C 711.19 334.15 730.06 339.33 749.05 344.06 C 751.65 337.20 753.98 330.26 756.36 323.33 C 738.83 320.24 721.18 317.79 703.74 314.25 C 711.98 308.42 718.39 300.48 726.60 294.60 C 735.52 285.33 746.38 278.16 755.02 268.60 C 748.68 262.95 741.64 258.08 735.79 251.88 C 726.48 267.82 713.62 281.35 704.35 297.32 C 702.22 301.09 699.11 304.12 695.97 307.03 C 696.35 305.60 696.76 304.18 697.18 302.77 C 696.16 302.20 695.14 301.65 694.13 301.09 C 691.23 286.42 681.49 274.52 676.41 260.68 C 671.31 263.30 666.23 266.16 660.53 267.22 C 669.09 285.18 674.47 304.44 682.93 322.44 C 673.00 330.80 666.03 341.91 657.69 351.72 C 645.09 366.96 633.45 383.00 620.23 397.73 C 618.16 396.80 616.10 395.88 614.04 394.94 C 615.22 390.74 616.52 386.48 616.49 382.07 C 616.55 368.71 616.45 355.36 616.46 342.00 C 616.35 336.23 617.95 330.63 618.26 324.89 C 619.77 308.13 617.22 291.23 619.30 274.51 C 621.89 263.82 620.25 252.81 620.65 241.96 C 635.50 231.45 652.84 225.41 668.54 216.40 C 679.32 209.70 690.85 204.32 702.34 198.95 C 697.94 189.62 692.88 180.60 688.85 171.09 C 664.74 180.61 641.35 191.94 616.92 200.65 C 618.00 195.56 619.11 190.48 620.12 185.38 C 621.18 179.65 620.35 173.81 620.76 168.04 C 621.00 163.97 622.52 160.10 622.74 156.03 C 623.07 150.35 622.35 144.55 623.88 138.99 C 626.06 131.06 623.63 122.71 625.80 114.78 C 627.04 109.97 627.06 104.97 627.00 100.04 C 612.29 100.00 597.58 99.94 582.88 100.08 Z" />
</g>
</svg>
