<?xml version="1.0" encoding="UTF-8" ?>
<!DOCTYPE svg PUBLIC "-//W3C//DTD SVG 1.1//EN" "http://www.w3.org/Graphics/SVG/1.1/DTD/svg11.dtd">
<svg width="450pt" height="450pt" viewBox="0 0 450 450" version="1.1" xmlns="http://www.w3.org/2000/svg">
<g id="#ffffffff">
</g>
<g id="#1a1a1aff">
<path fill="#1a1a1a" opacity="1.00" d=" M 196.51 38.24 C 199.48 32.17 199.90 24.59 204.93 19.66 C 205.19 20.90 205.93 22.21 205.30 23.48 C 203.30 28.71 200.84 33.75 198.72 38.93 C 198.37 39.76 197.48 41.65 196.35 40.72 C 193.24 38.17 190.88 34.82 187.96 32.05 C 185.84 29.54 182.28 27.44 182.90 23.63 C 188.63 27.22 192.53 32.92 196.51 38.24 Z" />
<path fill="#1a1a1a" opacity="1.00" d=" M 321.28 44.97 C 320.99 43.33 322.36 42.13 323.09 40.83 C 325.47 47.19 324.57 54.35 324.16 61.02 C 329.80 57.84 335.23 54.21 341.19 51.65 C 343.97 52.78 340.98 54.93 339.59 55.60 C 334.74 58.02 329.96 60.59 325.02 62.82 C 324.41 62.80 323.19 62.78 322.58 62.76 C 322.21 56.83 321.77 50.89 321.28 44.97 Z" />
<path fill="#1a1a1a" opacity="1.00" d=" M 195.77 48.89 C 196.36 47.27 196.81 45.55 197.89 44.16 C 203.18 50.72 209.18 56.68 214.62 63.11 C 215.64 65.62 213.79 67.97 212.86 70.19 C 210.16 75.40 208.35 81.10 205.05 85.98 C 200.73 82.65 197.35 78.30 193.28 74.68 C 191.28 72.53 187.90 70.44 188.67 67.04 C 190.70 60.87 193.63 55.03 195.77 48.89 M 198.28 47.80 C 196.30 53.54 194.39 59.30 192.43 65.05 C 191.13 67.94 192.60 71.23 194.84 73.20 C 198.19 76.33 201.40 79.61 204.62 82.87 C 206.45 78.45 208.71 74.22 210.70 69.87 C 211.86 67.41 211.61 64.38 209.97 62.20 C 206.23 57.28 202.31 52.49 198.28 47.80 Z" />
<path fill="#1a1a1a" opacity="1.00" d=" M 198.76 69.12 C 197.47 66.97 196.98 63.31 200.01 62.45 C 203.01 60.79 206.14 63.92 205.38 66.95 C 205.19 69.16 202.64 69.57 200.96 70.13 C 200.41 69.88 199.31 69.37 198.76 69.12 Z" />
<path fill="#1a1a1a" opacity="1.00" d=" M 317.05 67.96 C 318.46 67.02 319.96 66.22 321.66 65.95 C 322.16 73.35 321.52 80.78 322.31 88.16 C 322.87 90.92 321.22 93.68 318.66 94.72 C 313.38 97.13 308.09 99.54 302.82 101.98 C 301.94 102.27 300.85 102.59 300.02 102.04 C 298.90 98.44 299.25 94.58 298.90 90.87 C 298.74 86.69 297.71 82.51 298.43 78.34 C 304.52 74.68 311.08 71.84 317.05 67.96 M 301.94 80.15 C 299.16 86.32 301.02 93.27 302.17 99.61 C 306.85 97.53 311.81 96.00 316.17 93.26 C 317.61 92.36 319.08 90.94 319.12 89.13 C 319.37 82.51 319.16 75.89 319.28 69.27 C 313.50 72.88 307.41 76.11 301.94 80.15 Z" />
<path fill="#1a1a1a" opacity="1.00" d=" M 220.01 78.97 C 220.72 77.35 222.45 77.22 223.98 77.11 C 223.86 78.40 223.63 79.70 222.88 80.78 C 218.43 88.21 213.78 95.51 209.33 102.93 C 210.50 105.85 211.58 108.79 212.72 111.72 C 217.57 104.85 221.68 97.48 226.65 90.70 C 227.11 90.69 228.04 90.66 228.50 90.64 C 228.51 91.98 228.55 93.40 227.67 94.51 C 223.28 101.18 218.03 107.23 213.57 113.85 C 214.71 116.93 215.99 119.97 217.46 122.92 C 223.10 116.20 225.19 107.05 231.84 101.13 C 232.22 101.85 232.98 103.30 233.36 104.02 C 229.02 110.68 223.61 116.60 219.52 123.44 C 217.32 126.63 220.81 129.93 221.40 133.13 C 224.84 127.69 228.24 122.21 231.93 116.93 C 232.73 115.44 234.56 115.90 235.89 116.18 C 235.53 117.54 235.07 118.90 234.18 120.01 C 230.45 125.20 226.40 130.14 222.37 135.09 C 223.07 137.63 223.95 140.15 225.32 142.41 C 229.17 136.86 232.42 130.87 236.73 125.65 C 237.48 124.16 240.45 123.46 240.11 125.97 C 236.72 133.15 229.20 137.47 226.23 144.89 C 227.25 146.94 228.26 148.98 229.27 151.03 C 232.87 146.82 235.76 142.06 238.57 137.30 C 239.93 137.21 241.31 137.20 242.59 137.76 C 239.77 143.92 234.39 148.38 230.48 153.82 C 233.29 160.05 236.01 166.35 239.07 172.45 C 243.54 167.40 248.33 162.64 253.27 158.05 C 251.26 152.33 249.08 146.68 247.17 140.92 C 247.59 139.96 248.02 138.99 248.45 138.03 C 249.58 138.53 250.90 139.12 251.14 140.50 C 252.44 145.58 253.41 150.78 255.25 155.72 C 256.90 153.89 259.26 152.53 260.30 150.24 C 259.60 142.26 254.08 135.59 253.58 127.59 C 254.15 127.46 255.30 127.21 255.87 127.08 C 259.07 133.92 259.81 141.57 262.12 148.71 C 263.71 147.09 265.42 145.58 266.89 143.85 C 267.56 142.21 266.55 140.54 266.12 138.99 C 264.21 133.91 262.53 128.73 260.43 123.75 C 260.16 123.72 259.62 123.65 259.36 123.61 C 260.40 122.69 261.18 121.51 261.96 120.36 C 264.19 121.40 264.77 123.91 265.46 126.03 C 266.75 131.00 267.60 136.07 268.49 141.11 C 270.64 139.72 272.35 137.77 273.79 135.67 C 276.34 132.22 280.37 129.82 282.32 126.00 C 281.25 118.55 277.99 111.52 276.16 104.20 C 275.49 102.56 275.82 100.86 276.22 99.22 C 276.73 99.32 277.76 99.52 278.28 99.62 C 281.09 107.56 281.60 116.08 284.28 124.06 C 286.40 121.85 288.73 119.76 290.30 117.09 C 289.63 107.26 285.23 97.89 285.11 88.01 C 287.25 88.14 288.78 89.81 288.89 91.94 C 290.12 100.14 290.68 108.44 292.16 116.62 C 299.88 113.65 307.45 110.31 315.14 107.28 C 317.02 106.35 319.73 106.33 320.38 108.81 C 317.58 110.28 314.40 110.91 311.73 112.58 C 311.67 112.86 311.56 113.41 311.51 113.69 C 311.30 113.41 310.90 112.86 310.70 112.58 C 305.69 114.36 300.55 115.70 295.49 117.30 C 291.12 118.61 291.04 123.79 289.54 127.32 C 295.11 125.71 300.73 124.23 306.13 122.10 C 308.77 121.22 311.54 119.69 314.39 120.62 C 315.46 122.14 313.90 123.37 312.50 123.66 C 305.66 125.88 298.51 126.93 291.56 128.74 C 286.77 129.58 287.50 135.68 285.65 139.11 C 292.58 137.31 299.10 134.31 305.89 132.10 C 307.57 131.37 309.34 131.89 311.03 132.28 C 310.62 134.68 308.14 135.45 306.12 136.09 C 299.93 137.71 293.62 138.84 287.50 140.70 C 283.62 141.51 283.80 146.30 282.46 149.25 C 288.68 147.40 294.84 145.31 301.13 143.71 C 302.49 143.14 303.92 144.58 303.92 145.89 C 302.91 146.98 301.33 147.07 300.00 147.50 C 293.83 149.01 287.42 149.83 281.45 151.98 C 280.69 153.73 280.15 155.55 279.38 157.29 C 279.29 158.72 279.28 160.15 279.13 161.57 C 277.47 163.47 277.49 166.17 276.83 168.49 C 282.29 167.15 287.48 164.66 293.10 164.01 C 295.31 163.41 296.52 166.64 294.14 167.30 C 288.49 168.93 282.62 169.67 276.86 170.78 C 276.48 171.06 275.71 171.62 275.33 171.90 C 273.72 178.17 272.48 184.53 270.37 190.66 C 276.79 189.97 283.23 189.53 289.68 189.32 C 289.31 189.76 288.57 190.64 288.20 191.09 C 283.87 191.11 279.63 192.27 275.29 192.14 C 275.35 192.79 275.45 194.09 275.50 194.74 C 275.18 193.91 274.88 193.08 274.61 192.25 C 273.91 192.42 272.53 192.77 271.83 192.94 C 273.98 197.30 276.64 201.36 279.00 205.60 C 297.59 198.73 316.46 192.55 334.92 185.37 C 326.15 186.75 317.27 187.38 308.49 188.73 C 307.62 187.06 309.41 186.40 310.92 186.62 C 314.16 179.84 315.58 172.08 319.98 165.94 C 320.47 165.92 321.44 165.86 321.93 165.84 C 322.51 168.41 321.09 170.89 320.14 173.20 C 317.94 177.43 315.83 181.72 313.35 185.80 C 315.47 185.72 317.59 185.50 319.72 185.59 C 320.53 185.07 321.31 184.50 322.06 183.89 C 326.03 176.63 328.00 168.28 332.73 161.46 C 333.42 161.44 334.79 161.39 335.48 161.36 C 334.50 166.82 330.70 171.16 328.51 176.15 C 328.88 176.18 329.61 176.24 329.97 176.27 C 329.56 176.32 328.74 176.42 328.32 176.47 C 326.66 179.06 325.27 181.82 323.92 184.59 C 327.19 183.90 330.99 184.63 333.97 183.07 C 337.71 175.34 340.46 167.12 344.61 159.58 C 345.33 157.72 347.06 159.34 348.04 159.98 C 344.13 167.69 339.95 175.25 336.07 182.98 C 339.27 182.34 342.78 182.56 345.74 181.09 C 350.39 173.19 354.20 164.80 358.87 156.90 C 359.38 156.73 360.40 156.39 360.91 156.21 C 361.26 157.87 361.49 159.61 360.47 161.09 C 356.37 168.36 351.44 175.12 347.22 182.32 C 354.80 184.73 362.42 187.01 369.99 189.46 C 371.78 190.00 373.20 191.23 374.55 192.46 C 374.26 193.05 373.96 193.64 373.68 194.24 C 364.71 192.09 356.51 187.63 348.00 184.22 C 344.25 183.92 341.42 186.99 338.28 188.55 C 345.92 192.27 353.84 195.34 361.68 198.61 C 361.67 199.19 361.66 200.37 361.65 200.95 C 361.02 200.93 359.75 200.88 359.12 200.85 C 351.57 198.04 344.77 193.63 337.40 190.45 C 336.28 189.75 335.21 190.59 334.24 191.10 C 331.92 192.38 329.77 193.93 327.61 195.45 C 334.86 198.19 342.26 200.59 349.32 203.79 C 350.78 204.10 350.78 205.54 350.99 206.73 C 349.50 207.09 347.89 207.41 346.50 206.57 C 340.17 203.74 334.17 200.22 327.87 197.34 C 324.42 195.62 321.90 199.93 318.81 200.76 C 324.22 203.72 330.41 205.25 335.95 208.07 C 337.43 208.81 337.84 210.54 338.62 211.87 C 335.28 212.62 332.32 210.70 329.50 209.23 C 325.30 206.75 321.01 204.45 316.74 202.12 C 314.32 203.23 311.97 204.56 310.09 206.47 C 316.29 209.00 322.57 211.47 328.47 214.64 C 330.00 215.20 331.85 217.83 329.28 218.33 C 321.86 216.12 316.41 209.91 308.89 208.05 C 306.15 208.18 304.12 210.65 302.02 212.21 C 307.07 214.38 312.43 215.94 317.19 218.73 C 318.77 219.16 319.22 222.72 316.99 222.25 C 310.47 220.76 305.42 215.45 299.18 213.48 C 294.49 217.59 289.18 220.87 283.92 224.18 C 282.25 224.65 284.01 225.95 284.71 226.24 C 289.03 228.82 293.18 231.69 297.04 234.93 C 298.10 235.75 299.61 237.05 300.95 235.92 C 305.58 233.28 310.09 230.40 314.87 228.05 C 315.76 227.99 317.54 227.88 318.44 227.82 C 318.12 229.13 318.05 230.85 316.61 231.50 C 311.90 233.81 306.94 235.59 302.26 237.96 C 304.24 239.24 305.76 241.41 308.09 242.05 C 315.43 240.55 321.03 234.93 327.86 232.20 C 328.60 232.26 330.09 232.38 330.84 232.44 C 329.09 235.74 325.37 236.82 322.19 238.25 C 318.08 239.87 314.12 241.86 309.98 243.41 C 312.00 245.24 314.32 246.70 316.79 247.86 C 323.67 244.19 330.21 239.70 337.69 237.29 C 337.82 238.48 338.28 240.18 337.07 240.99 C 333.98 242.76 330.55 243.86 327.29 245.29 C 327.36 245.69 327.50 246.51 327.57 246.92 C 327.50 246.54 327.34 245.80 327.26 245.42 C 324.74 246.88 321.09 247.20 319.20 249.35 C 321.86 250.88 324.81 254.09 328.10 252.36 C 334.90 249.61 341.30 246.02 347.90 242.84 C 349.87 242.24 351.24 243.47 350.92 245.43 C 343.40 249.04 335.36 251.36 327.71 254.65 C 330.48 256.39 333.17 258.25 335.92 260.02 C 337.86 259.40 339.73 258.59 341.44 257.46 C 341.61 258.22 341.64 259.01 341.64 259.79 C 340.90 260.15 339.43 260.88 338.69 261.24 C 341.14 263.22 343.85 265.43 347.04 265.87 C 354.94 263.30 362.45 259.68 370.14 256.57 C 372.11 255.61 374.19 256.56 375.89 257.63 C 375.39 257.54 374.40 257.37 373.91 257.28 C 373.53 258.67 372.56 259.67 371.14 259.95 C 363.23 262.69 355.27 265.33 347.20 267.56 C 350.71 273.89 354.72 279.94 358.72 285.97 C 360.27 288.28 361.62 290.87 361.31 293.75 C 359.71 293.53 358.32 292.81 357.72 291.26 C 354.68 285.71 351.55 280.19 348.76 274.51 C 347.74 272.51 347.31 269.94 345.21 268.74 C 342.32 267.53 339.15 267.29 336.06 267.13 C 339.93 274.21 343.56 281.42 347.36 288.54 C 348.42 289.88 346.58 290.97 345.92 291.86 C 340.29 284.29 338.40 274.60 333.65 266.57 C 330.46 265.82 327.15 265.80 323.92 265.28 C 326.35 270.62 329.53 275.57 332.56 280.58 C 333.89 283.03 335.47 285.60 335.32 288.50 C 333.67 289.59 332.28 288.12 331.63 286.77 C 327.72 279.96 325.71 272.21 321.64 265.50 C 319.18 263.95 316.09 264.58 313.35 263.99 C 315.98 269.14 319.02 274.10 321.38 279.39 C 322.29 281.07 321.82 282.97 321.40 284.72 C 318.30 283.43 317.93 279.75 316.61 277.06 C 314.65 272.50 313.09 267.72 310.72 263.37 C 308.28 262.68 305.73 262.59 303.24 262.23 C 306.12 268.47 309.61 274.43 312.23 280.79 C 313.24 282.35 311.96 283.79 311.03 284.97 C 306.39 278.75 305.86 270.58 302.00 263.94 C 300.18 261.37 296.52 261.95 293.78 261.66 C 295.71 266.98 299.00 271.70 300.73 277.11 C 301.16 279.11 298.87 280.34 297.59 278.65 C 295.25 272.90 293.54 266.88 290.73 261.34 C 284.16 259.60 277.11 260.36 270.38 259.25 C 272.67 265.56 274.01 272.20 275.69 278.61 C 281.57 280.55 288.06 280.49 293.95 282.55 C 294.41 283.01 295.34 283.94 295.81 284.40 C 294.60 285.03 293.51 286.46 291.97 286.02 C 286.77 284.77 281.79 282.74 276.64 281.32 C 277.32 283.59 277.97 285.88 278.49 288.20 C 285.41 292.60 294.24 290.71 301.53 294.01 C 301.53 294.60 301.53 295.79 301.53 296.38 C 293.77 296.32 286.59 292.72 279.13 290.99 C 279.94 293.55 280.17 296.68 282.35 298.54 C 289.48 300.79 297.08 301.22 304.12 303.82 C 303.08 307.91 298.68 305.50 295.95 304.94 C 292.39 304.29 288.98 301.72 285.32 302.48 C 284.71 301.38 283.76 300.79 282.49 300.73 C 283.17 303.37 283.97 306.01 285.18 308.47 C 293.00 311.26 301.21 312.89 309.31 314.72 C 309.80 315.69 310.31 316.67 310.80 317.65 C 310.08 317.79 308.63 318.05 307.91 318.19 C 300.38 316.22 293.27 312.94 285.79 310.81 C 286.61 313.79 287.35 316.81 288.49 319.70 C 289.17 321.31 291.49 320.82 292.79 321.52 C 292.97 321.22 293.33 320.61 293.50 320.30 C 293.29 322.20 295.64 322.14 296.94 322.57 C 302.76 323.90 308.67 324.87 314.34 326.82 C 314.47 327.75 314.60 328.69 314.74 329.64 C 305.92 329.24 298.06 324.62 289.64 322.43 C 290.79 325.51 291.11 329.17 293.10 331.81 C 302.11 335.14 311.68 337.01 320.38 341.18 C 319.64 342.93 317.81 344.07 315.98 343.03 C 308.01 339.89 300.17 336.41 292.17 333.33 C 290.99 341.24 289.96 349.18 288.84 357.10 C 288.76 359.35 287.39 361.17 285.88 362.70 C 283.68 358.88 286.02 354.67 286.59 350.74 C 287.78 344.55 290.12 338.52 290.24 332.17 C 287.66 329.72 285.32 327.00 282.30 325.07 C 282.18 321.21 277.82 319.21 275.66 316.38 C 274.08 324.00 273.59 331.89 271.28 339.34 C 270.62 342.23 266.81 340.59 267.95 338.00 C 270.12 330.39 272.54 322.81 273.89 314.99 C 273.46 312.32 270.61 310.72 268.71 308.97 C 267.18 314.98 266.00 321.07 264.35 327.04 C 264.01 328.18 262.77 328.72 262.07 329.59 C 261.04 328.87 260.39 327.77 260.89 326.54 C 262.70 320.50 264.96 314.59 266.70 308.52 C 267.91 305.15 263.86 303.33 261.98 301.30 C 260.35 307.86 258.77 314.46 256.87 320.95 C 256.65 322.72 254.88 322.69 253.51 322.66 C 254.07 314.54 259.22 307.68 260.55 299.69 C 258.92 297.80 257.16 296.03 255.34 294.33 C 252.29 299.72 253.51 306.60 249.93 311.71 C 247.98 312.54 246.94 309.92 247.52 308.44 C 249.16 303.55 250.90 298.67 253.02 293.96 C 248.25 288.80 243.51 283.58 238.36 278.81 C 235.69 284.59 233.09 290.40 230.43 296.18 C 233.35 300.05 236.18 304.02 239.69 307.39 C 241.15 308.72 241.94 310.53 242.45 312.41 C 241.22 312.75 239.57 313.79 238.73 312.19 C 235.42 307.98 232.54 303.42 229.60 298.94 C 228.34 300.86 226.90 302.72 226.16 304.93 C 228.34 310.22 232.64 314.25 236.29 318.54 C 238.01 320.65 241.01 322.80 239.84 325.91 C 235.79 325.21 234.57 320.63 232.19 317.87 C 229.60 314.76 227.94 310.61 225.00 308.01 C 223.42 310.04 222.98 312.68 222.35 315.11 C 225.87 319.72 229.59 324.17 233.42 328.53 C 234.71 329.94 235.51 331.70 235.63 333.62 C 234.97 333.90 234.31 334.18 233.66 334.47 C 228.42 329.49 225.54 322.72 221.38 316.93 C 220.56 319.58 218.45 322.14 218.73 324.95 C 222.53 331.96 228.06 337.86 232.50 344.45 C 233.20 345.70 233.01 348.19 231.07 347.99 C 229.61 347.11 228.82 345.54 227.92 344.18 C 224.43 338.40 221.08 332.55 217.62 326.75 C 216.07 329.83 214.58 332.96 213.50 336.25 C 217.83 342.03 222.20 347.79 226.54 353.56 C 227.64 355.24 229.56 357.28 228.20 359.36 C 226.58 359.67 225.82 357.95 224.92 356.99 C 220.62 350.86 216.90 344.35 212.73 338.14 C 211.65 341.10 210.53 344.06 209.31 346.97 C 214.18 355.41 219.93 363.37 224.29 372.09 C 222.83 373.56 220.83 372.48 219.96 370.97 C 217.85 367.59 216.19 363.97 214.34 360.45 C 212.13 356.39 210.17 352.20 207.96 348.14 C 201.49 353.88 195.17 359.79 188.57 365.38 C 187.67 366.41 184.43 367.27 184.72 364.97 C 185.42 363.32 186.93 362.27 188.27 361.18 C 193.70 356.98 198.97 352.56 204.60 348.62 C 205.58 347.96 206.29 347.00 207.04 346.10 C 206.80 343.18 206.77 340.24 206.96 337.31 C 201.39 340.73 196.33 344.89 191.45 349.21 C 189.63 350.39 187.46 352.62 185.15 351.74 C 184.07 349.81 186.42 348.68 187.58 347.62 C 193.10 343.67 198.94 340.18 204.57 336.39 C 208.51 334.22 206.42 328.88 206.20 325.33 C 206.05 325.29 205.76 325.20 205.62 325.16 C 199.85 329.81 194.12 334.54 188.25 339.07 C 187.12 340.05 184.60 340.11 185.05 338.01 C 185.54 336.03 187.61 335.27 189.09 334.18 C 194.17 330.83 199.40 327.66 204.23 323.96 C 207.51 321.68 205.65 317.35 205.91 314.08 C 200.89 318.07 195.78 321.98 190.47 325.59 C 188.84 326.66 187.14 326.08 186.71 324.16 C 193.03 319.89 199.52 315.88 205.92 311.71 C 205.93 309.11 205.86 306.51 205.73 303.92 C 199.45 308.41 193.58 313.60 186.54 316.92 C 186.23 316.01 185.90 315.12 185.55 314.24 C 191.91 310.01 199.24 307.16 204.94 301.97 C 206.18 299.75 204.65 296.85 204.81 294.37 C 200.01 297.27 195.63 300.80 191.19 304.21 C 190.41 304.05 188.85 303.72 188.08 303.56 C 188.45 302.57 188.40 301.21 189.47 300.65 C 194.13 297.46 199.27 295.06 203.93 291.86 C 205.46 291.13 204.64 289.18 204.71 287.89 C 203.90 282.33 203.75 276.69 202.93 271.13 C 199.07 272.88 195.44 275.09 191.51 276.70 C 189.06 277.73 186.49 278.56 184.35 280.19 C 184.44 286.12 184.64 292.08 184.27 298.00 C 183.91 300.33 180.75 300.36 180.36 298.03 C 180.69 292.47 181.62 286.95 182.24 281.42 C 179.68 282.27 177.14 283.29 175.01 285.00 C 175.19 292.51 174.47 300.00 174.28 307.51 C 173.62 307.91 172.97 308.32 172.31 308.73 C 170.77 306.41 171.36 303.61 171.53 301.03 C 172.07 295.78 172.62 290.54 173.20 285.30 C 170.91 286.37 168.64 287.49 166.43 288.71 C 166.15 293.80 166.08 298.91 166.03 304.01 C 165.92 306.61 166.01 309.36 164.81 311.75 C 162.57 312.60 161.89 309.68 162.01 308.06 C 162.36 302.04 163.45 296.08 164.36 290.12 C 161.91 291.37 159.49 292.67 157.11 294.03 C 155.78 301.64 155.84 309.38 155.26 317.06 C 155.21 318.16 154.66 319.14 154.29 320.16 C 153.75 320.28 152.67 320.52 152.12 320.64 C 151.10 318.48 151.60 316.07 151.90 313.81 C 152.91 307.61 154.02 301.44 154.98 295.23 L 152.57 296.20 C 152.49 296.64 152.33 297.52 152.25 297.96 C 152.27 297.58 152.29 296.82 152.30 296.43 C 150.08 297.52 147.89 298.65 145.74 299.88 C 145.31 308.29 145.08 316.74 143.92 325.08 C 143.94 326.68 142.43 326.87 141.22 327.06 C 140.19 322.24 142.04 317.58 142.57 312.84 C 143.02 308.90 143.47 304.95 143.90 301.01 C 141.03 302.45 137.86 303.53 135.51 305.80 C 134.01 313.10 133.43 320.55 132.35 327.92 C 132.00 330.09 132.25 332.81 130.02 334.08 C 128.02 333.20 128.21 330.86 128.68 329.15 C 130.45 321.27 132.06 313.36 133.84 305.50 C 124.82 305.13 115.83 306.49 106.82 306.18 C 105.16 306.03 103.65 303.63 105.90 302.99 C 114.93 302.38 123.95 303.68 132.97 303.62 C 135.93 301.99 137.71 298.89 139.91 296.41 C 133.02 295.66 126.07 295.35 119.15 295.62 C 117.34 295.58 113.56 295.06 114.36 292.47 C 119.89 291.49 125.51 293.04 131.06 293.34 C 134.68 293.47 138.49 294.88 142.02 293.68 C 144.09 291.39 145.78 288.78 147.68 286.35 C 141.15 285.88 134.60 286.07 128.06 286.37 C 125.71 286.14 121.73 286.27 121.96 282.90 C 123.58 282.54 125.23 282.00 126.91 282.29 C 133.94 283.05 140.91 284.53 147.99 284.62 C 150.78 283.38 152.14 280.37 153.93 278.07 C 147.92 277.64 141.92 276.96 135.89 277.13 C 133.63 277.11 131.59 275.65 132.63 273.08 C 134.17 273.90 135.80 274.81 137.50 273.89 C 143.69 274.17 149.82 276.36 156.00 275.95 C 157.76 274.16 159.14 272.05 160.58 270.01 C 155.43 269.73 150.29 269.25 145.14 269.02 C 142.53 268.87 139.77 268.84 137.45 267.46 C 136.69 265.87 138.91 265.46 140.00 265.28 C 147.27 266.30 154.49 267.96 161.87 268.02 C 163.12 266.11 164.41 264.23 165.71 262.37 C 160.60 260.97 155.23 261.47 150.00 261.00 C 148.99 260.29 148.03 259.53 147.12 258.70 C 148.01 258.05 148.94 257.46 149.90 256.94 C 155.90 257.40 161.76 260.35 167.81 259.52 C 171.63 254.35 175.33 249.07 179.01 243.80 L 178.92 243.05 C 172.55 241.58 166.19 240.01 160.00 237.87 C 155.80 242.47 152.07 247.49 147.72 251.94 C 146.14 253.78 144.02 252.02 144.52 249.97 C 148.16 245.37 152.72 241.60 157.05 237.69 C 154.75 236.87 152.40 236.17 150.03 235.56 C 145.30 238.69 142.36 243.61 138.86 247.91 C 136.96 249.89 135.16 252.49 132.21 252.81 C 132.22 251.44 132.19 249.94 133.32 248.95 C 137.76 243.91 142.79 239.42 147.77 234.91 C 145.44 234.40 143.13 233.77 140.86 233.05 C 135.12 237.92 130.97 244.41 125.31 249.40 C 124.77 249.47 123.68 249.60 123.13 249.67 C 123.11 248.36 122.69 246.80 123.72 245.75 C 128.03 241.17 133.11 237.38 137.51 232.89 C 134.36 232.44 130.43 229.70 127.82 232.71 C 122.67 237.61 118.19 243.17 113.00 248.02 C 112.06 249.22 110.51 249.34 109.20 248.71 C 108.72 246.54 110.74 245.23 112.03 243.88 C 116.99 239.39 122.24 235.24 127.28 230.86 C 124.14 229.77 120.87 229.14 117.64 228.39 C 110.75 234.60 105.50 242.64 97.66 247.76 C 97.51 247.12 97.22 245.83 97.07 245.19 C 102.33 238.82 109.52 234.32 114.85 228.03 C 111.95 227.39 109.04 226.76 106.12 226.29 C 103.86 227.46 102.13 229.38 100.23 231.01 C 95.52 235.46 90.53 239.61 85.87 244.10 C 85.12 244.26 83.62 244.59 82.87 244.76 C 83.01 243.92 83.30 242.26 83.45 241.42 C 90.43 235.94 97.42 230.46 104.46 225.04 C 98.10 219.54 91.12 214.82 84.57 209.57 C 82.97 208.64 83.21 206.73 83.11 205.16 C 84.24 205.49 85.55 205.51 86.46 206.38 C 93.03 211.83 98.81 218.20 105.54 223.44 C 108.65 223.86 111.86 222.37 114.97 221.86 C 109.15 215.60 102.10 210.55 96.54 204.09 C 96.96 203.59 97.78 202.58 98.19 202.08 C 105.21 207.93 110.98 215.12 117.51 221.50 C 120.71 220.76 123.93 220.11 127.15 219.42 C 122.23 214.14 116.32 209.91 110.99 205.07 C 109.80 203.97 108.38 202.69 108.91 200.87 C 111.85 199.64 113.92 202.52 115.63 204.40 C 119.92 208.82 123.88 213.59 128.41 217.77 C 131.25 219.70 134.52 217.02 137.54 217.05 C 133.06 212.55 128.11 208.54 123.66 204.02 C 122.34 202.88 123.25 201.18 123.73 199.89 C 129.92 204.63 134.41 211.22 140.08 216.54 C 142.56 216.83 144.98 215.66 147.37 215.16 C 143.95 211.09 139.76 207.76 136.00 204.02 C 134.11 202.17 131.92 200.04 132.09 197.17 C 133.48 197.40 135.03 197.59 135.87 198.90 C 140.40 204.22 144.56 209.91 149.99 214.39 C 152.32 213.77 154.65 213.16 157.00 212.60 C 153.54 208.54 149.43 205.13 145.66 201.39 C 144.12 200.33 144.94 198.55 145.39 197.19 C 148.39 198.04 150.02 200.83 152.04 202.98 C 154.78 205.95 157.14 209.25 159.99 212.13 C 166.24 209.48 173.00 208.60 179.50 206.76 C 176.21 202.04 172.72 197.45 169.68 192.56 C 168.86 191.33 167.79 189.54 166.00 190.06 C 160.98 190.67 156.05 191.83 151.11 192.88 C 149.40 193.70 148.10 192.23 146.99 191.20 C 148.01 190.21 148.95 188.79 150.56 188.84 C 155.52 188.36 160.51 188.34 165.48 188.08 C 164.65 185.93 163.50 183.87 161.85 182.25 C 159.72 181.53 157.09 181.54 155.01 182.36 C 154.91 182.66 154.70 183.27 154.59 183.58 C 154.44 183.43 154.13 183.13 153.97 182.98 C 148.65 181.81 142.17 186.97 137.22 183.22 C 138.33 182.50 139.42 181.52 140.83 181.46 C 147.32 180.49 153.89 180.13 160.44 179.94 C 158.98 177.88 157.60 175.75 155.96 173.83 C 149.27 174.28 142.73 175.98 136.05 176.60 C 134.48 177.00 132.97 176.27 131.96 175.09 C 133.55 172.87 136.50 172.84 138.95 172.47 C 143.92 172.20 148.93 172.56 153.88 171.78 C 152.43 169.59 150.77 167.56 149.04 165.59 C 141.32 165.46 133.73 167.17 126.06 167.75 C 124.09 168.18 120.91 167.14 122.57 164.55 C 130.74 163.16 139.08 164.58 147.29 163.57 C 145.63 160.63 143.52 157.99 141.35 155.42 C 132.26 155.79 123.31 158.57 114.21 157.83 C 114.26 157.22 114.38 156.01 114.44 155.41 C 116.92 154.82 119.45 154.24 122.02 154.43 C 127.92 154.72 133.82 154.27 139.67 153.51 C 137.96 150.98 136.07 148.59 134.06 146.30 C 127.02 146.35 119.98 146.37 112.97 147.04 C 109.98 147.27 106.85 147.65 104.10 146.17 C 105.06 144.82 106.16 143.33 108.07 143.77 C 116.56 144.23 125.07 144.63 133.58 144.43 C 132.30 135.85 130.10 127.45 128.33 118.97 C 128.68 117.74 129.11 116.53 129.63 115.36 C 130.26 115.87 131.43 115.97 131.54 116.94 C 133.33 125.87 133.77 135.02 135.45 143.97 C 137.77 146.25 141.11 147.21 143.79 149.05 C 143.26 142.85 142.70 136.63 141.26 130.56 C 140.57 127.84 140.55 124.97 141.69 122.37 C 142.64 123.03 144.12 123.47 144.11 124.89 C 145.60 133.02 144.65 141.38 145.76 149.54 C 148.03 152.09 151.80 153.05 154.75 154.77 C 154.36 147.09 151.98 139.70 151.14 132.10 C 151.42 131.31 151.97 129.74 152.25 128.96 C 153.53 129.61 155.26 130.38 155.28 132.08 C 155.72 140.05 155.26 148.17 157.25 155.99 C 159.36 157.50 161.79 158.50 164.05 159.77 C 164.01 152.64 161.87 145.65 162.32 138.53 C 163.14 138.17 163.95 137.82 164.77 137.47 C 167.01 145.08 165.50 153.13 165.78 160.93 C 168.30 162.26 170.84 163.56 173.39 164.84 C 172.54 158.22 171.84 151.58 171.32 144.92 C 171.15 143.51 171.48 142.22 172.30 141.03 C 174.15 141.20 174.68 143.27 174.81 144.80 C 174.98 151.69 174.44 158.70 175.48 165.51 C 177.61 166.86 180.03 167.65 182.33 168.67 C 181.79 162.78 180.07 156.91 180.73 150.98 C 181.50 148.73 184.31 149.95 184.07 151.99 C 184.68 157.63 184.31 163.31 184.47 168.96 C 184.43 170.47 186.10 171.08 187.23 171.63 C 192.55 173.92 197.86 176.23 203.04 178.84 C 203.58 173.58 203.86 168.29 204.62 163.06 C 204.74 161.54 205.05 159.91 204.48 158.44 C 199.59 155.24 194.39 152.52 189.41 149.47 C 188.37 148.74 188.59 147.24 188.17 146.17 C 188.89 146.13 190.34 146.05 191.06 146.00 C 195.76 149.02 199.93 152.84 204.88 155.52 C 204.61 153.03 205.76 150.48 205.10 148.07 C 199.64 142.73 191.89 140.66 186.00 135.89 C 185.90 135.21 185.69 133.86 185.59 133.19 C 193.24 135.68 199.28 141.37 205.67 146.05 C 205.84 143.39 205.99 140.72 205.86 138.05 C 201.43 135.60 197.20 132.82 192.84 130.26 C 190.57 128.74 187.66 127.37 187.03 124.44 C 188.21 124.38 189.38 124.32 190.57 124.27 C 195.80 128.07 200.85 132.12 206.09 135.90 C 206.09 133.32 206.46 130.67 205.80 128.13 C 204.22 125.51 201.30 124.13 198.91 122.37 C 194.53 119.67 190.38 116.60 185.93 114.03 C 184.75 112.60 184.32 110.85 185.86 109.49 C 193.01 113.95 199.31 119.58 205.70 125.04 C 206.79 122.51 206.83 119.72 206.88 117.02 C 206.95 114.51 204.20 113.54 202.55 112.23 C 196.71 108.19 190.24 104.92 185.01 100.09 C 183.79 96.89 187.33 97.90 188.81 99.01 C 195.08 103.19 200.77 108.16 206.83 112.63 C 206.49 108.88 208.59 103.68 204.65 101.29 C 198.29 95.96 191.33 91.34 185.16 85.80 C 184.28 83.74 187.22 83.11 188.38 84.32 C 195.23 89.69 201.22 96.08 207.89 101.68 C 212.22 94.26 215.63 86.35 220.01 78.97 M 208.47 120.99 C 207.63 140.03 206.59 159.06 205.14 178.07 C 209.63 176.20 214.50 175.09 218.84 173.02 C 215.87 153.63 212.46 134.31 209.29 114.96 C 208.16 116.75 208.69 118.99 208.47 120.99 M 211.29 114.83 C 214.35 134.05 218.54 153.08 222.01 172.22 C 226.71 172.80 231.64 172.06 236.43 172.36 C 228.00 153.20 219.91 133.88 211.29 114.83 M 241.12 173.29 C 245.57 175.17 250.26 176.43 254.58 178.58 C 264.18 163.36 272.75 147.48 282.15 132.12 C 282.99 130.84 283.58 129.41 284.09 127.97 C 269.82 143.13 255.51 158.25 241.12 173.29 M 257.28 179.52 C 260.86 182.96 264.87 185.90 268.60 189.17 C 274.53 168.78 280.91 148.51 286.60 128.05 C 276.99 145.29 267.25 162.48 257.28 179.52 M 145.46 152.37 C 145.17 152.90 144.58 153.94 144.28 154.46 L 145.42 152.99 C 160.25 165.36 175.19 177.57 190.01 189.95 C 193.40 186.41 197.61 183.78 201.04 180.28 C 182.49 171.02 163.83 161.99 145.46 152.37 M 143.00 153.29 C 147.67 160.60 153.41 167.18 158.18 174.43 C 158.89 174.42 160.33 174.40 161.04 174.39 C 160.50 174.89 159.96 175.40 159.42 175.92 C 166.66 185.68 174.07 195.32 181.05 205.27 C 182.33 200.35 186.23 196.43 187.98 191.61 C 185.80 189.97 183.70 188.26 181.65 186.48 C 169.31 175.67 156.50 165.41 144.28 154.46 C 143.96 154.17 143.32 153.58 143.00 153.29 M 222.54 175.41 C 223.69 184.20 225.34 192.91 226.70 201.66 C 231.06 202.64 235.65 202.41 239.85 204.16 C 244.60 196.58 248.81 188.68 253.42 181.03 C 244.09 175.82 233.12 173.84 222.54 175.41 M 205.85 180.88 C 200.59 183.52 196.37 187.70 192.02 191.56 C 196.99 195.58 201.73 199.88 206.64 203.97 C 208.84 205.73 210.74 207.98 213.40 209.09 C 216.06 205.82 219.92 203.98 223.80 202.57 C 224.40 198.84 223.21 195.17 222.56 191.53 C 221.45 186.33 220.83 181.00 219.25 175.91 C 214.69 177.31 210.08 178.65 205.85 180.88 M 255.93 182.44 C 251.66 189.69 247.28 196.90 243.16 204.24 C 242.13 205.87 244.06 207.12 245.04 208.11 C 247.56 210.18 249.24 213.01 250.61 215.92 C 259.12 212.95 267.47 209.56 276.00 206.65 C 272.49 196.51 265.00 188.04 255.93 182.44 M 331.84 188.83 C 314.58 195.31 297.26 201.65 280.00 208.11 C 280.72 212.98 281.63 217.82 282.51 222.67 C 300.01 211.22 317.21 199.28 334.96 188.22 C 333.91 188.37 332.85 188.50 331.84 188.83 M 190.42 194.02 C 183.64 202.32 179.95 212.85 179.56 223.52 C 188.30 224.10 197.07 223.81 205.81 223.58 C 207.56 219.44 209.21 215.26 210.89 211.11 C 204.45 205.01 197.18 199.78 190.42 194.02 M 224.60 204.75 C 220.79 205.67 217.11 207.53 214.45 210.46 C 207.39 217.69 206.87 230.25 213.22 238.08 C 216.99 242.86 222.96 245.42 228.92 245.95 C 235.14 245.80 241.52 243.35 245.56 238.49 C 250.66 232.79 251.70 224.20 249.07 217.16 C 245.59 207.62 234.33 202.11 224.60 204.75 M 118.01 223.66 C 137.55 223.90 157.10 223.69 176.64 223.79 C 177.41 218.89 178.57 214.05 179.00 209.10 C 158.71 214.11 138.38 218.97 118.01 223.66 M 255.06 216.97 C 253.72 217.38 251.66 218.08 252.02 219.91 C 252.58 223.88 251.83 227.91 252.66 231.84 C 260.82 234.90 269.02 237.88 277.26 240.73 C 280.43 230.54 280.46 219.53 277.29 209.35 C 269.81 211.69 262.51 214.54 255.06 216.97 M 118.19 226.43 C 138.54 230.93 158.81 235.85 179.02 240.97 C 178.60 236.01 177.40 231.17 176.62 226.26 C 157.15 226.37 137.66 225.98 118.19 226.43 M 179.64 226.51 C 179.86 237.20 183.79 247.61 190.39 255.99 C 196.43 250.79 202.75 245.92 208.86 240.80 C 209.66 239.96 211.53 238.90 210.47 237.52 C 208.38 234.19 207.00 230.48 206.71 226.53 C 197.69 226.52 188.66 226.57 179.64 226.51 M 282.41 227.27 C 281.72 232.17 280.68 237.01 279.99 241.91 C 298.11 248.51 316.13 255.34 334.23 262.00 C 331.69 259.35 328.28 257.86 325.38 255.67 C 311.03 246.25 296.77 236.69 282.41 227.27 M 242.56 244.39 C 246.81 252.21 251.45 259.83 255.96 267.51 C 265.00 261.89 272.34 253.48 276.05 243.46 C 267.64 240.50 259.50 236.80 250.95 234.24 C 248.40 237.82 245.73 241.33 242.56 244.39 M 192.30 258.33 C 195.27 261.56 198.52 264.58 202.20 266.99 C 207.42 270.52 213.63 272.00 219.53 273.96 C 220.85 265.04 223.24 256.26 223.96 247.27 C 219.77 246.08 216.03 243.82 212.91 240.79 C 205.78 246.32 199.18 252.50 192.30 258.33 M 278.82 244.47 C 276.77 248.55 274.25 252.38 272.14 256.42 C 272.17 256.63 272.24 257.03 272.27 257.23 C 292.61 259.50 312.93 261.93 333.27 264.14 C 330.51 262.18 327.06 261.77 324.00 260.48 C 308.96 255.08 293.96 249.58 278.82 244.47 M 180.61 245.20 C 178.24 248.91 175.47 252.34 172.88 255.89 C 162.99 269.30 153.08 282.70 143.17 296.09 C 158.29 283.56 173.18 270.75 188.08 257.96 C 185.61 253.69 183.24 249.37 180.61 245.20 M 226.86 247.98 C 225.28 256.76 223.83 265.56 222.52 274.39 C 232.93 276.17 243.98 274.24 253.16 269.02 C 249.10 261.23 244.75 253.52 240.10 246.06 C 235.73 246.89 231.40 248.23 226.86 247.98 M 151.18 292.23 C 148.67 294.21 146.12 296.14 143.90 298.45 C 147.08 296.29 150.67 294.86 154.04 293.03 C 169.80 285.37 185.36 277.30 201.14 269.67 C 197.55 266.34 193.59 263.44 190.01 260.08 C 176.95 270.66 164.12 281.50 151.18 292.23 M 257.33 270.31 C 267.24 287.42 276.84 304.72 286.77 321.82 C 280.70 301.51 274.59 281.21 268.69 260.84 C 264.72 263.76 261.07 267.09 257.33 270.31 M 254.73 271.47 C 251.31 272.91 247.87 274.32 244.27 275.24 C 244.34 275.56 244.48 276.19 244.55 276.50 C 244.20 276.35 243.51 276.05 243.16 275.90 C 240.17 275.51 242.18 277.96 243.18 278.75 C 257.07 293.40 270.96 308.06 284.85 322.72 C 274.88 305.60 265.00 288.40 254.73 271.47 M 204.99 271.91 C 206.86 292.22 208.02 312.60 208.69 332.98 C 208.81 333.72 209.05 334.42 209.43 335.08 C 212.05 315.58 216.29 296.35 218.82 276.83 C 214.28 275.01 209.62 273.49 204.99 271.91 M 222.24 277.30 C 221.04 279.95 221.03 282.97 220.37 285.79 C 217.14 302.23 214.40 318.76 211.18 335.20 C 213.43 331.51 214.73 327.36 216.49 323.44 C 223.29 308.10 229.72 292.60 236.70 277.35 C 231.87 277.59 227.05 277.33 222.24 277.30 Z" />
<path fill="#1a1a1a" opacity="1.00" d=" M 308.48 81.62 C 310.29 80.45 313.17 81.26 313.80 83.43 C 314.90 86.10 312.92 89.69 309.81 89.29 C 308.41 88.46 307.03 87.41 306.27 85.93 C 306.00 84.17 307.19 82.65 308.48 81.62 Z" />
<path fill="#1a1a1a" opacity="1.00" d=" M 78.35 84.06 C 79.43 84.34 80.84 84.34 81.20 85.68 C 83.33 90.82 84.47 96.32 86.27 101.58 C 86.80 102.81 86.55 104.12 86.41 105.39 C 80.08 104.82 73.75 104.09 67.45 103.27 C 65.79 103.19 64.95 101.77 64.22 100.49 C 71.15 99.73 77.92 101.83 84.61 103.31 C 82.10 97.05 78.87 90.89 78.35 84.06 Z" />
<path fill="#1a1a1a" opacity="1.00" d=" M 89.26 106.67 C 97.20 108.31 105.26 109.15 113.25 110.48 C 116.33 110.97 116.67 114.77 117.46 117.15 C 118.72 122.91 120.90 128.52 121.33 134.43 C 113.27 134.02 105.01 133.88 97.18 131.81 C 94.39 123.48 91.26 115.23 89.26 106.67 M 92.05 109.47 C 93.59 115.14 96.25 120.45 98.27 125.96 C 99.10 128.54 101.28 130.63 104.01 130.99 C 108.92 131.52 113.85 131.90 118.79 131.91 C 117.67 127.09 116.73 122.22 115.28 117.50 C 114.66 115.42 113.05 113.60 110.91 113.06 C 104.75 111.28 98.38 110.36 92.05 109.47 Z" />
<path fill="#1a1a1a" opacity="1.00" d=" M 269.00 108.25 C 270.06 109.19 271.35 110.08 271.59 111.61 C 273.21 117.69 273.95 123.97 275.12 130.15 C 276.72 130.74 274.69 134.01 273.92 132.32 C 272.26 128.01 271.46 123.38 269.95 119.00 C 269.08 115.49 266.74 111.71 269.00 108.25 Z" />
<path fill="#1a1a1a" opacity="1.00" d=" M 103.35 118.38 C 105.51 115.47 109.59 118.21 110.17 121.05 C 109.69 122.25 109.00 123.34 108.36 124.46 C 106.25 125.76 104.06 124.89 102.31 123.45 C 101.85 121.66 101.75 119.65 103.35 118.38 Z" />
<path fill="#1a1a1a" opacity="1.00" d=" M 415.37 146.24 C 416.46 144.75 418.21 143.88 420.04 143.76 C 417.86 150.45 411.63 154.63 407.91 160.39 C 414.42 160.87 421.06 161.70 427.09 164.32 C 426.31 165.72 424.55 166.54 423.00 165.95 C 417.23 164.61 411.56 162.82 405.71 161.82 C 404.67 159.70 406.68 158.17 407.73 156.57 C 410.37 153.20 412.74 149.62 415.37 146.24 Z" />
<path fill="#1a1a1a" opacity="1.00" d=" M 296.11 154.12 C 298.27 153.38 303.75 152.06 301.48 156.26 C 295.35 157.85 288.90 157.83 282.85 159.76 C 282.33 161.89 278.81 159.51 280.85 158.92 C 285.57 156.32 290.98 155.55 296.11 154.12 Z" />
<path fill="#1a1a1a" opacity="1.00" d=" M 372.40 161.44 C 373.45 159.93 374.45 158.27 376.04 157.26 C 377.52 156.96 379.02 157.38 380.49 157.63 C 387.56 159.17 394.66 160.56 401.81 161.68 C 401.63 164.35 399.45 166.05 397.91 168.00 C 394.38 172.06 391.17 176.38 387.76 180.53 C 386.68 181.67 385.26 183.37 383.49 182.74 C 378.26 181.42 373.08 179.92 367.85 178.64 C 365.86 178.14 363.77 177.71 362.18 176.31 C 365.53 171.31 369.06 166.44 372.40 161.44 M 374.03 162.98 C 371.18 167.16 368.14 171.23 365.62 175.63 C 370.44 176.75 375.05 178.66 379.91 179.66 C 383.43 180.46 386.26 177.80 388.38 175.38 C 391.79 171.40 395.25 167.47 398.82 163.62 C 394.19 162.20 389.29 162.23 384.58 161.20 C 381.09 160.73 376.48 159.64 374.03 162.98 Z" />
<path fill="#1a1a1a" opacity="1.00" d=" M 306.26 175.01 C 307.58 171.60 308.45 167.85 311.08 165.14 C 311.52 165.63 312.41 166.62 312.86 167.12 C 310.04 174.18 306.41 180.87 303.45 187.87 C 305.20 186.92 306.64 187.77 307.89 188.98 C 304.67 188.88 301.49 189.41 298.31 189.90 C 297.02 190.25 296.72 188.69 296.19 187.90 C 297.87 187.94 299.53 187.82 301.18 187.53 C 302.93 183.38 304.66 179.22 306.26 175.01 Z" />
<path fill="#1a1a1a" opacity="1.00" d=" M 380.10 166.16 C 383.53 164.44 386.55 168.77 384.74 171.72 C 383.48 174.20 379.29 174.52 378.13 171.82 C 376.71 169.78 377.61 166.77 380.10 166.16 Z" />
<path fill="#1a1a1a" opacity="1.00" d=" M 294.32 175.49 C 296.78 174.92 296.90 171.35 298.93 169.95 C 302.12 171.60 300.20 174.80 299.12 177.19 C 297.28 180.88 295.36 184.52 293.42 188.16 C 294.87 187.95 295.68 188.49 295.83 189.80 C 294.13 189.87 290.58 191.72 289.89 189.98 C 292.24 185.67 293.70 180.97 295.30 176.35 C 295.06 176.13 294.57 175.70 294.32 175.49 Z" />
<path fill="#1a1a1a" opacity="1.00" d=" M 64.45 213.40 C 66.31 212.43 68.64 210.82 70.71 212.20 C 76.80 215.78 82.28 220.30 88.13 224.24 C 87.94 224.73 87.57 225.70 87.39 226.19 C 82.61 229.85 77.47 233.03 72.56 236.52 C 71.00 237.55 69.01 239.15 67.10 237.99 C 60.45 234.32 54.13 230.07 47.54 226.31 C 46.26 225.87 46.20 224.20 47.46 223.71 C 53.01 220.10 58.82 216.90 64.45 213.40 M 68.10 215.18 C 61.78 217.49 56.34 221.69 50.28 224.59 C 50.29 224.81 50.29 225.24 50.29 225.45 C 55.36 228.14 60.47 230.75 65.40 233.68 C 67.91 235.35 71.31 235.18 73.69 233.35 C 77.40 230.82 80.92 228.01 84.51 225.32 C 84.53 225.12 84.57 224.72 84.59 224.52 C 81.66 222.41 78.57 220.53 75.77 218.25 C 73.60 216.56 71.03 214.57 68.10 215.18 Z" />
<path fill="#1a1a1a" opacity="1.00" d=" M 22.29 214.51 C 24.10 212.97 26.70 213.25 28.45 214.72 C 33.30 218.17 38.65 220.95 43.08 224.94 C 40.84 227.59 37.55 228.89 34.82 230.93 C 31.86 232.83 29.06 235.03 25.91 236.60 C 24.73 236.41 23.37 236.47 22.40 235.67 C 22.31 234.56 23.95 234.38 24.64 234.02 C 29.64 230.73 35.01 228.02 39.91 224.57 C 33.54 222.13 28.02 218.11 22.29 214.51 Z" />
<path fill="#1a1a1a" opacity="1.00" d=" M 227.36 218.55 C 231.52 216.63 235.47 220.36 236.55 224.15 C 236.90 228.79 231.58 233.84 227.01 231.20 C 221.47 229.41 221.70 220.07 227.36 218.55 Z" />
<path fill="#1a1a1a" opacity="1.00" d=" M 64.33 225.01 C 63.37 220.62 71.52 219.52 71.71 223.90 C 72.36 226.57 70.78 228.94 67.99 229.06 C 66.11 228.49 63.91 227.35 64.33 225.01 Z" />
<path fill="#1a1a1a" opacity="1.00" d=" M 343.16 256.43 C 349.36 254.42 354.57 249.34 361.22 248.93 C 361.26 249.47 361.35 250.56 361.40 251.11 C 355.26 254.46 348.56 256.69 342.07 259.25 C 342.34 258.55 342.89 257.13 343.16 256.43 Z" />
<path fill="#1a1a1a" opacity="1.00" d=" M 378.40 268.66 C 381.11 268.15 384.44 266.04 386.88 268.33 C 391.48 273.46 395.43 279.17 400.00 284.34 C 400.96 285.39 401.56 286.69 402.16 287.97 C 394.08 289.39 386.09 291.33 378.02 292.73 C 375.77 293.40 374.51 291.22 373.41 289.73 C 369.62 284.35 365.50 279.17 362.30 273.40 C 367.28 270.75 373.08 270.38 378.40 268.66 M 380.12 270.25 C 375.13 271.23 370.35 273.00 365.49 274.46 C 368.27 278.70 371.13 282.90 374.16 286.97 C 375.83 289.46 379.18 289.73 381.89 289.20 C 387.50 288.23 393.13 287.38 398.79 286.74 C 394.81 282.22 390.73 277.80 387.05 273.04 C 385.47 270.93 382.73 269.74 380.12 270.25 Z" />
<path fill="#1a1a1a" opacity="1.00" d=" M 379.42 276.68 C 381.51 275.26 384.36 276.91 385.19 279.03 C 385.36 280.71 384.91 282.52 383.71 283.75 C 381.50 284.73 379.29 283.46 377.49 282.27 C 377.62 280.32 377.32 277.71 379.42 276.68 Z" />
<path fill="#1a1a1a" opacity="1.00" d=" M 406.08 288.18 C 412.01 286.38 418.14 285.33 424.13 283.73 C 425.07 284.19 426.02 284.67 426.97 285.14 C 426.07 285.79 425.28 286.73 424.10 286.85 C 418.75 288.05 413.29 288.62 407.90 289.63 C 411.68 295.22 417.70 299.30 420.00 305.89 C 418.42 305.84 416.64 305.72 415.76 304.18 C 412.41 299.87 409.21 295.43 405.98 291.03 C 405.34 290.31 404.86 288.51 406.08 288.18 Z" />
<path fill="#1a1a1a" opacity="1.00" d=" M 99.81 317.31 C 106.99 316.62 114.18 315.56 121.41 315.55 C 120.91 321.92 118.42 327.91 116.94 334.08 C 116.26 335.75 116.23 338.16 114.48 339.12 C 106.15 340.88 97.55 341.20 89.32 343.40 C 90.16 337.07 93.25 331.29 94.79 325.10 C 95.88 322.27 96.10 317.87 99.81 317.31 M 102.09 319.18 C 102.17 319.60 102.32 320.45 102.39 320.88 L 101.81 319.47 C 100.69 320.44 99.37 321.32 98.79 322.76 C 96.04 328.47 94.22 334.56 91.86 340.44 C 98.54 339.59 105.10 337.99 111.73 336.82 C 113.10 335.75 114.62 334.67 115.08 332.88 C 116.71 328.06 117.74 323.04 118.68 318.04 C 113.12 317.98 107.62 318.78 102.09 319.18 Z" />
<path fill="#1a1a1a" opacity="1.00" d=" M 102.52 326.90 C 103.22 325.43 104.85 325.01 106.18 324.33 C 107.84 325.53 109.67 326.82 110.23 328.92 C 109.68 330.52 108.49 331.89 106.98 332.65 C 103.89 333.83 100.69 329.57 102.52 326.90 Z" />
<path fill="#1a1a1a" opacity="1.00" d=" M 282.16 325.86 C 282.68 327.13 283.95 328.38 283.19 329.88 C 281.71 335.95 281.10 342.22 279.19 348.18 C 278.74 349.36 277.56 351.55 275.98 350.35 C 275.35 347.31 276.66 344.39 277.44 341.53 C 278.92 336.28 280.67 331.11 282.16 325.86 Z" />
<path fill="#1a1a1a" opacity="1.00" d=" M 71.03 346.15 C 76.19 345.80 81.28 344.60 86.48 344.67 C 86.73 346.14 86.59 347.58 86.07 348.98 C 84.35 353.93 83.29 359.10 81.44 364.00 C 80.95 365.26 79.61 365.75 78.40 366.06 C 79.09 359.57 81.88 353.47 84.24 347.44 C 84.02 347.20 83.81 346.96 83.59 346.72 C 77.33 348.44 70.82 350.13 64.29 349.46 C 65.11 346.50 68.52 346.54 71.03 346.15 Z" />
<path fill="#1a1a1a" opacity="1.00" d=" M 300.41 347.43 C 304.28 348.13 307.56 350.44 311.18 351.83 C 314.33 353.33 317.74 354.37 320.58 356.44 C 322.40 357.63 322.13 360.08 322.21 361.99 C 321.99 369.24 322.17 376.52 321.43 383.74 C 319.38 383.60 317.80 381.79 315.96 380.97 C 310.13 377.88 304.36 374.66 298.44 371.74 C 297.43 367.23 298.43 362.61 298.71 358.08 C 299.23 354.52 298.89 350.77 300.41 347.43 M 301.83 350.35 C 301.32 354.59 300.85 358.84 300.39 363.09 C 300.15 365.82 300.59 369.11 302.97 370.84 C 308.24 374.29 313.69 377.46 319.21 380.48 C 319.19 374.35 319.39 368.22 319.15 362.10 C 319.08 359.19 317.01 356.63 314.39 355.54 C 310.25 353.71 306.07 351.94 301.83 350.35 Z" />
<path fill="#1a1a1a" opacity="1.00" d=" M 306.13 363.86 C 307.50 362.37 308.96 360.82 311.08 360.46 C 311.63 360.81 312.74 361.50 313.30 361.85 C 314.04 363.95 314.75 367.05 312.25 368.27 C 309.34 370.39 306.10 366.77 306.13 363.86 Z" />
<path fill="#1a1a1a" opacity="1.00" d=" M 203.97 364.86 L 205.00 364.40 L 205.96 365.00 C 209.16 371.90 212.73 378.74 215.13 385.96 C 210.44 391.92 205.06 397.35 200.34 403.31 C 199.43 403.86 198.34 406.46 197.25 405.02 C 194.72 398.74 192.47 392.35 189.85 386.11 C 189.16 384.05 187.75 381.34 189.47 379.42 C 194.02 374.30 198.98 369.53 203.97 364.86 M 192.11 381.02 C 192.53 388.38 196.26 395.13 198.28 402.16 C 202.09 397.97 205.53 393.45 209.13 389.08 C 210.75 387.16 212.28 384.57 211.16 382.03 C 209.51 376.92 206.78 372.24 204.63 367.34 C 200.28 371.68 194.48 375.11 192.11 381.02 Z" />
<path fill="#1a1a1a" opacity="1.00" d=" M 199.03 387.02 C 196.66 385.30 197.60 381.37 200.00 380.16 C 201.44 379.92 202.87 380.42 204.29 380.60 C 205.92 382.68 205.47 385.19 204.30 387.36 C 202.58 387.65 200.51 388.28 199.03 387.02 Z" />
<path fill="#1a1a1a" opacity="1.00" d=" M 322.44 387.37 C 322.85 387.22 323.68 386.90 324.09 386.75 C 329.15 388.87 333.95 391.57 338.87 394.00 C 340.50 394.66 341.61 396.02 342.63 397.39 C 342.02 397.57 340.78 397.94 340.16 398.13 C 334.86 395.04 329.52 392.03 324.20 388.99 C 324.82 395.54 324.84 402.22 323.75 408.72 C 323.23 408.58 322.18 408.30 321.66 408.16 C 321.00 401.25 322.13 394.28 322.44 387.37 Z" />
<path fill="#1a1a1a" opacity="1.00" d=" M 188.33 417.37 C 191.35 414.73 193.51 410.99 196.99 409.01 C 199.69 411.31 200.20 415.27 201.87 418.32 C 203.19 422.33 207.12 426.45 204.54 430.76 C 200.48 424.99 199.02 418.04 196.68 411.52 C 192.49 416.92 188.68 422.84 182.95 426.77 C 181.70 422.51 186.14 420.25 188.33 417.37 Z" />
</g>
</svg>
