<?xml version="1.0" encoding="UTF-8" ?>
<!DOCTYPE svg PUBLIC "-//W3C//DTD SVG 1.1//EN" "http://www.w3.org/Graphics/SVG/1.1/DTD/svg11.dtd">
<svg width="225pt" height="225pt" viewBox="0 0 225 225" version="1.1" xmlns="http://www.w3.org/2000/svg">
<g id="#ffffffff">
</g>
<g id="#030303ff">
<path fill="#030303" opacity="1.00" d=" M 75.19 7.79 C 78.02 11.87 80.91 16.18 85.52 18.44 C 85.70 21.34 85.93 24.25 85.82 27.16 C 83.63 25.74 81.61 24.08 79.73 22.29 C 78.58 30.79 78.84 39.42 79.77 47.93 C 82.57 50.80 86.06 53.08 88.11 56.60 C 88.51 56.02 88.91 55.44 89.31 54.86 C 87.41 54.26 86.47 52.32 85.14 51.00 C 87.95 43.06 90.60 35.07 93.53 27.18 C 93.67 27.24 93.95 27.37 94.09 27.44 C 98.84 37.39 105.43 46.33 112.30 54.90 C 120.04 46.61 126.09 36.89 131.30 26.85 C 134.44 34.79 136.95 42.97 139.93 50.97 C 138.64 52.39 137.35 53.79 136.08 55.21 C 140.10 54.35 141.91 50.10 145.23 48.00 C 146.20 39.74 146.25 31.38 145.45 23.11 C 145.05 23.22 144.25 23.46 143.85 23.57 C 142.31 24.86 140.89 26.46 138.83 26.88 C 139.11 24.16 139.33 21.43 139.50 18.70 C 143.88 16.17 147.13 12.23 149.57 7.86 C 153.22 18.92 153.38 30.71 153.15 42.25 C 162.46 35.61 173.02 30.43 184.24 28.06 C 181.51 32.22 179.93 37.09 180.08 42.09 C 177.65 43.55 175.47 45.69 172.71 46.48 C 172.80 43.99 173.29 41.53 173.64 39.06 C 165.75 42.21 158.23 46.56 151.81 52.12 C 151.62 52.65 151.25 53.71 151.07 54.24 C 151.58 54.32 152.60 54.49 153.11 54.57 C 152.65 54.53 151.71 54.47 151.24 54.44 C 149.36 62.62 147.12 70.84 143.27 78.34 C 147.05 80.30 151.23 81.38 155.43 82.00 C 157.78 75.37 160.52 68.87 163.60 62.54 C 158.99 63.84 154.20 64.34 149.56 65.54 C 149.90 62.89 150.96 60.43 151.83 57.93 C 160.21 56.51 168.50 54.59 176.91 53.38 C 170.74 62.81 165.90 73.05 162.17 83.68 C 172.94 85.92 184.00 86.63 194.98 86.14 C 194.84 86.64 194.56 87.64 194.42 88.13 C 189.06 93.63 184.37 99.75 179.28 105.50 C 176.72 105.06 174.21 104.42 171.66 104.02 C 174.32 99.96 178.11 96.82 180.82 92.82 C 173.74 92.77 166.79 91.43 159.82 90.37 C 158.94 94.43 157.92 98.46 157.02 102.52 C 166.54 103.51 175.82 105.87 184.95 108.64 C 192.28 104.83 200.29 101.73 206.24 95.78 C 204.22 94.65 200.98 94.88 199.93 92.51 C 202.32 91.36 204.68 90.16 207.00 88.88 C 211.27 91.75 216.55 92.56 221.61 92.48 C 213.36 100.55 203.96 107.75 193.24 112.19 C 193.60 112.44 194.32 112.94 194.69 113.19 C 204.67 118.09 213.74 124.71 221.68 132.49 C 216.60 132.44 211.24 133.17 206.98 136.14 C 204.77 134.86 202.46 133.73 200.22 132.49 C 200.39 130.19 204.45 130.48 206.09 129.18 C 203.69 126.28 200.24 124.53 197.10 122.57 C 192.84 120.28 188.59 117.69 183.93 116.39 C 175.26 119.44 166.23 121.42 157.10 122.50 C 157.82 126.61 159.00 130.63 159.90 134.70 C 166.83 133.31 173.86 132.49 180.92 132.11 C 177.77 128.22 174.51 124.44 171.07 120.80 C 173.87 120.66 176.62 120.11 179.32 119.39 C 184.77 125.91 190.29 132.39 195.89 138.79 C 184.59 138.39 173.22 139.01 162.12 141.30 C 165.89 151.92 170.80 162.14 176.90 171.62 C 168.52 170.36 160.23 168.51 151.88 167.04 C 150.94 164.56 149.97 162.09 149.35 159.51 C 154.13 160.20 158.80 161.63 163.56 162.29 C 160.32 155.97 157.88 149.30 155.22 142.74 C 151.19 143.86 147.01 144.61 143.28 146.59 C 147.44 154.91 149.99 164.01 151.73 173.12 C 158.52 178.15 165.65 182.99 173.68 185.82 C 173.13 183.31 172.83 180.75 172.78 178.18 C 175.24 179.72 177.69 181.26 180.10 182.88 C 179.80 188.00 181.71 192.90 184.37 197.17 C 173.14 194.53 162.63 189.37 153.15 182.86 C 153.11 190.24 153.58 197.69 152.24 204.99 C 151.75 209.38 150.36 213.61 150.00 218.01 C 147.63 213.32 144.15 209.01 139.49 206.45 C 139.30 203.61 139.07 200.76 139.22 197.91 C 141.40 199.25 143.49 200.79 145.19 202.73 C 146.46 194.17 146.17 185.45 145.17 176.88 C 138.04 170.73 131.62 163.77 126.08 156.16 C 123.04 159.01 119.97 161.82 117.19 164.93 C 121.91 169.98 125.45 176.06 130.05 181.14 C 131.81 176.85 132.91 172.30 134.64 167.99 C 136.26 170.07 138.02 172.04 139.90 173.90 C 137.12 181.93 134.28 189.93 131.61 198.00 C 129.30 195.24 128.20 191.74 126.17 188.80 C 121.95 182.27 117.75 175.57 112.15 170.12 C 104.99 179.05 98.53 188.54 93.22 198.71 C 93.05 198.15 92.71 197.02 92.54 196.46 C 92.24 196.50 91.64 196.59 91.34 196.63 C 91.69 196.02 92.05 195.42 92.41 194.82 C 89.90 187.89 87.52 180.91 85.16 173.93 C 86.95 172.01 88.67 170.03 90.30 167.98 C 92.12 172.52 93.67 177.18 94.91 181.91 C 98.96 176.06 103.14 170.28 107.85 164.94 C 104.98 161.88 101.96 158.96 98.87 156.12 C 93.31 163.70 87.03 170.78 79.82 176.83 C 78.78 185.16 78.69 193.62 79.59 201.98 C 81.89 201.03 83.69 199.24 85.73 197.87 C 85.90 200.71 85.76 203.55 85.54 206.38 C 80.97 209.02 77.38 213.19 75.05 217.90 C 74.63 213.92 73.35 210.09 72.94 206.11 C 71.43 198.45 71.92 190.61 71.84 182.86 C 69.85 184.21 67.85 185.53 65.81 186.78 C 57.96 191.47 49.43 195.15 40.46 197.02 C 43.53 192.98 45.09 187.90 44.91 182.84 C 47.35 181.33 49.74 179.74 52.20 178.26 C 52.20 180.86 51.86 183.45 51.30 186.00 C 59.28 182.74 66.93 178.37 73.41 172.66 C 75.02 163.70 77.58 154.77 81.74 146.64 C 78.01 144.59 73.76 143.73 69.62 142.97 C 67.15 149.60 64.45 156.13 61.45 162.53 C 66.07 161.21 70.83 160.46 75.54 159.54 C 74.79 162.02 74.04 164.49 73.33 166.98 C 69.64 167.77 65.89 168.27 62.21 169.09 C 57.47 169.79 52.84 171.13 48.07 171.68 C 54.24 162.23 58.93 151.93 62.98 141.43 C 51.88 138.88 40.43 138.45 29.08 138.78 C 34.71 132.39 40.28 125.94 45.72 119.40 C 48.37 120.11 51.07 120.68 53.82 120.79 C 50.56 124.53 47.20 128.19 44.13 132.10 C 51.20 132.37 58.17 133.50 65.14 134.58 C 65.92 130.49 67.30 126.54 67.85 122.40 C 58.72 121.39 49.68 119.50 41.02 116.43 C 33.00 119.21 25.08 123.39 18.80 129.19 C 21.21 130.07 23.58 131.03 25.91 132.10 C 23.14 133.09 20.78 134.96 18.03 135.95 C 13.52 133.44 8.39 132.27 3.24 132.56 C 6.91 129.51 10.17 125.97 14.07 123.19 C 19.53 118.84 25.75 115.65 31.78 112.22 C 21.40 107.98 12.28 101.07 4.29 93.30 C 3.57 92.62 2.66 92.22 1.73 91.91 L 4.28 91.19 C 4.06 91.51 3.60 92.16 3.37 92.48 C 8.50 92.74 13.57 91.49 18.05 89.04 C 20.42 89.94 22.62 91.25 24.81 92.52 C 24.15 94.78 20.66 94.65 18.87 95.83 C 23.93 100.85 30.53 104.03 36.91 107.07 C 38.54 107.62 40.23 109.05 42.00 108.23 C 50.36 105.21 59.15 103.73 67.92 102.52 C 67.07 98.48 66.04 94.48 65.18 90.44 C 58.19 91.41 51.22 92.73 44.14 92.80 C 47.18 96.75 50.50 100.49 53.90 104.14 C 51.09 104.31 48.34 104.93 45.62 105.61 C 40.36 98.94 34.66 92.63 29.08 86.23 C 40.42 86.55 51.82 85.98 62.95 83.67 C 59.01 73.06 54.27 62.74 47.99 53.30 C 56.43 54.58 64.73 56.67 73.19 57.87 C 74.05 60.39 75.09 62.88 75.53 65.53 C 70.82 64.73 66.20 63.42 61.48 62.74 C 64.50 69.00 67.27 75.38 69.50 81.96 C 73.75 81.54 77.89 80.25 81.72 78.38 C 77.76 70.18 74.92 61.33 73.45 52.34 C 66.91 46.72 59.36 42.17 51.29 39.12 C 51.91 41.68 52.15 44.31 52.28 46.93 C 49.82 45.35 47.46 43.61 44.87 42.24 C 45.39 36.88 42.83 32.11 40.82 27.35 C 43.03 28.67 45.57 29.18 47.98 30.00 C 56.52 32.76 64.48 37.09 71.86 42.17 C 71.42 30.62 72.11 18.99 75.19 7.79 M 90.80 56.14 C 90.04 56.40 89.28 56.66 88.52 56.90 C 92.91 60.01 95.54 64.87 98.97 68.89 C 101.96 65.95 105.01 63.06 107.91 60.02 C 103.01 54.85 99.04 48.91 94.94 43.11 C 93.94 47.57 92.10 51.77 90.80 56.14 M 130.01 43.15 C 126.05 49.01 121.79 54.70 117.17 60.06 C 120.00 63.14 123.04 66.01 126.09 68.88 C 129.83 64.00 133.55 59.10 137.96 54.79 C 137.12 55.28 135.44 56.25 134.60 56.74 C 132.91 52.26 131.39 47.72 130.01 43.15 M 83.02 60.99 C 84.10 66.36 86.13 71.44 88.04 76.54 C 90.06 75.64 91.96 74.51 93.70 73.14 C 90.28 68.97 86.72 64.93 83.02 60.99 M 137.18 66.17 C 135.24 68.52 133.25 70.83 131.29 73.15 C 132.99 74.43 134.80 75.54 136.66 76.57 C 139.27 71.70 140.54 66.29 142.00 61.01 C 140.41 62.74 138.78 64.44 137.18 66.17 M 106.20 79.33 C 106.55 82.45 108.97 84.95 110.13 87.84 C 111.09 89.23 111.11 91.51 112.96 92.08 C 114.54 87.86 117.06 84.07 118.89 79.97 C 118.45 77.16 117.00 74.65 116.01 72.02 C 114.90 69.61 114.29 66.77 112.04 65.11 C 109.87 69.75 107.70 74.43 106.20 79.33 M 92.33 82.74 C 92.29 83.15 92.20 83.96 92.15 84.37 C 93.88 85.02 95.64 85.56 97.48 85.79 C 97.74 83.89 98.10 82.01 98.50 80.14 C 96.18 80.27 94.25 81.59 92.33 82.74 M 126.66 79.90 C 126.94 81.89 127.30 83.87 127.61 85.85 C 129.45 85.50 131.25 84.98 133.01 84.36 C 132.46 81.47 129.00 80.77 126.66 79.90 M 72.02 89.75 C 74.55 93.99 77.63 98.01 80.97 101.64 C 85.84 102.26 90.76 102.47 95.67 102.57 C 92.68 98.98 90.37 94.91 87.98 90.92 C 87.50 90.68 86.53 90.20 86.05 89.96 C 82.30 89.41 78.52 89.18 74.78 88.61 C 73.93 88.50 71.41 88.19 72.02 89.75 M 136.96 90.72 C 134.97 95.01 132.02 98.75 129.53 102.72 C 134.38 102.49 139.21 101.92 144.07 101.81 C 147.28 97.53 151.06 93.60 153.54 88.84 C 148.01 88.51 142.32 89.28 136.96 90.72 M 103.06 97.40 C 102.97 100.61 105.63 102.59 107.68 104.61 C 106.23 105.44 104.73 106.20 103.33 107.12 C 103.08 108.73 103.25 110.36 103.29 111.98 C 101.23 111.62 99.17 111.29 97.10 110.98 C 96.21 111.34 95.32 111.69 94.43 112.02 C 94.95 112.64 95.46 113.28 95.97 113.92 C 98.44 113.86 100.89 113.51 103.31 113.02 C 103.24 114.76 103.22 116.49 103.29 118.23 C 104.80 118.85 106.27 119.55 107.68 120.37 C 105.64 122.50 102.82 124.46 103.07 127.78 C 103.70 127.71 104.96 127.55 105.59 127.48 C 106.74 125.35 107.58 123.07 107.97 120.68 C 109.03 121.19 110.00 121.82 110.90 122.56 C 111.96 122.71 113.14 123.07 114.06 122.28 C 116.51 120.70 119.06 119.28 121.74 118.13 C 121.80 116.22 121.76 114.30 121.66 112.40 C 124.52 113.72 128.54 115.06 130.84 112.10 C 127.96 110.51 124.76 111.45 121.73 112.00 C 121.77 110.25 121.78 108.49 121.76 106.74 C 119.68 106.26 118.05 104.40 115.82 104.66 C 115.61 102.95 113.54 102.52 112.34 101.63 C 110.94 102.62 109.50 103.56 108.02 104.43 C 107.54 101.96 106.74 99.56 105.49 97.37 C 104.88 97.38 103.67 97.39 103.06 97.40 M 117.34 102.04 C 117.87 102.55 118.40 103.07 118.93 103.58 C 120.32 101.62 122.04 99.75 121.86 97.16 C 118.85 96.81 118.15 99.82 117.34 102.04 M 77.20 115.74 C 78.96 116.14 80.07 113.84 81.56 113.13 C 81.54 112.82 81.50 112.20 81.48 111.89 C 80.20 110.91 78.99 109.84 77.85 108.69 C 76.21 110.63 76.49 113.47 77.20 115.74 M 143.07 112.83 C 144.59 113.84 145.99 115.02 147.24 116.37 C 147.69 115.11 148.45 114.07 149.65 113.46 C 149.33 113.42 148.69 113.33 148.37 113.29 C 147.61 112.28 149.13 109.03 147.13 109.06 C 145.47 109.92 144.34 111.51 143.07 112.83 M 54.39 111.94 C 54.45 112.24 54.59 112.85 54.66 113.15 C 59.60 113.62 64.27 115.69 69.28 115.59 C 69.43 113.52 69.44 111.44 69.27 109.36 C 64.19 109.43 59.39 111.30 54.39 111.94 M 155.72 109.39 C 155.52 111.49 155.55 113.60 155.87 115.69 C 160.71 115.48 165.30 113.81 170.04 113.04 C 170.27 112.78 170.72 112.26 170.95 112.01 C 165.82 111.42 160.92 109.42 155.72 109.39 M 127.70 121.86 C 128.59 122.26 129.73 122.45 130.25 123.38 C 132.60 126.95 135.25 130.38 136.95 134.34 C 137.53 134.49 138.70 134.79 139.28 134.94 C 143.94 135.69 148.68 136.45 153.42 136.23 C 151.13 131.38 147.34 127.42 144.05 123.22 C 139.20 122.94 134.37 122.52 129.52 122.35 C 129.68 122.08 130.00 121.55 130.16 121.28 L 127.70 121.86 M 80.59 123.38 C 77.86 127.82 73.36 131.24 71.74 136.28 C 77.13 136.39 82.49 135.53 87.76 134.51 C 90.34 130.43 92.48 126.03 95.72 122.41 C 90.67 122.59 85.61 122.79 80.59 123.38 M 117.35 123.12 C 118.10 124.59 118.78 126.11 119.56 127.58 C 120.15 127.64 121.32 127.75 121.91 127.81 C 122.06 125.23 120.30 123.42 118.90 121.49 C 118.38 122.03 117.86 122.57 117.35 123.12 M 112.26 132.30 C 110.54 136.67 108.26 140.79 106.00 144.91 C 107.45 150.10 109.72 155.03 112.08 159.87 C 114.14 158.50 114.68 156.01 115.63 153.89 C 116.77 150.93 118.41 148.10 118.87 144.92 C 116.67 140.72 114.78 136.33 112.26 132.30 M 91.30 141.45 C 93.01 142.60 94.76 143.66 96.54 144.69 C 97.07 144.65 98.12 144.56 98.65 144.52 C 98.36 143.67 98.07 142.83 97.77 142.00 C 97.70 141.28 97.57 139.85 97.50 139.14 C 95.31 139.52 93.12 140.11 91.30 141.45 M 127.67 139.14 C 127.28 141.02 126.82 142.89 126.40 144.77 C 128.81 144.84 130.79 143.40 132.78 142.27 C 132.77 141.85 132.74 141.02 132.73 140.61 C 131.06 140.06 129.38 139.53 127.67 139.14 M 88.08 148.41 C 86.12 153.49 84.25 158.62 83.02 163.95 C 86.72 160.09 90.16 156.01 93.59 151.92 C 91.94 150.47 90.08 149.30 88.08 148.41 M 131.27 151.82 C 134.69 155.91 138.16 159.97 141.82 163.85 C 140.84 158.55 138.90 153.52 136.99 148.51 C 134.95 149.37 133.03 150.48 131.27 151.82 Z" />
</g>
</svg>
