<?xml version="1.0" encoding="UTF-8" ?>
<!DOCTYPE svg PUBLIC "-//W3C//DTD SVG 1.1//EN" "http://www.w3.org/Graphics/SVG/1.1/DTD/svg11.dtd">
<svg width="500pt" height="500pt" viewBox="0 0 500 500" version="1.1" xmlns="http://www.w3.org/2000/svg">
<g id="#ffffffff">
</g>
<g id="#010102ff">
<path fill="#010102" opacity="1.00" d=" M 320.21 5.09 C 322.55 4.38 325.40 5.08 326.54 7.41 C 328.68 11.58 327.90 16.45 328.12 20.97 C 327.92 39.98 328.60 59.03 326.99 77.99 C 326.16 87.11 323.82 97.23 315.85 102.80 C 309.25 107.37 302.31 111.63 294.86 114.64 C 290.63 116.49 285.27 114.88 283.50 110.44 C 279.99 101.95 276.39 93.28 275.38 84.07 C 274.32 73.72 279.55 64.25 284.49 55.58 C 292.40 42.26 300.37 28.95 309.28 16.27 C 312.45 12.17 315.40 7.42 320.21 5.09 M 302.80 37.80 C 296.39 48.43 289.37 58.78 284.24 70.11 C 281.20 76.58 281.07 84.06 283.20 90.83 C 285.17 97.07 287.08 103.43 290.18 109.24 C 297.89 107.20 304.54 102.46 311.20 98.23 C 318.30 93.74 319.87 84.86 320.62 77.14 C 321.98 60.80 321.75 44.39 321.79 28.02 C 321.72 22.58 322.05 17.13 321.42 11.72 C 313.93 19.42 308.65 28.88 302.80 37.80 Z" />
<path fill="#010102" opacity="1.00" d=" M 191.36 18.52 C 195.26 16.76 199.18 19.57 202.21 21.80 C 209.93 28.06 218.79 34.20 222.09 44.07 C 226.65 56.00 221.12 69.86 211.18 77.25 C 208.09 79.49 203.86 79.26 200.61 77.48 C 195.11 74.52 190.46 70.24 185.81 66.11 C 181.54 62.26 177.84 56.98 178.29 50.95 C 178.80 43.24 182.12 36.11 184.55 28.88 C 186.10 25.11 187.39 20.45 191.36 18.52 M 186.62 42.43 C 185.11 47.16 183.25 53.02 186.64 57.39 C 190.40 62.29 195.44 66.01 200.29 69.75 C 202.58 71.27 205.84 73.87 208.36 71.35 C 213.74 66.53 217.74 59.52 217.21 52.11 C 216.93 44.86 212.44 38.51 206.99 34.05 C 202.74 30.60 198.76 26.74 193.91 24.14 C 190.47 29.78 188.86 36.27 186.62 42.43 Z" />
<path fill="#010102" opacity="1.00" d=" M 241.51 58.57 C 244.55 56.20 248.53 54.19 252.46 55.33 C 257.21 56.76 260.65 60.57 264.24 63.77 C 267.10 66.29 269.22 70.17 268.00 74.05 C 266.52 78.71 262.98 82.31 259.87 85.94 C 251.12 95.49 242.24 104.92 233.32 114.31 C 239.35 136.94 247.75 159.36 248.16 183.06 C 248.17 188.93 248.34 195.20 245.55 200.56 C 244.16 203.29 240.89 204.87 237.91 203.83 C 230.30 201.69 225.11 195.07 221.36 188.48 C 215.13 177.19 211.72 164.59 209.08 152.04 C 206.86 140.94 204.59 129.86 202.40 118.75 C 189.98 115.80 177.41 113.41 165.12 109.95 C 160.29 108.50 154.47 106.27 153.26 100.75 C 152.44 95.35 154.20 89.93 155.75 84.81 C 157.17 80.04 162.15 77.27 166.97 77.77 C 180.90 78.48 194.10 83.97 208.00 84.87 C 213.83 85.30 218.77 81.59 222.60 77.61 C 228.98 71.34 234.46 64.14 241.51 58.57 M 244.99 64.00 C 236.62 70.91 230.47 80.14 221.88 86.80 C 217.18 90.55 210.95 91.78 205.06 91.08 C 192.55 89.77 180.55 85.48 168.04 84.15 C 166.02 83.99 163.23 83.95 162.25 86.13 C 160.54 89.84 159.83 93.97 159.41 98.01 C 159.28 101.78 163.76 102.60 166.50 103.67 C 180.12 107.43 194.00 110.20 207.78 113.33 C 211.64 130.48 214.18 147.94 218.84 164.91 C 221.64 174.28 225.00 183.81 231.21 191.51 C 233.45 194.39 236.44 196.59 239.87 197.84 C 242.41 191.16 241.96 183.85 241.39 176.86 C 239.67 154.75 231.68 133.87 226.13 112.57 C 234.18 104.12 242.10 95.54 250.11 87.05 C 253.78 83.03 257.68 79.16 260.69 74.59 C 261.20 73.50 262.32 72.41 261.87 71.11 C 260.62 68.79 258.43 67.18 256.52 65.42 C 254.54 63.80 252.60 61.79 249.95 61.38 C 248.08 61.76 246.46 62.83 244.99 64.00 Z" />
<path fill="#010102" opacity="1.00" d=" M 70.36 62.45 C 72.43 60.78 75.17 61.99 77.33 62.81 C 83.88 65.64 90.07 69.24 96.30 72.71 C 111.15 81.28 125.85 90.18 139.86 100.07 C 143.82 103.06 148.41 105.84 150.47 110.58 C 154.36 119.20 155.93 128.67 156.58 138.05 C 156.69 141.65 156.63 145.98 153.59 148.47 C 150.31 150.95 145.96 150.89 142.04 150.96 C 136.37 150.81 130.67 150.69 125.04 149.95 C 119.52 149.19 114.40 146.32 110.80 142.08 C 104.76 135.20 100.44 127.05 95.86 119.19 C 87.04 103.44 78.10 87.71 70.86 71.16 C 69.98 68.48 67.79 64.84 70.36 62.45 M 77.31 69.78 C 85.51 88.27 95.68 105.81 105.69 123.36 C 109.90 129.92 113.59 137.43 120.35 141.75 C 127.36 145.09 135.44 144.01 142.97 144.50 C 145.53 144.23 150.60 145.05 150.13 141.06 C 150.09 132.09 148.57 123.03 145.25 114.68 C 143.52 109.71 138.51 107.26 134.60 104.24 C 116.21 91.65 97.12 80.01 77.31 69.78 Z" />
<path fill="#010102" opacity="1.00" d=" M 335.68 89.60 C 339.56 87.00 344.37 85.98 348.99 85.84 C 354.03 85.60 358.57 89.00 360.67 93.43 C 365.90 103.63 365.21 115.52 368.72 126.24 C 370.04 130.55 373.54 133.75 377.49 135.70 C 388.29 141.28 400.35 143.97 411.02 149.84 C 414.53 151.76 417.85 154.75 418.67 158.84 C 419.55 163.91 417.97 168.99 416.64 173.84 C 415.69 177.37 412.99 180.94 409.04 181.06 C 402.82 181.40 397.06 178.62 391.29 176.73 C 381.79 173.19 372.26 169.77 362.80 166.13 C 346.65 182.22 332.02 200.43 312.17 212.21 C 303.99 216.97 294.67 221.32 284.96 220.01 C 282.46 219.91 280.55 217.38 280.99 214.95 C 281.46 210.45 283.40 206.27 285.10 202.13 C 288.14 195.45 291.39 188.79 295.80 182.89 C 298.02 179.66 301.80 178.21 304.66 175.69 C 316.46 166.02 327.25 155.21 338.42 144.84 C 336.28 131.50 333.05 118.33 331.72 104.88 C 331.35 99.64 331.13 93.20 335.68 89.60 M 339.16 95.05 C 337.12 98.73 338.08 103.15 338.37 107.12 C 340.19 120.55 343.19 133.79 345.36 147.16 C 331.05 160.24 317.68 174.50 301.86 185.80 C 299.35 188.46 297.61 191.74 295.83 194.91 C 292.58 201.03 289.49 207.31 287.65 214.01 C 295.23 213.79 302.28 210.54 308.71 206.77 C 319.78 200.15 329.45 191.46 338.29 182.13 C 345.88 174.32 353.46 166.50 361.07 158.71 C 373.05 163.02 384.92 167.64 396.92 171.90 C 400.77 173.10 404.61 174.84 408.72 174.76 C 411.60 171.67 411.60 166.84 412.47 162.88 C 413.26 159.38 410.42 156.70 407.59 155.27 C 396.80 149.57 384.72 146.82 373.94 141.10 C 369.43 138.76 365.48 135.13 363.47 130.40 C 358.71 119.27 360.33 106.30 354.49 95.56 C 351.27 90.03 343.53 92.38 339.16 95.05 Z" />
<path fill="#010102" opacity="1.00" d=" M 255.15 99.00 C 260.79 95.70 268.52 94.77 274.00 98.92 C 281.27 104.40 283.70 113.65 287.52 121.49 C 293.68 117.95 299.76 114.27 305.98 110.83 C 309.29 109.10 312.98 107.17 316.84 108.10 C 320.49 109.15 322.54 112.61 324.35 115.68 C 326.15 118.90 328.14 122.15 328.84 125.83 C 329.49 129.37 328.02 132.93 325.68 135.54 C 319.19 142.85 310.35 147.51 303.63 154.58 C 297.60 160.81 291.59 167.76 289.56 176.42 C 286.01 187.47 278.68 197.80 268.21 203.19 C 264.83 205.07 260.75 203.03 259.22 199.73 C 254.34 190.70 255.92 179.90 257.22 170.16 C 259.35 161.28 259.43 152.03 257.95 143.04 C 256.60 131.68 249.73 121.60 249.75 109.99 C 249.65 105.75 251.39 101.25 255.15 99.00 M 256.17 108.92 C 255.94 119.14 261.69 128.14 263.59 137.97 C 265.86 149.13 266.06 160.80 263.43 171.92 C 262.44 180.38 260.93 189.75 265.30 197.55 C 274.24 192.75 280.33 183.87 283.48 174.41 C 285.86 164.33 292.93 156.25 300.02 149.07 C 305.90 143.18 313.12 138.87 319.13 133.12 C 320.57 131.69 322.06 130.12 322.58 128.08 C 322.38 124.74 320.38 121.88 318.87 119.00 C 317.74 117.28 316.83 115.17 314.93 114.18 C 312.20 114.64 309.77 116.05 307.37 117.36 C 299.75 121.75 292.22 126.29 284.60 130.67 C 281.73 124.17 278.87 117.65 275.82 111.23 C 273.77 107.32 270.73 102.90 265.90 102.56 C 261.90 102.56 256.31 104.03 256.17 108.92 Z" />
<path fill="#010102" opacity="1.00" d=" M 164.84 120.85 C 170.43 118.76 176.92 116.82 182.70 119.39 C 187.16 121.46 189.33 126.38 190.07 131.00 C 191.17 136.47 190.25 142.15 191.67 147.57 C 194.16 158.00 198.55 167.91 203.86 177.19 C 209.49 186.35 215.74 195.31 219.33 205.52 C 220.56 209.40 221.22 214.68 217.56 217.48 C 213.35 220.31 207.79 219.12 203.23 217.84 C 194.35 214.48 186.68 208.51 180.05 201.82 C 173.19 195.69 164.69 191.74 156.13 188.58 C 146.72 185.06 136.23 184.64 127.41 179.57 C 123.34 177.26 121.36 172.52 121.62 167.96 C 121.90 163.12 121.80 157.23 125.96 153.89 C 129.52 151.44 134.11 152.10 138.12 152.76 C 144.89 153.77 151.43 156.20 158.32 156.39 C 158.73 147.52 156.00 138.71 157.46 129.87 C 158.11 125.82 160.97 122.27 164.84 120.85 M 171.54 125.39 C 168.48 126.28 164.23 127.23 163.77 131.04 C 162.34 139.37 165.36 147.70 164.72 156.05 C 164.58 159.58 161.69 162.69 158.10 162.74 C 148.58 162.92 139.59 157.84 130.05 158.88 C 127.89 161.30 128.25 165.01 128.01 168.06 C 127.72 170.77 129.07 173.50 131.63 174.59 C 138.94 178.13 147.15 179.01 154.85 181.40 C 163.41 184.09 171.71 187.80 179.14 192.87 C 184.29 196.29 188.09 201.32 193.19 204.81 C 199.19 209.15 206.09 213.68 213.88 212.64 C 213.95 210.20 213.46 207.81 212.50 205.58 C 209.23 197.56 204.46 190.30 199.87 183.01 C 194.96 175.13 191.02 166.65 187.98 157.88 C 185.88 151.79 184.20 145.45 184.29 138.96 C 184.10 134.73 184.20 130.04 181.55 126.49 C 179.08 123.57 174.76 124.65 171.54 125.39 Z" />
<path fill="#010102" opacity="1.00" d=" M 84.01 148.88 C 88.60 146.48 93.76 144.61 99.00 144.74 C 105.35 145.25 108.39 151.74 110.46 156.92 C 115.61 170.73 119.56 184.96 124.22 198.93 C 145.49 204.31 167.74 207.31 187.41 217.58 C 193.20 220.79 199.31 224.38 202.80 230.21 C 204.97 233.66 204.31 238.47 201.07 241.03 C 196.25 244.65 189.90 245.33 184.06 245.30 C 172.22 244.76 160.57 242.20 149.10 239.39 C 139.70 237.10 130.52 233.71 120.87 232.65 C 115.99 232.02 111.07 233.43 106.95 236.04 C 97.16 242.05 88.85 250.50 78.10 254.92 C 73.48 256.84 67.82 257.57 63.39 254.78 C 59.13 252.20 54.54 248.42 54.46 243.00 C 54.62 237.18 58.99 232.74 62.80 228.82 C 71.51 220.34 81.21 212.96 90.44 205.06 C 87.07 191.75 82.98 178.62 80.20 165.17 C 79.15 159.65 78.51 152.30 84.01 148.88 M 86.91 154.78 C 84.83 157.94 86.33 162.03 86.81 165.49 C 89.94 179.59 94.17 193.42 97.72 207.42 C 89.47 214.28 81.17 221.08 73.05 228.10 C 69.04 231.75 64.77 235.30 61.89 239.95 C 60.93 241.48 60.33 243.74 61.78 245.17 C 64.50 248.38 68.64 251.40 73.07 249.86 C 85.91 245.70 94.88 234.79 106.75 228.82 C 111.48 226.45 116.91 225.63 122.15 226.32 C 131.93 227.50 141.27 230.82 150.80 233.18 C 161.05 235.71 171.43 237.87 181.95 238.83 C 187.45 239.17 193.61 238.84 198.03 235.14 C 195.92 230.10 191.05 227.17 186.57 224.49 C 175.49 218.27 163.21 214.52 150.87 211.73 C 140.32 209.28 129.78 206.78 119.21 204.41 C 114.12 189.22 109.90 173.74 104.25 158.74 C 102.80 155.88 101.71 151.51 98.02 151.02 C 94.15 151.52 90.19 152.63 86.91 154.78 Z" />
<path fill="#010102" opacity="1.00" d=" M 45.97 170.89 C 50.07 169.68 54.59 168.70 58.74 170.25 C 63.51 172.06 66.86 176.12 70.24 179.74 C 75.26 185.42 80.40 191.04 84.72 197.29 C 86.14 199.12 86.87 202.10 84.68 203.68 C 80.58 206.57 75.75 208.19 71.15 210.13 C 63.32 213.03 54.99 216.41 46.49 214.78 C 39.37 213.15 34.35 207.35 30.28 201.67 C 25.48 194.75 20.79 187.74 16.10 180.75 C 26.08 177.55 35.95 173.98 45.97 170.89 M 26.16 184.19 C 29.07 188.44 31.90 192.75 34.84 196.98 C 38.85 202.71 44.19 209.53 52.03 208.84 C 61.41 207.70 70.16 203.69 78.70 199.85 C 73.48 192.97 67.78 186.45 61.82 180.20 C 59.30 177.52 55.83 174.95 51.92 176.07 C 43.14 178.07 34.75 181.49 26.16 184.19 Z" />
<path fill="#010102" opacity="1.00" d=" M 363.67 185.59 C 366.55 182.23 369.55 178.38 373.98 177.11 C 379.97 175.77 384.78 180.62 388.66 184.45 C 392.73 188.42 394.77 194.89 391.99 200.16 C 388.77 205.90 383.84 211.11 383.16 217.92 C 383.54 223.16 389.58 224.48 393.46 226.45 C 391.14 224.36 388.21 222.32 387.75 218.99 C 386.98 213.77 390.39 209.25 393.23 205.23 C 398.15 198.86 402.84 191.92 409.84 187.65 C 418.03 182.88 427.88 183.23 437.04 183.23 C 453.99 183.80 470.95 184.22 487.92 184.65 C 492.58 184.75 499.69 185.38 500.00 191.44 L 500.00 191.67 C 498.62 196.29 494.46 199.14 490.75 201.81 C 481.49 208.14 471.55 213.39 461.69 218.69 C 452.85 223.30 444.02 228.01 434.61 231.35 C 427.57 233.86 419.84 235.13 412.48 233.35 C 407.27 232.05 402.29 230.01 397.33 228.03 C 401.17 230.80 404.78 234.32 406.06 239.04 C 408.74 246.70 404.03 256.64 395.96 258.47 C 377.16 257.98 360.51 247.22 341.95 245.37 C 337.80 244.59 334.98 248.49 331.10 249.03 C 323.14 250.48 314.88 249.13 307.27 246.63 C 303.52 245.20 299.24 243.46 297.45 239.60 C 296.13 236.74 297.69 233.62 299.44 231.35 C 303.82 225.92 309.86 222.16 315.95 218.94 C 321.56 216.14 327.60 213.58 334.00 213.83 C 335.90 213.95 337.85 213.71 339.43 212.55 C 349.76 205.84 356.18 195.04 363.67 185.59 M 370.95 187.00 C 361.56 197.85 354.47 211.35 341.64 218.69 C 337.28 221.64 331.82 219.13 327.18 221.22 C 318.14 224.45 308.92 229.15 303.21 237.13 C 310.23 242.35 319.56 243.45 328.07 243.03 C 331.85 243.08 334.20 239.29 337.93 239.12 C 343.83 238.46 349.70 239.92 355.38 241.38 C 368.65 245.14 381.45 250.89 395.29 252.29 C 397.37 250.65 399.58 248.75 400.06 246.00 C 401.51 240.37 397.29 234.92 392.31 232.76 C 386.77 230.45 379.95 228.39 377.57 222.22 C 375.21 215.33 379.09 208.42 382.72 202.76 C 384.37 199.76 387.78 196.88 386.66 193.11 C 385.12 189.08 381.48 186.29 378.04 183.92 C 375.34 181.85 372.74 185.24 370.95 187.00 M 413.75 192.86 C 408.10 196.04 404.31 201.49 400.36 206.46 C 397.95 209.76 395.15 212.98 394.03 216.98 C 393.63 218.66 395.43 219.68 396.60 220.47 C 401.74 223.24 407.33 225.08 412.89 226.83 C 422.74 229.75 432.69 225.46 441.61 221.55 C 453.24 216.16 464.50 209.99 475.65 203.66 C 481.67 199.99 488.05 196.63 493.06 191.56 C 488.06 190.75 482.98 191.03 477.94 190.88 C 462.96 190.49 447.98 189.80 433.00 189.66 C 426.50 189.75 419.62 189.69 413.75 192.86 Z" />
<path fill="#010102" opacity="1.00" d=" M 240.49 212.70 C 250.12 210.37 260.29 213.24 268.51 218.42 C 276.81 223.64 283.70 231.92 285.31 241.81 C 287.34 251.22 288.34 262.03 282.26 270.23 C 276.31 277.91 268.97 285.66 259.09 287.80 C 250.17 289.52 240.98 287.56 232.56 284.51 C 225.87 282.07 220.72 276.53 217.97 270.04 C 215.24 263.58 212.83 256.88 211.73 249.93 C 210.76 244.41 212.05 238.61 215.20 233.99 C 219.47 227.74 225.38 222.90 230.99 217.90 C 233.70 215.47 236.94 213.58 240.49 212.70 M 243.48 218.62 C 238.45 219.27 234.85 223.09 231.24 226.28 C 226.74 230.40 221.93 234.53 219.16 240.08 C 216.71 245.22 218.22 251.07 219.75 256.23 C 221.61 262.01 223.41 268.02 227.14 272.92 C 230.18 276.96 235.13 278.85 239.86 280.12 C 245.88 281.69 252.30 282.92 258.46 281.34 C 265.40 279.59 270.46 274.11 275.09 269.00 C 278.76 264.95 280.85 259.54 280.46 254.05 C 279.87 246.19 278.99 237.63 273.64 231.40 C 266.42 222.79 254.86 216.95 243.48 218.62 Z" />
<path fill="#010102" opacity="1.00" d=" M 97.26 248.24 C 99.41 243.93 104.46 241.66 109.15 242.37 C 121.90 244.00 132.35 252.58 144.83 255.17 C 150.45 256.48 156.35 256.29 161.93 254.90 C 172.84 252.15 184.44 251.07 195.48 253.69 C 198.65 254.56 202.28 256.03 203.55 259.34 C 204.65 261.94 203.04 264.57 201.91 266.85 C 199.80 270.59 197.86 274.74 194.16 277.19 C 189.20 280.59 183.57 282.88 177.85 284.68 C 166.94 287.28 157.64 294.15 149.50 301.61 C 142.13 308.46 136.94 317.57 128.46 323.23 C 124.77 325.81 119.72 325.56 116.12 322.94 C 112.32 320.13 108.48 316.94 106.31 312.66 C 104.35 308.30 106.37 303.52 108.82 299.83 C 112.58 293.86 117.80 288.85 120.84 282.44 C 112.91 276.83 102.05 275.05 96.40 266.50 C 92.63 260.95 94.40 253.77 97.26 248.24 M 103.11 250.99 C 101.14 254.77 99.23 259.94 102.27 263.69 C 108.04 270.61 117.75 271.79 124.55 277.31 C 127.12 279.38 127.79 283.20 126.24 286.09 C 122.51 293.66 115.69 299.30 112.27 307.05 C 110.88 310.33 114.30 312.73 116.27 314.80 C 118.53 316.80 121.74 320.12 124.89 317.86 C 133.05 312.13 138.10 303.17 145.45 296.57 C 152.78 289.89 160.96 283.86 170.25 280.27 C 177.53 278.02 185.17 275.99 191.29 271.24 C 194.14 268.46 195.77 264.69 197.45 261.14 C 190.01 258.14 181.78 258.44 173.95 259.13 C 167.85 259.66 162.07 262.01 155.95 262.32 C 149.35 262.88 142.70 261.67 136.50 259.45 C 127.51 256.37 119.39 250.93 110.01 248.96 C 107.62 248.50 104.40 248.49 103.11 250.99 Z" />
<path fill="#010102" opacity="1.00" d=" M 415.53 248.65 C 419.71 245.33 424.32 241.45 429.99 241.70 C 434.71 242.00 437.94 245.99 440.37 249.62 C 443.09 253.77 446.45 258.55 444.86 263.78 C 443.22 268.40 439.42 271.74 436.09 275.16 C 427.54 283.36 418.70 291.25 410.03 299.32 C 413.03 311.50 416.63 323.56 418.88 335.91 C 419.72 341.40 420.37 348.63 415.02 352.12 C 410.47 354.64 405.14 355.67 399.98 355.89 C 395.30 355.95 393.45 350.85 391.53 347.45 C 385.80 335.29 380.78 322.60 378.37 309.33 C 370.89 304.51 362.22 302.01 353.85 299.21 C 339.68 295.15 325.58 290.49 312.46 283.67 C 306.91 280.83 302.01 276.78 297.96 272.06 C 295.56 269.43 296.31 264.99 299.38 263.23 C 304.14 260.32 309.35 257.78 314.94 257.02 C 325.88 255.89 336.61 259.12 347.03 262.06 C 360.53 266.22 373.96 270.66 387.41 274.97 C 396.82 266.23 405.76 256.99 415.53 248.65 M 418.49 254.58 C 408.41 263.49 398.92 273.03 389.16 282.29 C 374.97 277.76 360.82 273.09 346.60 268.64 C 337.57 266.06 328.41 263.25 318.94 263.15 C 313.23 263.05 308.05 265.74 303.15 268.36 C 306.74 272.02 310.59 275.53 315.22 277.83 C 325.70 283.30 336.87 287.38 348.17 290.81 C 357.28 293.38 366.32 296.28 374.97 300.12 C 377.62 301.35 380.32 302.60 382.59 304.47 C 385.49 306.82 384.76 310.98 385.91 314.20 C 389.38 326.40 393.65 338.52 400.05 349.52 C 404.02 349.10 408.13 348.57 411.67 346.61 C 413.74 344.62 412.91 341.37 412.82 338.84 C 410.68 324.68 405.81 311.04 403.14 297.04 C 413.78 286.72 425.22 277.23 435.48 266.52 C 437.30 264.41 440.16 261.64 438.26 258.70 C 436.05 254.82 433.98 250.23 429.88 248.04 C 425.37 248.31 421.90 251.93 418.49 254.58 Z" />
<path fill="#010102" opacity="1.00" d=" M 66.83 268.79 C 72.98 265.84 79.98 267.32 86.31 268.85 C 94.92 271.14 103.44 274.27 110.98 279.09 C 113.53 280.89 116.63 283.41 116.08 286.92 C 115.00 290.46 112.34 293.22 110.11 296.08 C 105.16 301.77 100.26 307.64 94.26 312.27 C 88.52 316.74 81.21 318.54 74.07 318.94 C 59.71 319.63 45.37 318.42 31.05 317.65 C 20.69 316.84 10.27 316.50 0.00 314.86 L 0.00 308.07 C 6.21 302.40 13.53 298.16 20.59 293.65 C 35.56 284.59 50.72 275.69 66.83 268.79 M 67.42 275.51 C 60.15 278.69 53.12 282.40 46.16 286.20 C 33.20 293.47 20.25 300.85 8.21 309.58 C 25.77 310.94 43.36 312.10 60.96 312.76 C 67.96 312.86 75.08 312.99 81.92 311.25 C 87.78 309.81 92.53 305.79 96.59 301.51 C 101.21 296.62 105.84 291.67 109.63 286.08 C 104.60 282.08 98.56 279.66 92.58 277.47 C 84.57 275.09 75.46 271.24 67.42 275.51 Z" />
<path fill="#010102" opacity="1.00" d=" M 189.65 289.66 C 195.75 286.08 202.88 283.01 210.10 284.42 C 213.12 285.04 216.67 286.04 217.98 289.16 C 219.16 292.53 217.60 296.02 216.13 299.02 C 213.41 304.18 210.61 309.39 206.80 313.85 C 192.87 330.37 176.27 344.30 160.47 358.96 C 163.48 371.15 166.74 383.29 169.61 395.51 C 170.35 399.62 171.52 404.00 170.14 408.11 C 168.89 411.87 164.92 413.62 161.40 414.62 C 157.08 415.75 152.67 417.60 148.13 416.83 C 144.25 416.03 141.58 412.67 140.18 409.17 C 135.58 397.99 134.45 385.78 130.46 374.42 C 129.14 370.55 126.48 366.98 122.56 365.50 C 110.98 360.84 98.12 360.36 86.69 355.27 C 82.69 353.57 79.86 349.44 80.29 345.03 C 80.87 339.91 81.75 334.64 84.17 330.03 C 86.05 326.51 90.25 325.03 94.05 325.15 C 106.91 325.86 119.10 330.90 131.94 331.70 C 139.34 332.06 145.30 327.03 150.51 322.44 C 163.13 311.05 175.06 298.61 189.65 289.66 M 192.44 295.51 C 178.94 303.98 167.74 315.46 156.04 326.14 C 151.21 330.39 146.24 334.87 140.01 336.93 C 136.13 338.27 131.95 338.20 127.92 337.85 C 117.11 336.49 106.72 332.88 95.89 331.72 C 93.77 331.62 90.60 331.18 89.57 333.55 C 87.90 337.46 86.89 341.72 86.78 345.97 C 86.64 348.56 89.54 349.55 91.49 350.38 C 101.10 353.72 111.26 355.04 120.96 358.04 C 124.95 359.28 128.95 361.06 131.82 364.19 C 134.87 367.47 136.49 371.76 137.74 375.98 C 140.31 384.78 141.84 393.85 144.57 402.61 C 145.45 405.17 146.30 407.88 148.17 409.92 C 151.31 411.59 154.88 409.51 158.06 408.91 C 160.23 407.97 163.92 407.96 164.25 405.02 C 164.48 400.21 162.93 395.55 161.92 390.90 C 159.05 379.54 156.18 368.19 153.26 356.85 C 168.14 342.89 183.87 329.77 197.57 314.60 C 203.95 308.07 208.82 300.19 212.27 291.76 C 205.53 288.74 198.25 291.94 192.44 295.51 Z" />
<path fill="#010102" opacity="1.00" d=" M 281.84 292.92 C 281.63 289.45 284.54 286.29 288.07 286.41 C 298.97 286.61 309.18 291.68 317.65 298.27 C 321.13 300.81 323.81 304.29 327.40 306.69 C 333.32 310.74 340.15 313.28 347.09 314.95 C 355.08 316.88 363.46 317.04 371.23 319.88 C 374.62 321.08 377.77 323.54 378.77 327.13 C 380.35 334.33 378.66 342.91 372.56 347.59 C 368.11 351.23 362.00 350.46 356.65 350.76 C 367.51 353.54 379.42 354.46 388.79 361.20 C 396.41 367.00 400.86 375.77 405.47 383.94 C 412.24 396.86 419.25 409.69 424.96 423.14 C 426.40 427.14 428.74 431.66 426.89 435.90 C 424.79 439.17 420.28 438.14 417.46 436.48 C 400.89 427.71 384.85 417.96 369.03 407.90 C 359.74 401.78 349.41 394.61 346.97 382.97 C 344.72 371.69 344.11 360.15 342.77 348.74 C 342.23 348.79 341.69 348.84 341.16 348.90 C 341.06 357.43 344.08 366.11 341.42 374.53 C 340.14 378.79 336.54 382.41 332.04 383.02 C 326.07 383.86 318.86 382.92 315.21 377.53 C 310.87 371.29 310.10 363.45 309.39 356.10 C 308.85 347.33 307.08 338.30 302.20 330.84 C 300.15 327.56 296.75 325.54 294.17 322.74 C 286.72 314.68 281.99 303.96 281.84 292.92 M 288.04 292.75 C 288.59 300.97 291.37 308.99 296.49 315.48 C 299.26 319.66 303.89 322.06 306.78 326.13 C 310.73 331.52 313.02 337.95 314.36 344.46 C 316.26 353.07 315.35 362.21 318.67 370.53 C 319.69 373.09 321.45 375.86 324.39 376.38 C 327.88 377.22 332.98 377.67 334.78 373.73 C 338.61 364.94 333.06 355.34 335.50 346.36 C 336.80 342.59 341.38 341.72 344.84 342.62 C 351.70 344.11 358.81 344.74 365.80 343.86 C 371.64 342.30 373.51 335.26 372.82 329.94 C 372.67 327.42 370.17 326.21 368.07 325.57 C 360.56 323.21 352.60 323.01 345.01 321.04 C 334.87 318.58 324.78 314.27 317.46 306.61 C 309.40 299.19 299.20 293.31 288.04 292.75 M 349.85 355.76 C 351.15 364.70 351.30 373.84 353.56 382.63 C 356.09 391.73 364.58 397.03 371.90 402.07 C 387.93 412.28 404.15 422.24 421.01 431.03 C 415.62 415.91 407.52 401.94 400.18 387.72 C 394.86 378.32 389.75 367.15 378.95 363.05 C 369.53 359.64 359.55 358.16 349.85 355.76 Z" />
<path fill="#010102" opacity="1.00" d=" M 435.30 290.17 C 443.41 287.32 452.82 286.17 460.77 290.15 C 469.10 294.35 474.46 302.57 478.36 310.76 C 480.10 314.22 479.78 318.93 476.58 321.44 C 471.73 325.36 465.43 326.67 459.60 328.46 C 453.78 329.91 447.99 332.11 441.91 331.96 C 436.82 331.61 432.95 327.80 430.19 323.83 C 424.21 315.40 418.59 306.71 412.77 298.17 C 420.27 295.48 427.77 292.78 435.30 290.17 M 422.69 301.39 C 426.90 307.50 430.91 313.75 435.21 319.80 C 437.16 322.37 439.39 325.64 443.03 325.51 C 448.52 325.22 453.75 323.33 459.03 321.96 C 463.61 320.50 468.56 319.48 472.45 316.51 C 473.83 315.62 472.60 313.86 472.22 312.75 C 468.19 304.70 462.34 295.91 452.79 294.24 C 442.18 292.76 432.54 298.47 422.69 301.39 Z" />
<path fill="#010102" opacity="1.00" d=" M 231.31 297.28 C 234.14 295.62 237.95 296.91 239.20 299.93 C 244.45 311.46 244.14 324.61 242.28 336.89 C 239.87 347.42 240.51 358.69 244.20 368.85 C 247.59 376.80 251.89 385.17 250.69 394.07 C 249.27 404.40 235.21 408.72 227.32 402.78 C 219.39 397.25 216.60 387.51 212.15 379.42 C 206.28 382.81 200.51 386.40 194.50 389.56 C 191.08 391.28 187.12 392.79 183.25 391.73 C 178.51 390.33 175.43 386.16 172.29 382.63 C 169.87 379.71 167.09 376.16 168.14 372.12 C 169.06 368.80 171.86 366.49 174.45 364.44 C 182.98 357.96 192.75 353.06 200.24 345.26 C 204.72 340.72 208.44 335.23 209.96 328.97 C 213.06 316.42 219.84 303.94 231.31 297.28 M 215.85 331.80 C 211.89 345.55 200.18 355.11 188.58 362.51 C 183.83 365.80 178.59 368.64 174.74 373.02 C 173.61 374.18 175.10 375.43 175.65 376.48 C 177.98 379.44 180.37 382.45 183.37 384.76 C 186.25 386.88 189.70 384.65 192.45 383.40 C 199.98 379.21 207.40 374.79 214.80 370.35 C 218.45 377.09 221.41 384.18 225.15 390.87 C 227.39 394.46 230.40 398.34 234.85 399.05 C 238.75 399.25 243.93 397.44 244.35 392.92 C 245.06 384.83 240.73 377.55 237.85 370.30 C 234.14 359.33 233.41 347.31 235.91 336.00 C 237.72 325.11 237.85 313.60 233.73 303.19 C 223.96 309.63 218.47 320.69 215.85 331.80 Z" />
<path fill="#010102" opacity="1.00" d=" M 254.85 304.88 C 256.37 301.55 257.97 297.14 262.08 296.45 C 267.44 297.15 271.27 301.51 274.37 305.57 C 281.71 315.89 286.25 327.91 289.81 339.97 C 293.15 351.01 294.27 362.63 298.34 373.45 C 299.86 377.57 302.48 381.76 306.88 383.21 C 311.90 384.89 317.17 385.72 322.16 387.52 C 329.82 390.12 337.98 393.35 342.86 400.17 C 346.06 404.52 346.72 410.29 345.45 415.46 C 344.55 419.30 343.75 423.73 340.37 426.24 C 337.36 428.38 333.48 427.64 330.13 426.91 C 319.20 423.99 308.94 418.97 298.01 416.04 C 293.74 414.69 288.96 415.43 285.45 418.25 C 276.58 425.06 269.23 433.60 260.55 440.64 C 256.36 443.88 251.51 447.90 245.83 446.79 C 240.22 445.26 237.60 439.33 235.35 434.51 C 232.78 428.28 236.18 421.75 240.11 416.96 C 248.43 406.86 258.29 398.19 267.40 388.82 C 263.51 373.23 261.02 357.15 254.82 342.25 C 253.79 339.07 249.81 337.64 249.83 334.01 C 249.01 324.09 251.36 314.12 254.85 304.88 M 256.11 333.12 C 259.13 335.72 260.75 339.43 262.11 343.09 C 267.82 358.55 270.50 374.90 274.49 390.85 C 270.30 394.87 266.24 399.01 262.13 403.10 C 255.87 409.54 249.10 415.56 243.78 422.83 C 242.01 425.40 240.02 428.57 241.23 431.81 C 242.40 434.74 243.89 437.66 246.16 439.91 C 248.19 441.65 250.70 439.58 252.55 438.58 C 263.04 431.19 271.20 421.05 281.36 413.26 C 285.99 409.62 292.15 408.00 297.93 409.45 C 309.94 412.19 320.98 418.05 332.94 420.96 C 334.55 421.14 337.14 421.87 337.59 419.64 C 338.80 416.29 339.81 412.69 339.57 409.10 C 339.17 404.29 335.32 400.80 331.42 398.49 C 323.89 394.13 315.33 392.10 306.96 390.02 C 301.92 388.77 297.41 385.52 294.84 380.98 C 290.73 373.75 289.18 365.47 287.37 357.45 C 284.79 344.19 280.92 331.11 274.92 318.98 C 271.86 313.07 268.41 307.03 262.86 303.10 C 258.16 312.31 255.75 322.78 256.11 333.12 Z" />
<path fill="#010102" opacity="1.00" d=" M 110.08 369.21 C 114.19 368.72 118.74 368.15 122.52 370.26 C 125.58 371.96 126.95 375.62 126.96 378.97 C 127.09 385.11 125.50 391.11 124.04 397.02 C 122.55 402.68 120.14 408.69 114.95 411.92 C 108.81 415.67 101.46 416.40 94.52 417.62 C 89.67 418.25 84.82 419.44 79.89 419.13 C 77.95 419.00 76.69 416.89 76.94 415.06 C 76.98 406.06 76.86 397.00 78.04 388.05 C 78.67 382.83 81.70 377.87 86.59 375.67 C 94.02 372.31 102.13 370.76 110.08 369.21 M 94.34 379.53 C 91.17 380.59 87.51 381.70 85.73 384.79 C 84.24 387.62 84.08 390.89 83.86 394.02 C 83.56 400.24 83.33 406.48 83.29 412.71 C 92.12 411.41 101.22 410.74 109.61 407.52 C 115.10 405.34 116.85 399.18 118.20 394.00 C 119.50 388.12 121.42 382.02 120.05 375.98 C 118.09 375.36 116.05 374.89 113.99 375.20 C 107.31 375.93 100.79 377.70 94.34 379.53 Z" />
<path fill="#010102" opacity="1.00" d=" M 198.26 389.12 C 202.20 386.90 207.42 384.17 211.67 387.21 C 215.97 390.70 217.65 396.29 219.89 401.17 C 222.80 408.79 227.53 416.41 226.28 424.90 C 224.79 433.26 219.76 440.37 215.57 447.58 C 204.72 464.93 194.10 482.47 182.22 499.15 C 179.46 499.15 176.69 499.12 173.93 499.06 C 172.32 491.85 172.52 484.40 172.29 477.06 C 172.47 457.37 173.12 437.62 175.67 418.08 C 176.44 413.56 176.81 408.63 179.73 404.87 C 184.64 398.35 191.10 393.02 198.26 389.12 M 186.15 407.08 C 182.35 411.11 182.48 417.01 181.60 422.13 C 179.11 445.36 178.12 468.80 179.21 492.14 C 190.59 476.02 200.77 459.08 211.23 442.35 C 214.55 436.51 218.55 430.76 219.91 424.08 C 220.79 418.41 217.81 413.24 215.85 408.15 C 213.36 402.67 211.61 396.71 207.74 391.99 C 199.26 394.74 191.99 400.46 186.15 407.08 Z" />
<path fill="#010102" opacity="1.00" d=" M 290.17 424.14 C 296.35 422.91 301.92 426.83 306.48 430.49 C 312.11 435.23 318.27 440.26 320.62 447.52 C 322.47 454.40 319.96 461.37 317.77 467.84 C 316.14 472.19 314.65 476.93 311.10 480.14 C 308.13 482.86 303.55 482.53 300.11 480.96 C 295.28 478.72 291.08 475.39 286.82 472.26 C 281.82 468.56 277.59 463.38 276.43 457.13 C 275.16 450.40 277.49 443.71 279.44 437.35 C 281.31 431.98 284.16 425.73 290.17 424.14 M 291.54 430.45 C 287.84 432.17 286.66 436.59 285.30 440.11 C 283.58 446.00 281.16 452.43 283.50 458.49 C 286.16 464.86 292.52 468.32 297.80 472.25 C 300.47 473.79 303.33 476.34 306.62 475.57 C 309.69 472.55 310.73 468.16 312.21 464.26 C 313.62 459.49 315.79 454.42 314.45 449.39 C 312.37 443.46 307.02 439.57 302.51 435.53 C 299.30 433.22 295.79 429.91 291.54 430.45 Z" />
</g>
<g id="#e3fcffff">
</g>
<g id="#e5fdffff">
</g>
<g id="#defaffff">
</g>
<g id="#010101ff">
<path fill="#010101" opacity="1.00" d=" M 408.18 84.18 C 412.48 83.75 417.98 83.23 420.72 87.40 C 423.48 92.45 422.60 98.50 422.55 104.04 C 422.11 110.45 422.68 117.45 419.23 123.17 C 415.72 128.62 408.87 129.90 402.98 131.08 C 395.96 132.24 388.54 133.96 381.56 131.72 C 377.00 130.29 374.27 125.66 374.07 121.06 C 373.80 114.91 375.35 108.86 376.99 102.99 C 378.51 97.64 381.36 92.28 386.42 89.53 C 393.11 85.98 400.84 85.49 408.18 84.18 M 408.47 90.64 C 402.23 91.71 395.72 92.21 389.92 94.95 C 384.11 98.09 383.02 105.28 381.54 111.09 C 380.87 115.36 379.36 120.24 381.64 124.26 C 384.60 127.12 389.19 126.25 392.93 126.13 C 399.08 125.30 405.42 124.57 411.15 122.05 C 415.22 120.07 415.46 114.96 415.85 111.03 C 416.01 105.36 416.50 99.66 416.07 93.99 C 415.84 92.75 416.02 91.10 414.67 90.46 C 412.62 90.05 410.52 90.40 408.47 90.64 Z" />
</g>
<g id="#dffaffff">
</g>
<g id="#dbf8ffff">
</g>
<g id="#e6fdffff">
</g>
<g id="#dbf8feff">
</g>
<g id="#e4fcffff">
</g>
<g id="#cff3ffff">
</g>
<g id="#daf8ffff">
</g>
<g id="#e5fcffff">
</g>
<g id="#e3fbffff">
</g>
</svg>
