<?xml version="1.0" encoding="UTF-8" ?>
<!DOCTYPE svg PUBLIC "-//W3C//DTD SVG 1.1//EN" "http://www.w3.org/Graphics/SVG/1.1/DTD/svg11.dtd">
<svg width="225pt" height="225pt" viewBox="0 0 225 225" version="1.1" xmlns="http://www.w3.org/2000/svg">
<g id="#ffffffff">
</g>
<g id="#000000ff">
<path fill="#000000" opacity="1.00" d=" M 109.00 4.77 C 112.00 4.79 115.00 4.79 118.00 4.77 C 118.00 9.04 118.00 13.31 118.00 17.58 C 124.04 14.07 130.13 10.66 136.16 7.12 C 136.13 10.54 136.14 13.95 136.17 17.36 C 130.10 20.81 124.05 24.29 118.00 27.76 C 118.00 31.92 118.00 36.08 118.00 40.23 C 128.48 34.16 139.02 28.17 149.49 22.07 C 149.42 25.40 149.58 28.73 149.41 32.05 C 140.67 37.73 131.34 42.58 122.35 47.89 C 128.13 51.15 133.83 54.55 139.64 57.76 C 136.57 59.37 133.67 61.28 130.63 62.92 C 126.45 60.43 122.25 57.99 118.00 55.63 C 117.99 58.88 118.00 62.13 118.00 65.39 C 129.64 71.92 141.07 78.84 152.79 85.23 C 155.81 83.99 158.47 82.06 161.32 80.49 C 157.11 78.08 152.91 75.67 148.70 73.26 C 148.69 69.83 148.71 66.41 148.64 62.98 C 154.39 66.28 160.12 69.62 165.90 72.87 C 165.80 62.46 165.93 52.05 165.88 41.64 C 168.84 39.93 171.84 38.30 174.76 36.51 C 174.67 48.65 174.72 60.79 174.65 72.92 C 178.27 70.74 181.97 68.69 185.62 66.56 C 185.61 59.54 185.57 52.52 185.65 45.49 C 188.62 43.97 191.53 42.32 194.35 40.54 C 194.32 47.54 194.38 54.55 194.33 61.56 C 198.09 59.38 201.91 57.27 205.64 55.02 C 207.04 57.64 208.54 60.21 210.12 62.73 C 206.33 64.85 202.57 67.02 198.79 69.17 C 204.95 72.57 210.93 76.28 217.14 79.59 C 214.15 81.27 211.19 83.03 208.22 84.75 C 202.13 81.24 196.01 77.79 189.97 74.20 C 186.38 76.35 182.74 78.40 179.13 80.50 C 189.68 86.52 200.20 92.60 210.75 98.62 C 207.76 100.29 204.81 102.01 201.86 103.73 C 192.82 98.44 183.65 93.41 174.66 88.04 C 174.69 94.69 174.59 101.34 174.73 107.99 C 171.79 106.20 168.78 104.52 165.80 102.80 C 165.82 97.92 165.80 93.04 165.87 88.16 C 163.02 89.73 160.20 91.36 157.41 93.04 C 157.48 106.45 157.44 119.85 157.43 133.26 C 160.25 134.84 163.07 136.43 165.86 138.07 C 165.81 133.18 165.81 128.29 165.82 123.39 C 168.81 121.73 171.75 119.97 174.70 118.24 C 174.62 124.87 174.68 131.51 174.65 138.15 C 183.68 132.87 192.78 127.72 201.85 122.52 C 204.82 124.21 207.80 125.88 210.75 127.62 C 200.18 133.61 189.66 139.67 179.14 145.75 C 182.81 147.74 186.37 149.91 190.00 151.96 C 196.07 148.45 202.13 144.93 208.23 141.47 C 211.17 143.22 214.14 144.91 217.14 146.54 C 210.97 149.96 204.95 153.65 198.76 157.03 C 202.57 159.11 206.29 161.38 210.13 163.41 C 208.60 165.98 207.06 168.55 205.62 171.16 C 201.90 168.93 198.13 166.80 194.34 164.68 C 194.37 171.65 194.30 178.62 194.37 185.59 C 191.45 183.92 188.53 182.23 185.60 180.56 C 185.61 173.57 185.61 166.58 185.61 159.59 C 181.94 157.52 178.29 155.41 174.65 153.29 C 174.72 165.43 174.68 177.56 174.75 189.69 C 171.83 187.95 168.89 186.24 165.89 184.62 C 165.91 174.18 165.82 163.74 165.89 153.30 C 160.15 156.64 154.35 159.88 148.65 163.28 C 148.70 159.85 148.70 156.43 148.69 153.00 C 152.89 150.49 157.20 148.17 161.39 145.65 C 158.64 144.10 155.89 142.57 153.18 140.97 C 141.50 147.81 129.69 154.43 118.00 161.27 C 118.02 164.39 118.01 167.51 118.00 170.63 C 122.19 168.29 126.26 165.72 130.50 163.47 C 133.71 164.79 136.59 166.77 139.62 168.43 C 133.86 171.69 128.13 175.01 122.40 178.33 C 131.44 183.51 140.47 188.72 149.49 193.95 C 149.45 197.34 149.45 200.74 149.49 204.14 C 139.02 198.04 128.50 192.04 118.00 186.00 C 118.12 190.17 117.72 194.38 118.20 198.54 C 124.14 202.08 130.23 205.37 136.16 208.92 C 136.13 212.32 136.13 215.72 136.16 219.13 C 130.16 215.55 124.08 212.11 117.99 208.67 C 118.02 212.93 118.01 217.18 118.01 221.44 C 115.01 221.40 112.00 221.40 109.00 221.43 C 109.00 217.18 109.00 212.93 109.00 208.68 C 102.95 212.14 96.88 215.57 90.90 219.14 C 90.90 215.72 90.90 212.30 90.90 208.89 C 96.91 205.41 102.93 201.94 108.99 198.55 C 109.00 194.37 109.01 190.19 109.00 186.01 C 98.54 192.08 88.03 198.06 77.57 204.12 C 77.62 200.73 77.61 197.34 77.60 193.95 C 86.60 188.70 95.64 183.52 104.67 178.32 C 98.92 175.03 93.20 171.69 87.44 168.42 C 90.44 166.72 93.43 165.01 96.44 163.32 C 100.62 165.77 104.84 168.15 109.01 170.62 C 109.00 167.44 109.00 164.27 109.00 161.09 C 97.36 154.32 85.64 147.68 73.98 140.94 C 71.24 142.54 68.48 144.10 65.72 145.67 C 69.89 148.18 74.15 150.52 78.34 152.98 C 78.34 156.40 78.34 159.82 78.40 163.24 C 72.70 159.87 66.91 156.65 61.18 153.32 C 61.16 163.75 61.20 174.19 61.16 184.62 C 58.17 186.25 55.24 187.97 52.30 189.69 C 52.52 177.56 52.27 165.43 52.45 153.30 C 48.77 155.41 45.13 157.57 41.42 159.62 C 41.38 166.49 41.62 173.36 41.37 180.23 C 38.94 182.50 35.54 183.75 32.69 185.57 C 32.73 178.61 32.71 171.65 32.71 164.68 C 28.93 166.82 25.16 168.97 21.42 171.17 C 19.99 168.55 18.48 165.98 16.96 163.41 C 20.79 161.39 24.50 159.14 28.30 157.05 C 22.14 153.61 16.08 150.00 9.93 146.55 C 12.93 144.90 15.90 143.21 18.85 141.47 C 24.93 144.94 31.01 148.43 37.05 151.98 C 40.69 149.94 44.24 147.76 47.90 145.76 C 37.41 139.64 26.85 133.62 16.30 127.61 C 19.27 125.91 22.24 124.19 25.22 122.50 C 34.27 127.76 43.41 132.85 52.42 138.16 C 52.38 131.52 52.49 124.88 52.39 118.24 C 55.32 120.00 58.26 121.73 61.24 123.40 C 61.20 128.30 61.20 133.20 61.23 138.11 C 64.08 136.45 66.92 134.76 69.81 133.16 C 69.79 119.83 69.75 106.50 69.83 93.17 C 66.99 91.44 64.10 89.78 61.19 88.18 C 61.22 93.05 61.19 97.92 61.24 102.79 C 58.28 104.51 55.30 106.19 52.36 107.95 C 52.52 101.32 52.37 94.69 52.43 88.06 C 43.39 93.34 34.27 98.48 25.20 103.72 C 22.24 102.01 19.29 100.29 16.31 98.62 C 26.86 92.60 37.38 86.53 47.93 80.50 C 44.30 78.42 40.65 76.38 37.07 74.23 C 31.04 77.80 24.92 81.23 18.85 84.75 C 15.88 83.04 12.94 81.30 9.97 79.61 C 16.12 76.24 22.12 72.61 28.24 69.18 C 24.51 67.00 20.70 64.97 17.01 62.72 C 18.45 60.15 20.02 57.64 21.42 55.05 C 25.17 57.28 28.98 59.39 32.74 61.60 C 32.67 54.59 32.75 47.58 32.70 40.57 C 35.54 42.31 38.45 43.95 41.40 45.50 C 41.51 52.52 41.46 59.53 41.40 66.55 C 45.06 68.72 48.79 70.77 52.43 72.96 C 52.28 60.81 52.53 48.66 52.29 36.51 C 55.22 38.28 58.20 39.95 61.18 41.62 C 61.17 52.03 61.19 62.44 61.17 72.86 C 66.94 69.61 72.69 66.32 78.40 62.97 C 78.33 66.40 78.35 69.84 78.34 73.27 C 74.13 75.69 69.92 78.10 65.70 80.50 C 68.59 82.19 71.47 83.89 74.43 85.47 C 85.88 78.75 97.42 72.14 108.98 65.59 C 109.01 62.27 109.00 58.96 109.01 55.64 C 104.80 58.04 100.59 60.44 96.43 62.92 C 93.41 61.21 90.44 59.42 87.42 57.74 C 93.20 54.36 99.31 51.44 104.72 47.48 C 95.34 43.10 86.71 37.24 77.60 32.32 C 77.61 28.90 77.62 25.48 77.56 22.05 C 88.01 28.17 98.55 34.12 109.00 40.23 C 109.00 36.06 109.00 31.90 109.00 27.74 C 102.95 24.30 96.96 20.77 90.90 17.35 C 90.90 13.94 90.91 10.52 90.87 7.10 C 96.88 10.65 103.00 14.02 109.01 17.57 C 108.99 13.31 109.00 9.04 109.00 4.77 M 113.58 72.92 C 101.94 79.73 90.20 86.39 78.50 93.11 C 78.53 106.56 78.45 120.02 78.54 133.47 C 90.25 140.08 101.91 146.79 113.51 153.58 C 125.30 146.91 137.00 140.08 148.76 133.37 C 148.71 119.98 148.72 106.58 148.75 93.19 C 137.07 86.36 125.29 79.70 113.58 72.92 Z" />
<path fill="#000000" opacity="1.00" d=" M 85.87 97.28 C 95.11 91.98 104.34 86.65 113.58 81.35 C 122.85 86.62 132.06 91.97 141.30 97.25 C 141.27 107.90 141.28 118.54 141.30 129.19 C 132.05 134.50 122.82 139.84 113.56 145.11 C 104.35 139.74 95.06 134.53 85.86 129.15 C 85.88 118.53 85.86 107.90 85.87 97.28 M 94.78 102.37 C 94.76 109.60 94.77 116.83 94.77 124.07 C 101.07 127.62 107.33 131.26 113.60 134.87 C 119.86 131.19 126.20 127.62 132.49 123.96 C 132.45 116.78 132.48 109.59 132.47 102.41 C 126.20 98.73 119.86 95.17 113.57 91.51 C 107.33 95.18 101.01 98.70 94.78 102.37 Z" />
</g>
</svg>
