<?xml version="1.0" encoding="UTF-8" ?>
<!DOCTYPE svg PUBLIC "-//W3C//DTD SVG 1.1//EN" "http://www.w3.org/Graphics/SVG/1.1/DTD/svg11.dtd">
<svg width="500pt" height="486pt" viewBox="0 0 500 486" version="1.1" xmlns="http://www.w3.org/2000/svg">
<g id="#ffffffff">
</g>
<g id="#010506ff">
<path fill="#010506" opacity="1.00" d=" M 185.98 14.39 C 192.39 13.24 198.45 10.19 205.06 10.29 C 207.42 11.91 209.52 14.09 210.04 17.02 C 212.11 25.34 214.58 33.55 216.60 41.88 C 216.89 43.07 217.71 44.01 218.35 45.02 C 219.49 44.64 220.81 44.52 221.68 43.58 C 227.99 37.89 234.26 32.16 240.56 26.46 C 242.40 24.59 245.17 24.85 247.57 24.92 C 248.49 25.61 249.41 26.29 250.34 26.95 C 253.49 32.20 254.03 38.47 255.80 44.22 C 256.79 47.81 258.68 51.78 257.23 55.46 C 251.97 62.08 245.64 67.73 239.86 73.88 C 236.57 77.93 232.29 81.07 229.09 85.21 C 229.47 91.26 231.81 97.16 232.90 103.16 C 234.24 104.02 236.29 105.02 237.58 103.51 C 243.35 98.12 249.32 92.94 254.99 87.43 C 256.48 86.01 258.26 84.99 260.12 84.14 C 264.59 84.12 268.46 87.46 268.99 91.91 C 270.22 98.56 273.12 104.87 273.75 111.61 L 274.44 111.54 C 274.13 117.36 268.53 120.13 265.48 124.43 C 258.74 131.54 251.46 138.14 244.89 145.42 C 246.73 155.02 249.70 164.36 251.95 173.87 C 252.09 175.66 253.59 176.67 254.90 177.64 C 259.49 174.05 263.12 169.40 267.58 165.67 C 270.50 163.39 274.40 164.40 277.24 166.25 C 279.63 171.44 280.85 177.06 282.26 182.56 C 282.58 184.22 284.23 186.42 286.06 185.15 C 289.77 182.54 292.27 178.64 295.59 175.60 C 299.85 171.07 304.74 167.10 308.46 162.08 C 304.92 149.63 302.03 137.00 298.67 124.50 C 298.30 122.30 298.44 119.78 300.16 118.13 C 305.31 112.28 311.26 107.23 316.90 101.88 C 318.56 100.40 320.96 100.84 323.00 100.57 C 325.45 101.76 327.39 103.80 328.07 106.49 C 329.43 106.80 330.02 107.70 328.64 108.51 C 331.67 116.36 333.19 124.78 336.99 132.34 C 339.02 131.85 340.99 131.02 342.22 129.24 C 345.13 125.58 348.96 122.75 351.73 118.98 C 351.47 112.73 348.72 106.93 347.52 100.85 C 346.06 93.52 343.17 86.50 342.38 79.03 C 341.81 74.99 345.72 72.57 348.11 70.00 C 352.13 65.68 356.70 61.93 360.94 57.83 C 363.35 56.12 366.48 56.92 368.98 57.95 C 370.19 59.16 370.80 60.79 371.37 62.37 C 374.00 70.17 375.67 78.31 379.11 85.83 C 379.76 86.95 380.44 88.94 382.16 88.41 C 383.91 87.53 385.31 86.13 386.81 84.88 C 392.76 79.49 397.73 73.05 403.64 67.58 C 406.22 64.98 410.99 64.79 413.48 67.61 C 418.18 72.15 422.76 76.82 427.37 81.45 C 429.73 83.93 429.69 88.02 427.36 90.50 C 420.38 97.98 412.73 104.83 405.85 112.41 C 406.61 113.56 407.18 115.10 408.72 115.39 C 416.37 118.02 424.06 120.50 431.72 123.09 C 433.14 123.63 434.50 124.32 435.84 125.07 C 436.43 126.13 437.06 127.17 437.70 128.21 C 438.78 133.71 433.66 136.90 430.39 140.35 C 425.97 144.34 422.47 149.54 417.12 152.38 C 412.62 152.76 408.37 150.68 404.01 149.90 C 394.84 147.35 385.54 145.33 376.46 142.49 C 372.36 145.34 369.32 149.37 365.49 152.54 C 364.00 154.03 361.34 155.68 363.04 158.05 C 368.07 160.52 373.54 162.12 379.05 163.12 C 378.23 163.54 377.40 163.96 376.58 164.36 C 380.52 163.49 384.20 165.28 387.91 166.36 C 390.70 167.09 392.61 169.47 394.04 171.84 C 393.60 174.02 394.33 176.71 392.47 178.37 C 387.29 183.56 382.43 189.08 377.11 194.15 C 374.80 196.38 371.20 196.75 368.24 195.81 C 356.55 192.39 344.61 189.85 332.97 186.31 C 329.08 188.06 326.65 191.73 323.51 194.46 C 318.68 199.73 313.06 204.28 308.74 209.99 C 309.42 210.76 310.11 211.52 310.81 212.29 C 316.80 213.61 322.69 215.42 328.48 217.46 C 330.20 220.05 331.69 223.76 329.34 226.47 C 325.62 231.34 320.54 234.98 316.82 239.87 C 318.93 242.77 322.79 242.95 325.99 243.76 C 330.18 244.87 334.24 246.42 338.50 247.33 L 336.78 248.64 C 337.47 248.48 337.99 248.04 338.47 247.53 C 342.12 248.03 345.55 249.43 349.15 250.21 C 359.15 240.89 368.39 230.77 378.58 221.66 C 381.79 219.54 385.68 221.48 389.06 222.19 C 395.30 224.44 402.23 224.70 408.06 228.07 C 408.63 229.07 409.20 230.07 409.79 231.08 C 409.74 233.14 409.61 235.20 409.28 237.25 C 403.71 243.02 398.59 249.20 393.12 255.07 C 391.69 256.57 390.49 258.26 389.45 260.04 C 395.12 263.51 402.22 263.46 408.27 266.17 C 413.70 262.03 418.02 256.65 423.02 252.03 C 427.31 247.22 432.64 243.50 436.78 238.54 C 439.57 236.33 443.20 236.22 446.47 237.42 C 452.60 239.49 459.06 240.43 465.16 242.62 C 467.41 243.42 468.55 245.58 469.73 247.49 C 469.36 249.67 469.56 252.15 468.21 254.03 C 461.83 261.22 453.77 267.21 449.26 275.86 C 452.27 279.16 457.04 279.35 461.04 280.61 L 458.67 281.58 C 460.30 281.26 461.94 280.72 463.59 281.36 C 468.81 282.76 474.44 283.09 479.31 285.53 C 479.35 285.82 479.44 286.40 479.49 286.69 C 479.72 286.40 480.18 285.83 480.41 285.55 C 483.66 286.97 484.55 290.90 483.91 294.10 C 482.80 299.81 480.72 305.27 479.32 310.92 C 478.68 313.97 476.40 317.06 473.04 317.18 C 468.08 317.09 463.59 314.73 458.83 313.67 C 453.03 312.38 447.45 310.02 441.48 309.62 C 441.14 309.99 440.46 310.72 440.12 311.09 C 439.92 320.30 443.58 328.94 444.99 337.93 C 445.42 340.03 444.98 342.13 444.40 344.15 C 443.09 345.11 441.80 346.08 440.52 347.07 C 439.08 346.99 437.62 347.09 436.23 346.77 C 428.90 344.47 421.29 343.15 414.09 340.47 C 410.32 338.43 409.99 333.79 409.04 330.09 C 406.10 319.57 403.39 309.00 400.35 298.52 C 394.40 296.18 387.43 296.20 382.18 292.35 C 378.87 295.47 381.87 299.79 381.81 303.53 L 382.21 303.36 C 382.43 311.02 385.93 318.28 385.59 325.95 C 384.63 329.10 381.21 331.89 377.77 330.95 C 370.30 329.40 362.97 327.23 355.61 325.23 C 353.91 324.51 352.26 323.32 351.66 321.51 C 349.13 314.14 347.53 306.51 345.13 299.10 C 343.49 293.92 342.70 288.45 340.48 283.46 C 339.84 281.87 337.91 281.80 336.52 281.34 C 328.91 279.14 321.14 277.58 313.57 275.25 C 311.60 274.98 308.82 273.42 307.79 275.95 C 308.09 282.80 311.83 289.15 311.25 296.06 C 309.81 297.48 308.32 298.83 306.76 300.11 C 302.77 300.23 299.00 298.84 295.19 297.90 C 292.72 297.50 290.30 296.92 287.91 296.21 C 287.07 296.74 286.24 297.27 285.41 297.80 C 287.19 307.42 290.78 316.66 292.75 326.25 C 293.12 327.21 293.55 328.15 294.03 329.06 C 300.19 331.09 306.50 332.65 312.74 334.44 C 319.22 336.74 326.10 337.75 332.50 340.32 C 336.23 341.74 336.58 346.33 337.67 349.56 C 337.28 349.38 336.48 349.02 336.09 348.84 C 339.06 350.49 338.85 354.19 339.76 357.04 C 340.59 361.27 342.94 365.29 342.35 369.72 C 341.29 371.88 339.36 373.37 337.36 374.60 C 336.69 374.17 336.03 373.74 335.37 373.33 C 335.41 373.65 335.49 374.29 335.54 374.61 L 332.42 374.98 L 332.95 373.16 C 332.67 373.43 332.11 373.98 331.83 374.26 C 323.38 372.38 314.85 370.92 306.44 368.89 C 305.98 369.42 305.08 370.47 304.63 370.99 C 306.08 376.31 307.81 381.55 309.14 386.90 C 309.27 388.25 310.46 389.00 311.31 389.92 C 323.29 392.56 335.05 396.14 346.92 399.23 C 349.70 399.72 351.73 402.00 352.54 404.62 C 354.51 410.72 355.58 417.08 357.63 423.17 C 358.37 425.09 358.40 427.16 358.17 429.19 C 357.34 431.50 355.26 432.92 353.39 434.34 C 342.48 434.27 332.35 427.93 321.29 429.20 C 320.58 434.18 323.00 438.81 323.90 443.60 C 325.27 450.26 328.77 456.57 328.39 463.51 C 325.30 469.00 318.61 468.64 313.40 470.54 C 309.06 471.93 304.28 473.92 299.76 472.23 C 296.53 471.13 296.43 467.20 295.41 464.50 C 293.37 456.41 291.11 448.38 289.22 440.26 C 288.77 439.80 287.89 438.88 287.44 438.42 C 285.94 438.69 284.60 439.41 283.54 440.50 C 277.44 446.11 271.17 451.53 265.23 457.31 C 261.65 459.61 256.17 458.56 254.34 454.55 C 251.80 447.67 250.46 440.43 248.37 433.42 C 247.94 431.98 248.02 430.46 247.91 428.99 C 250.26 424.44 254.62 421.52 257.69 417.51 C 264.18 410.66 271.21 404.32 277.51 397.28 C 276.02 392.26 274.56 387.23 273.26 382.15 C 273.04 380.57 271.82 379.52 270.76 378.47 C 262.94 384.35 256.17 391.53 248.66 397.79 C 248.08 398.03 246.92 398.49 246.35 398.73 C 243.16 399.01 239.51 397.92 238.28 394.66 C 235.74 387.40 234.35 379.80 232.25 372.41 C 230.84 367.24 236.14 364.31 239.04 361.00 C 246.21 352.88 254.47 345.80 261.57 337.63 C 258.80 327.92 256.13 318.19 253.59 308.43 C 252.92 307.39 252.04 306.52 251.24 305.60 C 246.27 309.89 242.16 315.24 236.60 318.78 C 231.83 320.56 227.24 316.60 227.05 311.84 C 224.93 307.11 225.14 301.18 221.47 297.29 C 215.76 301.67 211.39 307.46 206.12 312.33 C 203.49 315.38 199.83 317.63 198.01 321.31 C 198.44 324.22 199.48 327.01 200.07 329.90 C 201.25 335.30 203.09 340.54 204.20 345.96 C 205.39 351.55 208.10 356.94 207.57 362.78 C 202.12 369.21 195.93 374.97 189.94 380.89 C 187.69 383.42 183.24 383.62 180.89 381.14 C 176.94 378.29 177.26 372.98 175.44 368.90 C 173.04 363.25 172.47 356.89 169.29 351.58 C 168.74 351.48 167.65 351.28 167.11 351.18 C 162.65 355.72 157.97 360.09 153.95 365.02 C 157.21 377.34 160.25 389.72 163.24 402.11 C 164.09 404.95 163.18 407.96 161.02 409.95 C 155.39 415.42 150.07 421.21 144.21 426.44 C 142.55 426.41 140.90 426.40 139.24 426.42 C 137.63 425.10 135.71 423.90 135.00 421.84 C 132.24 413.91 129.87 405.85 126.98 397.97 C 126.43 396.02 124.86 394.64 123.44 393.30 C 123.39 393.82 123.30 394.87 123.25 395.40 C 115.73 401.82 109.21 409.32 101.99 416.07 C 100.14 418.06 96.95 418.24 94.57 417.27 C 90.82 414.44 87.76 410.80 84.40 407.53 C 81.99 405.00 79.16 402.76 77.39 399.70 C 76.57 397.10 77.20 394.13 79.17 392.20 C 85.39 385.76 91.85 379.55 98.14 373.16 C 99.30 372.10 100.66 370.15 99.11 368.83 C 90.03 364.97 80.22 362.93 71.12 359.10 C 68.13 357.73 68.43 354.01 68.30 351.28 C 74.21 344.00 80.71 337.06 87.93 331.05 C 96.55 331.11 104.70 334.69 113.06 336.47 C 118.75 337.54 124.18 339.73 129.90 340.62 C 134.79 337.73 137.87 332.48 142.61 329.27 C 142.83 327.98 144.34 326.15 142.71 325.22 C 136.90 322.08 130.21 321.01 124.07 318.66 C 120.41 317.21 115.93 317.05 113.24 313.81 C 110.56 311.50 111.60 307.16 113.91 304.96 C 119.48 299.19 124.69 293.00 130.89 287.88 C 134.44 285.93 138.43 288.18 142.02 288.96 C 150.71 290.82 159.18 293.60 167.88 295.45 C 169.25 295.47 169.77 296.95 170.83 297.43 C 172.45 296.98 174.30 296.86 175.57 295.62 C 181.63 289.66 187.58 283.59 193.69 277.68 C 195.08 276.36 196.22 274.81 197.27 273.22 C 196.17 272.45 195.24 271.35 193.90 271.00 C 188.39 269.42 182.72 268.23 177.51 265.76 C 176.02 263.25 175.20 260.07 176.52 257.31 C 179.81 253.04 183.81 249.36 187.57 245.52 C 188.88 244.21 188.91 241.66 186.91 240.99 C 177.00 238.35 167.02 235.94 157.10 233.36 C 148.85 240.54 141.84 249.05 133.47 256.10 C 130.61 258.58 128.28 262.85 123.97 262.61 C 118.81 262.43 114.09 260.00 109.06 259.04 C 104.77 257.81 99.41 257.58 96.67 253.53 C 94.90 251.03 96.00 247.91 97.15 245.42 C 103.24 239.15 109.08 232.64 114.90 226.13 C 115.03 226.63 115.31 227.64 115.45 228.14 C 115.12 226.38 115.46 224.63 115.72 222.90 C 115.06 222.31 114.40 221.72 113.74 221.13 C 108.37 220.29 103.15 218.76 97.89 217.46 C 96.34 217.81 95.17 218.94 94.05 220.00 C 86.96 226.92 80.15 234.13 72.90 240.90 C 70.09 243.92 66.66 247.56 62.06 246.22 C 54.16 243.79 45.94 242.39 38.22 239.35 C 35.59 236.39 35.60 231.41 38.51 228.62 C 43.05 223.73 47.34 218.61 51.90 213.75 C 53.74 211.65 56.23 209.79 56.49 206.81 C 52.47 204.14 47.43 204.36 43.03 202.68 C 42.53 203.04 42.03 203.40 41.54 203.78 C 41.44 203.26 41.24 202.22 41.14 201.70 C 37.15 201.41 33.33 200.19 29.45 199.30 C 26.19 198.61 22.78 196.43 21.90 193.05 C 21.71 186.86 24.71 181.16 25.73 175.15 C 26.52 172.06 27.09 167.97 30.48 166.65 C 35.71 164.05 41.14 168.15 46.31 169.00 C 52.81 170.09 58.89 173.38 65.54 173.48 C 65.77 172.17 66.11 170.84 65.75 169.52 C 64.42 162.97 63.18 156.41 61.48 149.95 C 60.66 147.13 60.56 144.19 60.45 141.27 C 61.68 139.32 63.44 137.83 65.29 136.49 C 71.34 136.36 77.02 138.86 82.85 140.13 C 87.15 141.77 93.75 141.59 95.01 147.11 C 97.67 156.47 100.51 165.79 102.95 175.20 C 104.14 178.60 104.16 183.00 107.28 185.32 C 112.52 186.79 117.75 188.46 123.12 189.39 C 125.10 190.00 126.38 187.61 125.63 185.99 C 124.04 179.73 122.91 173.37 121.50 167.08 C 120.86 163.83 119.05 160.24 120.74 157.02 C 121.86 154.24 124.77 151.95 127.88 152.43 C 132.40 153.09 136.68 154.88 141.25 155.39 L 138.63 156.60 C 139.62 156.42 140.57 156.11 141.56 155.93 C 145.58 156.84 149.67 157.76 153.38 159.63 C 156.51 165.72 157.28 172.60 159.31 179.07 C 161.54 186.22 162.84 193.65 165.52 200.65 C 170.66 202.73 176.20 203.80 181.56 205.27 C 186.45 206.28 191.12 208.29 196.11 208.83 C 197.40 209.04 199.18 207.55 198.34 206.16 C 197.08 201.08 195.51 196.06 194.46 190.93 C 193.68 186.24 198.54 181.84 203.16 183.07 C 208.39 184.42 213.57 186.17 218.90 186.98 C 219.28 186.62 220.05 185.89 220.43 185.53 C 219.60 182.28 219.08 178.97 218.10 175.77 C 215.91 169.05 215.07 161.96 212.52 155.35 C 211.93 153.90 210.26 153.50 208.92 153.08 C 197.77 149.87 186.51 147.06 175.36 143.87 C 172.49 143.25 169.88 141.10 169.28 138.13 C 168.08 132.41 165.99 126.93 164.89 121.18 C 164.16 118.57 163.51 115.78 164.27 113.10 C 166.00 109.78 170.08 107.77 173.74 108.94 C 182.22 111.03 190.81 112.57 199.33 114.47 C 199.72 114.08 200.50 113.30 200.89 112.91 C 200.10 106.66 197.61 100.82 196.29 94.69 C 192.44 92.81 188.20 92.05 184.10 90.91 C 176.45 88.51 168.69 86.51 160.99 84.32 C 159.57 84.29 158.86 83.04 158.09 82.10 L 158.69 84.21 C 155.99 82.61 153.78 80.29 153.05 77.17 C 151.62 70.42 149.23 63.89 148.00 57.09 C 147.29 53.48 150.16 49.64 153.83 49.30 C 156.79 48.79 159.76 49.63 162.64 50.27 C 169.56 52.06 176.59 53.41 183.61 54.76 C 183.95 54.28 184.62 53.30 184.95 52.82 C 184.07 47.04 181.75 41.62 180.65 35.88 C 179.65 30.63 176.70 25.65 177.41 20.16 C 178.53 16.43 182.48 14.91 185.98 14.39 Z" />
</g>
</svg>
