<?xml version="1.0" encoding="UTF-8" ?>
<!DOCTYPE svg PUBLIC "-//W3C//DTD SVG 1.1//EN" "http://www.w3.org/Graphics/SVG/1.1/DTD/svg11.dtd">
<svg width="225pt" height="225pt" viewBox="0 0 225 225" version="1.1" xmlns="http://www.w3.org/2000/svg">
<g id="#ffffffff">
</g>
<g id="#000000ff">
<path fill="#000000" opacity="1.00" d=" M 112.25 0.00 L 113.61 0.00 C 114.76 0.64 116.26 1.15 116.44 2.68 C 116.79 6.83 116.45 11.02 116.57 15.19 C 119.80 12.82 122.79 10.11 126.17 7.97 C 129.58 6.11 132.99 10.78 130.53 13.55 C 126.12 17.35 121.35 20.75 116.68 24.23 C 116.40 33.71 116.69 43.20 116.52 52.68 C 124.86 46.57 132.96 40.13 141.35 34.09 C 144.88 32.33 148.17 37.76 145.19 40.17 C 135.74 47.64 125.83 54.54 116.50 62.15 C 116.64 66.51 116.52 70.88 116.58 75.24 C 124.61 69.38 132.56 63.40 140.60 57.56 C 142.87 55.60 146.68 58.02 146.15 60.88 C 145.11 70.81 144.04 80.74 142.89 90.67 C 147.90 87.85 152.86 84.94 157.83 82.05 C 159.17 70.06 160.70 58.10 162.11 46.13 C 162.99 42.27 169.51 42.85 169.32 46.94 C 168.46 57.10 166.76 67.18 165.86 77.33 C 172.92 73.49 179.75 69.25 186.81 65.40 C 188.06 59.44 188.11 53.26 189.35 47.31 C 190.61 44.19 195.70 44.68 196.26 48.05 C 196.47 52.26 195.10 56.35 195.12 60.56 C 198.48 58.61 201.79 56.56 205.22 54.75 C 208.57 53.04 212.05 57.74 209.53 60.44 C 206.20 63.08 202.20 64.76 198.62 67.03 C 202.37 68.71 206.30 70.04 209.91 72.01 C 213.09 74.00 210.62 79.51 206.98 78.43 C 201.31 76.49 196.03 73.52 190.31 71.73 C 183.50 75.99 176.39 79.76 169.49 83.88 C 178.87 88.07 188.48 91.77 197.78 96.12 C 201.43 98.18 198.15 104.36 194.43 102.54 C 183.41 97.97 172.47 93.18 161.48 88.52 C 156.65 91.48 151.40 93.87 146.84 97.22 C 155.95 101.09 164.97 105.14 174.01 109.17 C 176.88 110.27 176.88 114.72 174.02 115.83 C 164.98 119.85 155.96 123.91 146.85 127.77 C 151.35 131.14 156.64 133.44 161.40 136.48 C 172.87 131.71 184.20 126.63 195.71 121.96 C 198.94 122.39 200.89 126.88 197.86 128.85 C 188.55 133.24 178.87 136.85 169.52 141.16 C 176.44 145.22 183.50 149.04 190.31 153.27 C 196.04 151.48 201.33 148.49 207.01 146.56 C 210.63 145.50 213.05 150.95 209.94 152.97 C 206.32 154.96 202.37 156.29 198.61 157.97 C 202.05 160.04 205.67 161.83 209.00 164.07 C 211.98 166.11 209.63 171.43 206.06 170.51 C 202.14 168.96 198.72 166.34 194.96 164.43 C 195.27 168.61 196.38 172.72 196.26 176.93 C 195.70 180.36 190.54 180.80 189.31 177.62 C 188.14 171.67 188.05 165.53 186.80 159.59 C 179.74 155.75 172.91 151.51 165.86 147.67 C 166.75 157.80 168.45 167.86 169.31 177.99 C 169.55 182.06 162.99 182.77 162.11 178.88 C 160.71 166.90 159.18 154.93 157.83 142.95 C 152.88 140.07 147.93 137.17 142.95 134.34 C 143.74 141.93 144.64 149.51 145.40 157.12 C 145.68 160.05 146.48 163.02 145.99 165.98 C 144.93 167.83 142.40 168.98 140.58 167.45 C 132.56 161.57 124.59 155.64 116.58 149.76 C 116.55 155.46 116.58 161.16 116.56 166.86 C 126.18 174.10 135.83 181.30 145.36 188.67 C 148.28 191.27 144.15 196.85 140.87 194.42 C 132.67 188.43 124.66 182.18 116.55 176.06 C 116.63 184.27 116.48 192.48 116.63 200.69 C 121.30 204.23 126.08 207.64 130.56 211.41 C 132.90 214.22 129.44 218.86 126.09 217.07 C 122.78 214.83 119.76 212.21 116.57 209.81 C 116.50 213.75 116.68 217.70 116.52 221.65 C 116.55 223.43 114.96 224.33 113.56 225.00 L 112.20 225.00 C 111.69 224.71 110.67 224.12 110.16 223.83 C 108.12 219.52 109.74 214.42 109.25 209.81 C 105.82 212.30 102.61 215.21 98.87 217.20 C 95.33 218.66 92.11 213.63 95.13 211.17 C 99.68 207.48 104.58 204.22 109.22 200.63 C 109.26 192.44 109.21 184.24 109.24 176.05 C 101.45 182.07 93.49 187.85 85.61 193.74 C 84.12 194.99 81.79 195.63 80.29 194.03 C 77.93 192.53 78.86 189.18 80.97 187.94 C 90.35 180.89 99.82 173.94 109.22 166.90 C 109.25 161.18 109.23 155.47 109.23 149.75 C 101.28 155.62 93.23 161.37 85.23 167.17 C 83.29 168.87 80.22 168.24 79.04 165.99 C 78.53 163.35 79.24 160.69 79.52 158.07 C 80.34 150.14 81.18 142.21 82.11 134.29 C 78.19 136.62 74.14 138.72 70.33 141.23 C 69.01 153.41 67.59 165.58 65.92 177.72 C 64.24 180.86 58.63 179.84 58.88 176.05 C 59.98 165.90 61.30 155.76 62.53 145.62 C 54.41 150.26 46.36 155.04 38.19 159.60 C 36.95 165.55 36.84 171.70 35.67 177.66 C 34.42 180.78 29.35 180.35 28.75 176.99 C 28.60 172.76 29.73 168.63 30.04 164.43 C 26.29 166.36 22.85 168.92 18.95 170.51 C 15.39 171.37 13.02 166.14 15.99 164.07 C 19.32 161.83 22.95 160.04 26.39 157.97 C 22.62 156.29 18.68 154.96 15.06 152.97 C 11.98 150.95 14.31 145.63 17.93 146.53 C 23.62 148.48 28.93 151.45 34.67 153.28 C 42.61 148.43 50.75 143.90 58.81 139.25 C 49.70 135.26 40.50 131.48 31.39 127.51 C 29.96 126.96 28.61 125.64 28.86 123.98 C 28.65 121.32 31.94 119.40 34.20 120.79 C 45.10 125.33 55.94 130.04 66.81 134.68 C 70.63 132.39 74.52 130.21 78.38 127.97 C 69.27 123.89 60.10 119.95 51.01 115.84 C 48.13 114.75 48.10 110.28 50.98 109.17 C 60.08 105.06 69.26 101.11 78.38 97.03 C 74.52 94.79 70.64 92.61 66.81 90.33 C 55.70 95.04 44.65 99.89 33.50 104.49 C 29.92 105.81 26.95 100.29 30.22 98.12 C 39.61 93.73 49.30 89.99 58.77 85.78 C 50.77 81.05 42.60 76.60 34.68 71.72 C 29.83 73.28 25.26 75.59 20.56 77.52 C 19.16 78.02 17.62 78.97 16.11 78.32 C 13.10 77.63 12.76 72.84 15.60 71.69 C 19.12 69.98 22.79 68.58 26.39 67.03 C 23.33 65.27 20.28 63.53 17.22 61.78 C 15.85 61.00 14.46 59.85 14.66 58.08 C 14.46 55.49 17.57 53.59 19.82 54.77 C 23.28 56.59 26.59 58.70 30.04 60.57 C 29.73 56.39 28.62 52.28 28.74 48.07 C 29.31 44.65 34.41 44.20 35.67 47.37 C 36.87 53.30 36.95 59.44 38.18 65.39 C 46.34 69.96 54.40 74.73 62.53 79.38 C 61.26 69.58 60.20 59.75 58.91 49.94 C 58.58 48.30 59.26 46.44 60.85 45.73 C 63.16 44.55 66.52 46.38 66.24 49.13 C 67.66 60.67 69.15 72.21 70.34 83.78 C 74.15 86.26 78.17 88.40 82.11 90.66 C 81.01 80.78 80.02 70.88 78.87 61.00 C 78.41 58.13 82.07 55.69 84.51 57.36 C 92.81 63.23 101.01 69.25 109.24 75.25 C 109.25 70.82 109.18 66.40 109.27 61.98 C 100.01 54.77 90.45 47.94 81.11 40.84 C 80.30 40.01 78.97 39.28 78.98 37.98 C 78.29 35.05 82.19 32.62 84.60 34.37 C 92.86 40.41 101.03 46.58 109.26 52.68 C 109.19 43.24 109.27 33.80 109.21 24.37 C 104.75 20.96 100.18 17.70 95.70 14.33 C 94.02 13.14 93.15 10.38 94.87 8.87 C 96.16 7.16 98.91 7.28 100.42 8.63 C 103.37 10.80 106.34 12.95 109.25 15.18 C 109.29 11.22 109.09 7.27 109.31 3.32 C 109.45 1.61 110.72 0.56 112.25 0.00 M 87.15 68.45 C 88.48 77.40 89.18 86.43 90.34 95.40 C 96.75 98.81 102.97 102.55 109.25 106.20 C 109.21 98.92 109.25 91.63 109.22 84.35 C 101.87 79.05 94.63 73.58 87.15 68.45 M 116.68 84.21 C 116.44 91.53 116.61 98.86 116.59 106.19 C 122.81 102.46 129.18 98.96 135.34 95.15 C 136.31 86.25 137.25 77.34 138.14 68.42 C 130.97 73.66 123.91 79.06 116.68 84.21 M 61.78 112.55 C 70.12 116.11 78.27 120.20 86.77 123.35 C 92.66 119.39 99.08 116.22 105.11 112.46 C 99.01 108.85 92.67 105.56 86.77 101.65 C 78.28 104.86 70.05 108.79 61.78 112.55 M 119.91 112.44 C 125.91 116.26 132.36 119.39 138.24 123.35 C 146.74 120.18 154.90 116.11 163.23 112.53 C 154.95 108.82 146.73 104.85 138.24 101.65 C 132.34 105.55 126.01 108.83 119.91 112.44 M 90.21 129.80 C 89.32 138.73 88.39 147.66 87.16 156.55 C 94.63 151.42 101.88 145.95 109.22 140.64 C 109.24 133.35 109.23 126.07 109.23 118.78 C 102.96 122.57 96.55 126.12 90.21 129.80 M 116.76 118.81 C 116.37 126.10 116.59 133.43 116.64 140.73 C 123.87 145.93 130.96 151.31 138.14 156.58 C 137.23 147.65 136.33 138.72 135.32 129.82 C 129.22 126.02 122.83 122.67 116.76 118.81 Z" />
</g>
</svg>
