<?xml version="1.0" encoding="UTF-8" ?>
<!DOCTYPE svg PUBLIC "-//W3C//DTD SVG 1.1//EN" "http://www.w3.org/Graphics/SVG/1.1/DTD/svg11.dtd">
<svg width="197pt" height="255pt" viewBox="0 0 197 255" version="1.1" xmlns="http://www.w3.org/2000/svg">
<g id="#ffffffff">
</g>
<g id="#010101ff">
<path fill="#010101" opacity="1.00" d=" M 96.36 43.30 C 98.02 43.28 99.68 43.26 101.35 43.23 C 101.29 46.86 101.24 50.49 101.29 54.11 C 106.60 51.04 111.93 47.98 117.25 44.93 C 117.13 46.87 116.93 48.81 116.86 50.76 C 112.44 53.12 108.27 55.92 103.77 58.15 C 107.93 60.63 111.99 64.29 117.20 63.55 C 117.17 68.75 117.11 73.94 117.32 79.14 C 120.82 72.53 124.77 66.19 128.38 59.65 C 128.16 63.95 127.67 68.25 127.74 72.56 L 128.62 72.47 C 128.35 73.53 127.82 75.64 127.55 76.70 C 133.26 75.42 137.79 71.13 142.92 68.44 C 139.01 74.84 135.36 81.39 131.62 87.89 C 136.44 85.33 140.98 82.27 145.87 79.86 C 146.72 81.32 147.58 82.78 148.47 84.23 C 151.31 85.63 154.04 87.26 156.69 89.00 C 156.76 83.84 156.80 78.68 156.69 73.52 C 158.36 72.54 160.03 71.56 161.70 70.57 C 161.57 76.70 161.55 82.82 161.59 88.95 C 164.69 86.98 167.95 85.29 171.04 83.29 C 171.88 84.68 172.73 86.07 173.60 87.44 C 170.34 89.31 167.15 91.29 163.86 93.11 C 169.27 96.06 174.56 99.22 179.97 102.16 C 178.07 103.15 176.18 104.26 174.06 104.70 C 170.07 101.96 165.73 99.76 161.64 97.17 C 161.85 101.44 160.50 106.21 163.12 109.99 C 163.28 110.38 163.60 111.15 163.76 111.54 C 159.12 113.89 154.61 116.53 150.28 119.42 C 157.50 119.45 164.72 119.41 171.94 119.44 C 166.98 122.24 162.06 125.11 157.13 127.97 C 162.14 130.45 166.94 133.33 171.82 136.06 C 164.64 136.33 157.46 136.00 150.28 136.24 C 154.60 139.24 159.27 141.67 163.87 144.21 C 160.92 148.41 161.69 153.52 161.66 158.34 C 165.62 156.34 169.34 153.92 173.20 151.75 C 175.50 150.19 177.79 152.52 179.81 153.48 C 174.65 156.67 169.28 159.49 164.09 162.63 C 166.47 163.99 168.83 165.41 171.22 166.77 C 171.81 167.08 173.00 167.71 173.59 168.02 C 172.76 169.50 171.97 171.00 171.17 172.49 C 168.13 170.36 164.84 168.65 161.60 166.86 C 161.72 172.90 161.68 178.94 161.63 184.98 C 160.02 184.10 158.41 183.22 156.80 182.34 C 156.80 177.16 156.83 171.98 156.78 166.81 C 152.66 169.16 147.85 171.00 145.85 175.69 C 140.99 173.56 136.73 170.33 131.97 168.01 C 135.54 174.34 139.26 180.58 142.90 186.86 C 137.91 184.23 133.15 181.20 128.21 178.48 C 128.36 183.59 128.16 188.70 128.47 193.80 L 127.26 193.77 C 124.15 187.74 120.28 182.14 117.36 176.01 C 117.17 181.48 117.23 186.95 117.25 192.43 C 112.16 191.63 108.13 195.10 103.89 197.27 C 108.20 200.10 112.59 202.81 117.24 205.05 C 117.26 206.97 117.28 208.88 117.29 210.81 C 112.01 207.77 106.76 204.69 101.44 201.73 C 101.41 205.36 101.43 209.00 101.46 212.64 C 99.83 212.60 98.20 212.58 96.57 212.56 C 96.63 208.90 96.63 205.24 96.63 201.58 C 91.35 204.69 86.05 207.77 80.73 210.81 C 80.85 208.93 80.58 206.98 81.05 205.15 C 85.09 202.68 89.18 200.30 93.35 198.06 C 93.41 197.78 93.54 197.24 93.60 196.97 C 89.49 194.98 85.68 191.52 80.79 192.46 C 80.80 187.19 80.81 181.93 80.82 176.66 C 76.95 182.86 73.45 189.28 69.80 195.61 C 69.58 189.92 69.76 184.22 69.69 178.53 C 64.81 181.16 60.24 184.32 55.32 186.88 C 56.10 185.47 56.91 184.09 57.72 182.71 C 60.46 177.75 63.55 172.98 66.16 167.94 C 61.50 170.45 56.96 173.16 52.45 175.92 C 51.33 174.54 50.30 173.09 49.36 171.59 C 48.52 171.12 47.68 170.64 46.85 170.17 C 44.99 169.10 43.14 168.03 41.26 166.99 C 41.11 172.07 41.21 177.14 41.24 182.22 C 39.62 183.20 37.98 184.16 36.36 185.14 C 36.36 179.08 36.38 173.01 36.40 166.94 C 33.16 168.75 29.89 170.50 26.82 172.59 C 25.95 171.19 25.09 169.78 24.22 168.38 C 27.43 166.49 30.64 164.62 33.88 162.79 C 28.71 159.64 23.43 156.66 18.11 153.78 C 20.11 152.65 22.41 150.18 24.79 151.88 C 28.66 154.04 32.35 156.57 36.42 158.36 C 36.32 153.57 37.13 148.51 34.02 144.44 C 38.69 141.78 43.34 139.09 48.03 136.45 C 40.51 136.31 33.00 136.35 25.48 136.41 C 30.45 133.73 35.48 131.13 40.24 128.09 C 35.93 124.59 30.54 122.65 25.84 119.70 C 33.21 119.43 40.60 119.99 47.96 119.41 C 44.81 117.80 41.75 116.01 38.77 114.12 C 37.16 113.26 35.55 112.41 33.94 111.55 C 36.91 107.29 36.32 102.13 36.30 97.22 C 31.81 99.67 27.64 102.75 22.93 104.76 C 21.09 104.19 19.49 103.06 17.80 102.17 C 23.33 99.44 28.57 96.19 33.90 93.10 C 30.64 91.40 27.51 89.46 24.28 87.71 C 25.08 86.25 25.90 84.79 26.73 83.34 C 29.84 85.33 33.05 87.18 36.31 88.93 C 36.24 82.83 36.32 76.73 36.27 70.63 C 37.91 71.67 39.56 72.70 41.19 73.78 C 41.11 78.82 41.16 83.86 41.19 88.90 C 43.90 87.32 46.62 85.75 49.38 84.27 C 50.23 82.83 51.07 81.39 51.93 79.96 C 56.73 82.39 61.20 85.43 66.01 87.86 C 62.30 81.38 58.35 75.03 54.87 68.42 C 59.56 71.72 64.65 74.42 69.60 77.29 C 69.75 71.73 69.44 66.16 69.60 60.59 C 73.34 66.85 77.01 73.16 80.45 79.59 C 80.83 74.23 80.54 68.85 80.63 63.48 C 85.86 64.35 89.85 60.52 94.05 58.14 C 89.46 55.90 85.25 52.97 80.68 50.69 C 80.71 48.79 80.71 46.88 80.73 44.98 C 82.90 46.22 85.04 47.52 87.17 48.83 C 89.78 50.28 92.47 51.61 94.89 53.37 C 95.30 53.52 96.11 53.82 96.51 53.97 C 96.48 50.41 96.46 46.86 96.36 43.30 M 90.50 75.63 C 90.47 82.22 90.42 88.80 90.47 95.38 C 93.37 93.76 96.20 92.00 99.05 90.30 C 101.41 91.94 103.81 93.52 106.37 94.84 C 106.57 95.13 106.97 95.72 107.17 96.02 C 107.59 89.28 107.23 82.52 107.35 75.77 C 104.60 74.07 101.97 72.10 98.92 70.96 C 95.90 72.09 93.28 74.03 90.50 75.63 M 49.42 99.40 C 49.15 102.65 49.51 105.92 49.43 109.17 C 55.25 112.28 60.84 115.80 66.61 119.00 C 66.54 115.68 66.45 112.37 66.53 109.06 C 69.35 107.60 72.11 106.04 74.72 104.24 C 69.06 101.14 63.53 97.79 57.95 94.55 C 55.14 96.23 52.12 97.54 49.42 99.40 M 122.82 104.16 C 125.61 105.91 128.51 107.48 131.40 109.06 C 131.35 112.33 131.28 115.59 131.28 118.85 C 136.92 115.49 142.66 112.30 148.38 109.07 C 148.48 105.75 148.55 102.43 148.57 99.11 C 145.61 97.72 142.75 96.13 140.00 94.36 C 134.30 97.68 128.67 101.12 122.82 104.16 M 94.28 108.61 C 94.17 112.31 94.21 116.01 94.21 119.72 C 91.09 117.93 88.09 115.89 84.81 114.43 C 82.80 114.25 81.01 115.69 79.12 116.22 C 79.32 118.19 79.36 120.21 79.95 122.11 C 82.85 124.58 86.48 126.03 89.78 127.90 C 86.51 129.55 83.15 131.15 80.23 133.39 C 79.24 135.17 79.41 137.36 79.00 139.32 C 81.00 139.95 82.85 141.56 85.03 141.34 C 88.13 139.67 91.05 137.68 94.19 136.06 C 94.19 139.82 94.15 143.57 94.27 147.33 C 95.84 148.43 97.28 149.73 98.91 150.76 C 100.59 149.66 102.09 148.33 103.66 147.10 C 103.65 143.41 103.67 139.72 103.62 136.03 C 106.87 137.78 109.85 140.03 113.22 141.53 C 115.20 141.22 116.95 140.11 118.80 139.40 C 118.58 137.51 118.36 135.63 118.16 133.75 C 114.89 131.68 111.60 129.62 108.12 127.91 C 111.57 126.18 114.88 124.19 118.16 122.14 C 118.37 120.22 118.60 118.30 118.79 116.37 C 116.94 115.66 115.15 114.69 113.17 114.34 C 109.83 115.86 106.78 117.96 103.64 119.84 C 103.64 116.13 103.91 112.38 103.54 108.68 C 102.08 107.32 100.45 106.19 98.92 104.93 C 97.38 106.16 95.83 107.39 94.28 108.61 M 49.50 146.77 C 49.46 150.06 49.37 153.35 49.34 156.64 C 52.24 158.10 55.10 159.64 57.84 161.36 C 58.08 161.28 58.55 161.10 58.78 161.01 C 64.02 157.68 69.47 154.71 74.88 151.66 C 72.27 149.65 69.28 148.23 66.43 146.63 C 66.57 143.41 66.63 140.20 66.63 136.99 C 60.81 140.06 55.32 143.70 49.50 146.77 M 131.38 136.82 C 131.37 140.14 131.41 143.45 131.45 146.76 C 128.53 148.12 125.76 149.74 122.93 151.26 C 128.51 154.78 134.41 157.77 139.98 161.31 C 142.85 159.63 145.76 158.03 148.65 156.38 C 148.56 153.20 148.53 150.01 148.56 146.83 C 142.86 143.45 137.14 140.10 131.38 136.82 M 90.69 160.26 C 90.60 166.90 90.66 173.55 90.68 180.19 C 93.46 181.76 96.07 183.65 98.99 184.95 C 101.92 183.55 104.62 181.72 107.47 180.17 C 107.47 173.53 107.55 166.89 107.46 160.25 C 104.68 162.09 101.80 163.76 98.93 165.47 C 96.20 163.70 93.40 162.06 90.69 160.26 Z" />
</g>
</svg>
