<?xml version="1.0" encoding="UTF-8" ?>
<!DOCTYPE svg PUBLIC "-//W3C//DTD SVG 1.1//EN" "http://www.w3.org/Graphics/SVG/1.1/DTD/svg11.dtd">
<svg width="214pt" height="235pt" viewBox="0 0 214 235" version="1.1" xmlns="http://www.w3.org/2000/svg">
<g id="#ffffffff">
</g>
<g id="#231f20ff">
<path fill="#231f20" opacity="1.00" d=" M 105.96 0.00 L 107.97 0.00 C 109.76 0.71 111.71 1.92 111.87 4.04 C 112.22 8.33 111.80 12.64 112.03 16.93 C 115.94 18.94 119.28 22.41 120.01 26.88 C 121.32 33.08 117.50 39.19 111.95 41.78 C 112.04 45.47 112.04 49.16 111.91 52.85 C 114.44 50.05 116.85 47.13 119.46 44.41 C 121.57 42.01 125.28 41.29 128.13 42.74 C 132.53 44.63 133.78 51.04 130.44 54.46 C 124.39 61.34 118.52 68.39 112.09 74.91 C 111.73 79.81 112.05 84.73 111.97 89.64 C 113.47 90.04 114.97 90.45 116.46 90.86 C 119.91 84.68 123.47 78.56 127.01 72.43 C 129.90 74.09 132.78 75.77 135.66 77.46 C 132.09 83.55 128.68 89.73 125.08 95.80 C 125.68 96.37 126.89 97.51 127.49 98.09 C 131.70 95.33 135.91 92.60 140.10 89.82 C 141.01 82.54 143.79 75.67 145.46 68.56 C 146.54 65.03 146.96 60.55 150.66 58.70 C 155.15 55.97 161.69 59.76 161.52 65.02 C 161.22 69.50 159.34 73.68 158.36 78.03 C 161.44 75.92 164.58 73.89 167.70 71.84 C 167.14 66.75 168.86 61.17 173.38 58.35 C 177.84 55.23 183.84 55.63 188.42 58.31 C 192.41 56.01 195.99 52.99 200.18 51.04 C 204.48 49.95 208.18 55.82 205.06 59.10 C 201.75 62.13 197.60 64.08 193.99 66.72 C 194.43 71.59 192.92 76.89 188.81 79.85 C 184.33 83.38 177.87 83.15 173.13 80.26 C 170.02 82.33 166.88 84.34 163.73 86.36 C 167.73 86.99 171.78 87.33 175.74 88.18 C 179.20 88.94 181.49 92.63 181.11 96.07 C 180.84 99.63 177.65 102.77 174.03 102.71 C 168.93 102.46 163.93 101.33 158.88 100.69 C 154.46 99.92 149.89 99.79 145.64 98.23 C 141.42 100.93 137.22 103.67 133.04 106.44 C 133.66 108.44 134.22 110.45 134.75 112.47 C 141.84 112.50 148.92 112.48 156.01 112.48 C 156.00 115.79 156.00 119.09 156.00 122.39 C 148.93 122.23 141.86 122.37 134.79 122.30 C 134.25 124.36 133.66 126.41 133.04 128.45 C 137.26 131.10 141.40 133.88 145.60 136.56 C 154.92 134.20 164.59 133.34 174.09 132.00 C 180.78 132.01 183.66 141.57 178.30 145.41 C 174.02 147.96 168.63 147.29 163.90 148.42 C 166.94 150.52 170.03 152.54 173.16 154.52 C 178.15 151.46 185.10 151.46 189.52 155.56 C 193.16 158.59 194.37 163.53 193.98 168.09 C 197.64 170.76 201.82 172.74 205.18 175.79 C 208.16 179.17 204.40 184.91 200.15 183.66 C 195.93 181.86 192.41 178.77 188.45 176.49 C 183.33 179.56 176.24 179.54 171.84 175.22 C 168.31 172.22 167.30 167.42 167.69 162.99 C 164.60 160.90 161.47 158.85 158.34 156.82 C 159.32 160.89 160.95 164.83 161.48 169.01 C 162.31 174.39 155.66 178.95 150.93 176.23 C 147.32 174.75 146.67 170.60 145.74 167.28 C 143.98 159.82 141.10 152.61 140.10 144.98 C 135.92 142.18 131.68 139.47 127.46 136.73 C 126.66 137.48 125.86 138.24 125.07 139.00 C 128.64 145.14 132.28 151.25 135.59 157.54 C 132.68 159.08 129.83 160.72 127.00 162.39 C 123.44 156.26 119.97 150.08 116.43 143.94 C 114.93 144.36 113.44 144.79 111.95 145.22 C 111.97 150.19 111.93 155.16 111.99 160.13 C 117.55 164.85 121.80 170.86 126.81 176.13 C 129.32 179.08 133.06 182.13 132.26 186.48 C 131.79 191.82 124.70 194.71 120.57 191.37 C 117.33 188.58 114.84 185.05 111.94 181.93 C 111.96 185.64 111.95 189.35 111.97 193.06 C 116.84 195.41 120.61 200.39 120.18 205.99 C 120.20 211.25 116.46 215.66 111.94 217.94 C 111.76 222.46 112.42 227.05 111.71 231.54 C 110.49 235.74 103.72 235.85 102.36 231.71 C 101.53 227.21 102.44 222.59 101.94 218.05 C 97.30 215.34 93.31 210.66 93.82 204.96 C 93.72 199.59 97.70 195.54 101.93 192.87 C 102.25 189.23 101.98 185.57 102.06 181.93 C 99.14 185.05 96.67 188.62 93.41 191.40 C 89.26 194.69 82.25 191.81 81.74 186.49 C 80.90 182.13 84.68 179.11 87.19 176.15 C 92.21 170.88 96.44 164.83 102.03 160.11 C 102.07 155.16 102.04 150.21 102.05 145.26 C 100.55 144.81 99.06 144.36 97.56 143.93 C 94.09 150.11 90.52 156.23 87.01 162.39 C 84.13 160.71 81.24 159.06 78.36 157.40 C 81.89 151.25 85.34 145.06 88.96 138.96 C 88.11 138.23 87.26 137.50 86.41 136.77 C 82.26 139.55 78.03 142.20 73.89 144.99 C 72.54 153.85 69.36 162.31 67.20 170.99 C 66.27 176.75 58.20 179.14 54.44 174.58 C 49.91 169.37 54.80 162.48 55.66 156.80 C 52.55 158.86 49.41 160.89 46.31 162.97 C 46.66 167.37 45.75 172.20 42.21 175.18 C 37.81 179.52 30.69 179.57 25.56 176.49 C 21.60 178.78 18.07 181.87 13.84 183.67 C 9.59 184.90 5.85 179.18 8.81 175.81 C 12.17 172.72 16.38 170.74 20.06 168.06 C 19.54 163.26 21.06 158.07 25.05 155.11 C 29.46 151.38 36.05 151.64 40.84 154.52 C 43.99 152.53 47.10 150.49 50.19 148.42 C 44.95 146.97 37.87 148.56 34.17 143.74 C 30.51 138.90 34.92 131.12 41.00 132.06 C 50.13 133.54 59.44 134.23 68.41 136.54 C 72.62 133.88 76.73 131.08 80.95 128.44 C 80.34 126.41 79.77 124.36 79.23 122.31 C 72.15 122.33 65.07 122.32 58.00 122.32 C 58.00 119.02 58.00 115.72 58.00 112.42 C 65.08 112.38 72.16 112.51 79.24 112.48 C 79.78 110.46 80.34 108.44 80.97 106.45 C 76.80 103.67 72.61 100.92 68.36 98.26 C 63.73 99.82 58.82 100.03 54.04 100.85 C 48.81 101.36 43.60 103.04 38.34 102.49 C 32.30 101.27 30.98 92.34 36.07 89.11 C 40.44 87.00 45.55 87.35 50.23 86.33 C 47.09 84.33 43.97 82.31 40.87 80.27 C 35.73 83.48 28.45 83.28 24.05 78.88 C 20.66 75.84 19.67 71.10 20.02 66.74 C 16.40 64.08 12.27 62.12 8.93 59.11 C 5.76 55.82 9.57 49.92 13.88 51.05 C 18.01 53.03 21.59 55.95 25.50 58.30 C 30.09 55.69 36.06 55.20 40.56 58.30 C 45.11 61.12 46.89 66.72 46.30 71.84 C 49.43 73.90 52.58 75.93 55.67 78.05 C 54.67 73.71 52.81 69.53 52.48 65.07 C 52.26 59.78 58.85 55.99 63.35 58.70 C 67.06 60.56 67.47 65.09 68.55 68.63 C 70.22 75.72 72.97 82.56 73.90 89.82 C 78.10 92.61 82.32 95.36 86.55 98.10 C 87.33 97.31 88.12 96.52 88.90 95.74 C 85.31 89.66 81.82 83.51 78.36 77.36 C 81.27 75.76 84.15 74.10 87.02 72.43 C 90.53 78.58 94.07 84.71 97.56 90.86 C 99.05 90.45 100.54 90.04 102.03 89.63 C 102.05 84.63 102.13 79.63 101.93 74.63 C 96.42 69.92 92.19 63.95 87.22 58.71 C 84.81 55.76 81.02 52.85 81.72 48.57 C 82.06 43.10 89.27 39.99 93.48 43.48 C 96.65 46.31 99.20 49.75 102.08 52.86 C 102.06 49.13 102.07 45.41 101.97 41.69 C 97.16 39.40 93.48 34.49 93.80 29.01 C 93.74 23.70 97.40 19.15 102.02 16.93 C 102.16 12.64 101.84 8.33 102.17 4.04 C 102.31 1.94 104.21 0.73 105.96 0.00 Z" />
</g>
</svg>
