<?xml version="1.0" encoding="UTF-8" ?>
<!DOCTYPE svg PUBLIC "-//W3C//DTD SVG 1.1//EN" "http://www.w3.org/Graphics/SVG/1.1/DTD/svg11.dtd">
<svg width="225pt" height="225pt" viewBox="0 0 225 225" version="1.1" xmlns="http://www.w3.org/2000/svg">
<g id="#ffffffff">
</g>
<g id="#000000ff">
<path fill="#000000" opacity="1.00" d=" M 104.59 2.84 C 109.02 2.85 113.44 2.84 117.87 2.84 C 117.73 9.81 117.87 16.77 117.78 23.74 C 120.57 22.04 123.44 20.47 126.23 18.76 C 128.44 22.59 130.66 26.42 132.88 30.24 C 127.84 33.12 122.83 36.04 117.78 38.92 C 117.82 42.51 117.82 46.10 117.77 49.68 C 124.34 45.84 130.95 42.07 137.54 38.26 C 139.69 42.11 141.92 45.91 144.16 49.72 C 135.34 54.74 126.56 59.81 117.78 64.91 C 118.23 69.18 116.66 73.99 119.20 77.80 C 120.42 79.89 121.66 81.97 122.85 84.08 C 126.51 77.68 130.24 71.31 133.89 64.90 C 135.56 61.61 139.49 60.71 142.26 58.62 C 141.95 62.32 143.17 66.49 140.82 69.72 C 137.19 75.85 133.74 82.09 130.03 88.18 C 134.23 87.71 138.99 89.32 142.72 86.78 C 144.84 85.51 146.97 84.26 149.12 83.04 C 149.07 72.92 149.23 62.80 149.03 52.69 C 153.48 52.66 157.94 52.68 162.39 52.66 C 162.33 60.23 162.38 67.79 162.36 75.36 C 165.53 73.60 168.69 71.82 171.79 69.93 C 171.73 64.17 171.78 58.42 171.76 52.67 C 176.17 52.67 180.59 52.69 185.00 52.65 C 185.00 55.86 184.99 59.08 185.00 62.30 C 191.05 58.94 197.03 55.46 202.98 51.94 C 205.21 55.76 207.44 59.58 209.62 63.43 C 203.57 66.86 197.59 70.39 191.54 73.79 C 194.34 75.48 197.18 77.10 200.02 78.72 C 197.85 82.55 195.52 86.28 193.51 90.20 C 188.47 87.29 183.38 84.49 178.43 81.44 C 175.27 83.15 172.20 85.03 169.04 86.73 C 175.54 90.71 182.23 94.37 188.79 98.24 C 186.54 102.01 184.32 105.79 182.18 109.62 C 173.35 104.58 164.55 99.48 155.74 94.40 C 152.80 96.32 149.57 97.75 146.73 99.82 C 144.71 102.50 143.35 105.62 141.57 108.46 C 149.69 108.49 157.82 108.31 165.93 108.53 C 168.66 109.41 170.96 111.30 173.54 112.54 C 170.41 113.97 167.68 116.93 164.03 116.79 C 156.61 116.77 149.18 116.78 141.76 116.76 C 144.18 120.10 145.14 124.89 149.10 126.84 C 151.33 128.10 153.57 129.36 155.75 130.70 C 164.55 125.62 173.34 120.51 182.17 115.48 C 184.35 119.29 186.52 123.09 188.78 126.85 C 182.22 130.71 175.56 134.42 169.03 138.35 C 172.18 140.06 175.26 141.91 178.37 143.68 C 183.36 140.68 188.44 137.81 193.49 134.91 C 195.56 138.80 197.83 142.58 200.03 146.41 C 197.18 148.01 194.33 149.60 191.52 151.27 C 197.58 154.70 203.56 158.24 209.62 161.68 C 207.39 165.48 205.34 169.39 202.92 173.07 C 196.93 169.65 191.00 166.15 185.00 162.75 C 185.00 165.97 185.00 169.20 185.00 172.42 C 180.58 172.40 176.17 172.40 171.76 172.43 C 171.79 166.69 171.71 160.95 171.81 155.20 C 168.72 153.29 165.55 151.48 162.36 149.74 C 162.37 157.30 162.35 164.87 162.37 172.43 C 157.93 172.40 153.50 172.41 149.06 172.41 C 149.20 162.30 149.08 152.20 149.12 142.09 C 146.13 140.42 143.28 138.42 140.13 137.08 C 136.77 136.87 133.41 137.04 130.05 137.00 C 133.85 143.27 137.39 149.68 141.13 155.98 C 143.22 159.08 141.93 162.99 142.24 166.47 C 139.76 164.79 136.69 163.80 134.70 161.52 C 130.61 154.73 126.77 147.79 122.75 140.97 C 121.23 144.04 118.94 146.75 117.91 150.04 C 117.65 153.40 117.87 156.78 117.77 160.16 C 126.53 165.28 135.31 170.37 144.16 175.34 C 141.95 179.18 139.67 182.98 137.56 186.86 C 130.97 183.02 124.34 179.26 117.76 175.41 C 117.83 178.98 117.82 182.56 117.77 186.14 C 122.79 189.08 127.83 191.98 132.89 194.85 C 130.65 198.67 128.44 202.50 126.24 206.35 C 123.44 204.65 120.60 203.02 117.77 201.38 C 117.88 208.33 117.72 215.29 117.87 222.24 C 113.44 222.23 109.02 222.23 104.59 222.25 C 104.64 215.28 104.56 208.31 104.64 201.34 C 101.79 202.97 98.96 204.64 96.12 206.29 C 93.85 202.51 91.65 198.68 89.47 194.84 C 94.45 191.90 99.58 189.21 104.47 186.13 C 104.81 182.56 104.53 178.97 104.62 175.39 C 98.02 179.21 91.41 183.02 84.82 186.84 C 82.62 183.01 80.39 179.19 78.17 175.37 C 87.04 170.42 95.74 165.18 104.60 160.23 C 104.53 156.69 104.82 153.14 104.46 149.62 C 103.01 146.65 101.15 143.90 99.58 141.00 C 95.54 147.89 91.66 154.87 87.55 161.72 C 85.44 163.83 82.48 164.84 79.99 166.44 C 80.31 163.02 79.09 159.17 81.14 156.13 C 84.86 149.77 88.54 143.38 92.24 137.00 C 88.81 137.06 85.36 136.80 81.94 137.15 C 78.86 138.61 75.97 140.46 73.07 142.25 C 73.20 152.31 73.08 162.37 73.13 172.43 C 68.73 172.40 64.33 172.40 59.94 172.43 C 59.94 164.86 59.93 157.29 59.95 149.72 C 56.80 151.45 53.73 153.31 50.60 155.06 C 50.62 160.85 50.56 166.65 50.64 172.44 C 46.23 172.40 41.83 172.39 37.43 172.44 C 37.49 169.19 37.49 165.94 37.46 162.70 C 31.38 166.13 25.33 169.64 19.30 173.17 C 17.10 169.32 14.92 165.46 12.64 161.67 C 18.76 158.32 24.70 154.67 30.81 151.30 C 28.00 149.63 25.17 147.98 22.32 146.38 C 24.51 142.54 26.74 138.72 28.97 134.91 C 33.93 137.92 39.03 140.70 44.00 143.68 C 47.07 141.84 50.19 140.10 53.30 138.34 C 46.80 134.39 40.11 130.76 33.58 126.87 C 35.79 123.06 37.98 119.23 40.24 115.45 C 48.94 120.61 57.78 125.53 66.48 130.67 C 69.45 128.91 72.57 127.39 75.40 125.41 C 77.36 122.67 78.85 119.63 80.55 116.73 C 72.49 116.75 64.42 116.88 56.36 116.70 C 53.67 115.58 51.30 113.85 48.74 112.48 C 51.32 111.25 53.67 109.58 56.31 108.52 C 64.46 108.32 72.62 108.49 80.77 108.46 C 78.97 105.55 77.56 102.37 75.42 99.67 C 72.56 97.75 69.46 96.21 66.52 94.41 C 57.81 99.56 48.94 104.44 40.27 109.66 C 37.96 105.90 35.83 102.03 33.56 98.24 C 40.12 94.39 46.74 90.64 53.32 86.81 C 50.23 85.06 47.21 83.17 44.05 81.55 C 38.92 84.17 34.07 87.32 29.02 90.10 C 26.58 86.43 24.58 82.49 22.31 78.71 C 25.18 77.12 28.02 75.46 30.82 73.76 C 24.68 70.51 18.84 66.71 12.67 63.52 C 14.85 59.62 17.15 55.81 19.29 51.89 C 25.30 55.52 31.44 58.91 37.48 62.48 C 37.48 59.21 37.49 55.95 37.43 52.68 C 41.83 52.72 46.23 52.71 50.63 52.69 C 50.56 58.44 50.65 64.20 50.57 69.96 C 53.68 71.77 56.77 73.65 59.96 75.34 C 59.92 67.78 59.94 60.23 59.94 52.68 C 64.33 52.71 68.73 52.72 73.13 52.68 C 73.10 62.77 73.16 72.87 73.10 82.97 C 76.08 84.66 78.97 86.54 82.07 88.03 C 85.45 88.34 88.86 88.09 92.26 88.18 C 88.22 81.13 83.97 74.18 80.13 67.02 C 79.84 64.25 80.04 61.47 79.98 58.69 C 82.98 60.74 87.09 61.77 88.72 65.32 C 92.26 71.59 95.92 77.77 99.48 84.02 C 101.09 81.16 102.89 78.39 104.37 75.46 C 104.92 72.01 104.47 68.46 104.64 64.98 C 95.85 59.82 86.98 54.80 78.17 49.68 C 80.42 45.90 82.63 42.09 84.79 38.26 C 91.42 42.05 98.01 45.92 104.66 49.69 C 104.59 46.15 104.59 42.61 104.65 39.08 C 99.64 36.04 94.55 33.17 89.46 30.29 C 91.64 26.43 93.88 22.60 96.11 18.77 C 98.92 20.48 101.77 22.13 104.65 23.72 C 104.55 16.76 104.64 9.80 104.59 2.84 M 104.26 92.35 C 106.63 96.29 108.90 100.28 111.18 104.27 C 113.46 100.25 115.80 96.28 118.09 92.27 C 115.70 88.33 113.42 84.33 111.20 80.29 C 108.87 84.30 106.58 88.33 104.26 92.35 M 83.49 96.48 C 85.79 100.48 88.04 104.49 90.40 108.45 C 94.94 108.43 99.49 108.44 104.03 108.44 C 101.58 104.50 99.41 100.38 96.93 96.45 C 92.45 96.54 87.97 96.50 83.49 96.48 M 125.33 96.49 C 123.01 100.47 120.67 104.45 118.43 108.48 C 122.93 108.42 127.44 108.44 131.94 108.45 C 134.27 104.48 136.54 100.47 138.85 96.49 C 134.34 96.50 129.84 96.51 125.33 96.49 M 90.24 116.76 C 87.90 120.67 85.66 124.65 83.39 128.60 C 87.95 128.37 92.67 129.03 97.14 128.30 C 99.63 124.58 101.59 120.53 104.02 116.77 C 99.42 116.77 94.83 116.78 90.24 116.76 M 118.40 116.74 C 120.68 120.70 123.01 124.63 125.27 128.60 C 129.84 128.58 134.41 128.59 138.98 128.60 C 136.63 124.68 134.41 120.69 132.09 116.76 C 127.53 116.78 122.96 116.79 118.40 116.74 M 104.31 132.72 C 106.60 136.62 108.91 140.51 111.14 144.45 C 113.47 140.57 115.66 136.61 118.03 132.76 C 115.70 128.83 113.44 124.86 111.19 120.89 C 108.91 124.85 106.67 128.81 104.31 132.72 Z" />
</g>
</svg>
