<?xml version="1.0" encoding="UTF-8" ?>
<!DOCTYPE svg PUBLIC "-//W3C//DTD SVG 1.1//EN" "http://www.w3.org/Graphics/SVG/1.1/DTD/svg11.dtd">
<svg width="225pt" height="225pt" viewBox="0 0 225 225" version="1.1" xmlns="http://www.w3.org/2000/svg">
<g id="#ffffffff">
</g>
<g id="#000000ff">
<path fill="#000000" opacity="1.00" d=" M 110.79 1.03 C 111.37 0.90 112.55 0.65 113.13 0.53 C 117.25 3.11 114.02 10.40 118.86 12.14 C 117.81 14.64 116.25 16.87 114.52 18.94 C 116.37 26.49 116.44 34.28 115.67 41.98 C 118.32 40.33 120.72 38.32 123.28 36.54 C 123.23 40.51 119.74 43.03 118.75 46.67 C 118.64 48.90 120.42 50.81 120.27 53.06 C 118.77 56.15 116.15 58.67 115.31 62.06 C 114.40 65.95 114.42 69.99 114.70 73.95 C 115.20 73.69 116.19 73.16 116.69 72.90 C 117.43 70.34 118.24 67.79 119.22 65.31 C 120.37 66.38 120.30 67.98 120.52 69.40 C 125.38 69.50 130.27 70.03 135.13 69.60 C 138.26 66.21 139.94 61.66 141.88 57.50 C 136.72 56.42 131.43 56.41 126.18 56.61 C 124.69 58.32 123.10 59.96 121.24 61.27 C 124.56 54.21 129.49 48.04 133.01 41.06 C 129.92 35.04 127.17 28.74 126.01 22.04 C 128.08 24.33 129.91 26.83 131.97 29.12 C 133.47 25.81 134.69 22.37 136.40 19.16 C 136.87 17.97 137.86 17.18 139.11 16.93 C 139.51 17.90 139.63 19.01 138.91 19.88 C 136.00 24.71 132.20 29.94 133.39 35.91 C 134.70 36.84 136.57 38.74 138.17 37.25 C 142.20 34.49 145.24 30.49 149.51 28.04 C 149.39 29.22 149.57 30.56 148.61 31.45 C 143.27 37.76 137.00 43.22 131.57 49.46 C 130.81 50.58 129.60 51.66 129.70 53.12 C 133.49 54.80 137.74 54.32 141.77 54.57 C 140.96 52.88 140.16 51.20 139.42 49.49 C 140.28 49.50 141.99 49.54 142.85 49.56 C 143.57 50.89 143.16 53.23 144.95 53.77 C 147.56 51.77 148.49 48.41 149.85 45.55 C 152.35 39.67 154.99 33.84 157.30 27.87 C 156.49 26.18 155.78 24.45 155.20 22.66 C 158.90 21.21 162.51 19.49 166.30 18.25 C 167.96 22.18 167.83 26.60 168.65 30.76 C 167.04 30.74 165.43 30.71 163.82 30.65 C 156.96 37.51 152.31 46.14 147.16 54.26 C 149.27 55.09 151.35 56.00 153.33 57.11 C 151.50 57.56 149.67 57.99 147.85 58.44 C 149.34 62.60 153.13 65.21 156.25 68.11 C 159.02 60.71 161.07 53.07 163.13 45.46 C 163.95 42.95 163.60 39.44 166.56 38.27 C 166.77 44.38 163.50 50.18 164.68 56.31 C 166.58 56.22 168.85 56.87 170.33 55.29 C 174.65 51.40 177.66 46.34 181.11 41.71 C 181.67 43.09 182.53 44.93 180.97 46.01 C 178.32 48.68 176.22 51.89 175.36 55.60 C 177.78 55.51 180.19 55.24 182.55 54.67 C 182.56 55.12 182.58 56.02 182.59 56.48 C 176.69 57.81 170.53 58.30 164.93 60.74 C 162.28 61.79 161.25 64.65 160.01 66.98 C 158.32 70.58 156.25 73.98 153.87 77.16 C 154.77 69.95 149.23 64.13 144.55 59.38 C 142.74 63.66 139.62 67.47 138.47 71.96 C 140.38 76.71 143.20 81.11 146.69 84.86 C 148.90 82.36 151.02 79.69 153.89 77.90 C 152.17 82.48 148.37 85.77 145.49 89.59 C 145.50 90.06 145.54 91.01 145.55 91.48 C 152.94 90.08 157.08 83.19 159.50 76.68 C 162.04 76.19 164.99 76.03 166.87 74.02 C 168.88 72.15 169.33 69.35 169.96 66.82 C 170.49 66.64 171.56 66.30 172.10 66.12 C 172.41 68.88 172.02 71.62 171.62 74.34 C 175.24 73.11 178.30 70.76 181.68 69.02 C 185.42 67.05 189.35 65.49 193.22 63.79 C 193.68 61.76 194.22 59.75 194.79 57.75 C 196.15 58.32 197.48 58.99 198.90 59.44 C 201.89 58.35 204.58 56.21 207.88 56.15 C 208.50 56.93 209.10 57.74 209.66 58.57 C 204.71 60.18 202.04 64.76 198.45 68.14 C 196.21 67.56 193.39 66.53 191.66 68.70 C 186.72 73.40 180.71 76.68 175.12 80.51 C 177.62 81.72 180.76 82.01 182.55 84.35 C 179.35 84.78 176.09 84.56 172.99 83.64 C 171.14 85.47 169.98 87.94 168.04 89.67 C 164.02 89.84 160.00 88.99 155.99 89.42 C 152.52 90.83 149.53 93.22 146.96 95.91 C 151.32 95.95 155.50 94.45 159.84 94.27 C 159.30 97.81 155.13 95.40 153.55 97.79 C 155.14 102.97 157.66 108.48 162.49 111.37 C 166.59 112.69 170.96 111.08 175.18 111.58 C 173.54 107.22 172.02 102.65 169.01 99.00 C 167.42 96.98 164.83 96.40 162.41 96.09 C 162.59 95.49 162.80 94.91 163.04 94.33 C 169.70 93.47 176.35 95.13 183.02 94.90 C 187.75 89.32 191.65 82.46 198.19 78.80 C 195.86 81.39 193.89 84.35 194.04 88.01 C 195.04 88.22 197.05 88.65 198.06 88.86 C 195.96 90.19 193.44 90.28 191.13 91.00 C 188.78 92.22 188.13 94.91 188.00 97.34 C 193.05 99.22 199.32 99.60 202.76 104.28 C 192.48 102.57 182.81 97.84 172.32 97.28 C 173.19 101.64 173.82 107.01 177.99 109.53 C 178.19 108.78 178.59 107.27 178.79 106.52 C 179.78 106.45 180.77 106.39 181.77 106.33 C 181.19 108.07 180.57 109.80 179.98 111.53 C 187.30 111.71 194.62 111.71 201.95 111.54 C 203.97 111.44 206.23 111.36 207.84 109.97 C 208.79 108.74 209.41 107.31 210.26 106.02 C 214.16 107.07 217.17 110.10 219.84 113.00 C 217.20 116.07 213.78 118.30 210.28 120.29 C 209.32 117.97 207.88 115.38 205.06 115.18 C 196.70 114.31 188.24 114.58 179.87 115.18 C 180.54 116.68 181.23 118.18 181.90 119.69 C 181.34 119.66 180.24 119.59 179.69 119.56 C 178.73 118.57 178.19 116.40 176.43 117.22 C 173.69 120.47 173.00 124.83 172.34 128.89 C 182.87 128.08 192.61 123.64 202.84 121.40 C 199.70 126.25 193.21 126.61 188.31 128.72 C 188.40 130.34 187.99 132.28 189.41 133.47 C 191.17 135.53 194.06 135.55 196.52 136.05 C 195.93 137.59 194.35 138.01 192.99 138.60 C 194.56 141.66 197.25 144.30 197.47 147.90 C 191.85 142.94 187.57 136.69 183.05 130.76 C 176.42 131.23 169.77 131.75 163.11 131.65 C 164.16 128.82 167.64 128.53 169.44 126.35 C 172.21 123.02 173.55 118.78 174.79 114.69 C 170.53 114.42 166.11 113.76 161.93 114.76 C 157.22 118.07 155.23 123.87 153.48 129.11 C 155.09 129.28 156.71 129.45 158.33 129.63 C 158.36 130.15 158.44 131.17 158.47 131.69 C 154.59 131.01 150.77 130.01 146.88 129.37 C 148.36 133.16 152.33 134.82 155.90 136.05 C 160.09 137.60 164.53 136.14 168.84 136.37 C 169.77 138.40 170.83 140.37 171.94 142.31 C 175.39 141.73 178.87 141.45 182.36 141.53 C 180.17 143.25 177.87 144.84 175.67 146.57 C 182.24 150.42 188.69 154.47 195.01 158.73 C 196.68 158.43 198.36 158.13 200.04 157.79 C 201.76 161.58 204.10 165.39 208.34 166.66 C 208.30 167.57 208.26 168.48 208.22 169.39 C 207.97 169.59 207.46 169.99 207.21 170.18 C 203.54 168.26 199.50 166.87 195.31 167.71 C 192.82 161.33 185.99 158.51 180.18 155.90 C 177.20 154.75 174.96 151.78 171.53 151.95 C 171.88 154.38 172.21 156.82 172.42 159.27 L 171.01 159.28 C 170.72 153.25 164.98 150.20 159.70 149.28 C 156.89 142.81 152.83 135.42 145.03 134.49 C 146.54 138.68 150.34 141.41 152.56 145.18 C 156.29 152.23 160.05 159.27 163.74 166.34 C 169.85 166.98 175.99 167.70 181.95 169.25 C 182.42 169.72 183.36 170.67 183.83 171.15 C 180.84 171.42 177.84 171.41 174.84 171.48 C 176.77 176.06 182.72 178.92 182.10 184.37 C 177.20 179.92 174.27 173.57 168.88 169.62 C 167.45 169.49 166.02 169.63 164.60 169.70 C 163.83 175.27 166.47 180.51 166.71 186.01 C 166.27 186.41 165.41 187.21 164.98 187.61 C 162.33 177.56 159.86 167.41 156.19 157.67 C 152.69 160.14 149.85 163.60 149.04 167.90 C 150.22 168.26 151.41 168.60 152.60 168.94 C 152.64 169.27 152.73 169.92 152.78 170.24 C 150.81 170.26 148.84 170.29 146.87 170.36 C 148.66 175.13 151.84 179.16 154.43 183.49 C 157.21 187.65 159.84 192.03 163.58 195.41 C 165.22 195.35 166.86 195.34 168.51 195.37 C 168.30 199.43 169.07 205.49 164.86 207.65 C 161.57 206.27 158.61 204.12 155.18 203.02 C 155.82 201.33 156.51 199.67 157.25 198.04 C 153.15 189.35 150.54 179.74 144.38 172.20 C 143.82 173.56 143.29 174.93 142.78 176.31 C 141.97 176.34 140.34 176.40 139.53 176.43 C 140.29 174.77 141.07 173.12 141.84 171.46 C 137.65 171.40 133.43 171.62 129.38 172.78 C 135.32 181.78 143.60 188.88 150.41 197.18 C 144.68 196.30 142.10 190.10 136.95 188.06 C 134.28 187.52 132.64 190.37 132.82 192.68 C 133.69 198.13 136.80 202.80 139.39 207.55 C 139.00 207.89 138.62 208.23 138.24 208.57 C 135.73 204.64 133.42 200.58 130.97 196.62 C 129.73 199.27 128.38 201.88 126.55 204.18 C 126.96 196.78 130.91 190.11 132.65 182.96 C 128.32 177.08 123.87 171.05 121.23 164.19 C 123.02 165.75 124.66 167.47 126.22 169.26 C 131.43 169.51 136.69 169.49 141.82 168.44 C 140.05 163.90 138.14 159.21 134.88 155.53 C 130.28 155.15 125.69 155.85 121.16 156.62 C 120.65 157.38 120.14 158.14 119.63 158.91 C 119.91 159.61 120.47 161.01 120.76 161.72 C 120.28 161.62 119.34 161.41 118.87 161.31 C 118.69 157.93 118.00 154.20 114.79 152.38 C 114.46 155.56 114.19 158.81 114.73 161.99 C 115.55 166.10 118.54 169.24 120.24 172.96 C 120.87 175.19 119.14 177.21 118.70 179.34 C 119.14 182.97 124.49 185.25 122.80 189.10 C 120.27 187.67 118.47 185.30 116.24 183.48 C 115.77 186.67 115.93 189.89 116.14 193.09 C 116.50 197.77 115.17 202.32 114.51 206.91 C 115.99 208.71 117.32 210.63 118.40 212.70 C 117.05 214.65 115.46 216.58 115.06 218.99 C 114.50 221.01 114.81 223.40 113.22 225.00 L 112.85 225.00 L 112.29 224.54 C 109.47 223.33 111.46 220.28 111.54 218.10 C 110.17 216.00 108.78 213.92 107.34 211.88 C 108.68 210.40 111.72 209.54 111.19 207.07 C 110.27 199.18 110.04 191.23 109.71 183.29 C 107.32 185.16 105.53 188.41 102.18 188.52 C 103.63 185.20 106.53 182.58 107.41 179.02 C 106.87 176.74 104.74 174.67 105.54 172.22 C 106.99 169.67 109.38 167.71 110.50 164.96 C 112.00 160.86 111.50 156.40 111.39 152.13 C 106.82 152.79 109.08 159.81 105.04 161.52 C 104.88 159.85 104.76 158.18 104.65 156.51 C 99.97 155.86 95.24 155.12 90.51 155.53 C 87.50 159.33 85.60 163.85 83.46 168.16 C 88.51 169.48 93.76 169.32 98.93 169.41 C 100.42 168.19 101.96 167.03 103.65 166.10 C 100.91 172.58 96.22 177.95 92.57 183.91 C 95.79 190.25 98.26 197.05 99.79 203.99 C 97.24 202.31 96.57 199.15 94.85 196.80 C 90.82 199.62 91.69 206.44 86.98 209.01 C 86.91 205.64 89.19 203.01 90.45 200.07 C 92.30 196.34 91.91 192.02 91.67 188.00 C 84.71 187.30 82.18 195.84 75.96 196.99 C 81.87 188.25 91.39 182.23 96.10 172.64 C 92.15 171.79 88.13 171.45 84.10 171.28 C 84.73 173.11 85.35 174.94 85.78 176.84 C 83.16 176.65 82.20 174.33 81.17 172.35 C 75.48 180.15 72.46 189.43 68.43 198.12 C 69.33 199.72 70.15 201.36 70.84 203.06 C 67.30 204.39 63.83 205.90 60.54 207.75 C 56.90 204.38 59.76 199.24 57.70 195.18 C 59.92 195.12 62.64 195.45 64.14 193.42 C 70.01 186.48 73.78 178.11 78.62 170.47 C 76.76 170.36 74.91 170.26 73.05 170.17 C 73.08 169.72 73.15 168.83 73.18 168.38 C 74.94 168.29 76.71 168.20 78.48 168.11 C 76.16 164.56 73.89 160.90 70.69 158.08 C 70.35 158.15 69.68 158.30 69.34 158.37 C 66.34 165.79 64.94 173.76 62.64 181.41 C 61.81 183.51 61.93 186.65 59.20 187.31 C 59.38 183.14 60.74 179.19 61.96 175.24 C 62.87 173.31 61.63 171.40 61.12 169.57 C 59.47 169.56 57.58 169.06 56.24 170.33 C 51.23 174.16 48.55 180.21 43.69 184.20 C 44.35 178.62 49.62 175.46 51.50 170.44 C 48.37 170.26 45.23 170.57 42.20 171.35 C 42.36 171.02 42.69 170.36 42.85 170.03 C 49.49 167.91 56.25 166.14 63.17 165.14 C 66.50 158.99 69.05 152.30 73.36 146.75 C 73.19 149.49 72.26 152.23 72.66 154.97 C 74.88 159.08 77.13 163.40 80.82 166.42 C 83.65 162.26 85.76 157.68 87.77 153.08 C 85.52 148.62 82.19 144.88 78.86 141.21 C 77.53 142.55 76.20 143.90 74.78 145.14 C 75.64 141.08 79.59 138.46 79.97 134.28 C 77.53 135.21 74.96 136.10 73.02 137.92 C 69.70 140.97 68.15 145.33 66.23 149.28 C 63.18 150.28 59.76 150.93 57.49 153.40 C 55.66 155.18 55.39 157.87 54.64 160.17 C 52.30 157.82 53.72 154.57 54.30 151.83 C 47.30 153.62 41.28 157.90 35.16 161.57 C 32.81 162.78 31.99 165.37 30.72 167.49 C 26.11 167.24 21.83 168.94 17.59 170.51 C 17.48 169.17 17.37 167.83 17.27 166.50 C 21.77 165.57 24.57 161.83 25.94 157.69 C 28.04 158.07 30.15 158.41 32.26 158.73 C 37.96 153.47 44.82 149.89 51.43 145.97 C 48.76 144.31 44.88 144.08 43.34 141.06 C 46.95 141.08 50.54 141.53 54.05 142.36 C 55.08 140.32 56.15 138.30 57.22 136.28 C 60.90 136.25 64.59 136.47 68.19 137.30 C 72.32 135.59 75.98 132.91 78.84 129.48 C 75.01 129.94 71.32 131.11 67.52 131.72 C 67.56 131.19 67.63 130.12 67.67 129.58 C 69.26 129.43 70.85 129.28 72.45 129.12 C 71.15 124.70 69.42 120.18 66.16 116.83 C 62.27 112.56 55.97 114.85 50.95 114.47 C 52.44 119.04 54.08 123.88 57.78 127.16 C 59.46 128.66 61.96 129.35 62.82 131.64 C 56.08 131.74 49.35 131.24 42.63 130.74 C 38.57 136.58 34.44 142.63 28.51 146.75 C 29.40 144.03 30.49 141.38 31.43 138.67 C 30.55 137.89 29.21 137.44 29.00 136.15 C 31.93 135.44 34.91 135.02 37.83 134.25 C 37.67 132.54 37.84 130.76 37.20 129.14 C 33.60 126.45 29.06 125.67 25.03 123.86 C 23.76 123.53 23.32 122.30 22.80 121.26 C 32.81 123.70 42.54 127.63 52.85 128.63 C 53.28 123.92 51.09 119.56 48.14 116.05 C 47.53 117.46 46.90 118.87 46.27 120.27 C 45.81 120.28 44.90 120.31 44.45 120.32 C 44.40 119.88 44.30 119.02 44.26 118.58 C 45.23 117.32 46.18 116.03 47.11 114.73 C 38.36 114.72 29.58 114.60 20.85 115.30 C 18.13 115.53 17.39 118.59 16.10 120.52 C 12.75 118.44 9.12 116.57 6.49 113.55 C 5.97 112.34 7.24 111.66 7.94 110.92 C 10.42 108.65 13.35 106.96 16.21 105.22 C 17.10 106.84 17.76 108.64 19.04 110.00 C 21.01 111.55 23.63 111.51 26.02 111.59 C 32.98 111.73 39.94 111.66 46.91 111.66 C 45.88 109.96 44.86 108.26 43.92 106.52 C 44.52 106.45 45.72 106.31 46.32 106.24 C 46.88 107.49 47.45 108.74 48.01 109.99 C 51.91 106.98 52.75 101.88 53.66 97.35 C 43.13 97.86 33.34 102.38 23.10 104.46 C 26.65 99.79 33.00 99.37 38.08 97.27 C 37.75 95.38 37.89 93.12 36.13 91.88 C 34.28 89.18 30.18 91.42 28.36 88.86 C 29.77 88.25 31.23 87.76 32.67 87.23 C 31.34 84.67 29.95 82.14 28.73 79.53 C 34.41 83.51 38.69 89.12 42.34 94.94 C 49.43 94.79 56.50 94.17 63.59 93.96 C 63.46 97.47 59.09 96.37 57.18 98.36 C 53.38 101.66 52.65 107.02 51.00 111.52 C 55.51 111.03 60.16 112.45 64.58 111.44 C 69.04 107.89 71.40 102.15 72.02 96.59 C 70.26 96.51 68.51 96.46 66.76 96.40 C 66.69 95.84 66.54 94.73 66.46 94.18 C 70.70 94.35 74.94 96.83 79.12 95.27 C 76.14 92.82 72.79 90.70 69.03 89.70 C 65.19 89.04 61.29 89.80 57.44 89.47 C 55.79 87.48 54.41 85.26 52.39 83.60 C 49.75 83.92 46.08 86.05 44.00 83.98 C 45.61 81.90 48.79 82.00 50.98 80.61 C 50.87 80.38 50.65 79.92 50.54 79.69 C 46.98 77.10 42.93 75.26 39.29 72.80 C 36.50 71.11 34.09 68.83 31.17 67.37 C 29.11 67.15 27.03 67.23 24.96 67.23 C 24.44 62.93 21.15 60.01 17.03 59.19 C 17.53 57.86 18.06 56.54 18.66 55.26 C 21.28 56.58 23.82 58.09 26.17 59.86 C 27.47 59.15 28.76 58.42 30.05 57.70 C 31.45 60.81 33.22 63.89 36.09 65.86 C 38.67 68.10 42.38 67.85 45.16 69.71 C 48.13 71.56 50.78 74.17 54.37 74.77 C 54.12 71.87 51.95 68.24 54.63 65.93 C 55.46 68.35 55.87 71.21 57.97 72.95 C 60.22 75.08 63.41 75.54 66.10 76.89 C 68.54 80.21 69.67 84.42 72.76 87.30 C 74.79 89.73 77.84 90.73 80.81 91.44 C 79.44 87.62 76.29 84.80 74.82 81.02 C 76.29 82.28 77.71 83.60 79.15 84.91 C 82.66 80.75 85.88 76.29 88.06 71.28 C 85.52 67.40 83.34 63.31 80.96 59.34 C 78.28 62.25 75.50 65.19 73.80 68.81 C 72.26 72.30 72.67 76.28 73.75 79.84 C 69.49 73.10 66.53 65.35 60.65 59.75 C 56.43 59.46 52.29 58.58 48.13 57.84 C 45.87 57.30 42.95 57.23 42.20 54.52 C 45.22 54.87 48.21 55.45 51.25 55.73 C 50.36 50.44 44.43 47.52 44.20 42.07 C 46.56 42.22 47.13 44.88 48.30 46.49 C 51.08 50.99 54.47 56.26 60.28 56.81 C 61.00 55.28 62.27 53.91 62.42 52.17 C 61.25 47.81 59.35 43.59 59.29 39.00 C 59.80 39.46 60.82 40.38 61.32 40.83 C 64.30 48.08 65.94 55.78 67.85 63.36 C 68.31 65.03 68.87 66.70 69.87 68.13 C 73.82 66.19 76.60 62.01 77.83 57.84 C 75.83 57.41 73.27 58.01 71.96 55.99 C 74.22 55.73 76.49 55.59 78.75 55.43 C 74.55 47.27 69.55 39.46 63.83 32.28 C 62.50 30.00 60.01 31.29 57.95 31.02 C 57.43 29.30 58.92 27.72 58.75 25.98 C 58.77 23.36 57.52 19.41 61.01 18.45 C 64.32 19.82 67.44 21.61 70.82 22.83 C 70.04 25.13 67.55 27.45 69.33 29.89 C 73.21 37.84 75.70 46.59 81.24 53.64 C 82.16 51.56 82.99 49.13 85.71 49.03 C 85.27 50.87 84.71 52.67 84.13 54.47 C 88.15 54.57 92.16 54.17 96.10 53.35 C 94.02 47.75 88.95 44.17 85.38 39.60 C 82.38 35.77 77.77 33.01 76.23 28.21 C 81.87 30.50 84.87 37.23 91.28 37.79 C 94.04 32.93 90.93 27.57 89.01 23.01 C 88.33 20.95 85.99 18.75 87.36 16.51 C 90.05 20.68 92.10 25.24 95.03 29.27 C 96.22 27.08 97.26 24.82 98.09 22.47 C 98.57 22.30 99.54 21.97 100.02 21.80 C 98.05 28.30 96.30 34.96 92.98 40.94 C 96.43 48.01 101.52 54.28 103.97 61.80 C 102.31 60.10 100.73 58.30 99.16 56.51 C 94.05 56.45 88.93 56.68 83.88 57.53 C 85.49 62.07 87.55 66.70 90.89 70.23 C 95.80 69.72 100.73 69.59 105.66 69.42 C 105.67 67.56 105.66 65.69 105.70 63.83 C 107.39 66.68 108.32 69.87 109.24 73.03 C 109.85 72.98 111.07 72.89 111.68 72.85 C 111.39 68.94 111.70 64.91 110.49 61.13 C 109.37 58.03 106.89 55.70 105.36 52.83 C 105.21 50.36 107.64 48.42 107.32 45.91 C 105.95 42.84 103.55 40.39 102.21 37.30 C 105.55 37.29 107.13 41.09 110.27 41.91 C 110.75 34.32 110.43 26.69 111.41 19.13 C 110.33 17.12 108.68 15.50 107.28 13.72 C 108.70 11.70 110.46 9.83 111.23 7.44 C 111.34 5.29 110.82 3.17 110.79 1.03 M 98.62 73.74 C 96.74 78.74 99.71 83.81 101.50 88.38 C 103.63 94.09 106.88 99.34 108.65 105.17 C 106.73 105.03 106.20 103.12 105.28 101.83 C 101.41 95.22 97.46 88.47 91.78 83.22 C 90.10 81.64 87.86 80.97 85.70 80.36 C 84.15 82.72 82.21 85.23 82.46 88.22 C 83.19 89.50 84.23 90.58 85.30 91.57 C 92.54 98.43 101.04 104.05 110.29 107.78 C 110.26 96.99 111.48 85.87 108.39 75.38 C 107.24 70.86 101.68 72.11 98.62 73.74 M 117.63 75.85 C 115.84 80.70 115.88 85.95 115.57 91.05 C 115.44 96.70 115.11 102.40 115.97 108.01 C 122.99 104.67 129.75 100.66 135.98 96.02 C 138.88 93.05 144.30 90.80 143.26 85.78 C 142.39 83.52 140.80 80.28 137.95 80.66 C 133.17 82.72 130.33 87.39 127.14 91.26 C 123.74 95.58 122.55 101.66 117.80 104.83 C 117.87 104.14 118.01 102.76 118.08 102.07 C 120.54 95.36 125.14 89.60 127.15 82.70 L 128.66 81.74 C 128.66 82.52 128.68 84.06 128.69 84.84 C 131.94 82.62 135.27 80.34 137.66 77.15 C 137.60 74.97 135.80 70.64 133.09 73.04 C 129.08 74.73 130.53 80.17 127.55 82.37 C 127.64 79.33 127.73 76.30 127.77 73.27 C 125.53 72.90 123.29 72.28 121.00 72.32 C 119.36 72.81 118.22 74.30 117.63 75.85 M 89.61 72.12 C 89.45 74.15 89.31 76.18 89.22 78.22 C 91.57 80.42 93.90 82.70 96.72 84.33 C 96.61 79.65 96.38 71.16 89.61 72.12 M 75.58 98.77 C 73.43 100.78 71.80 104.10 72.89 107.02 C 74.99 108.40 77.80 109.08 78.85 111.62 C 75.91 111.82 73.86 109.08 71.00 109.04 C 69.24 109.70 68.54 111.71 67.36 113.04 C 68.34 114.53 69.16 116.53 71.13 116.91 C 73.73 116.24 76.00 114.51 78.75 114.41 C 77.84 117.47 74.43 117.82 72.53 119.89 C 72.35 123.45 74.82 128.77 79.18 127.46 C 89.21 125.30 98.14 119.44 105.92 112.99 C 99.19 107.50 91.63 102.89 83.58 99.58 C 81.08 98.68 78.15 97.64 75.58 98.77 M 120.09 112.37 C 120.27 112.77 120.65 113.57 120.84 113.97 C 125.80 117.45 130.85 120.85 136.33 123.49 C 140.65 125.63 145.22 127.91 150.18 127.62 C 152.19 125.50 153.56 122.85 153.58 119.88 C 151.31 117.98 147.50 117.32 146.84 114.06 C 149.72 114.64 152.18 116.56 155.10 116.92 C 157.12 116.78 157.53 114.39 158.60 113.07 C 158.06 111.91 157.54 110.73 157.04 109.55 C 152.09 107.86 147.91 111.94 144.23 114.59 C 137.04 114.55 129.84 114.49 122.66 114.09 C 122.94 113.52 123.51 112.36 123.79 111.79 C 132.25 110.77 141.00 111.79 149.24 109.24 C 151.15 108.63 153.82 107.54 153.50 105.07 C 153.09 101.83 151.14 97.27 147.08 98.35 C 137.06 100.60 128.52 106.77 120.09 112.37 M 85.81 133.73 C 84.36 135.49 82.42 137.43 82.57 139.88 C 83.35 142.62 85.80 146.67 89.08 144.44 C 97.26 138.34 101.89 128.91 107.88 120.89 C 107.87 124.60 105.30 127.64 104.19 131.07 C 101.90 137.77 96.84 144.15 98.48 151.61 C 100.93 153.85 105.77 154.96 107.93 151.81 C 109.66 148.15 109.90 144.01 110.23 140.03 C 110.51 132.55 110.95 124.98 110.06 117.53 C 101.47 122.05 92.58 126.62 85.81 133.73 M 115.36 118.06 C 115.62 126.36 115.55 134.68 116.23 142.96 C 117.04 146.30 117.55 150.23 120.41 152.52 C 122.56 154.26 125.33 153.29 127.70 152.72 C 127.64 149.20 128.10 145.52 126.70 142.19 C 123.88 134.67 119.48 127.83 116.73 120.31 L 118.96 121.57 C 123.81 128.73 127.58 136.78 134.04 142.73 C 135.58 143.97 137.42 144.76 139.20 145.61 C 141.86 143.48 143.45 140.32 142.63 136.88 C 134.74 129.10 125.86 121.92 115.36 118.06 M 128.60 141.09 C 129.12 144.44 129.39 147.89 130.57 151.10 C 131.20 153.28 134.12 154.63 136.01 153.14 C 136.83 151.85 137.40 150.41 138.03 149.03 C 135.22 146.02 132.28 143.03 128.60 141.09 M 139.72 151.41 C 139.25 152.81 137.71 154.46 138.83 155.92 C 140.69 159.24 142.31 162.67 144.12 166.02 C 145.29 165.66 146.50 165.23 147.23 164.17 C 149.84 160.95 152.06 157.42 154.28 153.92 C 154.29 151.44 153.97 148.73 151.97 147.01 C 149.99 145.14 148.46 142.43 146.03 141.23 C 143.79 144.54 141.51 147.83 139.72 151.41 M 89.76 147.18 C 88.72 149.20 89.67 151.62 89.62 153.78 C 91.45 153.56 93.95 153.77 94.83 151.72 C 96.46 148.41 96.89 144.61 96.58 140.97 C 94.25 142.98 91.81 144.87 89.76 147.18 Z" />
<path fill="#000000" opacity="1.00" d=" M 18.51 86.48 C 21.36 86.23 24.66 86.04 26.95 88.09 C 24.32 90.00 21.21 88.87 18.32 88.44 C 18.37 87.95 18.47 86.97 18.51 86.48 Z" />
<path fill="#000000" opacity="1.00" d=" M 199.18 88.54 C 199.89 85.64 203.80 86.74 205.99 86.11 C 206.35 86.43 207.05 87.08 207.41 87.41 C 207.19 87.69 206.77 88.25 206.56 88.53 C 204.10 88.61 201.64 88.63 199.18 88.54 Z" />
<path fill="#000000" opacity="1.00" d=" M 80.85 111.75 C 87.93 111.65 95.06 111.08 102.13 111.77 C 102.47 112.38 103.16 113.60 103.50 114.22 C 95.89 114.54 88.27 114.48 80.65 114.64 C 80.70 113.91 80.80 112.47 80.85 111.75 Z" />
<path fill="#000000" opacity="1.00" d=" M 18.40 137.44 C 21.00 137.25 23.61 137.19 26.22 137.30 C 24.99 140.07 21.14 139.19 18.68 139.48 C 18.61 138.97 18.47 137.95 18.40 137.44 Z" />
<path fill="#000000" opacity="1.00" d=" M 198.93 137.48 C 201.88 137.25 205.36 136.44 207.81 138.59 C 205.08 140.21 201.13 139.80 198.93 137.48 Z" />
</g>
</svg>
