<?xml version="1.0" encoding="UTF-8" ?>
<!DOCTYPE svg PUBLIC "-//W3C//DTD SVG 1.1//EN" "http://www.w3.org/Graphics/SVG/1.1/DTD/svg11.dtd">
<svg width="211pt" height="239pt" viewBox="0 0 211 239" version="1.1" xmlns="http://www.w3.org/2000/svg">
<g id="#ffffffff">
</g>
<g id="#010101ff">
<path fill="#010101" opacity="1.00" d=" M 91.17 18.18 C 94.94 13.24 99.63 9.10 103.82 4.52 C 110.12 9.13 115.76 14.64 120.39 20.91 C 119.30 26.03 120.09 31.25 119.84 36.43 C 123.49 38.25 126.83 40.59 129.98 43.16 C 132.48 45.21 135.77 46.55 137.46 49.43 C 138.59 53.63 138.88 58.03 139.78 62.30 C 135.01 62.37 130.32 63.37 125.87 65.04 C 123.94 65.91 121.33 65.75 119.88 64.08 C 117.35 61.19 114.90 58.23 112.32 55.38 C 112.33 56.32 112.33 58.20 112.34 59.14 C 110.55 62.62 110.68 66.92 111.84 70.58 C 112.03 69.70 112.40 67.94 112.59 67.06 C 115.12 67.67 117.70 68.07 120.31 68.12 C 122.06 71.34 122.94 75.03 122.33 78.68 C 120.10 80.02 117.98 81.53 115.93 83.14 C 114.52 83.29 113.03 83.14 111.71 83.74 C 110.76 88.44 111.68 93.26 111.46 98.01 C 111.25 102.70 110.89 107.38 110.84 112.08 C 118.34 109.34 124.55 104.21 131.30 100.11 C 132.50 96.69 134.14 93.27 133.36 89.54 C 134.33 88.66 135.32 87.79 136.33 86.96 C 137.29 85.62 137.66 83.17 139.82 83.52 C 142.69 85.50 145.49 87.85 146.53 91.32 C 149.01 89.67 151.62 88.22 154.28 86.88 C 151.21 84.45 147.77 82.48 144.11 81.09 C 142.86 79.81 141.46 78.65 140.47 77.14 C 141.82 74.53 141.98 71.77 141.28 68.95 C 142.52 65.74 145.73 64.54 148.80 63.81 C 151.22 63.85 153.52 63.20 155.83 62.57 C 160.28 65.69 165.39 67.71 169.90 70.75 C 175.75 67.65 180.76 62.85 187.05 60.69 C 190.92 61.49 194.82 62.25 198.80 62.01 C 200.08 63.37 202.19 64.58 201.76 66.78 C 201.45 69.68 201.35 72.65 200.42 75.43 C 198.82 79.03 194.99 80.74 192.17 83.22 C 188.12 85.46 184.40 88.33 180.05 89.99 C 181.50 94.89 182.46 99.91 183.30 104.95 C 183.36 107.14 181.66 108.89 180.41 110.53 C 177.97 113.15 175.84 116.04 173.34 118.60 C 170.35 119.57 169.26 116.05 167.43 114.50 C 164.66 111.42 160.16 110.37 158.06 106.67 C 159.31 104.06 159.72 101.20 159.66 98.33 C 157.01 99.67 154.46 101.21 151.98 102.84 C 154.29 105.12 156.53 107.49 158.13 110.34 C 156.74 112.20 154.97 113.70 152.97 114.87 C 148.76 113.82 145.32 111.12 141.63 108.99 C 137.00 111.15 133.06 114.52 128.45 116.71 C 124.47 118.50 121.16 121.63 116.83 122.65 C 116.34 123.42 115.85 124.19 115.36 124.97 C 122.62 128.26 129.58 132.19 136.23 136.59 C 139.93 137.42 143.22 134.70 146.53 133.44 C 150.46 131.67 154.28 134.50 158.17 134.96 C 159.04 138.10 157.41 141.00 156.28 143.82 C 154.51 144.36 152.77 144.97 151.06 145.67 C 154.54 147.86 158.08 149.94 161.79 151.70 C 161.60 148.09 160.54 144.20 162.91 141.04 C 167.16 139.33 170.81 136.51 174.79 134.29 C 177.29 137.55 180.65 139.96 184.06 142.17 C 185.87 147.88 185.42 154.01 185.90 159.93 C 191.05 163.52 196.70 166.21 202.17 169.24 C 205.16 174.00 204.70 179.80 206.74 184.89 C 205.52 186.68 203.13 186.11 201.31 186.66 C 197.52 187.63 193.82 188.96 189.98 189.71 C 187.89 189.37 186.61 187.40 184.81 186.44 C 181.76 184.73 178.62 183.02 175.26 182.03 C 169.83 183.63 164.76 186.24 160.04 189.31 C 155.69 188.76 151.50 187.33 147.18 186.55 C 145.70 186.11 143.89 186.20 142.76 184.99 C 141.56 179.81 144.85 175.04 144.98 169.91 C 149.20 167.76 154.27 167.18 157.87 163.94 C 154.10 161.11 150.19 158.46 146.22 155.90 C 146.03 158.19 145.98 160.49 145.95 162.78 C 144.49 164.19 143.03 165.61 141.54 166.98 C 139.08 165.37 136.45 163.85 134.49 161.62 C 133.97 157.51 134.19 153.30 133.17 149.26 C 130.82 146.98 127.54 145.95 124.99 143.90 C 120.47 140.35 115.08 137.91 111.37 133.40 C 110.77 135.58 110.33 137.82 110.62 140.10 C 111.03 146.20 109.64 152.31 110.45 158.39 C 113.52 161.03 117.17 162.99 119.96 165.95 C 121.25 168.45 120.43 171.29 120.20 173.94 C 118.42 174.76 116.67 175.62 114.90 176.46 C 113.02 175.38 111.23 174.15 109.49 172.86 C 109.07 177.37 110.15 181.96 108.93 186.38 C 109.65 186.19 111.10 185.81 111.82 185.62 C 114.84 183.02 118.30 180.72 120.20 177.10 C 126.11 178.59 130.65 183.08 136.56 184.64 C 136.87 189.15 133.81 193.24 133.27 197.74 C 128.00 201.02 122.73 204.46 116.87 206.64 C 117.08 212.09 116.99 217.56 117.63 223.00 C 118.65 227.63 113.22 229.00 110.52 231.43 C 108.12 233.91 104.58 233.77 101.45 234.47 C 97.85 230.41 93.21 227.45 89.68 223.37 C 91.33 217.40 89.25 210.98 91.53 205.08 C 87.06 203.34 82.63 201.52 78.35 199.33 C 76.49 197.71 73.58 196.10 74.09 193.19 C 74.22 189.75 73.21 186.42 72.46 183.11 C 77.20 180.58 82.50 178.82 87.93 179.30 C 90.72 181.12 93.23 183.47 96.59 184.22 C 96.81 181.71 96.83 179.18 96.90 176.66 C 93.93 177.05 91.18 175.59 88.29 175.19 C 87.94 174.93 87.24 174.40 86.89 174.14 C 86.95 171.58 85.90 168.21 88.53 166.56 C 91.75 164.22 94.83 161.70 97.83 159.08 C 97.96 151.24 98.80 143.38 97.38 135.59 C 93.18 137.56 89.22 140.00 85.22 142.35 C 83.49 143.53 81.11 144.70 81.17 147.14 C 80.60 151.14 79.06 154.95 78.78 159.00 C 76.25 160.52 73.84 163.28 70.73 161.34 C 69.94 159.74 69.08 158.17 68.16 156.64 C 67.58 155.47 66.94 154.33 66.27 153.22 C 64.01 154.73 61.87 156.41 59.78 158.14 C 63.63 159.26 67.60 160.45 70.57 163.31 C 71.16 168.24 70.58 173.22 70.79 178.17 C 66.53 179.38 61.92 183.12 57.56 180.35 C 53.77 178.18 49.36 177.56 45.55 175.44 C 43.98 174.75 42.24 173.21 40.51 174.42 C 34.99 177.61 29.66 181.18 24.06 184.24 C 22.58 185.20 20.92 184.41 19.48 183.79 C 15.17 182.96 10.96 181.57 6.89 179.95 C 4.56 175.73 7.71 170.98 7.89 166.54 C 8.29 162.55 12.90 162.46 15.53 160.56 C 19.72 157.60 24.49 155.59 28.73 152.72 C 29.12 146.77 27.74 140.76 27.15 134.81 C 30.45 131.05 34.88 128.59 39.15 126.10 C 42.00 128.65 44.92 131.19 48.48 132.72 C 50.97 133.81 51.63 136.68 52.48 138.99 C 50.85 141.81 50.06 144.98 49.61 148.19 C 52.68 146.36 55.72 144.46 58.97 142.95 C 57.92 142.26 56.89 141.52 55.89 140.76 C 55.28 138.40 55.66 135.85 54.54 133.61 C 57.19 132.56 60.21 130.46 63.07 132.07 C 66.64 134.00 70.75 135.20 74.81 134.38 C 80.46 130.94 86.38 127.97 91.98 124.45 C 91.14 121.21 86.89 120.35 84.45 118.37 C 80.43 116.50 76.80 112.10 71.98 113.35 C 69.28 113.83 66.85 115.29 64.13 115.69 C 61.50 114.36 59.12 112.56 56.53 111.15 C 56.49 110.70 56.41 109.81 56.37 109.37 C 57.93 107.36 59.30 105.12 61.53 103.76 C 58.74 102.03 56.02 100.20 53.34 98.31 C 53.68 103.19 53.60 108.07 53.28 112.95 C 49.01 114.64 45.68 117.85 41.97 120.44 C 39.80 120.32 38.18 118.62 37.09 116.89 C 35.03 113.72 32.12 111.26 29.65 108.44 C 30.44 103.34 31.40 98.05 30.39 92.92 C 25.20 89.16 20.07 85.27 14.21 82.59 C 11.94 81.75 10.68 79.49 10.72 77.13 C 10.65 73.43 9.26 69.88 9.48 66.16 C 14.67 65.39 19.66 63.54 24.83 62.75 C 29.77 63.69 33.54 67.38 37.94 69.57 C 40.36 69.96 42.29 68.24 44.40 67.40 C 48.67 65.53 53.36 64.61 57.27 61.96 C 62.06 63.67 66.00 67.26 71.16 68.05 C 71.89 69.83 73.64 71.78 72.52 73.77 C 71.00 76.76 69.73 79.89 69.18 83.21 C 65.21 84.66 61.17 85.95 57.29 87.64 C 60.80 89.84 64.61 91.56 67.81 94.23 C 67.07 89.82 71.23 87.65 74.13 85.31 C 76.17 88.25 78.82 90.64 81.33 93.14 C 81.34 96.07 81.20 99.00 81.19 101.93 C 87.14 105.30 92.68 109.32 98.45 112.98 C 98.70 104.04 98.33 95.09 98.84 86.15 C 95.99 83.70 92.84 81.56 90.28 78.78 C 88.60 77.21 89.65 74.74 90.11 72.87 C 90.20 71.71 90.36 70.56 90.58 69.42 C 93.19 67.39 97.00 67.49 98.58 70.86 C 98.73 66.19 99.53 61.54 99.17 56.85 C 96.80 59.13 94.95 61.89 92.55 64.14 C 90.84 65.29 88.74 64.42 86.90 64.17 C 83.11 63.32 79.10 63.68 75.44 62.25 C 75.60 58.81 75.81 55.38 76.00 51.94 C 76.02 49.62 77.57 47.43 79.62 46.42 C 83.93 44.44 87.90 41.63 90.94 37.97 C 93.55 31.58 91.76 24.75 91.17 18.18 M 97.67 20.58 C 96.61 24.30 97.24 28.24 97.11 32.05 C 96.99 34.17 97.33 36.28 98.16 38.24 C 92.47 42.75 86.97 47.69 80.26 50.66 C 80.23 51.24 80.19 52.39 80.16 52.96 C 79.71 55.15 79.43 57.37 79.37 59.60 C 82.77 60.20 86.26 60.32 89.57 61.39 C 92.97 56.92 97.06 53.07 101.02 49.12 C 101.81 50.61 103.83 51.89 103.31 53.79 C 102.00 62.09 104.86 70.75 102.31 78.87 C 99.02 77.16 97.32 73.69 94.43 71.49 C 94.36 73.71 94.36 75.94 94.30 78.16 C 97.43 80.48 101.22 82.43 102.73 86.26 C 102.67 96.71 101.32 107.26 102.67 117.69 C 102.43 117.99 101.96 118.60 101.72 118.90 C 99.46 118.16 97.65 116.53 95.67 115.26 C 89.25 110.84 81.93 107.65 76.11 102.40 C 77.82 98.49 78.26 93.26 74.15 90.67 C 73.26 92.00 72.37 93.34 71.46 94.66 C 71.05 96.21 72.89 99.75 70.52 99.86 C 63.94 95.41 56.80 91.82 50.47 86.97 C 50.80 86.47 51.46 85.46 51.80 84.95 C 55.87 83.21 60.04 81.71 64.14 80.09 C 65.64 77.50 66.75 74.70 67.58 71.83 C 63.05 70.90 58.72 67.32 53.99 69.31 C 49.27 71.65 44.08 73.00 40.04 76.56 C 34.52 75.07 30.69 69.70 25.08 68.28 C 21.95 68.51 18.92 69.42 15.82 69.87 C 16.46 72.84 16.57 75.89 16.83 78.92 C 21.50 81.08 25.62 84.23 29.83 87.16 C 32.12 88.97 35.49 90.65 35.25 94.09 C 34.98 98.49 34.77 102.96 33.61 107.24 C 36.06 109.65 38.18 112.36 40.17 115.17 C 42.03 113.79 43.71 112.15 45.79 111.11 C 47.42 110.15 49.70 109.41 49.70 107.13 C 50.01 103.44 49.40 99.73 49.46 96.02 C 48.98 95.53 48.02 94.53 47.54 94.04 C 47.94 93.46 48.73 92.29 49.12 91.71 C 55.90 95.46 61.97 100.38 68.76 104.13 C 67.60 107.03 64.40 107.11 61.79 107.71 C 61.46 108.27 60.79 109.39 60.46 109.95 C 61.31 110.64 62.16 111.32 63.01 112.01 C 66.80 111.49 70.30 109.88 74.02 109.08 C 75.39 108.55 76.67 109.30 77.75 110.06 C 83.50 114.06 89.87 117.12 95.24 121.65 C 95.72 122.77 96.19 123.89 96.65 125.02 C 88.53 130.34 80.24 135.43 71.96 140.48 C 68.15 137.58 63.72 135.43 58.82 135.64 C 59.11 136.91 59.41 138.18 59.71 139.45 C 60.93 139.57 62.16 139.69 63.38 139.81 C 64.46 140.65 65.53 141.50 66.60 142.37 C 65.69 143.29 65.00 144.52 63.78 145.07 C 58.67 147.56 53.71 150.35 48.55 152.74 C 45.05 148.28 47.58 142.50 46.92 137.35 C 44.43 134.98 41.58 133.06 38.87 130.96 C 36.36 132.80 33.62 134.48 31.75 137.02 C 32.46 142.89 32.92 148.81 33.26 154.72 C 31.22 157.56 27.54 158.14 24.71 159.89 C 20.78 162.31 16.78 164.59 12.88 167.07 C 12.29 170.35 11.57 173.62 10.40 176.75 C 14.69 178.35 19.29 178.87 23.79 179.38 C 27.41 177.12 31.21 175.16 34.81 172.88 C 37.40 171.27 39.50 167.24 43.04 169.12 C 47.92 171.70 53.33 173.08 58.02 176.03 C 60.55 177.92 63.55 176.11 66.18 175.41 C 67.64 171.99 67.31 168.26 67.20 164.65 C 63.68 163.66 60.16 162.68 56.81 161.19 C 55.30 160.30 52.97 160.78 52.07 159.02 C 52.73 157.06 54.44 155.77 56.25 154.92 C 60.62 152.78 65.20 150.97 69.16 148.08 C 70.51 147.01 72.15 146.51 73.84 146.32 C 73.23 150.41 69.43 155.33 72.78 158.99 C 76.51 155.80 75.07 150.71 77.10 146.75 C 76.69 145.84 76.29 144.92 75.89 144.00 C 80.19 141.19 84.88 139.04 89.27 136.39 C 92.63 134.70 95.70 132.35 99.36 131.30 C 99.84 131.89 100.81 133.07 101.30 133.67 C 101.41 142.33 100.99 151.01 101.48 159.67 C 102.04 159.76 103.14 159.96 103.69 160.05 C 97.88 162.28 93.70 167.28 89.03 171.20 C 89.56 171.54 90.62 172.21 91.16 172.55 C 95.26 173.80 97.06 168.93 100.18 167.31 C 101.37 171.45 100.28 175.70 100.24 179.91 C 100.08 183.82 100.48 187.74 101.00 191.61 C 95.90 189.54 90.81 187.05 87.17 182.78 C 83.54 183.24 80.11 184.58 76.59 185.51 C 78.02 188.41 77.83 191.92 79.29 194.69 C 84.80 198.18 91.51 199.83 96.16 204.64 C 95.62 206.72 95.32 208.86 95.43 211.02 C 95.62 215.16 94.62 219.24 94.68 223.39 C 98.06 224.96 101.11 227.09 103.75 229.72 C 106.13 228.03 108.80 226.83 111.17 225.14 C 112.02 219.17 111.65 213.11 112.05 207.11 C 112.36 205.90 112.18 204.22 113.49 203.55 C 118.17 200.41 123.68 198.87 128.66 196.27 C 129.75 193.18 130.98 190.13 131.97 187.00 C 127.98 186.19 124.25 184.56 120.97 182.16 C 117.57 186.64 113.00 190.14 107.53 191.67 C 106.00 189.80 106.48 187.40 106.63 185.20 C 105.87 183.98 104.89 182.69 105.29 181.16 C 105.73 177.17 106.01 173.13 105.37 169.15 C 108.34 166.91 111.17 169.94 113.26 171.90 C 114.61 171.44 115.95 170.97 117.31 170.55 C 116.94 169.37 117.13 167.80 116.00 167.01 C 112.78 164.53 109.70 161.87 106.68 159.14 C 106.63 153.40 106.58 147.64 107.06 141.91 C 107.49 137.87 106.54 133.45 109.07 129.91 C 109.46 129.97 110.23 130.08 110.61 130.13 C 119.16 135.57 127.40 141.48 136.03 146.80 C 136.86 151.33 138.40 155.74 138.04 160.43 C 139.52 160.85 141.01 161.26 142.51 161.64 C 142.39 158.22 142.25 154.79 142.67 151.38 C 147.43 151.30 150.71 155.28 154.51 157.53 C 157.74 159.97 163.36 160.33 163.76 165.31 C 159.67 168.61 154.37 169.88 149.53 171.73 C 149.08 175.38 147.68 178.80 147.00 182.40 C 150.78 182.91 155.03 182.20 158.23 184.71 C 163.94 182.20 169.40 179.17 175.19 176.88 C 177.74 176.98 179.87 178.76 182.23 179.59 C 185.36 180.45 187.18 183.58 190.12 184.69 C 193.66 183.89 197.05 182.45 200.56 181.49 C 199.62 178.42 198.92 175.27 198.66 172.06 C 193.10 170.97 189.03 166.65 183.85 164.67 C 181.43 162.04 181.59 158.34 180.83 155.06 C 180.83 152.20 180.69 149.34 180.51 146.49 C 178.50 144.51 176.52 142.50 174.45 140.59 C 171.57 142.52 168.41 144.02 164.95 144.52 C 166.12 148.20 166.95 152.05 166.94 155.93 C 166.60 156.36 165.92 157.23 165.58 157.66 C 158.37 153.96 150.50 150.71 144.79 144.81 C 148.17 142.61 152.28 141.66 155.25 138.83 C 152.92 137.98 150.21 136.45 147.76 137.78 C 144.08 139.58 140.03 140.36 135.98 140.80 C 130.25 136.88 123.98 133.80 118.50 129.53 C 115.70 127.44 112.20 126.16 110.11 123.23 C 112.31 121.65 114.71 120.36 116.99 118.90 C 125.08 115.17 132.48 110.11 140.09 105.51 C 144.55 106.65 148.37 109.18 152.07 111.82 C 152.74 110.60 153.41 109.37 154.03 108.12 C 152.17 106.24 149.99 104.73 148.04 102.96 C 148.18 102.36 148.46 101.15 148.59 100.54 C 152.42 98.33 156.36 96.30 160.07 93.89 C 163.71 96.88 163.93 101.63 163.29 105.94 C 165.27 107.92 167.83 109.22 169.67 111.36 C 170.89 111.69 172.09 112.03 173.30 112.38 C 174.45 110.77 175.48 109.07 176.34 107.28 C 180.38 101.32 173.92 94.17 176.81 87.95 C 181.98 83.19 188.61 80.37 194.31 76.31 C 194.68 75.22 194.97 74.12 195.19 72.99 C 195.37 71.29 195.52 69.58 195.68 67.88 C 192.84 66.92 190.06 65.78 187.22 64.80 C 182.19 68.72 176.90 72.26 171.33 75.39 C 170.37 75.99 169.40 75.99 168.41 75.41 C 163.61 73.52 159.49 70.26 154.78 68.20 C 151.82 68.41 149.15 69.93 146.26 70.53 C 146.41 73.00 146.62 75.46 146.75 77.92 C 151.39 80.02 155.59 83.07 158.88 86.97 C 156.20 89.49 153.09 91.47 149.80 93.12 C 147.14 94.54 144.81 97.88 141.41 96.60 C 140.25 94.43 141.76 91.96 142.24 89.78 C 141.80 89.14 141.36 88.51 140.93 87.88 C 139.75 89.31 138.42 90.65 137.45 92.24 C 137.19 95.58 137.07 98.95 136.08 102.19 C 130.61 104.32 126.19 108.35 120.90 110.83 C 116.72 113.57 112.01 115.31 107.91 118.17 C 107.64 117.97 107.08 117.57 106.81 117.37 C 107.32 113.32 109.30 108.37 105.94 105.01 L 105.51 107.41 C 105.34 106.55 105.02 104.81 104.85 103.94 C 105.80 104.61 106.76 105.27 107.72 105.92 C 107.08 101.97 107.23 97.97 107.18 93.98 C 107.66 90.83 107.28 87.65 107.43 84.49 C 109.18 82.83 111.01 81.25 112.85 79.71 C 114.60 78.23 117.40 78.12 118.46 75.88 C 118.66 74.45 118.01 73.09 117.75 71.72 C 116.62 71.48 115.50 71.24 114.38 71.01 C 111.83 73.49 111.02 78.57 106.56 77.82 C 106.58 74.58 106.84 71.35 107.46 68.17 C 106.66 64.10 105.78 59.56 107.39 55.60 C 106.84 54.37 106.29 53.14 105.75 51.91 C 107.04 51.12 108.32 50.32 109.59 49.50 C 113.80 51.28 117.29 54.45 119.76 58.27 C 120.89 59.62 121.84 61.89 123.97 61.62 C 127.60 61.17 132.26 61.86 134.66 58.47 C 134.16 56.18 133.68 53.89 133.25 51.58 C 128.69 47.78 123.67 44.61 118.78 41.26 C 116.82 39.61 114.13 37.91 114.17 35.02 C 114.22 30.71 114.93 26.22 114.06 22.01 C 110.92 18.69 108.07 15.09 104.82 11.87 C 102.26 14.60 100.00 17.64 97.67 20.58 Z" />
</g>
</svg>
