<?xml version="1.0" encoding="UTF-8" ?>
<!DOCTYPE svg PUBLIC "-//W3C//DTD SVG 1.1//EN" "http://www.w3.org/Graphics/SVG/1.1/DTD/svg11.dtd">
<svg width="225pt" height="225pt" viewBox="0 0 225 225" version="1.1" xmlns="http://www.w3.org/2000/svg">
<g id="#ffffffff">
</g>
<g id="#000000ff">
<path fill="#000000" opacity="1.00" d=" M 105.62 4.94 C 108.73 4.93 111.85 4.93 114.97 4.93 C 114.68 13.03 114.94 21.14 114.82 29.25 C 121.89 25.04 129.12 21.11 136.16 16.84 C 136.11 20.44 136.15 24.04 136.09 27.64 C 128.90 31.53 121.85 35.68 114.81 39.82 C 114.87 43.39 114.85 46.96 114.81 50.52 C 121.90 46.34 129.09 42.35 136.18 38.17 C 136.14 41.72 136.16 45.27 136.14 48.81 C 129.04 52.86 121.98 56.99 114.85 60.99 C 114.82 67.92 114.88 74.85 114.82 81.79 C 118.79 79.30 122.99 77.20 126.95 74.69 C 126.88 71.42 126.91 68.14 126.90 64.87 C 129.98 63.06 133.07 61.29 136.17 59.52 C 136.16 62.87 136.14 66.22 136.10 69.57 C 138.89 67.97 141.68 66.36 144.44 64.70 C 144.36 68.33 144.45 71.97 144.26 75.61 C 141.45 76.97 138.74 78.54 136.09 80.19 C 136.16 84.58 136.12 88.97 136.12 93.37 C 142.00 90.06 147.80 86.62 153.69 83.32 C 153.62 75.18 153.70 67.04 153.64 58.90 C 156.75 57.08 159.86 55.27 163.00 53.52 C 162.75 61.73 163.04 69.94 162.83 78.15 C 165.87 76.23 169.05 74.54 172.12 72.66 C 172.05 64.54 172.25 56.42 172.07 48.30 C 175.19 46.56 178.27 44.76 181.34 42.95 C 181.27 51.13 181.32 59.30 181.26 67.48 C 188.33 63.43 195.42 59.39 202.46 55.30 C 204.00 57.95 205.56 60.59 207.11 63.23 C 200.07 67.33 192.93 71.25 185.96 75.46 C 193.14 79.44 200.19 83.65 207.38 87.60 C 204.25 89.30 201.16 91.08 198.10 92.89 C 190.98 88.86 183.96 84.65 176.77 80.78 C 173.50 82.31 170.50 84.32 167.34 86.04 C 174.48 90.12 181.71 94.09 188.73 98.40 C 185.57 100.02 182.51 101.83 179.42 103.57 C 172.42 99.33 165.20 95.46 158.18 91.26 C 152.20 94.77 146.16 98.17 140.15 101.64 C 144.20 103.97 148.25 106.28 152.28 108.64 C 155.17 106.93 158.10 105.28 161.00 103.60 C 164.04 105.37 167.10 107.13 170.15 108.90 C 167.33 110.64 164.37 112.17 161.55 113.93 C 164.30 115.53 167.04 117.14 169.88 118.58 C 166.80 120.40 163.66 122.13 160.58 123.95 C 157.83 122.38 155.14 120.72 152.35 119.24 C 148.33 121.24 144.51 123.66 140.57 125.81 C 146.43 129.15 152.33 132.44 158.12 135.92 C 165.14 131.73 172.35 127.87 179.33 123.61 C 182.48 125.33 185.57 127.15 188.71 128.89 C 181.64 133.08 174.36 136.91 167.41 141.29 C 170.51 142.92 173.58 144.63 176.55 146.50 C 183.74 142.49 190.86 138.34 198.02 134.27 C 201.10 136.01 204.09 137.94 207.33 139.39 C 200.24 143.64 192.99 147.61 185.84 151.76 C 192.91 155.81 200.00 159.85 207.05 163.93 C 205.48 166.54 203.92 169.17 202.45 171.84 C 195.37 167.81 188.35 163.67 181.23 159.72 C 181.21 167.89 181.24 176.07 181.28 184.24 C 178.22 182.37 175.10 180.63 172.00 178.82 C 172.11 170.67 171.86 162.52 172.01 154.37 C 168.88 152.61 165.77 150.82 162.70 148.96 C 162.77 157.18 162.66 165.40 162.77 173.62 C 159.72 171.77 156.59 170.05 153.53 168.22 C 153.63 160.06 153.55 151.91 153.58 143.76 C 147.48 140.37 141.49 136.82 135.42 133.40 C 135.55 138.05 135.47 142.70 135.49 147.34 C 138.42 148.96 141.30 150.67 144.22 152.30 C 144.19 155.84 144.19 159.38 144.21 162.92 C 141.28 161.26 138.40 159.54 135.50 157.84 C 135.48 161.08 135.49 164.32 135.50 167.56 C 132.53 165.70 129.52 163.93 126.42 162.30 C 126.29 159.09 126.33 155.87 126.38 152.67 C 122.46 150.40 118.49 148.20 114.62 145.86 C 114.59 152.55 114.68 159.24 114.57 165.93 C 121.68 170.08 128.82 174.19 136.00 178.23 C 136.02 181.78 136.00 185.34 136.02 188.89 C 128.91 184.72 121.74 180.65 114.58 176.55 C 114.63 180.10 114.64 183.64 114.58 187.19 C 121.70 191.30 128.78 195.48 135.98 199.45 C 136.02 203.03 136.02 206.61 136.01 210.19 C 128.94 205.95 121.75 201.92 114.61 197.80 C 114.66 205.90 114.56 214.00 114.67 222.09 C 111.60 222.11 108.53 222.11 105.45 222.11 C 105.55 214.00 105.48 205.90 105.49 197.80 C 98.30 201.90 91.13 206.01 83.98 210.19 C 84.07 206.68 84.09 203.17 83.98 199.66 C 91.12 195.46 98.32 191.36 105.50 187.24 C 105.49 183.67 105.49 180.10 105.54 176.53 C 98.32 180.55 91.18 184.73 84.01 188.84 C 84.00 185.30 84.00 181.77 84.00 178.24 C 91.20 174.15 98.39 170.06 105.52 165.87 C 105.47 158.99 105.51 152.11 105.50 145.23 C 101.46 147.62 97.38 149.95 93.33 152.34 C 93.34 155.67 93.33 159.00 93.36 162.33 C 90.25 164.10 87.14 165.86 84.01 167.60 C 84.11 164.28 84.11 160.96 84.10 157.64 C 81.32 159.17 78.59 160.77 75.86 162.38 C 75.88 158.86 75.90 155.34 75.88 151.81 C 78.61 150.18 81.37 148.60 84.13 147.04 C 84.09 142.57 84.11 138.10 84.14 133.63 C 78.25 136.94 72.45 140.40 66.55 143.69 C 66.46 151.85 66.79 160.04 66.41 168.18 C 63.51 170.11 60.34 171.60 57.41 173.49 C 57.49 165.28 57.43 157.07 57.45 148.86 C 54.35 150.71 51.23 152.53 48.09 154.31 C 48.13 162.46 48.10 170.61 48.08 178.76 C 45.00 180.53 41.91 182.26 38.88 184.10 C 38.94 175.93 38.88 167.75 38.92 159.58 C 31.85 163.60 24.81 167.67 17.74 171.71 C 16.21 169.06 14.68 166.41 13.14 163.77 C 20.16 159.68 27.35 155.85 34.22 151.52 C 27.04 147.61 20.07 143.32 12.85 139.47 C 16.03 137.74 19.09 135.80 22.31 134.16 C 29.36 138.34 36.49 142.37 43.63 146.37 C 46.67 144.47 49.81 142.75 52.95 141.02 C 45.76 136.90 38.49 132.90 31.42 128.58 C 34.64 127.07 37.67 125.21 40.77 123.47 C 47.84 127.62 55.01 131.59 62.06 135.76 C 68.04 132.27 74.05 128.82 80.09 125.42 C 76.06 123.14 72.13 120.70 68.02 118.58 C 65.01 120.08 62.20 121.96 59.21 123.51 C 56.18 121.72 53.16 119.91 50.06 118.23 C 52.95 116.56 55.83 114.85 58.79 113.29 C 56.05 111.61 53.28 109.97 50.42 108.49 C 53.48 106.69 56.61 105.00 59.66 103.17 C 62.47 104.73 65.26 106.33 68.02 107.97 C 71.89 105.70 75.77 103.45 79.69 101.26 C 73.82 97.87 67.91 94.56 62.08 91.11 C 55.05 95.31 47.85 99.23 40.80 103.41 C 37.72 101.63 34.62 99.89 31.54 98.12 C 38.67 94.05 45.76 89.89 52.94 85.89 C 49.77 84.13 46.66 82.26 43.48 80.52 C 36.53 84.63 29.47 88.57 22.48 92.60 C 19.12 91.33 16.18 89.08 12.93 87.52 C 20.05 83.42 27.26 79.46 34.30 75.22 C 27.26 71.22 20.27 67.12 13.21 63.14 C 14.75 60.50 16.27 57.85 17.81 55.21 C 24.87 59.17 31.81 63.36 38.92 67.23 C 38.94 59.06 38.96 50.89 38.91 42.72 C 41.94 44.64 45.09 46.35 48.17 48.17 C 48.14 56.32 48.15 64.47 48.17 72.62 C 51.32 74.41 54.46 76.22 57.59 78.05 C 57.55 69.84 57.61 61.64 57.55 53.43 C 60.46 55.29 63.56 56.84 66.50 58.66 C 67.04 66.77 66.59 75.01 66.69 83.17 C 72.68 86.77 78.80 90.15 84.85 93.65 C 84.81 89.07 84.74 84.48 84.89 79.90 C 81.95 78.14 78.96 76.44 75.97 74.75 C 75.96 71.24 76.03 67.72 76.01 64.20 C 78.97 65.80 81.85 67.55 84.79 69.19 C 84.82 65.98 84.82 62.76 84.76 59.55 C 87.81 61.51 91.00 63.20 94.08 65.10 C 94.02 68.27 94.02 71.45 94.09 74.63 C 98.02 76.66 101.77 79.01 105.63 81.17 C 105.67 74.49 105.59 67.81 105.67 61.12 C 98.58 56.88 91.33 52.91 84.21 48.71 C 84.29 45.17 84.29 41.63 84.18 38.09 C 91.29 42.29 98.48 46.34 105.64 50.46 C 105.64 46.89 105.64 43.33 105.65 39.76 C 98.49 35.71 91.37 31.59 84.25 27.46 C 84.26 23.94 84.31 20.41 84.14 16.88 C 91.31 20.98 98.43 25.15 105.63 29.20 C 105.65 21.11 105.65 13.02 105.62 4.94 M 93.94 85.04 C 94.12 89.69 94.03 94.34 94.03 98.99 C 97.90 101.23 101.76 103.48 105.69 105.62 C 105.60 100.99 105.64 96.36 105.66 91.73 C 101.72 89.55 97.83 87.30 93.94 85.04 M 114.86 92.33 C 114.82 96.79 114.87 101.25 114.81 105.72 C 118.78 103.26 122.87 101.01 126.92 98.69 C 126.90 94.25 126.90 89.83 126.92 85.40 C 122.90 87.70 118.86 89.98 114.86 92.33 M 77.25 113.30 C 81.25 115.52 85.24 117.74 89.13 120.14 C 93.20 118.16 96.99 115.69 100.95 113.52 C 96.73 111.32 92.83 108.47 88.41 106.68 C 84.81 109.07 80.92 111.00 77.25 113.30 M 119.34 113.58 C 123.39 115.89 127.43 118.22 131.48 120.55 C 135.32 118.27 139.23 116.09 143.12 113.86 C 139.02 111.61 134.98 109.26 130.93 106.91 C 127.09 109.17 123.22 111.38 119.34 113.58 M 93.35 128.44 C 93.37 132.87 93.37 137.30 93.34 141.73 C 97.43 139.43 101.48 137.04 105.58 134.74 C 105.58 130.31 105.56 125.88 105.61 121.45 C 101.50 123.74 97.44 126.12 93.35 128.44 M 114.69 121.51 C 114.73 126.10 114.78 130.68 114.66 135.27 C 118.50 137.65 122.49 139.77 126.35 142.13 C 126.35 137.48 126.33 132.83 126.36 128.18 C 122.47 125.96 118.61 123.67 114.69 121.51 Z" />
</g>
</svg>
