<?xml version="1.0" encoding="UTF-8" ?>
<!DOCTYPE svg PUBLIC "-//W3C//DTD SVG 1.1//EN" "http://www.w3.org/Graphics/SVG/1.1/DTD/svg11.dtd">
<svg width="225pt" height="225pt" viewBox="0 0 225 225" version="1.1" xmlns="http://www.w3.org/2000/svg">
<g id="#ffffffff">
</g>
<g id="#000000ff">
<path fill="#000000" opacity="1.00" d=" M 109.95 7.79 C 113.02 5.75 117.72 8.25 117.64 11.97 C 117.81 20.20 117.67 28.43 117.68 36.66 C 123.03 31.59 127.97 26.08 133.45 21.16 C 137.89 18.27 143.66 24.22 140.44 28.47 C 133.10 36.41 125.10 43.74 117.65 51.58 C 117.77 57.13 117.68 62.68 117.70 68.23 C 120.78 65.15 123.74 61.94 126.96 59.00 C 129.26 56.71 133.24 57.74 134.92 60.29 C 135.62 62.18 135.76 64.59 134.30 66.17 C 129.00 72.04 122.83 77.16 117.77 83.21 C 117.58 88.81 117.79 94.41 117.69 100.01 C 128.29 89.22 139.07 78.62 149.72 67.89 C 149.68 57.59 149.66 47.29 149.71 36.99 C 149.42 34.07 152.07 31.35 155.02 31.64 C 157.80 31.57 160.24 34.19 160.05 36.94 C 160.09 43.81 160.08 50.68 160.03 57.56 C 166.51 51.19 172.85 44.66 179.32 38.27 C 181.23 36.05 185.02 35.75 187.04 37.98 C 189.17 40.01 188.92 43.75 186.71 45.62 C 180.33 52.11 173.84 58.50 167.46 64.98 C 174.85 65.05 182.28 64.70 189.66 65.14 C 193.09 66.00 193.88 69.82 193.09 72.83 C 191.64 74.06 190.13 75.56 188.04 75.30 C 177.74 75.36 167.44 75.35 157.14 75.29 C 146.40 85.93 135.81 96.71 125.02 107.29 C 130.61 107.22 136.21 107.42 141.80 107.23 C 148.05 101.97 153.31 95.55 159.45 90.13 C 163.63 87.70 168.80 92.30 166.92 96.72 C 164.01 100.66 160.13 103.76 156.77 107.29 C 162.40 107.27 168.03 107.33 173.67 107.25 C 180.90 99.92 188.20 92.65 195.50 85.39 C 197.30 83.26 200.91 83.05 202.85 85.08 C 205.13 86.94 204.97 90.84 202.82 92.75 C 198.05 97.66 193.10 102.40 188.34 107.32 C 196.52 107.33 204.71 107.18 212.90 107.36 C 216.67 107.19 219.34 111.93 217.22 115.06 C 216.20 117.49 213.30 117.74 211.02 117.72 C 203.46 117.70 195.90 117.73 188.34 117.68 C 193.25 122.80 198.46 127.64 203.30 132.81 C 205.67 135.40 204.21 139.16 201.78 141.11 C 199.81 141.19 197.45 141.70 195.97 140.02 C 188.44 132.68 181.07 125.19 173.66 117.74 C 168.03 117.68 162.40 117.72 156.77 117.71 C 159.82 120.79 163.04 123.72 165.95 126.94 C 168.74 129.59 166.75 135.12 162.94 135.37 C 159.18 136.16 157.08 132.44 154.68 130.30 C 150.33 126.19 146.43 121.54 141.79 117.77 C 136.21 117.58 130.61 117.78 125.02 117.71 C 135.81 128.29 146.40 139.08 157.15 149.71 C 167.41 149.64 177.68 149.64 187.95 149.69 C 190.07 149.41 191.62 150.90 193.09 152.17 C 194.02 155.35 192.82 159.52 189.08 159.95 C 181.88 160.19 174.66 160.01 167.46 160.01 C 173.98 166.68 180.69 173.16 187.16 179.89 C 189.75 182.41 188.42 187.38 184.95 188.33 C 182.94 189.01 180.72 188.24 179.31 186.72 C 172.85 180.34 166.52 173.81 160.03 167.44 C 160.00 174.83 160.26 182.24 159.92 189.62 C 158.74 194.84 150.05 194.41 149.77 188.96 C 149.59 178.35 149.71 167.74 149.73 157.13 C 139.09 146.38 128.28 135.79 117.69 124.99 C 117.80 130.60 117.57 136.21 117.77 141.81 C 122.84 147.83 128.96 152.94 134.26 158.78 C 135.88 160.39 135.31 162.80 135.09 164.81 C 133.20 166.83 130.00 168.31 127.50 166.42 C 124.00 163.46 120.97 159.98 117.70 156.77 C 117.69 162.32 117.76 167.88 117.66 173.44 C 125.14 181.25 133.08 188.62 140.46 196.52 C 143.68 200.77 137.95 206.77 133.48 203.83 C 127.96 198.95 123.06 193.41 117.70 188.34 C 117.67 196.53 117.80 204.72 117.66 212.90 C 117.81 216.71 113.04 219.29 109.91 217.19 C 107.49 216.19 107.28 213.30 107.29 211.05 C 107.31 203.48 107.30 195.91 107.32 188.34 C 101.98 193.43 97.02 198.91 91.56 203.87 C 87.08 206.70 81.40 200.81 84.56 196.54 C 91.80 188.70 99.73 181.49 107.04 173.72 C 107.69 168.15 107.11 162.42 107.30 156.79 C 104.21 159.86 101.25 163.05 98.06 166.01 C 95.74 168.31 91.76 167.24 90.08 164.69 C 89.40 162.80 89.26 160.40 90.70 158.82 C 96.00 152.96 102.17 147.85 107.23 141.80 C 107.45 136.20 107.22 130.60 107.32 125.00 C 96.73 135.78 85.95 146.37 75.30 157.09 C 75.35 167.38 75.37 177.68 75.30 187.98 C 75.55 190.51 73.56 193.12 70.99 193.30 C 67.88 193.97 64.69 191.18 64.96 188.03 C 64.92 181.17 64.95 174.31 64.97 167.44 C 58.08 174.13 51.53 181.20 44.49 187.74 C 40.06 191.02 33.95 184.74 37.43 180.42 C 43.90 173.40 50.92 166.89 57.54 160.02 C 50.32 160.00 43.09 160.19 35.88 159.95 C 31.85 159.51 30.05 153.72 33.17 151.12 C 34.58 149.41 36.98 149.75 38.95 149.65 C 48.60 149.70 58.24 149.62 67.88 149.70 C 78.62 139.06 89.21 128.27 100.01 117.69 C 94.41 117.80 88.80 117.57 83.20 117.77 C 77.04 123.15 71.47 129.27 65.67 135.06 C 63.47 135.40 60.55 135.96 59.11 133.76 C 57.41 131.97 57.22 128.76 59.02 126.98 C 61.94 123.75 65.16 120.80 68.23 117.71 C 62.67 117.69 57.10 117.76 51.54 117.66 C 43.74 125.15 36.38 133.09 28.48 140.46 C 24.22 143.71 18.18 137.84 21.22 133.43 C 26.08 127.92 31.61 123.03 36.66 117.68 C 29.10 117.73 21.55 117.70 13.99 117.72 C 11.69 117.74 8.78 117.48 7.76 115.03 C 5.67 111.90 8.36 107.18 12.13 107.36 C 20.30 107.18 28.48 107.33 36.66 107.32 C 31.90 102.41 26.97 97.68 22.20 92.78 C 20.64 91.37 20.13 89.09 20.79 87.12 C 21.83 83.52 27.13 82.44 29.50 85.39 C 36.82 92.65 44.10 99.95 51.36 107.27 C 56.98 107.32 62.61 107.28 68.23 107.30 C 64.87 103.75 60.98 100.66 58.07 96.72 C 56.23 92.28 61.37 87.71 65.55 90.12 C 71.69 95.55 76.95 101.96 83.20 107.23 C 88.79 107.42 94.39 107.22 99.98 107.29 C 89.19 96.71 78.60 85.93 67.87 75.30 C 57.60 75.35 47.33 75.37 37.07 75.30 C 34.95 75.56 33.38 74.09 31.90 72.84 C 30.99 69.66 32.18 65.49 35.91 65.05 C 43.12 64.81 50.33 64.99 57.54 64.98 C 51.02 58.30 44.29 51.82 37.82 45.09 C 35.27 42.56 36.57 37.62 40.04 36.70 C 42.03 35.97 44.26 36.76 45.66 38.25 C 52.13 44.65 58.48 51.18 64.97 57.56 C 64.95 50.40 64.85 43.25 64.99 36.10 C 65.27 31.97 71.16 30.05 73.85 33.15 C 75.63 34.57 75.24 37.02 75.33 39.02 C 75.27 48.64 75.36 58.27 75.28 67.89 C 85.93 78.62 96.71 89.22 107.31 100.01 C 107.24 94.67 107.35 89.34 107.28 84.00 C 107.43 82.57 105.99 81.74 105.21 80.77 C 100.52 76.12 95.82 71.48 91.20 66.76 C 89.94 65.59 89.31 63.81 89.63 62.11 C 89.85 58.29 95.29 56.26 98.00 58.97 C 101.24 61.91 104.21 65.14 107.30 68.23 C 107.27 62.61 107.32 56.98 107.26 51.35 C 100.27 44.47 93.38 37.48 86.42 30.56 C 84.90 29.09 83.23 27.27 83.75 24.95 C 84.05 21.01 89.37 19.03 92.23 21.71 C 97.36 26.58 102.22 31.75 107.32 36.66 C 107.27 29.07 107.30 21.49 107.28 13.90 C 107.23 11.64 107.54 8.77 109.95 7.79 Z" />
</g>
</svg>
