<?xml version="1.0" encoding="UTF-8" ?>
<!DOCTYPE svg PUBLIC "-//W3C//DTD SVG 1.1//EN" "http://www.w3.org/Graphics/SVG/1.1/DTD/svg11.dtd">
<svg width="177pt" height="185pt" viewBox="0 0 177 185" version="1.1" xmlns="http://www.w3.org/2000/svg">
<g id="#ffffffff">
</g>
<g id="#000000ff">
<path fill="#000000" opacity="1.00" d=" M 64.88 8.15 C 66.13 5.75 67.42 3.38 68.74 1.01 C 71.41 0.99 74.09 0.91 76.76 0.78 C 78.17 3.06 79.58 5.34 80.96 7.64 C 79.52 10.45 78.23 13.44 75.80 15.57 C 76.08 17.64 76.40 19.70 76.74 21.77 C 78.63 20.26 80.51 18.73 82.35 17.16 C 83.51 17.23 84.67 17.29 85.83 17.36 C 85.70 18.47 85.56 19.58 85.43 20.69 C 82.84 22.84 80.23 24.98 77.60 27.09 C 78.24 30.85 78.90 34.61 79.55 38.38 C 83.18 33.72 88.61 30.11 90.02 24.07 C 90.52 22.00 93.23 22.51 94.78 21.83 C 95.76 22.96 96.74 24.08 97.73 25.19 C 97.25 26.56 96.76 27.92 96.26 29.28 C 99.16 27.88 103.24 27.68 105.19 30.73 C 107.08 32.97 106.07 35.94 105.15 38.35 C 105.35 38.70 105.75 39.41 105.95 39.76 C 107.31 40.00 109.22 39.38 109.91 40.99 C 112.22 44.90 113.35 49.40 113.94 53.88 C 113.35 54.31 112.16 55.18 111.56 55.62 C 112.09 57.47 112.60 59.33 113.12 61.19 C 115.35 59.18 117.60 57.20 119.87 55.24 C 119.26 50.30 118.68 45.36 117.93 40.44 C 116.49 39.35 115.08 38.21 113.66 37.08 C 114.17 35.57 114.51 33.97 115.29 32.57 C 116.58 32.11 117.88 31.69 119.20 31.33 C 120.28 32.41 121.37 33.50 122.46 34.59 C 119.67 40.48 121.93 46.84 122.48 52.96 C 126.26 49.66 130.09 46.41 133.82 43.05 C 133.09 39.10 132.38 35.09 132.53 31.06 C 132.94 29.17 136.51 29.23 136.71 31.22 C 137.28 33.90 137.47 36.63 137.76 39.35 C 139.51 37.62 141.25 35.89 142.98 34.15 C 142.35 33.39 141.72 32.64 141.09 31.89 C 142.00 29.32 142.95 26.77 143.93 24.22 C 146.57 23.81 149.21 23.38 151.86 22.95 C 153.54 24.99 155.22 27.04 156.89 29.10 C 156.01 31.59 155.12 34.07 154.25 36.56 C 151.14 37.10 147.96 38.18 144.81 37.34 C 143.28 38.88 141.81 40.47 140.35 42.07 C 143.17 42.76 146.11 43.15 148.80 44.30 C 149.99 45.71 149.13 48.40 147.09 48.19 C 143.89 47.87 140.85 46.53 137.63 46.43 C 133.85 49.33 130.45 52.70 126.78 55.74 C 132.11 56.89 137.59 58.84 143.00 56.89 C 143.94 57.96 144.88 59.03 145.82 60.10 C 145.35 61.53 144.89 62.97 144.42 64.41 C 142.89 64.70 141.36 64.99 139.84 65.28 C 138.77 63.81 137.72 62.34 136.69 60.85 C 132.50 59.89 128.30 59.01 124.10 58.11 C 121.42 60.39 118.79 62.71 116.15 65.03 C 118.15 65.84 120.16 66.65 122.17 67.45 C 123.06 66.78 123.99 66.18 124.96 65.64 C 129.29 66.63 133.50 68.55 136.97 71.33 C 137.74 72.90 137.56 74.77 138.42 76.32 C 140.48 75.89 142.80 74.82 144.84 75.95 C 148.61 77.72 149.40 83.42 146.25 86.15 C 144.38 87.89 141.87 86.43 139.84 85.88 C 139.45 86.13 138.67 86.63 138.28 86.88 C 138.39 88.24 138.39 89.59 138.28 90.95 C 135.57 93.33 132.17 94.71 128.91 96.13 C 126.08 97.62 122.78 95.76 119.99 97.55 C 124.39 99.56 129.00 101.08 133.51 102.82 C 137.19 100.10 140.84 97.33 144.56 94.68 C 144.92 92.96 145.13 91.19 145.82 89.57 C 147.02 88.55 148.84 88.55 150.28 87.96 C 151.21 89.08 152.17 90.17 153.00 91.38 C 152.81 92.82 152.42 94.23 152.09 95.64 C 145.82 95.81 141.58 100.76 136.76 104.07 C 141.29 105.77 145.84 107.44 150.35 109.20 C 154.05 106.94 157.19 102.66 161.96 103.24 C 161.87 104.41 161.77 105.59 161.67 106.77 C 159.64 108.22 157.61 109.68 155.59 111.14 C 157.86 111.94 160.15 112.69 162.44 113.46 C 162.96 112.40 162.75 110.62 164.12 110.22 C 166.67 109.97 169.32 109.45 171.85 110.01 C 173.76 111.58 174.97 113.93 177.00 115.43 L 177.00 115.82 C 176.90 115.66 176.69 115.36 176.59 115.20 C 175.62 117.78 174.65 120.36 173.70 122.95 C 171.03 123.42 168.35 123.86 165.68 124.31 C 164.01 122.32 162.58 120.09 160.59 118.40 C 158.69 117.34 156.59 116.72 154.58 115.92 C 155.38 118.69 156.06 121.50 156.48 124.36 C 155.19 124.46 153.79 125.12 152.54 124.48 C 150.91 121.15 150.23 117.46 149.15 113.94 C 144.54 112.19 139.91 110.49 135.31 108.71 C 136.56 112.65 137.75 116.61 139.01 120.54 C 140.27 121.74 141.50 122.98 142.72 124.22 C 142.05 125.58 141.78 127.22 140.75 128.36 C 139.45 128.77 138.14 129.14 136.82 129.45 C 135.77 128.24 134.73 127.03 133.70 125.82 C 134.43 124.15 135.19 122.48 136.00 120.84 C 134.67 116.34 133.32 111.85 131.86 107.40 C 127.58 105.82 123.32 104.21 119.05 102.61 C 119.18 103.38 119.44 104.90 119.57 105.66 C 120.75 106.39 122.68 106.42 123.10 108.01 C 124.33 111.55 124.73 115.36 124.76 119.09 C 124.89 121.43 122.39 122.50 121.02 123.97 C 122.59 125.43 124.77 126.68 125.11 129.00 C 125.99 133.10 121.99 137.09 117.88 136.22 C 115.02 136.04 114.86 132.75 114.17 130.66 C 113.78 130.47 113.00 130.09 112.61 129.90 C 111.43 130.67 110.36 131.70 108.97 132.08 C 105.08 131.15 101.76 128.71 98.47 126.53 C 96.95 125.68 96.77 123.82 96.12 122.37 C 95.53 122.05 94.33 121.41 93.73 121.09 C 94.63 126.44 95.53 131.79 96.43 137.15 C 96.75 138.10 96.61 139.60 97.82 139.97 C 101.84 142.05 106.01 143.83 110.06 145.86 C 111.74 145.29 113.43 144.76 115.12 144.22 C 116.19 145.37 117.24 146.55 118.29 147.73 C 117.79 149.13 117.29 150.53 116.81 151.93 C 115.32 152.21 113.84 152.49 112.36 152.77 C 109.12 147.28 102.65 145.88 97.45 142.98 C 98.36 147.92 99.12 152.89 100.03 157.83 C 103.37 159.61 106.91 161.05 110.07 163.15 C 110.75 164.82 109.99 166.80 107.98 166.81 C 105.58 165.96 103.36 164.68 101.11 163.51 C 101.29 165.78 101.38 168.05 101.54 170.33 C 102.33 170.24 103.93 170.06 104.73 169.97 C 106.28 172.11 107.86 174.23 109.48 176.31 C 108.47 178.72 107.54 181.18 106.29 183.48 C 103.68 184.29 100.91 184.34 98.21 184.69 C 96.65 182.53 95.07 180.39 93.49 178.24 C 94.47 175.94 95.44 173.65 96.39 171.34 C 96.86 171.08 97.79 170.58 98.26 170.33 C 97.39 168.30 96.58 166.25 95.98 164.12 C 93.68 166.37 91.60 169.78 87.85 169.03 C 87.35 164.10 92.41 161.75 95.22 158.54 C 94.38 153.90 93.62 149.25 92.85 144.61 C 89.02 148.62 83.87 151.96 82.76 157.78 C 81.31 158.03 79.85 158.28 78.40 158.54 C 77.43 157.38 76.48 156.21 75.53 155.04 C 76.09 153.61 76.66 152.19 77.22 150.77 C 79.07 150.62 80.91 150.48 82.76 150.39 C 85.90 147.22 89.06 144.08 92.21 140.92 C 91.37 136.18 90.55 131.43 89.76 126.67 C 87.90 129.85 86.25 133.29 83.50 135.82 C 82.11 136.99 79.72 135.46 78.66 137.01 C 78.56 139.22 79.42 141.85 77.73 143.68 C 75.32 146.86 69.89 146.80 67.68 143.43 C 66.42 141.29 68.01 138.98 68.82 137.00 C 68.59 136.65 68.13 135.94 67.91 135.59 C 65.98 135.35 63.48 135.78 62.76 133.46 C 61.02 129.00 57.82 124.04 60.04 119.22 C 59.51 117.90 58.98 116.59 58.45 115.27 C 56.54 116.97 54.61 118.66 52.65 120.32 C 52.79 125.26 53.12 130.19 53.33 135.13 C 54.72 136.41 56.08 137.70 57.47 138.97 C 56.81 140.37 56.28 141.84 55.45 143.16 C 54.10 143.58 52.70 143.79 51.32 144.09 C 50.38 142.95 49.44 141.81 48.49 140.68 C 51.63 135.11 49.96 128.78 49.91 122.75 C 45.96 126.18 42.05 129.64 38.07 133.04 C 38.31 136.83 38.29 140.62 38.15 144.42 C 36.73 144.25 34.38 145.02 33.96 143.01 C 33.66 140.99 33.72 138.94 33.66 136.91 C 32.34 138.07 31.01 139.23 29.69 140.39 C 29.16 143.56 27.73 146.46 26.33 149.32 C 23.64 149.54 20.96 149.79 18.28 150.04 C 16.73 147.86 15.19 145.67 13.67 143.46 C 14.79 141.07 15.69 138.53 17.20 136.34 C 20.22 135.72 23.40 135.32 26.42 136.14 C 28.04 134.74 29.61 133.29 31.17 131.83 C 28.36 130.91 25.39 130.31 22.78 128.86 C 21.98 127.32 22.89 124.77 24.91 125.30 C 28.64 125.91 32.17 127.36 35.71 128.64 C 39.22 125.52 42.79 122.47 46.32 119.37 C 40.85 117.86 35.38 115.19 29.60 116.86 C 28.71 115.63 27.83 114.40 26.94 113.16 C 27.63 111.92 28.21 110.61 29.04 109.45 C 30.41 109.11 31.79 108.83 33.18 108.59 C 34.33 110.24 35.36 111.97 36.71 113.47 C 40.70 114.93 44.87 115.85 48.93 117.11 C 51.96 114.40 55.07 111.77 58.08 109.02 C 55.31 107.85 52.77 110.22 50.00 109.52 C 46.64 108.89 43.24 108.19 40.12 106.78 C 38.15 106.14 38.74 103.78 38.28 102.21 C 37.69 101.92 37.10 101.64 36.51 101.35 C 35.05 102.18 33.64 103.17 31.99 103.59 C 27.36 103.14 25.55 96.80 28.52 93.51 C 30.18 91.11 33.31 91.58 35.82 91.56 C 36.02 91.21 36.40 90.53 36.59 90.18 C 36.38 89.14 36.18 88.10 35.99 87.05 C 38.83 82.89 43.28 80.04 47.81 77.96 C 48.37 78.38 49.48 79.23 50.04 79.65 C 50.98 79.00 51.91 78.35 52.84 77.70 C 49.79 76.57 46.73 75.44 43.68 74.29 C 39.66 76.95 35.72 79.73 31.67 82.36 C 31.25 84.15 30.79 85.93 30.33 87.72 C 28.85 88.01 27.36 88.31 25.88 88.61 C 24.89 87.47 23.90 86.32 22.92 85.17 C 23.41 83.78 23.89 82.40 24.36 81.01 C 26.17 80.70 27.98 80.41 29.80 80.16 C 33.32 77.79 36.80 75.39 40.31 73.01 C 35.64 71.28 30.97 69.53 26.31 67.77 C 23.46 69.61 20.61 71.45 17.77 73.32 C 16.46 73.00 15.14 72.68 13.83 72.36 C 14.69 68.59 18.85 67.48 21.45 65.14 C 19.19 64.35 16.91 63.62 14.61 62.97 C 14.36 63.63 13.86 64.96 13.62 65.63 C 10.94 65.93 8.26 66.24 5.58 66.60 C 3.94 64.45 2.33 62.27 0.74 60.08 C 1.80 57.69 2.69 55.21 4.02 52.96 C 6.61 52.18 9.36 52.19 12.02 51.86 C 13.88 54.39 16.09 56.80 16.78 59.95 C 18.80 60.50 20.82 61.05 22.85 61.57 C 22.29 58.80 21.37 56.08 21.25 53.24 C 21.63 51.21 25.07 51.10 25.48 53.16 C 26.60 56.48 27.26 59.94 28.19 63.32 C 32.64 64.89 37.05 66.58 41.48 68.24 C 40.48 64.43 39.48 60.62 38.44 56.81 C 37.24 55.51 36.08 54.18 34.93 52.83 C 35.52 51.44 36.12 50.05 36.72 48.66 C 38.16 48.44 39.60 48.22 41.04 48.00 C 42.01 49.20 42.97 50.40 43.95 51.60 C 43.11 53.19 42.29 54.77 41.43 56.34 C 42.38 60.74 43.61 65.06 44.73 69.41 C 47.87 70.64 51.03 71.83 54.17 73.04 C 53.92 71.70 53.67 70.35 53.41 69.01 C 52.36 68.02 50.80 67.34 50.37 65.85 C 49.17 62.00 48.10 58.04 48.01 53.98 C 49.33 52.62 50.71 51.29 51.68 49.64 C 49.95 48.38 47.00 47.58 46.96 44.99 C 46.53 40.85 51.10 37.70 54.93 38.94 C 57.73 39.44 58.10 42.79 60.01 44.37 C 61.51 44.14 62.66 43.02 64.01 42.42 C 68.57 43.46 72.85 45.65 76.47 48.60 C 75.93 46.08 75.49 43.54 75.07 41.00 C 71.33 39.47 67.61 37.91 63.87 36.37 C 62.10 37.02 60.31 37.63 58.52 38.23 C 57.51 37.17 56.49 36.12 55.47 35.07 C 55.86 33.59 56.25 32.11 56.64 30.64 C 58.08 30.28 59.52 29.93 60.97 29.58 C 64.09 34.24 69.60 35.57 74.48 37.59 C 73.90 34.20 73.30 30.81 72.73 27.41 C 69.66 25.42 66.31 23.80 63.48 21.46 C 62.00 19.88 63.97 17.09 65.97 18.10 C 68.21 19.11 70.29 20.50 72.72 21.03 C 72.62 18.90 72.42 16.79 72.20 14.67 C 71.44 14.77 69.93 14.95 69.17 15.05 C 67.74 12.75 66.31 10.45 64.88 8.15 M 90.90 30.21 C 87.36 34.12 83.53 37.83 80.50 42.15 C 80.47 45.90 81.42 49.60 82.36 53.21 C 83.43 51.66 83.11 49.84 82.74 48.12 C 84.88 44.17 87.15 40.23 90.26 36.93 C 91.86 36.95 93.51 37.65 95.08 37.13 C 96.20 34.73 94.10 31.92 95.80 29.55 C 94.18 29.85 92.54 30.07 90.90 30.21 M 97.18 37.28 C 97.93 38.56 98.67 39.84 99.40 41.13 C 100.65 40.38 101.91 39.63 103.16 38.87 C 102.41 37.65 101.67 36.42 100.93 35.21 C 99.68 35.90 98.43 36.59 97.18 37.28 M 88.23 54.91 C 86.73 57.04 85.18 59.13 83.45 61.07 C 84.69 68.60 86.02 76.10 87.28 83.62 C 94.43 77.46 101.53 71.25 108.63 65.03 C 107.99 62.66 107.37 60.29 106.70 57.94 C 105.64 57.57 104.13 57.74 103.54 56.56 C 101.46 52.58 100.65 48.09 99.53 43.78 C 96.36 47.93 94.59 55.04 88.23 54.91 M 54.11 44.84 C 53.74 46.29 53.38 47.75 53.02 49.20 C 54.49 49.47 55.96 49.75 57.43 50.04 C 57.72 48.65 58.01 47.27 58.30 45.89 C 56.90 45.54 55.50 45.19 54.11 44.84 M 59.16 51.91 C 60.31 57.08 63.64 63.34 59.43 67.96 C 59.83 70.39 60.13 72.84 60.53 75.28 C 67.71 78.25 75.07 80.79 82.33 83.60 C 81.05 75.73 79.67 67.88 78.32 60.03 C 78.29 58.08 76.02 57.61 74.69 56.74 C 73.46 57.09 72.39 58.22 71.02 57.94 C 66.79 56.55 63.05 54.04 59.16 51.91 M 111.43 69.03 C 104.75 75.08 97.85 80.90 91.09 86.86 C 98.43 89.61 105.74 92.41 113.08 95.15 C 115.30 93.55 117.67 92.17 120.12 90.97 C 120.81 84.96 127.40 83.75 131.87 81.47 C 131.82 81.30 131.73 80.95 131.68 80.78 C 128.14 79.14 124.37 77.97 121.01 75.95 C 119.55 75.28 119.66 73.48 119.51 72.14 C 116.83 71.08 114.16 69.98 111.43 69.03 M 135.30 81.47 C 136.47 82.37 137.65 83.26 138.83 84.16 C 139.65 82.94 140.50 81.75 141.34 80.55 C 140.21 79.73 139.08 78.90 137.96 78.07 C 137.07 79.20 136.18 80.34 135.30 81.47 M 53.94 83.69 C 54.29 85.17 54.30 86.97 52.90 87.95 C 49.77 90.75 46.06 92.80 42.70 95.31 C 47.88 96.73 55.07 96.51 57.24 102.53 C 59.31 103.09 61.36 103.74 63.37 104.48 C 69.49 99.25 75.49 93.88 81.62 88.65 C 74.19 85.66 66.65 82.94 59.15 80.12 C 57.41 81.30 55.66 82.47 53.94 83.69 M 88.60 91.17 C 89.87 98.72 91.19 106.26 92.46 113.81 C 94.64 114.84 96.80 115.89 98.93 117.03 C 104.67 114.47 109.59 119.42 114.17 122.19 C 113.29 117.81 112.08 113.42 112.05 108.93 C 111.99 107.54 113.53 107.00 114.29 106.09 C 113.81 104.18 113.78 102.11 112.86 100.35 C 104.82 97.19 96.69 94.22 88.60 91.17 M 33.81 96.63 C 34.95 97.59 36.08 98.55 37.22 99.51 C 38.14 98.34 39.09 97.20 40.07 96.08 C 38.94 95.16 37.82 94.24 36.69 93.32 C 35.73 94.42 34.77 95.52 33.81 96.63 M 63.17 111.16 C 64.06 113.12 64.92 115.09 65.74 117.08 C 71.87 118.45 72.21 125.62 74.15 130.46 C 76.31 126.76 78.10 122.83 80.71 119.43 C 81.49 118.09 83.14 118.37 84.43 118.43 C 85.43 116.65 86.47 114.89 87.26 113.00 C 86.49 106.33 85.03 99.74 83.98 93.11 C 77.00 99.08 70.15 105.19 63.17 111.16 M 115.36 124.38 C 115.19 125.88 115.04 127.39 114.90 128.90 C 116.40 128.98 117.89 129.06 119.39 129.15 C 119.47 127.70 119.56 126.26 119.65 124.81 C 118.58 124.71 116.43 124.49 115.36 124.38 M 70.67 136.22 C 71.64 137.24 72.60 138.27 73.56 139.30 C 74.62 138.24 75.68 137.19 76.74 136.14 C 75.67 135.17 74.61 134.20 73.56 133.23 C 72.60 134.23 71.64 135.22 70.67 136.22 Z" />
</g>
</svg>
