<?xml version="1.0" encoding="UTF-8" ?>
<!DOCTYPE svg PUBLIC "-//W3C//DTD SVG 1.1//EN" "http://www.w3.org/Graphics/SVG/1.1/DTD/svg11.dtd">
<svg width="189pt" height="267pt" viewBox="0 0 189 267" version="1.1" xmlns="http://www.w3.org/2000/svg">
<g id="#ffffffff">
</g>
<g id="#000000ff">
<path fill="#000000" opacity="1.00" d=" M 86.18 33.19 C 90.27 27.76 99.57 28.07 103.23 33.83 C 105.65 37.11 105.22 41.34 105.02 45.17 C 107.67 42.54 110.95 40.07 114.92 40.44 C 121.25 40.43 126.25 46.94 125.01 53.07 C 124.07 58.05 119.51 60.99 116.26 64.46 C 122.17 65.06 126.23 71.38 124.95 77.05 C 123.98 81.78 119.74 84.63 116.61 87.93 C 118.89 88.77 120.93 90.06 122.76 91.64 C 124.22 87.15 124.39 81.63 128.41 78.48 C 132.70 74.81 139.89 75.44 143.25 80.08 C 144.64 75.08 144.97 68.74 149.94 65.83 C 154.78 62.67 161.94 64.40 164.75 69.47 C 166.86 72.69 166.42 76.74 165.31 80.23 C 169.14 77.67 173.81 74.67 178.57 76.63 C 184.41 78.32 187.53 85.56 185.04 91.04 C 183.50 94.90 179.58 96.91 176.03 98.54 C 179.65 99.61 183.50 101.31 185.18 104.96 C 187.89 110.19 185.43 117.40 179.91 119.61 C 175.06 121.81 169.90 119.23 165.17 118.01 C 167.10 123.18 164.46 129.42 159.36 131.53 C 154.49 133.67 149.37 131.06 144.61 129.89 C 145.34 132.30 145.42 134.81 144.79 137.26 C 149.46 136.29 154.40 133.56 159.15 135.65 C 164.37 137.62 167.10 143.97 165.16 149.17 C 169.79 148.16 174.70 145.47 179.46 147.45 C 184.87 149.42 187.81 156.14 185.51 161.45 C 184.04 165.45 180.07 167.78 176.04 168.50 C 179.59 170.56 183.87 172.50 185.23 176.74 C 187.84 183.07 182.84 190.86 176.02 191.18 C 171.94 191.65 168.54 188.99 165.27 186.99 C 165.85 189.28 166.63 191.66 166.14 194.06 C 165.43 198.95 160.92 202.84 156.03 203.08 C 151.56 203.23 147.12 200.34 145.61 196.10 C 144.60 193.20 143.96 190.19 143.27 187.21 C 140.09 191.39 133.76 192.41 129.41 189.49 C 124.56 186.66 124.23 180.51 122.82 175.66 C 120.93 177.24 118.83 178.53 116.49 179.32 C 119.83 182.73 124.43 185.80 125.07 190.92 C 125.93 196.39 121.88 202.20 116.27 202.80 C 120.00 206.53 125.27 210.13 125.15 216.02 C 125.42 222.37 119.11 227.88 112.86 226.72 C 109.68 226.36 107.25 224.15 105.07 222.00 C 105.28 226.25 105.66 231.12 102.41 234.43 C 98.46 239.14 90.56 239.14 86.57 234.50 C 83.24 231.23 83.69 226.27 83.83 222.01 C 80.94 225.26 76.50 227.92 72.03 226.56 C 66.47 225.45 62.72 219.41 63.94 213.91 C 64.98 209.05 69.45 206.23 72.63 202.82 C 67.08 202.20 62.98 196.45 63.83 191.00 C 64.38 185.94 68.91 182.88 72.15 179.48 C 69.83 178.70 67.97 177.12 66.20 175.50 C 64.65 180.20 64.49 186.08 60.03 189.15 C 55.66 192.41 49.05 191.56 45.65 187.28 C 44.24 192.36 43.85 198.82 38.62 201.61 C 33.53 204.83 26.28 202.42 23.75 197.07 C 22.03 193.96 22.64 190.24 23.61 187.01 C 20.38 188.95 17.03 191.60 13.01 191.16 C 6.30 190.95 1.10 183.38 3.56 177.05 C 4.80 172.63 9.20 170.55 12.90 168.53 C 9.63 167.80 6.22 166.43 4.41 163.42 C 0.80 158.31 2.93 150.35 8.66 147.79 C 13.58 145.22 18.89 148.14 23.81 149.17 C 21.51 143.76 24.93 137.08 30.46 135.36 C 35.01 133.81 39.54 136.31 43.97 137.19 C 43.54 134.75 43.63 132.27 44.29 129.89 C 39.96 130.94 35.58 133.10 31.04 132.06 C 25.16 130.62 21.40 123.65 23.78 117.98 C 18.91 119.28 13.52 121.94 8.59 119.43 C 2.77 116.79 0.76 108.58 4.62 103.52 C 6.46 100.69 9.77 99.52 12.87 98.66 C 9.09 96.72 4.68 94.54 3.50 90.07 C 1.48 84.47 5.23 77.69 11.05 76.42 C 15.62 74.86 19.87 77.87 23.54 80.19 C 22.27 76.20 22.12 71.36 25.14 68.09 C 28.68 63.61 35.86 62.98 40.17 66.70 C 44.10 69.94 44.27 75.45 45.64 79.98 C 49.15 75.49 56.25 74.81 60.54 78.53 C 64.55 81.70 64.69 87.23 66.15 91.73 C 67.68 90.25 69.45 89.06 71.41 88.22 L 72.37 89.44 C 72.39 89.15 72.44 88.56 72.46 88.27 C 69.87 84.91 65.82 82.62 64.34 78.47 C 62.06 72.56 66.19 65.21 72.56 64.44 C 69.18 60.69 64.04 57.54 63.78 51.98 C 63.13 46.13 68.11 40.42 74.04 40.44 C 77.97 40.08 81.27 42.52 83.87 45.17 C 83.68 41.09 83.25 36.49 86.18 33.19 M 90.05 39.96 C 90.00 46.76 90.04 53.55 90.05 60.35 C 86.03 56.24 81.96 52.17 77.87 48.13 C 76.68 46.91 74.77 46.08 73.11 46.79 C 69.75 47.60 68.88 52.43 71.44 54.56 C 77.59 60.84 83.84 67.03 90.04 73.26 C 90.03 76.87 90.03 80.47 90.05 84.07 C 86.02 80.04 82.04 75.96 77.99 71.96 C 76.61 70.50 74.36 69.60 72.50 70.77 C 69.52 71.95 69.11 76.36 71.48 78.35 C 77.63 84.63 83.91 90.77 90.05 97.05 C 90.02 100.64 90.02 104.23 90.06 107.81 C 85.87 103.65 81.78 99.38 77.52 95.28 C 74.86 92.53 69.20 95.03 69.75 98.95 C 71.04 104.97 72.78 110.89 74.47 116.81 C 71.45 114.71 67.76 113.43 65.07 110.96 C 62.81 103.70 61.06 96.27 59.07 88.93 C 58.41 86.62 58.10 83.57 55.49 82.61 C 52.24 81.04 48.16 84.68 49.42 88.09 C 50.87 93.77 52.39 99.43 54.01 105.06 C 50.99 102.85 47.33 101.52 44.53 99.08 C 42.11 90.80 40.08 82.41 37.78 74.10 C 37.29 71.50 34.23 69.56 31.74 70.73 C 29.57 71.39 28.31 73.90 28.96 76.06 C 30.29 81.74 31.90 87.37 33.46 93.00 C 27.46 89.56 21.53 85.98 15.49 82.63 C 12.63 81.12 8.86 83.83 9.13 86.98 C 9.04 89.09 10.88 90.47 12.51 91.42 C 17.93 94.58 23.39 97.69 28.82 100.85 C 22.89 102.64 16.77 103.84 10.93 105.88 C 6.80 108.09 9.19 115.30 13.89 114.27 C 22.63 112.15 31.26 109.58 39.96 107.33 C 43.11 109.17 46.28 110.98 49.46 112.76 C 43.45 114.36 37.35 115.73 31.46 117.74 C 27.41 119.77 29.32 126.59 33.89 126.22 C 42.79 124.12 51.58 121.52 60.44 119.20 C 63.61 121.05 66.80 122.89 69.99 124.71 C 64.32 125.97 58.72 127.57 53.12 129.12 C 48.94 130.08 48.53 137.10 52.92 138.06 C 58.57 139.67 64.24 141.26 69.98 142.52 C 66.82 144.36 63.63 146.16 60.50 148.06 C 51.67 145.76 42.91 143.15 34.04 141.06 C 29.48 140.46 27.36 147.42 31.43 149.51 C 37.34 151.49 43.42 152.99 49.50 154.38 C 46.32 156.25 43.14 158.12 39.92 159.93 C 31.93 157.74 23.93 155.60 15.93 153.44 C 14.02 152.85 11.64 152.54 10.16 154.20 C 7.66 156.44 8.78 161.09 12.10 161.84 C 17.73 163.38 23.35 165.03 29.06 166.28 C 22.84 170.01 16.34 173.32 10.33 177.36 C 7.11 180.43 10.78 186.40 15.01 184.81 C 21.30 181.49 27.38 177.75 33.53 174.17 C 31.86 180.12 30.06 186.06 28.83 192.12 C 28.33 196.74 35.25 198.60 37.28 194.56 C 39.97 185.89 41.91 176.98 44.49 168.27 C 47.19 165.73 50.94 164.48 53.94 162.27 C 52.37 168.16 50.65 174.03 49.26 179.96 C 48.49 184.67 55.65 186.90 57.75 182.64 C 60.55 173.96 62.33 164.95 65.07 156.25 C 67.84 153.85 71.42 152.54 74.44 150.45 C 72.91 155.95 71.37 161.46 69.98 166.99 C 68.33 170.92 73.93 175.42 77.13 172.23 C 81.55 168.06 85.71 163.62 90.05 159.38 C 90.03 162.99 90.03 166.59 90.04 170.20 C 83.98 176.42 77.80 182.52 71.70 188.71 C 70.48 189.81 69.65 191.32 70.03 193.02 C 70.14 196.58 75.23 198.31 77.58 195.67 C 81.81 191.58 85.89 187.34 90.06 183.18 C 90.02 186.78 90.04 190.38 90.03 193.98 C 84.16 199.83 78.36 205.75 72.47 211.58 C 71.34 212.81 69.75 214.11 70.00 216.00 C 69.46 219.88 74.94 222.30 77.55 219.42 C 81.78 215.33 85.87 211.08 90.05 206.93 C 90.13 214.25 89.82 221.58 90.18 228.89 C 91.47 232.77 97.55 232.72 98.78 228.82 C 99.19 221.55 98.84 214.25 98.93 206.97 C 102.95 211.03 106.95 215.10 111.01 219.11 C 112.30 220.52 114.49 221.22 116.25 220.27 C 119.33 219.20 119.93 214.65 117.46 212.65 C 111.32 206.41 105.09 200.25 98.94 194.01 C 98.95 190.41 98.96 186.81 98.92 183.20 C 103.07 187.37 107.17 191.61 111.40 195.70 C 113.02 197.44 116.06 197.30 117.67 195.61 C 119.36 194.04 119.54 190.93 117.76 189.36 C 111.73 182.96 105.25 176.98 99.26 170.55 C 98.52 166.96 99.15 163.12 98.94 159.44 C 103.23 163.70 107.35 168.13 111.77 172.25 C 114.70 174.88 119.60 171.68 119.06 168.03 C 117.86 162.08 115.98 156.28 114.47 150.41 C 117.56 152.37 120.77 154.15 123.92 156.03 C 126.08 164.39 128.38 172.72 130.58 181.07 C 130.95 183.17 132.80 185.00 134.99 184.95 C 137.92 185.22 140.46 181.96 139.48 179.18 C 138.03 173.54 136.52 167.91 134.90 162.31 C 138.01 164.20 141.16 166.01 144.30 167.83 C 146.60 176.24 148.82 184.67 151.11 193.08 C 151.51 196.20 155.58 197.97 158.11 196.07 C 159.88 195.01 160.43 192.74 159.86 190.85 C 158.52 185.25 156.96 179.69 155.37 174.16 C 161.52 177.78 167.62 181.55 173.95 184.85 C 178.49 186.44 182.00 179.64 178.06 176.95 C 172.11 173.21 165.92 169.87 159.87 166.29 C 165.31 165.09 170.66 163.49 176.05 162.07 C 178.02 161.69 179.96 160.14 180.05 158.01 C 180.62 154.76 176.99 151.92 173.95 153.21 C 165.61 155.38 157.30 157.70 148.98 159.93 C 145.75 158.13 142.56 156.26 139.37 154.39 C 145.50 152.96 151.66 151.49 157.61 149.45 C 161.47 147.27 159.39 140.56 154.94 141.07 C 146.03 143.13 137.25 145.78 128.39 148.06 C 125.24 146.20 122.09 144.37 118.93 142.53 C 124.71 141.20 130.44 139.66 136.12 138.01 C 140.32 136.92 139.88 130.16 135.86 129.15 C 130.23 127.56 124.58 125.97 118.86 124.69 C 122.06 122.90 125.24 121.08 128.39 119.20 C 136.94 121.42 145.45 123.86 154.02 126.03 C 156.30 126.76 158.94 125.20 159.52 122.90 C 160.25 120.65 158.84 117.96 156.55 117.34 C 150.89 115.69 145.16 114.25 139.47 112.73 C 142.65 110.99 145.78 109.17 148.90 107.32 C 157.62 109.58 166.26 112.14 175.00 114.28 C 179.64 115.29 182.06 108.20 178.07 105.93 C 172.23 103.77 166.00 102.78 160.09 100.77 C 165.39 97.88 170.54 94.74 175.81 91.78 C 177.61 90.74 179.80 89.38 179.78 87.02 C 180.05 83.87 176.34 81.13 173.46 82.62 C 167.37 85.98 161.40 89.56 155.37 93.04 C 157.05 87.05 158.93 81.08 160.09 74.97 C 160.50 70.37 153.29 68.62 151.55 72.93 C 148.84 81.77 146.87 90.84 144.17 99.69 C 140.96 101.25 137.91 103.11 134.92 105.04 C 136.55 99.05 138.33 93.10 139.67 87.05 C 140.10 82.58 133.34 80.37 131.23 84.50 C 128.22 93.31 126.72 102.65 123.55 111.40 C 120.60 113.33 117.45 114.93 114.45 116.79 C 116.10 110.85 117.90 104.94 119.17 98.92 C 119.57 94.87 114.38 92.79 111.49 95.25 C 107.16 99.27 103.14 103.63 98.93 107.78 C 98.96 104.18 98.95 100.59 98.94 96.99 C 104.74 91.11 110.55 85.24 116.41 79.42 C 117.55 78.15 119.20 76.87 118.96 74.95 C 119.24 72.49 117.07 70.62 114.84 70.22 C 112.52 70.08 110.91 71.91 109.42 73.39 C 105.95 76.97 102.39 80.45 98.93 84.04 C 98.96 80.43 98.95 76.82 98.95 73.21 C 105.27 66.79 111.74 60.51 117.98 54.02 C 121.34 50.48 116.25 44.39 112.16 47.20 C 107.50 51.28 103.36 55.95 98.93 60.28 C 98.93 53.51 99.00 46.74 98.92 39.98 C 99.09 38.14 97.88 36.40 96.16 35.81 C 93.49 34.35 89.60 36.87 90.05 39.96 Z" />
<path fill="#000000" opacity="1.00" d=" M 82.83 113.45 C 85.25 115.89 87.67 118.33 90.05 120.81 C 90.04 122.47 90.03 124.13 90.03 125.80 C 88.50 124.77 86.51 124.18 85.39 122.67 C 84.46 119.62 83.79 116.49 82.83 113.45 Z" />
<path fill="#000000" opacity="1.00" d=" M 99.26 120.47 C 101.36 117.94 103.83 115.76 106.10 113.39 C 105.12 116.66 104.28 119.97 103.35 123.25 C 101.87 124.09 100.39 124.93 98.90 125.77 C 99.10 124.03 98.60 122.10 99.26 120.47 Z" />
<path fill="#000000" opacity="1.00" d=" M 71.08 133.51 C 74.34 132.86 77.57 132.07 80.74 131.04 C 82.30 131.86 83.85 132.71 85.45 133.49 C 83.96 134.40 82.51 135.40 80.91 136.11 C 77.58 135.43 74.37 134.32 71.08 133.51 Z" />
<path fill="#000000" opacity="1.00" d=" M 103.47 133.53 C 105.02 132.73 106.57 131.90 108.10 131.07 C 111.19 132.03 114.34 132.81 117.51 133.45 C 114.42 134.43 111.31 135.45 108.12 136.06 C 106.41 135.58 105.00 134.40 103.47 133.53 Z" />
<path fill="#000000" opacity="1.00" d=" M 85.41 144.23 C 86.94 143.28 88.49 142.36 90.05 141.44 C 90.04 143.18 90.03 144.92 90.01 146.66 C 87.58 149.02 85.19 151.43 82.79 153.82 C 83.76 150.65 84.62 147.45 85.41 144.23 Z" />
<path fill="#000000" opacity="1.00" d=" M 98.94 141.45 C 100.47 142.39 102.00 143.33 103.51 144.32 C 104.28 147.52 105.11 150.70 106.12 153.84 C 103.78 151.39 101.39 148.99 98.96 146.64 C 98.95 144.91 98.94 143.18 98.94 141.45 Z" />
</g>
</svg>
