<?xml version="1.0" encoding="UTF-8" ?>
<!DOCTYPE svg PUBLIC "-//W3C//DTD SVG 1.1//EN" "http://www.w3.org/Graphics/SVG/1.1/DTD/svg11.dtd">
<svg width="450pt" height="450pt" viewBox="0 0 450 450" version="1.1" xmlns="http://www.w3.org/2000/svg">
<g id="#ffffffff">
</g>
<g id="#020202ff">
<path fill="#020202" opacity="1.00" d=" M 222.32 115.33 C 222.37 113.82 222.43 112.31 222.50 110.81 C 223.58 110.80 225.75 110.77 226.83 110.76 C 226.82 112.31 226.82 113.87 226.80 115.43 C 227.81 114.36 228.83 113.29 229.85 112.23 C 230.99 113.38 232.14 114.52 233.31 115.65 C 231.06 117.84 228.89 120.11 226.80 122.45 C 226.82 124.27 226.83 126.10 226.85 127.92 C 229.20 125.48 231.59 123.09 233.89 120.59 C 235.05 121.71 236.22 122.81 237.39 123.92 C 233.83 127.58 230.25 131.22 226.80 134.99 C 226.82 137.47 226.81 139.95 226.85 142.44 C 230.79 138.29 234.31 133.76 238.38 129.72 C 239.50 130.81 240.64 131.89 241.79 132.97 C 236.72 138.57 231.70 144.22 226.78 149.95 C 226.88 153.79 226.81 157.63 226.82 161.47 C 232.53 154.81 238.20 148.12 243.89 141.43 C 245.07 142.48 246.27 143.51 247.47 144.54 C 240.73 152.79 233.50 160.67 226.94 169.04 C 226.64 174.52 226.93 180.01 226.83 185.49 C 234.99 181.06 243.23 176.81 251.40 172.40 C 252.68 171.78 253.87 170.66 253.91 169.14 C 253.90 164.35 253.74 159.55 253.69 154.75 C 254.71 154.77 256.75 154.79 257.77 154.80 C 257.85 157.32 257.76 159.87 258.21 162.37 C 258.50 159.00 258.28 155.62 258.40 152.25 C 260.44 152.15 263.50 152.89 262.80 149.67 C 263.62 149.69 265.27 149.73 266.10 149.75 C 267.14 150.43 268.25 151.00 269.37 151.55 C 269.94 152.60 270.51 153.66 271.08 154.72 C 270.53 154.95 269.44 155.39 268.89 155.61 C 269.62 156.83 270.36 158.04 271.12 159.25 C 268.04 161.21 264.71 162.76 261.80 164.96 C 264.33 163.91 266.69 162.52 269.07 161.20 C 269.75 162.40 270.43 163.62 271.10 164.84 C 266.79 167.27 262.32 169.43 258.11 172.03 C 256.71 172.87 256.77 174.66 256.84 176.06 C 257.23 185.27 257.46 194.48 257.80 203.69 C 262.88 200.77 267.94 197.80 273.04 194.90 C 276.35 184.85 280.21 174.99 283.59 164.96 C 285.07 165.48 286.54 166.00 288.02 166.52 C 285.40 174.83 282.15 182.94 279.38 191.20 C 282.75 189.31 286.05 187.30 289.45 185.45 C 291.84 178.34 294.23 171.23 296.58 164.11 C 298.08 164.63 299.59 165.14 301.11 165.65 C 299.31 171.03 297.50 176.41 295.71 181.80 C 297.98 180.51 300.24 179.19 302.46 177.82 C 303.80 173.02 305.19 168.25 306.58 163.47 C 308.12 163.90 309.65 164.34 311.20 164.78 C 310.23 167.99 309.28 171.21 308.34 174.44 C 309.98 173.56 311.61 172.66 313.24 171.76 C 314.06 168.77 314.98 165.80 315.83 162.81 C 317.35 163.28 318.88 163.74 320.41 164.20 C 320.03 165.53 319.66 166.86 319.30 168.19 C 320.29 167.59 321.28 166.98 322.26 166.36 C 323.06 167.64 323.85 168.92 324.66 170.20 C 323.62 170.85 322.58 171.50 321.55 172.17 C 322.55 172.41 324.54 172.88 325.54 173.12 C 325.17 174.66 324.78 176.19 324.42 177.73 C 321.45 177.05 318.51 176.32 315.57 175.52 C 313.96 176.45 312.35 177.38 310.79 178.40 C 314.00 179.23 317.21 180.04 320.44 180.84 C 320.05 182.40 319.65 183.95 319.27 185.51 C 314.43 184.25 309.55 183.11 304.72 181.81 C 302.46 183.08 300.23 184.41 298.06 185.82 C 303.60 186.66 309.01 188.13 314.56 188.94 C 314.31 190.56 314.03 192.17 313.75 193.78 C 306.44 192.30 299.12 190.85 291.84 189.27 C 288.49 191.24 285.04 193.05 281.80 195.18 C 290.30 196.81 298.83 198.26 307.33 199.89 C 307.03 201.44 306.75 202.99 306.48 204.55 C 296.05 202.70 285.64 200.75 275.22 198.87 C 270.33 201.68 265.45 204.48 260.56 207.29 C 267.59 212.13 275.01 216.40 282.18 221.04 C 283.77 221.91 285.61 223.54 287.52 222.50 C 291.72 220.00 295.91 217.46 300.01 214.79 C 300.71 216.03 301.42 217.26 302.13 218.50 C 299.75 220.04 297.26 221.39 294.93 223.00 C 298.43 221.65 301.54 219.52 304.76 217.62 C 305.46 218.87 306.17 220.12 306.88 221.37 C 307.41 221.03 308.45 220.35 308.98 220.01 C 309.55 221.06 310.12 222.11 310.69 223.17 C 310.30 224.32 310.42 225.50 310.74 226.66 C 310.16 227.72 309.59 228.79 309.01 229.85 C 308.50 229.51 307.49 228.83 306.99 228.49 C 306.26 229.74 305.54 230.99 304.82 232.24 C 301.76 230.49 298.81 228.53 295.60 227.06 C 297.60 228.83 299.99 230.05 302.30 231.36 C 301.54 232.59 300.79 233.81 300.04 235.04 C 295.94 232.43 291.84 229.81 287.59 227.45 C 286.17 226.63 284.61 227.47 283.39 228.24 C 275.65 233.15 267.85 237.96 260.08 242.83 C 265.08 245.81 270.20 248.59 275.17 251.63 C 285.60 249.65 296.05 247.77 306.50 245.90 C 306.74 247.45 307.01 249.01 307.28 250.56 C 298.77 252.15 290.25 253.71 281.73 255.23 C 285.12 257.16 288.37 259.63 292.05 260.92 C 299.30 259.80 306.45 258.05 313.66 256.64 C 313.99 258.23 314.32 259.81 314.65 261.41 C 309.10 262.45 303.57 263.65 298.02 264.70 C 300.26 265.99 302.40 267.56 304.85 268.45 C 309.75 267.52 314.52 266.02 319.40 264.97 C 319.70 266.56 320.04 268.13 320.35 269.72 C 317.11 270.39 313.91 271.20 310.71 272.03 C 312.42 272.97 313.99 274.31 315.93 274.76 C 318.76 274.25 321.52 273.39 324.30 272.62 C 324.76 274.18 325.20 275.75 325.64 277.32 C 324.34 277.58 323.04 277.85 321.75 278.13 C 322.68 278.80 323.61 279.48 324.54 280.15 C 323.85 281.44 323.16 282.74 322.49 284.05 C 321.38 283.48 320.28 282.91 319.18 282.36 C 319.51 283.32 320.16 285.26 320.49 286.23 C 318.92 286.69 317.35 287.15 315.80 287.62 C 314.99 284.68 314.17 281.75 313.26 278.84 C 311.64 277.86 310.00 276.88 308.39 275.91 C 309.31 279.15 310.23 282.39 311.18 285.63 C 309.65 286.08 308.14 286.56 306.63 287.04 C 305.10 282.15 303.83 277.19 302.26 272.32 C 300.04 271.16 297.86 269.95 295.70 268.71 C 297.51 274.06 299.42 279.38 301.04 284.79 C 299.57 285.32 298.11 285.86 296.65 286.40 C 294.10 279.43 292.10 272.26 289.46 265.32 C 286.41 262.84 282.66 261.35 279.35 259.24 C 282.25 267.43 285.26 275.58 288.06 283.80 C 286.59 284.36 285.11 284.92 283.65 285.49 C 280.41 276.37 277.08 267.29 273.90 258.15 C 273.39 257.06 273.24 255.60 272.05 255.02 C 267.33 252.21 262.52 249.56 257.81 246.74 C 257.41 256.22 257.18 265.72 256.82 275.20 C 256.55 276.61 257.76 277.63 258.88 278.18 C 262.79 280.42 266.82 282.47 270.76 284.67 C 270.11 285.88 269.45 287.09 268.81 288.32 C 266.52 287.10 264.25 285.80 261.77 285.02 C 264.67 286.87 267.77 288.38 270.73 290.13 C 270.04 291.32 269.36 292.53 268.67 293.72 C 269.20 294.06 270.25 294.74 270.78 295.09 C 269.83 297.31 268.15 299.00 265.96 300.03 C 264.78 299.94 263.60 299.87 262.42 299.82 C 262.41 299.20 262.40 297.97 262.40 297.36 C 261.00 297.37 259.61 297.40 258.22 297.43 C 258.23 293.90 258.46 290.34 257.97 286.82 C 257.60 289.49 257.55 292.18 257.48 294.87 C 256.45 294.83 254.39 294.77 253.36 294.74 C 253.53 289.41 253.87 284.06 253.47 278.74 C 244.59 273.98 235.68 269.29 226.82 264.49 C 226.82 270.30 226.86 276.11 226.82 281.92 C 233.69 290.12 240.75 298.16 247.49 306.46 C 246.27 307.42 245.06 308.40 243.87 309.38 C 238.15 302.69 232.39 296.02 226.82 289.20 C 226.95 293.09 226.58 297.02 226.98 300.89 C 231.55 306.87 236.93 312.23 241.78 318.01 C 240.59 319.04 239.42 320.07 238.26 321.13 C 234.37 316.89 230.61 312.54 226.79 308.24 C 226.81 310.82 226.81 313.40 226.81 315.99 C 230.33 319.64 233.85 323.30 237.40 326.93 C 236.24 328.04 235.09 329.17 233.94 330.31 C 231.58 327.79 229.21 325.29 226.76 322.85 C 227.01 324.79 226.43 326.95 227.20 328.80 C 228.96 331.14 231.17 333.10 233.25 335.15 C 232.13 336.31 231.01 337.46 229.89 338.61 C 228.86 337.60 227.82 336.60 226.78 335.60 C 226.81 336.80 226.84 338.01 226.88 339.22 C 225.79 339.22 223.59 339.23 222.49 339.23 C 222.44 338.33 222.34 336.54 222.29 335.64 C 221.41 336.59 220.54 337.55 219.68 338.52 C 218.45 337.47 217.24 336.39 216.04 335.31 C 218.13 333.07 220.25 330.87 222.37 328.67 C 222.39 326.74 222.38 324.81 222.37 322.89 C 220.11 325.44 217.72 327.88 215.27 330.26 C 214.17 329.13 213.05 328.03 211.93 326.93 C 215.42 323.33 218.93 319.76 222.35 316.09 C 222.39 313.55 222.39 311.02 222.36 308.49 C 218.49 312.60 214.90 316.97 211.09 321.15 C 209.91 320.07 208.73 318.99 207.54 317.92 C 212.52 312.38 217.41 306.76 222.40 301.23 C 222.36 297.35 222.44 293.47 222.34 289.59 C 216.65 296.14 211.04 302.76 205.48 309.41 C 204.24 308.34 203.00 307.27 201.76 306.20 C 208.79 298.25 215.55 290.06 222.42 281.98 C 222.35 276.16 222.48 270.34 222.36 264.53 C 213.65 269.54 204.36 273.69 195.90 279.05 C 195.44 284.29 195.95 289.63 195.91 294.91 C 194.47 294.93 193.03 294.95 191.59 294.97 C 191.55 292.58 191.61 290.20 191.47 287.82 C 191.39 291.15 191.40 294.48 191.21 297.81 C 189.87 297.80 188.54 297.78 187.21 297.76 C 187.11 298.41 186.91 299.72 186.81 300.38 C 184.44 300.44 182.28 299.60 180.22 298.53 C 179.61 297.31 178.99 296.09 178.37 294.89 C 178.90 294.70 179.98 294.30 180.52 294.11 C 179.83 292.78 179.15 291.45 178.46 290.12 C 179.40 289.67 180.34 289.22 181.28 288.77 C 183.52 288.51 185.43 287.07 186.70 285.26 C 184.44 285.99 182.62 287.68 180.44 288.64 C 179.76 287.35 179.08 286.06 178.40 284.78 C 182.98 282.08 187.93 280.00 192.27 276.93 C 192.60 267.00 191.65 257.06 191.54 247.13 C 186.84 249.93 182.01 252.53 177.38 255.44 C 173.24 265.23 170.18 275.52 166.34 285.46 C 164.85 284.89 163.36 284.35 161.87 283.82 C 164.84 275.62 167.81 267.41 170.69 259.17 C 167.66 261.01 164.55 262.70 161.52 264.52 C 160.12 265.16 160.03 266.85 159.48 268.11 C 157.57 274.21 155.40 280.23 153.51 286.35 C 151.97 285.82 150.44 285.28 148.91 284.76 C 150.73 279.43 152.50 274.07 154.23 268.71 C 152.11 269.95 149.98 271.17 147.79 272.29 C 146.16 277.14 144.93 282.11 143.44 287.00 C 141.92 286.56 140.40 286.12 138.89 285.68 C 139.75 282.43 140.72 279.22 141.64 275.99 C 139.97 276.90 138.33 277.85 136.72 278.85 C 135.89 281.77 135.02 284.67 134.20 287.59 C 132.68 287.15 131.16 286.72 129.64 286.30 C 130.00 284.93 130.37 283.58 130.71 282.21 C 129.43 282.97 128.16 283.74 126.91 284.54 C 126.19 283.21 125.48 281.88 124.76 280.56 C 125.95 279.77 127.13 278.98 128.29 278.17 C 127.02 277.90 125.75 277.64 124.47 277.40 C 124.84 275.80 125.22 274.20 125.61 272.61 C 128.41 273.34 131.19 274.18 134.03 274.73 C 136.03 274.39 137.61 272.96 139.37 272.04 C 136.12 271.18 132.85 270.38 129.57 269.66 C 129.95 268.10 130.33 266.55 130.69 265.00 C 135.59 266.06 140.43 267.34 145.27 268.62 C 147.54 267.34 149.82 266.07 152.06 264.73 C 146.50 263.61 140.95 262.50 135.40 261.35 C 135.69 259.78 135.98 258.22 136.27 256.66 C 143.55 258.15 150.85 259.54 158.10 261.17 C 161.54 259.27 165.01 257.41 168.24 255.18 C 159.71 253.67 151.16 252.20 142.66 250.48 C 142.99 248.91 143.32 247.34 143.64 245.77 C 154.05 247.91 164.54 249.68 175.00 251.57 C 179.80 248.61 184.76 245.90 189.65 243.07 C 181.46 238.02 173.32 232.88 165.14 227.80 C 164.15 227.07 162.82 226.95 161.80 227.68 C 157.65 230.02 153.65 232.63 149.58 235.09 C 148.86 233.81 148.16 232.52 147.48 231.23 C 149.84 230.03 152.22 228.79 154.18 226.98 C 150.96 228.57 147.90 230.46 144.85 232.36 C 144.17 231.10 143.48 229.84 142.81 228.58 C 142.31 228.94 141.32 229.65 140.82 230.00 C 140.14 228.91 139.46 227.83 138.77 226.75 C 138.69 224.28 139.34 221.94 140.78 219.93 C 141.29 220.31 142.30 221.07 142.80 221.45 C 143.48 220.19 144.17 218.93 144.86 217.68 C 147.96 219.48 150.95 221.48 154.18 223.05 C 152.61 220.73 150.00 219.77 147.48 218.87 C 148.19 217.55 148.93 216.24 149.68 214.95 C 153.96 217.42 158.01 220.31 162.39 222.61 C 163.55 223.34 164.79 222.39 165.80 221.86 C 173.59 216.94 181.41 212.09 189.23 207.22 C 184.47 204.35 179.61 201.64 174.80 198.85 C 164.39 200.79 153.97 202.68 143.54 204.56 C 143.27 203.00 142.99 201.44 142.71 199.88 C 151.25 198.27 159.81 196.77 168.35 195.19 C 164.91 193.23 161.63 190.93 157.97 189.41 C 150.73 190.74 143.53 192.34 136.32 193.83 C 136.00 192.25 135.69 190.67 135.39 189.09 C 140.92 187.91 146.49 186.93 151.99 185.60 C 149.62 184.53 147.56 182.62 145.01 182.07 C 140.20 182.94 135.51 184.34 130.78 185.55 C 130.39 183.97 129.99 182.39 129.59 180.82 C 132.84 180.03 136.11 179.31 139.30 178.29 C 137.65 177.36 135.99 176.44 134.32 175.55 C 131.42 176.37 128.50 177.05 125.57 177.71 C 125.21 176.15 124.85 174.58 124.49 173.03 C 125.46 172.82 127.40 172.41 128.36 172.20 C 127.18 171.39 125.96 170.63 124.76 169.86 C 125.45 168.56 126.14 167.27 126.82 165.96 C 128.14 166.70 129.45 167.44 130.77 168.19 C 130.47 167.19 129.88 165.19 129.58 164.19 C 131.13 163.73 132.67 163.26 134.21 162.77 C 135.01 165.76 135.89 168.73 136.76 171.71 C 138.38 172.62 140.00 173.54 141.64 174.44 C 140.69 171.21 139.70 167.99 138.97 164.70 C 140.47 164.30 141.96 163.89 143.46 163.50 C 144.88 168.19 146.09 172.96 147.64 177.62 C 149.49 179.38 151.96 180.36 154.15 181.66 C 152.58 176.25 150.58 170.99 148.96 165.60 C 150.45 165.13 151.94 164.64 153.43 164.16 C 155.89 171.13 157.96 178.26 160.59 185.16 C 163.72 187.51 167.30 189.19 170.68 191.17 C 167.76 182.97 164.75 174.81 161.95 166.58 C 163.43 166.05 164.91 165.51 166.39 164.96 C 169.96 174.95 173.54 184.94 177.10 194.93 C 181.93 197.68 186.72 200.50 191.52 203.30 C 191.76 193.88 192.26 184.48 192.44 175.06 C 192.71 173.57 191.81 172.28 190.50 171.69 C 186.56 169.44 182.53 167.34 178.55 165.17 C 179.30 163.93 180.04 162.69 180.80 161.46 C 182.89 162.74 185.00 164.01 187.26 164.98 C 184.69 162.83 181.66 161.38 178.72 159.85 C 179.34 158.58 179.98 157.31 180.62 156.04 C 180.14 155.73 179.20 155.12 178.72 154.81 C 179.28 153.70 179.85 152.60 180.41 151.50 C 182.29 150.50 184.32 149.88 186.45 149.70 C 186.43 152.77 188.95 152.59 191.24 152.46 C 191.31 156.09 190.98 159.77 191.59 163.38 C 191.89 160.64 191.80 157.88 191.81 155.13 C 193.25 155.18 194.70 155.24 196.15 155.30 C 195.85 160.53 195.48 165.85 195.97 171.05 C 204.45 176.38 213.70 180.47 222.38 185.50 C 222.40 179.87 222.43 174.23 222.34 168.60 C 215.38 160.70 208.65 152.59 201.84 144.56 C 203.02 143.52 204.21 142.49 205.40 141.45 C 211.11 148.06 216.72 154.74 222.38 161.39 C 222.41 157.45 222.41 153.51 222.35 149.58 C 217.37 144.07 212.49 138.46 207.52 132.94 C 208.70 131.86 209.89 130.79 211.08 129.71 C 214.88 133.91 218.59 138.21 222.37 142.44 C 222.40 139.86 222.40 137.29 222.39 134.72 C 218.87 131.16 215.48 127.48 211.90 123.97 C 213.06 122.84 214.22 121.70 215.37 120.56 C 217.71 123.02 220.07 125.46 222.40 127.95 C 222.32 125.99 222.62 124.00 222.20 122.08 C 220.30 119.81 218.05 117.86 216.03 115.71 C 217.20 114.54 218.38 113.38 219.60 112.25 C 220.28 113.02 221.64 114.56 222.32 115.33 M 200.79 179.15 C 208.03 191.50 214.99 204.02 222.38 216.28 C 222.38 207.72 222.42 199.15 222.38 190.58 C 215.19 186.77 208.04 182.86 200.79 179.15 M 226.80 190.69 C 226.87 199.37 226.86 208.04 226.79 216.71 C 234.11 204.21 241.24 191.60 248.57 179.11 C 241.27 182.89 234.02 186.76 226.80 190.69 M 230.70 219.37 C 238.21 214.92 245.81 210.63 253.35 206.24 C 253.15 197.84 252.64 189.44 252.56 181.03 C 245.44 193.90 237.72 206.44 230.70 219.37 M 196.05 205.88 C 203.46 210.13 210.84 214.43 218.24 218.70 C 211.30 206.24 204.09 193.92 196.89 181.60 C 196.37 189.68 196.28 197.78 196.05 205.88 M 172.89 222.81 C 187.33 222.73 201.77 222.89 216.20 222.71 C 208.70 218.44 201.20 214.15 193.78 209.74 C 186.82 214.09 179.77 218.32 172.89 222.81 M 233.83 222.75 C 248.04 222.87 262.26 222.68 276.48 222.85 C 269.60 218.63 262.92 213.99 255.84 210.15 C 248.40 214.16 241.21 218.63 233.83 222.75 M 172.91 227.26 C 179.92 231.72 187.00 236.07 194.00 240.54 C 201.57 236.09 209.21 231.76 216.78 227.31 C 202.16 227.11 187.53 227.22 172.91 227.26 M 232.97 227.26 C 240.56 231.54 248.08 235.93 255.63 240.27 C 262.58 235.84 269.60 231.53 276.61 227.21 C 262.06 227.25 247.51 227.14 232.97 227.26 M 252.49 268.91 C 252.69 260.67 253.11 252.44 253.34 244.21 C 245.89 239.95 238.51 235.56 231.04 231.35 C 238.00 243.98 245.54 256.28 252.49 268.91 M 196.13 244.45 C 196.23 252.38 196.35 260.31 196.91 268.22 C 204.21 256.26 210.96 243.98 218.07 231.92 C 210.67 235.94 203.52 240.41 196.13 244.45 M 200.81 270.95 C 207.99 267.09 215.21 263.29 222.40 259.44 C 222.41 250.90 222.41 242.35 222.38 233.81 C 214.94 246.03 207.97 258.55 200.81 270.95 M 226.86 233.51 C 226.77 242.12 226.89 250.73 226.81 259.33 C 234.00 263.21 241.18 267.13 248.46 270.84 C 241.26 258.40 234.16 245.89 226.86 233.51 Z" />
</g>
<g id="#fefefeff">
</g>
</svg>
