<?xml version="1.0" encoding="UTF-8" ?>
<!DOCTYPE svg PUBLIC "-//W3C//DTD SVG 1.1//EN" "http://www.w3.org/Graphics/SVG/1.1/DTD/svg11.dtd">
<svg width="225pt" height="225pt" viewBox="0 0 225 225" version="1.1" xmlns="http://www.w3.org/2000/svg">
<g id="#ffffffff">
</g>
<g id="#010101ff">
<path fill="#010101" opacity="1.00" d=" M 111.11 49.07 C 111.45 47.89 113.19 45.97 114.05 47.83 C 115.91 51.18 114.89 55.33 115.11 59.02 C 117.69 57.09 119.94 54.40 123.24 53.74 C 123.84 55.14 123.69 56.42 122.77 57.58 C 120.54 60.20 117.66 62.14 115.15 64.47 C 115.15 67.27 115.15 70.08 115.16 72.88 C 117.70 70.92 119.80 67.78 123.33 67.73 C 123.31 72.50 117.94 74.59 115.10 77.75 C 115.00 80.68 115.64 84.25 113.06 86.36 C 109.63 84.98 111.04 80.82 110.57 77.96 C 107.88 74.70 103.43 72.72 102.09 68.46 C 105.52 66.62 107.95 71.25 110.52 72.93 C 110.59 70.11 110.65 67.28 110.64 64.46 C 107.94 62.14 104.92 60.08 102.74 57.23 C 101.61 56.11 101.65 53.27 103.84 54.06 C 106.45 55.21 108.41 57.38 110.61 59.14 C 110.70 55.78 110.39 52.37 111.11 49.07 Z" />
<path fill="#010101" opacity="1.00" d=" M 78.04 63.45 C 79.01 64.14 80.49 64.56 80.59 65.98 C 81.36 69.55 80.18 73.21 80.17 76.83 C 82.27 78.78 84.31 80.80 86.32 82.86 C 86.82 79.61 85.54 75.11 89.07 73.21 C 90.73 77.34 89.94 81.86 89.50 86.14 C 91.41 88.35 94.94 90.49 93.99 93.89 C 90.56 94.86 88.45 91.25 86.23 89.32 C 81.96 89.75 77.52 90.68 73.38 88.99 C 75.08 85.27 79.78 86.78 82.97 86.19 C 81.00 84.15 79.01 82.13 77.07 80.07 C 72.63 79.69 66.36 82.74 63.43 78.09 C 66.53 76.72 69.94 76.60 73.26 76.27 C 70.61 73.16 65.94 70.65 66.02 66.08 C 70.68 65.19 73.26 70.55 76.44 73.09 C 76.70 69.83 76.85 66.53 78.04 63.45 Z" />
<path fill="#010101" opacity="1.00" d=" M 146.24 64.12 C 149.84 65.21 148.36 70.44 149.17 73.31 C 152.21 70.39 155.01 66.90 159.25 65.69 C 160.67 70.66 154.98 73.28 152.39 76.59 C 155.57 77.13 159.40 76.41 161.90 78.90 C 158.79 83.00 152.95 80.22 148.66 80.31 C 146.68 82.38 144.65 84.41 142.65 86.47 C 145.67 87.14 149.95 85.68 151.87 88.77 L 150.90 89.87 C 147.00 90.60 143.01 89.95 139.07 89.89 C 136.99 91.69 135.01 95.00 131.81 94.21 C 130.23 91.03 134.15 88.62 135.97 86.49 C 136.06 82.49 134.80 78.16 136.38 74.38 C 136.75 74.33 137.49 74.22 137.86 74.17 C 139.48 76.83 138.98 80.08 139.31 83.04 C 141.35 81.07 143.37 79.07 145.40 77.10 C 145.46 72.86 143.38 67.78 146.24 64.12 Z" />
<path fill="#010101" opacity="1.00" d=" M 114.54 92.65 C 118.10 88.25 122.60 84.68 126.30 80.38 C 126.29 85.54 126.45 90.71 126.59 95.87 C 122.74 99.81 118.84 103.71 114.90 107.56 C 114.99 102.58 114.50 97.62 114.54 92.65 Z" />
<path fill="#010101" opacity="1.00" d=" M 99.51 80.29 C 102.99 83.93 106.94 87.11 110.28 90.88 C 110.70 96.36 110.26 101.89 110.50 107.39 C 107.02 103.83 102.96 100.85 99.65 97.15 C 99.40 91.53 99.69 85.91 99.51 80.29 Z" />
<path fill="#010101" opacity="1.00" d=" M 80.20 99.00 C 84.85 99.05 89.51 98.93 94.17 98.89 C 95.61 98.50 96.47 99.82 97.41 100.62 C 100.67 103.88 103.89 107.20 107.22 110.39 C 102.23 110.45 97.26 111.11 92.26 111.08 C 88.27 107.02 84.22 103.02 80.20 99.00 Z" />
<path fill="#010101" opacity="1.00" d=" M 128.21 99.74 C 133.86 99.74 139.51 99.79 145.15 99.69 C 141.60 103.33 138.03 106.97 134.52 110.65 C 129.04 110.64 123.55 110.60 118.06 110.70 C 121.44 107.04 124.84 103.40 128.21 99.74 Z" />
<path fill="#010101" opacity="1.00" d=" M 53.54 101.71 C 58.77 101.51 61.06 107.18 64.30 110.37 C 67.10 110.38 69.90 110.35 72.71 110.27 C 70.90 107.61 66.91 105.43 67.89 101.73 C 72.41 102.86 74.39 107.66 77.87 110.27 C 80.22 110.52 82.70 110.22 84.95 111.15 C 86.94 112.16 85.39 114.19 83.90 114.48 C 81.88 115.04 79.76 114.85 77.69 114.83 C 74.49 117.90 72.13 122.31 67.60 123.60 C 67.29 119.83 70.62 117.64 72.65 114.98 C 69.84 115.05 66.90 114.48 64.17 115.21 C 60.74 118.08 58.72 123.67 53.51 123.45 C 54.01 119.90 56.77 117.51 58.91 114.88 C 54.86 114.64 50.08 115.75 46.69 112.94 C 47.05 111.63 48.08 110.69 49.46 110.62 C 52.60 110.14 55.81 110.44 58.98 110.37 C 56.82 107.73 54.00 105.30 53.54 101.71 Z" />
<path fill="#010101" opacity="1.00" d=" M 168.11 103.01 C 169.06 102.16 170.58 101.92 171.57 102.87 C 171.02 106.13 168.29 108.28 166.37 110.77 C 170.26 111.01 174.52 110.06 178.07 112.10 C 178.58 113.51 178.15 114.40 176.76 114.75 C 173.38 115.76 169.77 115.15 166.29 115.29 C 168.15 117.93 171.61 120.10 171.34 123.68 C 166.36 124.04 164.18 118.24 160.99 115.32 C 158.16 115.31 155.33 115.31 152.51 115.37 C 154.59 117.92 157.59 120.10 157.81 123.68 C 153.04 123.22 150.88 118.22 147.65 115.29 C 144.63 115.21 141.04 115.76 138.96 113.03 C 140.99 110.15 144.62 110.84 147.67 110.79 C 150.71 107.83 152.93 103.54 157.23 102.26 C 158.51 105.91 154.28 108.07 152.57 110.70 C 155.37 110.78 158.16 110.80 160.96 110.80 C 163.26 108.13 165.38 105.26 168.11 103.01 Z" />
<path fill="#010101" opacity="1.00" d=" M 80.08 125.99 C 83.65 122.31 87.25 118.65 90.78 114.92 C 96.24 114.92 101.69 114.94 107.15 114.90 C 103.80 118.64 100.39 122.32 96.97 126.00 C 91.34 126.00 85.71 126.01 80.08 125.99 Z" />
<path fill="#010101" opacity="1.00" d=" M 117.99 115.19 C 123.01 114.93 128.03 114.85 133.05 114.61 C 137.10 118.52 141.03 122.55 145.04 126.50 C 139.86 126.56 134.68 126.61 129.50 126.68 C 125.71 122.80 121.88 118.97 117.99 115.19 Z" />
<path fill="#010101" opacity="1.00" d=" M 98.83 129.81 C 102.32 125.67 106.54 122.17 110.22 118.19 C 110.38 123.12 110.51 128.06 111.03 132.97 C 106.99 136.99 102.97 141.01 98.96 145.05 C 98.90 139.97 98.65 134.89 98.83 129.81 Z" />
<path fill="#010101" opacity="1.00" d=" M 114.83 118.26 C 118.41 121.74 122.11 125.10 125.81 128.45 C 125.84 134.12 125.72 139.80 125.91 145.47 C 122.32 141.70 118.04 138.49 114.91 134.35 C 114.75 128.99 114.93 123.62 114.83 118.26 Z" />
<path fill="#010101" opacity="1.00" d=" M 86.05 135.90 C 87.84 134.00 89.79 132.26 92.05 130.96 C 92.62 131.28 93.77 131.92 94.34 132.25 C 93.47 135.07 91.42 137.22 89.23 139.10 C 88.94 143.21 91.20 148.53 88.02 151.79 C 85.51 149.47 86.38 145.68 85.89 142.64 C 83.95 144.55 81.98 146.45 80.01 148.33 C 79.82 152.47 81.30 156.88 79.65 160.83 C 78.30 162.48 77.02 160.61 76.91 159.22 C 76.43 156.93 76.35 154.58 76.10 152.27 C 72.96 155.14 70.23 159.46 65.51 159.51 C 65.45 154.74 70.19 152.34 72.84 149.04 C 69.56 148.75 66.16 148.67 63.18 147.09 C 66.09 142.62 72.25 145.50 76.61 145.26 C 78.62 143.27 80.61 141.26 82.56 139.20 C 79.48 138.75 75.55 139.73 73.30 137.03 C 76.63 134.01 81.92 136.16 86.05 135.90 Z" />
<path fill="#010101" opacity="1.00" d=" M 130.79 132.98 C 131.09 132.60 131.70 131.84 132.01 131.46 C 135.18 131.40 136.75 134.46 139.02 136.11 C 143.21 136.36 147.88 134.70 151.71 136.95 C 149.84 140.32 145.46 138.94 142.31 139.45 C 144.30 141.55 146.35 143.59 148.35 145.69 C 152.53 145.51 157.16 143.83 161.08 146.01 C 161.08 146.47 161.09 147.40 161.09 147.86 C 158.26 149.17 155.08 149.08 152.03 149.33 C 154.62 152.14 158.03 154.49 159.33 158.24 C 159.24 160.65 156.57 159.79 155.31 158.83 C 152.98 156.94 150.99 154.68 148.87 152.57 C 148.42 155.71 148.67 159.10 147.03 161.94 C 146.53 161.71 145.51 161.25 145.01 161.01 C 144.04 157.73 144.82 154.30 144.88 150.95 C 145.45 147.19 141.02 145.51 139.03 142.95 C 138.27 145.81 139.95 151.15 136.08 151.98 C 134.45 147.98 135.63 143.63 135.75 139.48 C 133.79 137.58 131.64 135.67 130.79 132.98 Z" />
<path fill="#010101" opacity="1.00" d=" M 111.06 139.62 C 115.72 139.31 114.44 144.89 114.65 147.91 C 117.66 150.77 121.53 153.04 123.23 157.00 C 122.45 157.96 121.55 158.11 120.55 157.44 C 118.30 156.27 116.63 154.28 114.70 152.68 C 114.63 155.48 114.62 158.29 114.62 161.09 C 117.55 164.37 123.07 166.40 123.24 171.33 C 119.68 172.12 117.32 168.33 114.64 166.60 C 114.40 170.54 115.41 174.98 113.11 178.48 C 112.61 178.38 111.61 178.18 111.11 178.08 C 109.64 174.45 110.18 170.44 110.15 166.62 C 107.47 168.12 105.00 172.53 101.58 171.18 C 101.80 166.30 107.23 164.38 110.13 161.14 C 110.11 158.38 110.08 155.61 109.99 152.84 C 107.57 154.73 105.51 157.78 102.16 157.88 C 101.30 156.22 102.64 154.83 103.69 153.68 C 105.59 151.61 108.00 150.09 109.88 147.99 C 110.25 145.20 110.34 142.36 111.06 139.62 Z" />
</g>
</svg>
