<?xml version="1.0" encoding="UTF-8" ?>
<!DOCTYPE svg PUBLIC "-//W3C//DTD SVG 1.1//EN" "http://www.w3.org/Graphics/SVG/1.1/DTD/svg11.dtd">
<svg width="211pt" height="239pt" viewBox="0 0 211 239" version="1.1" xmlns="http://www.w3.org/2000/svg">
<g id="#ffffffff">
</g>
<g id="#000000ff">
<path fill="#000000" opacity="1.00" d=" M 103.44 2.21 C 104.56 0.86 106.49 1.09 107.39 2.53 C 115.23 11.03 123.65 19.00 131.30 27.67 C 128.44 38.35 125.29 49.00 123.07 59.83 C 131.74 55.70 139.87 50.53 148.25 45.87 C 148.61 55.53 148.13 65.21 148.42 74.88 C 157.27 66.56 165.80 57.91 174.65 49.59 C 184.06 51.93 193.27 55.02 202.62 57.56 C 204.62 58.06 206.54 58.84 208.43 59.65 C 204.61 71.59 201.57 83.78 197.57 95.67 C 186.65 98.90 175.36 100.95 164.56 104.60 C 164.86 105.02 165.48 105.84 165.79 106.25 C 173.26 111.46 181.55 115.45 188.86 120.90 C 181.23 125.35 173.56 129.73 165.90 134.13 C 177.43 137.91 189.25 140.72 200.88 144.13 C 204.10 155.75 207.52 167.36 209.73 179.22 C 197.98 182.74 186.03 185.60 174.29 189.16 C 165.11 180.97 157.00 171.67 147.93 163.37 C 147.05 172.96 148.02 182.64 147.22 192.22 C 140.88 188.88 134.89 184.92 128.61 181.46 C 126.48 180.39 124.62 178.58 122.22 178.17 C 121.77 180.46 122.84 182.68 123.35 184.88 C 126.10 194.09 128.63 203.36 131.33 212.59 C 123.13 221.16 114.94 229.75 106.66 238.25 C 97.74 228.89 88.11 220.21 79.38 210.68 C 81.84 200.54 85.00 190.58 87.46 180.45 C 87.42 180.05 87.33 179.25 87.29 178.85 C 78.68 183.54 70.20 188.45 61.67 193.28 C 61.40 183.37 61.75 173.46 61.48 163.55 C 53.25 170.57 45.87 178.53 37.99 185.93 C 36.60 187.67 34.19 187.43 32.27 186.92 C 22.42 184.20 12.58 181.46 2.75 178.68 C 4.85 167.08 8.76 155.88 11.12 144.34 C 11.78 143.54 12.44 142.74 13.10 141.94 C 24.05 138.98 35.06 136.15 45.95 132.95 C 38.09 126.91 29.04 122.58 20.63 117.34 C 28.40 112.14 36.90 108.13 44.74 103.03 C 41.36 101.11 37.48 100.54 33.82 99.39 C 26.31 97.15 18.74 95.15 11.20 93.03 C 8.19 81.70 4.83 70.43 1.04 59.33 C 12.17 56.47 23.17 53.13 34.26 50.12 C 35.66 49.68 37.12 49.81 38.56 49.88 C 46.44 57.69 54.23 65.61 62.15 73.39 C 62.75 63.62 62.50 53.81 62.88 44.02 C 71.31 48.84 79.30 54.47 88.08 58.66 C 85.64 47.99 82.18 37.57 79.89 26.87 C 79.08 25.38 80.59 24.36 81.40 23.40 C 88.78 16.36 96.08 9.26 103.44 2.21 M 86.87 27.05 C 87.19 31.50 88.79 35.70 89.83 40.01 C 92.49 50.33 95.56 60.58 97.31 71.12 C 92.97 68.71 88.83 65.91 84.35 63.74 C 79.19 61.19 74.50 57.75 69.22 55.43 C 68.35 66.24 68.97 77.10 68.26 87.91 C 60.89 80.22 53.07 72.99 45.61 65.40 C 42.40 62.46 39.63 58.99 35.99 56.56 C 32.30 56.96 28.79 58.28 25.21 59.24 C 20.00 60.79 14.61 61.82 9.56 63.90 C 11.14 70.38 13.33 76.68 15.11 83.10 C 15.82 85.03 16.04 87.82 18.47 88.35 C 32.53 92.45 46.71 96.23 60.56 100.99 C 51.94 107.05 42.10 111.24 33.51 117.38 C 42.63 123.36 52.27 128.49 61.38 134.51 C 46.84 139.64 31.78 143.15 16.99 147.49 C 14.53 156.27 12.26 165.11 10.05 173.97 C 17.95 176.89 26.24 178.61 34.31 181.00 C 40.66 175.47 46.53 169.42 52.54 163.54 C 57.52 158.80 61.85 153.25 67.53 149.33 C 68.07 160.44 67.85 171.57 67.97 182.69 C 77.67 177.23 87.68 172.33 97.30 166.73 C 96.17 172.20 94.47 177.54 93.23 182.99 C 91.20 191.73 88.03 200.22 86.50 209.07 C 93.11 216.00 99.92 222.80 106.99 229.27 C 112.55 223.77 117.97 218.14 123.32 212.45 C 125.17 210.95 123.92 208.70 123.56 206.83 C 120.60 196.48 117.67 186.13 114.58 175.82 C 113.65 172.48 112.72 169.11 112.53 165.63 C 117.06 167.89 121.22 170.83 125.86 172.87 C 131.30 175.38 136.10 179.13 141.67 181.36 C 141.73 170.89 142.58 160.47 142.60 150.00 L 143.53 149.80 C 145.94 152.31 148.03 155.12 150.60 157.48 C 159.38 164.98 166.89 173.86 175.46 181.57 C 178.06 182.50 180.87 180.76 183.48 180.26 C 189.90 178.37 196.49 177.02 202.81 174.77 C 201.15 166.79 198.98 158.92 196.81 151.06 C 196.64 149.26 194.72 148.98 193.34 148.51 C 179.05 144.51 164.76 140.49 150.56 136.21 C 159.43 131.18 168.29 126.16 176.96 120.80 C 167.68 114.70 157.76 109.57 148.83 102.92 C 162.21 98.53 175.86 95.07 189.51 91.62 C 191.16 91.13 193.48 90.94 193.85 88.84 C 196.38 80.56 198.82 72.25 201.14 63.90 C 194.64 61.51 187.90 59.90 181.29 57.86 C 179.69 57.46 178.05 56.82 176.38 57.05 C 165.33 66.85 155.44 77.88 144.51 87.81 C 144.01 87.78 143.02 87.72 142.53 87.69 C 142.35 77.41 142.80 67.11 142.29 56.84 C 136.52 59.76 131.03 63.21 125.15 65.91 C 121.74 67.46 118.79 70.40 114.82 70.32 C 115.87 66.00 116.97 61.69 117.55 57.28 C 119.57 48.44 122.19 39.74 124.29 30.92 C 125.04 28.90 123.01 27.43 121.87 26.08 C 116.27 20.64 111.03 14.85 105.41 9.43 C 99.16 15.22 93.01 21.13 86.87 27.05 Z" />
</g>
</svg>
