<?xml version="1.0" encoding="UTF-8" ?>
<!DOCTYPE svg PUBLIC "-//W3C//DTD SVG 1.1//EN" "http://www.w3.org/Graphics/SVG/1.1/DTD/svg11.dtd">
<svg width="225pt" height="225pt" viewBox="0 0 225 225" version="1.1" xmlns="http://www.w3.org/2000/svg">
<g id="#ffffffff">
</g>
<g id="#26261fff">
<path fill="#26261f" opacity="1.00" d=" M 79.00 8.07 C 84.27 9.48 89.56 10.83 94.85 12.16 C 91.63 24.41 87.83 36.52 84.94 48.84 C 94.26 64.63 103.37 80.55 112.49 96.47 C 121.64 80.53 130.70 64.54 140.14 48.79 C 137.04 36.52 133.41 24.39 130.15 12.17 C 135.44 10.83 140.73 9.48 146.00 8.07 C 147.90 14.90 149.82 21.73 151.65 28.59 C 155.10 22.79 158.41 16.90 161.79 11.05 C 166.40 13.74 171.04 16.39 175.65 19.08 C 172.27 24.93 168.90 30.79 165.51 36.64 C 172.38 34.85 179.25 33.06 186.12 31.25 C 187.57 36.51 189.10 41.75 190.49 47.02 C 178.41 50.22 166.34 53.42 154.22 56.43 C 144.37 72.13 135.51 88.43 126.36 104.55 C 144.77 104.48 163.18 104.51 181.60 104.53 C 190.51 95.60 199.35 86.59 208.21 77.60 C 211.97 81.56 215.85 85.40 219.64 89.32 C 214.66 94.36 209.70 99.43 204.71 104.46 C 211.47 104.58 218.24 104.48 225.00 104.51 L 225.00 120.47 C 218.23 120.49 211.46 120.42 204.69 120.50 C 209.68 125.55 214.64 130.63 219.65 135.67 C 215.83 139.58 212.02 143.49 208.16 147.34 C 199.32 138.37 190.50 129.38 181.61 120.46 C 163.19 120.46 144.78 120.50 126.36 120.44 C 135.50 136.56 144.38 152.83 154.18 168.55 C 166.31 171.59 178.40 174.77 190.49 177.98 C 189.09 183.25 187.57 188.49 186.13 193.75 C 179.25 191.93 172.36 190.20 165.50 188.34 C 168.88 194.20 172.27 200.06 175.65 205.92 C 171.04 208.59 166.43 211.25 161.83 213.93 C 158.39 208.11 155.10 202.21 151.65 196.41 C 149.82 203.27 147.90 210.09 146.00 216.93 C 140.73 215.52 135.44 214.17 130.15 212.83 C 133.48 200.74 136.78 188.63 140.20 176.56 C 135.39 168.46 129.88 160.78 125.55 152.40 C 121.16 144.48 116.91 136.48 112.49 128.58 C 106.98 138.41 101.74 148.38 96.25 158.22 C 92.45 164.28 88.68 170.36 84.81 176.37 C 88.07 188.55 91.56 200.66 94.83 212.83 C 89.55 214.19 84.25 215.47 79.00 216.93 C 77.10 210.10 75.17 203.27 73.36 196.41 C 69.87 202.20 66.58 208.10 63.17 213.93 C 58.60 211.21 53.93 208.63 49.37 205.88 C 52.72 200.00 56.13 194.16 59.50 188.29 C 52.65 190.19 45.75 191.92 38.88 193.74 C 37.41 188.48 35.93 183.23 34.51 177.96 C 46.59 174.77 58.68 171.59 70.80 168.52 C 80.61 152.80 89.54 136.55 98.61 120.39 C 80.20 120.52 61.79 120.43 43.38 120.43 C 34.48 129.38 25.63 138.39 16.77 147.38 C 12.99 143.44 9.12 139.59 5.32 135.67 C 10.31 130.62 15.30 125.56 20.29 120.49 C 13.53 120.39 6.76 120.48 0.00 120.45 L 0.00 104.51 C 6.76 104.48 13.53 104.59 20.29 104.46 C 15.28 99.43 10.33 94.34 5.33 89.31 C 9.13 85.39 12.96 81.50 16.79 77.60 C 25.63 86.60 34.48 95.60 43.39 104.53 C 61.79 104.51 80.20 104.48 98.60 104.55 C 93.14 94.99 87.10 85.76 81.87 76.06 C 78.13 69.55 74.64 62.90 70.81 56.44 C 58.68 53.41 46.60 50.21 34.51 47.02 C 35.91 41.75 37.43 36.51 38.88 31.25 C 45.75 33.07 52.63 34.83 59.50 36.65 C 56.10 30.81 52.70 24.96 49.35 19.09 C 53.94 16.38 58.57 13.74 63.18 11.07 C 66.62 16.88 69.87 22.80 73.36 28.58 C 75.17 21.73 77.10 14.90 79.00 8.07 Z" />
</g>
</svg>
