<?xml version="1.0" encoding="UTF-8" ?>
<!DOCTYPE svg PUBLIC "-//W3C//DTD SVG 1.1//EN" "http://www.w3.org/Graphics/SVG/1.1/DTD/svg11.dtd">
<svg width="225pt" height="225pt" viewBox="0 0 225 225" version="1.1" xmlns="http://www.w3.org/2000/svg">
<g id="#ffffffff">
</g>
<g id="#000000ff">
<path fill="#000000" opacity="1.00" d=" M 79.86 40.12 C 85.10 36.09 89.42 31.05 93.77 26.13 C 98.41 27.36 101.34 31.24 103.88 35.02 C 106.72 39.20 110.74 42.40 115.12 44.85 C 116.94 43.43 118.65 41.88 120.32 40.30 C 126.69 35.50 132.30 29.19 140.15 26.80 C 142.60 32.84 149.98 35.00 151.54 41.54 C 152.33 41.56 153.93 41.60 154.72 41.62 C 152.00 44.72 148.37 46.76 145.02 49.09 C 138.09 53.35 131.16 57.79 123.52 60.69 C 123.72 69.14 123.50 77.60 123.69 86.04 C 124.34 90.96 124.34 95.95 123.96 100.89 C 127.37 99.49 131.06 98.93 134.49 97.52 C 144.10 94.91 152.82 89.88 161.13 84.50 C 166.68 74.11 169.90 62.71 172.69 51.33 C 179.49 50.85 185.87 53.45 192.44 54.70 C 192.66 64.49 186.37 72.70 184.06 81.93 C 194.16 81.77 203.87 85.04 213.77 86.54 C 214.60 92.64 207.28 95.84 208.42 102.05 C 205.54 100.75 202.39 100.32 199.39 99.39 C 194.96 98.35 190.50 97.45 186.00 96.73 C 182.53 96.12 178.90 94.55 175.42 95.97 C 165.14 99.89 155.90 105.97 146.09 110.88 C 142.14 113.42 137.60 114.93 133.85 117.79 C 139.22 119.88 143.58 123.80 148.81 126.18 C 156.56 130.17 164.97 132.59 173.40 134.68 C 184.25 135.22 194.80 131.84 205.63 131.63 C 206.48 133.30 207.62 134.82 208.33 136.57 C 208.74 139.36 208.57 142.19 208.68 145.01 C 201.83 144.83 194.51 144.72 188.57 148.68 C 189.97 153.25 188.80 158.09 189.34 162.76 C 190.54 168.02 192.57 173.14 192.63 178.60 C 186.00 178.98 179.45 177.69 172.83 177.78 C 173.32 167.94 169.75 158.61 166.29 149.60 C 156.64 143.58 146.60 138.00 135.79 134.35 C 131.25 132.56 126.40 131.78 121.78 130.25 C 122.43 143.87 123.34 157.47 124.27 171.07 C 126.65 172.07 128.70 173.69 130.53 175.48 C 136.11 181.41 140.93 188.00 146.46 193.97 C 140.13 198.08 133.74 202.13 127.67 206.61 C 123.45 204.65 120.44 200.98 117.04 197.93 C 115.05 196.32 113.11 194.65 111.41 192.73 C 106.24 198.06 101.43 204.61 93.82 206.58 C 87.85 201.38 81.89 195.90 77.66 189.14 C 87.78 185.56 95.82 178.23 104.58 172.31 C 105.81 158.30 106.83 144.25 106.46 130.15 C 98.49 130.74 93.53 138.74 85.51 139.29 C 78.28 144.38 69.89 147.59 62.56 152.52 C 56.09 159.77 54.71 170.03 54.88 179.42 C 47.01 178.89 39.09 179.67 31.24 178.75 C 33.33 175.23 34.30 171.24 35.65 167.43 C 36.40 162.94 37.04 158.42 37.02 153.87 C 30.55 151.93 24.96 147.65 18.20 146.62 C 18.43 141.70 17.90 136.81 17.65 131.91 C 25.04 134.46 33.09 133.97 40.57 135.69 C 45.11 135.18 50.19 138.14 54.27 135.30 C 63.87 130.08 73.99 125.83 83.52 120.56 C 86.63 119.78 89.69 118.85 92.55 117.39 C 94.01 116.41 95.63 116.96 97.17 117.34 C 88.42 111.45 78.80 106.95 69.19 102.63 C 65.39 101.18 61.60 99.65 57.63 98.74 C 42.90 96.94 28.59 103.73 13.87 101.81 C 13.86 96.91 13.86 92.01 13.86 87.11 C 23.37 86.04 32.10 80.79 41.85 81.25 C 42.48 71.29 37.77 61.91 37.85 51.95 C 44.28 51.98 50.71 51.94 57.14 51.97 C 58.06 57.42 60.92 62.25 62.75 67.40 C 64.05 71.14 64.10 75.15 65.14 78.95 C 77.76 87.63 90.90 95.70 105.08 101.59 C 105.34 87.54 103.17 73.61 103.21 59.56 C 94.04 54.90 87.47 46.79 79.86 40.12 M 114.45 49.75 C 108.48 45.76 102.87 41.01 98.88 34.97 C 96.15 37.00 93.99 39.67 91.24 41.67 C 93.48 50.88 105.57 49.84 109.99 57.18 C 109.76 74.57 110.00 91.96 109.86 109.34 C 96.57 104.44 85.05 95.93 72.36 89.77 C 68.58 87.51 64.41 85.66 61.15 82.70 C 57.88 74.98 54.82 67.13 51.36 59.49 C 48.81 58.93 46.14 59.33 43.55 59.25 C 44.20 67.60 46.93 75.66 47.15 84.07 C 38.66 84.97 30.73 88.40 22.30 89.54 C 22.33 91.96 22.49 94.37 22.71 96.78 C 33.43 94.98 44.27 94.30 55.02 92.84 C 64.58 96.56 73.40 101.92 82.60 106.42 C 90.31 110.12 97.73 114.57 105.99 116.99 C 89.44 124.94 72.97 133.10 55.93 139.95 C 44.75 142.73 33.69 138.33 22.81 136.30 C 22.81 138.42 22.80 140.55 22.75 142.68 C 26.16 143.31 29.71 143.04 33.04 144.12 C 37.08 145.22 40.55 147.63 44.00 149.91 C 42.04 156.66 41.28 163.68 40.26 170.61 C 43.35 171.14 46.33 172.11 49.32 173.02 C 51.74 165.44 53.33 157.62 55.16 149.88 C 67.84 144.74 79.53 137.54 91.82 131.56 C 97.66 128.77 103.54 125.66 109.99 124.56 C 109.31 140.36 109.19 156.17 109.15 171.98 C 109.26 173.87 108.80 175.96 107.04 176.99 C 100.36 182.38 89.87 183.95 86.60 192.87 C 90.29 193.72 92.45 196.87 94.42 199.81 C 99.86 196.19 103.82 190.83 109.19 187.13 C 111.02 185.80 113.90 185.73 115.23 187.81 C 119.35 192.67 123.09 199.64 130.34 199.78 C 133.41 197.58 137.06 196.20 139.67 193.36 C 131.96 188.43 127.44 180.07 120.19 174.57 C 117.81 169.53 117.90 163.56 117.44 158.04 C 116.55 146.92 117.11 135.76 117.43 124.63 C 121.33 124.77 125.20 125.45 128.92 126.65 C 143.32 130.92 154.30 142.65 169.09 145.94 C 171.21 155.10 176.32 163.46 176.73 173.02 C 179.97 173.14 183.21 173.20 186.44 173.39 C 186.60 164.41 184.08 155.64 184.33 146.65 C 191.10 145.80 197.52 142.91 204.43 143.05 C 204.44 140.79 204.45 138.53 204.46 136.27 C 193.60 138.23 182.62 141.50 171.49 139.78 C 154.84 136.02 141.77 123.31 124.90 120.15 C 124.64 118.47 124.39 116.78 124.11 115.10 C 141.91 110.82 157.28 100.30 173.40 92.07 C 174.78 91.20 176.43 91.28 177.91 91.86 C 186.67 94.85 195.85 96.60 205.11 96.85 C 206.31 94.81 207.31 92.65 207.96 90.38 C 198.92 87.21 189.46 85.38 180.07 83.53 C 184.34 75.50 185.94 66.37 187.10 57.45 C 183.46 57.34 179.88 56.67 176.29 56.19 C 174.53 65.74 172.24 75.20 169.51 84.52 C 168.76 87.93 165.26 89.30 162.51 90.77 C 150.40 96.68 137.75 101.58 124.66 104.84 C 122.53 105.37 120.34 105.43 118.17 105.56 C 118.40 89.57 116.08 73.25 119.73 57.50 C 128.05 52.14 138.21 49.03 144.63 41.14 C 141.43 39.29 139.01 36.44 136.04 34.29 C 129.80 40.76 119.66 42.10 114.45 49.75 Z" />
</g>
</svg>
