<?xml version="1.0" encoding="UTF-8" ?>
<!DOCTYPE svg PUBLIC "-//W3C//DTD SVG 1.1//EN" "http://www.w3.org/Graphics/SVG/1.1/DTD/svg11.dtd">
<svg width="214pt" height="236pt" viewBox="0 0 214 236" version="1.1" xmlns="http://www.w3.org/2000/svg">
<g id="#ffffffff">
</g>
<g id="#060606ff">
<path fill="#060606" opacity="1.00" d=" M 96.41 29.33 C 101.67 20.98 109.82 15.19 117.17 8.86 C 124.23 16.83 132.69 23.43 139.75 31.40 C 138.32 41.90 138.15 52.48 137.73 63.05 C 136.81 70.84 135.86 78.65 136.70 86.50 C 140.74 84.83 145.02 84.05 149.28 83.17 C 159.69 79.21 169.99 74.95 180.25 70.62 C 188.99 74.23 197.21 78.99 206.15 82.11 C 205.03 92.40 200.75 101.93 198.92 112.05 C 190.86 115.86 182.49 119.05 173.93 121.52 C 168.05 122.83 162.35 124.76 156.73 126.89 C 166.48 134.58 176.53 141.97 185.26 150.83 C 188.34 153.88 192.09 156.16 195.07 159.33 C 195.99 170.23 195.86 181.22 197.01 192.09 C 188.63 194.51 179.76 194.54 171.37 196.91 C 167.68 194.22 163.56 192.31 159.44 190.43 C 154.52 187.07 149.19 184.18 144.95 179.93 C 140.43 175.68 135.67 171.70 131.19 167.40 C 130.28 174.71 130.22 182.09 129.18 189.38 C 128.85 198.74 129.06 208.13 129.60 217.48 C 125.07 220.23 120.73 223.31 116.76 226.85 C 113.29 230.13 108.88 232.11 104.90 234.67 C 102.53 232.19 100.09 229.75 98.19 226.88 C 95.17 222.03 90.54 218.55 86.54 214.56 C 87.02 198.69 86.74 182.82 86.79 166.94 C 86.77 163.68 86.96 160.42 87.34 157.19 C 81.23 160.22 74.68 162.37 67.92 163.33 C 58.20 165.78 48.89 169.74 39.65 173.61 C 31.34 169.39 23.58 163.43 14.14 162.04 C 16.98 154.11 20.27 146.25 21.05 137.78 C 26.94 135.32 33.25 133.95 38.93 130.95 C 47.96 126.62 57.87 123.95 66.16 118.20 C 60.66 114.72 55.52 110.71 50.46 106.63 C 42.99 100.29 34.91 94.67 27.73 88.01 C 27.12 80.37 25.81 72.76 25.83 65.07 C 25.84 62.01 24.68 59.14 24.37 56.12 C 29.85 56.21 35.58 56.11 40.63 53.75 C 43.75 52.48 46.90 51.30 49.95 49.86 C 52.24 48.72 54.12 50.94 55.77 52.18 C 63.58 59.48 72.06 66.06 80.98 71.95 C 84.81 74.86 88.48 78.04 92.92 80.02 C 92.43 63.05 95.17 46.21 96.41 29.33 M 98.87 29.16 C 96.67 34.17 97.56 39.85 96.44 45.11 C 95.51 56.81 93.97 68.50 94.15 80.27 C 94.72 81.65 95.43 83.16 94.10 84.35 C 88.94 81.17 84.12 77.55 79.44 73.71 C 69.49 67.19 60.22 59.71 51.57 51.55 C 43.59 54.56 35.89 58.89 27.12 58.82 C 27.23 68.17 28.21 77.47 29.36 86.74 C 34.39 90.28 38.57 94.84 43.54 98.46 C 48.35 101.98 52.60 106.21 57.45 109.68 C 61.10 112.51 65.09 114.84 68.85 117.51 C 69.07 118.01 69.51 119.01 69.72 119.51 C 68.03 120.20 66.30 120.81 64.66 121.64 C 55.76 127.02 45.57 129.65 36.28 134.24 C 31.82 136.61 26.37 137.02 22.31 140.10 C 21.42 147.18 18.23 153.65 16.57 160.56 C 24.44 162.62 31.39 166.96 38.52 170.71 C 39.73 171.43 41.11 170.59 42.33 170.31 C 52.08 166.77 61.57 162.14 71.89 160.50 C 77.59 159.33 82.91 156.91 88.41 155.09 C 88.89 156.66 89.79 158.26 89.21 159.93 C 87.71 166.88 88.82 174.00 88.30 181.02 C 88.10 185.67 89.18 190.29 88.67 194.95 C 87.96 200.55 88.71 206.18 88.47 211.81 C 89.60 216.05 93.96 218.14 96.50 221.46 C 99.17 224.99 101.63 228.72 105.01 231.65 C 109.00 229.58 113.44 228.00 116.58 224.65 C 119.61 221.46 123.49 219.33 126.81 216.50 C 127.58 208.99 127.13 201.39 127.06 193.85 C 127.62 187.58 128.10 181.30 128.59 175.03 C 128.92 170.93 128.41 166.69 129.69 162.72 C 140.48 172.25 150.13 183.68 163.56 189.62 C 166.51 190.71 169.02 192.70 171.91 193.88 C 179.51 192.57 187.38 192.50 194.75 190.06 C 194.35 182.41 193.50 174.76 193.62 167.09 C 193.58 165.24 193.64 163.29 192.81 161.59 C 189.52 157.09 184.63 154.18 180.73 150.29 C 172.41 141.20 161.81 134.71 152.43 126.83 C 161.58 121.15 172.71 120.33 182.63 116.50 C 187.32 114.65 192.43 113.58 196.60 110.61 C 199.85 102.10 202.16 93.15 203.61 84.16 C 200.30 82.05 196.43 81.07 192.98 79.24 C 188.68 76.97 184.24 74.98 179.70 73.23 C 178.69 73.78 177.69 74.32 176.68 74.86 C 166.99 77.59 158.05 82.47 148.43 85.42 C 144.18 85.86 140.05 87.03 136.31 89.11 C 135.72 88.45 134.73 87.97 134.70 86.97 C 134.19 81.33 134.73 75.65 135.38 70.05 C 136.21 57.66 136.42 45.24 137.57 32.88 C 131.12 25.56 123.63 19.24 116.93 12.14 C 110.28 17.02 103.57 22.28 98.87 29.16 Z" />
<path fill="#060606" opacity="1.00" d=" M 115.49 59.74 C 119.35 65.82 120.37 73.26 124.80 79.01 C 124.53 82.31 122.57 85.01 120.60 87.52 C 117.24 93.26 114.78 99.47 112.50 105.70 C 110.09 102.90 109.70 98.95 108.46 95.56 C 106.98 89.95 104.58 84.65 102.93 79.11 C 107.00 72.59 111.63 66.41 115.49 59.74 M 105.01 79.72 C 107.50 86.88 109.81 94.10 111.95 101.37 C 114.77 94.01 118.93 87.34 122.79 80.52 C 119.19 75.52 117.78 69.43 115.19 63.92 C 111.70 69.13 107.89 74.14 105.01 79.72 Z" />
<path fill="#060606" opacity="1.00" d=" M 65.89 84.80 C 68.29 84.69 70.61 85.46 72.96 85.85 C 78.26 87.23 83.85 86.78 89.08 88.49 C 89.97 91.38 90.90 94.27 92.39 96.92 C 95.32 101.98 97.71 107.35 101.00 112.20 C 101.05 112.78 101.17 113.95 101.23 114.53 C 91.93 112.67 82.71 110.46 73.49 108.26 C 70.68 100.88 69.13 93.05 65.55 85.94 L 65.89 84.80 M 68.37 87.29 C 71.25 93.25 72.21 99.92 75.10 105.85 C 82.61 108.22 90.40 109.67 98.14 111.14 C 95.44 106.33 92.69 101.55 90.22 96.62 C 89.06 94.50 88.68 91.78 86.62 90.28 C 80.68 88.54 74.38 88.74 68.37 87.29 Z" />
<path fill="#060606" opacity="1.00" d=" M 140.18 101.23 C 141.20 100.14 142.09 98.20 143.95 98.84 C 151.05 99.63 158.04 101.19 165.15 101.90 C 163.10 106.37 159.14 109.58 157.09 114.05 C 155.75 116.77 154.42 119.50 153.04 122.19 C 149.30 120.92 145.40 120.31 141.51 119.69 C 136.53 118.86 131.77 116.90 126.71 116.54 C 126.54 116.03 126.37 115.52 126.20 115.02 C 129.30 113.60 130.72 110.35 133.14 108.15 C 135.56 105.92 138.22 103.91 140.18 101.23 M 142.94 100.99 C 138.96 105.95 133.48 109.38 129.65 114.46 C 136.97 117.06 144.71 117.97 152.26 119.61 C 153.93 116.80 155.35 113.86 156.92 111.01 C 158.64 108.63 160.57 106.39 162.16 103.90 C 155.76 102.90 149.39 101.66 142.94 100.99 Z" />
<path fill="#060606" opacity="1.00" d=" M 108.08 115.08 C 109.01 114.50 109.93 113.91 110.85 113.32 C 113.32 113.30 115.79 113.56 117.91 114.94 C 119.41 118.60 120.75 123.50 117.81 126.81 C 115.50 128.77 111.85 130.24 109.35 127.73 C 106.51 124.22 106.97 119.19 108.08 115.08 M 111.53 115.40 C 110.96 115.73 109.82 116.37 109.25 116.69 C 108.79 120.42 108.41 125.10 112.25 127.24 C 114.26 126.32 117.26 125.80 117.68 123.20 C 118.63 120.30 117.20 117.29 114.86 115.55 C 113.75 115.51 112.64 115.46 111.53 115.40 Z" />
<path fill="#060606" opacity="1.00" d=" M 75.03 123.71 C 80.31 124.29 85.66 123.60 90.89 124.59 C 94.71 124.78 98.53 124.60 102.35 124.55 C 103.02 125.55 103.70 126.56 104.37 127.57 C 99.03 131.71 94.27 136.56 89.78 141.59 C 87.50 145.16 83.88 147.51 80.43 149.81 C 74.16 147.23 67.75 144.99 61.72 141.86 C 66.93 136.39 70.88 129.97 75.03 123.71 M 65.02 140.84 C 69.84 143.62 75.28 144.86 80.37 146.97 C 88.96 141.98 94.10 133.10 101.51 126.70 C 92.93 127.36 84.49 125.54 75.92 125.86 C 71.98 130.63 68.95 136.06 65.02 140.84 Z" />
<path fill="#060606" opacity="1.00" d=" M 122.81 131.52 C 123.42 130.98 124.62 129.91 125.22 129.37 C 133.00 130.17 140.66 131.98 147.93 134.88 C 149.91 141.63 151.56 148.54 155.04 154.71 C 154.73 155.10 154.13 155.86 153.83 156.24 C 147.07 154.09 139.94 155.54 133.01 154.93 C 130.20 146.88 126.10 139.37 122.81 131.52 M 125.15 131.94 C 127.77 139.01 131.88 145.39 134.35 152.52 C 140.15 152.90 145.96 152.49 151.75 152.91 C 149.78 148.05 148.57 142.92 146.83 137.98 C 146.41 136.47 144.68 136.09 143.44 135.53 C 137.56 133.47 131.41 132.00 125.15 131.94 Z" />
<path fill="#060606" opacity="1.00" d=" M 110.30 134.87 C 110.56 135.00 111.08 135.27 111.34 135.40 C 112.73 141.02 114.14 146.64 116.06 152.11 C 117.25 156.75 119.92 160.89 120.70 165.66 C 114.49 168.71 111.47 175.32 106.86 180.15 C 104.81 175.32 102.89 170.40 99.95 166.03 C 98.84 163.91 97.02 161.61 97.57 159.10 C 101.96 151.10 106.60 143.22 110.30 134.87 M 109.95 138.72 C 106.54 145.92 102.15 152.64 99.20 160.05 C 101.51 165.74 105.54 170.53 107.63 176.35 C 111.12 172.24 113.99 167.49 118.46 164.32 C 117.73 160.79 115.75 157.72 114.78 154.28 C 113.19 149.09 111.57 143.90 109.95 138.72 Z" />
</g>
</svg>
