<?xml version="1.0" encoding="UTF-8" ?>
<!DOCTYPE svg PUBLIC "-//W3C//DTD SVG 1.1//EN" "http://www.w3.org/Graphics/SVG/1.1/DTD/svg11.dtd">
<svg width="1250pt" height="1250pt" viewBox="0 0 1250 1250" version="1.1" xmlns="http://www.w3.org/2000/svg">
<g id="#000000ff">
<path fill="#000000" opacity="1.00" d=" M 685.21 130.23 C 698.61 107.16 711.85 84.00 725.27 60.94 C 745.92 97.19 766.90 133.24 787.67 169.41 C 797.83 186.76 807.53 204.40 817.96 221.57 C 843.85 177.00 869.54 132.30 895.34 87.66 C 915.45 99.29 935.59 110.86 955.68 122.52 C 930.04 166.82 904.54 211.20 878.86 255.49 C 878.03 256.91 877.21 258.35 876.42 259.80 C 915.37 260.11 954.32 259.92 993.27 260.05 L 993.57 260.10 C 995.68 260.52 997.80 260.94 999.97 260.95 C 1008.66 260.95 1017.36 261.07 1026.05 261.04 C 1028.29 260.84 1030.28 261.95 1031.86 263.46 C 1044.41 285.18 1056.89 306.95 1069.52 328.63 C 1065.73 329.49 1061.84 329.12 1058.00 329.16 C 984.16 328.99 910.30 328.91 836.46 329.08 L 835.95 329.85 C 818.51 360.09 801.04 390.32 783.59 420.56 C 782.39 422.72 780.85 424.75 780.17 427.16 L 780.02 427.64 L 780.53 427.68 C 820.68 428.12 860.86 427.77 901.02 427.87 C 926.01 427.85 951.00 427.95 975.99 427.82 C 977.83 427.80 979.67 428.08 981.48 428.52 C 950.54 481.52 919.39 534.39 888.40 587.36 C 888.18 587.76 887.73 588.56 887.51 588.96 C 921.49 588.94 955.49 589.20 989.47 588.83 L 990.00 587.99 C 1011.95 549.95 1034.12 512.03 1056.17 474.04 C 1064.74 459.04 1073.75 444.27 1082.07 429.14 C 1108.78 428.91 1135.49 428.89 1162.20 429.14 C 1131.75 481.97 1101.24 534.76 1070.58 587.46 C 1070.35 587.84 1069.88 588.61 1069.65 589.00 C 1120.51 588.97 1171.39 589.08 1222.24 588.94 C 1224.67 589.05 1224.71 592.20 1224.85 593.99 C 1224.83 615.33 1224.93 636.67 1224.80 658.00 C 1171.91 658.21 1119.03 657.84 1066.15 658.18 C 1066.77 659.24 1067.41 660.31 1068.06 661.38 C 1088.98 697.68 1109.76 734.07 1130.63 770.41 C 1134.51 777.54 1139.06 784.43 1142.56 791.69 C 1129.44 814.80 1116.07 837.79 1102.72 860.78 C 1063.94 793.37 1025.03 726.02 986.26 658.60 C 982.57 657.67 978.74 658.09 974.99 658.06 C 945.21 658.08 915.43 658.03 885.65 658.07 C 885.85 658.46 886.26 659.24 886.46 659.63 C 918.88 714.22 951.14 768.90 983.39 823.58 C 973.32 824.55 963.18 823.75 953.09 824.01 C 894.98 824.06 836.88 823.89 778.78 824.10 L 778.71 825.00 C 796.90 857.16 815.65 889.03 834.03 921.10 L 834.52 921.84 C 905.67 922.33 976.83 921.79 1047.98 921.82 C 1054.23 922.01 1060.72 920.45 1066.77 922.58 C 1053.87 945.09 1040.84 967.53 1027.87 990.00 C 988.92 990.00 949.96 990.25 911.00 990.20 C 898.75 990.52 886.46 989.86 874.24 990.78 C 900.69 1036.48 927.07 1082.21 953.46 1127.94 C 933.37 1139.60 913.22 1151.15 893.14 1162.81 C 872.89 1127.74 852.64 1092.67 832.39 1057.60 C 826.76 1048.03 821.46 1038.25 815.60 1028.83 C 784.93 1081.92 754.26 1135.02 723.80 1188.23 C 723.42 1188.17 722.66 1188.05 722.27 1187.99 C 708.98 1165.50 696.05 1142.76 682.99 1120.12 C 713.83 1066.43 744.61 1012.69 775.42 958.98 C 764.06 939.19 752.62 919.46 741.23 899.70 C 735.31 889.77 729.93 879.50 723.68 869.79 C 691.19 926.19 658.54 982.50 625.99 1038.87 C 592.83 981.56 559.72 924.22 526.51 866.95 C 525.33 867.23 524.98 868.50 524.38 869.41 C 508.05 897.97 491.40 926.34 475.13 954.93 C 514.17 1022.22 553.08 1089.59 592.04 1156.93 C 565.39 1156.91 538.73 1156.92 512.08 1156.92 C 486.27 1112.82 460.86 1068.49 434.91 1024.48 C 408.40 1070.12 382.27 1115.98 355.60 1161.52 C 335.64 1149.78 315.51 1138.30 295.45 1126.73 C 321.10 1081.92 347.23 1037.39 372.74 992.50 L 372.78 992.41 C 372.69 992.41 372.50 992.40 372.41 992.39 C 359.63 991.75 346.80 992.31 334.00 992.12 C 285.24 992.24 236.48 992.20 187.72 991.98 C 200.57 969.19 214.10 946.77 226.76 923.88 C 246.17 924.15 265.58 923.95 285.00 924.03 C 305.66 923.97 326.34 924.17 346.99 923.42 C 358.08 923.35 369.18 923.37 380.27 923.01 C 387.00 922.82 393.74 923.01 400.48 922.91 C 404.62 922.97 408.77 923.13 412.91 922.91 L 413.53 922.05 C 432.27 889.91 450.66 857.55 469.45 825.44 C 469.64 825.11 470.04 824.46 470.23 824.14 C 412.17 823.84 354.10 823.99 296.03 824.32 C 289.22 823.99 282.28 825.09 275.57 823.60 C 306.45 768.86 337.57 714.25 368.62 659.61 C 368.81 659.22 369.18 658.45 369.37 658.07 C 340.57 658.05 311.77 658.06 282.97 658.06 C 276.51 658.23 270.01 657.56 263.59 658.50 C 224.88 726.00 185.92 793.37 147.08 860.80 C 133.70 837.82 120.61 814.67 107.09 791.77 C 132.22 747.38 157.85 703.28 183.09 658.95 L 183.66 658.05 C 130.77 658.04 77.89 658.10 25.00 658.03 C 24.99 635.02 25.00 612.01 25.00 589.01 C 76.68 588.95 128.36 589.08 180.04 588.94 C 179.87 588.68 179.53 588.15 179.37 587.88 C 148.89 534.92 118.07 482.16 87.69 429.16 C 114.31 428.78 140.94 429.21 167.57 428.93 C 198.15 482.05 229.19 534.91 259.87 587.97 L 260.43 588.85 C 295.47 589.18 330.52 588.95 365.57 588.96 C 365.08 588.01 364.59 587.07 364.10 586.14 C 333.49 533.15 303.44 479.84 272.74 426.91 C 337.88 427.06 403.02 427.07 468.16 426.90 C 467.95 426.52 467.54 425.77 467.33 425.39 C 448.90 393.25 430.20 361.27 411.84 329.10 C 411.59 328.66 411.09 327.79 410.84 327.36 C 388.22 327.38 365.59 327.35 342.97 327.05 C 304.20 326.99 265.42 326.94 226.64 327.06 C 226.23 327.06 225.41 327.07 225.00 327.07 C 211.80 304.17 198.66 281.23 185.32 258.41 C 186.87 258.11 188.43 257.90 190.02 257.90 C 250.20 258.02 310.39 258.02 370.58 257.98 C 370.26 257.38 369.94 256.78 369.63 256.19 C 344.19 212.03 318.69 167.90 293.19 123.78 C 313.30 112.15 333.42 100.53 353.56 88.94 C 379.93 134.65 406.31 180.35 432.72 226.03 C 454.32 189.15 475.70 152.14 497.21 115.20 C 501.32 107.98 505.69 100.92 509.63 93.60 C 528.40 94.21 547.20 93.68 565.98 93.87 C 573.76 94.07 581.58 93.37 589.32 94.31 C 550.59 161.49 511.59 228.52 472.90 295.72 C 490.80 326.54 508.55 357.43 526.39 388.28 C 560.38 331.24 594.13 274.05 628.00 216.94 C 649.39 253.24 670.85 289.51 692.27 325.80 C 703.38 344.45 714.19 363.29 725.52 381.81 C 742.89 351.79 760.10 321.66 777.63 291.72 C 747.09 237.75 715.94 184.10 685.21 130.23 M 627.03 358.52 C 607.20 392.10 587.35 425.67 567.37 459.15 C 585.58 491.35 604.37 523.22 622.72 555.34 C 622.99 556.16 624.56 558.06 624.99 556.11 C 644.79 521.74 664.64 487.39 684.48 453.05 C 665.98 421.64 647.47 390.23 628.85 358.90 L 629.27 358.18 C 629.45 356.04 625.35 356.76 627.03 358.52 M 395.58 498.10 C 395.81 498.35 396.27 498.86 396.50 499.11 C 413.23 528.77 430.50 558.13 447.08 587.87 C 447.84 588.75 448.81 589.13 449.99 589.01 C 486.34 589.00 522.69 588.98 559.04 589.01 C 560.22 589.15 561.20 588.77 561.97 587.88 L 561.22 587.88 C 544.34 558.15 526.83 528.76 510.12 498.94 C 509.28 497.48 507.33 498.19 505.99 497.97 C 469.19 498.10 432.38 497.85 395.58 498.10 M 738.09 498.10 L 738.21 499.01 C 721.43 527.99 704.75 557.03 687.94 586.00 C 687.65 586.61 687.07 587.84 686.78 588.45 C 686.73 588.54 686.64 588.74 686.60 588.83 C 725.99 589.21 765.40 588.90 804.80 588.99 C 805.07 588.53 805.61 587.62 805.88 587.16 C 823.00 557.66 840.23 528.21 857.66 498.89 C 856.59 497.41 854.49 498.18 852.97 497.96 C 814.68 498.11 776.38 497.84 738.09 498.10 M 451.04 658.07 L 451.01 659.00 C 433.27 690.26 415.49 721.49 397.80 752.78 L 396.90 752.68 C 397.44 753.94 398.75 754.07 399.97 754.02 C 435.97 753.94 471.97 754.11 507.97 753.80 C 509.60 753.71 512.06 754.09 512.06 751.75 C 529.73 720.87 547.67 690.13 565.36 659.26 L 565.85 659.30 C 565.87 658.99 565.91 658.37 565.93 658.07 C 527.63 657.96 489.33 657.95 451.04 658.07 M 682.63 658.83 C 700.29 689.85 718.26 720.72 736.14 751.61 C 736.35 752.18 736.78 753.33 736.99 753.90 C 776.97 753.90 816.95 753.92 856.92 753.91 C 858.17 754.06 859.01 753.53 859.44 752.32 L 858.57 752.50 C 840.32 721.70 822.02 690.92 803.96 660.00 C 803.70 659.50 803.19 658.50 802.93 658.00 C 766.95 658.01 730.97 657.99 694.99 658.00 C 690.86 658.07 686.71 657.71 682.62 658.36 C 682.62 658.48 682.63 658.71 682.63 658.83 M 623.32 698.04 C 604.87 730.05 586.14 761.94 568.00 794.12 L 567.19 794.10 L 566.74 794.93 L 567.20 795.75 L 568.01 795.72 C 572.53 804.46 577.84 812.80 582.65 821.40 C 597.09 846.36 611.54 871.32 625.98 896.29 C 644.87 863.57 663.80 830.87 682.69 798.14 C 663.39 764.78 644.18 731.37 624.86 698.03 L 624.90 697.20 L 624.11 696.74 C 623.91 697.06 623.52 697.71 623.32 698.04 Z" />
</g>
<g id="#0f0f0f86">
<path fill="#0f0f0f" opacity="0.53" d=" M 509.63 93.60 C 511.06 93.30 512.51 93.07 513.99 93.09 C 539.27 93.13 564.56 93.14 589.84 93.08 C 589.82 93.40 589.78 94.04 589.76 94.36 L 589.32 94.31 C 581.58 93.37 573.76 94.07 565.98 93.87 C 547.20 93.68 528.40 94.21 509.63 93.60 Z" />
</g>
<g id="#15151522">
<path fill="#151515" opacity="0.13" d=" M 369.63 256.19 C 369.94 256.78 370.26 257.38 370.58 257.98 C 310.39 258.02 250.20 258.02 190.02 257.90 C 188.43 257.90 186.87 258.11 185.32 258.41 L 184.52 258.55 C 184.85 257.25 185.68 256.72 187.03 256.95 C 220.01 256.93 252.99 256.97 285.97 256.98 C 293.98 256.98 302.00 256.82 310.01 257.28 C 328.35 257.35 346.69 257.25 365.04 257.33 C 366.66 257.44 368.18 256.87 369.63 256.19 Z" />
</g>
<g id="#1515152b">
<path fill="#151515" opacity="0.17" d=" M 876.42 259.80 C 877.21 258.35 878.03 256.91 878.86 255.49 C 878.53 256.63 878.20 257.78 877.88 258.92 C 911.60 259.00 945.32 258.83 979.02 259.59 C 983.76 259.83 988.60 258.96 993.27 260.05 C 954.32 259.92 915.37 260.11 876.42 259.80 Z" />
</g>
<g id="#0f0f0fe1">
<path fill="#0f0f0f" opacity="0.88" d=" M 993.57 260.10 C 1005.68 259.86 1017.80 260.09 1029.91 259.99 C 1030.56 261.14 1031.20 262.30 1031.86 263.46 C 1030.28 261.95 1028.29 260.84 1026.05 261.04 C 1017.36 261.07 1008.66 260.95 999.97 260.95 C 997.80 260.94 995.68 260.52 993.57 260.10 Z" />
</g>
<g id="#15151553">
<path fill="#151515" opacity="0.33" d=" M 226.64 327.06 C 265.42 326.94 304.20 326.99 342.97 327.05 C 365.59 327.35 388.22 327.38 410.84 327.36 C 411.09 327.79 411.59 328.66 411.84 329.10 C 410.68 328.36 409.43 327.73 408.02 327.89 C 347.56 328.05 287.08 328.19 226.64 327.06 Z" />
</g>
<g id="#1b1b1b43">
<path fill="#1b1b1b" opacity="0.26" d=" M 1069.52 328.63 L 1070.18 328.50 C 1070.12 328.88 1070.00 329.63 1069.94 330.00 C 991.94 330.05 913.94 329.92 835.95 329.85 L 836.46 329.08 C 910.30 328.91 984.16 328.99 1058.00 329.16 C 1061.84 329.12 1065.73 329.49 1069.52 328.63 Z" />
</g>
<g id="#2424249d">
<path fill="#242424" opacity="0.62" d=" M 627.03 358.52 C 625.35 356.76 629.45 356.04 629.27 358.18 L 628.85 358.90 C 628.40 358.80 627.48 358.62 627.03 358.52 Z" />
</g>
<g id="#18181826">
<path fill="#181818" opacity="0.15" d=" M 467.33 425.39 C 467.54 425.77 467.95 426.52 468.16 426.90 C 403.02 427.07 337.88 427.06 272.74 426.91 C 275.27 424.96 279.01 426.39 282.02 425.99 C 339.68 426.01 397.35 425.99 455.01 425.99 C 459.12 425.91 463.30 426.47 467.33 425.39 Z" />
<path fill="#181818" opacity="0.15" d=" M 447.08 587.87 C 460.04 588.22 473.01 587.96 485.97 588.04 C 511.05 587.92 536.14 588.22 561.22 587.88 L 561.97 587.88 C 561.20 588.77 560.22 589.15 559.04 589.01 C 522.69 588.98 486.34 589.00 449.99 589.01 C 448.81 589.13 447.84 588.75 447.08 587.87 Z" />
</g>
<g id="#414141c7">
<path fill="#414141" opacity="0.78" d=" M 780.17 427.16 L 780.63 427.21 L 780.53 427.68 L 780.02 427.64 L 780.17 427.16 Z" />
</g>
<g id="#1010108f">
<path fill="#101010" opacity="0.56" d=" M 780.63 427.21 C 847.74 426.87 914.87 427.31 981.99 426.99 C 982.02 427.41 982.08 428.24 982.10 428.66 L 981.48 428.52 C 979.67 428.08 977.83 427.80 975.99 427.82 C 951.00 427.95 926.01 427.85 901.02 427.87 C 860.86 427.77 820.68 428.12 780.53 427.68 L 780.63 427.21 Z" />
</g>
<g id="#141414dc">
<path fill="#141414" opacity="0.86" d=" M 86.80 429.17 C 87.29 427.31 89.64 428.29 91.00 427.98 C 116.02 428.07 141.05 427.91 166.08 428.05 C 166.45 428.27 167.19 428.71 167.57 428.93 C 140.94 429.21 114.31 428.78 87.69 429.16 L 86.80 429.17 Z" />
</g>
<g id="#141414da">
<path fill="#141414" opacity="0.85" d=" M 1082.07 429.14 C 1082.93 427.74 1084.58 428.00 1086.01 427.97 C 1111.61 428.11 1137.22 427.85 1162.82 428.10 L 1162.73 429.15 L 1162.20 429.14 C 1135.49 428.89 1108.78 428.91 1082.07 429.14 Z" />
</g>
<g id="#49494981">
<path fill="#494949" opacity="0.51" d=" M 395.58 498.10 C 432.38 497.85 469.19 498.10 505.99 497.97 C 507.33 498.19 509.28 497.48 510.12 498.94 C 472.25 499.14 434.37 498.81 396.50 499.11 C 396.27 498.86 395.81 498.35 395.58 498.10 Z" />
</g>
<g id="#313131ff">
<path fill="#313131" opacity="1.00" d=" M 738.09 498.10 C 776.38 497.84 814.68 498.11 852.97 497.96 C 854.49 498.18 856.59 497.41 857.66 498.89 C 817.85 499.15 778.03 498.92 738.21 499.01 L 738.09 498.10 Z" />
</g>
<g id="#1c1c1c35">
<path fill="#1c1c1c" opacity="0.21" d=" M 364.10 586.14 C 364.59 587.07 365.08 588.01 365.57 588.96 C 330.52 588.95 295.47 589.18 260.43 588.85 L 259.87 587.97 C 294.49 587.98 329.11 588.16 363.72 587.89 C 363.81 587.45 364.00 586.58 364.10 586.14 Z" />
</g>
<g id="#17171725">
<path fill="#171717" opacity="0.15" d=" M 686.78 588.45 C 687.07 587.84 687.65 586.61 687.94 586.00 C 687.99 586.47 688.09 587.41 688.14 587.89 C 725.09 588.21 762.05 587.81 799.00 588.06 C 801.31 588.09 803.62 587.71 805.88 587.16 C 805.61 587.62 805.07 588.53 804.80 588.99 C 765.40 588.90 725.99 589.21 686.60 588.83 L 686.78 588.45 Z" />
</g>
<g id="#1c1c1c34">
<path fill="#1c1c1c" opacity="0.20" d=" M 887.51 588.96 C 887.73 588.56 888.18 587.76 888.40 587.36 C 891.52 588.38 894.82 587.98 898.05 588.01 C 928.70 587.99 959.35 588.03 990.00 587.99 L 989.47 588.83 C 955.49 589.20 921.49 588.94 887.51 588.96 Z" />
</g>
<g id="#1e1e1e72">
<path fill="#1e1e1e" opacity="0.45" d=" M 1069.65 589.00 C 1069.88 588.61 1070.35 587.84 1070.58 587.46 C 1071.55 588.30 1072.71 588.65 1074.05 588.50 C 1120.05 588.42 1166.04 588.50 1212.04 588.46 C 1216.36 588.51 1220.69 588.63 1224.98 587.92 C 1225.06 611.28 1224.93 634.64 1225.04 658.00 L 1224.80 658.00 C 1224.93 636.67 1224.83 615.33 1224.85 593.99 C 1224.71 592.20 1224.67 589.05 1222.24 588.94 C 1171.39 589.08 1120.51 588.97 1069.65 589.00 Z" />
</g>
<g id="#1c1c1c33">
<path fill="#1c1c1c" opacity="0.20" d=" M 25.04 588.05 C 76.48 587.86 127.93 588.20 179.37 587.88 C 179.53 588.15 179.87 588.68 180.04 588.94 C 128.36 589.08 76.68 588.95 25.00 589.01 L 25.04 588.05 Z" />
</g>
<g id="#595959ff">
<path fill="#595959" opacity="1.00" d=" M 686.60 588.83 C 686.64 588.74 686.73 588.54 686.78 588.45 L 686.60 588.83 Z" />
<path fill="#595959" opacity="1.00" d=" M 372.41 992.39 C 372.50 992.40 372.69 992.41 372.78 992.41 L 372.74 992.50 L 372.41 992.39 Z" />
</g>
<g id="#14141480">
<path fill="#141414" opacity="0.50" d=" M 25.00 658.03 C 77.89 658.10 130.77 658.04 183.66 658.05 L 183.09 658.95 C 130.39 658.95 77.68 658.91 24.98 658.96 L 25.00 658.03 Z" />
<path fill="#141414" opacity="0.50" d=" M 263.59 658.50 C 270.01 657.56 276.51 658.23 282.97 658.06 C 311.77 658.06 340.57 658.05 369.37 658.07 C 369.18 658.45 368.81 659.22 368.62 659.61 C 367.43 659.17 366.20 658.95 364.95 658.94 C 337.96 658.94 310.98 658.94 284.00 658.94 C 277.20 658.71 270.35 659.48 263.59 658.50 Z" />
<path fill="#141414" opacity="0.50" d=" M 885.65 658.07 C 915.43 658.03 945.21 658.08 974.99 658.06 C 978.74 658.09 982.57 657.67 986.26 658.60 C 975.87 659.38 965.41 658.72 954.99 658.94 C 935.00 658.94 915.01 658.96 895.02 658.93 C 892.16 659.02 889.17 658.51 886.46 659.63 C 886.26 659.24 885.85 658.46 885.65 658.07 Z" />
</g>
<g id="#21212181">
<path fill="#212121" opacity="0.51" d=" M 451.04 658.07 C 489.33 657.95 527.63 657.96 565.93 658.07 C 565.91 658.37 565.87 658.99 565.85 659.30 L 565.36 659.26 C 550.25 658.63 535.09 659.17 519.96 658.99 C 496.98 658.99 474.00 658.99 451.01 659.00 L 451.04 658.07 Z" />
<path fill="#212121" opacity="0.51" d=" M 682.62 658.36 C 686.71 657.71 690.86 658.07 694.99 658.00 C 730.97 657.99 766.95 658.01 802.93 658.00 C 803.19 658.50 803.70 659.50 803.96 660.00 C 803.08 659.36 802.11 659.03 801.06 659.01 C 761.59 658.86 722.10 659.22 682.63 658.83 L 682.62 658.36 Z" />
</g>
<g id="#5b5b5bff">
<path fill="#5b5b5b" opacity="1.00" d=" M 682.63 658.83 C 682.63 658.71 682.62 658.48 682.62 658.36 L 682.63 658.83 Z" />
<path fill="#5b5b5b" opacity="1.00" d=" M 567.19 794.10 L 568.00 794.12 C 568.00 794.52 568.01 795.32 568.01 795.72 L 567.20 795.75 L 566.74 794.93 L 567.19 794.10 Z" />
</g>
<g id="#14141482">
<path fill="#141414" opacity="0.51" d=" M 1066.15 658.18 C 1119.03 657.84 1171.91 658.21 1224.80 658.00 L 1225.04 658.00 L 1225.03 658.99 C 1172.35 658.83 1119.68 659.02 1067.01 658.91 C 1067.27 659.52 1067.79 660.76 1068.06 661.38 C 1067.41 660.31 1066.77 659.24 1066.15 658.18 Z" />
</g>
<g id="#373737a9">
<path fill="#373737" opacity="0.66" d=" M 623.32 698.04 C 623.52 697.71 623.91 697.06 624.11 696.74 L 624.90 697.20 L 624.86 698.03 C 624.47 698.03 623.71 698.04 623.32 698.04 Z" />
</g>
<g id="#1b1b1bbd">
<path fill="#1b1b1b" opacity="0.74" d=" M 396.90 752.68 L 397.80 752.78 C 406.52 753.60 415.29 752.82 424.04 753.04 C 453.02 753.00 482.01 753.06 510.99 752.93 C 511.26 752.64 511.79 752.05 512.06 751.75 C 512.06 754.09 509.60 753.71 507.97 753.80 C 471.97 754.11 435.97 753.94 399.97 754.02 C 398.75 754.07 397.44 753.94 396.90 752.68 Z" />
</g>
<g id="#12121299">
<path fill="#121212" opacity="0.60" d=" M 736.14 751.61 C 736.43 751.94 737.01 752.62 737.31 752.96 C 774.87 753.23 812.45 752.95 850.02 753.09 C 852.87 753.13 855.77 753.20 858.57 752.50 L 859.44 752.32 C 859.01 753.53 858.17 754.06 856.92 753.91 C 816.95 753.92 776.97 753.90 736.99 753.90 C 736.78 753.33 736.35 752.18 736.14 751.61 Z" />
</g>
<g id="#191919bb">
<path fill="#191919" opacity="0.73" d=" M 275.15 823.51 L 275.57 823.60 C 282.28 825.09 289.22 823.99 296.03 824.32 C 354.10 823.99 412.17 823.84 470.23 824.14 C 470.04 824.46 469.64 825.11 469.45 825.44 C 468.00 824.92 466.48 824.72 464.96 824.80 C 401.57 825.03 338.18 825.01 274.79 825.00 C 274.88 824.63 275.06 823.88 275.15 823.51 Z" />
</g>
<g id="#1a1a1aca">
<path fill="#1a1a1a" opacity="0.79" d=" M 983.39 823.58 L 983.70 823.55 C 983.81 823.90 984.04 824.62 984.16 824.97 C 915.67 825.04 847.19 824.98 778.71 825.00 L 778.78 824.10 C 836.88 823.89 894.98 824.06 953.09 824.01 C 963.18 823.75 973.32 824.55 983.39 823.58 Z" />
</g>
<g id="#181818d0">
<path fill="#181818" opacity="0.82" d=" M 834.03 921.10 C 911.93 921.00 989.83 920.99 1067.73 921.00 C 1067.55 921.41 1067.19 922.24 1067.02 922.66 L 1066.77 922.58 C 1060.72 920.45 1054.23 922.01 1047.98 921.82 C 976.83 921.79 905.67 922.33 834.52 921.84 L 834.03 921.10 Z" />
</g>
<g id="#1616161f">
<path fill="#161616" opacity="0.12" d=" M 400.48 922.91 C 404.50 920.99 409.22 922.34 413.53 922.05 L 412.91 922.91 C 408.77 923.13 404.62 922.97 400.48 922.91 Z" />
</g>
<g id="#151515ce">
<path fill="#151515" opacity="0.81" d=" M 226.76 923.88 C 228.03 923.08 229.55 923.30 230.97 923.27 C 280.74 923.04 330.50 922.91 380.27 923.01 C 369.18 923.37 358.08 923.35 346.99 923.42 C 326.34 924.17 305.66 923.97 285.00 924.03 C 265.58 923.95 246.17 924.15 226.76 923.88 Z" />
</g>
<g id="#15151587">
<path fill="#151515" opacity="0.53" d=" M 874.24 990.78 C 886.46 989.86 898.75 990.52 911.00 990.20 C 949.96 990.25 988.92 990.00 1027.87 990.00 L 1027.83 990.62 C 1004.88 990.81 981.93 990.51 958.99 990.90 C 930.74 990.81 902.47 991.35 874.24 990.78 Z" />
</g>
<g id="#11111193">
<path fill="#111111" opacity="0.58" d=" M 186.86 991.97 L 187.72 991.98 C 236.48 992.20 285.24 992.24 334.00 992.12 C 346.80 992.31 359.63 991.75 372.41 992.39 L 372.74 992.50 C 362.19 993.30 351.56 992.61 340.98 992.84 C 291.00 992.76 241.03 992.97 191.05 993.03 C 189.66 992.81 187.70 993.49 186.86 991.97 Z" />
</g>
<g id="#1e1e1e77">
<path fill="#1e1e1e" opacity="0.47" d=" M 722.27 1187.99 C 722.66 1188.05 723.42 1188.17 723.80 1188.23 C 725.63 1190.29 720.67 1190.08 722.27 1187.99 Z" />
</g>
</svg>
