<?xml version="1.0" encoding="UTF-8" ?>
<!DOCTYPE svg PUBLIC "-//W3C//DTD SVG 1.1//EN" "http://www.w3.org/Graphics/SVG/1.1/DTD/svg11.dtd">
<svg width="212pt" height="238pt" viewBox="0 0 212 238" version="1.1" xmlns="http://www.w3.org/2000/svg">
<g id="#ffffffff">
</g>
<g id="#010101ff">
<path fill="#010101" opacity="1.00" d=" M 103.78 4.08 C 106.00 2.48 109.35 1.18 111.66 3.33 C 116.76 5.81 115.62 12.47 115.82 17.17 C 116.39 22.42 114.74 27.66 115.67 32.90 C 116.50 37.88 115.46 42.92 115.94 47.93 C 116.53 55.58 114.87 63.33 116.37 70.91 C 122.61 65.75 129.84 62.05 136.54 57.61 C 137.77 57.18 138.99 56.74 140.23 56.32 C 141.95 54.67 144.01 53.34 146.50 53.56 C 147.19 57.03 148.15 60.57 146.84 64.02 C 147.71 70.61 146.82 77.23 146.62 83.83 C 146.09 84.11 145.03 84.68 144.50 84.96 C 145.00 75.94 145.22 66.83 143.57 57.91 C 140.09 56.55 137.07 59.32 134.37 61.12 C 129.28 64.98 123.96 68.49 118.59 71.94 C 117.98 71.82 116.74 71.59 116.12 71.47 C 115.92 78.64 115.64 85.84 116.54 92.98 C 116.89 94.95 116.01 96.76 114.83 98.26 C 114.67 94.29 114.40 90.34 114.05 86.39 C 115.26 79.59 113.63 72.69 114.50 65.85 C 114.12 56.56 114.26 47.25 113.39 37.97 C 113.79 30.69 113.32 23.41 113.25 16.12 C 112.69 12.83 113.09 9.37 111.71 6.25 C 110.07 6.39 108.43 6.50 106.79 6.57 C 102.95 12.81 105.46 20.29 103.76 27.06 C 102.81 37.81 103.73 48.66 103.44 59.45 C 103.30 59.82 103.03 60.56 102.89 60.93 C 101.66 61.80 100.97 61.45 100.80 59.87 C 100.30 57.18 100.96 54.52 101.57 51.91 C 101.12 46.29 101.15 40.65 100.86 35.02 C 101.39 27.68 101.38 20.30 100.89 12.96 C 101.69 9.95 103.10 7.13 103.78 4.08 Z" />
<path fill="#010101" opacity="1.00" d=" M 62.32 39.47 C 67.00 39.76 71.49 41.67 75.16 44.56 C 78.34 46.05 81.54 47.56 84.40 49.63 C 88.49 52.20 93.00 54.56 95.71 58.72 C 92.38 58.09 89.38 56.45 86.62 54.55 C 82.93 53.11 79.86 50.48 76.15 49.09 C 73.94 48.26 72.04 46.83 70.06 45.57 C 68.78 45.69 67.49 45.79 66.21 45.77 C 66.30 47.24 66.33 48.71 66.48 50.18 C 66.23 56.75 66.20 63.36 66.50 69.94 C 66.40 73.04 66.38 76.32 64.86 79.11 C 63.60 69.78 63.78 60.35 63.50 50.97 C 62.85 47.17 62.22 43.34 62.32 39.47 Z" />
<path fill="#010101" opacity="1.00" d=" M 127.92 53.67 C 136.00 48.90 143.77 43.59 152.04 39.16 C 153.99 37.60 154.92 40.28 155.07 41.80 C 155.34 44.52 155.17 47.27 155.41 49.99 C 154.29 50.24 153.16 50.49 152.04 50.76 C 152.01 48.68 153.36 46.18 151.63 44.44 C 149.80 43.50 148.06 44.95 146.43 45.62 C 137.57 50.47 129.00 55.91 119.74 59.99 C 121.80 57.14 125.15 55.70 127.92 53.67 Z" />
<path fill="#010101" opacity="1.00" d=" M 152.43 52.36 C 152.63 51.00 154.56 51.24 155.49 50.55 C 154.30 56.65 154.54 62.94 155.43 69.05 C 155.08 72.54 154.28 75.99 154.60 79.53 C 153.91 79.19 153.22 78.85 152.54 78.51 C 152.14 73.99 153.85 69.53 152.97 65.02 C 152.15 60.84 152.71 56.58 152.43 52.36 Z" />
<path fill="#010101" opacity="1.00" d=" M 71.57 56.16 C 70.99 54.34 73.33 53.02 74.73 54.14 C 83.25 59.17 92.11 63.63 100.36 69.12 C 102.17 67.33 100.92 63.92 102.88 62.59 L 103.65 62.54 C 103.19 68.10 103.65 73.66 103.21 79.23 C 103.06 79.85 102.77 81.09 102.63 81.72 C 100.91 82.93 101.05 80.21 100.42 79.25 C 98.62 76.49 101.19 73.70 101.05 70.75 C 93.78 66.97 86.08 64.02 78.95 59.96 C 77.71 59.33 76.26 57.68 74.81 58.90 C 73.74 62.77 74.62 66.85 74.00 70.78 C 73.17 76.06 74.71 81.34 74.15 86.64 C 73.30 86.34 72.46 86.02 71.66 85.63 C 72.47 81.40 71.30 77.11 72.31 72.89 C 71.29 67.37 72.01 61.73 71.57 56.16 Z" />
<path fill="#010101" opacity="1.00" d=" M 2.59 56.89 C 3.92 53.38 8.16 54.46 11.07 53.78 C 16.63 55.16 21.65 58.33 26.46 61.38 C 34.49 65.59 42.66 69.63 50.02 74.97 C 55.90 78.46 62.02 81.61 67.51 85.71 C 72.17 88.03 76.73 90.56 81.55 92.56 C 86.96 95.81 92.50 98.87 98.14 101.69 C 98.94 101.58 100.54 101.34 101.34 101.22 C 101.53 94.93 101.69 88.64 101.11 82.36 L 102.06 82.53 C 102.39 82.70 103.05 83.05 103.37 83.22 C 103.06 90.88 103.43 98.54 103.83 106.19 C 99.87 105.22 96.40 103.00 92.81 101.17 C 86.48 97.38 79.57 94.68 73.27 90.84 C 65.28 86.09 56.65 82.32 49.18 76.73 C 38.35 72.35 29.02 64.97 18.07 60.82 C 15.67 59.99 13.73 57.67 11.00 58.08 C 9.46 58.56 9.00 60.26 8.13 61.43 C 9.20 63.07 10.15 64.78 11.01 66.54 C 11.52 66.50 12.53 66.43 13.04 66.39 C 15.97 69.17 19.13 71.82 22.94 73.30 C 27.24 75.85 31.17 79.01 35.65 81.30 C 44.21 87.35 53.83 91.63 62.70 97.19 C 70.06 100.55 77.01 104.69 84.00 108.73 C 89.06 112.24 95.00 114.11 100.38 117.04 C 91.92 121.45 84.31 127.29 75.83 131.68 C 71.91 133.69 68.54 137.12 64.04 137.77 C 64.84 136.81 65.66 135.87 66.52 134.95 C 64.00 131.19 59.33 130.44 55.72 128.15 C 50.67 125.18 45.13 123.04 40.35 119.64 C 38.72 118.66 40.25 116.63 40.35 115.24 C 47.81 110.65 55.74 106.68 62.50 101.04 C 62.29 100.38 61.86 99.06 61.65 98.40 C 59.56 97.54 57.55 96.50 55.47 95.60 C 55.41 96.28 55.30 97.62 55.24 98.30 C 54.65 98.24 53.47 98.12 52.88 98.06 C 52.32 101.20 48.72 101.83 46.55 103.58 C 42.43 106.85 36.98 108.42 33.69 112.68 C 31.96 114.54 29.46 115.52 28.01 117.68 C 29.47 119.28 30.76 121.13 32.66 122.26 C 41.63 126.92 50.33 132.10 58.91 137.43 C 58.30 137.41 57.07 137.38 56.45 137.37 C 51.44 135.95 47.00 133.17 42.57 130.52 C 36.14 127.30 30.03 123.28 22.97 121.57 C 21.82 120.69 20.69 119.81 19.54 118.94 C 20.23 115.72 23.58 114.68 25.89 112.85 C 34.43 107.80 42.33 101.54 51.69 97.99 C 53.09 97.66 53.76 96.33 54.64 95.35 C 46.65 91.26 39.03 86.53 31.01 82.49 C 27.71 81.62 25.95 78.24 22.54 77.52 C 16.49 73.69 9.57 71.41 3.79 67.12 C 0.98 64.52 0.17 60.01 2.59 56.89 M 53.34 110.34 C 50.11 112.89 46.05 114.35 43.49 117.70 C 43.81 118.36 44.46 119.66 44.78 120.32 C 48.04 122.07 51.50 123.48 54.48 125.72 C 58.63 128.77 64.20 129.89 67.36 134.22 C 72.89 131.13 78.83 128.77 84.00 125.06 C 87.53 122.53 91.62 120.89 95.08 118.25 C 94.30 114.76 89.99 114.16 87.60 111.93 C 80.68 109.98 74.72 105.51 67.85 103.34 C 62.25 103.75 57.93 107.56 53.34 110.34 Z" />
<path fill="#010101" opacity="1.00" d=" M 182.50 63.81 C 187.99 59.95 193.58 56.08 199.85 53.58 C 201.98 53.52 203.86 54.77 205.90 55.22 C 207.57 56.84 209.86 58.35 209.56 61.02 C 210.08 63.53 207.23 64.73 205.92 66.36 C 204.92 65.52 202.63 64.22 205.72 63.08 C 205.12 60.26 204.17 57.52 202.59 55.09 C 197.42 57.68 192.63 60.97 187.47 63.60 C 181.66 66.47 176.69 70.88 170.51 73.05 C 172.88 68.27 178.41 66.71 182.50 63.81 Z" />
<path fill="#010101" opacity="1.00" d=" M 195.43 69.52 C 198.20 68.47 200.67 66.80 203.13 65.19 C 203.76 65.95 203.95 66.76 203.72 67.64 C 195.85 72.02 188.55 77.37 180.68 81.79 C 176.33 85.20 171.11 87.26 166.83 90.75 C 164.88 92.03 162.93 93.33 160.92 94.52 C 158.99 95.22 159.55 92.92 159.54 91.91 C 160.15 91.77 161.39 91.48 162.01 91.34 C 170.47 85.15 180.03 80.66 188.32 74.23 C 190.60 72.52 193.28 71.43 195.43 69.52 Z" />
<path fill="#010101" opacity="1.00" d=" M 161.46 76.56 C 162.81 75.39 164.65 75.33 166.33 75.05 C 165.43 77.47 162.96 78.43 161.00 79.80 C 158.63 81.34 156.35 83.03 153.85 84.35 C 149.31 85.98 145.52 89.06 141.52 91.66 C 132.52 96.93 123.59 102.35 114.73 107.85 C 114.74 106.74 114.74 105.63 114.75 104.52 C 116.25 104.09 117.76 103.71 119.29 103.41 C 124.27 99.09 130.33 96.41 135.77 92.77 C 138.94 90.65 142.30 88.85 145.79 87.34 C 150.94 83.62 156.50 80.53 161.46 76.56 Z" />
<path fill="#010101" opacity="1.00" d=" M 165.20 81.28 C 165.77 81.94 165.77 81.94 165.20 81.28 Z" />
<path fill="#010101" opacity="1.00" d=" M 163.77 94.51 C 166.18 93.88 167.92 95.81 169.84 96.87 C 171.80 98.17 174.86 99.20 174.30 102.17 C 171.50 102.53 169.67 99.73 167.21 98.82 C 165.70 97.81 162.29 97.03 163.77 94.51 Z" />
<path fill="#010101" opacity="1.00" d=" M 138.84 105.72 C 143.08 102.63 147.47 99.64 152.25 97.45 C 152.77 97.56 153.81 97.77 154.33 97.88 C 152.15 102.20 146.54 102.55 143.42 105.99 C 144.17 106.16 145.65 106.49 146.39 106.66 C 144.76 107.47 143.13 108.30 141.52 109.16 C 140.72 108.86 139.92 108.56 139.12 108.26 C 135.20 110.59 131.39 113.12 127.26 115.08 C 127.48 116.27 127.15 117.94 128.71 118.29 C 134.44 120.64 139.07 125.02 144.97 127.00 C 147.86 128.03 150.50 129.68 153.45 130.57 C 161.88 125.44 170.53 120.44 178.09 114.05 C 175.66 111.81 172.45 110.98 169.63 109.43 C 165.35 105.91 159.91 104.40 155.32 101.38 C 155.18 98.62 158.57 100.56 159.92 101.01 C 167.76 104.96 175.70 109.05 182.61 114.51 C 178.44 118.18 173.37 120.54 168.81 123.65 C 164.41 126.71 159.37 128.75 155.14 132.05 C 157.80 134.54 161.19 135.98 164.87 135.69 C 164.40 135.30 163.47 134.51 163.01 134.12 C 170.53 129.76 177.50 124.53 184.99 120.14 C 188.69 117.64 192.46 115.10 196.74 113.70 C 194.65 116.64 191.72 118.76 188.65 120.56 C 181.58 125.96 173.60 129.96 166.24 134.93 C 167.07 136.71 167.29 139.10 169.20 140.11 C 174.05 142.74 178.83 145.50 183.40 148.60 C 191.30 151.66 198.65 155.94 206.24 159.69 C 209.96 161.40 210.68 165.61 211.38 169.19 C 209.97 172.16 207.89 175.72 204.08 175.49 C 198.33 174.78 193.59 171.13 188.59 168.51 C 184.02 166.17 180.20 162.62 175.52 160.46 C 169.07 157.55 163.39 153.16 156.80 150.52 C 154.67 155.72 156.56 161.38 155.80 166.79 C 155.16 167.44 154.51 168.09 153.87 168.74 L 153.89 167.30 C 151.42 166.65 150.88 164.13 151.00 161.95 C 151.97 161.20 153.05 160.59 154.09 159.94 C 153.96 156.46 153.87 152.96 153.46 149.50 C 151.88 148.01 150.05 146.81 148.34 145.48 C 146.50 150.80 147.98 156.45 147.77 161.93 C 148.31 167.81 147.59 173.70 148.00 179.57 C 142.75 177.05 137.64 174.25 132.88 170.89 C 127.55 168.27 123.01 164.10 117.27 162.37 C 117.34 167.67 116.62 172.95 116.74 178.25 C 117.31 187.47 117.67 196.76 116.82 205.99 C 116.81 211.86 117.87 217.70 117.79 223.58 C 120.60 227.29 117.89 231.52 115.97 234.93 C 113.75 235.78 111.26 236.26 109.53 238.00 L 108.25 238.00 L 108.11 237.53 C 105.44 235.14 99.83 236.13 99.29 231.74 C 97.60 225.14 99.59 218.50 99.59 211.85 C 101.46 203.69 100.07 195.24 101.36 187.03 C 99.86 182.28 100.13 177.32 102.31 172.84 C 89.05 178.25 78.31 188.26 65.65 194.81 C 65.04 193.57 64.18 192.41 63.98 191.02 C 62.73 178.85 65.55 166.51 63.71 154.42 C 48.04 161.24 33.90 170.96 18.74 178.77 C 17.07 180.09 15.07 180.82 13.08 181.50 C 9.86 180.18 6.90 178.37 4.33 176.03 C 4.69 174.27 4.12 172.00 5.66 170.70 C 15.08 162.52 26.76 157.77 37.22 151.17 C 45.53 146.87 53.48 141.79 62.30 138.57 C 62.44 138.62 62.72 138.71 62.86 138.75 C 51.89 146.09 39.85 151.64 28.76 158.78 C 22.50 162.84 15.65 166.21 10.60 171.87 C 12.58 174.18 15.78 174.04 18.50 174.75 C 23.45 170.14 30.25 168.59 36.15 165.54 C 47.67 159.92 58.63 153.30 69.71 146.89 C 81.16 141.13 91.87 133.97 103.04 127.74 L 103.46 128.36 C 104.10 138.32 103.58 148.34 103.39 158.31 C 102.43 157.15 101.50 155.98 100.57 154.81 C 101.53 151.60 102.12 148.27 101.72 144.92 C 101.28 140.47 102.08 136.04 102.17 131.59 C 98.24 133.56 94.58 136.03 90.55 137.83 C 81.93 141.93 74.96 148.67 66.25 152.62 C 68.33 160.96 66.09 169.61 67.15 178.05 C 67.67 181.64 67.38 185.26 67.35 188.87 C 69.85 187.57 72.15 185.92 74.79 184.90 C 84.05 181.51 91.76 175.14 100.45 170.58 C 102.85 169.90 101.58 167.19 101.44 165.47 C 96.13 166.33 92.22 170.15 87.73 172.74 C 83.61 175.96 78.19 177.06 74.51 180.94 C 73.46 180.00 71.37 179.54 71.73 177.76 C 72.22 170.86 72.56 163.94 72.45 157.01 C 72.50 154.16 72.50 150.90 74.96 148.95 C 74.93 152.93 74.20 156.92 74.65 160.91 C 74.90 163.92 75.63 166.90 75.44 169.94 C 75.48 171.58 74.93 173.47 76.14 174.85 C 77.73 174.77 79.37 174.63 80.84 173.97 C 87.74 170.46 93.96 165.81 100.65 161.95 C 100.88 162.96 101.11 163.98 101.34 164.99 C 101.90 163.12 102.48 161.26 103.16 159.42 C 103.91 173.19 102.65 186.99 103.76 200.75 C 103.81 206.65 105.28 212.45 104.78 218.36 C 104.43 218.45 103.73 218.63 103.37 218.72 C 104.54 219.69 105.17 220.93 105.26 222.44 C 105.49 223.77 105.74 225.09 106.00 226.42 C 105.17 226.83 103.51 227.63 102.69 228.04 C 105.35 230.55 108.76 230.98 112.23 230.26 C 115.77 224.00 113.48 216.74 113.85 209.98 C 113.71 194.33 113.93 178.69 114.28 163.05 C 115.09 156.39 113.87 149.69 114.54 143.02 C 114.55 137.13 114.14 131.24 114.83 125.37 C 118.73 127.01 122.45 129.05 126.00 131.36 C 129.30 132.72 132.36 134.57 135.54 136.17 C 146.67 142.57 158.39 147.88 169.34 154.59 C 174.56 157.21 180.16 159.19 184.69 163.00 C 189.99 165.32 195.46 167.30 200.53 170.10 C 201.99 170.90 203.41 171.75 204.83 172.63 C 206.45 170.28 208.02 167.91 209.59 165.54 C 201.29 158.87 190.94 155.61 182.09 149.79 C 178.44 147.33 174.49 145.39 170.52 143.54 C 162.14 138.42 153.56 133.63 144.79 129.23 C 138.41 125.33 132.07 121.23 125.12 118.39 C 123.84 117.78 122.72 116.88 121.57 116.07 C 127.10 112.26 133.03 109.08 138.84 105.72 M 117.67 129.59 C 116.48 135.29 116.46 141.20 117.35 146.94 C 118.03 151.86 116.95 156.76 117.21 161.69 C 117.90 161.69 119.30 161.69 119.99 161.69 C 124.34 165.10 129.70 166.82 134.38 169.70 C 137.45 171.27 140.45 173.26 143.93 173.80 C 148.31 172.16 144.72 167.22 145.16 163.91 C 146.42 157.26 143.54 150.66 144.71 143.97 C 136.90 140.19 129.51 135.62 122.49 130.53 C 121.26 129.28 119.27 128.68 117.67 129.59 Z" />
<path fill="#010101" opacity="1.00" d=" M 180.95 105.51 C 183.25 106.39 185.63 107.06 187.87 108.10 C 189.83 109.70 191.65 111.54 193.03 113.67 C 191.34 113.37 189.73 112.73 188.48 111.53 C 186.06 109.39 182.92 108.14 180.95 105.51 Z" />
<path fill="#010101" opacity="1.00" d=" M 154.35 168.80 C 154.85 168.78 155.86 168.75 156.37 168.73 C 155.81 176.13 155.69 183.69 157.67 190.91 C 157.46 192.15 156.26 193.34 155.05 193.65 C 150.01 191.30 145.75 187.37 140.25 186.05 C 136.57 182.75 131.84 181.04 127.92 178.10 C 124.20 176.22 120.07 174.40 117.86 170.64 C 123.67 170.97 128.24 175.22 133.23 177.81 C 136.50 180.33 140.91 181.18 143.55 184.52 C 145.62 185.19 147.76 185.62 149.86 186.20 C 150.49 185.97 151.75 185.51 152.37 185.28 C 152.77 184.14 153.17 183.00 153.56 181.87 C 153.16 181.39 152.35 180.43 151.95 179.95 C 152.34 179.63 153.13 179.00 153.52 178.68 C 154.03 175.41 154.22 172.10 154.35 168.80 Z" />
</g>
</svg>
