<?xml version="1.0" encoding="UTF-8" ?>
<!DOCTYPE svg PUBLIC "-//W3C//DTD SVG 1.1//EN" "http://www.w3.org/Graphics/SVG/1.1/DTD/svg11.dtd">
<svg width="225pt" height="225pt" viewBox="0 0 225 225" version="1.1" xmlns="http://www.w3.org/2000/svg">
<g id="#ffffffff">
</g>
<g id="#000000ff">
<path fill="#000000" opacity="1.00" d=" M 105.06 16.12 C 106.28 14.67 107.53 13.25 108.85 11.88 C 111.83 11.90 114.84 11.68 117.79 12.17 C 120.11 12.60 121.62 14.56 123.28 16.06 C 126.06 15.81 129.25 14.22 131.77 16.11 C 133.73 17.85 133.17 20.73 133.44 23.07 C 133.68 25.56 133.05 28.00 131.96 30.23 C 132.57 32.92 133.26 35.61 133.96 38.28 C 135.90 35.22 137.32 31.45 140.80 29.80 C 143.79 27.80 147.38 27.65 150.85 27.64 C 152.50 26.27 153.68 24.42 155.41 23.13 C 159.75 22.14 164.67 24.35 167.02 28.11 C 168.26 31.35 166.39 34.61 164.83 37.38 C 166.44 38.94 168.55 40.27 169.29 42.49 C 170.79 46.62 168.74 50.86 167.81 54.88 C 170.88 53.58 174.43 53.21 176.99 50.91 C 179.96 48.63 183.25 46.02 187.08 45.76 C 191.30 46.32 191.62 51.01 192.31 54.30 C 196.61 54.35 198.49 58.44 200.44 61.61 C 202.03 64.32 201.31 67.57 200.47 70.39 C 202.74 72.19 206.72 74.25 205.11 77.79 C 203.54 84.16 197.42 87.15 192.17 90.04 C 195.40 92.09 199.18 93.46 201.84 96.29 C 202.45 97.98 202.29 100.01 203.49 101.45 C 207.03 102.37 211.72 102.76 213.20 106.77 C 214.87 111.43 211.52 115.65 209.72 119.70 C 207.81 123.21 202.85 121.62 200.30 124.24 C 197.25 127.18 194.58 130.48 191.82 133.68 C 196.87 134.25 200.99 137.35 204.94 140.28 C 207.07 142.90 204.52 145.92 203.53 148.45 C 200.96 154.75 197.99 160.87 194.88 166.91 C 193.62 169.59 190.10 170.21 189.05 173.04 C 187.96 175.51 186.11 178.68 182.90 177.96 C 177.97 176.72 174.90 172.33 170.67 169.86 C 169.65 173.50 169.72 177.42 167.98 180.86 C 166.16 184.04 168.91 187.49 168.12 190.85 C 166.82 194.60 164.80 198.54 160.99 200.24 C 158.97 201.13 156.62 202.54 154.42 201.46 C 151.68 200.20 150.23 197.34 148.64 194.94 C 146.33 196.13 143.37 196.92 141.08 195.22 C 138.69 193.48 135.61 192.43 133.89 189.93 C 132.43 186.21 135.80 183.13 137.03 179.90 C 137.43 177.40 135.05 175.93 133.51 174.41 C 129.66 171.20 126.22 167.48 122.17 164.50 C 122.11 165.35 121.99 167.05 121.92 167.90 C 125.13 170.49 129.40 171.83 131.85 175.28 C 133.92 179.77 132.62 184.79 131.38 189.31 C 133.68 196.09 132.99 204.51 127.16 209.31 C 124.75 211.22 122.00 209.18 119.74 208.13 C 118.26 209.78 117.30 212.29 114.87 212.69 C 110.28 213.43 104.55 213.57 101.52 209.35 C 98.77 210.99 94.69 211.08 93.09 207.84 C 92.02 203.22 92.33 198.29 93.90 193.81 C 91.02 187.62 92.06 180.29 95.33 174.47 C 96.62 171.99 99.37 171.09 101.56 169.64 C 102.36 168.07 102.15 166.19 102.45 164.49 C 99.90 164.07 98.47 166.35 96.78 167.75 C 94.26 170.23 91.40 172.37 89.13 175.09 C 88.26 178.93 93.26 182.11 90.94 185.95 C 88.44 190.31 85.06 194.82 80.00 196.27 C 77.65 196.96 75.64 195.53 73.93 194.14 C 72.30 196.53 70.74 198.98 68.80 201.14 C 64.32 201.68 60.06 199.71 56.84 196.71 C 56.23 193.18 57.44 189.79 58.70 186.55 C 56.62 184.17 54.65 181.24 55.01 177.91 C 55.57 174.21 57.10 170.75 58.48 167.30 C 55.98 168.19 53.31 168.67 50.96 169.91 C 47.08 172.90 42.90 175.93 38.06 177.06 C 34.81 176.48 33.98 172.80 33.80 170.02 C 33.79 167.40 30.65 168.17 28.94 167.86 C 25.40 163.88 22.70 158.47 24.01 153.03 C 21.52 151.06 17.53 149.00 18.62 145.15 C 19.71 138.84 25.74 135.74 30.73 132.80 C 28.23 131.05 25.04 130.05 23.19 127.52 C 22.74 125.76 22.59 123.94 22.21 122.17 C 18.67 122.23 14.13 122.40 12.29 118.65 C 10.17 112.76 13.01 106.27 17.32 102.14 C 19.05 101.57 21.01 101.53 22.54 100.45 C 24.21 98.49 24.82 95.72 26.93 94.12 C 28.81 92.77 30.85 91.69 32.80 90.46 C 28.14 89.82 24.00 87.38 20.41 84.46 C 19.01 83.09 19.11 80.88 19.83 79.20 C 22.20 72.74 25.05 66.45 28.43 60.45 C 29.91 57.67 32.56 55.88 34.72 53.70 C 36.58 51.17 37.08 46.45 41.02 46.44 C 46.00 47.51 51.22 49.93 53.51 54.79 C 53.87 54.27 54.57 53.24 54.93 52.72 C 54.47 47.98 56.91 43.81 58.64 39.60 C 54.81 32.47 61.65 23.59 68.99 22.66 C 73.34 22.15 75.45 26.49 77.18 29.67 C 78.57 28.67 80.05 27.36 81.92 27.92 C 85.90 29.10 89.38 31.61 92.31 34.52 C 91.43 38.29 89.69 41.77 88.04 45.25 C 89.74 47.26 91.68 49.05 93.71 50.72 C 92.96 46.34 92.35 41.79 93.60 37.44 C 94.41 35.00 93.10 32.59 92.96 30.15 C 92.42 25.19 93.55 19.77 96.92 15.97 C 99.13 13.47 102.47 15.44 105.06 16.12 M 110.11 15.14 C 109.93 17.55 109.69 19.97 109.54 22.39 C 106.28 20.63 102.96 18.99 99.68 17.28 C 99.77 20.45 99.39 23.67 100.04 26.79 C 102.59 28.81 105.89 29.56 108.43 31.58 C 110.34 33.02 109.52 35.61 109.61 37.62 C 106.42 36.36 103.31 34.89 100.12 33.63 C 99.96 36.29 99.16 39.07 100.11 41.68 C 102.92 44.62 108.50 45.00 109.71 49.28 C 109.66 55.84 110.02 62.44 109.33 68.97 C 100.72 61.41 92.11 53.81 83.82 45.92 C 84.18 42.10 87.55 39.22 88.88 35.64 C 86.72 33.58 83.96 32.39 81.35 31.00 C 80.15 32.74 78.95 34.48 77.72 36.20 C 74.94 33.45 74.16 29.23 71.08 26.76 C 68.35 24.84 65.69 28.09 63.31 29.17 C 65.37 33.29 68.06 37.04 70.23 41.09 C 67.60 41.95 64.80 41.60 62.08 41.67 C 62.16 44.34 61.97 47.02 62.22 49.68 C 65.87 52.19 70.84 49.60 74.86 51.01 C 75.97 52.62 76.17 54.62 76.64 56.47 C 78.58 66.09 80.92 75.64 82.24 85.37 C 76.34 82.08 70.43 78.79 64.66 75.28 C 63.13 74.50 63.89 72.40 63.63 71.03 C 63.42 67.84 64.23 64.35 62.84 61.37 C 60.45 59.50 57.61 58.32 54.83 57.15 C 54.14 61.08 54.61 65.09 54.04 69.04 C 52.63 68.37 51.00 67.92 50.08 66.54 C 48.51 62.52 50.29 58.07 49.20 54.00 C 47.43 51.39 43.99 50.71 41.18 49.69 C 41.02 53.48 40.64 57.26 40.31 61.04 C 38.44 60.13 36.55 59.24 34.66 58.36 C 32.77 60.84 30.43 63.14 29.67 66.26 C 31.54 67.46 33.39 68.67 35.21 69.94 C 31.77 72.02 28.32 74.09 24.84 76.11 C 27.72 77.46 30.41 79.17 33.31 80.46 C 37.25 79.57 40.17 76.25 44.12 75.33 C 45.85 75.29 47.09 76.53 48.00 77.84 C 44.92 79.83 41.46 81.22 38.63 83.59 C 41.48 85.46 44.45 88.31 48.09 87.92 C 51.41 86.34 54.39 83.83 58.13 83.27 C 60.50 83.81 62.53 85.24 64.65 86.36 C 68.94 88.85 73.52 90.95 77.27 94.26 C 68.88 96.96 60.64 100.15 52.08 102.34 C 49.04 103.01 46.06 104.97 42.92 104.56 C 40.95 100.97 39.15 96.94 35.85 94.34 C 33.27 93.83 30.92 95.99 28.66 97.03 C 29.61 99.69 30.93 102.19 31.82 104.86 C 27.53 105.17 23.22 104.81 18.93 105.11 C 17.42 106.81 18.42 109.39 18.09 111.46 C 19.00 111.97 19.77 112.96 20.93 112.82 C 24.85 112.97 28.78 112.84 32.70 112.85 C 31.46 115.27 30.07 117.61 28.74 119.99 C 31.25 121.54 33.90 122.86 36.56 124.15 C 38.96 120.80 41.11 117.28 43.22 113.74 C 46.29 114.31 49.19 115.51 52.12 116.53 C 60.21 119.40 68.55 121.48 76.68 124.20 C 71.76 127.54 66.68 130.63 61.43 133.44 C 59.92 134.28 57.94 134.84 56.36 133.84 C 53.20 131.95 50.11 129.93 46.82 128.28 C 43.78 129.77 40.73 131.23 37.81 132.95 C 41.45 135.36 45.34 137.37 49.00 139.77 C 47.49 140.79 46.10 142.68 44.04 142.29 C 39.72 141.36 36.61 137.19 32.06 136.96 C 28.95 136.50 26.85 139.23 24.76 141.05 C 28.15 143.52 31.77 145.65 35.40 147.76 C 33.70 148.66 31.92 149.43 30.34 150.56 C 30.05 153.86 32.14 157.37 34.92 159.12 C 36.87 158.36 38.61 157.16 40.46 156.18 C 40.58 160.27 40.52 164.37 40.51 168.46 C 43.53 166.87 46.52 165.24 49.45 163.50 C 49.76 159.26 49.65 154.99 50.00 150.76 C 50.96 149.53 52.55 149.18 53.92 148.61 C 54.25 152.52 53.50 156.58 54.81 160.35 C 57.49 159.00 60.35 157.79 62.49 155.64 C 63.64 151.68 61.99 147.19 63.38 143.36 C 69.00 138.81 75.81 135.96 82.15 132.55 C 79.28 144.33 76.87 156.21 74.08 168.00 C 70.46 168.08 66.82 167.75 63.22 168.24 C 61.10 170.24 62.47 173.65 62.16 176.24 C 64.21 176.61 66.27 176.82 68.33 177.11 C 66.82 181.19 63.52 184.42 62.70 188.79 C 64.94 189.93 67.20 192.89 69.86 191.96 C 72.56 188.43 74.23 184.19 77.05 180.72 C 78.58 182.85 79.99 185.06 81.45 187.24 C 83.80 186.03 86.14 184.81 88.46 183.57 C 86.56 179.89 84.67 176.20 82.78 172.52 C 91.39 164.84 99.69 156.78 108.56 149.42 C 109.52 155.97 108.74 162.65 109.02 169.26 C 106.16 171.37 102.62 172.53 100.17 175.20 C 98.81 178.31 99.69 181.88 99.55 185.19 C 102.54 183.68 105.55 182.21 108.54 180.69 C 108.42 182.42 108.74 184.28 107.99 185.91 C 106.15 188.81 101.98 189.02 100.20 191.96 C 98.21 194.83 98.88 198.59 100.01 201.66 C 102.57 199.73 105.40 198.14 108.57 197.46 C 109.20 199.50 108.30 202.30 110.11 203.76 C 112.28 203.98 114.59 204.14 116.70 203.46 C 118.68 201.44 117.32 198.08 118.81 195.76 C 122.16 197.40 125.24 199.52 128.52 201.30 C 128.67 198.36 129.26 195.37 128.71 192.45 C 125.91 188.86 120.92 187.98 117.74 184.74 C 118.00 183.18 118.34 181.63 118.77 180.10 C 122.09 181.82 125.32 183.69 128.60 185.50 C 128.92 182.46 129.23 179.41 129.10 176.34 C 126.31 174.14 123.08 172.62 120.05 170.80 C 118.94 170.30 118.28 169.15 118.33 167.95 C 118.39 161.27 118.42 154.59 118.36 147.91 C 120.47 149.36 122.52 150.91 124.32 152.73 C 131.02 159.38 138.42 165.29 145.06 171.98 C 144.36 175.81 141.40 178.86 140.11 182.54 C 142.38 184.20 144.78 185.69 147.27 186.99 C 148.70 185.22 150.08 183.43 151.50 181.66 C 153.58 185.22 155.69 188.75 157.99 192.17 C 160.66 192.17 163.16 191.26 165.30 189.69 C 164.54 185.07 161.20 181.49 158.99 177.50 C 161.40 177.34 163.80 176.99 166.11 176.26 C 165.97 173.84 165.73 171.43 165.43 169.03 C 162.13 168.48 158.77 168.71 155.47 168.32 C 153.76 167.97 153.64 165.97 153.17 164.62 C 151.16 154.46 148.42 144.45 146.78 134.22 C 151.46 136.45 155.86 139.20 160.41 141.66 C 162.05 142.70 163.98 143.47 165.19 145.04 C 165.85 148.80 164.36 152.99 166.53 156.42 C 167.90 159.16 171.02 159.97 173.69 160.87 C 173.75 157.13 173.85 153.39 174.07 149.65 C 175.37 150.45 176.81 151.09 177.90 152.19 C 180.15 154.64 178.15 158.14 178.85 161.04 C 178.88 165.66 183.97 167.22 187.24 169.14 C 187.62 165.31 187.37 161.46 187.54 157.63 C 189.53 158.69 191.49 159.82 193.53 160.80 C 195.59 158.68 196.84 155.99 198.28 153.46 C 196.64 151.69 194.65 150.32 192.70 148.92 C 196.23 146.82 199.81 144.79 203.28 142.59 C 200.08 140.92 196.94 139.11 193.92 137.14 C 190.33 138.80 187.13 141.16 183.59 142.90 C 181.68 143.91 180.14 142.00 178.90 140.87 C 182.18 138.63 185.59 136.61 188.95 134.52 C 186.70 132.99 184.64 131.08 182.08 130.07 C 176.85 129.38 173.13 134.26 168.24 135.23 C 162.20 132.08 156.43 128.42 150.55 124.98 C 162.18 121.15 173.81 117.31 185.47 113.58 C 187.60 117.10 189.80 120.58 191.92 124.11 C 194.51 122.53 197.39 121.15 199.04 118.47 C 198.11 116.79 197.17 115.12 196.25 113.43 C 200.83 112.81 205.53 113.34 210.04 112.24 C 209.66 110.05 211.17 105.95 207.92 105.58 C 203.78 105.13 199.61 105.16 195.46 104.95 C 196.64 103.05 198.24 101.33 198.82 99.12 C 197.70 96.58 194.96 95.46 192.90 93.84 C 190.37 97.19 188.23 100.80 185.81 104.23 C 179.38 102.73 173.19 100.37 166.89 98.43 C 161.43 96.66 155.88 95.10 150.63 92.75 C 156.99 89.30 163.29 85.73 169.57 82.13 C 172.97 84.16 176.17 86.76 180.05 87.82 C 183.53 88.05 186.21 85.22 189.14 83.74 C 185.53 81.69 181.95 79.59 178.42 77.42 C 179.93 76.53 181.40 75.52 183.05 74.89 C 187.28 76.03 190.56 79.82 195.03 80.03 C 197.89 79.25 200.08 76.95 202.76 75.70 C 199.28 73.67 195.85 71.56 192.42 69.45 C 194.25 67.98 196.39 66.81 197.82 64.91 C 197.83 62.14 195.61 59.97 194.24 57.71 C 192.30 58.87 190.34 60.00 188.28 60.94 C 188.08 57.03 188.49 53.07 187.49 49.23 C 184.59 50.89 178.83 51.48 179.35 55.94 C 179.24 59.26 179.65 62.63 178.98 65.91 C 177.86 67.05 176.23 67.43 174.85 68.15 C 174.70 64.29 175.29 60.32 174.02 56.59 C 171.13 58.03 167.73 58.96 165.54 61.43 C 164.32 65.40 166.09 69.76 164.99 73.80 C 159.45 77.61 153.35 80.68 147.27 83.55 C 149.66 73.12 151.51 62.56 154.19 52.20 C 156.90 48.89 162.25 52.11 165.67 49.77 C 166.34 47.20 165.93 44.51 165.83 41.89 C 163.14 41.84 160.44 41.93 157.75 42.02 C 159.88 37.68 163.04 33.79 164.32 29.07 C 162.17 27.84 159.84 25.39 157.18 26.63 C 154.66 29.25 153.09 32.62 151.12 35.65 C 149.96 33.84 149.48 31.10 147.07 30.57 C 144.52 31.70 142.29 33.39 139.95 34.86 C 141.69 37.93 143.78 40.81 145.23 44.03 C 146.16 45.41 144.88 46.95 143.80 47.75 C 135.11 54.40 127.83 62.69 119.35 69.57 C 119.25 62.40 119.38 55.23 119.28 48.06 C 121.95 46.44 124.73 45.02 127.34 43.31 C 131.02 41.20 129.47 36.16 129.65 32.68 C 125.63 33.52 122.57 36.56 118.67 37.76 C 118.92 35.90 119.24 34.03 119.87 32.25 C 122.99 30.29 126.75 29.15 129.35 26.46 C 130.64 23.71 129.62 20.49 129.37 17.58 C 125.95 19.30 122.59 21.12 119.25 22.98 C 119.23 20.68 119.63 18.31 118.91 16.09 C 116.61 13.92 112.97 15.43 110.11 15.14 M 129.30 49.35 C 127.81 51.58 125.07 52.33 123.19 54.11 C 121.72 56.26 122.59 58.98 122.46 61.39 C 127.55 57.23 133.00 53.29 137.07 48.08 C 136.01 45.91 134.77 43.84 133.51 41.79 C 132.05 44.28 130.91 46.95 129.30 49.35 M 95.51 51.91 C 97.46 54.00 99.56 55.94 101.59 57.96 C 102.09 57.29 102.60 56.63 103.11 55.97 C 100.67 54.46 98.11 53.14 95.51 51.91 M 66.75 59.31 C 66.39 63.51 66.39 67.76 66.89 71.95 C 67.80 73.70 69.56 74.80 71.25 75.72 C 71.53 75.27 72.08 74.37 72.36 73.92 C 71.85 70.19 70.94 66.51 69.93 62.89 C 69.68 61.13 67.98 60.31 66.75 59.31 M 156.02 60.94 C 154.28 65.91 153.51 71.17 152.14 76.25 C 154.45 75.58 158.10 75.07 158.24 72.03 C 158.19 67.78 159.41 63.71 161.50 60.04 C 159.68 59.71 156.96 58.60 156.02 60.94 M 177.71 98.19 C 179.57 98.89 181.44 99.62 183.34 100.25 C 185.58 97.69 187.33 94.77 189.16 91.92 C 185.36 94.04 181.50 96.06 177.71 98.19 M 53.31 93.42 C 50.05 95.47 46.53 97.04 43.03 98.62 C 43.51 99.19 44.47 100.33 44.95 100.91 C 49.94 99.42 55.01 98.16 59.85 96.24 C 59.91 96.09 60.01 95.79 60.07 95.64 C 58.11 94.45 55.76 91.99 53.31 93.42 M 164.11 93.47 C 166.81 94.88 169.75 95.80 172.70 96.55 C 170.65 93.99 167.46 92.02 164.11 93.47 M 164.68 128.86 C 165.92 129.91 167.14 132.09 169.06 131.11 C 173.28 129.19 177.39 126.94 181.36 124.54 C 175.51 124.09 170.22 127.45 164.68 128.86 M 53.45 127.13 C 54.59 128.66 55.99 129.95 57.58 131.00 C 58.11 130.62 59.16 129.85 59.69 129.47 C 57.65 128.59 55.55 127.83 53.45 127.13 M 66.20 150.30 C 67.09 155.55 64.32 160.23 62.22 164.81 C 64.34 164.79 66.46 164.79 68.59 164.81 C 69.46 163.63 70.14 162.32 70.39 160.86 C 71.47 156.02 72.61 151.20 73.49 146.32 C 70.60 146.68 68.07 148.08 66.20 150.30 M 153.86 150.19 C 154.55 154.89 155.10 159.70 156.73 164.18 C 157.35 164.52 158.60 165.20 159.22 165.55 C 158.89 161.51 159.17 157.44 158.69 153.42 C 157.80 151.54 155.51 151.15 153.86 150.19 Z" />
<path fill="#000000" opacity="1.00" d=" M 86.31 60.23 C 93.92 66.81 101.79 73.19 108.89 80.31 C 110.10 86.98 108.84 94.06 109.01 100.89 C 104.34 98.25 99.65 95.67 94.96 93.09 C 93.33 92.27 92.00 90.83 91.75 88.98 C 89.36 79.52 87.85 69.86 86.31 60.23 M 93.89 80.04 C 93.53 85.52 95.90 91.82 101.92 92.93 C 102.27 91.03 103.38 88.85 101.81 87.21 C 99.45 84.53 96.53 82.42 93.89 80.04 Z" />
<path fill="#000000" opacity="1.00" d=" M 121.98 78.98 C 128.76 72.73 135.60 66.54 142.74 60.70 C 141.43 69.23 139.30 77.59 137.52 86.03 C 137.00 87.79 136.95 90.12 135.06 91.05 C 129.63 94.35 124.00 97.32 118.53 100.55 C 118.55 95.04 118.23 89.52 118.70 84.03 C 118.70 81.83 120.59 80.42 121.98 78.98 M 122.14 93.42 C 129.24 92.35 134.33 84.93 132.71 77.91 C 127.68 81.65 120.26 85.95 122.14 93.42 Z" />
<path fill="#000000" opacity="1.00" d=" M 122.77 109.07 C 128.47 105.60 134.21 102.17 140.08 98.98 C 146.37 100.41 152.40 102.86 158.61 104.63 C 162.84 106.02 167.19 107.09 171.26 108.94 C 162.39 111.96 153.50 114.89 144.60 117.82 C 142.32 118.57 139.64 119.23 137.46 117.79 C 132.68 114.69 127.62 112.06 122.77 109.07 M 133.53 111.38 C 135.84 112.88 138.22 114.64 141.07 114.85 C 143.64 114.88 145.84 113.35 148.08 112.33 C 143.76 110.14 137.41 106.63 133.53 111.38 Z" />
<path fill="#000000" opacity="1.00" d=" M 59.04 109.39 C 68.16 105.88 77.39 102.30 86.86 99.96 C 92.79 102.01 97.90 106.00 103.50 108.84 C 98.58 111.94 93.80 115.32 88.50 117.71 C 85.83 119.07 82.93 117.72 80.35 116.85 C 73.31 114.19 66.02 112.21 59.04 109.39 M 78.09 111.63 C 81.32 114.06 85.71 115.41 89.52 113.47 C 86.81 109.85 81.81 108.93 78.09 111.63 Z" />
<path fill="#000000" opacity="1.00" d=" M 92.96 126.21 C 98.31 122.92 103.75 119.79 109.15 116.60 C 108.97 123.32 109.44 130.06 108.93 136.76 C 106.68 139.58 103.70 141.71 101.07 144.17 C 96.15 148.36 91.57 152.97 86.40 156.87 C 88.42 146.63 90.05 136.25 92.96 126.21 M 94.40 135.50 C 93.83 139.37 92.96 143.19 91.91 146.96 C 95.22 144.36 98.88 141.95 101.34 138.46 C 103.19 135.85 102.79 132.53 101.79 129.69 C 98.78 130.64 95.16 132.04 94.40 135.50 Z" />
<path fill="#000000" opacity="1.00" d=" M 118.03 119.79 C 118.27 119.38 118.75 118.55 118.98 118.14 C 124.34 121.20 129.78 124.09 135.14 127.13 C 136.60 127.82 136.74 129.61 137.06 130.98 C 138.73 139.76 140.69 148.49 141.99 157.34 C 134.98 151.24 128.26 144.84 121.29 138.71 C 119.41 137.03 118.19 134.57 118.41 132.03 C 118.58 127.94 118.44 123.85 118.03 119.79 M 121.69 131.95 C 122.23 137.07 126.99 139.81 130.85 142.38 C 130.57 140.38 131.05 138.09 129.86 136.33 C 127.55 134.20 124.46 133.31 121.69 131.95 Z" />
</g>
</svg>
