<?xml version="1.0" encoding="UTF-8" ?>
<!DOCTYPE svg PUBLIC "-//W3C//DTD SVG 1.1//EN" "http://www.w3.org/Graphics/SVG/1.1/DTD/svg11.dtd">
<svg width="218pt" height="231pt" viewBox="0 0 218 231" version="1.1" xmlns="http://www.w3.org/2000/svg">
<g id="#ffffffff">
</g>
<g id="#010101ff">
<path fill="#010101" opacity="1.00" d=" M 108.16 0.00 L 109.57 0.00 C 115.05 0.44 119.81 5.35 119.34 10.98 C 119.36 15.88 115.37 19.76 110.83 20.95 C 114.81 30.85 119.42 40.47 123.63 50.27 C 136.75 40.67 149.82 31.00 162.79 21.20 C 161.15 37.43 159.30 53.66 157.92 69.92 C 168.36 68.69 178.80 67.44 189.27 66.51 C 188.55 62.73 188.62 58.34 191.61 55.50 C 195.78 50.67 204.16 51.19 207.75 56.43 C 211.62 61.55 209.44 69.98 203.30 72.20 C 199.10 74.24 194.33 72.48 191.14 69.45 C 184.89 78.18 178.47 86.77 172.19 95.47 C 187.51 101.96 202.78 108.57 218.00 115.30 L 218.00 115.60 C 216.54 115.75 215.16 116.26 213.83 116.84 C 200.25 123.04 186.58 129.07 172.97 135.22 C 179.31 143.84 185.67 152.44 191.96 161.09 C 194.52 158.28 198.06 156.00 202.05 156.75 C 209.07 157.26 213.55 165.89 209.99 171.95 C 207.11 178.05 198.06 179.34 193.44 174.52 C 190.29 171.71 189.95 167.19 190.77 163.30 C 179.90 162.31 169.07 160.92 158.21 159.91 C 160.33 176.48 161.95 193.12 164.11 209.69 C 150.55 199.90 136.99 190.11 123.41 180.35 C 119.09 190.17 114.87 200.03 110.41 209.79 C 114.15 210.86 118.06 212.96 119.22 216.98 C 121.86 223.22 116.75 230.47 110.18 231.00 L 108.55 231.00 C 103.17 230.33 98.51 225.52 98.95 219.96 C 99.08 214.89 103.33 211.03 108.03 209.92 C 103.63 200.24 99.35 190.50 95.09 180.76 C 81.83 190.70 68.45 200.49 55.19 210.43 C 57.02 193.60 58.67 176.76 60.37 159.92 C 49.80 161.10 39.23 162.37 28.64 163.35 C 29.73 167.61 29.01 172.57 25.32 175.36 C 19.87 180.16 10.10 177.12 8.62 169.93 C 6.83 163.88 11.67 157.07 17.99 156.86 C 21.41 156.45 24.44 158.35 26.91 160.49 C 32.86 152.25 38.89 144.06 44.89 135.86 C 29.88 129.55 15.08 122.76 0.00 116.65 L 0.00 116.35 C 1.60 115.93 3.12 115.27 4.64 114.62 C 18.47 108.35 32.34 102.20 46.17 95.94 C 39.80 87.29 33.44 78.63 27.09 69.96 C 24.22 71.95 20.67 73.62 17.12 72.49 C 10.98 71.24 7.37 63.78 10.10 58.17 C 12.50 52.11 20.98 49.86 25.99 54.09 C 29.94 56.92 30.94 62.30 29.32 66.71 C 39.39 67.73 49.47 68.77 59.53 69.97 C 57.61 53.97 55.93 37.94 53.90 21.95 C 67.22 31.73 80.74 41.23 94.05 51.04 C 98.30 41.04 102.96 31.20 107.04 21.13 C 103.06 19.57 99.01 16.68 98.66 12.03 C 97.58 6.12 102.33 0.57 108.16 0.00 M 106.19 3.24 C 101.54 4.90 99.46 11.34 102.79 15.19 C 106.06 20.01 114.40 18.85 116.19 13.28 C 118.90 7.41 112.11 0.69 106.19 3.24 M 108.86 23.83 C 101.67 40.61 94.11 57.23 86.92 74.00 C 87.53 75.04 88.70 75.56 89.61 76.30 C 96.06 80.73 102.24 85.54 108.80 89.80 C 116.16 84.24 123.58 78.76 130.94 73.19 C 123.39 56.82 116.48 40.16 108.86 23.83 M 57.02 27.31 C 58.80 41.59 60.22 55.91 62.10 70.17 C 69.62 70.99 77.13 71.91 84.68 72.45 C 87.40 66.06 90.17 59.68 93.08 53.37 C 81.12 44.61 69.04 36.00 57.02 27.31 M 124.76 52.51 C 127.47 59.30 130.62 65.91 133.55 72.60 C 140.82 71.50 148.20 71.23 155.45 69.94 C 156.70 55.51 158.25 41.10 159.81 26.70 C 148.02 35.15 136.55 44.04 124.76 52.51 M 16.42 55.32 C 11.01 57.49 10.34 65.81 15.34 68.82 C 20.57 72.74 28.86 67.41 27.25 61.01 C 26.63 56.16 20.76 53.11 16.42 55.32 M 196.34 55.37 C 191.31 57.24 189.77 64.54 193.85 68.14 C 197.92 72.48 205.99 69.91 206.91 64.07 C 208.27 58.26 201.77 53.01 196.34 55.37 M 133.02 75.23 C 132.01 84.07 131.02 92.98 130.50 101.84 C 138.70 106.12 147.58 109.15 155.98 113.09 C 166.63 98.40 177.47 83.84 188.02 69.08 C 169.72 71.38 151.36 73.21 133.02 75.23 M 29.97 69.35 C 40.82 84.17 51.75 98.94 62.57 113.79 C 70.70 110.05 78.84 106.33 87.02 102.70 C 86.50 93.48 85.12 84.31 83.88 75.16 C 65.91 73.29 47.93 71.40 29.97 69.35 M 86.79 77.22 C 87.66 85.65 88.83 94.05 89.72 102.48 C 94.00 102.86 98.29 103.23 102.56 103.80 C 104.29 99.94 105.86 96.01 107.62 92.17 C 100.68 87.19 93.67 82.29 86.79 77.22 M 110.04 91.93 C 111.95 95.82 113.56 99.85 115.53 103.71 C 119.60 102.92 123.77 102.79 127.85 102.05 C 128.60 93.62 129.56 85.21 130.25 76.77 C 123.55 81.87 116.79 86.89 110.04 91.93 M 108.84 94.85 C 107.31 98.65 105.66 102.39 104.03 106.15 C 99.95 105.78 95.89 105.20 91.80 104.92 C 94.25 108.16 96.56 111.51 99.18 114.62 C 96.90 118.15 94.27 121.44 91.97 124.96 C 96.04 124.23 100.15 123.81 104.26 123.42 C 105.91 127.13 107.52 130.87 109.40 134.47 C 110.93 130.71 112.56 126.99 114.16 123.26 C 118.19 123.78 122.26 123.94 126.29 124.50 C 124.08 121.07 121.43 117.95 119.07 114.63 C 121.34 111.21 123.93 108.01 126.19 104.57 C 122.15 105.12 118.08 105.45 114.05 106.11 C 112.34 102.34 110.67 98.56 108.84 94.85 M 6.39 116.54 C 19.71 122.36 33.07 128.07 46.40 133.88 C 50.80 127.40 55.85 121.36 60.02 114.73 C 55.77 109.20 51.81 103.46 47.56 97.93 C 33.92 104.31 20.07 110.25 6.39 116.54 M 157.99 114.91 C 162.57 120.92 166.98 127.06 171.44 133.16 C 184.88 127.26 198.20 121.12 211.64 115.22 C 198.06 109.14 184.34 103.40 170.73 97.41 C 166.52 103.27 162.22 109.06 157.99 114.91 M 129.25 104.25 C 126.81 107.74 124.28 111.16 121.86 114.65 C 124.42 117.95 126.95 121.28 129.35 124.71 C 137.02 121.30 144.63 117.76 152.29 114.34 C 144.77 110.64 136.89 107.70 129.25 104.25 M 65.42 115.24 C 73.25 118.50 81.02 121.93 88.86 125.19 C 91.37 121.76 93.84 118.30 96.31 114.85 C 93.81 111.41 91.25 108.02 88.71 104.61 C 80.94 108.13 73.13 111.58 65.42 115.24 M 130.79 126.91 C 131.49 136.19 132.77 145.44 134.00 154.66 C 152.07 156.41 170.10 158.53 188.16 160.38 C 177.24 145.51 166.20 130.72 155.45 115.72 C 147.16 119.28 138.90 122.97 130.79 126.91 M 62.28 116.56 C 51.59 131.30 40.77 145.96 30.08 160.71 C 48.31 158.52 66.58 156.54 84.85 154.66 C 85.84 145.77 86.63 136.86 87.49 127.96 C 86.89 126.67 85.23 126.49 84.11 125.83 C 76.81 122.80 69.58 119.60 62.28 116.56 M 90.14 127.25 C 89.03 135.70 88.55 144.21 87.50 152.67 C 94.38 147.56 101.24 142.42 108.08 137.25 C 106.24 133.51 104.68 129.64 102.80 125.92 C 98.55 126.14 94.37 126.91 90.14 127.25 M 115.59 125.72 C 113.89 129.64 112.15 133.54 110.60 137.53 C 117.47 142.35 124.28 147.25 131.09 152.16 C 130.15 143.78 129.20 135.38 128.03 127.03 C 123.92 126.33 119.74 126.13 115.59 125.72 M 108.63 139.81 C 101.56 145.42 94.21 150.66 87.03 156.13 C 94.60 172.69 101.59 189.53 109.35 206.01 C 116.51 189.04 124.17 172.29 131.45 155.38 C 124.79 150.73 118.22 145.95 111.62 141.22 C 110.74 140.52 109.67 140.17 108.63 139.81 M 63.11 159.53 C 60.97 174.63 60.13 189.91 58.12 205.04 C 70.21 196.35 82.02 187.26 94.07 178.52 C 90.86 171.58 88.06 164.43 84.63 157.60 C 77.55 157.56 70.29 159.23 63.11 159.53 M 124.41 177.99 C 136.60 186.75 148.70 195.65 160.99 204.27 C 159.12 189.36 157.56 174.42 155.73 159.51 C 148.39 158.93 141.08 157.97 133.76 157.22 C 130.35 164.00 127.69 171.14 124.41 177.99 M 198.48 159.63 C 194.39 160.83 191.85 165.67 193.42 169.69 C 194.48 172.82 197.72 174.98 201.00 174.86 C 205.72 174.84 209.72 169.62 208.25 165.08 C 207.21 161.04 202.50 158.21 198.48 159.63 M 15.29 160.34 C 12.81 161.52 10.99 164.15 10.98 166.93 C 10.57 171.29 14.70 175.41 19.06 175.01 C 23.89 175.05 27.75 169.60 26.15 165.06 C 24.99 160.61 19.37 158.03 15.29 160.34 M 106.36 213.35 C 100.85 215.44 100.02 223.84 105.08 226.90 C 109.63 230.33 117.19 226.77 117.08 220.98 C 117.84 215.42 111.33 210.99 106.36 213.35 Z" />
</g>
</svg>
