<?xml version="1.0" encoding="UTF-8" ?>
<!DOCTYPE svg PUBLIC "-//W3C//DTD SVG 1.1//EN" "http://www.w3.org/Graphics/SVG/1.1/DTD/svg11.dtd">
<svg width="225pt" height="225pt" viewBox="0 0 225 225" version="1.1" xmlns="http://www.w3.org/2000/svg">
<g id="#ffffffff">
</g>
<g id="#000000ff">
<path fill="#000000" opacity="1.00" d=" M 104.01 20.67 C 105.90 17.01 109.63 14.03 113.98 14.87 C 117.79 14.73 120.28 17.77 121.10 21.19 C 125.05 19.76 129.19 15.66 133.51 18.48 C 134.86 21.73 134.38 25.58 135.07 29.06 C 139.98 26.07 145.27 23.33 151.09 22.78 C 153.72 26.00 153.22 30.36 152.65 34.19 C 152.40 36.13 150.53 37.12 149.06 38.08 C 142.30 42.08 135.43 45.88 128.85 50.17 C 131.51 51.59 134.13 53.81 134.30 57.06 C 134.79 63.62 133.82 70.24 134.68 76.79 C 139.86 73.99 144.96 71.03 150.04 68.05 C 152.91 66.29 156.42 66.49 159.45 67.71 C 159.30 60.11 159.99 52.52 160.02 44.92 C 159.91 42.03 161.56 39.26 164.31 38.24 C 167.43 36.46 172.73 33.77 174.91 38.18 C 175.70 43.11 174.79 48.15 175.72 53.08 C 179.32 51.89 182.92 49.00 186.85 50.02 C 190.04 52.46 188.82 56.97 189.20 60.42 C 191.17 60.15 193.42 59.35 195.18 60.72 C 197.49 62.48 199.02 65.27 199.57 68.09 C 199.88 70.80 197.83 72.77 196.18 74.59 C 199.05 76.50 202.84 77.79 204.53 80.94 C 204.92 85.56 199.82 87.75 196.77 90.20 C 200.81 92.31 205.21 94.30 208.20 97.84 C 210.46 100.60 207.38 103.72 205.03 105.11 C 201.13 107.98 195.61 107.91 191.62 105.24 C 186.45 101.79 181.05 98.73 175.59 95.78 C 175.02 99.15 173.53 102.54 170.45 104.30 C 165.78 107.02 160.80 109.26 156.51 112.59 C 160.53 117.16 166.73 118.94 171.64 122.38 C 174.67 123.97 174.42 127.85 175.26 130.69 C 181.66 126.90 188.12 123.21 194.58 119.50 C 197.91 117.50 202.32 118.27 205.20 120.73 C 207.49 122.20 210.14 125.22 208.04 127.93 C 204.87 131.79 199.91 133.52 195.88 136.30 C 199.00 138.61 204.77 140.21 203.96 145.12 C 202.57 148.47 199.00 150.03 196.29 152.12 C 197.26 153.91 199.58 155.66 198.54 157.95 C 197.78 160.47 196.66 162.97 194.92 164.97 C 193.29 166.76 190.63 166.44 188.46 166.93 C 187.99 170.60 188.93 176.18 184.52 177.69 C 180.81 178.83 177.57 175.71 174.41 174.22 C 173.75 178.97 174.88 184.06 172.86 188.55 C 171.40 191.21 167.68 191.10 165.42 189.58 C 162.85 187.96 159.31 186.49 158.96 183.04 C 158.30 174.48 159.69 165.81 158.41 157.30 C 155.80 158.18 153.05 160.61 150.21 159.16 C 144.67 156.71 139.65 153.27 134.42 150.26 C 133.63 156.13 133.35 162.04 133.10 167.95 C 133.25 171.41 129.73 173.04 127.59 175.11 C 132.14 178.42 137.20 180.95 142.00 183.88 C 145.68 186.12 150.40 187.94 151.69 192.52 C 153.59 197.03 151.00 204.63 145.03 203.05 C 140.85 201.36 137.41 198.16 133.16 196.54 C 132.89 200.01 134.09 204.49 130.86 206.92 C 127.03 209.05 123.33 205.73 120.03 204.13 C 118.73 206.31 117.69 209.14 115.00 209.94 C 112.15 210.26 109.19 210.22 106.38 209.64 C 104.02 209.09 103.92 206.26 103.07 204.43 C 100.67 205.59 98.39 207.06 95.85 207.90 C 94.20 208.37 91.97 208.50 91.09 206.70 C 89.23 203.31 90.24 199.25 90.01 195.56 C 85.70 197.96 81.67 201.06 76.90 202.50 C 72.97 202.86 72.16 197.95 72.31 194.99 C 72.04 190.28 75.49 186.40 79.59 184.61 C 85.58 182.05 91.01 178.42 96.68 175.25 C 94.73 173.90 92.45 172.83 91.11 170.80 C 89.27 164.04 91.43 156.92 90.17 150.10 C 85.01 153.03 79.87 156.03 74.65 158.86 C 71.47 160.72 68.16 158.58 65.25 157.25 C 65.39 165.48 65.37 173.76 64.44 181.94 C 64.08 185.53 60.30 187.08 57.63 188.80 C 55.68 190.16 52.39 189.94 51.51 187.42 C 49.51 183.08 50.92 178.12 50.22 173.54 C 46.47 175.08 43.00 179.18 38.54 177.34 C 35.27 174.94 37.12 170.32 35.95 166.99 C 34.49 166.07 32.67 166.27 31.03 165.99 C 29.01 163.57 26.54 161.21 25.93 157.98 C 25.58 155.15 27.96 153.17 29.70 151.33 C 26.69 149.14 20.99 147.65 22.00 142.86 C 23.08 139.50 26.80 138.40 29.33 136.41 C 25.68 133.25 21.15 131.38 17.37 128.42 C 15.29 126.73 15.65 123.34 17.64 121.73 C 20.01 119.85 22.87 118.47 25.87 117.99 C 30.58 117.58 34.14 121.14 38.01 123.17 C 42.25 125.36 46.45 127.65 50.38 130.38 C 50.71 127.84 51.28 125.12 53.48 123.52 C 58.55 119.75 64.45 117.28 69.68 113.75 C 64.70 109.40 58.52 106.70 53.17 102.86 C 50.66 100.91 51.13 97.42 50.64 94.64 C 43.69 97.70 37.41 102.10 30.65 105.56 C 26.24 107.68 20.79 105.75 17.78 102.16 C 16.03 99.96 17.01 96.65 19.28 95.25 C 22.41 93.10 25.76 91.30 29.02 89.35 C 26.22 87.05 21.77 85.93 20.87 81.99 C 20.68 77.51 25.66 75.80 28.77 73.79 C 27.40 71.48 26.08 68.82 26.86 66.07 C 28.08 61.83 32.13 58.35 36.70 58.74 C 37.19 55.00 36.06 49.91 40.40 48.08 C 44.25 47.86 47.69 50.20 51.01 51.87 C 51.14 47.59 50.65 43.25 51.29 39.01 C 51.72 36.05 55.27 34.09 57.98 35.39 C 61.43 36.75 65.81 38.66 65.90 43.00 C 66.20 51.37 65.84 59.75 66.06 68.13 C 69.07 67.16 72.41 64.66 75.58 66.52 C 80.69 69.46 85.81 72.40 90.94 75.31 C 90.98 68.81 90.55 62.24 91.85 55.82 C 92.31 52.92 95.59 52.02 97.45 50.18 C 90.49 45.43 82.82 41.83 75.74 37.27 C 71.88 34.83 73.82 29.73 73.86 26.02 C 73.51 23.25 76.61 21.66 79.00 21.96 C 83.09 23.62 86.87 25.97 90.87 27.85 C 92.11 24.64 91.39 20.46 94.20 18.06 C 97.64 16.30 101.22 18.77 104.01 20.67 M 109.09 20.14 C 108.24 22.45 108.75 24.98 108.59 27.39 C 104.21 25.57 100.23 22.88 95.70 21.40 C 95.36 24.00 95.31 26.98 96.86 29.21 C 100.21 32.05 104.60 33.39 107.91 36.29 C 109.04 38.34 108.49 40.65 108.06 42.81 C 97.82 37.28 87.90 31.17 77.70 25.57 C 77.34 28.66 76.50 32.52 79.30 34.78 C 82.20 36.57 85.40 37.85 88.23 39.79 C 93.76 43.39 99.86 46.08 105.13 50.08 C 102.13 52.73 97.21 53.64 95.58 57.55 C 94.43 65.70 95.63 74.01 94.57 82.17 C 88.57 78.54 82.52 74.99 76.42 71.54 C 74.80 70.72 72.88 69.61 71.03 70.41 C 67.97 71.71 65.15 73.52 62.03 74.69 C 62.02 65.50 61.77 56.29 62.23 47.11 C 62.39 43.11 59.38 39.67 55.63 38.68 C 54.10 50.49 56.23 62.60 54.42 74.41 C 52.56 73.31 50.40 72.58 48.86 71.04 C 48.34 68.44 48.40 65.77 48.10 63.14 C 47.89 60.55 49.21 57.70 47.51 55.38 C 45.95 53.60 43.65 52.77 41.60 51.72 C 40.73 56.17 41.38 60.76 40.38 65.20 C 38.10 64.31 35.76 63.52 33.35 63.03 C 32.25 64.82 31.28 66.68 30.32 68.55 C 32.67 69.98 35.02 71.41 37.36 72.86 C 33.69 76.45 28.01 77.48 25.14 81.86 C 27.03 83.40 29.40 84.72 31.93 84.38 C 35.94 82.70 39.38 79.91 43.34 78.12 C 46.08 77.31 50.24 78.75 50.37 82.02 C 43.90 85.09 37.87 89.00 31.62 92.48 C 27.97 94.71 23.95 96.45 20.85 99.48 C 22.78 101.72 26.04 103.66 28.98 102.14 C 36.17 97.95 43.33 93.68 50.68 89.77 C 52.00 88.91 53.61 88.95 55.11 88.71 C 55.62 92.81 53.37 98.68 57.83 101.17 C 64.60 105.24 71.57 108.99 78.10 113.43 C 71.90 117.09 65.66 120.70 59.37 124.22 C 57.26 125.42 54.56 127.11 55.06 129.96 C 54.82 132.18 55.77 135.27 53.34 136.57 C 44.74 132.58 37.09 126.72 28.64 122.41 C 25.76 121.06 21.55 122.73 20.85 125.93 C 30.59 132.28 41.17 137.27 50.66 144.02 C 48.96 145.37 47.34 147.08 45.10 147.45 C 40.65 146.12 37.27 142.56 32.92 141.01 C 29.98 140.02 27.50 142.18 25.56 144.09 C 29.51 146.54 33.82 148.43 37.50 151.30 C 35.35 153.57 32.53 154.97 30.02 156.78 C 30.99 158.64 32.03 160.47 33.19 162.23 C 35.43 161.43 37.64 160.52 39.88 159.73 C 41.95 164.26 40.86 169.37 41.04 174.18 C 43.32 172.53 46.71 171.77 47.76 168.90 C 48.32 164.31 47.86 159.65 47.97 155.04 C 49.61 153.21 51.76 152.02 54.00 151.08 C 56.37 162.27 53.53 173.79 54.71 185.07 C 57.30 186.22 59.70 183.07 60.87 181.01 C 61.25 172.25 60.80 163.46 61.06 154.69 C 61.34 153.34 62.16 152.19 62.74 150.96 C 66.63 152.51 70.59 156.34 75.05 154.42 C 81.35 150.76 87.65 147.07 94.23 143.91 C 94.95 149.58 94.52 155.31 94.60 161.01 C 94.71 163.51 94.06 166.16 95.09 168.53 C 97.75 171.17 101.32 172.64 104.24 174.96 C 95.97 180.23 87.38 184.96 78.89 189.86 C 76.05 191.51 75.39 195.39 76.84 198.18 C 77.97 198.08 79.02 197.74 80.00 197.18 C 88.97 192.03 97.81 186.61 107.11 182.07 C 108.03 184.52 108.57 187.50 106.64 189.63 C 103.29 192.82 98.47 193.94 95.14 197.15 C 93.09 199.20 94.24 202.30 94.49 204.81 C 98.57 202.69 102.26 199.81 106.61 198.26 C 108.27 200.40 107.60 203.34 108.08 205.85 C 110.14 207.13 112.62 206.54 114.84 206.13 C 114.98 203.27 114.85 200.33 115.92 197.62 C 120.59 199.08 124.51 202.15 128.93 204.17 C 128.79 201.50 130.31 198.13 128.04 196.00 C 124.35 193.27 119.94 191.55 116.52 188.45 C 114.71 186.67 116.01 184.06 116.28 181.95 C 123.77 185.94 131.03 190.31 138.41 194.49 C 141.53 196.17 144.38 198.46 147.87 199.35 C 149.32 196.32 148.61 192.22 145.45 190.60 C 136.77 185.67 127.65 181.35 119.72 175.23 C 122.61 172.90 125.97 171.27 128.91 169.01 C 130.52 160.47 128.97 151.72 130.29 143.15 C 137.14 146.77 143.48 151.35 150.50 154.64 C 155.00 156.50 158.21 151.90 162.33 151.15 C 163.24 160.72 162.38 170.37 162.73 179.97 C 162.56 184.17 166.89 185.64 169.79 187.51 C 171.33 175.55 169.49 163.38 170.99 151.41 C 172.92 152.83 176.35 153.21 176.71 156.04 C 177.08 160.36 176.55 164.70 176.82 169.01 C 177.39 172.36 181.42 172.79 183.90 174.22 C 184.43 169.43 184.76 164.62 184.99 159.80 C 187.12 160.94 189.29 162.02 191.48 163.04 C 192.77 161.88 194.24 160.75 194.67 158.97 C 194.56 155.43 190.70 154.29 188.46 152.27 C 192.21 149.15 197.13 147.61 200.34 143.83 C 198.33 142.45 195.96 140.13 193.34 141.30 C 189.09 143.51 184.90 145.82 180.72 148.14 C 178.52 147.09 176.34 145.92 174.78 144.00 C 176.48 142.54 178.37 141.32 180.34 140.25 C 188.86 135.68 197.20 130.77 205.66 126.09 C 203.40 124.79 201.31 123.21 199.02 121.96 C 197.65 121.83 196.51 122.71 195.36 123.28 C 187.21 127.90 179.20 132.77 170.93 137.16 C 170.22 133.28 172.39 128.03 168.76 125.25 C 162.05 121.10 155.05 117.43 148.40 113.19 C 152.00 109.55 157.09 107.99 161.34 105.25 C 164.48 103.20 168.58 102.13 170.80 98.96 C 171.06 95.47 171.10 91.96 171.44 88.47 C 178.40 92.56 185.46 96.48 192.34 100.71 C 194.43 101.97 196.57 103.37 199.05 103.68 C 201.70 103.48 203.54 101.36 205.38 99.68 C 195.43 93.92 185.55 88.04 175.56 82.37 C 177.21 81.04 178.59 78.54 181.03 78.93 C 185.57 80.14 189.18 83.40 193.18 85.71 C 196.11 86.93 198.69 84.31 200.85 82.70 C 197.96 78.94 192.97 77.93 189.55 74.75 C 191.66 72.80 193.70 70.79 195.67 68.72 C 194.91 67.07 194.34 65.27 193.03 63.95 C 190.39 63.93 188.13 65.58 185.66 66.30 C 184.95 61.94 185.65 57.50 184.81 53.15 C 182.95 53.63 180.88 53.98 179.64 55.60 C 176.60 59.02 178.37 64.01 177.81 68.14 C 178.01 71.36 175.29 74.55 171.93 74.18 C 170.69 73.12 171.04 71.43 170.97 70.00 C 171.05 59.66 172.65 49.20 170.82 38.95 C 168.02 40.65 163.65 42.06 163.71 46.04 C 163.69 55.26 163.94 64.51 163.59 73.73 C 161.27 74.99 159.23 72.14 157.04 71.57 C 153.49 69.79 150.03 72.48 147.02 74.10 C 141.65 76.95 136.66 80.57 130.94 82.70 C 130.54 75.81 130.55 68.90 130.92 62.01 C 131.10 59.09 129.94 55.99 127.54 54.23 C 125.80 52.92 123.63 52.34 121.90 51.04 C 120.72 49.61 123.09 48.48 124.04 47.80 C 131.43 43.56 138.87 39.38 146.44 35.47 C 149.86 33.74 149.50 29.27 148.38 26.21 C 137.66 31.47 127.81 38.43 116.94 43.35 C 116.61 40.93 115.93 37.84 118.01 35.97 C 121.69 33.59 125.70 31.72 129.38 29.33 C 132.08 27.29 130.61 23.60 130.62 20.78 C 125.96 22.87 121.74 25.97 116.79 27.36 C 116.73 24.71 116.79 22.02 116.20 19.41 C 113.92 18.75 110.75 17.75 109.09 20.14 Z" />
<path fill="#000000" opacity="1.00" d=" M 109.99 55.89 C 114.16 52.95 118.30 57.54 122.01 59.19 C 122.50 60.72 123.07 62.26 123.00 63.90 C 123.03 71.96 123.01 80.02 122.82 88.08 C 122.39 93.44 116.29 95.44 112.04 97.07 C 108.57 95.85 105.52 93.72 102.60 91.54 C 102.64 82.00 102.25 72.46 102.46 62.92 C 102.29 58.75 107.29 57.90 109.99 55.89 M 111.44 59.48 C 108.88 60.70 105.52 62.61 106.04 65.96 C 106.20 72.68 106.09 79.40 106.20 86.12 C 106.03 89.41 108.89 92.12 111.95 92.75 C 114.68 92.25 117.81 90.67 118.68 87.86 C 119.05 81.25 118.60 74.62 118.93 68.01 C 118.92 65.85 119.56 63.11 117.39 61.72 C 115.71 60.52 113.66 58.37 111.44 59.48 Z" />
<path fill="#000000" opacity="1.00" d=" M 72.40 77.95 C 80.70 81.90 88.44 86.94 96.26 91.76 C 101.24 94.49 98.40 100.94 99.01 105.41 C 96.20 107.24 93.47 109.23 90.44 110.68 C 84.18 108.27 78.37 104.70 72.56 101.33 C 69.01 98.85 64.75 97.26 61.92 93.86 C 61.90 90.61 62.01 87.37 62.01 84.12 C 65.05 81.43 68.62 79.41 72.40 77.95 M 70.13 83.27 C 66.18 84.53 63.98 90.64 67.83 93.23 C 74.14 97.35 80.81 100.91 87.29 104.78 C 88.84 105.81 90.89 106.58 92.69 105.68 C 96.13 103.89 94.73 99.39 94.69 96.29 C 90.49 92.36 84.75 90.40 79.99 87.16 C 76.86 85.64 73.93 82.07 70.13 83.27 Z" />
<path fill="#000000" opacity="1.00" d=" M 151.45 79.73 C 155.10 77.47 158.46 81.04 161.48 82.72 C 164.90 84.59 164.06 88.85 163.90 92.09 C 163.07 96.12 159.09 98.15 155.75 99.84 C 149.79 102.76 144.32 106.56 138.38 109.49 C 135.82 110.89 133.11 109.31 130.90 108.04 C 129.08 107.02 126.82 105.51 127.38 103.07 C 127.64 99.13 126.11 93.64 130.55 91.47 C 137.53 87.59 144.50 83.67 151.45 79.73 M 151.36 84.40 C 145.50 87.44 139.69 90.57 134.00 93.91 C 132.16 94.88 130.81 96.70 131.14 98.86 C 130.98 101.95 133.17 106.73 136.94 105.71 C 142.40 103.47 147.23 99.95 152.59 97.49 C 155.58 95.85 160.11 94.20 159.69 90.01 C 160.21 85.89 154.95 82.05 151.36 84.40 Z" />
<path fill="#000000" opacity="1.00" d=" M 104.64 100.47 C 107.15 101.69 109.39 103.57 112.15 104.19 C 115.33 104.01 117.80 101.63 120.78 100.71 C 121.23 103.47 120.84 106.31 121.42 109.04 C 123.09 111.69 126.43 112.63 128.67 114.73 C 126.44 116.63 122.77 117.52 122.22 120.80 C 122.04 123.36 122.21 125.93 122.10 128.50 C 118.96 127.44 116.42 124.97 113.16 124.29 C 110.69 124.92 108.76 126.75 106.38 127.61 C 102.85 126.16 106.58 121.22 103.93 119.01 C 101.61 117.26 98.99 115.96 96.77 114.07 C 98.94 112.48 101.58 111.49 103.43 109.51 C 105.57 106.96 104.52 103.48 104.64 100.47 M 108.67 108.41 C 107.56 110.22 106.43 112.01 105.27 113.80 C 106.67 116.14 108.01 118.53 109.34 120.92 C 112.02 120.83 114.69 120.71 117.37 120.64 C 118.27 118.77 119.46 117.02 120.05 115.01 C 119.06 112.49 117.07 110.44 116.74 107.63 C 114.06 107.99 111.36 108.18 108.67 108.41 Z" />
<path fill="#000000" opacity="1.00" d=" M 69.05 126.84 C 75.33 123.38 81.20 118.94 88.01 116.58 C 92.06 117.94 95.69 120.39 99.04 123.01 C 99.09 125.91 99.53 128.87 98.96 131.74 C 97.93 132.84 96.60 133.57 95.31 134.30 C 89.75 137.31 84.69 141.16 79.04 144.01 C 76.68 145.09 74.63 147.11 71.97 147.36 C 68.99 146.65 66.46 144.76 63.89 143.18 C 60.46 141.55 61.88 137.13 61.74 134.09 C 61.79 130.01 66.29 128.81 69.05 126.84 M 74.98 127.86 C 72.33 129.62 69.20 130.69 66.85 132.86 C 65.41 135.05 64.92 138.76 67.42 140.42 C 69.35 141.59 71.78 143.62 74.10 142.21 C 81.02 138.26 87.98 134.39 94.85 130.35 C 94.85 128.62 94.86 126.90 94.89 125.17 C 92.37 123.68 89.97 121.58 86.98 121.22 C 82.69 122.83 79.01 125.71 74.98 127.86 Z" />
<path fill="#000000" opacity="1.00" d=" M 136.52 117.34 C 137.74 116.31 139.39 116.08 140.64 117.21 C 147.53 121.35 154.56 125.28 161.26 129.72 C 163.76 131.31 162.92 134.59 163.07 137.06 C 163.20 139.49 162.87 142.59 160.09 143.36 C 157.27 144.52 154.96 148.25 151.57 146.66 C 144.89 143.52 138.84 139.19 132.30 135.78 C 127.91 133.74 127.64 128.11 128.10 123.94 C 129.09 120.04 133.82 119.66 136.52 117.34 M 136.53 121.57 C 134.88 122.52 133.33 123.73 132.16 125.24 C 130.96 128.13 132.78 131.27 135.28 132.75 C 139.88 135.51 144.65 137.98 149.20 140.83 C 151.16 142.08 153.61 143.27 155.82 141.83 C 159.89 140.34 160.41 133.31 156.37 131.53 C 150.93 128.40 145.69 124.93 140.25 121.82 C 139.16 121.09 137.68 120.87 136.53 121.57 Z" />
<path fill="#000000" opacity="1.00" d=" M 108.62 132.44 C 112.69 129.61 117.63 132.25 121.01 134.92 C 122.46 135.77 122.17 137.61 122.32 139.03 C 122.39 146.68 122.32 154.32 122.43 161.96 C 121.96 167.26 115.93 168.41 112.07 170.52 C 108.34 169.34 105.18 166.95 101.98 164.80 C 101.92 156.85 102.10 148.90 101.93 140.96 C 101.35 136.72 105.75 134.54 108.62 132.44 M 111.57 135.50 C 108.58 136.30 105.99 138.83 105.56 141.95 C 105.34 145.64 105.77 149.32 105.60 153.01 C 105.68 156.22 104.52 159.80 106.53 162.66 C 109.19 166.54 116.00 166.99 117.79 162.06 C 118.08 155.37 118.22 148.66 118.47 141.96 C 118.76 138.36 115.23 134.65 111.57 135.50 Z" />
</g>
</svg>
