<?xml version="1.0" encoding="UTF-8" ?>
<!DOCTYPE svg PUBLIC "-//W3C//DTD SVG 1.1//EN" "http://www.w3.org/Graphics/SVG/1.1/DTD/svg11.dtd">
<svg width="214pt" height="235pt" viewBox="0 0 214 235" version="1.1" xmlns="http://www.w3.org/2000/svg">
<g id="#ffffffff">
</g>
<g id="#343434ff">
<path fill="#343434" opacity="1.00" d=" M 97.24 26.03 C 96.53 24.32 97.28 22.54 97.59 20.84 C 99.27 20.88 100.95 20.92 102.63 20.97 C 103.40 21.74 104.22 22.45 105.08 23.12 C 106.56 23.37 107.31 21.67 108.38 20.97 C 109.97 20.92 111.55 20.88 113.14 20.85 C 113.61 22.47 114.68 24.24 113.73 25.91 C 112.38 27.66 110.65 29.07 109.00 30.50 C 108.91 33.10 108.88 35.69 108.85 38.28 C 112.36 34.92 115.74 31.43 119.15 27.97 C 122.22 27.14 125.71 28.41 125.51 32.10 C 120.34 37.85 114.51 42.98 108.97 48.37 C 108.96 50.85 108.64 53.39 109.18 55.84 C 112.68 53.51 115.17 49.86 118.53 47.29 C 121.61 44.73 123.94 39.23 128.77 40.84 C 129.53 41.88 130.36 42.87 131.03 43.97 C 130.54 45.35 129.77 46.64 128.71 47.66 C 122.32 54.28 115.11 60.12 109.03 67.03 C 108.84 68.85 108.84 70.69 108.77 72.52 C 110.52 70.71 112.10 68.69 114.15 67.21 C 115.86 66.80 117.53 67.51 119.16 67.91 C 119.20 69.40 119.74 71.00 119.19 72.43 C 116.06 76.18 112.10 79.17 109.03 82.97 C 108.73 87.74 108.93 92.54 108.98 97.32 C 111.68 95.78 114.32 94.11 116.69 92.10 C 117.98 87.97 117.87 83.61 118.35 79.35 C 119.04 78.63 119.73 77.91 120.42 77.20 C 121.98 77.35 123.67 77.18 125.04 78.08 C 126.93 80.51 125.25 83.60 125.18 86.30 C 127.80 85.06 130.18 82.32 133.33 82.77 C 135.48 83.86 137.15 87.06 134.92 88.97 C 131.79 91.28 128.42 93.26 125.16 95.38 C 124.50 98.75 124.08 102.15 123.77 105.57 C 128.02 103.15 132.38 100.95 136.64 98.58 C 139.04 94.10 138.88 88.74 141.32 84.29 C 143.16 82.00 146.49 83.43 148.21 85.17 C 148.10 87.94 147.20 90.58 146.32 93.19 C 147.76 92.28 149.20 91.37 150.69 90.53 C 151.35 88.53 152.00 86.53 152.71 84.55 C 153.49 81.14 154.18 77.70 155.37 74.40 C 156.80 70.32 157.09 65.87 159.10 62.00 C 159.95 60.15 162.38 60.61 163.98 60.95 C 164.97 61.90 165.38 63.24 166.00 64.42 C 163.78 71.29 162.11 78.30 160.22 85.25 C 162.47 83.55 165.52 82.87 167.39 80.72 C 169.14 73.74 171.18 66.83 173.07 59.88 C 175.63 58.44 179.30 58.40 180.25 61.75 C 179.34 65.32 178.71 68.97 177.32 72.40 C 177.07 73.15 176.59 74.66 176.35 75.41 C 178.53 74.80 180.47 73.58 182.29 72.27 C 184.22 70.34 184.29 67.41 185.16 64.96 C 187.11 64.93 189.05 64.92 191.00 64.90 C 192.31 67.25 191.79 69.67 190.83 72.03 C 192.75 72.61 195.45 72.32 196.32 74.61 C 198.11 76.84 195.72 80.53 192.99 80.30 C 190.97 80.12 189.10 79.20 187.19 78.56 C 185.57 80.06 181.50 80.12 181.94 83.01 C 186.23 83.94 190.51 84.97 194.73 86.22 C 197.04 88.48 195.66 93.48 191.98 92.87 C 184.94 91.35 178.02 89.24 171.03 87.47 C 168.66 88.77 166.36 90.18 164.09 91.65 C 171.47 93.46 178.87 95.13 186.20 97.12 C 186.73 98.59 187.66 100.18 187.00 101.77 C 186.13 102.81 184.95 103.49 183.73 104.02 C 179.96 103.36 176.24 102.43 172.60 101.27 C 168.33 100.29 164.01 99.53 159.96 97.80 C 157.09 96.99 152.64 95.97 150.88 99.02 C 151.52 100.86 154.10 100.02 155.56 100.73 C 157.61 100.87 157.98 103.15 158.63 104.68 C 157.97 105.74 157.31 106.79 156.65 107.84 C 151.16 108.05 146.23 105.33 140.90 104.73 C 136.47 107.07 132.03 109.43 127.70 111.98 C 128.98 112.53 130.24 113.10 131.49 113.71 C 133.32 114.48 135.09 115.42 137.00 116.02 C 141.41 114.15 145.59 111.24 150.53 111.00 C 151.29 111.79 152.07 112.58 152.85 113.37 C 152.86 113.93 152.90 115.05 152.91 115.60 C 152.17 116.35 151.44 117.11 150.71 117.87 C 148.92 118.60 147.14 119.38 145.42 120.26 C 146.18 120.60 147.71 121.30 148.47 121.64 C 150.51 122.28 151.92 123.87 153.19 125.49 C 152.48 126.69 151.83 127.95 150.87 128.98 C 149.39 129.56 147.79 129.00 146.28 128.96 C 143.32 126.96 139.84 125.99 136.70 124.33 C 134.45 125.47 132.18 126.61 129.76 127.35 C 129.18 127.64 128.04 128.21 127.47 128.50 C 131.96 130.88 136.32 133.52 140.84 135.86 C 145.86 134.47 150.97 133.47 156.01 132.15 C 157.85 133.61 158.37 135.71 158.20 137.99 C 155.98 139.71 153.28 140.44 150.53 140.76 C 151.95 141.95 153.45 143.04 154.99 144.07 C 157.73 142.97 160.53 141.98 163.44 141.41 C 169.45 139.71 175.58 138.45 181.56 136.60 C 183.63 135.57 186.18 137.11 187.11 138.98 C 187.89 141.06 186.12 142.56 184.89 143.94 C 182.34 144.11 179.84 144.66 177.41 145.44 C 173.20 146.96 168.60 147.20 164.57 149.25 C 166.76 150.52 169.01 151.70 171.21 152.97 C 177.80 151.08 184.43 149.36 191.10 147.75 C 192.90 146.99 194.33 148.38 195.74 149.26 C 195.59 150.79 195.44 152.33 195.24 153.86 C 190.58 156.32 185.15 156.14 180.34 158.18 C 182.21 159.12 183.96 160.36 185.94 161.09 C 189.25 161.15 192.55 160.52 195.88 160.76 C 196.24 161.85 196.61 162.93 196.99 164.02 C 196.60 164.94 196.22 165.86 195.85 166.79 C 194.18 167.38 192.52 168.02 190.85 168.59 C 191.36 170.25 191.86 171.90 192.29 173.58 C 190.53 176.17 187.61 176.50 184.96 175.09 C 184.40 172.92 184.10 170.67 183.35 168.55 C 181.29 166.84 178.80 165.83 176.37 164.78 C 177.67 170.06 181.55 175.74 178.95 181.12 C 176.88 181.35 173.42 182.06 172.92 179.21 C 171.02 172.69 169.07 166.17 167.53 159.55 C 165.16 157.97 162.66 156.59 160.17 155.20 C 162.22 162.15 164.38 169.09 165.68 176.23 C 165.47 176.92 165.05 178.31 164.84 179.01 C 163.29 179.30 161.29 180.38 160.00 178.92 C 156.80 175.18 157.08 169.88 155.24 165.51 C 153.78 160.19 152.89 154.68 150.59 149.63 C 149.09 148.96 147.61 148.25 146.13 147.57 C 147.40 150.18 148.33 152.97 148.12 155.92 C 145.82 156.93 143.32 157.49 141.03 156.12 C 139.47 151.51 138.39 146.76 137.02 142.10 C 132.40 139.97 128.25 136.98 123.76 134.62 C 124.15 137.93 124.58 141.24 125.25 144.50 C 127.92 147.46 131.66 149.16 134.99 151.25 C 137.29 153.75 135.29 157.55 132.13 157.74 C 129.48 157.16 127.42 155.22 125.15 153.86 C 125.64 156.22 126.09 158.60 126.19 161.02 C 124.79 162.11 123.35 163.15 121.88 164.15 C 120.63 163.05 119.44 161.88 118.26 160.71 C 118.07 156.96 117.94 153.20 117.52 149.48 C 115.56 146.33 111.60 145.27 109.03 142.70 C 113.00 143.18 116.73 145.78 119.00 149.07 C 118.93 152.49 119.40 155.90 119.43 159.32 C 120.01 160.22 120.59 161.11 121.17 162.01 C 121.88 161.94 123.29 161.81 124.00 161.74 C 124.21 158.97 124.17 156.19 124.22 153.42 C 125.26 153.49 126.30 153.57 127.34 153.66 C 129.00 154.77 130.81 155.64 132.65 156.42 C 133.22 155.77 134.36 154.47 134.93 153.82 C 131.88 151.02 128.41 148.68 124.76 146.74 C 122.70 142.71 122.71 138.12 123.24 133.72 C 128.69 134.56 132.69 139.08 137.89 140.77 C 139.19 144.84 140.57 148.91 141.46 153.10 C 141.77 154.61 143.29 155.35 144.36 156.28 C 145.25 155.54 146.11 154.77 146.94 153.97 C 146.40 151.71 145.69 149.49 145.35 147.18 C 147.67 146.92 150.41 147.20 151.85 149.28 C 154.47 154.21 154.78 159.91 156.74 165.07 C 158.37 169.80 158.19 175.55 162.41 178.99 C 163.31 177.82 164.37 176.58 164.00 174.97 C 163.68 170.55 161.53 166.52 160.75 162.19 C 160.35 159.95 159.70 157.77 158.97 155.62 C 162.36 153.21 165.72 156.98 168.75 158.32 C 169.15 161.83 170.19 165.20 171.40 168.51 C 172.26 171.97 173.24 175.40 174.24 178.82 C 174.76 179.27 175.79 180.17 176.31 180.63 C 177.17 179.77 178.02 178.90 178.86 178.02 C 178.07 174.37 177.04 170.78 175.71 167.29 C 175.12 166.07 174.95 163.36 176.96 163.60 C 180.00 164.13 182.51 166.15 184.92 167.96 C 185.18 169.97 185.60 171.96 186.12 173.92 C 186.96 174.08 188.64 174.41 189.49 174.57 C 190.11 172.22 190.24 169.78 190.26 167.36 C 191.82 166.77 193.36 166.15 194.92 165.57 C 194.92 164.38 194.92 163.18 194.91 161.99 C 191.11 162.11 187.27 162.71 183.50 161.94 C 182.48 161.05 181.43 160.20 180.35 159.39 C 180.34 158.79 180.32 157.60 180.32 157.01 C 183.88 155.09 187.98 154.80 191.85 153.86 C 193.96 152.96 196.02 150.08 192.84 149.05 C 185.41 150.07 178.35 153.04 170.92 154.09 C 168.81 153.36 166.76 152.36 164.93 151.09 C 163.61 150.31 163.35 147.71 165.08 147.30 C 171.18 145.62 177.29 143.92 183.48 142.60 C 184.05 142.24 185.18 141.51 185.75 141.14 C 185.44 140.14 186.09 138.33 184.54 138.13 C 181.50 137.45 178.64 138.87 175.80 139.68 C 169.41 141.24 162.99 142.77 156.75 144.85 C 154.36 145.83 152.28 143.81 150.21 142.94 C 150.13 142.20 149.97 140.72 149.89 139.98 C 152.25 138.89 155.11 138.61 156.96 136.62 C 157.33 135.35 156.21 133.98 154.91 133.99 C 149.84 134.29 145.10 137.10 140.01 136.93 C 136.65 135.46 133.59 133.43 130.31 131.82 C 129.27 131.14 128.21 130.49 127.15 129.85 C 127.14 129.14 127.12 127.72 127.11 127.01 C 130.43 125.68 133.62 123.98 137.05 122.92 C 139.68 123.83 142.06 125.34 144.68 126.27 C 146.43 127.56 149.49 129.24 150.88 126.54 C 151.31 123.67 147.09 123.02 145.27 121.51 C 145.17 120.59 145.09 119.67 145.00 118.76 C 146.99 117.98 149.12 117.24 150.60 115.61 C 151.92 114.40 149.99 113.05 149.38 112.06 C 144.88 113.48 140.89 116.80 136.13 117.15 C 132.84 115.94 128.85 114.97 126.83 111.85 C 127.68 109.66 130.14 109.07 131.96 107.93 C 134.53 106.62 136.87 104.86 139.49 103.65 C 144.60 102.77 149.14 105.95 154.10 106.46 C 155.78 107.06 157.91 104.86 156.62 103.31 C 154.84 101.43 152.03 101.37 149.69 100.70 C 149.67 99.54 149.79 98.39 149.89 97.24 C 153.45 95.34 157.58 95.59 161.32 96.77 C 167.38 98.86 173.69 100.07 179.84 101.82 C 181.66 102.41 183.56 102.21 185.42 101.97 C 185.46 101.22 185.53 99.72 185.57 98.97 C 178.57 96.14 171.06 94.80 163.74 93.01 C 163.74 91.85 163.82 90.70 163.93 89.55 C 167.20 88.81 169.89 85.20 173.44 86.59 C 175.18 87.14 176.94 87.68 178.70 88.21 C 183.90 89.01 188.76 91.66 194.15 91.00 C 194.30 89.74 194.83 87.54 192.97 87.28 C 188.76 85.89 184.46 84.74 180.11 83.86 C 180.11 82.77 180.12 81.68 180.13 80.59 C 182.37 79.49 184.60 78.38 186.82 77.26 C 189.08 77.95 191.35 78.59 193.65 79.12 C 194.46 78.09 195.27 77.05 196.08 76.02 C 194.17 74.48 191.84 73.70 189.78 72.43 C 189.73 70.28 189.99 68.13 190.01 65.98 C 188.73 66.30 186.41 65.33 186.08 67.22 C 185.39 68.70 185.17 70.32 184.90 71.92 C 182.27 74.56 178.89 76.99 174.96 75.84 C 176.04 70.94 178.67 66.28 178.29 61.15 C 177.04 59.26 174.15 59.96 173.83 62.17 C 172.38 67.75 170.87 73.31 169.30 78.86 C 168.77 83.59 163.22 85.75 159.04 85.76 C 159.47 83.34 160.19 80.99 160.61 78.57 C 161.23 73.36 164.49 68.65 163.95 63.26 C 163.35 62.16 161.48 61.21 160.68 62.62 C 157.69 66.89 158.07 72.48 155.93 77.15 C 153.85 82.65 154.61 90.56 148.51 93.50 C 147.52 93.43 146.52 93.36 145.53 93.29 C 145.60 91.09 146.06 88.94 146.84 86.87 C 146.45 85.50 144.89 84.86 144.01 83.84 C 142.90 85.14 141.42 86.33 141.22 88.15 C 140.42 91.86 139.21 95.46 138.13 99.09 C 134.49 101.56 130.50 103.43 126.81 105.80 C 125.69 106.72 124.26 106.31 122.97 106.23 C 122.98 102.29 122.52 98.15 124.17 94.45 C 127.39 91.63 131.57 90.05 134.48 86.89 C 134.45 82.99 130.09 84.33 128.34 86.20 C 127.13 87.63 125.51 86.66 124.07 86.25 C 124.12 83.93 124.32 81.61 124.04 79.30 C 122.76 78.28 121.47 78.27 120.17 79.28 C 118.40 83.63 119.92 88.61 117.88 92.89 C 115.76 94.92 113.11 96.27 110.77 98.01 C 110.02 98.03 108.54 98.08 107.80 98.11 C 107.64 92.55 107.36 86.96 108.01 81.43 C 109.16 80.44 110.28 79.41 111.32 78.30 C 113.56 76.11 115.64 73.77 117.75 71.46 C 119.33 70.10 116.76 68.84 116.13 67.78 C 113.57 69.61 111.36 72.06 108.31 73.10 C 107.77 70.92 107.60 68.68 107.52 66.45 C 110.47 63.38 113.78 60.61 116.31 57.16 C 117.06 56.68 117.82 56.21 118.57 55.73 C 121.51 51.91 125.62 49.20 128.62 45.47 C 130.11 43.66 127.09 41.08 125.50 42.52 C 120.64 46.97 116.03 51.69 111.37 56.35 C 110.22 56.97 108.86 56.72 107.62 56.86 C 107.90 53.74 107.07 50.39 108.15 47.42 C 111.93 43.11 116.21 39.28 120.39 35.37 C 122.03 34.31 123.34 32.79 123.88 30.87 C 123.20 29.72 121.94 29.28 120.77 28.84 C 117.30 31.45 114.63 34.87 111.64 37.98 C 110.50 38.31 109.36 38.62 108.21 38.92 C 107.62 36.04 107.27 32.98 107.93 30.08 C 109.19 27.93 111.35 26.51 112.90 24.57 C 113.52 22.39 110.64 21.91 109.09 21.90 C 108.20 22.81 107.31 23.72 106.43 24.64 C 104.50 24.44 102.80 23.57 101.56 22.08 C 100.87 22.06 99.48 22.01 98.79 21.99 C 96.46 25.40 100.96 27.21 102.75 29.38 C 102.88 32.66 104.12 36.90 101.61 39.50 C 101.55 36.52 102.10 33.44 101.47 30.50 C 100.17 28.90 98.47 27.68 97.24 26.03 Z" />
<path fill="#343434" opacity="1.00" d=" M 86.96 27.98 C 88.53 27.99 90.10 27.99 91.67 28.00 C 93.83 30.19 95.98 32.39 98.20 34.53 C 99.79 35.70 100.90 37.35 101.41 39.28 C 97.27 36.46 94.09 32.53 90.54 29.06 C 89.86 29.05 88.52 29.03 87.85 29.01 C 87.48 30.60 86.60 32.47 88.43 33.53 C 93.38 38.08 98.11 42.87 102.99 47.49 C 102.55 50.64 104.19 54.59 101.88 57.14 C 97.04 54.95 93.89 50.42 90.05 46.93 C 87.78 44.92 85.49 41.15 82.01 42.56 C 82.01 43.30 82.02 44.79 82.02 45.54 C 84.90 48.12 87.58 50.92 90.40 53.57 C 94.74 57.56 98.84 61.80 103.02 65.96 C 102.91 68.18 103.36 70.51 102.63 72.65 C 99.21 73.23 97.47 69.47 95.01 67.81 C 94.41 68.39 93.21 69.53 92.61 70.11 C 92.82 70.64 93.23 71.72 93.44 72.26 C 96.71 75.41 99.66 78.89 103.00 81.98 C 103.00 87.36 103.00 92.74 103.00 98.12 C 102.32 98.09 100.96 98.04 100.28 98.02 C 97.58 96.19 94.85 94.40 92.10 92.65 C 91.66 88.85 91.89 84.97 91.06 81.22 C 91.15 79.49 89.32 79.04 88.27 78.17 C 84.98 80.19 86.85 83.70 87.09 86.68 C 86.37 86.83 84.92 87.13 84.20 87.27 C 82.43 86.20 80.65 85.14 78.91 84.02 C 77.89 84.78 74.75 85.58 76.53 87.21 C 79.79 89.93 83.35 92.30 87.01 94.45 C 87.32 98.36 88.23 102.20 88.07 106.14 C 83.29 106.80 80.01 102.68 75.89 101.02 C 69.02 98.07 72.47 88.27 67.00 84.07 C 65.85 84.66 64.92 85.47 64.21 86.52 C 64.66 88.83 65.28 91.12 65.54 93.46 C 61.12 94.24 57.99 90.62 57.13 86.62 C 56.41 80.70 53.61 75.30 52.80 69.38 C 51.81 67.16 50.93 64.88 50.40 62.50 C 49.90 62.37 48.90 62.09 48.40 61.95 C 47.86 62.48 46.80 63.55 46.26 64.08 C 48.05 71.35 50.60 78.43 51.90 85.81 C 48.54 85.85 45.28 84.40 42.70 82.33 C 41.21 79.22 40.67 75.74 39.68 72.44 C 38.75 68.66 37.58 64.93 36.68 61.14 C 35.57 60.68 34.46 60.23 33.33 59.81 C 33.01 61.06 31.76 62.28 32.39 63.64 C 33.65 67.77 34.89 71.96 35.14 76.30 C 33.12 76.18 31.16 75.74 29.30 74.94 C 28.29 74.15 27.23 73.42 26.15 72.71 C 25.91 70.40 25.34 68.15 24.60 65.96 C 23.05 66.08 21.23 65.84 20.25 67.33 C 20.45 69.18 20.92 70.99 21.17 72.83 C 19.07 73.66 16.61 74.10 15.25 76.09 C 15.84 77.17 16.52 78.19 17.28 79.16 C 19.41 78.67 21.47 77.89 23.61 77.45 C 26.33 78.05 28.58 79.81 31.01 81.08 C 31.00 81.76 30.99 83.13 30.98 83.82 C 26.35 84.87 21.78 86.18 17.19 87.39 C 15.50 89.30 17.51 92.19 19.90 91.22 C 26.62 89.75 33.23 87.67 39.96 86.17 C 42.76 87.20 45.18 89.03 47.79 90.45 C 47.63 91.34 47.46 92.22 47.30 93.11 C 42.42 93.82 37.74 95.35 32.97 96.51 C 30.60 97.19 28.22 97.80 25.83 98.35 C 25.47 100.16 25.10 102.77 27.77 102.74 C 35.39 100.60 43.14 98.97 50.71 96.66 C 53.70 95.78 57.33 95.02 59.99 97.17 C 61.31 97.87 61.63 99.41 61.26 100.75 C 58.29 101.48 55.00 101.99 53.17 104.74 C 55.93 107.97 60.08 105.72 63.39 104.80 C 66.32 103.59 69.55 103.23 72.64 104.01 C 75.95 107.08 80.74 107.91 83.99 111.12 C 83.49 113.99 80.35 114.86 78.05 115.91 C 76.21 116.51 74.19 117.73 72.23 116.88 C 68.77 115.28 65.41 113.48 61.84 112.13 C 60.88 112.92 59.84 113.65 59.12 114.68 C 60.94 116.99 63.74 118.04 66.33 119.20 C 65.94 123.33 60.52 122.71 59.07 126.18 C 59.62 126.62 60.71 127.51 61.26 127.95 C 65.73 127.64 69.36 124.50 73.54 123.12 C 77.04 124.19 80.44 125.57 83.68 127.27 C 83.76 127.89 83.91 129.14 83.99 129.77 C 82.88 130.44 81.78 131.11 80.70 131.82 C 76.92 133.40 73.75 136.43 69.75 137.39 C 65.46 136.42 61.28 134.94 56.96 134.11 C 55.94 134.37 54.95 134.72 53.99 135.15 C 54.02 135.75 54.07 136.93 54.10 137.52 C 56.27 138.37 58.46 139.20 60.62 140.07 C 60.68 140.77 60.79 142.19 60.84 142.89 C 58.69 143.90 56.44 145.93 53.93 144.79 C 47.25 142.60 40.35 141.22 33.58 139.38 C 31.08 138.43 28.48 137.80 25.79 137.99 C 25.64 139.61 24.97 142.15 27.21 142.64 C 33.78 144.11 40.29 145.82 46.77 147.66 C 46.78 148.62 46.80 149.58 46.81 150.55 C 44.53 151.68 42.55 153.79 39.95 154.09 C 32.57 152.88 25.48 150.27 18.14 148.88 C 17.60 149.39 16.53 150.42 15.99 150.94 C 19.26 155.94 26.14 154.38 30.84 157.13 C 30.07 157.82 29.20 157.95 28.22 157.53 C 24.01 156.45 19.68 155.76 15.73 153.85 C 15.60 152.43 15.52 151.01 15.45 149.59 C 16.16 148.88 16.86 148.18 17.56 147.47 C 18.90 147.66 20.23 147.88 21.56 148.15 C 27.59 149.85 33.71 151.29 39.78 152.83 C 42.13 151.84 44.28 150.48 46.47 149.20 C 39.81 146.92 32.89 145.32 26.00 143.92 C 23.48 142.26 23.47 139.27 24.82 136.83 C 30.00 136.41 34.85 138.35 39.82 139.43 C 44.67 140.97 49.71 141.83 54.49 143.61 C 56.78 144.55 58.58 142.01 60.63 141.34 C 57.53 140.65 54.49 139.58 51.93 137.64 C 52.18 135.10 53.90 132.26 56.82 132.73 C 61.19 133.58 65.56 134.58 69.72 136.18 C 71.28 135.25 72.85 134.33 74.51 133.59 C 77.54 131.89 80.50 130.06 83.56 128.42 C 80.27 127.60 77.24 126.04 74.33 124.35 C 70.22 126.10 66.28 128.29 62.06 129.72 C 60.11 129.14 57.49 127.38 58.23 125.05 C 58.96 123.24 60.90 122.41 62.55 121.64 C 63.32 121.30 64.84 120.61 65.60 120.27 C 63.15 119.12 60.42 118.36 58.46 116.39 C 57.08 114.02 59.31 110.53 62.10 111.17 C 66.36 111.96 70.00 114.45 73.97 116.02 C 77.22 114.97 80.17 113.20 83.33 111.92 C 78.96 109.45 74.52 107.09 70.06 104.79 C 65.21 104.96 60.88 107.92 55.97 107.77 C 53.52 108.30 52.89 105.42 51.79 103.89 C 53.52 100.98 56.65 100.16 59.79 99.77 C 60.54 98.22 58.03 97.95 57.39 96.96 C 53.12 97.00 49.16 98.69 45.11 99.81 C 39.06 100.96 33.25 103.22 27.15 104.10 C 23.63 103.67 23.11 99.71 24.81 97.15 C 27.10 96.80 29.31 96.10 31.48 95.29 C 36.87 94.33 42.07 92.52 47.50 91.74 C 44.94 90.45 42.52 88.93 40.06 87.47 C 33.88 89.22 27.64 90.71 21.45 92.43 C 19.54 92.90 16.88 93.67 15.69 91.54 C 15.15 89.76 15.74 87.90 15.97 86.12 C 20.79 84.85 25.66 83.78 30.50 82.62 C 28.37 81.12 26.12 79.81 23.85 78.54 C 21.50 79.49 19.08 80.27 16.53 80.45 C 15.71 79.63 14.87 78.80 14.04 77.99 C 13.96 75.89 14.65 73.97 16.22 72.55 C 17.11 72.58 18.89 72.62 19.78 72.64 C 19.52 70.26 17.55 66.55 20.34 65.03 C 21.98 64.85 23.64 64.87 25.28 64.81 C 26.46 66.95 27.16 69.31 27.34 71.75 C 29.52 73.39 31.93 74.66 34.40 75.81 C 32.94 71.68 31.83 67.44 31.00 63.15 C 30.35 61.27 31.90 59.99 32.92 58.69 C 34.62 58.90 36.29 59.27 37.90 59.84 C 39.48 67.08 41.75 74.15 43.55 81.33 C 45.96 82.58 48.39 83.81 50.66 85.31 C 49.83 82.45 49.32 79.49 48.21 76.72 C 47.11 72.97 46.67 69.04 45.15 65.42 C 45.10 64.81 45.02 63.58 44.98 62.97 C 45.84 62.16 46.69 61.34 47.54 60.52 C 50.64 60.21 52.41 62.49 52.90 65.31 C 55.11 73.33 57.44 81.30 59.58 89.33 C 60.25 91.29 62.56 91.80 64.12 92.84 C 63.66 90.28 63.01 87.75 62.80 85.15 C 63.63 84.50 64.47 83.86 65.31 83.22 C 66.48 83.21 67.64 83.21 68.81 83.20 C 71.65 87.22 72.14 92.23 73.16 96.91 C 74.03 97.98 74.88 99.14 76.19 99.70 C 79.87 101.57 83.41 103.68 87.03 105.65 C 86.37 102.27 86.40 98.68 85.52 95.40 C 82.00 92.89 78.28 90.67 74.91 87.94 C 74.95 86.64 75.00 85.35 75.05 84.05 C 78.79 81.00 82.62 84.64 85.84 86.59 C 85.52 83.84 83.96 80.55 86.00 78.12 C 87.67 76.57 89.91 77.64 91.79 78.04 C 93.01 82.51 92.96 87.16 93.45 91.73 C 96.23 93.70 99.15 95.47 101.78 97.64 C 101.69 92.62 101.64 87.59 101.81 82.56 C 98.31 79.53 95.20 76.11 91.89 72.88 C 91.40 71.34 91.44 69.65 91.89 68.10 C 93.15 66.92 94.92 67.16 96.51 67.03 C 98.34 68.76 100.20 70.45 101.89 72.33 C 101.80 70.56 101.73 68.79 101.69 67.03 C 95.94 61.18 90.14 55.38 84.21 49.72 C 83.23 48.71 82.20 47.76 81.15 46.83 C 80.74 45.79 80.31 44.76 79.87 43.73 C 81.14 42.22 82.60 39.98 84.89 40.56 C 88.49 42.28 90.53 45.98 93.60 48.41 C 96.10 51.24 99.00 53.66 101.83 56.14 C 101.73 53.65 101.70 51.16 101.76 48.66 C 98.94 45.36 95.71 42.43 92.50 39.51 C 90.56 37.39 88.27 35.62 86.28 33.55 C 84.79 31.83 86.26 29.68 86.96 27.98 Z" />
<path fill="#343434" opacity="1.00" d=" M 100.37 107.05 C 106.12 105.63 112.73 106.80 116.88 111.23 C 119.71 115.56 121.32 121.36 118.75 126.20 C 117.10 131.68 111.31 134.29 106.08 135.05 C 102.15 135.12 98.06 133.52 95.20 130.82 C 92.57 127.52 90.37 123.30 91.05 118.96 C 92.00 115.35 93.88 112.08 96.25 109.23 C 97.65 108.55 99.03 107.84 100.37 107.05 M 99.50 109.08 C 95.16 110.90 93.97 115.80 91.98 119.60 C 91.98 122.93 93.85 125.77 95.27 128.65 C 98.53 131.73 103.37 135.21 107.99 133.15 C 110.86 132.11 113.96 131.09 115.99 128.66 C 117.51 126.03 118.43 123.04 118.90 120.04 C 118.38 117.51 117.27 115.16 116.25 112.80 C 115.33 112.00 114.42 111.18 113.54 110.34 C 109.36 107.73 104.01 106.59 99.50 109.08 Z" />
<path fill="#343434" opacity="1.00" d=" M 77.42 138.37 C 80.82 136.79 83.92 134.41 87.78 134.05 C 88.42 138.01 87.53 141.96 87.02 145.88 C 83.23 148.58 79.16 150.92 75.64 154.00 C 76.71 154.92 77.80 155.81 78.92 156.68 C 81.31 155.50 83.21 152.89 86.02 152.91 C 88.45 155.46 84.92 159.16 87.32 161.87 C 88.05 161.90 89.50 161.96 90.22 161.99 C 91.72 157.58 91.89 152.90 92.04 148.30 C 94.74 146.39 97.71 142.61 100.98 143.22 C 99.67 145.11 97.30 146.06 95.44 147.39 C 94.72 148.05 94.01 148.70 93.29 149.36 C 93.18 153.60 92.97 157.89 91.85 162.00 C 91.31 163.09 89.84 163.16 88.89 163.77 C 87.92 163.48 86.95 163.19 85.98 162.92 C 84.57 159.96 85.05 156.79 85.78 153.72 C 83.49 155.06 81.46 157.13 78.83 157.75 C 76.14 157.55 74.48 154.82 74.79 152.28 C 78.44 149.81 82.26 147.59 85.85 145.05 C 86.07 141.55 86.62 138.09 87.30 134.66 C 82.95 137.19 78.53 139.63 74.21 142.21 C 71.59 146.59 72.14 152.16 69.34 156.46 C 67.52 157.93 64.81 156.69 62.84 156.01 C 62.84 153.12 63.57 150.34 64.18 147.54 C 60.71 148.57 59.37 151.67 58.24 154.74 C 57.99 156.31 57.76 157.88 57.56 159.46 C 55.30 165.30 54.53 171.58 52.15 177.36 C 51.48 179.48 49.18 179.69 47.33 179.99 C 46.51 179.00 45.63 178.07 44.93 176.99 C 46.18 169.77 49.19 162.97 50.21 155.71 C 47.95 156.80 45.78 158.07 43.51 159.16 C 41.71 166.33 39.80 173.52 37.56 180.57 C 35.35 181.91 32.70 181.56 30.81 179.85 C 31.19 174.65 32.63 169.55 34.64 164.76 C 32.27 165.84 29.81 166.83 27.74 168.45 C 27.03 170.59 26.71 172.83 26.08 175.00 C 24.22 175.88 21.67 176.86 20.06 174.98 C 18.04 173.28 19.37 170.63 19.84 168.54 C 18.68 168.28 17.51 168.03 16.35 167.77 C 15.58 167.03 14.81 166.29 14.04 165.55 C 14.20 163.98 14.06 162.27 15.11 160.96 C 18.03 160.15 21.04 160.97 23.90 161.62 C 26.32 160.82 28.29 158.80 30.97 158.79 C 29.52 160.12 28.12 161.64 26.21 162.29 C 22.57 164.50 17.52 159.48 14.71 163.96 C 16.52 165.90 18.94 166.97 21.29 168.10 C 20.92 169.62 20.50 171.13 20.00 172.61 C 21.25 174.11 22.95 174.58 24.84 174.15 C 25.37 172.13 25.83 170.08 26.11 168.01 C 28.57 165.93 31.36 164.33 34.40 163.29 C 34.75 163.81 35.43 164.85 35.77 165.37 C 34.28 169.53 33.36 173.87 31.95 178.06 C 32.71 178.83 33.47 179.59 34.23 180.36 C 35.08 179.91 35.93 179.45 36.77 178.99 C 37.20 177.10 37.67 175.22 38.17 173.35 C 38.72 171.76 39.16 170.13 39.64 168.51 C 40.42 165.09 41.82 161.83 42.34 158.34 C 44.96 156.77 47.55 155.01 50.56 154.30 C 51.90 159.11 49.91 163.84 48.41 168.35 C 47.82 171.03 47.49 173.81 46.12 176.25 C 47.36 177.50 48.82 179.56 50.51 177.56 C 52.86 172.14 53.73 166.29 55.70 160.74 C 57.11 156.01 56.86 149.43 62.16 147.15 C 62.98 147.12 64.61 147.07 65.43 147.04 C 65.09 150.03 64.73 153.03 65.04 156.04 C 66.40 155.89 68.05 155.98 68.77 154.54 C 70.61 150.33 71.20 145.70 72.69 141.36 C 74.32 140.46 75.92 139.48 77.42 138.37 Z" />
<path fill="#343434" opacity="1.00" d=" M 102.20 143.23 L 102.68 143.11 C 103.46 148.23 102.78 153.64 103.00 158.88 C 102.59 159.23 101.78 159.93 101.37 160.28 C 98.48 163.30 95.47 166.21 92.56 169.21 C 93.08 170.21 93.62 171.22 94.16 172.22 C 97.78 171.83 99.05 166.98 103.02 167.69 C 102.97 169.97 103.19 172.28 102.82 174.55 C 96.26 181.70 88.80 188.01 82.03 194.94 C 81.23 197.48 84.41 199.01 86.19 197.21 C 90.98 192.69 95.60 187.86 100.21 183.10 C 101.13 183.48 102.06 183.85 103.00 184.21 C 103.00 187.14 103.00 190.07 103.00 193.00 C 102.59 193.33 101.77 193.99 101.36 194.32 C 96.75 199.55 91.01 203.67 86.62 209.11 C 87.81 209.87 89.20 212.10 90.80 210.80 C 94.28 208.04 97.05 204.51 100.41 201.60 C 101.27 201.69 102.14 201.78 103.00 201.87 C 103.00 204.87 102.99 207.88 103.03 210.89 C 101.64 212.12 100.21 213.29 98.70 214.37 C 98.73 215.71 98.78 217.05 98.85 218.40 C 100.97 218.46 102.69 217.26 104.27 216.00 C 104.90 216.00 106.16 215.99 106.79 215.99 C 107.94 216.87 109.09 217.73 110.24 218.61 C 111.79 217.80 113.50 216.95 112.99 214.89 C 110.97 213.68 109.02 212.15 107.84 210.08 C 107.45 207.89 107.67 205.64 107.61 203.42 C 107.91 202.90 108.50 201.85 108.79 201.33 C 113.80 202.72 116.00 208.22 120.30 210.84 C 121.94 211.92 123.12 209.98 124.30 209.15 C 119.97 203.70 114.23 199.60 109.58 194.44 C 106.56 192.07 107.90 187.94 107.66 184.67 C 108.14 184.21 109.10 183.30 109.58 182.84 C 115.30 187.36 120.12 192.88 125.61 197.64 C 127.35 198.91 128.53 197.13 129.24 195.71 C 123.14 188.49 115.71 182.59 109.23 175.75 C 106.87 173.78 107.63 170.43 107.87 167.77 C 110.67 166.44 112.63 169.91 114.52 171.44 C 116.02 173.12 117.76 170.97 118.83 169.94 C 115.53 165.61 110.60 162.61 107.77 157.97 C 107.54 153.34 107.54 148.68 107.77 144.06 C 108.07 143.61 108.66 142.71 108.96 142.26 C 109.02 147.49 108.67 152.73 109.03 157.96 C 112.52 161.43 116.35 164.61 119.44 168.46 C 119.61 169.63 119.51 170.86 118.96 171.93 C 117.93 173.64 115.68 172.84 114.04 173.17 C 112.21 172.15 111.44 168.86 109.22 169.12 C 108.65 170.53 108.73 172.11 109.12 173.56 C 112.70 177.49 116.87 180.84 120.46 184.78 C 121.45 185.71 122.43 186.65 123.38 187.63 C 126.37 190.10 129.13 192.85 131.28 196.10 C 129.93 197.50 128.76 199.30 126.92 200.09 C 125.39 199.95 124.41 198.53 123.17 197.77 C 118.58 192.93 113.49 188.55 108.92 183.67 C 108.90 186.44 108.90 189.21 108.92 191.99 C 114.14 197.20 120.00 201.78 124.81 207.40 C 126.71 209.52 123.74 211.10 122.56 212.62 C 121.48 212.40 120.37 212.30 119.34 211.91 C 115.33 209.09 112.12 205.33 108.96 201.62 C 108.91 204.35 108.89 207.09 108.93 209.82 C 110.78 211.15 112.45 212.71 114.11 214.27 C 114.06 215.81 114.01 217.35 113.91 218.90 C 112.19 219.22 110.46 219.47 108.72 219.61 C 107.64 218.60 106.71 217.22 105.17 216.89 C 104.16 217.72 103.25 218.65 102.35 219.59 C 100.44 219.65 98.58 219.26 96.90 218.31 C 96.94 216.87 96.97 215.43 97.00 213.99 C 98.72 212.76 100.32 211.37 101.55 209.65 C 101.91 207.12 101.69 204.54 101.77 202.00 C 98.38 205.27 95.42 209.00 91.76 211.98 C 89.51 213.22 85.32 212.29 85.97 208.95 C 85.52 206.94 87.25 205.79 88.53 204.63 C 92.71 200.46 97.15 196.55 101.37 192.43 C 102.22 189.90 101.49 186.97 101.66 184.32 C 95.86 189.32 91.11 195.52 84.87 200.00 C 82.42 200.28 81.12 197.70 79.80 196.09 C 82.03 192.34 85.30 189.38 88.54 186.53 C 92.43 182.99 95.75 178.83 99.93 175.61 C 102.00 173.69 101.83 170.86 101.85 168.28 C 100.13 169.91 98.38 171.52 96.64 173.14 C 94.63 173.17 91.63 173.26 91.61 170.49 C 90.73 167.03 94.37 165.34 96.47 163.40 C 97.25 162.20 98.24 161.17 99.46 160.41 C 100.22 159.48 100.98 158.55 101.74 157.62 C 102.02 152.84 101.05 147.88 102.20 143.23 Z" />
</g>
</svg>
