<?xml version="1.0" encoding="UTF-8" ?>
<!DOCTYPE svg PUBLIC "-//W3C//DTD SVG 1.1//EN" "http://www.w3.org/Graphics/SVG/1.1/DTD/svg11.dtd">
<svg width="211pt" height="239pt" viewBox="0 0 211 239" version="1.1" xmlns="http://www.w3.org/2000/svg">
<g id="#ffffffff">
</g>
<g id="#000000ff">
<path fill="#000000" opacity="1.00" d=" M 95.08 6.80 C 98.23 3.99 102.18 2.08 105.87 0.01 C 109.44 1.84 112.60 4.33 116.08 6.29 C 116.46 16.56 116.13 26.84 116.49 37.11 C 122.46 34.14 128.15 30.64 134.06 27.57 C 137.26 29.63 140.39 31.80 143.52 33.97 C 143.49 37.52 143.55 41.08 143.44 44.63 C 134.35 49.45 125.45 54.63 116.56 59.79 C 116.67 66.19 116.74 72.58 116.87 78.98 C 122.90 75.62 128.49 71.47 134.76 68.57 C 135.31 75.77 134.98 83.00 135.32 90.21 C 141.23 87.29 146.93 83.96 152.73 80.81 C 152.92 69.99 152.95 59.17 153.24 48.36 C 156.53 46.97 159.54 44.94 162.93 43.82 C 165.36 44.77 167.73 45.86 170.11 46.91 C 171.36 47.50 172.92 48.42 172.94 49.99 C 173.23 56.03 172.84 62.08 173.14 68.12 C 182.53 63.47 191.55 58.12 200.91 53.41 C 204.24 55.62 207.84 57.43 211.00 59.91 L 211.00 71.42 C 202.59 77.46 193.07 81.82 184.33 87.39 C 189.38 90.63 194.73 93.37 199.94 96.35 C 200.96 100.17 200.26 104.47 200.73 108.48 C 197.78 110.25 194.73 111.86 191.80 113.68 C 182.49 109.23 173.89 103.35 164.95 98.19 C 159.01 101.57 153.37 105.44 147.65 109.18 C 153.04 113.21 159.23 116.09 164.40 120.44 C 158.86 124.11 152.87 127.06 147.44 130.89 C 153.20 134.10 159.03 137.20 164.96 140.07 C 173.64 135.35 182.10 130.17 190.97 125.80 C 194.42 127.03 197.49 129.43 200.01 132.06 C 200.52 135.61 200.17 139.22 200.03 142.79 C 195.06 146.14 189.59 148.67 184.60 151.99 C 192.91 157.37 201.56 162.23 210.08 167.28 C 209.97 171.50 210.32 175.74 209.90 179.94 C 206.56 182.65 202.18 183.82 198.35 185.74 C 190.09 180.86 181.65 176.30 173.39 171.43 C 172.68 177.74 173.67 184.26 172.39 190.46 C 169.31 192.21 166.30 194.31 162.90 195.36 C 159.62 194.01 156.50 192.25 153.70 190.06 C 153.18 180.28 153.73 170.47 153.50 160.69 C 147.53 157.06 141.49 153.55 135.27 150.37 C 134.87 156.98 135.41 163.62 134.84 170.24 C 128.64 167.11 122.98 163.05 116.88 159.75 C 116.76 166.16 116.60 172.56 116.63 178.97 C 124.64 183.83 133.01 188.09 140.99 192.98 C 143.76 194.70 142.93 198.23 143.04 200.96 C 142.84 202.82 143.55 205.33 141.66 206.54 C 138.98 208.09 136.26 210.06 133.15 210.49 C 127.35 207.98 122.11 204.37 116.52 201.45 C 115.96 211.60 116.34 221.78 116.06 231.93 C 113.11 234.43 109.74 236.35 106.39 238.27 C 106.45 238.45 106.57 238.82 106.63 239.00 L 105.57 239.00 C 102.23 236.43 98.34 234.51 94.96 231.91 C 95.04 221.78 94.97 211.65 94.77 201.52 C 89.16 204.54 83.66 207.75 78.10 210.87 C 74.89 209.12 71.69 207.35 68.65 205.32 C 68.75 201.52 68.71 197.73 68.71 193.94 C 77.22 188.78 86.05 184.13 94.53 178.92 C 94.44 172.52 94.57 166.13 94.45 159.73 C 88.20 163.38 82.43 167.83 75.94 171.07 C 75.48 163.99 75.90 156.90 75.58 149.83 C 69.99 152.95 64.52 156.28 58.92 159.39 C 58.05 169.45 58.86 179.56 58.16 189.63 C 54.77 191.53 51.61 193.82 48.10 195.51 C 45.16 193.73 42.31 191.79 39.49 189.82 C 39.60 183.49 39.40 177.16 39.18 170.84 C 29.95 175.46 21.36 181.30 11.93 185.53 C 8.16 184.05 4.50 182.32 0.77 180.76 C 0.41 179.06 0.08 177.36 0.00 175.63 L 0.00 167.83 C 9.25 162.11 19.03 157.32 28.44 151.87 C 22.58 148.93 16.69 146.04 10.86 143.04 C 10.88 139.13 10.70 135.22 11.00 131.32 C 14.47 129.14 18.02 127.07 21.83 125.53 C 29.99 129.92 37.85 134.86 45.91 139.45 C 47.20 140.50 48.73 139.50 49.99 138.98 C 54.92 136.58 59.47 133.48 64.25 130.81 C 58.69 126.53 51.79 124.18 46.53 119.55 C 52.12 115.82 57.95 112.48 63.49 108.67 C 57.90 105.51 52.35 102.28 46.76 99.12 C 39.03 103.13 31.77 107.99 24.09 112.10 C 22.83 112.62 21.62 113.64 20.19 113.53 C 16.85 112.31 13.73 110.57 10.57 108.94 C 10.55 104.97 10.66 100.99 10.78 97.02 C 16.34 93.80 21.95 90.65 27.61 87.59 C 18.65 82.50 9.50 77.73 0.47 72.77 C 0.44 68.28 0.34 63.79 0.54 59.30 C 3.78 57.75 6.85 55.85 10.13 54.39 C 11.39 53.49 12.65 54.61 13.78 55.12 C 21.91 59.90 30.12 64.53 38.36 69.11 C 38.74 62.53 38.42 55.93 38.91 49.35 C 41.76 47.58 44.50 45.66 47.27 43.77 C 50.66 46.05 54.62 47.61 57.73 50.23 C 57.78 60.16 57.80 70.09 57.65 80.02 C 63.36 83.42 69.16 86.69 74.98 89.90 C 75.07 83.05 75.04 76.17 75.78 69.35 C 82.08 72.25 88.04 75.82 94.24 78.93 C 94.72 72.45 94.75 65.94 94.41 59.44 C 85.72 54.65 77.12 49.71 68.58 44.65 C 68.74 40.81 68.67 36.97 68.79 33.13 C 71.84 31.36 74.86 29.53 77.95 27.84 C 83.64 30.79 89.11 34.14 94.76 37.15 C 94.89 27.03 94.50 16.90 95.08 6.80 M 88.93 119.97 C 91.90 124.42 94.93 128.83 97.93 133.26 C 103.61 133.48 109.30 133.31 114.99 133.34 C 117.76 128.98 120.23 124.44 122.87 120.00 C 120.01 115.28 117.45 110.39 114.54 105.70 C 108.96 105.56 103.38 105.69 97.79 105.63 C 94.71 110.33 91.90 115.19 88.93 119.97 Z" />
</g>
</svg>
