<?xml version="1.0" encoding="UTF-8" ?>
<!DOCTYPE svg PUBLIC "-//W3C//DTD SVG 1.1//EN" "http://www.w3.org/Graphics/SVG/1.1/DTD/svg11.dtd">
<svg width="209pt" height="241pt" viewBox="0 0 209 241" version="1.1" xmlns="http://www.w3.org/2000/svg">
<g id="#ffffffff">
</g>
<g id="#000000ff">
<path fill="#000000" opacity="1.00" d=" M 104.36 0.00 L 104.66 0.00 C 106.89 6.29 109.97 12.24 112.64 18.35 C 110.77 23.56 107.53 28.27 106.58 33.80 C 110.07 30.81 112.86 27.00 116.83 24.58 C 117.54 25.83 119.40 26.95 118.54 28.59 C 115.17 32.92 110.72 36.27 107.20 40.47 C 106.50 47.72 107.20 55.06 106.86 62.34 C 107.90 61.30 108.94 60.27 109.98 59.24 C 110.10 53.61 109.62 47.95 110.21 42.35 C 111.15 40.48 113.75 40.54 114.67 42.38 C 115.15 46.41 114.68 50.49 114.97 54.53 C 118.35 50.14 119.37 44.53 121.59 39.55 C 127.85 37.17 134.12 34.80 140.36 32.36 C 137.88 38.58 135.47 44.82 133.07 51.07 C 128.06 53.26 122.66 54.62 117.98 57.53 C 121.97 58.03 126.01 57.59 130.00 57.98 C 132.38 58.45 132.09 62.44 129.65 62.49 C 124.40 62.86 119.13 62.28 113.89 62.69 C 111.19 64.33 109.26 67.03 106.93 69.16 C 106.98 83.18 106.81 97.21 107.02 111.22 C 110.18 105.86 113.23 100.44 116.41 95.09 C 114.83 89.66 113.57 84.14 111.86 78.75 C 112.94 77.47 114.43 76.82 116.05 76.50 C 117.71 80.71 118.60 85.17 119.97 89.48 C 121.96 84.30 121.59 78.64 122.39 73.24 C 127.76 69.17 133.31 65.35 138.66 61.25 C 137.95 67.97 137.26 74.69 136.47 81.40 C 132.16 84.71 127.21 87.30 123.65 91.47 C 127.48 90.85 131.14 89.45 134.97 88.80 C 136.64 88.17 138.15 90.49 137.40 91.89 C 137.16 93.54 135.13 93.39 133.96 93.97 C 129.50 95.17 125.03 96.33 120.57 97.51 C 117.40 102.97 114.23 108.43 111.15 113.94 C 123.28 106.75 135.57 99.83 147.75 92.72 C 148.54 89.76 149.33 86.80 150.10 83.83 C 147.54 79.10 144.59 74.59 142.15 69.80 C 140.92 67.79 144.07 65.36 145.78 67.02 C 148.21 70.22 149.80 73.97 152.05 77.30 C 152.69 71.82 150.85 66.45 150.30 61.03 C 154.49 55.80 158.80 50.67 162.90 45.38 C 163.66 52.09 165.45 58.75 165.79 65.46 C 162.54 69.94 158.48 73.83 155.83 78.74 C 159.68 76.95 163.11 74.34 167.01 72.66 C 169.18 72.18 170.71 75.45 168.89 76.72 C 164.43 79.86 159.47 82.23 154.80 85.04 C 154.43 86.46 154.07 87.88 153.71 89.30 C 160.01 85.70 166.26 82.00 172.56 78.41 C 174.05 72.95 175.44 67.48 176.99 62.04 C 177.49 61.85 178.49 61.46 178.99 61.27 C 179.57 61.49 180.73 61.92 181.30 62.14 C 181.19 66.70 179.30 70.93 178.54 75.37 C 182.78 71.86 185.12 66.72 188.75 62.67 C 195.34 61.44 202.11 61.22 208.77 60.34 C 204.70 65.68 200.89 71.21 196.82 76.55 C 191.46 77.36 185.81 76.96 180.72 79.06 C 184.38 80.22 188.19 80.88 191.79 82.24 C 193.49 82.78 192.97 84.90 193.36 86.22 C 187.03 87.18 181.09 83.63 174.94 82.62 C 168.66 86.24 162.37 89.84 156.13 93.50 C 157.50 93.88 158.86 94.27 160.23 94.67 C 165.23 91.99 169.92 88.75 175.08 86.40 C 177.32 86.11 178.44 89.14 176.84 90.53 C 173.65 92.86 169.93 94.38 166.85 96.88 C 172.33 96.93 177.69 95.60 183.09 94.78 C 188.26 99.10 193.56 103.26 198.79 107.50 C 192.14 108.43 185.51 109.55 178.87 110.54 C 174.50 107.29 170.70 103.21 165.79 100.76 C 167.29 104.37 169.72 107.49 171.26 111.07 C 172.36 113.12 168.99 115.50 167.51 113.57 C 164.09 109.16 162.31 103.61 158.72 99.37 C 155.76 98.41 152.51 96.84 149.42 97.43 C 137.46 104.18 125.57 111.10 113.72 118.04 C 119.51 118.04 125.32 118.15 131.11 118.03 C 132.47 118.23 133.34 117.03 134.25 116.27 C 137.90 112.68 141.25 108.76 145.29 105.59 C 146.28 106.68 148.46 107.72 147.49 109.51 C 145.05 112.74 141.77 115.23 139.21 118.38 C 144.70 117.38 149.47 114.29 154.65 112.38 C 160.70 115.19 166.80 117.89 172.96 120.46 C 166.74 123.15 160.58 125.97 154.34 128.62 C 149.35 126.52 144.59 123.63 139.21 122.62 C 141.75 125.76 145.04 128.23 147.45 131.47 C 148.46 133.06 146.68 134.66 145.21 135.02 C 140.04 131.99 137.00 126.34 132.07 123.06 C 125.92 122.72 119.76 123.05 113.60 122.92 C 124.82 129.52 136.16 135.91 147.38 142.52 C 150.85 145.23 155.22 142.66 158.86 141.58 C 162.43 137.05 164.26 131.36 167.98 126.93 C 169.54 126.30 171.14 127.37 171.55 128.92 C 170.30 133.00 167.33 136.29 165.81 140.27 C 170.68 137.74 174.52 133.72 178.88 130.45 C 185.52 131.45 192.14 132.57 198.79 133.50 C 193.57 137.75 188.25 141.89 183.09 146.22 C 177.69 145.40 172.34 144.06 166.85 144.12 C 170.10 146.86 174.30 148.22 177.44 151.08 C 177.95 152.78 177.10 154.73 175.11 154.59 C 169.92 152.27 165.24 149.00 160.23 146.34 C 158.87 146.73 157.50 147.11 156.13 147.49 C 162.38 151.16 168.67 154.75 174.94 158.38 C 181.09 157.36 187.04 153.81 193.36 154.79 C 192.96 156.11 193.49 158.25 191.77 158.77 C 188.13 160.13 184.28 160.79 180.60 161.99 C 185.78 163.95 191.41 163.66 196.82 164.45 C 200.89 169.79 204.71 175.32 208.77 180.66 C 202.11 179.97 195.47 179.18 188.81 178.58 C 185.37 174.28 182.75 169.26 178.54 165.63 C 179.31 170.08 181.20 174.31 181.30 178.88 C 180.71 179.08 179.53 179.50 178.94 179.71 C 178.46 179.52 177.48 179.15 176.99 178.96 C 175.44 173.52 174.05 168.04 172.56 162.59 C 166.25 159.00 160.00 155.30 153.70 151.69 C 154.06 153.11 154.43 154.54 154.81 155.97 C 159.48 158.77 164.44 161.13 168.89 164.28 C 170.71 165.58 169.17 168.88 166.97 168.32 C 163.23 166.71 159.95 164.22 156.22 162.58 C 158.40 167.24 162.27 170.76 165.30 174.84 C 166.30 175.73 165.77 177.07 165.67 178.18 C 164.72 183.99 163.75 189.79 162.90 195.62 C 158.78 190.34 154.50 185.19 150.30 179.98 C 150.88 174.53 152.64 169.15 152.10 163.63 C 149.82 166.97 148.23 170.74 145.79 173.97 C 144.15 175.32 142.10 173.94 141.79 172.10 C 143.98 166.82 147.75 162.35 149.92 157.08 C 149.50 154.08 148.50 151.20 147.74 148.28 C 135.57 141.17 123.28 134.24 111.14 127.07 C 114.24 132.57 117.41 138.03 120.58 143.50 C 125.75 144.94 131.02 146.06 136.11 147.76 C 138.67 148.32 137.58 153.05 134.95 152.20 C 131.12 151.55 127.47 150.14 123.63 149.52 C 127.21 153.68 132.14 156.29 136.46 159.58 C 137.27 166.30 137.94 173.02 138.66 179.75 C 133.31 175.66 127.76 171.83 122.40 167.76 C 121.62 162.35 121.93 156.71 119.98 151.53 C 118.58 155.81 117.73 160.26 116.05 164.46 C 114.55 164.10 112.30 163.96 112.19 161.94 C 113.30 156.53 115.04 151.26 116.41 145.91 C 113.18 140.50 110.12 134.99 106.88 129.59 C 106.99 143.67 106.89 157.76 106.94 171.84 C 109.22 173.99 111.20 176.54 113.80 178.33 C 119.30 178.75 124.85 178.03 130.34 178.62 C 132.20 179.52 132.07 182.43 130.04 183.02 C 126.04 183.42 122.01 183.00 118.01 183.37 C 122.58 186.48 128.08 187.69 133.07 189.93 C 135.47 196.18 137.88 202.42 140.36 208.64 C 134.12 206.20 127.86 203.82 121.59 201.45 C 119.36 196.48 118.36 190.86 114.98 186.49 C 114.68 190.55 115.16 194.66 114.65 198.71 C 113.66 200.45 111.12 200.49 110.21 198.64 C 109.51 193.10 110.32 187.49 109.86 181.94 C 109.06 180.66 107.91 179.67 106.90 178.57 C 106.98 185.88 106.86 193.19 106.98 200.51 C 110.72 204.30 114.66 207.91 118.18 211.92 C 119.77 213.44 118.00 216.00 116.07 215.89 C 112.39 213.62 109.88 209.94 106.62 207.15 C 107.49 212.60 110.58 217.30 112.64 222.33 C 110.18 228.64 106.89 234.60 104.64 241.00 L 104.34 241.00 C 102.12 234.61 98.85 228.66 96.35 222.38 C 98.42 217.34 101.42 212.61 102.42 207.19 C 99.07 209.91 96.60 213.67 92.88 215.92 C 90.94 215.89 89.27 213.45 90.83 211.89 C 94.36 207.92 98.27 204.30 102.01 200.53 C 102.15 193.21 102.02 185.89 102.10 178.57 C 101.09 179.67 99.94 180.66 99.14 181.94 C 98.68 187.50 99.50 193.12 98.78 198.66 C 97.85 200.50 95.34 200.44 94.35 198.71 C 93.83 194.66 94.32 190.54 94.03 186.47 C 90.64 190.86 89.63 196.48 87.40 201.46 C 81.14 203.82 74.88 206.20 68.64 208.64 C 71.12 202.42 73.52 196.17 75.93 189.93 C 80.94 187.77 86.27 186.33 90.99 183.56 C 87.02 182.89 82.98 183.43 78.99 183.02 C 76.60 182.52 76.93 178.54 79.36 178.52 C 84.78 178.22 90.22 178.57 95.64 178.36 C 97.73 176.14 99.90 173.99 102.07 171.85 C 101.97 157.83 102.30 143.80 101.88 129.79 C 98.86 135.21 95.73 140.56 92.59 145.91 C 93.96 151.26 95.70 156.53 96.81 161.94 C 96.70 163.98 94.43 164.11 92.91 164.43 C 91.29 160.27 90.43 155.89 89.06 151.65 C 86.96 156.75 87.43 162.40 86.61 167.76 C 81.24 171.83 75.69 175.65 70.34 179.75 C 71.05 173.04 71.74 166.32 72.52 159.62 C 76.83 156.29 81.78 153.69 85.37 149.52 C 81.54 150.13 77.89 151.54 74.07 152.20 C 71.45 153.02 70.31 148.41 72.84 147.77 C 77.95 146.06 83.24 144.94 88.43 143.50 C 91.61 138.04 94.78 132.57 97.86 127.06 C 85.72 134.26 73.41 141.17 61.24 148.30 C 60.48 151.22 59.48 154.10 59.08 157.10 C 61.27 162.36 65.01 166.83 67.20 172.09 C 66.92 173.92 64.85 175.34 63.22 173.98 C 60.77 170.75 59.18 166.97 56.90 163.63 C 56.37 169.14 58.11 174.53 58.70 179.97 C 54.54 185.18 50.21 190.25 46.20 195.58 C 44.97 189.03 44.18 182.40 42.89 175.85 C 46.18 171.43 50.36 167.60 52.76 162.57 C 49.03 164.23 45.75 166.73 42.01 168.34 C 39.84 168.84 38.30 165.59 40.10 164.29 C 44.55 161.14 49.52 158.78 54.20 155.96 C 54.57 154.54 54.93 153.12 55.29 151.70 C 48.99 155.30 42.75 159.00 36.44 162.58 C 34.95 168.03 33.56 173.51 32.01 178.95 C 31.51 179.15 30.52 179.53 30.02 179.73 C 29.44 179.51 28.28 179.08 27.70 178.86 C 27.80 174.30 29.69 170.07 30.46 165.62 C 26.25 169.27 23.63 174.30 20.16 178.59 C 13.51 179.17 6.88 179.98 0.23 180.66 C 4.28 175.31 8.12 169.81 12.16 164.46 C 17.52 163.61 23.18 164.07 28.26 161.93 C 24.60 160.77 20.79 160.11 17.20 158.76 C 15.51 158.21 16.04 156.10 15.64 154.79 C 21.96 153.80 27.90 157.38 34.06 158.38 C 40.34 154.76 46.62 151.14 52.89 147.50 C 51.51 147.12 50.14 146.73 48.77 146.34 C 43.78 148.99 39.09 152.22 33.95 154.58 C 31.88 154.78 31.01 152.74 31.59 151.00 C 34.78 148.25 38.89 146.82 42.15 144.12 C 36.66 144.07 31.31 145.39 25.92 146.22 C 20.75 141.90 15.43 137.75 10.20 133.50 C 16.86 132.57 23.48 131.45 30.13 130.46 C 34.49 133.72 38.32 137.77 43.23 140.24 C 41.62 136.33 38.81 133.03 37.44 129.03 C 37.76 127.26 40.15 125.77 41.51 127.46 C 44.68 131.96 47.05 136.97 49.90 141.68 C 52.91 142.49 55.92 143.29 58.94 144.03 C 71.03 136.97 83.22 130.07 95.29 122.96 C 89.01 123.14 82.63 122.48 76.42 123.27 C 71.99 127.08 68.39 131.78 63.77 135.39 C 62.74 134.42 60.48 133.17 61.55 131.49 C 63.95 128.23 67.25 125.76 69.81 122.63 C 64.31 123.59 59.54 126.71 54.36 128.62 C 48.31 125.78 42.15 123.17 36.05 120.46 C 42.38 118.06 48.34 114.66 54.77 112.58 C 59.84 114.33 64.42 117.48 69.79 118.38 C 67.25 115.23 63.95 112.77 61.55 109.52 C 60.50 107.84 62.72 106.59 63.72 105.60 C 68.39 109.19 71.98 113.92 76.43 117.74 C 82.65 118.51 89.00 117.87 95.28 118.04 C 83.23 110.91 71.03 104.04 58.95 96.97 C 55.92 97.84 52.58 98.09 49.84 99.71 C 46.71 104.11 44.72 109.22 41.49 113.56 C 40.15 115.46 36.58 113.16 37.72 111.10 C 39.27 107.50 41.74 104.37 43.18 100.72 C 38.32 103.26 34.48 107.28 30.12 110.54 C 23.48 109.55 16.86 108.43 10.21 107.50 C 15.44 103.25 20.75 99.10 25.92 94.78 C 31.31 95.58 36.66 96.98 42.15 96.87 C 38.87 94.19 34.79 92.71 31.55 89.99 C 31.07 88.25 31.87 86.23 33.94 86.41 C 39.09 88.76 43.78 92.00 48.77 94.67 C 50.14 94.26 51.51 93.87 52.89 93.50 C 46.62 89.86 40.35 86.23 34.07 82.62 C 27.91 83.61 21.97 87.21 15.63 86.21 C 16.03 84.89 15.51 82.76 17.23 82.23 C 20.68 80.94 24.31 80.20 27.89 79.32 C 27.67 79.05 27.25 78.51 27.03 78.24 C 22.10 77.48 17.12 77.09 12.16 76.55 C 8.11 71.20 4.29 65.68 0.24 60.34 C 6.91 61.04 13.59 61.78 20.27 62.46 C 23.63 66.79 26.29 71.74 30.46 75.37 C 29.66 70.80 27.71 66.44 27.67 61.73 C 29.10 61.67 30.53 61.65 31.96 61.69 C 33.45 67.27 34.93 72.85 36.45 78.42 C 42.76 82.00 48.99 85.71 55.29 89.30 C 54.93 87.87 54.56 86.45 54.19 85.03 C 49.52 82.22 44.56 79.86 40.11 76.72 C 38.29 75.40 39.81 72.22 41.99 72.66 C 45.74 74.28 49.04 76.77 52.78 78.42 C 50.60 73.77 46.76 70.26 43.73 66.20 C 42.70 65.30 43.22 63.94 43.33 62.81 C 44.28 57.00 45.25 51.20 46.10 45.37 C 50.20 50.67 54.51 55.80 58.70 61.03 C 58.11 66.47 56.36 71.85 56.90 77.37 C 59.18 74.03 60.76 70.26 63.21 67.04 C 64.80 65.64 67.02 67.09 67.18 68.97 C 65.00 74.22 61.24 78.66 59.07 83.91 C 59.51 86.91 60.49 89.80 61.26 92.72 C 73.44 99.84 85.73 106.75 97.86 113.94 C 94.77 108.42 91.61 102.95 88.42 97.50 C 83.25 96.07 77.98 94.94 72.89 93.25 C 70.36 92.68 71.36 88.08 73.98 88.79 C 77.83 89.44 81.51 90.85 85.37 91.48 C 81.78 87.31 76.84 84.71 72.53 81.40 C 71.73 74.69 71.06 67.97 70.34 61.25 C 75.69 65.35 81.24 69.17 86.61 73.24 C 87.39 78.63 87.06 84.27 89.01 89.44 C 90.41 85.15 91.30 80.70 92.95 76.49 C 94.55 76.85 96.05 77.47 97.13 78.74 C 95.43 84.14 94.15 89.65 92.59 95.09 C 95.75 100.44 98.85 105.82 101.92 111.22 C 102.25 98.14 101.99 85.05 102.08 71.96 C 102.44 67.66 97.94 65.24 95.19 62.67 C 89.70 62.24 84.16 62.98 78.68 62.38 C 76.78 61.53 76.93 58.51 78.97 57.99 C 82.94 57.57 86.95 58.00 90.94 57.64 C 86.41 54.48 80.90 53.33 75.93 51.07 C 73.52 44.83 71.12 38.57 68.64 32.36 C 74.88 34.79 81.14 37.17 87.40 39.54 C 89.64 44.50 90.61 50.12 94.02 54.47 C 94.32 50.41 93.83 46.32 94.35 42.28 C 95.34 40.60 97.78 40.50 98.75 42.27 C 99.53 47.81 98.66 53.45 99.14 59.02 C 99.87 60.34 101.10 61.31 102.10 62.43 C 102.01 55.11 102.15 47.79 102.01 40.47 C 98.26 36.68 94.32 33.07 90.81 29.07 C 89.02 27.46 91.61 24.08 93.56 25.47 C 96.87 27.84 99.29 31.21 102.42 33.81 C 101.65 28.19 97.77 23.60 96.61 18.16 C 98.88 11.98 102.24 6.25 104.36 0.00 Z" />
</g>
</svg>
