<?xml version="1.0" encoding="UTF-8" ?>
<!DOCTYPE svg PUBLIC "-//W3C//DTD SVG 1.1//EN" "http://www.w3.org/Graphics/SVG/1.1/DTD/svg11.dtd">
<svg width="214pt" height="235pt" viewBox="0 0 214 235" version="1.1" xmlns="http://www.w3.org/2000/svg">
<g id="#ffffffff">
</g>
<g id="#2b2b2bff">
<path fill="#2b2b2b" opacity="1.00" d=" M 96.75 0.00 L 116.82 0.00 C 120.23 5.75 123.46 11.61 126.92 17.32 C 123.84 22.98 120.53 28.51 117.31 34.09 C 120.37 39.35 123.43 44.61 126.41 49.92 C 129.63 49.96 132.85 49.97 136.07 50.00 C 135.32 48.72 134.56 47.45 133.81 46.17 C 136.18 42.09 138.52 37.99 140.95 33.94 C 145.53 33.96 150.11 33.94 154.69 34.00 C 156.69 37.48 158.83 40.89 160.74 44.42 C 161.15 45.26 161.83 46.20 161.12 47.09 C 159.21 50.88 156.88 54.44 154.83 58.14 C 153.36 58.14 151.90 58.14 150.44 58.14 C 152.04 60.98 153.68 63.80 155.35 66.61 C 161.38 66.48 167.42 66.57 173.45 66.52 C 176.64 61.00 179.82 55.47 183.04 49.96 C 189.72 50.05 196.40 49.78 203.08 50.05 C 206.81 55.44 209.86 61.32 213.04 67.04 C 212.29 70.16 210.08 72.73 208.62 75.56 C 206.69 78.57 205.38 82.05 202.98 84.73 C 196.69 85.07 190.38 84.79 184.09 84.80 C 181.14 90.04 177.91 95.13 175.13 100.47 C 176.27 103.45 178.16 106.08 179.70 108.87 C 180.46 107.60 181.23 106.33 182.00 105.07 C 186.59 105.09 191.19 105.07 195.78 105.11 C 197.92 109.28 200.96 113.07 202.51 117.50 C 200.54 121.60 198.03 125.43 195.72 129.34 C 191.11 129.25 186.50 129.28 181.89 129.27 C 181.17 128.08 180.45 126.89 179.74 125.71 C 178.12 128.42 176.53 131.14 174.94 133.86 C 178.06 139.17 181.00 144.57 184.22 149.82 C 190.54 149.66 196.87 149.82 203.19 149.69 C 206.59 155.43 210.08 161.14 213.16 167.06 C 210.25 173.11 206.54 178.77 203.24 184.62 C 196.51 184.50 189.78 184.59 183.05 184.57 C 179.89 179.07 176.61 173.64 173.57 168.07 C 167.48 167.98 161.39 168.07 155.31 168.00 C 153.65 170.72 152.08 173.47 150.53 176.25 C 151.91 176.24 153.29 176.24 154.67 176.23 C 157.10 180.20 159.36 184.26 161.73 188.26 C 159.49 192.34 157.16 196.36 154.80 200.37 C 150.15 200.44 145.50 200.43 140.85 200.39 C 138.44 196.39 136.11 192.33 133.82 188.26 C 134.57 187.03 135.32 185.80 136.07 184.58 C 132.99 184.58 129.91 184.40 126.84 184.68 C 123.06 189.48 120.65 195.21 117.34 200.35 C 120.46 205.94 123.71 211.47 126.93 217.01 C 123.62 222.79 120.30 228.58 116.93 234.34 C 110.06 234.27 103.19 234.42 96.32 234.23 C 93.27 228.38 89.77 222.78 86.55 217.03 C 89.57 211.39 93.31 206.11 95.94 200.27 C 93.12 194.89 89.98 189.68 86.82 184.50 C 83.71 184.57 80.59 184.65 77.48 184.36 C 78.23 185.71 79.17 187.08 79.27 188.67 C 77.43 192.76 74.82 196.46 72.65 200.40 C 67.98 200.43 63.31 200.44 58.64 200.38 C 56.34 196.33 53.96 192.32 51.74 188.22 C 54.05 184.61 55.95 180.75 58.26 177.14 C 59.27 175.59 61.48 176.51 62.97 176.10 C 61.20 173.53 60.12 170.34 57.90 168.17 C 51.97 167.79 46.01 168.16 40.07 168.00 C 36.56 173.36 34.04 179.51 30.04 184.44 C 23.45 184.65 16.82 184.75 10.24 184.37 C 6.46 178.96 3.90 172.78 0.00 167.46 L 0.00 166.22 L 0.48 166.05 C 4.10 160.87 6.86 155.14 10.16 149.76 C 16.57 149.74 22.97 149.74 29.38 149.76 C 32.42 144.46 35.49 139.18 38.52 133.87 C 36.95 131.14 35.39 128.40 33.77 125.69 C 33.10 126.85 32.44 128.01 31.79 129.18 C 27.12 129.22 22.41 129.56 17.76 129.10 C 15.15 125.34 12.79 121.32 10.90 117.15 C 12.93 112.96 15.47 109.04 17.84 105.03 C 22.41 105.11 26.99 105.06 31.57 105.13 C 32.30 106.38 33.04 107.63 33.78 108.87 C 35.37 106.12 36.95 103.37 38.52 100.61 C 35.55 95.40 32.48 90.24 29.56 85.00 C 23.14 84.83 16.72 84.95 10.30 84.90 C 6.73 79.21 3.81 73.13 0.00 67.60 L 0.00 66.25 L 0.50 66.07 C 4.22 61.04 6.87 55.31 10.14 49.97 C 16.95 49.96 23.76 49.91 30.57 50.01 C 33.69 55.59 36.83 61.16 40.19 66.61 C 46.21 66.47 52.23 66.57 58.26 66.53 C 59.80 63.76 61.40 61.01 63.04 58.30 C 61.62 58.26 60.21 58.16 58.80 57.99 C 56.05 54.28 54.14 50.03 51.72 46.11 C 54.28 42.18 56.07 37.73 59.06 34.11 C 63.54 33.86 68.10 33.67 72.56 34.26 C 75.10 38.02 77.46 41.97 79.36 46.09 C 78.95 47.46 78.20 48.71 77.59 50.00 C 80.69 49.95 83.80 49.95 86.90 49.99 C 89.93 44.68 93.33 39.56 95.96 34.05 C 93.25 28.38 89.50 23.26 86.76 17.61 C 89.62 11.52 93.33 5.80 96.75 0.00 M 88.56 17.62 C 91.82 23.09 94.96 28.64 98.16 34.15 C 94.60 39.90 91.52 45.93 87.86 51.62 C 83.49 51.42 79.09 51.90 74.76 51.20 C 75.72 49.50 76.70 47.81 77.69 46.14 C 75.60 42.82 73.90 39.26 71.69 36.02 C 67.88 35.18 63.79 35.92 59.87 35.63 C 57.84 39.13 55.53 42.49 53.88 46.18 C 55.55 49.78 57.83 53.07 59.75 56.54 C 61.69 56.56 63.62 56.61 65.56 56.73 C 63.77 60.72 61.39 64.41 59.18 68.18 C 52.47 68.14 45.76 68.14 39.04 68.18 C 35.60 62.75 32.91 56.82 29.13 51.63 C 23.16 51.45 17.17 51.61 11.20 51.59 C 8.18 56.85 5.16 62.10 2.06 67.30 C 5.08 72.60 8.17 77.85 11.20 83.13 C 17.62 83.41 24.11 82.78 30.48 83.43 C 33.52 88.17 36.09 93.20 39.04 98.01 C 39.46 99.04 40.65 100.08 40.09 101.27 C 38.67 104.10 36.91 106.75 35.38 109.52 C 34.81 110.18 34.58 111.47 33.52 111.45 C 32.39 110.08 31.55 108.51 30.64 107.00 C 26.57 107.01 22.49 106.96 18.42 107.08 C 16.71 110.54 14.46 113.70 12.84 117.20 C 14.38 120.80 16.75 123.98 18.44 127.51 C 22.53 127.80 26.63 127.71 30.73 127.60 C 31.63 125.93 32.57 124.27 33.55 122.64 C 36.40 125.98 38.13 130.08 40.46 133.78 C 37.39 139.68 33.71 145.25 30.68 151.18 C 24.23 151.47 17.76 151.29 11.30 151.29 C 8.19 156.54 5.18 161.86 2.09 167.13 C 5.15 172.40 8.14 177.72 11.27 182.95 C 17.37 182.84 23.47 182.99 29.56 182.85 C 32.64 177.25 35.84 171.72 39.14 166.25 C 45.48 166.35 51.83 166.20 58.17 166.30 C 59.53 166.09 59.94 167.68 60.56 168.53 C 62.21 171.68 64.37 174.59 65.47 178.00 C 63.54 178.25 61.25 177.52 59.52 178.40 C 57.46 181.62 55.72 185.05 53.69 188.29 C 55.78 191.78 57.55 195.49 59.96 198.77 C 63.72 198.91 67.48 198.90 71.23 198.78 C 73.93 195.79 75.47 191.78 77.60 188.33 C 76.61 186.63 75.67 184.90 74.86 183.10 C 79.22 182.76 83.59 182.94 87.95 182.90 C 91.42 188.74 94.80 194.64 98.16 200.55 C 94.90 206.00 91.60 211.44 88.67 217.07 C 91.39 222.43 94.71 227.47 97.54 232.78 C 103.61 232.91 109.67 232.76 115.74 232.88 C 118.92 227.67 121.84 222.30 124.99 217.07 C 121.87 211.58 118.52 206.20 115.57 200.62 C 118.30 194.59 122.04 188.99 125.35 183.25 C 129.64 182.44 134.15 183.08 138.53 182.96 C 137.84 184.78 136.88 186.46 136.04 188.21 C 137.44 191.99 140.04 195.26 141.88 198.85 C 145.82 198.82 149.75 198.83 153.69 198.83 C 155.73 195.35 157.72 191.83 159.81 188.38 C 157.77 184.94 155.79 181.46 153.75 178.02 C 151.78 178.03 149.81 178.02 147.85 177.89 C 149.66 173.86 152.08 170.14 154.28 166.32 C 159.83 166.24 165.38 166.31 170.93 166.25 C 172.17 166.48 174.04 165.72 174.83 167.05 C 178.07 172.26 180.90 177.72 184.13 182.94 C 190.09 182.79 196.07 183.06 202.04 182.83 C 205.56 178.09 207.95 172.46 211.32 167.55 C 208.75 161.92 205.19 156.81 202.28 151.35 C 195.88 151.27 189.49 151.35 183.09 151.31 C 179.65 145.55 176.33 139.72 172.97 133.91 C 175.10 130.15 177.27 126.41 179.47 122.69 C 180.91 124.14 181.93 125.93 182.96 127.68 C 186.89 127.68 190.82 127.66 194.74 127.71 C 196.82 124.24 198.80 120.72 200.86 117.24 C 198.82 113.85 196.90 110.39 194.85 107.00 C 190.84 107.00 186.84 107.00 182.83 107.00 C 181.86 108.62 180.88 110.22 179.87 111.81 C 177.06 108.42 175.27 104.36 172.94 100.65 C 176.37 94.82 179.68 88.91 183.15 83.10 C 189.48 83.02 195.82 83.28 202.14 83.00 C 205.40 77.93 208.52 72.67 211.20 67.27 C 208.43 61.89 205.21 56.75 202.15 51.53 C 196.15 51.70 190.13 51.36 184.14 51.69 C 180.76 57.00 177.69 62.52 174.70 68.07 C 167.86 68.23 161.01 68.17 154.16 68.10 C 152.07 64.31 149.81 60.61 147.76 56.80 C 149.75 56.61 151.74 56.53 153.73 56.53 C 155.77 53.08 157.76 49.60 159.80 46.15 C 157.71 42.79 155.94 39.24 153.75 35.94 C 149.91 35.38 145.95 35.66 142.07 35.78 C 139.67 38.94 137.89 42.58 135.98 46.05 C 136.73 47.92 137.78 49.65 138.64 51.47 C 134.18 51.61 129.72 51.66 125.27 51.42 C 122.13 45.54 118.57 39.90 115.40 34.04 C 118.56 28.46 121.85 22.96 124.97 17.36 C 121.84 12.18 118.88 6.91 115.84 1.69 C 109.89 1.78 103.94 1.54 98.00 1.78 C 94.29 6.60 91.61 12.31 88.56 17.62 Z" />
<path fill="#2b2b2b" opacity="1.00" d=" M 101.78 8.68 C 105.21 8.68 108.64 8.68 112.07 8.68 C 113.71 11.80 116.12 14.62 117.13 18.02 C 115.60 21.07 113.78 23.96 111.94 26.83 C 108.63 26.72 105.32 26.92 102.01 26.69 C 99.78 24.19 98.33 20.96 96.76 17.99 C 97.68 14.61 100.14 11.78 101.78 8.68 M 98.46 17.71 C 99.85 20.07 101.20 22.45 102.44 24.88 C 105.35 25.06 108.26 25.08 111.17 25.03 C 112.53 22.61 114.09 20.30 115.20 17.76 C 114.12 15.12 112.48 12.75 111.05 10.29 C 108.30 10.33 105.55 10.33 102.80 10.28 C 101.32 12.74 99.89 15.23 98.46 17.71 Z" />
<path fill="#2b2b2b" opacity="1.00" d=" M 98.12 50.22 C 101.08 45.38 103.41 39.98 106.93 35.58 C 110.45 39.95 112.71 45.39 115.72 50.19 C 116.42 53.59 115.82 57.23 116.00 60.72 C 113.15 65.52 110.20 70.28 107.77 75.31 C 105.91 75.82 105.50 73.59 104.64 72.44 C 102.53 68.52 100.09 64.79 98.07 60.82 C 97.80 57.31 97.77 53.73 98.12 50.22 M 106.69 38.33 C 104.64 42.75 101.74 46.72 99.69 51.15 C 99.32 54.07 99.40 57.04 99.64 59.97 C 101.78 64.43 104.57 68.56 106.90 72.93 C 109.26 68.62 112.07 64.53 114.08 60.03 C 114.34 57.04 114.37 54.01 114.06 51.02 C 111.89 46.64 109.42 42.38 106.69 38.33 Z" />
<path fill="#2b2b2b" opacity="1.00" d=" M 15.07 58.98 C 18.56 58.27 22.23 58.75 25.78 58.84 C 27.19 61.95 29.37 64.66 30.60 67.85 C 29.13 70.84 27.48 73.77 25.55 76.50 C 22.21 77.26 18.64 76.66 15.21 76.79 C 13.43 73.80 11.54 70.87 9.96 67.77 C 11.46 64.74 13.15 61.77 15.07 58.98 M 16.20 60.29 C 14.76 62.77 12.97 65.13 12.01 67.85 C 13.23 70.31 14.71 72.62 16.04 75.01 C 18.91 75.02 21.78 75.00 24.64 74.97 C 26.01 72.55 27.40 70.15 28.82 67.76 C 27.35 65.31 25.95 62.83 24.56 60.33 C 21.78 60.32 18.99 60.32 16.20 60.29 Z" />
<path fill="#2b2b2b" opacity="1.00" d=" M 188.17 58.80 C 191.73 58.61 195.30 58.61 198.86 58.81 C 200.51 61.77 202.20 64.71 203.98 67.58 C 202.28 70.67 200.51 73.72 198.71 76.75 C 195.25 76.86 191.78 76.85 188.32 76.77 C 186.50 73.74 184.67 70.71 183.07 67.56 C 184.87 64.70 186.56 61.77 188.17 58.80 M 189.23 60.41 C 187.86 62.90 186.42 65.36 185.00 67.82 C 186.48 70.17 187.83 72.60 189.23 75.00 C 192.09 75.02 194.95 75.01 197.81 74.98 C 199.21 72.57 200.58 70.14 202.01 67.74 C 200.63 65.37 199.38 62.91 197.81 60.64 C 195.09 59.86 192.06 60.48 189.23 60.41 Z" />
<path fill="#2b2b2b" opacity="1.00" d=" M 74.33 60.42 C 78.37 60.54 82.43 60.18 86.45 60.62 C 88.68 63.94 90.50 67.52 92.51 70.98 C 90.28 74.64 88.07 78.31 85.74 81.91 C 81.80 81.86 77.86 82.07 73.93 81.83 C 71.58 79.09 70.13 75.65 68.24 72.58 C 67.16 71.36 68.31 69.99 68.94 68.92 C 70.74 66.09 72.49 63.22 74.33 60.42 M 75.20 62.13 C 73.28 65.18 71.41 68.27 69.52 71.33 C 71.14 74.23 72.85 77.07 74.42 79.99 C 77.90 80.16 81.38 80.12 84.86 80.09 C 86.78 77.04 88.65 73.97 90.58 70.93 C 88.83 68.05 87.14 65.13 85.56 62.16 C 82.10 62.10 78.65 62.12 75.20 62.13 Z" />
<path fill="#2b2b2b" opacity="1.00" d=" M 127.44 60.44 C 131.48 60.43 135.53 60.42 139.57 60.45 C 141.76 64.01 144.11 67.46 146.14 71.11 C 144.63 74.96 142.12 78.35 140.11 81.95 C 136.12 81.90 132.13 81.90 128.14 81.94 C 125.90 78.30 123.38 74.81 121.48 70.98 C 123.15 67.30 125.43 63.93 127.44 60.44 M 128.35 62.16 C 126.71 65.13 124.97 68.04 123.25 70.96 C 125.19 73.99 127.07 77.06 129.00 80.11 C 132.33 80.06 135.67 80.24 138.99 80.03 C 141.19 77.50 142.71 74.27 144.14 71.22 C 142.50 68.08 140.47 65.17 138.66 62.14 C 135.22 62.10 131.78 62.10 128.35 62.16 Z" />
<path fill="#2b2b2b" opacity="1.00" d=" M 35.63 76.30 C 41.37 76.18 47.13 76.23 52.87 76.40 C 56.13 77.40 58.82 79.72 61.87 81.20 C 64.72 86.49 68.43 91.36 70.57 96.99 C 64.73 96.95 58.89 97.12 53.06 96.95 C 49.94 95.56 47.13 93.58 44.16 91.91 C 41.50 86.61 37.71 81.87 35.63 76.30 M 38.07 78.00 C 40.68 82.10 42.81 86.49 45.48 90.55 C 47.88 92.31 50.52 93.75 53.18 95.07 C 58.14 95.47 63.15 95.14 68.12 95.35 C 65.56 91.12 63.35 86.67 60.59 82.59 C 58.14 80.92 55.55 79.46 52.90 78.16 C 47.97 77.81 43.01 78.10 38.07 78.00 Z" />
<path fill="#2b2b2b" opacity="1.00" d=" M 152.04 81.13 C 155.10 79.68 157.77 77.33 161.04 76.39 C 166.57 76.34 172.14 75.98 177.65 76.40 L 178.16 76.98 C 175.51 81.99 172.62 86.90 169.61 91.71 C 166.92 93.77 163.90 95.39 160.89 96.93 C 155.01 97.13 149.11 96.95 143.23 96.99 C 145.52 91.38 149.08 86.40 152.04 81.13 M 153.01 82.90 C 150.43 86.93 148.15 91.17 145.77 95.32 C 150.54 95.18 155.31 95.36 160.08 95.17 C 163.06 94.11 165.82 92.34 168.39 90.51 C 171.02 86.45 173.20 82.11 175.76 78.00 C 170.84 78.08 165.90 77.83 160.99 78.14 C 158.27 79.59 155.38 80.93 153.01 82.90 Z" />
<path fill="#2b2b2b" opacity="1.00" d=" M 106.38 82.05 L 107.17 81.83 C 109.30 84.68 110.85 87.91 112.60 91.00 C 110.60 94.13 109.34 97.81 106.58 100.39 C 104.91 97.24 102.88 94.26 101.38 91.02 C 102.74 87.88 104.61 84.97 106.38 82.05 M 103.16 90.94 C 104.34 92.95 105.41 95.01 106.61 97.00 C 108.67 95.72 109.26 92.89 110.70 90.99 C 109.46 88.80 108.19 86.64 106.85 84.52 C 105.63 86.66 104.42 88.81 103.16 90.94 Z" />
<path fill="#2b2b2b" opacity="1.00" d=" M 75.44 99.68 C 79.14 99.35 82.87 99.52 86.58 99.44 C 88.51 102.59 90.40 105.77 92.02 109.09 C 88.32 109.38 84.60 109.28 80.89 109.26 C 79.03 106.09 77.10 102.96 75.44 99.68 M 78.12 101.06 C 79.39 103.27 80.64 105.49 81.94 107.69 C 84.42 107.66 86.89 107.65 89.37 107.62 C 88.13 105.46 86.88 103.31 85.66 101.14 C 83.15 101.12 80.63 101.11 78.12 101.06 Z" />
<path fill="#2b2b2b" opacity="1.00" d=" M 127.31 99.41 C 130.84 99.56 134.37 99.38 137.90 99.52 C 137.53 103.09 134.46 105.98 132.94 109.24 C 129.28 109.25 125.61 109.29 121.95 109.20 C 123.34 105.73 125.33 102.56 127.31 99.41 M 128.28 101.08 C 126.97 103.23 125.69 105.41 124.50 107.63 C 126.97 107.59 129.48 107.84 131.93 107.43 C 133.37 105.45 134.46 103.25 135.71 101.16 C 133.23 101.12 130.75 101.11 128.28 101.08 Z" />
<path fill="#2b2b2b" opacity="1.00" d=" M 47.09 106.96 C 51.04 106.73 55.03 106.74 58.98 106.95 C 61.57 109.98 63.02 113.87 65.29 117.17 C 63.39 120.89 61.26 124.48 59.08 128.03 C 55.08 127.98 51.08 128.00 47.08 128.00 C 45.02 124.51 43.08 120.95 40.93 117.51 C 42.97 113.99 44.74 110.29 47.09 106.96 M 48.11 108.65 C 46.20 111.32 44.63 114.23 43.11 117.14 C 44.16 120.38 46.44 123.13 48.03 126.15 C 51.37 126.10 54.71 126.28 58.05 126.06 C 60.25 123.48 61.49 120.18 63.38 117.36 C 61.64 114.37 59.93 111.38 58.10 108.44 C 54.78 108.59 51.42 108.26 48.11 108.65 Z" />
<path fill="#2b2b2b" opacity="1.00" d=" M 153.93 107.92 C 154.35 106.60 155.88 106.90 156.93 106.82 C 160.24 106.81 163.56 106.85 166.87 106.88 C 168.87 110.32 170.80 113.80 172.85 117.22 C 170.99 120.90 168.77 124.38 166.79 128.00 C 162.83 127.95 158.86 128.10 154.90 127.98 C 152.48 124.65 150.46 120.99 148.68 117.29 C 150.30 114.10 152.14 111.02 153.93 107.92 M 150.48 117.37 C 152.12 120.25 153.85 123.07 155.38 126.01 C 158.86 126.20 162.34 126.15 165.83 126.15 C 167.55 123.20 169.26 120.25 170.98 117.30 C 169.19 114.38 167.49 111.42 165.78 108.45 C 162.49 108.53 159.19 108.38 155.90 108.54 C 153.65 111.17 152.31 114.45 150.48 117.37 Z" />
<path fill="#2b2b2b" opacity="1.00" d=" M 96.66 117.30 C 98.01 113.98 100.12 111.03 101.93 107.96 C 105.28 108.02 108.64 108.02 111.99 107.98 C 113.77 111.01 115.72 113.95 117.26 117.10 C 115.92 120.35 113.87 123.24 112.12 126.27 C 108.69 126.24 105.26 126.24 101.83 126.29 C 100.04 123.34 98.08 120.45 96.66 117.30 M 102.45 110.33 C 101.01 112.57 99.82 114.97 98.46 117.26 C 99.88 119.70 101.31 122.13 102.66 124.60 C 105.52 124.67 108.38 124.67 111.23 124.61 C 112.53 122.21 113.89 119.86 115.38 117.58 C 114.22 115.09 112.99 112.63 111.47 110.34 C 108.60 109.70 105.32 109.74 102.45 110.33 Z" />
<path fill="#2b2b2b" opacity="1.00" d=" M 121.77 125.79 C 125.41 125.29 129.09 125.53 132.76 125.43 C 134.85 128.55 136.80 131.77 138.40 135.17 C 134.64 135.33 130.88 135.31 127.13 135.22 C 125.34 132.07 123.52 128.95 121.77 125.79 M 124.40 127.05 C 125.70 129.26 127.00 131.48 128.29 133.70 C 130.76 133.68 133.24 133.69 135.71 133.73 C 134.48 131.48 133.21 129.25 131.88 127.05 C 129.39 127.06 126.89 127.05 124.40 127.05 Z" />
<path fill="#2b2b2b" opacity="1.00" d=" M 75.51 135.19 C 77.01 131.79 78.98 128.64 80.92 125.49 C 84.59 125.49 88.26 125.43 91.92 125.61 C 90.52 128.97 88.44 131.97 86.77 135.19 C 83.02 135.32 79.26 135.33 75.51 135.19 M 81.97 127.03 C 80.66 129.26 79.34 131.49 78.04 133.73 C 80.62 133.70 83.19 133.68 85.76 133.58 C 86.90 131.39 88.12 129.24 89.34 127.09 C 86.88 127.05 84.42 127.04 81.97 127.03 Z" />
<path fill="#2b2b2b" opacity="1.00" d=" M 106.27 135.08 L 107.02 134.53 C 108.99 136.83 110.22 139.64 111.75 142.23 C 113.43 144.30 110.87 146.34 110.12 148.23 C 108.92 149.70 108.55 152.29 106.56 152.86 C 104.68 149.97 102.90 146.99 101.41 143.88 C 102.57 140.75 104.56 137.94 106.27 135.08 M 103.12 143.82 C 104.40 145.95 105.66 148.09 106.92 150.22 C 108.17 148.09 109.41 145.96 110.69 143.84 C 109.49 141.67 108.32 139.47 106.88 137.45 C 105.54 139.52 104.37 141.70 103.12 143.82 Z" />
<path fill="#2b2b2b" opacity="1.00" d=" M 44.18 143.04 C 46.84 140.92 49.95 139.27 53.03 137.85 C 58.89 137.60 64.77 137.76 70.64 137.79 C 68.86 142.31 65.94 146.25 63.68 150.52 C 61.79 154.65 57.14 156.17 53.42 158.17 C 47.53 158.41 41.55 158.67 35.68 158.10 C 38.01 152.83 41.26 148.00 44.18 143.04 M 53.50 139.49 C 50.71 140.91 47.78 142.27 45.41 144.34 C 42.75 148.37 40.60 152.70 38.07 156.81 C 42.99 156.67 47.92 156.99 52.82 156.58 C 56.24 154.60 60.59 153.26 62.35 149.41 C 64.25 146.03 66.25 142.71 68.12 139.31 C 63.25 139.49 58.36 139.11 53.50 139.49 Z" />
<path fill="#2b2b2b" opacity="1.00" d=" M 143.04 137.88 C 149.02 137.70 155.03 137.59 161.00 137.89 C 164.01 139.46 167.22 140.95 169.78 143.18 C 172.75 148.14 175.73 153.11 178.42 158.22 C 172.94 158.50 167.45 158.37 161.96 158.32 C 159.96 158.47 158.36 157.11 156.69 156.26 C 154.49 154.91 151.86 153.86 150.69 151.40 C 148.16 146.88 145.34 142.52 143.04 137.88 M 145.78 139.35 C 148.16 143.56 150.43 147.86 153.09 151.89 C 155.57 153.78 158.34 155.36 161.20 156.61 C 166.03 156.97 170.89 156.65 175.73 156.85 C 173.77 153.33 171.72 149.86 169.74 146.34 C 168.02 142.59 163.59 141.63 160.47 139.38 C 155.57 139.32 150.68 139.35 145.78 139.35 Z" />
<path fill="#2b2b2b" opacity="1.00" d=" M 73.73 152.80 C 77.76 152.87 81.80 152.83 85.84 152.86 C 87.92 156.58 90.62 159.98 92.35 163.88 C 90.69 167.41 88.36 170.59 86.73 174.14 C 82.54 174.37 78.35 174.31 74.17 174.21 C 72.27 170.97 70.16 167.86 68.26 164.63 C 67.76 163.95 67.96 163.09 67.90 162.32 C 70.10 159.31 71.69 155.92 73.73 152.80 M 69.52 163.34 C 71.40 166.49 73.32 169.63 75.32 172.70 C 78.70 172.67 82.07 172.68 85.45 172.66 C 87.11 169.67 88.82 166.71 90.59 163.80 C 88.63 160.72 86.72 157.61 84.80 154.51 C 81.44 154.51 78.09 154.52 74.73 154.47 C 72.91 157.38 71.23 160.37 69.52 163.34 Z" />
<path fill="#2b2b2b" opacity="1.00" d=" M 128.05 152.83 C 132.09 152.85 136.12 152.85 140.15 152.82 C 142.14 156.27 144.33 159.63 146.11 163.20 C 144.59 167.12 141.67 170.36 139.81 174.15 C 135.62 174.36 131.42 174.32 127.23 174.18 C 125.52 170.54 122.89 167.35 121.50 163.57 C 123.50 159.88 125.89 156.42 128.05 152.83 M 129.22 154.43 C 127.11 157.48 125.22 160.67 123.26 163.83 C 125.02 166.70 126.72 169.62 128.30 172.60 C 131.78 172.72 135.27 172.72 138.75 172.59 C 140.04 170.30 141.45 168.08 142.85 165.85 C 143.38 164.79 144.70 163.55 143.70 162.33 C 142.30 159.72 140.86 157.10 139.16 154.67 C 135.86 154.28 132.53 154.61 129.22 154.43 Z" />
<path fill="#2b2b2b" opacity="1.00" d=" M 15.08 158.00 C 18.62 157.98 22.17 157.93 25.71 158.04 C 27.23 161.08 29.32 163.85 30.59 167.02 C 29.20 170.14 27.22 172.96 25.64 175.99 C 22.11 176.04 18.58 176.02 15.05 176.00 C 13.35 173.00 11.64 170.00 9.81 167.08 C 11.59 164.07 13.33 161.03 15.08 158.00 M 16.06 159.73 C 14.68 162.14 13.12 164.46 11.99 167.01 C 13.10 169.59 14.71 171.91 16.11 174.34 C 18.97 174.35 21.83 174.35 24.68 174.23 C 26.01 171.78 27.40 169.36 28.84 166.97 C 27.41 164.62 26.05 162.23 24.75 159.81 C 21.85 159.69 18.96 159.70 16.06 159.73 Z" />
<path fill="#2b2b2b" opacity="1.00" d=" M 188.20 158.00 C 191.73 157.98 195.26 157.98 198.79 158.00 C 200.46 161.03 202.25 164.00 203.97 167.01 C 202.26 170.00 200.49 172.96 198.86 176.00 C 195.30 176.02 191.75 176.02 188.19 176.00 C 186.56 172.94 184.75 169.98 183.06 166.96 C 184.75 163.96 186.53 161.01 188.20 158.00 M 189.18 159.75 C 187.81 162.18 186.45 164.60 185.00 166.98 C 186.47 169.37 187.86 171.81 189.19 174.27 C 192.08 174.35 194.97 174.35 197.86 174.28 C 199.19 171.83 200.59 169.43 202.01 167.04 C 200.58 164.62 199.19 162.18 197.83 159.73 C 194.95 159.71 192.06 159.71 189.18 159.75 Z" />
<path fill="#2b2b2b" opacity="1.00" d=" M 106.69 158.89 C 109.98 162.62 111.78 167.37 114.51 171.49 C 117.16 175.09 115.72 179.83 115.93 183.98 C 113.13 189.25 110.12 194.43 106.98 199.51 C 103.57 194.81 101.27 189.43 98.01 184.63 C 97.95 181.09 97.76 177.54 98.04 174.01 C 100.74 168.87 103.75 163.89 106.69 158.89 M 99.59 174.97 C 99.60 178.67 98.66 182.81 100.92 186.06 C 102.93 189.48 104.90 192.93 106.88 196.37 C 109.30 192.23 111.89 188.16 114.01 183.85 C 114.37 180.63 114.45 177.30 113.88 174.11 C 111.78 169.90 109.21 165.93 106.92 161.82 C 104.52 166.23 101.64 170.40 99.59 174.97 Z" />
<path fill="#2b2b2b" opacity="1.00" d=" M 96.71 216.97 C 98.11 213.83 99.86 210.76 101.94 208.01 C 105.31 207.83 108.68 207.99 112.05 207.94 C 113.79 210.94 115.81 213.81 117.19 216.99 C 115.81 220.17 113.79 223.03 112.08 226.04 C 108.70 225.99 105.31 226.14 101.93 225.98 C 99.88 223.20 98.06 220.15 96.71 216.97 M 98.43 217.01 C 99.88 219.47 101.30 221.95 102.81 224.38 C 105.56 224.32 108.32 224.32 111.07 224.37 C 112.50 221.98 114.07 219.63 115.14 217.05 C 114.07 214.45 112.70 211.94 110.97 209.74 C 108.26 209.52 105.53 209.66 102.82 209.60 C 101.29 212.03 99.87 214.52 98.43 217.01 Z" />
</g>
</svg>
