<?xml version="1.0" encoding="UTF-8" ?>
<!DOCTYPE svg PUBLIC "-//W3C//DTD SVG 1.1//EN" "http://www.w3.org/Graphics/SVG/1.1/DTD/svg11.dtd">
<svg width="189pt" height="211pt" viewBox="0 0 189 211" version="1.1" xmlns="http://www.w3.org/2000/svg">
<g id="#ffffffff">
</g>
<g id="#000000ff">
<path fill="#000000" opacity="1.00" d=" M 93.20 1.18 C 97.24 -0.16 103.15 0.57 104.80 5.09 C 107.35 11.67 98.41 18.89 92.71 14.36 C 89.15 11.23 88.46 3.52 93.20 1.18 Z" />
<path fill="#000000" opacity="1.00" d=" M 88.42 23.28 C 91.11 20.91 94.04 25.27 97.07 24.94 C 100.01 25.30 102.88 20.97 105.46 23.44 C 106.60 25.65 109.14 29.39 106.07 31.09 C 102.98 32.82 99.76 35.16 96.08 35.07 C 92.68 34.17 89.65 32.16 86.87 30.08 C 84.36 28.16 86.99 25.02 88.42 23.28 Z" />
<path fill="#000000" opacity="1.00" d=" M 82.54 33.03 C 86.75 35.18 90.52 38.19 94.93 39.92 C 100.39 40.65 104.70 35.75 110.04 35.50 C 112.89 36.21 115.10 41.08 112.05 42.98 C 107.04 46.34 101.39 48.57 96.03 51.29 C 90.61 47.96 84.79 45.18 79.78 41.24 C 76.83 38.50 81.19 35.45 82.54 33.03 Z" />
<path fill="#000000" opacity="1.00" d=" M 73.75 44.41 C 81.71 47.25 88.45 52.56 95.70 56.78 C 102.68 53.51 109.34 49.10 117.00 47.60 C 120.19 47.56 120.82 51.77 118.42 53.43 C 111.87 59.52 103.25 62.65 95.61 67.10 C 89.28 63.23 82.78 59.62 76.72 55.34 C 74.95 53.85 72.60 52.45 72.10 50.02 C 72.34 48.07 73.15 46.26 73.75 44.41 Z" />
<path fill="#000000" opacity="1.00" d=" M 8.46 46.70 C 10.59 45.87 13.09 45.87 15.11 47.01 C 20.17 50.28 19.12 59.83 13.01 61.22 C 8.53 61.64 3.60 58.56 2.53 54.08 C 2.52 50.65 5.43 47.87 8.46 46.70 Z" />
<path fill="#000000" opacity="1.00" d=" M 178.44 51.49 C 184.86 49.58 191.63 58.58 186.99 63.92 C 183.46 68.09 176.35 66.82 173.87 62.17 C 171.42 58.18 174.40 52.97 178.44 51.49 Z" />
<path fill="#000000" opacity="1.00" d=" M 28.26 55.22 C 31.14 54.02 36.58 54.84 36.10 58.98 C 35.95 65.08 31.81 70.83 26.18 73.11 C 24.96 73.52 23.55 74.50 22.27 73.74 C 20.89 72.06 20.27 69.43 21.67 67.58 C 23.41 65.39 25.94 63.56 26.29 60.58 C 26.88 58.80 26.40 56.30 28.26 55.22 Z" />
<path fill="#000000" opacity="1.00" d=" M 41.21 57.10 C 41.76 54.30 45.60 54.14 47.56 55.48 C 48.55 56.73 48.61 58.40 48.75 59.91 C 49.04 65.56 48.91 71.21 48.94 76.86 C 42.95 79.69 37.24 83.24 30.94 85.36 C 29.24 86.16 27.92 84.75 27.56 83.20 C 26.86 81.28 25.84 78.35 28.10 77.06 C 31.59 75.37 35.72 74.37 38.04 70.98 C 41.20 67.03 40.51 61.77 41.21 57.10 Z" />
<path fill="#000000" opacity="1.00" d=" M 56.37 55.50 C 58.54 54.41 62.29 55.33 62.51 58.13 C 63.27 67.08 61.58 76.00 60.79 84.90 C 53.32 88.93 46.23 93.99 37.95 96.25 C 35.26 97.46 31.03 94.22 33.47 91.47 C 38.52 85.80 46.26 83.83 52.80 80.41 C 53.15 74.21 53.27 67.99 53.90 61.81 C 54.27 59.62 54.39 56.92 56.37 55.50 Z" />
<path fill="#000000" opacity="1.00" d=" M 128.34 63.50 C 128.51 61.76 128.71 59.07 130.99 58.93 C 133.57 58.65 138.63 57.92 138.24 61.97 C 138.07 68.76 136.99 75.50 136.39 82.26 C 142.79 86.23 149.79 89.48 155.25 94.77 C 157.05 95.94 156.89 98.97 154.92 99.87 C 151.53 100.68 148.21 98.97 145.19 97.65 C 139.36 94.75 133.84 91.29 128.21 88.04 C 128.21 79.86 128.03 71.68 128.34 63.50 Z" />
<path fill="#000000" opacity="1.00" d=" M 144.17 59.04 C 145.97 58.66 148.67 58.31 149.69 60.27 C 151.28 64.74 149.51 69.84 151.60 74.20 C 154.21 78.50 159.77 79.52 162.91 83.27 C 164.11 85.68 162.13 89.06 159.93 90.17 C 156.87 89.69 154.36 87.64 151.67 86.25 C 148.53 84.32 144.59 82.44 143.70 78.50 C 142.67 73.76 142.72 68.86 142.57 64.03 C 142.69 62.34 142.40 59.98 144.17 59.04 Z" />
<path fill="#000000" opacity="1.00" d=" M 158.44 59.60 C 160.27 59.08 163.35 58.12 164.28 60.46 C 164.96 63.41 164.47 66.91 166.70 69.29 C 167.88 70.74 170.08 71.79 169.90 73.96 C 169.96 76.65 167.40 79.67 164.52 78.49 C 160.27 76.80 155.91 73.72 154.89 68.97 C 153.99 65.58 154.98 61.16 158.44 59.60 Z" />
<path fill="#000000" opacity="1.00" d=" M 69.51 60.45 C 75.61 62.23 80.37 66.80 85.05 70.89 C 88.31 73.58 89.68 77.77 89.52 81.90 C 89.34 87.02 91.31 91.94 91.06 97.04 C 87.49 96.54 84.63 94.21 81.80 92.18 C 78.98 90.03 76.02 87.97 73.77 85.20 C 71.47 82.38 70.83 78.67 70.33 75.17 C 69.71 70.29 69.13 65.37 69.51 60.45 Z" />
<path fill="#000000" opacity="1.00" d=" M 105.16 72.15 C 110.53 67.49 116.74 63.98 122.61 60.03 C 121.31 67.86 120.76 75.89 118.58 83.54 C 113.12 89.47 106.12 94.17 98.64 97.19 C 98.22 92.08 99.21 87.00 100.05 81.99 C 100.66 78.27 102.22 74.61 105.16 72.15 Z" />
<path fill="#000000" opacity="1.00" d=" M 58.41 96.63 C 61.33 95.89 64.47 94.59 67.46 95.78 C 74.14 98.03 80.21 101.71 86.49 104.87 C 79.90 107.65 73.42 110.76 66.55 112.79 C 63.31 114.02 60.08 112.20 57.08 111.09 C 52.04 108.80 46.74 106.75 42.50 103.10 C 47.44 100.15 52.95 98.36 58.41 96.63 Z" />
<path fill="#000000" opacity="1.00" d=" M 100.95 105.41 C 106.65 103.07 112.22 100.38 118.07 98.44 C 121.99 97.05 126.30 97.35 130.13 98.87 C 136.02 101.17 141.65 104.04 147.40 106.65 C 139.77 109.56 132.40 114.14 124.04 114.31 C 115.72 113.40 108.56 108.52 100.95 105.41 Z" />
<path fill="#000000" opacity="1.00" d=" M 35.72 107.83 C 42.55 111.70 49.19 115.90 55.70 120.29 C 58.19 122.02 61.32 124.42 60.58 127.89 C 59.25 134.82 59.27 141.87 58.73 148.87 C 58.54 151.99 54.20 152.46 52.21 150.82 C 51.12 149.13 51.19 147.01 51.05 145.08 C 50.88 139.35 50.96 133.61 50.94 127.88 C 45.74 124.49 40.41 121.29 35.35 117.69 C 33.94 116.52 31.81 115.23 32.19 113.09 C 33.14 111.20 34.50 109.56 35.72 107.83 Z" />
<path fill="#000000" opacity="1.00" d=" M 82.15 116.15 C 84.42 114.74 86.62 112.93 89.39 112.70 C 89.66 121.14 89.60 130.83 83.36 137.34 C 78.42 142.35 72.48 146.33 66.30 149.66 C 66.20 144.66 67.22 139.74 67.93 134.81 C 68.68 130.80 69.25 126.35 72.29 123.33 C 75.18 120.43 78.78 118.42 82.15 116.15 Z" />
<path fill="#000000" opacity="1.00" d=" M 98.24 126.09 C 97.94 121.74 97.33 117.20 98.87 113.00 C 103.15 115.22 106.77 118.47 110.30 121.70 C 113.30 124.54 116.42 127.64 117.44 131.79 C 118.53 136.10 118.73 140.60 118.77 145.03 C 118.66 146.51 118.76 148.63 117.10 149.31 C 114.52 148.91 112.48 147.11 110.45 145.61 C 107.36 143.04 104.08 140.60 101.58 137.42 C 99.04 134.22 98.63 130.00 98.24 126.09 Z" />
<path fill="#000000" opacity="1.00" d=" M 148.57 113.53 C 150.01 112.91 152.28 111.84 153.40 113.55 C 154.78 115.34 156.50 118.39 154.07 120.09 C 148.43 124.12 141.11 126.04 136.80 131.79 C 132.85 137.68 135.09 145.13 133.61 151.65 C 132.94 154.15 129.69 154.02 127.75 153.32 C 126.21 152.08 126.46 149.82 126.33 148.06 C 126.37 140.45 126.82 132.85 127.12 125.25 C 134.28 121.36 141.27 117.15 148.57 113.53 Z" />
<path fill="#000000" opacity="1.00" d=" M 25.50 123.93 C 25.74 122.32 26.34 120.35 28.03 119.73 C 31.86 120.37 34.95 122.98 38.31 124.75 C 41.51 126.79 45.76 128.66 46.47 132.83 C 47.16 137.90 46.95 143.08 46.61 148.17 C 46.63 152.59 40.28 152.54 37.71 150.57 C 35.74 145.17 37.64 139.08 35.57 133.63 C 30.80 132.57 26.70 128.66 25.50 123.93 Z" />
<path fill="#000000" opacity="1.00" d=" M 154.46 125.47 C 158.31 122.18 161.70 127.30 161.48 130.91 C 158.43 134.94 152.21 135.01 149.46 139.38 C 147.53 143.73 149.27 148.85 147.21 153.19 C 145.75 156.18 140.19 156.63 139.40 152.88 C 138.15 147.63 139.49 142.16 140.80 137.04 C 142.51 130.69 149.32 128.38 154.46 125.47 Z" />
<path fill="#000000" opacity="1.00" d=" M 20.43 132.48 C 22.60 130.59 25.16 132.76 27.09 133.91 C 32.13 136.89 34.20 143.84 32.17 149.22 C 31.15 152.12 26.53 152.65 25.04 149.92 C 24.46 147.38 24.53 144.54 22.80 142.41 C 21.38 140.21 18.51 139.34 17.33 136.99 C 17.60 135.11 19.07 133.67 20.43 132.48 Z" />
<path fill="#000000" opacity="1.00" d=" M 162.48 136.65 C 163.66 136.28 165.62 134.95 166.44 136.58 C 167.70 138.44 168.71 141.16 167.18 143.17 C 164.98 145.63 161.51 147.34 160.90 150.89 C 160.37 152.30 160.59 154.23 159.12 155.10 C 157.00 156.26 153.06 156.06 152.84 152.97 C 152.41 149.50 152.06 145.67 153.68 142.44 C 155.74 139.46 159.37 138.23 162.48 136.65 Z" />
<path fill="#000000" opacity="1.00" d=" M 3.52 144.77 C 7.72 142.96 14.31 144.15 15.64 149.14 C 17.32 155.34 9.50 161.79 3.88 158.19 C -0.21 155.37 -0.97 147.49 3.52 144.77 Z" />
<path fill="#000000" opacity="1.00" d=" M 90.59 144.51 C 93.14 142.83 95.65 145.07 97.89 146.23 C 103.73 149.92 109.99 153.19 115.06 157.95 C 117.22 159.80 115.93 162.97 114.00 164.42 C 112.17 164.87 110.47 163.84 108.87 163.11 C 103.02 160.06 97.37 156.66 91.62 153.46 C 85.42 156.58 79.56 160.47 73.04 162.88 C 69.48 164.42 68.26 159.98 67.10 157.64 C 74.48 152.53 82.50 148.37 90.59 144.51 Z" />
<path fill="#000000" opacity="1.00" d=" M 175.22 148.22 C 180.61 147.05 186.51 153.42 184.48 158.88 C 182.56 165.86 170.68 164.86 169.24 158.06 C 168.48 153.83 171.88 150.23 175.22 148.22 Z" />
<path fill="#000000" opacity="1.00" d=" M 88.53 160.72 C 95.63 158.76 101.67 164.43 107.43 167.68 C 111.25 169.45 108.58 174.34 105.82 175.73 C 100.44 175.36 96.40 170.45 90.95 170.25 C 86.40 170.82 82.71 174.09 78.21 174.80 C 75.38 174.06 73.34 169.18 76.38 167.30 C 80.11 164.61 84.19 162.27 88.53 160.72 Z" />
<path fill="#000000" opacity="1.00" d=" M 90.51 174.54 C 93.47 173.46 95.90 176.30 98.13 177.82 C 100.68 179.64 103.13 183.70 100.44 186.43 C 98.11 188.89 95.13 186.13 92.82 185.10 C 89.54 183.64 86.58 187.96 83.37 186.62 C 81.72 184.85 79.20 181.64 81.48 179.46 C 84.22 177.39 87.37 175.91 90.51 174.54 Z" />
<path fill="#000000" opacity="1.00" d=" M 87.37 195.31 C 92.29 192.67 98.22 197.26 99.51 202.01 C 98.70 207.10 93.35 211.80 88.07 209.64 C 82.06 207.67 82.41 198.26 87.37 195.31 Z" />
</g>
</svg>
