<?xml version="1.0" encoding="UTF-8" ?>
<!DOCTYPE svg PUBLIC "-//W3C//DTD SVG 1.1//EN" "http://www.w3.org/Graphics/SVG/1.1/DTD/svg11.dtd">
<svg width="229pt" height="220pt" viewBox="0 0 229 220" version="1.1" xmlns="http://www.w3.org/2000/svg">
<g id="#ffffffff">
</g>
<g id="#000000ff">
<path fill="#000000" opacity="1.00" d=" M 114.49 1.95 C 114.84 7.67 114.92 13.40 115.08 19.13 C 114.98 21.30 116.04 23.24 116.78 25.21 C 118.79 24.26 120.81 23.31 122.81 22.31 C 121.83 24.27 120.85 26.23 119.85 28.17 C 121.96 28.90 124.07 29.64 126.16 30.41 C 124.07 31.08 121.98 31.76 119.89 32.46 C 120.84 34.37 121.80 36.27 122.71 38.19 C 120.66 37.33 118.64 36.39 116.63 35.44 C 115.81 37.62 115.48 39.92 115.59 42.25 C 118.55 44.08 121.62 45.73 124.67 47.41 C 124.67 51.17 124.66 54.93 124.68 58.69 C 121.31 60.59 117.87 62.37 114.60 64.44 C 111.19 62.49 107.76 60.58 104.31 58.72 C 104.35 54.95 104.34 51.18 104.32 47.42 C 107.37 45.72 110.47 44.09 113.43 42.23 C 113.51 39.91 113.18 37.62 112.38 35.45 C 110.35 36.38 108.33 37.33 106.28 38.19 C 107.20 36.27 108.16 34.37 109.12 32.47 C 107.04 31.76 104.94 31.09 102.85 30.40 C 104.94 29.64 107.05 28.90 109.15 28.17 C 108.15 26.22 107.17 24.26 106.17 22.30 C 108.17 23.30 110.19 24.25 112.22 25.21 C 115.59 17.94 113.46 9.66 114.49 1.95 Z" />
<path fill="#000000" opacity="1.00" d=" M 35.33 34.05 C 39.88 37.79 44.15 41.85 48.51 45.80 C 50.01 47.08 51.93 47.69 53.69 48.53 C 54.35 46.61 55.02 44.68 55.73 42.78 C 56.68 44.62 57.43 46.56 58.13 48.52 C 60.15 47.60 62.17 46.67 64.17 45.73 C 63.17 47.70 62.17 49.67 61.24 51.67 C 63.34 52.29 65.44 52.93 67.54 53.55 C 65.43 54.38 63.27 55.11 61.11 55.83 C 62.13 58.03 63.69 59.88 65.59 61.37 C 68.95 60.59 72.30 59.74 75.63 58.78 C 78.38 61.52 81.19 64.20 83.99 66.89 C 82.84 70.49 81.95 74.17 80.81 77.78 C 77.09 78.63 73.44 79.77 69.71 80.54 C 66.67 78.18 64.08 75.26 61.21 72.69 C 62.16 69.49 63.01 66.26 63.97 63.07 C 62.37 61.27 60.43 59.82 58.28 58.74 C 57.42 60.75 56.62 62.79 55.79 64.82 C 55.11 62.83 54.41 60.84 53.69 58.87 C 51.63 59.76 49.60 60.71 47.55 61.62 C 48.55 59.68 49.56 57.73 50.49 55.76 C 48.37 55.15 46.27 54.41 44.28 53.42 C 46.37 52.86 48.44 52.29 50.51 51.67 C 49.62 49.86 48.95 47.86 47.51 46.38 C 43.48 42.25 39.38 38.17 35.33 34.05 Z" />
<path fill="#000000" opacity="1.00" d=" M 180.56 45.74 C 184.92 41.77 189.22 37.71 193.77 33.96 C 189.83 37.94 185.88 41.91 181.94 45.90 C 180.28 47.44 179.47 49.60 178.46 51.57 C 180.53 52.27 182.63 52.88 184.74 53.44 C 182.73 54.40 180.63 55.14 178.51 55.77 C 179.44 57.74 180.44 59.68 181.45 61.62 C 179.40 60.71 177.36 59.76 175.30 58.86 C 174.59 60.84 173.89 62.83 173.22 64.83 C 172.38 62.80 171.58 60.76 170.72 58.74 C 168.56 59.83 166.62 61.27 165.03 63.08 C 166.00 66.27 166.84 69.50 167.78 72.70 C 164.99 75.35 162.19 78.00 159.39 80.65 C 155.64 79.66 151.88 78.71 148.12 77.73 C 147.07 74.12 146.15 70.47 145.01 66.89 C 147.80 64.21 150.61 61.55 153.33 58.80 C 156.68 59.72 160.05 60.60 163.45 61.37 C 165.31 59.86 166.86 58.01 167.91 55.84 C 165.73 55.11 163.57 54.37 161.42 53.58 C 163.57 52.94 165.71 52.26 167.83 51.52 C 166.80 49.60 165.80 47.67 164.80 45.73 C 166.82 46.66 168.84 47.59 170.87 48.51 C 171.56 46.56 172.32 44.63 173.29 42.80 C 173.99 44.70 174.65 46.61 175.31 48.53 C 177.09 47.67 179.05 47.06 180.56 45.74 Z" />
<path fill="#000000" opacity="1.00" d=" M 90.45 56.42 C 87.71 50.37 84.61 44.42 83.43 37.82 C 87.56 43.16 89.66 49.60 92.24 55.75 C 93.78 59.87 98.42 62.06 99.43 66.42 C 101.33 73.28 103.25 80.12 105.27 86.94 C 107.16 92.78 110.13 98.22 111.91 104.10 C 109.24 98.40 106.92 92.53 104.07 86.92 C 100.49 80.86 96.82 74.86 93.18 68.84 C 90.67 65.17 92.45 60.30 90.45 56.42 Z" />
<path fill="#000000" opacity="1.00" d=" M 137.22 55.31 C 139.74 49.28 141.88 43.00 145.89 37.75 C 144.76 44.19 141.79 50.01 139.08 55.89 C 137.14 59.53 138.15 63.90 136.78 67.67 C 132.81 74.44 128.66 81.12 124.77 87.94 C 121.98 93.41 119.81 99.16 117.05 104.64 C 117.96 104.68 118.87 104.66 119.78 104.57 C 122.79 98.75 125.99 93.02 129.22 87.32 C 135.52 84.27 141.71 81.00 147.97 77.87 C 144.41 83.80 141.53 90.15 137.78 95.94 C 131.56 99.69 124.60 102.14 118.63 106.31 C 118.97 107.14 119.66 108.80 120.00 109.64 C 127.54 108.97 134.49 105.31 141.88 104.15 C 148.32 106.12 154.92 107.69 161.20 110.11 C 154.53 112.05 147.93 114.31 141.18 115.93 C 135.02 114.26 128.98 112.19 122.81 110.59 C 121.60 110.62 120.40 110.71 119.20 110.86 C 119.18 111.62 119.13 113.15 119.11 113.92 C 124.82 118.07 131.69 120.33 137.70 124.00 C 141.54 129.76 144.37 136.19 147.97 142.13 C 141.71 139.01 135.53 135.73 129.24 132.69 C 125.59 126.89 123.04 120.40 118.92 114.92 C 116.55 113.38 114.16 115.94 111.94 116.78 C 109.04 124.06 105.47 131.26 103.56 138.95 C 102.26 143.81 100.85 148.64 99.57 153.50 C 98.70 158.22 93.67 160.47 92.12 164.85 C 89.61 171.11 87.24 177.49 83.21 182.98 C 84.52 176.61 87.21 170.71 89.99 164.88 C 91.91 161.34 91.60 157.21 92.05 153.33 C 97.76 143.55 104.36 134.18 108.54 123.59 C 109.60 120.33 111.02 117.17 112.97 114.35 L 110.32 114.14 C 106.36 120.04 103.47 126.59 99.78 132.67 C 93.49 135.73 87.29 139.00 81.03 142.13 C 84.58 136.20 87.47 129.88 91.20 124.07 C 97.22 120.61 103.61 117.82 109.70 114.48 C 109.82 113.88 110.06 112.68 110.18 112.08 C 102.50 115.59 94.32 117.98 86.99 122.22 C 81.90 125.05 76.80 127.86 71.73 130.73 C 68.00 133.28 63.15 131.48 59.14 133.23 C 52.77 135.83 46.53 138.96 39.66 140.03 C 45.09 135.98 51.69 134.20 57.90 131.74 C 61.53 130.45 63.88 127.15 67.20 125.34 C 74.46 123.37 81.76 121.55 89.02 119.60 C 94.28 118.18 99.21 115.84 104.38 114.16 L 103.53 113.12 C 104.05 113.26 105.08 113.54 105.59 113.68 C 107.22 113.08 108.80 112.37 110.34 111.56 C 109.02 110.89 107.63 110.54 106.16 110.51 C 100.02 112.29 93.93 114.23 87.78 115.93 C 81.05 114.27 74.45 112.06 67.79 110.11 C 74.32 107.71 81.07 105.84 87.79 104.07 C 94.58 105.66 101.11 108.72 108.04 109.42 C 110.29 109.42 110.83 106.05 108.87 105.14 C 103.10 101.85 96.94 99.28 91.21 95.93 C 87.47 90.13 84.58 83.79 81.03 77.86 C 87.28 80.99 93.47 84.26 99.77 87.31 C 103.36 93.25 106.24 99.62 110.04 105.42 C 111.88 106.33 113.38 104.94 114.82 103.99 L 116.18 105.89 C 118.98 100.27 121.08 94.34 123.52 88.56 C 126.33 80.64 127.96 72.35 130.55 64.36 C 132.48 61.14 135.98 58.97 137.22 55.31 Z" />
<path fill="#000000" opacity="1.00" d=" M 114.39 64.79 C 116.79 71.15 118.61 77.71 120.78 84.15 C 118.63 90.68 116.67 97.26 114.42 103.76 C 112.47 97.19 110.30 90.70 108.22 84.18 C 110.26 77.71 112.43 71.28 114.39 64.79 Z" />
<path fill="#000000" opacity="1.00" d=" M 38.95 80.16 C 45.79 81.11 52.06 84.05 58.33 86.77 C 62.43 88.84 67.47 87.03 71.45 89.45 C 76.60 92.30 81.77 95.12 86.92 97.98 C 93.91 102.10 101.74 104.46 109.05 107.91 C 101.27 105.42 93.91 101.67 85.92 99.81 C 79.65 98.14 73.31 96.71 67.08 94.91 C 63.50 92.89 60.89 89.27 56.79 88.12 C 50.60 86.01 44.57 83.53 38.95 80.16 Z" />
<path fill="#000000" opacity="1.00" d=" M 170.96 86.77 C 177.18 84.07 183.40 81.24 190.14 80.14 C 184.65 83.81 178.42 85.98 172.26 88.22 C 168.42 89.36 165.84 92.57 162.62 94.74 C 155.98 96.78 149.17 98.25 142.48 100.11 C 134.72 101.89 127.64 105.71 120.00 107.85 C 126.08 105.35 132.20 102.95 138.20 100.26 C 144.98 96.72 151.59 92.87 158.29 89.16 C 162.21 87.10 167.00 88.76 170.96 86.77 Z" />
<path fill="#000000" opacity="1.00" d=" M 31.51 98.74 C 32.30 100.75 33.05 102.78 33.77 104.83 C 35.84 103.90 37.90 102.96 39.95 102.01 C 38.91 103.94 37.90 105.89 36.90 107.85 C 39.21 108.76 41.98 109.45 44.33 108.52 C 46.13 105.85 47.64 102.99 49.32 100.25 C 53.23 100.24 57.15 100.27 61.07 100.20 C 63.06 103.45 65.02 106.72 66.96 110.00 C 65.02 113.28 63.06 116.55 61.07 119.80 C 57.15 119.73 53.23 119.76 49.31 119.75 C 47.62 116.85 45.87 113.98 44.15 111.09 C 41.68 111.03 39.19 111.11 36.90 112.14 C 37.89 114.10 38.90 116.05 39.95 117.99 C 37.89 117.04 35.84 116.10 33.77 115.16 C 33.06 117.20 32.32 119.22 31.51 121.21 C 30.82 119.17 30.12 117.13 29.39 115.11 C 27.36 116.07 25.32 117.01 23.27 117.94 C 24.26 116.01 25.25 114.08 26.21 112.13 C 18.56 109.06 10.11 110.83 2.09 110.00 C 10.11 109.17 18.56 110.93 26.22 107.86 C 25.26 105.92 24.27 103.98 23.27 102.06 C 25.32 102.98 27.36 103.93 29.40 104.89 C 30.13 102.85 30.83 100.80 31.51 98.74 Z" />
<path fill="#000000" opacity="1.00" d=" M 195.24 104.82 C 195.93 102.80 196.67 100.80 197.50 98.83 C 198.19 100.86 198.89 102.88 199.61 104.89 C 201.64 103.93 203.68 102.98 205.73 102.06 C 204.74 103.99 203.75 105.92 202.79 107.87 C 210.41 110.92 218.81 109.17 226.80 110.00 C 218.81 110.83 210.41 109.08 202.79 112.13 C 203.75 114.08 204.74 116.01 205.73 117.94 C 203.68 117.02 201.65 116.08 199.63 115.11 C 198.88 117.14 198.15 119.17 197.38 121.20 C 196.65 119.19 195.94 117.18 195.26 115.17 C 193.18 116.09 191.11 117.04 189.05 117.99 C 190.09 116.05 191.11 114.10 192.11 112.14 C 189.82 111.12 187.32 111.03 184.86 111.09 C 183.12 113.97 181.38 116.86 179.67 119.76 C 175.75 119.76 171.83 119.74 167.91 119.79 C 165.94 116.53 163.96 113.28 162.02 110.00 C 163.96 106.72 165.94 103.46 167.92 100.20 C 171.84 100.27 175.76 100.24 179.67 100.24 C 181.38 103.14 183.12 106.02 184.86 108.91 C 187.32 108.97 189.82 108.88 192.11 107.86 C 191.11 105.90 190.09 103.95 189.05 102.01 C 191.10 102.96 193.17 103.90 195.24 104.82 Z" />
<path fill="#000000" opacity="1.00" d=" M 119.89 112.23 C 126.64 114.54 133.19 117.45 140.00 119.59 C 146.63 121.34 153.27 123.05 159.93 124.69 C 164.45 125.41 166.88 129.97 171.02 131.56 C 177.23 134.01 183.72 135.93 189.33 139.68 C 189.46 139.86 189.73 140.22 189.86 140.40 C 183.42 138.68 177.18 136.41 171.12 133.61 C 167.51 131.75 163.28 132.68 159.49 131.67 C 153.59 128.63 147.87 125.25 142.01 122.14 C 135.02 118.01 127.18 115.71 119.89 112.23 Z" />
<path fill="#000000" opacity="1.00" d=" M 117.15 115.96 C 120.15 121.67 122.31 127.78 125.32 133.48 C 128.76 139.39 132.37 145.20 135.90 151.06 C 138.60 154.87 136.92 159.95 138.91 164.02 C 141.65 169.97 144.68 175.87 145.88 182.38 C 141.77 177.21 139.69 170.91 137.22 164.89 C 135.88 161.20 132.34 158.98 130.47 155.64 C 128.04 147.85 126.14 139.90 123.64 132.13 C 121.60 126.69 119.14 121.42 117.15 115.96 Z" />
<path fill="#000000" opacity="1.00" d=" M 114.43 116.19 C 116.63 122.71 118.65 129.30 120.78 135.85 C 118.73 142.31 116.57 148.73 114.61 155.22 C 112.21 148.85 110.37 142.28 108.22 135.82 C 110.30 129.28 112.50 122.77 114.43 116.19 Z" />
<path fill="#000000" opacity="1.00" d=" M 61.21 147.32 C 63.99 144.65 66.81 142.03 69.58 139.35 C 73.34 140.32 77.09 141.30 80.84 142.25 C 81.94 145.86 82.85 149.52 83.99 153.11 C 81.21 155.79 78.40 158.43 75.70 161.19 C 72.34 160.29 68.97 159.41 65.58 158.63 C 63.69 160.13 62.14 161.97 61.10 164.16 C 63.20 164.82 65.28 165.55 67.28 166.47 C 65.23 167.13 63.19 167.79 61.17 168.53 C 62.20 170.43 63.21 172.34 64.20 174.26 C 62.18 173.33 60.15 172.41 58.12 171.50 C 57.42 173.45 56.66 175.38 55.73 177.22 C 55.02 175.32 54.36 173.40 53.70 171.48 C 51.90 172.33 49.92 172.94 48.40 174.29 C 44.06 178.24 39.80 182.29 35.25 186.01 C 39.22 182.03 43.16 178.04 47.11 174.04 C 48.78 172.50 49.56 170.33 50.51 168.34 C 48.44 167.71 46.36 167.13 44.27 166.57 C 46.27 165.59 48.37 164.86 50.50 164.23 C 49.56 162.26 48.55 160.32 47.55 158.38 C 49.60 159.29 51.63 160.24 53.69 161.14 C 54.41 159.16 55.10 157.17 55.78 155.18 C 56.62 157.20 57.42 159.24 58.28 161.25 C 60.44 160.17 62.37 158.73 63.97 156.93 C 63.01 153.74 62.17 150.51 61.21 147.32 Z" />
<path fill="#000000" opacity="1.00" d=" M 148.10 142.29 C 151.87 141.30 155.65 140.32 159.43 139.36 C 162.19 142.03 165.00 144.65 167.78 147.30 C 166.84 150.50 166.00 153.73 165.03 156.92 C 166.63 158.72 168.56 160.17 170.72 161.25 C 171.58 159.24 172.39 157.20 173.23 155.18 C 173.90 157.17 174.59 159.16 175.31 161.14 C 177.36 160.24 179.40 159.29 181.45 158.39 C 180.45 160.32 179.45 162.25 178.51 164.21 C 180.64 164.86 182.74 165.61 184.75 166.58 C 182.66 167.13 180.58 167.70 178.52 168.30 C 179.37 170.10 180.01 172.10 181.43 173.56 C 185.48 177.71 189.59 181.81 193.67 185.94 C 189.14 182.23 184.88 178.18 180.55 174.25 C 179.04 172.93 177.07 172.32 175.29 171.47 C 174.65 173.37 174.01 175.27 173.34 177.16 C 172.29 175.38 171.56 173.43 170.87 171.48 C 168.85 172.40 166.83 173.32 164.83 174.27 C 165.84 172.30 166.83 170.32 167.75 168.32 C 165.66 167.71 163.57 167.08 161.48 166.46 C 163.59 165.62 165.74 164.87 167.89 164.16 C 166.87 161.97 165.31 160.14 163.45 158.64 C 160.06 159.40 156.69 160.27 153.35 161.21 C 150.61 158.46 147.80 155.79 145.01 153.11 C 146.15 149.53 147.07 145.90 148.10 142.29 Z" />
<path fill="#000000" opacity="1.00" d=" M 104.32 161.32 C 107.82 159.57 111.11 157.13 114.73 155.77 C 118.08 157.56 121.34 159.52 124.70 161.29 C 124.65 165.06 124.67 168.82 124.67 172.59 C 121.76 174.19 118.89 175.87 115.90 177.34 C 115.37 179.80 115.67 182.26 116.67 184.56 C 118.62 183.59 120.61 182.66 122.69 181.98 C 121.76 183.84 120.81 185.69 119.88 187.56 C 121.96 188.25 124.06 188.89 126.18 189.50 C 124.09 190.33 121.97 191.10 119.85 191.84 C 120.85 193.77 121.82 195.71 122.81 197.65 C 120.80 196.68 118.79 195.74 116.77 194.80 C 116.17 196.48 115.25 198.12 115.13 199.94 C 114.86 205.99 114.92 212.05 114.45 218.09 C 113.51 210.36 115.58 202.06 112.20 194.79 C 110.18 195.75 108.16 196.70 106.16 197.70 C 107.16 195.75 108.15 193.78 109.15 191.83 C 107.03 191.09 104.91 190.34 102.82 189.50 C 104.92 188.89 107.02 188.25 109.10 187.57 C 108.17 185.65 107.21 183.74 106.29 181.82 C 108.34 182.67 110.34 183.61 112.34 184.56 C 113.17 182.07 114.76 177.89 111.50 176.54 C 109.12 175.21 106.71 173.91 104.33 172.58 C 104.33 168.83 104.34 165.07 104.32 161.32 Z" />
</g>
</svg>
