<?xml version="1.0" encoding="UTF-8" ?>
<!DOCTYPE svg PUBLIC "-//W3C//DTD SVG 1.1//EN" "http://www.w3.org/Graphics/SVG/1.1/DTD/svg11.dtd">
<svg width="225pt" height="225pt" viewBox="0 0 225 225" version="1.1" xmlns="http://www.w3.org/2000/svg">
<g id="#ffffffff">
</g>
<g id="#000000ff">
<path fill="#000000" opacity="1.00" d=" M 100.66 9.95 C 104.15 7.40 107.68 4.91 111.21 2.41 C 114.69 5.08 118.56 7.29 121.81 10.23 C 122.19 14.77 121.99 19.34 122.19 23.89 C 124.72 21.69 127.09 19.32 129.51 17.00 C 132.05 19.86 134.71 22.62 137.32 25.41 C 130.56 31.95 123.54 38.22 116.84 44.83 C 118.41 47.14 119.91 49.49 121.31 51.91 C 123.23 50.76 125.16 49.62 127.10 48.49 C 129.60 52.47 131.85 56.63 134.58 60.47 C 135.85 54.01 137.36 47.59 138.84 41.16 C 138.93 39.68 140.53 39.17 141.54 38.42 C 146.08 35.64 150.53 32.72 155.00 29.82 C 157.03 31.11 159.12 32.32 161.30 33.35 C 161.21 39.71 161.03 46.06 160.49 52.40 C 155.40 57.28 149.94 61.75 144.94 66.72 C 149.68 66.66 154.42 66.82 159.16 66.89 C 159.13 69.12 159.10 71.34 159.06 73.57 C 161.90 73.66 164.74 73.73 167.59 73.79 C 169.73 64.69 172.09 55.63 174.20 46.52 C 177.93 47.40 181.65 48.28 185.39 49.14 C 184.59 52.34 183.90 55.56 182.96 58.72 C 187.19 56.62 191.33 54.33 195.53 52.15 C 199.41 53.95 203.29 55.74 207.27 57.30 C 206.93 61.68 206.75 66.21 205.74 70.45 C 201.96 72.99 198.01 75.28 194.15 77.69 C 197.30 78.68 200.46 79.62 203.65 80.49 C 202.57 84.15 201.48 87.80 200.33 91.43 C 191.30 88.75 182.25 86.12 173.20 83.53 C 171.91 85.98 170.59 88.41 169.18 90.79 C 171.14 91.96 173.13 93.09 175.14 94.19 C 172.64 98.26 170.57 102.57 168.05 106.62 C 174.82 104.43 181.64 102.39 188.41 100.21 C 194.00 103.10 199.63 105.95 205.22 108.84 C 205.22 111.31 205.22 113.79 205.22 116.26 C 199.63 119.14 194.01 121.95 188.45 124.89 C 181.69 122.68 174.87 120.68 168.10 118.49 C 170.51 122.56 172.70 126.75 175.05 130.85 C 173.16 132.09 171.14 133.11 169.16 134.20 C 170.56 136.64 171.90 139.12 173.25 141.59 C 182.25 138.88 191.31 136.39 200.30 133.64 C 201.48 137.30 202.64 140.98 203.56 144.73 C 200.39 145.43 197.29 146.41 194.17 147.32 C 198.09 149.87 202.11 152.26 206.04 154.79 C 206.36 159.10 207.13 163.37 207.30 167.69 C 203.27 169.30 199.40 171.32 195.36 172.87 C 191.20 170.75 187.15 168.42 182.96 166.36 C 183.89 169.52 184.60 172.73 185.34 175.94 C 181.64 176.87 177.90 177.68 174.18 178.56 C 172.11 169.43 169.71 160.38 167.59 151.26 C 164.75 151.34 161.91 151.43 159.07 151.51 C 159.09 153.74 159.12 155.96 159.15 158.19 C 154.41 158.24 149.67 158.38 144.93 158.42 C 149.97 163.30 155.37 167.81 160.46 172.64 C 161.10 178.93 161.09 185.26 161.38 191.58 C 159.22 192.69 157.20 194.07 154.99 195.10 C 149.66 191.75 144.13 188.58 139.10 184.81 C 137.42 178.15 135.97 171.43 134.59 164.70 C 131.76 168.43 129.61 172.62 127.09 176.57 C 125.15 175.44 123.21 174.32 121.27 173.18 C 119.84 175.62 118.31 177.99 116.87 180.42 C 123.71 186.80 130.51 193.23 137.33 199.63 C 134.74 202.47 132.03 205.19 129.52 208.12 C 127.15 205.74 124.73 203.40 122.19 201.20 C 121.98 205.76 122.20 210.34 121.78 214.89 C 118.52 217.79 114.69 220.00 111.24 222.68 C 107.76 220.14 104.09 217.85 100.78 215.10 C 100.36 210.48 100.38 205.82 100.05 201.20 C 97.71 203.51 95.27 205.72 92.88 207.98 C 90.30 205.15 87.67 202.36 85.00 199.62 C 92.01 193.40 98.54 186.66 105.51 180.40 C 104.02 177.97 102.51 175.56 101.06 173.12 C 99.15 174.29 97.24 175.46 95.34 176.63 C 92.84 172.61 90.43 168.52 87.88 164.54 C 86.44 171.02 85.04 177.52 83.55 184.00 C 83.43 185.17 82.23 185.65 81.42 186.28 C 76.71 189.21 72.07 192.26 67.36 195.18 C 65.27 193.93 63.14 192.72 60.96 191.62 C 61.03 185.19 61.64 178.78 61.96 172.36 C 67.27 167.95 72.30 163.20 77.33 158.47 C 72.61 158.30 67.88 158.26 63.15 158.18 C 63.22 155.95 63.26 153.71 63.30 151.48 C 60.48 151.42 57.66 151.35 54.84 151.23 C 52.58 160.32 50.44 169.45 48.14 178.53 C 44.40 177.68 40.68 176.77 36.95 175.92 C 37.84 172.76 38.57 169.55 39.30 166.35 C 35.19 168.63 30.98 170.73 26.81 172.91 C 22.87 171.14 19.02 169.16 14.93 167.74 C 15.83 163.41 15.35 158.75 16.67 154.59 C 20.45 152.08 24.38 149.80 28.23 147.41 C 25.08 146.43 21.93 145.41 18.73 144.62 C 19.86 140.96 20.89 137.28 22.09 133.64 C 31.07 136.40 40.14 138.84 49.11 141.62 C 50.45 139.15 51.80 136.68 53.17 134.22 C 51.24 133.08 49.28 131.97 47.32 130.88 C 49.60 126.75 51.93 122.65 54.20 118.51 C 47.46 120.61 40.73 122.74 34.00 124.86 C 28.35 121.88 22.57 119.14 16.96 116.07 C 17.01 113.70 17.01 111.34 16.96 108.98 C 22.55 105.91 28.32 103.19 33.97 100.23 C 40.72 102.32 47.47 104.42 54.20 106.56 C 51.95 102.40 49.57 98.31 47.32 94.16 C 49.28 93.09 51.24 92.01 53.19 90.90 C 51.83 88.43 50.46 85.96 49.14 83.46 C 40.13 86.18 31.08 88.73 22.07 91.40 C 20.87 87.80 19.87 84.13 18.72 80.51 C 21.91 79.62 25.08 78.68 28.22 77.65 C 24.35 75.26 20.41 72.98 16.64 70.45 C 15.37 66.31 15.86 61.72 14.93 57.44 C 18.98 55.83 22.87 53.88 26.87 52.17 C 31.04 54.33 35.23 56.45 39.32 58.76 C 38.57 55.53 37.84 52.30 36.95 49.10 C 40.69 48.34 44.39 47.34 48.13 46.54 C 50.41 55.59 52.66 64.65 54.74 73.74 C 57.61 73.74 60.48 73.67 63.34 73.58 C 63.29 71.35 63.23 69.12 63.15 66.89 C 67.88 66.79 72.60 66.74 77.32 66.62 C 72.32 61.81 67.20 57.13 61.92 52.63 C 61.66 46.25 61.04 39.89 60.95 33.50 C 63.13 32.30 65.31 31.09 67.49 29.89 C 72.73 33.31 78.04 36.64 83.31 40.04 C 84.90 46.84 86.34 53.67 87.89 60.48 C 90.54 56.55 92.79 52.36 95.44 48.43 C 97.29 49.63 99.17 50.79 101.06 51.95 C 102.57 49.51 104.10 47.08 105.49 44.56 C 98.44 38.42 92.03 31.59 84.98 25.46 C 87.63 22.69 90.31 19.96 92.88 17.10 C 95.29 19.36 97.72 21.59 100.07 23.91 C 100.29 19.26 100.57 14.61 100.66 9.95 M 78.05 55.75 C 79.17 68.97 80.21 82.20 81.25 95.43 C 69.13 101.08 57.07 106.84 44.97 112.52 C 57.06 118.25 69.17 123.94 81.25 129.70 C 80.21 142.89 79.15 156.08 78.06 169.27 C 89.23 162.06 100.02 154.26 111.11 146.91 C 122.30 154.20 133.22 161.94 144.29 169.43 C 143.16 156.24 142.41 143.01 140.98 129.85 C 152.99 123.91 165.21 118.39 177.29 112.58 C 165.41 106.67 153.26 101.29 141.34 95.45 C 141.88 82.29 143.42 68.92 144.30 55.67 C 133.26 63.19 122.21 70.72 111.19 78.28 C 100.15 70.76 89.21 63.09 78.05 55.75 M 111.19 55.55 C 109.07 58.93 107.05 62.38 104.90 65.73 C 106.99 67.19 109.09 68.62 111.18 70.07 C 113.24 68.61 115.33 67.19 117.46 65.82 C 115.40 62.38 113.34 58.93 111.19 55.55 M 61.39 84.02 C 63.38 87.52 65.26 91.09 67.27 94.58 C 69.46 93.48 71.67 92.41 73.94 91.47 C 73.92 88.90 73.79 86.34 73.60 83.78 C 69.53 83.99 65.46 84.03 61.39 84.02 M 148.98 83.77 C 148.67 86.26 148.42 88.77 148.20 91.27 C 150.53 92.36 152.87 93.46 155.19 94.58 C 157.12 91.05 159.05 87.52 160.99 83.99 C 156.99 84.03 152.98 84.02 148.98 83.77 M 67.22 130.52 C 65.24 133.98 63.40 137.52 61.39 140.97 C 65.46 140.97 69.52 141.21 73.59 141.35 C 73.75 138.81 73.90 136.27 74.04 133.73 C 71.77 132.65 69.50 131.58 67.22 130.52 M 148.21 133.81 C 148.43 136.33 148.67 138.86 148.97 141.38 C 153.00 141.24 157.02 140.95 161.06 141.01 C 158.96 137.60 157.14 134.02 155.19 130.53 C 152.86 131.62 150.54 132.72 148.21 133.81 M 104.87 159.38 C 107.09 162.72 109.08 166.21 111.23 169.59 C 113.27 166.12 115.40 162.71 117.45 159.26 C 115.35 157.89 113.28 156.48 111.26 155.00 C 109.11 156.43 106.97 157.88 104.87 159.38 Z" />
<path fill="#000000" opacity="1.00" d=" M 79.88 58.71 C 88.99 69.11 98.33 79.31 107.54 89.63 C 105.94 92.34 104.27 95.00 102.76 97.77 C 107.97 97.76 113.18 97.79 118.39 97.74 C 119.14 98.24 119.91 98.72 120.69 99.19 C 123.35 103.51 125.58 108.11 128.56 112.24 C 129.98 109.51 131.47 106.83 133.06 104.20 C 146.64 107.02 160.22 109.81 173.81 112.57 C 160.20 115.17 146.64 118.01 133.09 120.91 C 131.48 118.24 129.96 115.51 128.50 112.75 C 125.34 117.32 123.05 122.44 119.82 126.96 C 114.29 127.78 108.43 127.04 102.77 127.30 C 104.27 130.07 105.95 132.74 107.57 135.45 C 98.35 145.76 89.04 155.99 79.88 166.36 C 84.41 153.27 88.62 140.08 93.12 126.98 C 96.23 127.05 99.34 127.16 102.45 127.17 C 99.76 122.32 96.88 117.58 94.14 112.76 C 92.35 115.35 90.95 118.17 89.36 120.88 C 75.96 117.92 62.35 115.69 49.07 112.30 C 62.58 109.97 75.94 106.86 89.40 104.25 C 90.96 106.95 92.35 109.75 94.16 112.30 C 96.85 107.50 99.69 102.78 102.43 98.00 C 99.30 98.00 96.18 98.00 93.05 98.00 C 88.58 84.93 84.31 71.80 79.88 58.71 Z" />
<path fill="#000000" opacity="1.00" d=" M 114.83 89.53 C 124.16 79.47 133.05 69.00 142.46 59.02 C 137.97 71.79 133.89 84.70 129.51 97.50 C 126.39 98.32 122.34 98.56 119.18 97.26 C 117.89 94.60 116.28 92.11 114.83 89.53 Z" />
<path fill="#000000" opacity="1.00" d=" M 119.93 127.65 C 122.97 126.89 126.11 127.06 129.21 126.93 C 133.85 139.87 137.89 153.04 142.44 166.02 C 133.06 156.02 124.13 145.58 114.84 135.49 C 116.67 132.98 117.54 129.66 119.93 127.65 Z" />
</g>
</svg>
