<?xml version="1.0" encoding="UTF-8" ?>
<!DOCTYPE svg PUBLIC "-//W3C//DTD SVG 1.1//EN" "http://www.w3.org/Graphics/SVG/1.1/DTD/svg11.dtd">
<svg width="239pt" height="210pt" viewBox="0 0 239 210" version="1.1" xmlns="http://www.w3.org/2000/svg">
<g id="#ffffffff">
</g>
<g id="#070707ff">
<path fill="#070707" opacity="1.00" d=" M 67.03 15.32 C 69.85 11.02 75.10 8.07 80.31 9.29 C 84.60 9.78 87.97 13.08 89.77 16.84 C 91.38 16.14 93.04 15.55 94.67 14.89 C 96.77 16.24 98.42 18.09 100.14 19.86 C 102.41 20.33 104.67 19.51 106.93 19.33 C 117.96 18.37 129.01 19.56 140.03 20.08 C 143.38 20.72 143.84 15.82 146.98 15.89 C 149.19 15.54 152.09 18.34 153.72 15.92 C 156.14 12.67 159.65 9.59 163.99 9.94 C 170.61 9.49 176.92 15.19 177.04 21.85 C 177.41 24.55 176.03 26.96 174.94 29.31 C 176.80 30.85 178.62 32.63 179.19 35.09 C 178.94 36.68 178.03 38.08 177.69 39.66 C 177.72 43.22 180.90 45.43 182.78 48.11 C 190.26 56.57 195.52 66.59 200.40 76.69 C 202.30 78.19 205.34 77.29 207.66 78.08 C 208.47 79.67 209.23 81.29 210.04 82.89 C 215.26 82.42 221.11 84.67 223.36 89.68 C 225.81 94.00 225.36 100.87 220.60 103.38 C 217.73 105.17 214.59 106.58 211.11 106.31 C 211.61 108.43 211.36 110.50 209.83 112.15 C 208.27 112.40 206.72 112.65 205.18 112.97 C 204.56 121.54 201.60 129.63 198.75 137.66 C 194.35 151.10 184.70 161.80 175.21 171.92 C 178.01 175.43 175.54 179.46 172.13 181.27 C 172.01 181.85 171.78 182.99 171.66 183.57 C 174.12 187.92 174.38 193.91 170.83 197.75 C 167.10 202.33 160.40 203.17 155.15 200.90 C 152.82 198.87 150.59 196.69 149.19 193.89 C 147.98 194.21 146.77 194.53 145.57 194.87 C 142.88 194.19 140.58 192.61 139.46 189.99 C 133.40 191.25 127.20 191.33 121.07 192.00 C 112.53 192.08 104.03 190.97 95.57 189.87 C 93.60 193.29 89.53 192.43 86.26 192.35 C 84.47 194.55 83.88 197.68 81.37 199.30 C 76.23 203.54 67.90 202.35 63.91 197.11 C 60.25 192.80 60.44 185.97 64.17 181.75 C 66.62 178.55 61.66 175.88 62.62 172.38 C 56.16 167.48 51.10 160.97 46.98 154.05 C 42.68 147.38 38.79 140.44 35.49 133.21 C 31.63 132.51 27.73 130.30 27.44 125.95 C 21.79 126.17 15.62 123.58 13.65 117.92 C 11.33 112.32 14.17 105.97 19.24 103.04 C 21.73 102.90 24.22 102.64 26.70 102.45 C 26.53 101.02 26.29 99.60 25.99 98.20 C 26.92 95.21 29.70 93.68 32.55 92.96 C 34.13 82.23 37.42 71.63 43.35 62.48 C 49.35 54.52 53.92 45.25 62.08 39.15 C 64.70 37.61 65.51 34.56 64.35 31.83 C 63.13 29.33 67.84 28.60 66.98 26.13 C 65.20 22.72 65.80 18.81 67.03 15.32 M 73.34 11.24 C 70.19 12.61 68.20 15.75 67.31 18.96 C 65.47 26.87 74.76 34.38 82.13 31.21 C 85.03 30.29 87.32 27.95 88.47 25.17 C 90.65 19.66 87.42 12.72 81.86 10.77 C 79.15 9.52 75.98 10.09 73.34 11.24 M 159.24 12.25 C 156.46 13.95 154.09 16.74 153.73 20.08 C 152.67 26.14 157.48 33.13 163.94 33.00 C 170.31 33.75 176.44 27.56 175.63 21.18 C 174.94 13.72 165.91 8.57 159.24 12.25 M 90.23 18.56 C 90.71 19.97 90.43 22.12 92.27 22.61 C 94.09 23.78 97.24 22.16 97.01 19.94 C 97.37 18.03 95.37 17.22 94.26 16.11 C 92.91 16.92 91.56 17.73 90.23 18.56 M 144.38 19.55 C 144.63 20.35 145.12 21.95 145.37 22.75 C 147.94 24.56 150.73 23.44 152.14 20.80 C 150.95 17.34 146.33 15.92 144.38 19.55 M 97.60 22.19 C 95.48 24.66 90.99 22.59 89.71 25.83 C 87.41 31.23 80.83 33.98 75.26 32.65 C 74.39 33.12 73.50 33.57 72.60 33.99 C 71.19 35.35 69.32 35.97 67.53 36.66 C 62.99 39.65 58.92 43.36 55.36 47.46 C 50.80 53.69 46.55 60.16 42.29 66.62 C 37.73 75.48 34.24 85.15 34.00 95.21 C 34.79 96.39 35.56 97.63 35.82 99.04 C 35.14 100.94 33.87 102.56 32.85 104.29 C 38.42 108.32 39.35 116.43 35.15 121.80 C 37.12 124.57 38.79 127.94 36.41 131.06 C 39.38 139.61 44.35 147.22 48.97 154.95 C 52.51 160.77 56.94 166.08 62.33 170.28 C 64.31 171.33 66.71 170.65 68.86 171.10 C 71.04 171.25 71.64 173.68 72.45 175.32 C 73.22 176.02 73.99 176.72 74.76 177.43 C 79.11 178.12 83.35 180.45 85.13 184.67 C 85.72 184.63 86.89 184.53 87.47 184.48 C 90.66 182.33 94.05 184.68 95.16 187.85 C 110.06 191.83 125.74 191.32 140.79 188.48 C 141.13 187.91 141.83 186.79 142.18 186.22 C 142.74 185.95 143.84 185.39 144.40 185.12 C 146.06 185.45 147.74 185.66 149.43 185.41 C 150.84 182.66 153.04 180.30 155.86 179.00 C 159.02 177.18 162.95 178.81 166.10 176.89 C 166.62 173.59 169.53 171.82 172.72 171.86 C 176.81 168.83 179.88 164.74 183.25 160.98 C 188.16 155.05 193.01 148.88 195.79 141.61 C 199.52 131.63 203.78 121.50 203.94 110.67 C 202.05 108.34 203.01 105.29 202.80 102.57 C 201.17 100.00 199.37 97.15 199.92 93.95 C 200.01 90.65 202.58 88.10 202.65 84.80 L 201.28 83.66 C 199.35 78.96 197.61 74.14 195.24 69.61 C 190.66 59.25 183.29 50.45 175.92 41.96 C 174.29 39.81 171.37 39.22 169.83 37.01 C 168.90 35.46 167.12 35.00 165.60 34.28 C 159.89 34.90 154.75 30.79 152.78 25.64 C 150.07 24.67 147.12 24.53 144.51 23.26 C 139.84 21.70 135.01 20.67 130.08 20.44 C 119.25 19.98 108.18 19.30 97.60 22.19 M 67.85 28.77 C 67.09 29.36 65.57 30.54 64.81 31.13 C 65.20 34.08 67.58 35.51 70.42 35.26 C 71.29 34.05 71.98 32.73 72.32 31.28 C 70.88 30.35 69.41 29.46 67.85 28.77 M 171.95 32.13 C 171.22 33.45 170.54 34.79 169.89 36.14 C 171.01 37.16 172.12 38.24 173.54 38.87 C 174.94 37.89 176.11 36.63 177.29 35.40 C 176.91 34.10 176.21 32.97 175.25 32.03 C 174.43 32.06 172.77 32.11 171.95 32.13 M 202.30 79.49 C 200.28 80.91 201.88 84.14 204.02 84.38 C 206.17 85.24 207.00 82.68 207.69 81.20 C 206.18 80.06 204.28 77.98 202.30 79.49 M 207.12 85.20 C 199.68 88.48 198.91 101.30 207.17 103.96 C 211.45 106.46 216.20 104.34 220.32 102.67 C 222.57 100.22 223.94 96.80 223.17 93.46 C 222.52 86.17 213.44 81.64 207.12 85.20 M 28.13 99.96 C 29.53 102.97 33.34 101.89 35.21 99.95 C 34.78 98.79 34.36 97.62 33.91 96.48 C 32.92 96.02 31.94 95.56 30.96 95.08 C 29.40 96.24 26.78 97.63 28.13 99.96 M 24.06 103.04 C 18.84 103.38 14.29 107.94 14.06 113.20 C 13.45 120.33 21.17 126.38 27.99 124.50 C 33.52 123.39 37.33 117.61 36.32 112.09 C 35.41 106.45 29.54 102.71 24.06 103.04 M 204.12 108.85 C 205.20 111.46 208.50 111.41 209.61 108.85 C 209.38 108.06 208.92 106.47 208.69 105.67 C 206.43 104.23 202.71 105.96 204.12 108.85 M 31.98 124.08 C 30.47 124.80 29.76 126.51 30.00 128.12 C 30.97 130.18 33.92 131.87 35.71 129.74 C 39.19 127.56 35.32 122.45 31.98 124.08 M 64.52 172.80 C 64.53 173.58 64.53 175.13 64.53 175.91 C 64.98 176.37 65.88 177.31 66.33 177.78 C 69.07 179.96 73.34 174.98 70.18 172.77 C 68.75 170.84 66.26 172.06 64.52 172.80 M 168.86 173.75 C 166.23 175.44 167.48 178.29 169.07 180.19 C 171.51 179.66 173.79 178.56 174.98 176.24 C 173.93 173.90 171.22 171.48 168.86 173.75 M 63.05 186.20 C 60.44 193.15 66.72 201.39 74.09 200.91 C 82.56 200.92 88.65 189.06 82.24 182.78 C 79.77 179.09 75.19 178.83 71.19 178.73 C 67.61 179.99 64.14 182.37 63.05 186.20 M 157.04 179.85 C 151.80 181.51 149.35 187.28 150.19 192.44 C 151.34 194.69 152.38 197.11 154.37 198.77 C 157.40 201.14 161.62 201.63 165.23 200.46 C 169.31 198.64 172.71 194.52 172.26 189.84 C 172.14 182.61 163.75 176.97 157.04 179.85 M 86.53 189.67 C 88.46 190.37 90.59 192.00 92.60 190.57 C 95.41 188.62 93.17 184.01 90.05 184.07 C 87.45 184.71 87.28 187.58 86.53 189.67 M 144.07 186.06 C 141.49 186.59 141.62 189.53 142.39 191.50 C 143.73 191.97 145.07 193.30 146.56 192.77 C 148.41 192.10 148.44 189.94 149.01 188.37 C 147.67 187.05 146.20 185.29 144.07 186.06 Z" />
<path fill="#070707" opacity="1.00" d=" M 106.10 27.18 C 120.08 25.35 134.53 26.22 147.83 31.12 C 148.14 31.41 148.74 31.99 149.05 32.28 C 145.19 36.84 143.12 42.53 140.01 47.57 C 138.67 42.08 135.46 36.17 129.89 34.04 C 126.68 33.19 124.77 37.33 126.09 39.84 C 127.04 41.79 128.44 43.47 129.62 45.29 C 131.63 48.08 132.76 51.57 135.66 53.63 C 135.53 54.20 135.27 55.32 135.14 55.88 C 134.91 55.86 134.44 55.81 134.20 55.78 C 130.74 50.97 129.11 44.66 124.03 41.17 C 120.83 42.81 117.42 47.24 119.95 50.74 C 123.29 56.19 126.77 61.57 129.48 67.37 C 125.92 73.36 122.53 79.46 119.35 85.65 C 118.55 85.04 118.00 84.25 117.70 83.29 C 115.75 78.04 113.56 72.85 110.62 68.07 C 112.15 62.83 117.24 59.42 117.77 53.78 C 117.87 50.25 116.95 45.71 112.92 44.78 C 109.19 47.87 107.50 52.54 106.66 57.17 C 105.50 56.04 104.32 54.90 103.58 53.44 C 107.11 53.24 107.35 49.19 108.87 46.80 C 110.47 42.87 112.99 38.82 112.51 34.44 C 112.04 33.80 111.09 32.52 110.61 31.88 C 108.91 32.19 107.23 32.59 105.61 33.18 C 103.65 37.90 100.63 42.69 101.35 48.01 L 99.95 48.15 C 98.18 42.33 95.27 36.92 92.72 31.41 C 97.19 30.03 101.50 28.10 106.10 27.18 M 105.16 28.58 C 101.90 29.62 97.37 29.71 96.02 33.48 C 96.62 36.78 98.37 39.76 99.81 42.75 C 101.84 38.78 102.53 34.07 105.91 30.89 C 108.40 30.63 110.93 30.80 113.14 32.08 C 115.11 35.51 113.51 39.32 112.41 42.74 C 114.29 43.92 116.38 44.85 117.91 46.50 C 118.92 44.70 120.04 42.96 121.21 41.26 C 124.35 40.79 124.69 37.70 125.08 35.11 C 125.82 34.39 126.56 33.65 127.31 32.92 C 128.10 32.89 129.69 32.81 130.48 32.78 C 135.36 34.90 138.20 39.44 140.53 43.99 C 142.23 40.77 144.07 37.62 145.67 34.35 C 145.57 33.81 145.38 32.72 145.28 32.18 C 142.41 29.72 138.17 29.51 134.54 28.82 C 124.92 26.53 114.84 26.97 105.16 28.58 M 112.42 67.83 C 114.82 72.29 116.51 77.10 119.12 81.44 C 122.48 77.01 125.15 72.06 127.81 67.17 C 125.08 62.35 122.31 57.54 119.75 52.63 C 118.68 58.33 114.85 62.74 112.42 67.83 Z" />
<path fill="#070707" opacity="1.00" d=" M 164.36 40.75 C 170.77 43.47 175.91 48.54 179.44 54.48 C 186.43 63.83 191.84 74.44 194.51 85.85 C 187.96 87.16 181.26 87.41 174.61 87.80 C 176.26 83.82 179.46 80.75 181.25 76.85 C 183.64 72.32 175.74 66.74 172.95 71.73 C 169.91 77.43 168.18 83.79 164.41 89.12 C 164.08 88.88 163.40 88.40 163.07 88.16 C 164.99 83.64 169.83 77.21 164.36 73.31 C 162.52 74.11 160.54 74.71 158.88 75.87 C 154.99 80.01 152.89 85.44 151.58 90.89 C 145.89 91.41 140.18 91.68 134.47 91.95 C 137.41 86.53 141.24 81.64 143.95 76.08 C 149.82 74.46 156.48 75.62 161.74 71.94 C 162.52 70.72 163.02 69.36 163.57 68.03 C 159.78 63.88 153.97 66.65 149.18 66.28 C 149.65 65.19 150.15 64.12 150.68 63.06 C 151.76 62.93 152.57 63.35 153.12 64.34 C 159.09 63.90 165.40 64.75 171.04 62.27 C 172.82 61.40 172.50 58.82 171.49 57.47 C 167.65 54.14 161.91 54.66 157.56 56.56 C 156.48 56.91 155.58 58.27 154.36 57.77 C 157.61 52.06 160.74 46.23 164.36 40.75 M 163.10 45.04 C 161.27 48.30 159.18 51.41 157.46 54.73 C 161.78 54.17 166.58 52.90 170.59 55.27 C 172.84 56.23 175.02 59.07 173.39 61.46 C 171.75 64.97 167.10 64.05 164.06 65.35 C 164.44 67.49 164.80 69.71 163.52 71.67 C 166.36 71.40 167.49 73.85 168.50 76.03 C 169.85 73.83 170.84 71.37 172.59 69.44 C 174.44 68.08 176.82 68.33 178.97 68.59 C 180.29 70.07 181.94 71.29 182.94 73.03 C 183.75 75.16 182.70 77.34 182.18 79.40 C 180.69 81.57 179.60 83.98 178.53 86.37 C 183.07 85.97 187.59 85.51 192.10 84.85 C 190.33 73.58 184.46 63.51 177.68 54.53 C 174.71 49.95 170.88 45.85 166.15 43.07 C 165.06 43.60 163.53 43.69 163.10 45.04 M 145.07 77.07 C 143.53 79.53 142.21 82.12 140.61 84.55 C 139.53 86.40 137.67 88.12 138.25 90.47 C 142.34 89.82 147.02 90.67 150.68 88.65 C 152.27 83.81 154.03 78.92 157.48 75.04 C 153.43 76.24 149.18 76.21 145.07 77.07 Z" />
<path fill="#070707" opacity="1.00" d=" M 58.82 53.89 C 63.62 49.44 68.24 44.66 73.97 41.38 C 75.98 41.80 76.17 43.96 76.94 45.52 C 78.58 50.00 82.15 53.52 83.47 58.14 C 78.42 57.18 73.45 54.82 68.24 55.38 C 64.79 55.64 61.27 60.88 64.47 63.42 C 66.69 64.30 69.15 64.62 71.54 64.53 C 76.02 65.60 80.52 66.82 85.15 67.04 C 87.43 64.42 88.45 67.14 89.07 69.20 C 83.11 68.51 77.26 67.13 71.39 65.91 C 70.40 67.87 69.77 69.97 69.17 72.07 C 70.15 73.41 71.19 74.71 72.34 75.90 C 79.60 76.02 86.80 76.64 94.06 76.72 C 97.28 82.86 100.89 88.85 103.92 95.11 C 96.01 94.93 88.26 96.67 80.42 97.38 C 78.45 93.67 75.31 90.79 72.76 87.50 C 70.39 85.10 68.54 81.37 64.80 81.06 C 62.57 80.61 60.72 82.89 61.23 85.04 C 61.05 91.31 68.31 93.58 69.83 99.11 C 68.50 99.15 67.17 99.18 65.85 99.20 C 66.16 98.76 66.80 97.88 67.12 97.44 C 62.68 93.44 59.71 87.75 54.15 85.11 C 50.62 85.48 48.66 89.45 50.40 92.48 C 52.51 95.57 55.44 97.93 58.35 100.22 C 54.09 100.76 49.84 101.35 45.58 101.83 C 44.33 101.85 43.09 101.90 41.85 101.96 C 40.32 90.67 44.66 79.80 48.51 69.42 C 51.35 63.90 54.80 58.63 58.82 53.89 M 59.83 54.82 C 55.75 59.63 52.29 65.00 49.36 70.59 C 46.53 79.16 43.33 87.71 42.63 96.81 C 43.33 97.98 44.07 99.12 44.85 100.24 C 48.05 100.01 51.25 99.76 54.42 99.23 C 52.67 97.30 50.87 95.42 48.99 93.63 C 48.29 90.71 47.52 86.37 50.86 84.80 C 53.56 83.13 56.50 84.79 59.30 85.19 C 59.69 82.93 60.52 80.09 63.19 79.76 C 66.51 79.19 69.40 81.27 71.29 83.80 C 74.71 87.87 78.27 91.82 81.43 96.10 C 87.15 95.32 92.84 94.40 98.59 93.84 C 99.26 93.12 99.94 92.40 100.63 91.69 C 98.07 87.16 95.70 82.53 93.15 78.00 C 90.26 78.00 87.36 78.14 84.49 77.79 C 80.07 76.98 75.55 78.04 71.15 77.02 C 69.87 75.52 68.13 74.08 67.97 71.96 C 67.79 69.80 69.72 67.31 67.55 65.61 C 65.85 65.00 63.46 65.44 62.57 63.50 C 61.36 62.01 62.11 59.94 61.95 58.19 C 63.65 56.76 65.03 54.74 67.25 54.09 C 72.06 53.06 76.73 55.28 81.39 56.13 C 78.37 52.24 77.08 46.95 73.01 43.96 C 67.87 46.55 63.99 50.96 59.83 54.82 Z" />
<path fill="#070707" opacity="1.00" d=" M 116.43 100.41 C 119.28 98.68 123.12 101.80 122.37 104.94 C 121.45 108.73 115.58 109.85 113.65 106.23 C 111.44 103.98 114.53 101.50 116.43 100.41 M 113.93 103.85 C 114.59 104.95 115.37 105.97 116.27 106.88 C 117.93 107.37 119.48 106.49 120.99 105.92 C 120.99 105.14 121.00 103.57 121.00 102.79 C 120.00 102.25 119.01 101.72 118.02 101.17 C 116.64 102.04 115.28 102.93 113.93 103.85 Z" />
<path fill="#070707" opacity="1.00" d=" M 178.53 107.25 C 184.93 107.11 191.27 106.38 197.64 105.86 C 198.64 119.27 193.52 132.07 187.81 143.91 C 181.21 154.88 172.60 166.13 159.99 170.29 C 157.61 164.42 154.34 158.92 152.34 152.91 C 157.19 152.93 162.06 153.05 166.91 152.72 C 169.48 152.54 170.08 149.62 170.17 147.53 C 165.82 142.53 158.56 143.18 152.61 143.62 C 152.00 143.92 150.80 144.50 150.20 144.79 C 150.05 143.62 149.86 142.45 149.81 141.27 C 150.27 141.60 151.18 142.26 151.64 142.58 C 155.29 142.19 158.92 141.59 162.48 140.66 C 163.16 139.96 163.86 139.27 164.56 138.59 C 164.67 138.06 164.90 137.00 165.01 136.47 C 163.90 135.04 162.84 133.57 161.66 132.20 C 156.04 131.62 150.57 133.36 145.00 133.71 C 140.76 126.77 138.55 118.81 134.62 111.70 C 137.96 110.22 141.68 110.28 145.25 110.28 C 147.57 110.09 149.89 110.01 152.21 109.90 C 155.84 116.06 159.82 122.35 165.75 126.54 C 168.62 127.87 170.88 125.61 172.92 123.94 C 172.49 121.35 172.07 118.66 170.30 116.59 C 168.85 113.78 166.71 111.45 164.59 109.13 C 165.14 108.90 166.23 108.43 166.78 108.20 C 170.04 113.76 173.07 119.90 178.48 123.71 C 180.63 125.29 183.28 124.17 185.61 123.72 C 189.41 116.91 181.51 112.36 178.53 107.25 M 182.85 108.73 C 184.72 113.86 191.23 119.13 186.98 124.82 C 186.05 125.29 185.13 125.76 184.21 126.25 C 182.68 126.19 181.14 126.14 179.61 126.10 C 177.78 125.22 175.90 124.44 173.99 123.73 C 173.28 129.60 165.43 129.31 161.86 126.19 C 157.11 122.21 154.91 115.94 149.85 112.16 C 146.33 111.78 142.78 111.63 139.25 112.01 C 138.86 113.21 138.46 114.42 138.06 115.62 C 140.67 120.82 142.72 126.28 145.28 131.51 C 149.37 131.31 153.47 130.91 157.52 130.30 C 160.04 130.50 162.56 130.91 164.88 131.97 C 166.11 134.32 167.50 136.76 166.60 139.50 C 165.09 143.84 171.63 144.46 171.79 148.38 C 172.78 150.83 170.59 152.63 169.16 154.29 C 164.36 154.53 159.55 154.43 154.75 154.40 C 156.90 158.93 157.84 164.27 161.50 167.90 C 168.79 165.05 174.58 159.55 179.46 153.59 C 183.31 148.58 187.11 143.34 189.24 137.34 C 193.70 128.11 196.85 118.08 196.39 107.72 C 191.87 108.01 187.37 108.49 182.85 108.73 Z" />
<path fill="#070707" opacity="1.00" d=" M 82.74 117.00 C 89.67 117.10 96.35 114.33 103.28 114.91 C 99.39 121.32 94.88 127.40 91.95 134.35 C 85.71 135.44 79.21 134.34 73.14 136.35 C 71.68 138.86 71.59 141.88 74.13 143.73 C 78.79 142.99 83.48 142.35 88.18 141.86 C 87.41 143.13 86.63 144.39 85.88 145.68 C 84.10 142.61 80.75 144.95 78.07 144.97 C 73.97 145.08 69.56 145.62 66.37 148.48 C 65.15 149.96 65.96 152.01 65.92 153.74 C 71.29 155.43 76.99 153.95 82.36 152.95 C 78.87 158.10 75.73 163.50 73.21 169.20 C 66.86 165.91 62.78 159.90 58.28 154.60 C 51.55 146.22 46.43 136.54 43.98 126.05 C 43.78 124.07 42.67 121.75 44.03 119.98 C 48.79 119.25 53.64 118.75 58.47 118.71 C 56.36 123.04 52.52 126.63 51.87 131.68 C 51.16 133.78 53.76 134.82 54.88 136.15 C 56.68 135.75 58.78 135.77 60.09 134.26 C 64.16 130.44 65.91 124.95 68.83 120.31 C 68.84 119.72 68.85 118.53 68.86 117.93 C 69.79 117.91 71.67 117.87 72.61 117.84 C 71.94 118.80 71.23 119.73 70.48 120.63 C 68.69 124.34 66.12 127.85 65.82 132.08 C 66.24 132.54 67.09 133.44 67.51 133.90 C 68.84 133.89 70.17 133.90 71.51 133.91 C 75.84 129.83 78.97 124.73 82.28 119.83 C 82.39 119.12 82.62 117.71 82.74 117.00 M 84.94 118.20 C 80.92 123.92 77.72 130.28 72.59 135.15 C 78.24 132.66 84.76 134.69 90.53 132.58 C 93.61 127.37 97.18 122.36 99.63 116.80 C 94.69 116.09 89.89 118.25 84.94 118.20 M 44.80 122.62 C 45.77 127.48 47.14 132.28 48.85 136.94 C 54.23 147.83 61.33 158.11 70.73 165.92 C 71.70 165.48 72.67 165.05 73.65 164.64 C 75.42 161.57 77.13 158.46 78.60 155.24 C 74.08 155.59 69.37 156.80 65.00 155.00 C 64.26 152.99 63.14 150.49 64.59 148.51 C 66.04 146.21 69.21 145.86 70.61 143.54 C 70.77 140.63 69.87 137.36 72.17 135.00 C 70.32 135.59 68.41 135.39 66.53 135.11 C 65.79 134.40 65.00 133.74 64.17 133.13 C 61.51 134.62 59.37 137.51 56.02 137.28 C 53.36 137.83 51.66 135.37 49.78 133.99 C 50.19 128.94 53.35 124.89 54.92 120.24 C 51.52 120.61 47.62 120.36 44.80 122.62 Z" />
<path fill="#070707" opacity="1.00" d=" M 117.48 124.34 C 121.27 130.79 123.31 138.15 127.28 144.55 C 124.11 148.43 119.99 151.88 119.17 157.13 C 120.25 158.52 121.45 159.81 122.81 160.94 C 125.07 158.41 127.14 155.72 128.76 152.73 C 129.51 151.09 131.40 151.80 132.76 151.83 C 132.54 152.45 132.10 153.70 131.88 154.32 C 131.52 154.23 130.79 154.06 130.43 153.97 C 127.15 158.02 123.64 162.07 121.76 167.00 C 120.92 169.11 122.22 171.09 123.20 172.87 C 123.85 173.02 125.14 173.32 125.78 173.47 C 130.01 171.43 132.81 167.32 134.17 162.94 C 134.56 162.74 135.35 162.35 135.75 162.15 C 137.95 166.99 139.06 172.34 142.11 176.76 C 143.08 177.94 143.83 180.32 141.62 180.53 C 131.45 184.18 120.35 183.51 109.75 182.65 C 103.73 182.22 98.04 180.09 92.17 178.86 C 91.37 178.23 90.56 177.61 89.76 176.98 C 91.55 171.80 95.13 167.49 97.14 162.39 C 99.25 164.18 100.14 166.98 102.05 168.97 C 104.28 171.63 107.41 174.96 111.25 173.71 C 113.75 173.66 112.56 170.59 112.29 169.16 C 110.12 164.68 107.57 160.35 104.38 156.51 C 103.30 155.90 101.81 155.56 101.82 154.03 C 102.69 153.52 103.59 153.05 104.50 152.62 C 105.93 157.04 108.89 161.71 114.02 161.93 C 115.77 160.61 116.39 158.41 116.19 156.30 C 114.38 151.49 110.64 147.83 107.51 143.88 C 111.31 137.61 114.94 131.23 117.48 124.34 M 109.78 143.54 C 112.24 147.51 115.76 150.79 117.58 155.15 C 119.48 151.29 122.25 148.01 125.02 144.75 C 123.30 139.08 120.09 133.97 117.99 128.43 C 115.03 133.34 112.47 138.48 109.78 143.54 M 117.77 158.66 C 117.55 159.49 117.11 161.16 116.89 161.99 C 115.69 162.50 114.48 162.99 113.26 163.46 C 112.86 164.06 112.47 164.66 112.07 165.26 C 114.26 168.08 114.72 171.82 113.09 175.03 C 110.99 175.26 108.80 175.89 106.72 175.19 C 102.73 173.13 100.20 169.26 97.76 165.64 C 95.89 168.53 94.12 171.50 92.40 174.49 C 92.87 178.66 97.58 178.26 100.61 179.56 C 112.15 182.32 124.31 182.89 136.00 180.68 C 137.52 180.28 139.51 179.96 139.99 178.17 C 138.46 173.99 137.20 169.71 135.54 165.57 C 132.95 169.23 130.54 173.86 125.89 175.12 C 123.69 175.91 122.09 173.87 120.79 172.45 C 118.81 169.37 121.07 165.75 121.10 162.43 C 119.96 161.20 118.90 159.90 117.77 158.66 Z" />
</g>
</svg>
