<?xml version="1.0" encoding="UTF-8" ?>
<!DOCTYPE svg PUBLIC "-//W3C//DTD SVG 1.1//EN" "http://www.w3.org/Graphics/SVG/1.1/DTD/svg11.dtd">
<svg width="186pt" height="197pt" viewBox="0 0 186 197" version="1.1" xmlns="http://www.w3.org/2000/svg">
<g id="#ffffffff">
</g>
<g id="#000000ff">
<path fill="#000000" opacity="1.00" d=" M 85.72 0.50 C 90.39 0.49 95.06 0.51 99.74 0.49 C 99.78 10.11 99.73 19.73 99.76 29.35 C 107.92 24.51 116.08 19.67 124.25 14.83 C 124.25 19.28 124.25 23.73 124.25 28.19 C 116.07 33.50 107.95 38.90 99.77 44.22 C 99.74 49.05 99.76 53.88 99.75 58.70 C 107.91 54.01 116.05 49.26 124.23 44.59 C 124.27 54.23 124.25 63.88 124.24 73.53 C 128.23 71.10 132.27 68.78 136.26 66.36 C 136.22 56.97 136.28 47.58 136.23 38.20 C 140.57 35.77 144.89 33.33 149.25 30.96 C 149.24 40.34 149.28 49.72 149.23 59.11 C 159.28 53.30 169.30 47.43 179.34 41.59 C 181.60 45.31 183.81 49.05 185.99 52.81 C 176.49 58.59 166.79 64.04 157.15 69.59 C 165.52 74.43 173.92 79.22 182.27 84.09 C 178.01 86.76 173.70 89.35 169.36 91.91 C 161.61 87.52 153.79 83.24 146.05 78.82 C 144.91 78.33 143.60 77.07 142.36 78.12 C 138.74 79.98 135.27 82.13 131.70 84.09 C 139.64 89.16 147.65 94.13 155.63 99.14 C 147.44 104.05 139.20 108.89 130.99 113.76 C 134.95 116.25 139.04 118.50 143.09 120.84 C 151.88 116.27 160.62 111.61 169.39 106.98 C 173.83 109.12 178.29 111.22 182.68 113.47 C 174.44 118.28 166.09 122.90 157.91 127.80 C 166.92 134.18 176.76 139.37 186.00 145.44 L 186.00 146.94 L 185.95 145.61 C 183.73 149.02 181.60 152.49 179.41 155.91 C 169.55 150.98 159.87 145.72 150.02 140.75 C 149.93 149.76 149.59 158.77 149.33 167.79 C 144.79 165.51 140.33 163.09 135.75 160.89 C 135.74 150.32 135.77 139.75 135.74 129.18 C 132.16 127.83 128.59 126.46 125.00 125.13 C 125.00 134.91 125.01 144.69 124.99 154.48 C 116.55 149.58 108.19 144.54 99.77 139.61 C 99.74 144.43 99.75 149.26 99.75 154.08 C 107.76 158.51 115.76 162.97 123.76 167.42 C 123.74 172.63 123.75 177.84 123.75 183.05 C 115.93 178.47 108.08 173.95 100.25 169.38 C 100.26 178.50 100.25 187.63 100.25 196.75 C 95.42 196.76 90.58 196.75 85.75 196.75 C 85.76 187.75 85.73 178.76 85.77 169.76 C 77.50 174.19 69.27 178.66 61.00 183.08 C 61.00 178.78 61.00 174.48 61.00 170.18 C 68.69 164.92 76.46 159.78 84.19 154.58 C 84.29 149.73 84.24 144.89 84.24 140.04 C 76.51 144.63 68.77 149.19 61.01 153.73 C 60.98 144.33 61.02 134.93 60.99 125.52 C 56.98 127.28 52.95 129.00 48.97 130.82 C 49.03 140.83 48.98 150.83 49.00 160.84 C 44.79 163.11 40.51 165.26 36.24 167.41 C 36.26 158.03 36.24 148.65 36.25 139.26 C 26.37 144.81 16.56 150.46 6.62 155.91 C 4.42 152.68 2.16 149.48 0.00 146.21 L 0.00 146.14 C 9.60 140.56 19.25 135.06 28.81 129.42 C 20.73 124.33 12.58 119.34 4.54 114.19 C 7.87 111.77 11.27 109.44 14.58 106.98 C 22.51 110.62 30.37 114.39 38.21 118.22 C 42.72 116.04 47.18 113.76 51.67 111.54 C 44.46 107.40 37.24 103.27 30.00 99.16 C 37.47 94.74 45.00 90.41 52.47 85.99 C 48.91 83.38 45.32 80.82 41.76 78.21 C 33.38 82.66 24.98 87.05 16.64 91.56 C 12.45 89.49 8.28 87.37 4.08 85.32 C 11.90 80.51 19.82 75.86 27.71 71.17 C 18.46 64.99 9.57 58.21 0.00 52.55 L 0.00 51.39 C 2.27 48.66 3.71 45.38 5.51 42.34 C 15.75 47.78 25.98 53.22 36.23 58.64 C 36.29 49.51 36.20 40.38 36.28 31.25 C 39.70 33.19 43.11 35.14 46.49 37.14 C 47.22 46.92 47.95 56.70 48.79 66.47 C 52.86 69.05 56.92 71.66 61.00 74.23 C 61.00 64.09 60.99 53.95 61.00 43.81 C 69.54 48.81 77.98 53.98 86.53 58.98 C 86.59 54.19 86.25 49.42 86.23 44.64 C 78.02 39.79 69.80 34.96 61.54 30.21 C 61.47 25.64 61.51 21.06 61.47 16.49 C 69.80 20.66 78.00 25.09 86.27 29.39 C 85.85 19.76 86.25 10.12 85.72 0.50 Z" />
</g>
</svg>
