<?xml version="1.0" encoding="UTF-8" ?>
<!DOCTYPE svg PUBLIC "-//W3C//DTD SVG 1.1//EN" "http://www.w3.org/Graphics/SVG/1.1/DTD/svg11.dtd">
<svg width="225pt" height="225pt" viewBox="0 0 225 225" version="1.1" xmlns="http://www.w3.org/2000/svg">
<g id="#ffffffff">
</g>
<g id="#010506ff">
<path fill="#010506" opacity="1.00" d=" M 110.12 5.28 C 111.25 3.96 111.20 0.33 113.60 1.05 C 114.26 2.36 114.87 3.70 115.33 5.09 C 115.06 7.28 113.67 9.18 112.88 11.21 C 111.88 9.27 110.96 7.30 110.12 5.28 Z" />
<path fill="#010506" opacity="1.00" d=" M 108.58 27.05 C 109.95 24.04 111.18 20.95 112.92 18.12 C 114.39 21.05 115.87 23.99 117.02 27.07 C 115.88 30.12 114.47 33.07 112.91 35.93 C 111.09 33.17 109.94 30.05 108.58 27.05 Z" />
<path fill="#010506" opacity="1.00" d=" M 32.69 32.44 C 34.74 33.06 36.77 33.76 38.78 34.48 C 39.61 36.51 40.41 38.55 41.20 40.59 C 39.24 39.93 37.21 39.41 35.35 38.47 C 34.19 36.60 33.55 34.46 32.69 32.44 Z" />
<path fill="#010506" opacity="1.00" d=" M 186.53 35.37 C 188.40 34.18 190.54 33.55 192.56 32.69 C 191.94 34.73 191.25 36.76 190.54 38.77 C 188.51 39.61 186.46 40.42 184.40 41.20 C 185.05 39.24 185.60 37.22 186.53 35.37 Z" />
<path fill="#010506" opacity="1.00" d=" M 104.29 36.03 C 107.43 37.88 110.09 40.38 112.83 42.75 C 115.64 40.43 118.25 37.86 121.42 36.01 C 120.22 42.43 115.50 47.82 115.77 54.56 C 118.60 52.61 121.16 50.22 124.38 48.93 C 122.42 53.83 119.36 58.17 116.91 62.83 C 115.77 64.66 116.26 66.91 116.08 68.94 C 122.05 62.83 127.12 55.82 133.47 50.09 C 131.52 61.31 127.55 72.10 124.97 83.20 C 131.02 73.65 135.70 63.24 142.24 54.02 C 142.71 62.55 141.28 71.05 141.22 79.58 C 142.36 78.38 143.66 77.29 144.54 75.86 C 146.41 70.57 147.32 64.97 149.44 59.76 C 150.91 62.83 150.97 66.28 151.53 69.57 C 156.87 65.32 156.78 57.67 160.98 52.59 C 161.39 56.23 161.81 59.87 162.20 63.52 C 165.73 63.75 169.30 63.80 172.78 64.59 C 167.75 68.73 160.11 68.57 155.92 73.93 C 159.18 74.50 162.50 74.77 165.74 75.51 C 159.71 79.74 150.69 78.05 145.80 84.23 C 154.35 83.89 162.88 83.26 171.43 82.92 C 170.53 83.90 169.53 84.75 168.43 85.47 C 159.67 90.57 150.76 95.39 142.08 100.62 C 153.00 97.86 163.78 94.58 174.70 91.84 C 173.58 94.52 171.01 96.05 169.00 97.97 C 164.74 101.91 160.24 105.57 156.07 109.59 C 163.86 110.44 169.09 103.10 176.31 101.54 C 174.56 104.44 172.39 107.06 170.48 109.86 C 177.20 110.32 182.53 105.27 188.97 104.29 C 187.10 107.42 184.60 110.09 182.24 112.85 C 184.58 115.64 187.15 118.25 188.98 121.43 C 182.58 120.21 177.18 115.51 170.45 115.77 C 172.37 118.59 174.77 121.14 176.05 124.36 C 170.69 122.27 166.07 118.71 160.87 116.32 C 159.27 116.09 157.65 116.13 156.05 116.07 C 162.12 122.08 169.27 127.01 174.80 133.53 C 163.63 131.37 152.81 127.64 141.76 124.90 C 151.29 131.02 161.73 135.69 170.97 142.22 C 162.46 142.73 153.97 141.28 145.46 141.22 C 146.65 142.35 147.70 143.69 149.12 144.54 C 154.42 146.42 160.02 147.31 165.24 149.45 C 162.17 150.90 158.72 150.97 155.44 151.55 C 159.70 156.88 167.34 156.77 172.41 160.98 C 168.79 161.45 165.14 161.69 161.55 162.29 C 161.12 165.79 161.26 169.36 160.38 172.80 C 156.32 167.73 156.42 160.15 151.10 155.93 C 150.48 159.18 150.23 162.50 149.48 165.74 C 145.27 159.71 146.94 150.69 140.76 145.81 C 141.11 150.87 141.18 155.95 141.54 161.01 C 141.65 164.52 142.41 168.05 141.58 171.53 C 135.43 161.94 130.27 151.75 124.37 142.01 C 127.07 152.96 130.48 163.73 133.11 174.69 C 132.04 174.20 131.10 173.53 130.29 172.68 C 125.29 167.16 120.48 161.48 115.40 156.04 C 114.58 163.84 121.89 169.08 123.46 176.32 C 120.58 174.57 117.97 172.42 115.20 170.52 C 114.64 177.21 119.72 182.52 120.73 188.92 C 117.55 187.14 114.92 184.58 112.16 182.23 C 109.38 184.57 106.74 187.13 103.59 189.00 C 104.78 182.61 109.47 177.22 109.20 170.51 C 106.36 172.39 103.84 174.81 100.61 176.04 C 102.63 171.15 105.66 166.77 108.13 162.11 C 109.22 160.29 108.74 158.07 108.93 156.06 C 102.96 162.18 97.87 169.16 91.54 174.92 C 93.44 163.70 97.46 152.94 100.00 141.85 C 93.98 151.38 89.28 161.76 82.77 170.97 C 82.28 162.45 83.72 153.97 83.78 145.45 C 82.49 146.91 80.69 148.11 80.12 150.06 C 78.51 155.10 77.54 160.33 75.55 165.23 C 74.11 162.16 74.02 158.72 73.45 155.43 C 68.14 159.71 68.22 167.32 64.03 172.41 C 63.59 168.77 63.19 165.13 62.81 161.48 C 59.42 161.26 56.01 161.19 52.66 160.60 C 52.80 160.30 53.10 159.70 53.25 159.40 C 58.50 156.53 65.13 155.88 69.14 151.06 C 65.85 150.52 62.52 150.23 59.26 149.49 C 65.27 145.23 74.31 146.96 79.19 140.77 C 70.66 141.11 62.13 141.75 53.60 142.07 C 56.12 139.22 59.74 137.85 62.91 135.91 C 69.54 132.03 76.33 128.42 82.87 124.40 C 71.96 127.12 61.21 130.44 50.30 133.16 C 51.43 130.49 53.98 128.95 56.00 127.03 C 60.26 123.09 64.76 119.42 68.94 115.41 C 61.14 114.57 55.92 121.91 48.68 123.46 C 50.43 120.58 52.57 117.97 54.48 115.20 C 47.79 114.68 42.45 119.65 36.07 120.78 C 37.86 117.58 40.39 114.91 42.76 112.15 C 40.42 109.36 37.85 106.74 36.02 103.58 C 42.40 104.78 47.79 109.48 54.50 109.20 C 52.60 106.39 50.23 103.84 48.95 100.65 C 53.88 102.60 58.23 105.68 62.90 108.13 C 64.73 109.19 66.94 108.74 68.95 108.93 C 62.88 102.92 55.74 97.97 50.18 91.48 C 61.36 93.60 72.19 97.37 83.24 100.11 C 73.70 93.98 63.26 89.29 53.98 82.77 C 62.51 82.30 71.01 83.71 79.54 83.79 C 78.34 82.65 77.27 81.32 75.85 80.44 C 70.56 78.60 64.97 77.68 59.76 75.56 C 62.83 74.10 66.28 74.03 69.56 73.46 C 65.30 68.13 57.69 68.21 52.60 64.05 C 56.23 63.60 59.86 63.17 63.50 62.81 C 63.76 59.26 63.78 55.67 64.62 52.19 C 68.70 57.28 68.58 64.91 73.96 69.09 C 74.49 65.81 74.77 62.50 75.51 59.26 C 79.74 65.28 78.05 74.31 84.24 79.19 C 84.16 70.61 82.68 62.01 83.38 53.46 C 89.60 63.01 94.69 73.26 100.65 82.98 C 97.90 72.04 94.54 61.26 91.88 50.30 C 92.97 50.80 93.91 51.48 94.73 52.34 C 99.72 57.85 104.52 63.53 109.60 68.96 C 110.44 61.15 103.09 55.93 101.54 48.68 C 104.44 50.44 107.07 52.61 109.86 54.52 C 110.33 47.80 105.28 42.47 104.29 36.03 M 112.59 65.82 C 110.84 68.47 110.91 71.31 112.67 73.92 C 113.31 72.52 113.93 71.11 114.54 69.70 C 113.90 68.40 113.25 67.10 112.59 65.82 M 104.22 73.78 C 104.10 77.94 103.81 82.08 103.53 86.22 C 105.39 88.66 108.20 90.61 108.89 93.76 C 106.90 92.61 105.15 91.12 103.40 89.64 C 103.24 92.01 103.09 94.39 102.71 96.75 C 100.57 94.12 101.42 90.48 100.89 87.37 C 97.72 84.50 94.58 81.60 91.36 78.78 C 91.77 83.22 92.14 87.66 92.44 92.11 C 88.10 91.55 83.74 91.22 79.37 90.98 C 82.16 94.06 84.75 97.36 87.84 100.15 C 90.78 100.72 93.80 100.60 96.74 101.21 C 94.79 102.89 92.12 102.42 89.77 102.69 C 91.06 104.60 94.01 106.05 93.58 108.59 C 91.00 107.08 88.91 104.90 86.62 103.01 C 82.34 103.06 78.05 103.29 73.78 103.61 C 77.15 106.42 80.45 109.33 83.86 112.10 C 80.55 115.07 77.06 117.84 73.74 120.80 C 77.91 120.89 82.06 121.21 86.22 121.46 C 88.60 119.43 90.87 117.24 93.58 115.63 C 92.99 118.05 91.15 119.77 89.61 121.60 C 91.99 121.77 94.38 121.93 96.75 122.30 C 94.13 124.44 90.48 123.58 87.37 124.10 C 84.50 127.28 81.60 130.43 78.77 133.64 C 83.21 133.24 87.66 132.86 92.12 132.57 C 91.54 136.91 91.24 141.28 90.93 145.65 C 94.04 142.87 97.36 140.27 100.13 137.15 C 100.73 134.22 100.57 131.19 101.20 128.27 C 102.91 130.20 102.40 132.88 102.69 135.23 C 104.60 134.07 106.13 130.67 108.56 131.60 C 106.98 134.06 104.88 136.12 103.00 138.35 C 103.08 142.64 103.29 146.92 103.60 151.20 C 106.47 147.87 109.36 144.55 112.08 141.09 C 115.05 144.40 117.78 147.92 120.78 151.21 C 120.90 147.06 121.19 142.92 121.47 138.77 C 119.41 136.42 117.23 134.14 115.65 131.42 C 118.03 132.06 119.76 133.85 121.60 135.36 C 121.78 132.98 121.93 130.60 122.30 128.24 C 124.41 130.88 123.60 134.50 124.10 137.62 C 127.27 140.49 130.42 143.39 133.64 146.22 C 133.23 141.78 132.86 137.33 132.56 132.89 C 136.89 133.46 141.26 133.78 145.63 134.01 C 142.85 130.93 140.25 127.67 137.19 124.88 C 134.24 124.24 131.19 124.44 128.24 123.80 C 130.21 122.16 132.85 122.58 135.21 122.30 C 133.53 120.47 131.85 118.62 130.62 116.44 C 133.78 117.35 135.88 120.00 138.34 121.99 C 142.63 121.95 146.92 121.71 151.21 121.40 C 147.86 118.55 144.56 115.65 141.11 112.93 C 144.39 109.93 147.93 107.22 151.22 104.22 C 147.06 104.10 142.92 103.79 138.78 103.54 C 136.39 105.56 134.13 107.76 131.42 109.35 C 132.04 106.95 133.85 105.22 135.40 103.39 C 133.01 103.24 130.62 103.09 128.26 102.71 C 130.85 100.55 134.52 101.43 137.62 100.90 C 140.50 97.73 143.40 94.58 146.22 91.36 C 141.78 91.76 137.34 92.16 132.90 92.44 C 133.46 88.09 133.74 83.70 134.09 79.33 C 130.89 82.05 127.82 84.91 124.73 87.75 C 124.49 90.76 124.36 93.78 123.78 96.74 C 122.11 94.79 122.59 92.14 122.32 89.79 C 120.47 91.47 118.59 93.13 116.45 94.42 C 117.29 91.22 120.02 89.14 122.00 86.65 C 121.95 82.36 121.70 78.08 121.40 73.80 C 118.52 77.13 115.64 80.45 112.93 83.91 C 109.95 80.60 107.21 77.09 104.22 73.78 M 79.62 79.29 C 80.18 80.73 80.75 82.17 81.32 83.61 C 82.64 84.04 83.96 84.48 85.29 84.92 C 84.79 83.59 84.28 82.27 83.78 80.95 C 82.40 80.39 81.01 79.84 79.62 79.29 M 141.44 81.30 C 140.99 82.63 140.53 83.96 140.08 85.29 C 141.39 84.79 142.70 84.29 144.02 83.79 C 144.60 82.40 145.16 81.00 145.72 79.61 C 144.29 80.16 142.86 80.73 141.44 81.30 M 65.79 112.39 C 68.43 114.13 71.26 114.11 73.88 112.36 C 72.53 111.72 71.16 111.08 69.80 110.45 C 68.46 111.09 67.12 111.73 65.79 112.39 M 151.09 112.68 C 152.43 113.29 153.76 113.97 155.18 114.39 C 156.61 114.01 157.93 113.30 159.28 112.71 C 157.89 112.12 156.55 111.41 155.09 111.02 C 153.72 111.46 152.41 112.09 151.09 112.68 M 79.19 145.39 C 80.66 144.84 82.12 144.28 83.57 143.71 C 84.03 142.34 84.48 140.97 84.93 139.60 C 81.86 140.24 79.93 142.39 79.19 145.39 M 139.69 140.08 C 140.20 141.40 140.71 142.72 141.21 144.04 C 142.60 144.61 144.00 145.16 145.40 145.72 C 144.84 144.28 144.27 142.86 143.70 141.43 C 142.36 140.98 141.03 140.53 139.69 140.08 M 110.48 155.28 C 111.08 156.57 111.69 157.86 112.30 159.15 C 112.91 157.79 113.52 156.45 114.13 155.10 C 113.50 153.77 112.87 152.45 112.25 151.12 C 111.65 152.50 111.06 153.89 110.48 155.28 Z" />
<path fill="#010506" opacity="1.00" d=" M 45.93 45.63 C 49.06 46.48 52.22 47.38 55.10 48.88 C 56.84 51.76 57.66 55.11 58.62 58.31 C 55.46 57.29 52.37 56.05 49.28 54.82 C 48.14 51.77 46.98 48.72 45.93 45.63 Z" />
<path fill="#010506" opacity="1.00" d=" M 170.19 49.27 C 173.25 48.14 176.30 46.98 179.38 45.91 C 178.53 49.06 177.63 52.27 176.05 55.15 C 173.19 56.86 169.86 57.67 166.68 58.62 C 167.71 55.45 168.95 52.36 170.19 49.27 Z" />
<path fill="#010506" opacity="1.00" d=" M 110.45 93.91 C 109.84 91.11 111.81 88.70 112.84 86.26 C 113.87 88.71 115.79 91.14 115.23 93.95 C 114.38 98.91 114.22 104.02 112.79 108.87 C 111.55 103.97 111.18 98.90 110.45 93.91 Z" />
<path fill="#010506" opacity="1.00" d=" M 94.22 93.67 C 96.68 94.78 99.85 95.09 101.43 97.54 C 104.38 101.60 107.60 105.46 110.29 109.69 C 105.23 106.93 100.98 102.94 96.30 99.62 C 95.58 97.64 94.88 95.66 94.22 93.67 Z" />
<path fill="#010506" opacity="1.00" d=" M 125.37 96.29 C 127.36 95.59 129.34 94.88 131.34 94.22 C 130.22 96.65 129.94 99.81 127.53 101.39 C 123.43 104.32 119.57 107.59 115.31 110.29 C 118.07 105.23 122.07 100.99 125.37 96.29 Z" />
<path fill="#010506" opacity="1.00" d=" M 18.28 112.09 C 21.08 110.48 24.04 109.14 27.05 107.98 C 30.15 109.11 33.09 110.61 36.05 112.07 C 33.21 113.80 30.12 115.05 27.09 116.40 C 24.13 115.03 20.98 113.97 18.28 112.09 Z" />
<path fill="#010506" opacity="1.00" d=" M 188.95 112.93 C 191.80 111.22 194.87 109.92 197.92 108.59 C 200.90 109.95 203.95 111.15 206.79 112.81 C 203.97 114.45 201.01 115.88 197.94 117.02 C 194.84 115.92 191.91 114.36 188.95 112.93 Z" />
<path fill="#010506" opacity="1.00" d=" M 1.00 111.50 C 2.39 110.75 3.83 110.12 5.25 109.45 C 7.25 110.30 9.24 111.20 11.21 112.12 C 9.28 113.11 7.32 114.04 5.32 114.88 C 3.92 113.81 0.55 113.82 1.00 111.50 Z" />
<path fill="#010506" opacity="1.00" d=" M 86.31 112.22 C 88.69 111.10 91.10 109.18 93.88 109.76 C 98.84 110.66 104.03 110.64 108.81 112.35 C 103.26 113.32 97.67 114.21 92.04 114.68 C 90.04 114.11 88.19 113.10 86.31 112.22 Z" />
<path fill="#010506" opacity="1.00" d=" M 213.83 112.87 C 215.75 111.87 217.72 110.94 219.73 110.10 C 221.12 111.20 224.53 111.22 223.98 113.57 C 222.65 114.25 221.30 114.89 219.88 115.35 C 217.70 115.04 215.82 113.70 213.83 112.87 Z" />
<path fill="#010506" opacity="1.00" d=" M 116.19 112.64 C 121.74 111.68 127.33 110.79 132.95 110.32 C 134.97 110.87 136.82 111.87 138.69 112.77 C 136.29 113.91 133.86 115.83 131.06 115.23 C 126.12 114.32 120.94 114.39 116.19 112.64 Z" />
<path fill="#010506" opacity="1.00" d=" M 97.52 123.60 C 101.59 120.65 105.46 117.40 109.70 114.70 C 106.98 119.77 102.93 123.97 99.66 128.68 C 97.67 129.40 95.67 130.11 93.67 130.78 C 94.77 128.33 95.07 125.16 97.52 123.60 Z" />
<path fill="#010506" opacity="1.00" d=" M 123.61 127.51 C 120.72 123.43 117.35 119.67 114.85 115.32 C 119.78 118.20 124.06 122.05 128.69 125.37 C 129.42 127.34 130.13 129.33 130.78 131.33 C 128.34 130.23 125.19 129.93 123.61 127.51 Z" />
<path fill="#010506" opacity="1.00" d=" M 109.78 130.98 C 110.64 126.04 110.77 120.96 112.22 116.14 C 113.43 121.05 113.85 126.12 114.55 131.12 C 115.15 133.89 113.17 136.28 112.20 138.71 C 111.07 136.27 109.13 133.80 109.78 130.98 Z" />
<path fill="#010506" opacity="1.00" d=" M 48.96 169.84 C 51.83 168.15 55.13 167.30 58.31 166.36 C 57.28 169.53 56.07 172.65 54.79 175.73 C 51.74 176.86 48.70 178.02 45.62 179.09 C 46.46 175.93 47.37 172.73 48.96 169.84 Z" />
<path fill="#010506" opacity="1.00" d=" M 166.41 166.69 C 169.56 167.72 172.65 168.94 175.72 170.18 C 176.86 173.24 178.01 176.30 179.10 179.38 C 175.95 178.52 172.76 177.62 169.86 176.10 C 168.17 173.21 167.31 169.90 166.41 166.69 Z" />
<path fill="#010506" opacity="1.00" d=" M 34.48 186.21 C 36.51 185.38 38.55 184.59 40.60 183.82 C 39.92 185.76 39.40 187.79 38.47 189.64 C 36.60 190.82 34.45 191.45 32.44 192.31 C 33.06 190.26 33.76 188.23 34.48 186.21 Z" />
<path fill="#010506" opacity="1.00" d=" M 183.80 184.40 C 185.77 185.07 187.81 185.60 189.67 186.54 C 190.81 188.42 191.46 190.54 192.30 192.56 C 190.26 191.94 188.24 191.25 186.22 190.54 C 185.39 188.50 184.59 186.46 183.80 184.40 Z" />
<path fill="#010506" opacity="1.00" d=" M 112.07 188.95 C 113.80 191.80 115.06 194.89 116.41 197.93 C 115.03 200.93 113.85 204.04 112.08 206.84 C 110.59 203.94 109.14 201.01 107.97 197.96 C 109.10 194.86 110.62 191.91 112.07 188.95 Z" />
<path fill="#010506" opacity="1.00" d=" M 109.44 219.76 C 110.30 217.76 111.20 215.78 112.14 213.82 C 113.05 215.80 114.39 217.70 114.68 219.90 C 114.12 221.72 113.11 223.37 112.11 224.99 C 111.15 223.28 110.30 221.51 109.44 219.76 Z" />
</g>
</svg>
