<?xml version="1.0" encoding="UTF-8" ?>
<!DOCTYPE svg PUBLIC "-//W3C//DTD SVG 1.1//EN" "http://www.w3.org/Graphics/SVG/1.1/DTD/svg11.dtd">
<svg width="225pt" height="225pt" viewBox="0 0 225 225" version="1.1" xmlns="http://www.w3.org/2000/svg">
<g id="#ffffffff">
</g>
<g id="#000000ff">
<path fill="#000000" opacity="1.00" d=" M 52.86 22.17 C 51.73 16.91 58.22 11.98 62.88 14.86 C 66.73 17.17 67.84 22.01 70.43 25.45 C 74.36 22.54 77.53 17.01 83.06 17.61 C 88.05 18.04 90.84 24.65 87.66 28.53 C 84.51 31.90 80.82 34.72 77.41 37.83 C 80.76 43.36 83.87 49.03 87.19 54.59 C 89.52 49.45 91.75 44.25 94.22 39.18 C 95.62 36.14 99.40 34.52 102.56 35.64 C 106.22 36.71 108.45 41.20 106.87 44.74 C 103.64 52.42 99.93 59.90 96.56 67.53 C 94.78 70.27 98.02 72.67 98.97 75.11 C 106.69 68.92 118.29 68.91 126.01 75.10 C 127.09 73.22 128.18 71.35 129.30 69.50 C 125.74 61.47 121.98 53.53 118.40 45.51 C 116.40 41.85 118.44 36.76 122.47 35.62 C 125.63 34.53 129.40 36.15 130.79 39.20 C 133.26 44.27 135.48 49.46 137.83 54.60 C 141.11 49.03 144.24 43.36 147.59 37.83 C 144.18 34.69 140.42 31.89 137.28 28.47 C 134.16 24.55 137.03 17.96 142.03 17.59 C 147.53 17.06 150.66 22.59 154.61 25.45 C 157.14 21.98 158.27 17.15 162.12 14.86 C 166.78 11.97 173.23 16.90 172.14 22.15 C 171.04 25.90 168.49 29.01 166.76 32.48 C 171.16 34.45 177.46 34.41 179.83 39.29 C 182.04 43.81 177.95 49.56 172.99 49.01 C 168.37 48.06 164.07 46.03 159.53 44.81 C 156.40 50.44 153.14 56.00 149.87 61.56 C 155.24 60.96 160.62 60.56 165.99 60.00 C 169.75 59.26 173.69 62.16 174.14 65.94 C 174.72 69.64 171.82 73.51 168.03 73.75 C 159.16 74.67 150.27 75.57 141.38 76.36 C 140.26 78.28 139.15 80.20 138.00 82.11 C 147.38 85.57 153.30 95.78 151.57 105.65 C 153.73 105.63 155.89 105.62 158.06 105.62 C 163.28 98.35 168.41 91.00 173.70 83.77 C 175.49 81.09 179.34 80.15 182.21 81.57 C 185.91 83.09 187.48 88.11 185.24 91.43 C 182.08 96.28 178.48 100.84 175.20 105.61 C 181.68 105.64 188.16 105.58 194.64 105.65 C 195.73 101.05 196.13 96.27 197.68 91.79 C 199.68 87.25 206.57 86.59 209.42 90.64 C 212.74 95.14 209.27 100.70 208.87 105.60 C 212.57 105.69 216.29 105.37 219.97 105.83 C 222.70 106.49 224.26 109.08 225.00 111.61 L 225.00 113.45 C 224.23 115.96 222.65 118.56 219.91 119.18 C 216.25 119.62 212.55 119.31 208.88 119.39 C 209.24 124.31 212.80 129.90 209.39 134.40 C 206.49 138.38 199.68 137.72 197.69 133.19 C 196.13 128.72 195.72 123.94 194.64 119.35 C 188.16 119.41 181.69 119.38 175.21 119.37 C 178.47 124.17 182.08 128.72 185.24 133.58 C 187.65 137.12 185.64 142.40 181.61 143.68 C 178.58 144.84 174.97 143.47 173.31 140.73 C 168.21 133.62 163.14 126.49 158.05 119.37 C 155.89 119.38 153.73 119.37 151.57 119.35 C 153.27 129.20 147.39 139.41 138.01 142.86 C 139.15 144.77 140.27 146.69 141.37 148.63 C 149.96 149.34 158.52 150.33 167.10 151.10 C 169.91 151.16 172.63 152.78 173.68 155.45 C 175.72 159.82 171.88 165.41 167.07 165.04 C 161.33 164.56 155.60 164.02 149.87 163.43 C 153.20 169.00 156.38 174.65 159.65 180.25 C 164.09 178.87 168.38 176.98 172.93 175.96 C 177.95 175.38 182.06 181.19 179.81 185.74 C 177.40 190.56 171.16 190.55 166.76 192.52 C 168.50 195.99 171.04 199.11 172.14 202.87 C 173.22 208.12 166.78 212.98 162.11 210.14 C 158.28 207.83 157.13 203.02 154.60 199.55 C 150.66 202.40 147.53 207.90 142.05 207.39 C 137.00 207.06 134.11 200.35 137.33 196.46 C 140.47 193.08 144.19 190.30 147.57 187.17 C 144.23 181.64 141.14 175.96 137.79 170.43 C 135.47 175.56 133.25 180.75 130.77 185.82 C 129.00 189.89 123.07 190.99 119.91 187.90 C 117.53 185.81 116.97 182.18 118.44 179.40 C 122.02 171.46 125.62 163.53 129.30 155.64 C 128.20 153.73 127.10 151.81 126.02 149.88 C 118.29 156.08 106.69 156.09 98.96 149.89 C 97.99 151.83 96.35 153.66 95.95 155.76 C 99.24 164.06 103.42 172.00 106.86 180.24 C 108.43 183.77 106.22 188.31 102.53 189.36 C 99.37 190.45 95.57 188.85 94.19 185.79 C 91.73 180.72 89.52 175.53 87.16 170.42 C 83.86 175.97 80.74 181.64 77.40 187.17 C 80.80 190.28 84.51 193.08 87.65 196.47 C 90.81 200.33 88.04 206.98 83.04 207.37 C 77.47 207.99 74.36 202.37 70.33 199.54 C 67.72 203.18 66.61 208.47 62.22 210.43 C 57.26 212.79 51.14 207.10 53.10 201.94 C 54.45 198.62 56.59 195.69 58.24 192.52 C 54.63 191.23 50.82 190.39 47.44 188.54 C 43.97 186.17 43.61 180.55 46.83 177.81 C 48.70 176.07 51.52 175.42 53.92 176.39 C 57.79 177.58 61.57 179.08 65.47 180.19 C 68.60 174.55 71.85 168.98 75.14 163.43 C 69.42 164.03 63.69 164.55 57.96 165.04 C 54.13 165.34 50.60 161.75 50.78 157.94 C 50.81 154.60 53.57 151.48 56.94 151.23 C 65.83 150.33 74.72 149.41 83.63 148.63 C 84.72 146.70 85.84 144.78 86.97 142.88 C 77.62 139.39 71.69 129.21 73.41 119.34 C 71.25 119.37 69.10 119.38 66.94 119.38 C 61.70 126.66 56.55 134.02 51.24 141.25 C 49.29 144.11 45.04 144.97 42.13 143.07 C 38.85 141.30 37.66 136.59 39.77 133.51 C 42.96 128.70 46.51 124.13 49.80 119.39 C 43.31 119.36 36.82 119.41 30.33 119.36 C 29.27 123.94 28.86 128.70 27.33 133.16 C 25.34 137.71 18.49 138.42 15.61 134.39 C 12.21 129.89 15.74 124.31 16.12 119.39 C 12.44 119.31 8.72 119.62 5.05 119.18 C 2.33 118.53 0.76 115.96 0.00 113.46 L 0.00 111.55 C 0.77 109.05 2.34 106.45 5.07 105.82 C 8.74 105.38 12.44 105.69 16.13 105.61 C 15.73 100.70 12.24 95.17 15.56 90.66 C 18.40 86.58 25.36 87.24 27.32 91.84 C 28.88 96.30 29.25 101.07 30.34 105.64 C 36.82 105.60 43.30 105.62 49.79 105.63 C 46.60 101.03 43.21 96.57 40.06 91.96 C 37.82 89.08 38.47 84.46 41.46 82.36 C 44.37 79.99 49.17 80.62 51.27 83.75 C 56.57 90.98 61.70 98.33 66.93 105.62 C 69.09 105.62 71.25 105.62 73.41 105.64 C 71.70 95.78 77.60 85.58 86.98 82.12 C 85.84 80.21 84.72 78.28 83.61 76.36 C 75.05 75.65 66.51 74.66 57.96 73.91 C 54.59 73.88 51.40 71.45 50.87 68.05 C 50.04 63.93 53.77 59.63 57.96 59.95 C 63.69 60.43 69.42 60.98 75.14 61.57 C 71.79 56.00 68.62 50.32 65.32 44.73 C 60.89 46.13 56.60 48.05 52.04 49.00 C 47.08 49.62 42.91 43.82 45.17 39.30 C 47.54 34.42 53.82 34.44 58.24 32.49 C 56.50 29.02 53.97 25.92 52.86 22.17 M 108.21 85.77 C 109.75 86.42 111.10 87.92 112.84 87.91 C 114.22 87.29 115.51 86.48 116.83 85.72 C 114.21 83.89 110.78 83.78 108.21 85.77 M 86.87 102.82 C 88.46 102.01 90.04 101.17 91.60 100.29 C 91.58 98.61 91.54 96.93 91.49 95.25 C 88.59 96.71 87.06 99.67 86.87 102.82 M 133.51 95.25 C 133.46 96.93 133.42 98.61 133.40 100.29 C 134.95 101.16 136.53 102.00 138.13 102.81 C 137.94 99.66 136.38 96.73 133.51 95.25 M 112.47 104.34 C 110.10 105.71 107.71 107.07 105.32 108.41 C 105.32 111.13 105.32 113.84 105.33 116.56 C 107.71 117.92 110.11 119.28 112.48 120.66 C 114.87 119.29 117.27 117.93 119.66 116.57 C 119.68 113.85 119.68 111.13 119.67 108.41 C 117.27 107.06 114.88 105.69 112.47 104.34 M 86.87 122.18 C 87.05 125.32 88.59 128.27 91.49 129.70 C 91.54 128.04 91.58 126.37 91.61 124.70 C 90.04 123.83 88.47 122.99 86.87 122.18 M 133.40 124.68 C 133.42 126.35 133.45 128.03 133.50 129.71 C 136.41 128.27 137.91 125.31 138.14 122.18 C 136.54 122.98 134.97 123.82 133.40 124.68 M 108.19 139.50 C 110.90 141.01 114.05 141.04 116.78 139.53 C 115.55 138.59 114.30 137.67 112.88 137.04 C 111.05 137.05 109.67 138.60 108.19 139.50 Z" />
</g>
</svg>
