<?xml version="1.0" encoding="UTF-8" ?>
<!DOCTYPE svg PUBLIC "-//W3C//DTD SVG 1.1//EN" "http://www.w3.org/Graphics/SVG/1.1/DTD/svg11.dtd">
<svg width="1027pt" height="1179pt" viewBox="0 0 1027 1179" version="1.1" xmlns="http://www.w3.org/2000/svg">
<g id="#000000ff">
<path fill="#000000" opacity="1.00" d=" M 490.20 22.94 C 490.41 10.64 501.60 -0.18 513.95 0.33 C 526.00 0.33 536.59 11.00 536.80 22.98 C 536.90 37.60 536.83 52.22 536.83 66.83 C 539.91 63.62 543.57 60.68 548.06 59.82 C 555.80 57.96 564.40 61.70 568.37 68.58 C 572.62 75.51 571.64 85.17 565.96 91.01 C 556.30 100.78 546.53 110.43 536.84 120.17 C 536.85 147.78 536.83 175.38 536.85 202.99 C 551.71 188.15 566.55 173.29 581.40 158.44 C 585.04 155.04 588.12 150.83 592.70 148.61 C 600.22 144.82 610.12 146.94 615.40 153.52 C 621.45 160.50 621.12 171.94 614.59 178.50 C 588.70 204.46 562.75 230.35 536.84 256.29 C 536.85 295.16 536.83 334.03 536.85 372.91 C 581.36 337.74 625.68 302.33 670.29 267.29 C 671.73 257.15 679.20 248.09 689.14 245.29 C 703.48 240.73 720.37 250.54 723.74 265.15 C 726.36 275.14 722.27 286.22 714.19 292.52 C 706.04 348.69 697.64 404.82 689.40 460.97 C 723.07 441.53 756.76 422.11 790.42 402.63 C 799.35 369.20 808.33 335.77 817.27 302.34 C 818.36 298.34 819.13 294.08 821.71 290.71 C 826.65 283.70 836.64 280.97 844.45 284.56 C 852.65 287.95 857.52 297.66 855.21 306.26 C 849.02 329.52 842.75 352.76 836.54 376.02 C 860.45 362.23 884.34 348.41 908.25 334.62 C 911.84 321.41 915.30 308.16 918.93 294.96 C 920.82 288.12 926.99 282.79 933.99 281.75 C 941.71 280.40 949.96 284.53 953.56 291.48 C 956.41 296.51 956.20 302.60 954.47 307.96 C 966.85 300.78 979.24 293.62 991.64 286.50 C 997.97 282.83 1006.01 282.26 1012.72 285.21 C 1020.67 288.46 1026.32 296.49 1026.78 305.05 C 1027.37 313.80 1022.57 322.57 1014.98 326.90 C 1002.60 334.09 990.19 341.24 977.78 348.39 C 983.05 349.51 988.23 352.11 991.21 356.77 C 995.56 362.99 995.51 371.85 991.13 378.04 C 986.88 384.35 978.56 387.58 971.17 385.63 C 957.96 382.16 944.79 378.53 931.58 375.05 C 907.70 388.89 883.77 402.64 859.90 416.47 C 882.96 422.66 906.02 428.82 929.09 435.02 C 935.03 436.52 940.06 441.11 942.08 446.91 C 944.55 453.60 942.74 461.62 937.62 466.59 C 933.00 471.26 925.85 473.19 919.52 471.44 C 884.25 462.01 849.00 452.54 813.74 443.10 C 780.08 462.55 746.41 481.97 712.77 501.43 C 765.47 522.38 818.28 543.08 870.94 564.16 C 876.38 562.17 882.41 561.52 888.05 563.14 C 896.08 565.24 902.88 571.35 905.89 579.08 C 909.77 589.27 907.64 601.87 899.50 609.41 C 892.10 616.67 880.48 618.68 870.94 614.83 C 818.28 635.90 765.48 656.62 712.76 677.56 C 746.38 697.04 780.07 716.38 813.67 735.88 C 849.20 726.47 884.66 716.81 920.18 707.40 C 928.99 705.15 938.81 710.45 941.91 718.97 C 944.89 726.33 942.49 735.37 936.29 740.32 C 932.95 743.22 928.53 744.16 924.38 745.25 C 902.88 750.99 881.39 756.76 859.89 762.52 C 883.77 776.35 907.70 790.10 931.58 803.93 C 944.54 800.51 957.49 797.00 970.44 793.54 C 975.44 792.11 981.00 792.81 985.42 795.56 C 993.05 800.01 996.54 810.17 993.23 818.36 C 990.86 824.97 984.55 829.36 977.81 830.63 C 988.53 836.76 999.21 842.98 1009.92 849.14 C 1013.81 851.39 1017.96 853.48 1020.91 856.98 C 1026.68 863.42 1028.52 873.16 1025.14 881.17 C 1021.95 889.35 1013.74 895.16 1005.00 895.62 C 1000.07 896.00 995.14 894.60 990.92 892.11 C 978.77 885.08 966.60 878.09 954.47 871.03 C 955.68 875.21 956.39 879.75 955.01 884.00 C 953.06 890.81 946.97 896.19 939.96 897.23 C 933.03 898.45 925.61 895.31 921.59 889.55 C 919.18 886.29 918.42 882.23 917.38 878.41 C 914.36 867.08 911.30 855.75 908.28 844.42 C 884.39 830.58 860.46 816.79 836.55 802.99 C 842.70 826.00 848.87 849.00 855.04 872.01 C 856.52 877.24 855.66 883.08 852.61 887.60 C 848.84 893.39 841.70 896.74 834.83 895.90 C 827.39 895.16 820.73 889.55 818.81 882.31 C 809.32 847.00 799.86 811.68 790.41 776.37 C 756.75 756.89 723.07 737.46 689.40 718.02 C 697.65 774.19 706.03 830.34 714.21 886.51 C 718.59 890.07 722.00 894.88 723.50 900.36 C 726.05 909.02 723.67 918.91 717.50 925.48 C 710.76 932.54 700.41 936.59 690.72 934.13 C 680.08 931.83 671.76 922.42 670.28 911.71 C 625.68 876.66 581.35 841.27 536.84 806.10 C 536.82 844.97 536.84 883.84 536.84 922.72 C 560.40 946.30 583.98 969.86 607.55 993.44 C 610.63 996.71 614.22 999.56 616.79 1003.30 C 621.19 1009.96 620.60 1019.40 615.40 1025.47 C 610.42 1031.65 601.33 1033.97 593.99 1030.95 C 589.64 1029.36 586.61 1025.73 583.42 1022.58 C 567.89 1007.06 552.38 991.52 536.84 976.01 C 536.83 1003.61 536.84 1031.22 536.84 1058.82 C 545.21 1067.22 553.60 1075.60 561.99 1083.98 C 564.83 1086.80 567.97 1089.56 569.49 1093.37 C 572.57 1100.32 570.85 1109.03 565.34 1114.27 C 560.10 1119.52 551.64 1121.11 544.84 1118.15 C 541.67 1116.91 539.19 1114.51 536.82 1112.15 C 536.84 1126.46 536.85 1140.76 536.83 1155.07 C 536.84 1162.01 533.63 1168.88 528.27 1173.30 C 522.52 1178.14 514.32 1179.94 507.10 1177.75 C 499.49 1175.61 493.28 1169.30 491.12 1161.72 C 489.93 1157.92 490.15 1153.90 490.14 1149.99 C 490.17 1137.38 490.13 1124.77 490.16 1112.16 C 487.79 1114.51 485.31 1116.91 482.15 1118.15 C 475.13 1121.21 466.36 1119.40 461.17 1113.77 C 456.03 1108.50 454.53 1100.13 457.49 1093.41 C 459.01 1089.59 462.15 1086.82 464.99 1083.99 C 473.38 1075.61 481.77 1067.22 490.15 1058.82 C 490.14 1031.22 490.16 1003.61 490.14 976.01 C 473.09 993.01 456.10 1010.09 439.04 1027.07 C 431.97 1034.19 419.25 1033.88 412.50 1026.49 C 407.22 1021.14 405.74 1012.53 408.89 1005.73 C 410.58 1001.74 413.99 998.94 416.94 995.93 C 441.34 971.52 465.75 947.13 490.15 922.72 C 490.15 883.85 490.16 844.97 490.14 806.10 C 445.63 841.26 401.33 876.69 356.71 911.71 C 355.26 921.88 347.75 930.96 337.77 933.74 C 323.39 938.24 306.49 928.35 303.21 913.69 C 300.67 903.73 304.77 892.76 312.79 886.49 C 320.93 830.32 329.35 774.18 337.59 718.03 C 303.91 737.46 270.23 756.89 236.57 776.36 C 227.63 809.83 218.64 843.29 209.69 876.76 C 208.59 880.76 207.82 885.03 205.20 888.40 C 200.39 895.10 190.92 897.87 183.26 894.75 C 174.65 891.60 169.37 881.57 171.79 872.70 C 177.97 849.45 184.25 826.23 190.45 802.98 C 166.53 816.79 142.60 830.58 118.70 844.42 C 115.16 857.63 111.67 870.86 108.06 884.06 C 105.81 892.24 97.42 898.09 88.96 897.46 C 81.22 897.11 74.10 891.47 71.98 884.01 C 70.60 879.77 71.28 875.23 72.52 871.05 C 61.47 877.49 50.37 883.83 39.31 890.25 C 36.25 892.03 33.18 893.92 29.73 894.85 C 22.52 896.87 14.41 895.17 8.64 890.40 C 2.41 885.39 -0.86 876.96 0.43 869.06 C 1.47 862.03 5.88 855.63 12.03 852.09 C 24.40 844.91 36.79 837.76 49.19 830.64 C 43.92 829.49 38.76 826.87 35.78 822.22 C 31.43 815.99 31.48 807.12 35.88 800.94 C 40.14 794.62 48.47 791.41 55.86 793.39 C 69.04 796.86 82.20 800.44 95.36 803.95 C 119.28 790.15 143.19 776.35 167.09 762.53 C 143.78 756.25 120.44 750.07 97.14 743.74 C 86.99 740.98 81.02 728.78 85.07 719.05 C 87.51 712.44 93.95 707.57 100.98 707.00 C 105.11 706.55 109.08 708.00 113.01 709.03 C 139.06 716.02 165.11 723.00 191.16 729.99 C 198.60 731.79 205.92 734.31 213.44 735.70 C 247.11 716.47 280.64 696.95 314.24 677.57 C 261.53 656.63 208.72 635.91 156.06 614.83 C 150.61 616.84 144.56 617.48 138.93 615.85 C 130.44 613.63 123.33 606.90 120.62 598.56 C 117.61 589.03 119.48 577.75 126.61 570.49 C 133.94 562.57 146.12 560.13 156.07 564.18 C 208.73 543.10 261.53 522.38 314.24 501.44 C 280.64 481.97 246.95 462.65 213.37 443.13 C 177.83 452.51 142.37 462.19 106.84 471.60 C 97.75 473.94 87.63 468.20 84.82 459.28 C 82.17 451.83 84.92 442.94 91.27 438.25 C 94.75 435.47 99.23 434.69 103.40 433.55 C 124.63 427.86 145.87 422.18 167.10 416.48 C 143.20 402.66 119.28 388.86 95.37 375.05 C 82.46 378.52 69.54 381.97 56.63 385.44 C 50.69 387.19 43.97 385.80 39.26 381.78 C 32.59 376.37 30.56 366.19 34.68 358.65 C 37.44 353.02 43.20 349.58 49.20 348.39 C 38.06 341.99 26.95 335.53 15.81 329.12 C 12.70 327.33 9.48 325.59 6.97 322.98 C 1.37 317.32 -1.15 308.73 0.84 300.98 C 2.57 293.76 8.00 287.56 14.95 284.94 C 21.55 282.29 29.28 282.97 35.41 286.53 C 47.80 293.65 60.18 300.79 72.54 307.98 C 70.90 302.86 70.57 297.08 73.09 292.18 C 76.22 285.47 83.60 281.09 91.00 281.55 C 98.77 281.84 106.02 287.47 108.08 295.00 C 111.71 308.20 115.14 321.45 118.76 334.65 C 142.67 348.42 166.55 362.25 190.46 376.02 C 184.30 353.00 178.12 329.97 171.95 306.95 C 170.56 301.96 171.26 296.43 174.00 292.02 C 177.65 285.87 185.03 282.24 192.13 283.10 C 199.57 283.83 206.25 289.42 208.18 296.66 C 217.67 331.98 227.13 367.31 236.58 402.65 C 270.25 422.11 303.93 441.55 337.61 460.99 C 329.37 404.83 320.95 348.70 312.81 292.52 C 304.96 286.39 300.85 275.77 303.07 265.99 C 305.94 251.24 322.59 241.01 337.05 245.06 C 347.36 247.61 355.24 256.87 356.72 267.30 C 401.33 302.33 445.64 337.75 490.15 372.91 C 490.16 334.03 490.16 295.16 490.15 256.29 C 464.41 230.53 438.65 204.78 412.91 179.03 C 407.89 174.22 405.96 166.54 408.11 159.94 C 410.12 153.30 416.08 148.08 422.94 147.01 C 428.93 145.93 435.33 148.04 439.56 152.41 C 456.43 169.26 473.27 186.15 490.15 203.00 C 490.17 175.39 490.15 147.79 490.16 120.19 C 481.45 111.46 472.74 102.74 464.00 94.03 C 459.95 90.43 456.49 85.73 456.09 80.15 C 454.84 70.46 462.36 60.79 472.04 59.58 C 478.92 58.37 485.72 61.72 490.17 66.85 C 490.17 52.21 490.10 37.57 490.20 22.94 M 343.26 294.64 C 352.42 356.31 361.33 418.04 370.67 479.69 C 373.16 482.09 376.74 483.33 379.67 485.28 C 416.49 506.53 453.31 527.81 490.14 549.05 C 490.16 503.05 490.14 457.05 490.15 411.05 C 441.19 372.24 392.23 333.43 343.26 294.64 M 536.84 411.05 C 536.85 457.05 536.83 503.05 536.85 549.05 C 576.69 526.06 616.52 503.05 656.36 480.05 C 665.50 418.25 674.61 356.45 683.72 294.64 C 634.76 333.44 585.79 372.24 536.84 411.05 M 173.01 589.50 C 231.10 612.51 289.18 635.51 347.26 658.51 C 387.11 635.51 426.96 612.51 466.79 589.49 C 426.95 566.50 387.11 543.49 347.26 520.50 C 289.18 543.50 231.09 566.49 173.01 589.50 M 560.20 589.50 C 600.04 612.50 639.88 635.51 679.72 658.50 C 737.81 635.50 795.90 612.51 853.99 589.50 C 795.90 566.49 737.81 543.49 679.72 520.49 C 639.88 543.49 600.03 566.49 560.20 589.50 M 370.56 699.06 C 361.54 760.84 352.33 822.59 343.26 884.36 C 392.23 845.56 441.20 806.76 490.16 767.95 C 490.15 721.94 490.17 675.94 490.15 629.94 C 450.29 652.99 410.36 675.91 370.56 699.06 M 536.85 629.94 C 536.83 675.94 536.85 721.95 536.84 767.95 C 585.80 806.76 634.76 845.56 683.74 884.36 C 674.61 822.54 665.52 760.72 656.34 698.92 C 616.50 675.95 576.69 652.92 536.85 629.94 Z" />
<path fill="#000000" opacity="1.00" d=" M 392.07 378.57 C 400.17 391.97 412.67 402.11 425.96 410.06 C 436.80 416.31 448.56 421.46 461.05 423.15 C 466.73 423.89 472.67 423.72 478.02 421.44 C 471.24 426.18 467.34 433.85 464.61 441.43 C 460.12 454.43 458.62 468.34 459.12 482.04 C 459.62 493.98 461.80 506.03 467.02 516.86 C 459.16 503.75 447.00 493.82 434.10 485.94 C 422.84 479.32 410.57 473.91 397.52 472.24 C 391.99 471.56 386.24 471.87 381.04 474.01 C 387.77 469.48 391.58 461.94 394.34 454.56 C 399.26 440.62 400.72 425.62 399.89 410.93 C 399.18 399.81 397.00 388.63 392.07 378.57 M 410.14 411.94 C 410.77 429.11 408.66 446.62 402.10 462.60 C 419.10 465.76 434.97 473.56 448.99 483.52 C 448.36 466.35 450.48 448.85 457.03 432.87 C 440.03 429.70 424.17 421.90 410.14 411.94 Z" />
<path fill="#000000" opacity="1.00" d=" M 583.63 415.48 C 603.65 408.39 622.87 396.67 635.34 379.13 C 627.06 394.31 624.74 412.02 625.16 429.10 C 625.51 438.82 626.90 448.60 630.14 457.81 C 632.42 464.19 635.74 470.51 641.24 474.71 C 629.53 469.53 616.27 472.77 604.63 476.49 C 584.67 483.66 565.38 495.37 553.12 513.06 C 563.57 493.55 565.18 470.35 562.13 448.76 C 560.05 437.26 556.87 424.47 547.11 417.02 C 558.73 422.34 572.02 419.15 583.63 415.48 M 567.72 429.58 C 573.47 445.89 574.64 463.52 573.03 480.65 C 587.58 471.51 603.79 464.60 620.90 462.28 C 615.13 445.98 613.99 428.34 615.59 411.22 C 601.04 420.33 584.83 427.25 567.72 429.58 Z" />
<path fill="#000000" opacity="1.00" d=" M 679.75 532.55 C 680.57 542.62 687.15 551.01 693.85 558.09 C 705.29 569.65 719.30 578.63 734.42 584.57 C 741.50 587.27 748.91 589.29 756.51 589.75 C 739.20 590.36 722.72 597.15 708.13 606.11 C 698.15 612.48 688.61 620.05 681.91 629.92 C 679.32 633.80 677.33 638.16 676.80 642.84 C 675.38 630.10 666.05 620.18 656.98 611.96 C 640.91 598.33 621.31 587.61 600.05 585.62 C 617.06 585.05 633.29 578.42 647.69 569.70 C 657.90 563.28 667.67 555.60 674.53 545.56 C 677.17 541.65 679.11 537.24 679.75 532.55 M 637.54 586.63 C 652.73 594.67 666.83 605.25 677.39 618.92 C 688.61 605.76 703.32 595.95 718.95 588.76 C 703.76 580.73 689.66 570.16 679.11 556.49 C 667.86 569.62 653.17 579.44 637.54 586.63 Z" />
<path fill="#000000" opacity="1.00" d=" M 345.13 549.03 C 347.70 545.17 349.66 540.82 350.21 536.18 C 351.06 545.50 356.77 553.42 362.89 560.13 C 373.63 571.56 386.95 580.45 401.30 586.70 C 409.48 590.18 418.14 592.75 427.04 593.39 C 410.97 593.83 395.61 599.87 381.82 607.78 C 371.01 614.21 360.70 622.04 353.25 632.30 C 350.24 636.51 347.90 641.30 347.28 646.48 C 346.00 633.95 336.85 624.14 327.99 616.00 C 311.82 602.13 292.02 591.20 270.52 589.23 C 288.02 588.62 304.70 581.68 319.41 572.54 C 329.19 566.24 338.54 558.75 345.13 549.03 M 308.05 590.23 C 323.23 598.26 337.33 608.84 347.88 622.51 C 359.15 609.39 373.82 599.54 389.47 592.37 C 374.28 584.34 360.18 573.76 349.62 560.09 C 338.37 573.23 323.68 583.06 308.05 590.23 Z" />
<path fill="#000000" opacity="1.00" d=" M 559.97 662.14 C 567.84 675.28 580.05 685.23 592.99 693.11 C 604.33 699.77 616.72 705.24 629.90 706.80 C 635.30 707.44 640.89 707.06 645.97 705.00 C 639.23 709.51 635.40 717.06 632.65 724.46 C 627.63 738.69 626.20 754.04 627.17 769.05 C 627.94 779.84 630.14 790.66 634.92 800.43 C 626.98 787.25 614.74 777.25 601.72 769.35 C 590.71 762.89 578.72 757.61 565.99 755.86 C 560.29 755.11 554.34 755.28 548.99 757.55 C 555.81 752.79 559.70 745.05 562.44 737.42 C 567.10 723.81 568.53 709.24 567.78 694.93 C 567.11 683.67 564.90 672.36 559.97 662.14 M 578.01 695.48 C 578.61 712.65 576.53 730.16 569.96 746.13 C 586.97 749.30 602.82 757.11 616.85 767.06 C 616.22 749.89 618.33 732.39 624.90 716.41 C 607.89 713.25 592.04 705.44 578.01 695.48 Z" />
<path fill="#000000" opacity="1.00" d=" M 423.17 702.24 C 442.82 695.00 461.83 683.41 473.89 665.90 C 465.71 680.79 463.24 698.15 463.50 714.95 C 463.79 725.45 465.22 736.05 468.88 745.95 C 471.19 752.04 474.45 758.10 479.87 761.97 C 468.53 756.76 455.54 759.75 444.16 763.25 C 423.86 770.26 404.41 782.07 391.73 799.74 C 400.10 784.29 402.36 766.26 401.79 748.91 C 401.35 739.24 399.92 729.53 396.57 720.43 C 394.28 714.31 391.03 708.25 385.69 704.27 C 397.69 709.58 411.28 706.13 423.17 702.24 M 406.09 716.72 C 411.86 733.02 413.01 750.66 411.41 767.79 C 425.95 758.66 442.16 751.75 459.26 749.42 C 453.51 733.11 452.36 715.48 453.96 698.35 C 439.42 707.50 423.20 714.40 406.09 716.72 Z" />
</g>
</svg>
