<?xml version="1.0" encoding="UTF-8" ?>
<!DOCTYPE svg PUBLIC "-//W3C//DTD SVG 1.1//EN" "http://www.w3.org/Graphics/SVG/1.1/DTD/svg11.dtd">
<svg width="776pt" height="756pt" viewBox="0 0 776 756" version="1.1" xmlns="http://www.w3.org/2000/svg">
<g id="#eaeaeaff">
</g>
<g id="#ffffffff">
</g>
<g id="#000000ff">
<path fill="#000000" opacity="1.00" d=" M 384.61 0.00 L 391.49 0.00 C 399.00 1.18 406.20 5.08 410.56 11.43 C 416.32 19.27 417.18 30.25 412.99 38.99 C 409.00 47.48 400.38 53.58 391.03 54.45 C 380.90 55.56 370.59 50.35 365.24 41.74 C 358.93 31.82 360.00 17.69 368.03 9.01 C 372.26 4.11 378.40 1.38 384.61 0.00 Z" />
<path fill="#000000" opacity="1.00" d=" M 327.59 50.02 C 327.39 47.09 330.07 44.64 332.95 44.78 C 335.94 45.58 338.54 47.37 341.29 48.73 C 356.84 57.13 372.62 65.09 388.13 73.54 C 405.28 64.60 422.40 55.59 439.47 46.48 C 441.40 45.56 443.61 44.12 445.79 45.19 C 448.94 46.15 449.65 50.38 447.77 52.82 C 435.41 71.60 422.59 90.09 410.44 108.99 C 410.12 115.01 410.30 121.06 410.40 127.08 C 425.50 120.56 440.21 113.17 455.15 106.29 C 458.22 105.05 461.21 102.60 464.71 103.25 C 467.08 103.58 467.70 106.22 468.64 108.01 C 466.03 113.02 461.72 116.82 458.03 121.01 C 443.24 137.54 428.44 154.06 413.56 170.51 C 412.80 171.55 411.50 172.52 411.65 173.96 C 411.61 180.58 411.59 187.20 411.69 193.82 C 435.05 179.27 457.98 164.01 481.22 149.26 C 483.26 147.83 486.48 147.77 488.09 149.90 C 489.81 151.86 489.17 154.64 489.24 157.01 C 488.62 170.63 488.41 184.26 487.86 197.88 C 490.11 197.31 493.71 196.24 494.79 199.16 C 500.64 216.18 504.87 233.76 510.91 250.71 C 512.79 248.86 514.09 246.56 515.07 244.14 C 519.64 233.57 524.80 223.25 529.21 212.63 C 530.87 190.49 531.57 168.24 533.08 146.08 C 533.04 143.59 535.61 141.73 537.98 142.45 C 540.23 143.05 540.81 145.49 541.55 147.39 C 546.27 160.62 551.00 173.85 555.75 187.07 C 558.49 184.70 560.98 182.07 563.54 179.53 C 564.81 178.20 566.39 176.88 566.51 174.91 C 569.84 158.06 573.21 141.22 576.63 124.39 C 576.97 122.29 578.64 120.09 581.02 120.47 C 583.07 120.26 584.08 122.55 584.67 124.16 C 589.42 139.15 593.93 154.21 598.70 169.20 C 613.76 173.84 628.84 178.42 643.87 183.19 C 646.20 183.65 648.39 186.30 647.10 188.65 C 646.29 190.84 643.69 191.00 641.77 191.51 C 625.72 194.70 609.69 197.98 593.64 201.12 C 592.26 201.46 590.72 201.60 589.72 202.71 C 586.66 205.75 583.28 208.55 580.85 212.14 C 594.67 217.00 608.46 221.93 622.24 226.91 C 624.73 227.49 626.35 230.47 625.00 232.78 C 624.08 234.66 621.81 234.69 620.02 234.84 C 599.33 235.98 578.64 237.08 557.95 238.21 C 554.72 238.17 551.91 239.88 549.06 241.12 C 539.26 245.75 529.31 250.06 519.49 254.65 C 518.45 255.03 518.42 256.34 517.90 257.17 C 534.77 262.16 551.57 267.41 568.32 272.77 C 571.12 273.58 570.62 276.75 570.51 279.00 C 587.69 278.54 604.86 277.88 622.04 277.41 C 625.48 276.83 628.67 280.60 627.33 283.87 C 625.20 288.06 622.34 291.84 619.84 295.83 C 607.22 315.45 594.55 335.04 581.90 354.65 C 587.95 354.77 594.00 354.67 600.06 354.73 C 601.62 354.67 603.50 354.98 604.62 353.59 C 624.48 335.81 644.29 317.96 664.15 300.20 C 665.84 298.61 668.57 297.78 670.60 299.27 C 673.10 300.53 673.17 303.90 672.03 306.14 C 664.23 322.89 656.11 339.51 648.54 356.38 C 654.05 356.56 659.56 356.49 665.07 356.47 C 666.56 356.63 667.79 355.67 668.99 354.94 C 686.57 343.24 704.13 331.51 721.66 319.73 C 723.50 318.74 725.60 316.85 727.78 318.08 C 731.13 319.06 731.75 323.37 729.96 326.00 C 720.67 343.33 711.68 360.83 702.30 378.12 C 711.42 396.07 721.14 413.73 730.38 431.62 C 732.82 435.79 727.93 440.76 723.77 438.23 C 704.63 425.86 685.97 412.70 666.75 400.47 C 660.75 400.10 654.71 400.42 648.70 400.33 C 656.04 417.62 664.72 434.33 672.39 451.47 C 674.00 454.74 670.80 458.99 667.25 458.16 C 663.33 456.61 660.57 453.22 657.48 450.50 C 642.89 437.43 628.30 424.35 613.74 411.26 C 609.98 408.27 606.88 404.50 602.88 401.82 C 595.95 401.40 588.98 401.72 582.04 401.70 C 587.48 411.43 594.07 420.49 599.95 429.97 C 608.83 443.78 617.76 457.57 626.63 471.40 C 629.26 474.71 626.29 479.94 622.07 479.30 C 604.39 478.69 586.71 478.18 569.02 477.62 C 569.37 480.15 570.59 484.05 567.17 484.97 C 550.21 490.49 532.95 495.15 515.98 500.67 C 517.09 502.09 518.46 503.30 520.18 503.97 C 530.72 508.71 541.23 513.52 551.75 518.33 C 555.21 520.10 559.23 519.49 562.98 519.86 C 582.27 521.00 601.58 521.85 620.86 523.09 C 625.10 523.23 625.53 529.70 621.52 530.67 C 607.65 535.78 593.67 540.58 579.78 545.61 C 582.71 549.43 586.22 552.83 589.90 555.92 C 607.38 559.78 625.05 562.95 642.57 566.68 C 644.54 566.99 646.69 568.62 646.40 570.82 C 646.19 572.81 644.36 574.11 642.56 574.65 C 627.64 579.42 612.53 583.71 597.69 588.67 C 592.55 603.71 588.32 619.08 583.33 634.18 C 582.76 636.24 580.30 638.29 578.18 637.09 C 576.42 636.38 575.73 634.50 575.40 632.79 C 571.93 615.72 568.57 598.63 565.14 581.55 C 562.29 577.49 558.37 574.10 554.62 570.83 C 549.88 584.03 545.12 597.22 540.44 610.44 C 539.76 612.03 539.35 614.03 537.73 614.96 C 535.43 616.25 532.11 614.70 532.00 611.97 C 530.54 589.77 529.70 567.51 528.18 545.32 C 522.95 532.88 517.05 520.69 511.53 508.36 C 511.02 508.33 510.00 508.25 509.50 508.21 C 504.73 523.86 499.79 539.46 495.00 555.11 C 494.30 557.03 493.88 559.35 491.96 560.46 C 490.36 560.76 488.75 560.37 487.18 560.24 C 487.75 573.49 488.06 586.76 488.54 600.02 C 488.61 602.35 488.84 605.18 486.75 606.77 C 484.69 608.49 481.71 607.75 479.74 606.28 C 457.00 591.55 434.15 576.99 411.46 562.17 C 411.17 569.31 411.12 576.48 411.43 583.61 C 427.05 601.59 443.32 619.05 459.09 636.93 C 461.93 640.22 465.38 643.10 467.44 646.99 C 468.53 651.06 464.11 654.23 460.48 652.46 C 443.42 644.74 426.68 636.28 409.51 628.82 C 409.78 634.95 408.92 641.27 409.89 647.29 C 420.49 663.56 431.40 679.65 442.19 695.81 C 444.30 699.17 447.01 702.25 448.37 706.03 C 448.38 709.85 443.88 712.65 440.60 710.40 C 423.72 701.58 406.93 692.58 390.04 683.77 C 388.42 682.79 386.46 682.91 384.89 683.90 C 368.51 692.51 352.12 701.13 335.78 709.82 C 333.87 710.84 331.49 711.86 329.46 710.54 C 326.45 709.06 326.64 704.84 328.49 702.52 C 340.78 684.16 353.15 665.86 365.26 647.39 C 366.12 641.29 365.42 634.97 365.59 628.79 C 348.72 636.30 332.12 644.42 315.38 652.23 C 313.03 653.36 309.52 653.18 308.29 650.53 C 306.28 647.69 308.96 644.86 310.77 642.79 C 328.14 623.51 345.44 604.15 362.85 584.90 C 364.81 583.11 364.24 580.36 364.32 578.01 C 364.27 572.75 364.37 567.49 364.24 562.23 C 353.72 568.21 343.89 575.32 333.60 581.69 C 320.65 590.01 307.71 598.37 294.75 606.69 C 291.75 609.15 286.46 607.18 286.63 603.05 C 286.96 588.46 287.49 573.86 288.01 559.27 C 285.51 559.79 282.01 559.85 281.35 556.70 C 276.10 539.94 271.20 523.08 266.01 506.30 C 264.57 507.13 263.24 508.17 262.68 509.80 C 258.38 519.37 254.06 528.93 249.67 538.46 C 248.58 540.91 247.11 543.29 247.01 546.05 C 245.86 567.36 244.72 588.67 243.53 609.97 C 243.80 612.75 240.82 615.22 238.18 614.03 C 236.04 613.26 235.64 610.77 234.84 608.94 C 230.31 595.91 225.36 583.03 221.06 569.92 C 218.11 571.16 216.32 573.95 214.00 576.01 C 212.67 577.49 210.76 578.67 210.17 580.67 C 206.83 598.06 203.34 615.45 199.74 632.80 C 199.40 636.71 193.49 637.51 192.32 633.69 C 187.23 618.38 182.79 602.85 177.81 587.49 C 163.22 582.95 148.60 578.46 133.99 573.95 C 132.41 573.36 130.60 572.91 129.53 571.52 C 129.24 570.19 129.17 568.79 129.51 567.49 C 130.80 565.78 133.08 565.53 135.00 565.08 C 151.26 561.89 167.49 558.52 183.75 555.33 C 185.15 555.13 186.39 554.39 187.36 553.39 C 190.23 550.61 193.05 547.76 195.76 544.83 C 181.88 539.21 167.50 534.85 153.55 529.40 C 149.64 528.17 150.75 521.53 155.01 521.94 C 176.60 520.65 198.21 519.59 219.80 518.37 C 221.57 518.26 223.17 517.43 224.76 516.74 C 235.08 512.00 245.40 507.28 255.77 502.64 C 257.19 502.12 258.15 500.91 259.10 499.81 C 244.34 495.10 229.50 490.62 214.69 486.02 C 211.39 484.88 207.39 484.47 205.42 481.20 C 205.88 479.76 206.36 478.33 206.85 476.91 C 189.22 477.51 171.59 478.05 153.97 478.58 C 151.21 479.00 148.34 476.85 148.27 474.01 C 148.09 472.17 149.28 470.66 150.16 469.17 C 164.86 446.62 179.31 423.90 194.01 401.35 C 186.83 401.36 179.61 401.02 172.46 401.50 C 153.64 417.96 135.20 434.90 116.51 451.52 C 113.45 453.93 110.57 458.55 106.11 457.24 C 102.97 456.21 102.49 452.33 103.89 449.73 C 111.70 433.02 119.78 416.43 127.34 399.61 C 121.25 399.62 115.10 399.19 109.05 399.78 C 90.46 411.85 72.13 424.34 53.68 436.62 C 52.04 437.53 50.13 439.03 48.19 438.02 C 45.21 437.09 43.91 433.19 45.63 430.62 C 54.93 413.03 64.12 395.37 73.61 377.87 C 64.42 359.96 54.76 342.30 45.52 324.41 C 43.76 321.69 45.69 317.28 49.05 317.26 C 51.45 316.86 53.34 318.57 55.23 319.74 C 71.38 330.58 87.56 341.38 103.75 352.16 C 105.58 353.30 107.25 354.77 109.28 355.56 C 115.25 355.87 121.25 355.63 127.23 355.63 C 120.65 340.50 113.28 325.71 106.32 310.74 C 105.00 307.50 102.18 304.16 103.52 300.48 C 105.04 297.37 109.27 296.90 111.58 299.47 C 127.66 313.68 143.58 328.09 159.54 342.45 C 164.20 346.21 168.20 350.77 173.10 354.20 C 180.02 354.56 186.98 354.29 193.91 354.30 C 193.19 352.95 192.45 351.61 191.65 350.31 C 177.47 328.50 163.44 306.60 149.33 284.75 C 146.88 281.75 149.00 276.68 152.98 276.72 C 171.15 277.24 189.32 277.83 207.50 278.42 C 207.34 276.52 206.64 274.45 207.68 272.69 C 209.07 271.62 210.77 271.11 212.41 270.59 C 228.33 265.86 244.21 261.01 260.11 256.25 C 259.33 253.20 255.96 252.66 253.54 251.40 C 242.85 246.91 232.56 241.38 221.74 237.29 C 199.88 235.91 177.99 234.98 156.13 233.61 C 153.83 233.68 151.75 231.55 152.28 229.21 C 152.22 226.84 154.73 226.04 156.53 225.36 C 166.05 221.98 175.56 218.56 185.09 215.18 C 189.02 213.76 193.10 212.64 196.78 210.59 C 193.66 207.60 190.72 204.44 187.58 201.47 C 186.49 200.32 184.81 200.30 183.37 199.91 C 167.12 196.73 150.90 193.44 134.67 190.16 C 132.59 189.84 129.90 188.49 130.28 185.99 C 130.06 183.54 132.67 182.34 134.63 181.77 C 149.45 177.23 164.22 172.56 179.06 168.11 C 183.22 153.78 187.89 139.61 192.20 125.33 C 192.91 123.36 193.27 121.02 195.12 119.75 C 196.89 118.86 198.68 119.88 200.28 120.62 C 203.85 136.34 206.73 152.21 209.97 168.00 C 210.83 171.28 210.50 175.28 213.29 177.70 C 215.99 180.47 218.76 183.19 221.50 185.92 C 222.89 183.38 223.83 180.62 224.77 177.89 C 228.59 167.10 232.48 156.34 236.33 145.56 C 236.99 143.76 237.90 141.41 240.16 141.31 C 242.42 140.83 244.66 142.88 244.58 145.15 C 245.67 163.45 246.59 181.76 247.61 200.07 C 248.02 205.10 247.33 210.49 249.80 215.09 C 254.77 225.63 259.45 236.30 264.34 246.87 C 264.67 248.18 266.00 248.45 267.07 248.93 C 271.74 232.24 277.21 215.77 282.32 199.21 C 282.83 196.13 286.06 195.91 288.59 195.73 C 288.27 181.81 287.62 167.90 287.32 153.98 C 287.04 151.71 288.17 149.15 290.48 148.47 C 293.55 147.39 296.19 149.87 298.63 151.34 C 320.60 165.48 342.51 179.71 364.55 193.74 C 364.54 186.56 365.10 179.25 364.31 172.14 C 347.69 153.31 330.71 134.76 313.98 116.01 C 311.69 113.17 307.60 110.51 308.56 106.33 C 309.17 103.24 313.11 102.44 315.68 103.62 C 332.60 111.43 349.33 119.69 366.38 127.23 C 366.48 121.79 366.46 116.36 366.44 110.92 C 366.61 109.40 365.71 108.15 364.94 106.95 C 354.00 90.59 343.11 74.19 332.12 57.87 C 330.46 55.35 328.44 52.96 327.59 50.02 M 385.73 121.94 C 385.34 151.98 384.70 182.00 384.25 212.04 C 383.79 217.16 386.36 221.86 388.43 226.37 C 389.94 221.66 392.89 217.15 392.36 212.02 C 391.67 181.38 391.42 150.73 390.72 120.10 C 390.86 118.71 389.80 117.81 388.80 117.08 C 386.20 117.01 385.62 119.87 385.73 121.94 M 197.64 186.76 C 197.89 188.23 197.74 189.96 199.06 190.98 C 216.27 208.76 233.46 226.56 250.78 244.24 C 253.36 246.55 256.73 247.66 259.89 248.92 C 258.55 245.79 257.56 242.36 255.25 239.76 C 237.77 222.59 219.91 205.81 202.45 188.60 C 201.29 187.08 199.41 186.92 197.64 186.76 M 576.47 188.53 C 558.60 205.63 540.96 222.99 523.05 240.06 C 520.29 242.66 519.15 246.41 517.95 249.89 C 521.52 248.36 525.51 247.20 528.14 244.16 C 543.69 228.03 559.13 211.81 574.87 195.87 C 576.94 193.53 580.08 191.53 579.97 188.02 C 578.74 187.94 577.57 188.11 576.47 188.53 M 487.69 203.92 C 487.15 220.63 486.62 237.35 486.06 254.05 C 486.21 256.50 484.57 258.38 482.72 259.73 C 471.25 268.94 460.01 278.43 448.51 287.59 C 445.33 290.33 440.10 287.10 440.89 283.05 C 442.90 266.20 445.08 249.37 447.18 232.53 C 447.70 227.53 448.73 222.58 448.74 217.54 C 444.71 219.80 441.18 222.79 437.45 225.48 C 423.80 235.48 410.27 245.65 396.59 255.62 C 393.71 257.51 391.97 261.59 388.02 261.32 C 384.46 261.23 382.90 257.50 380.20 255.79 C 362.52 243.01 345.27 229.64 327.45 217.08 C 330.15 239.05 333.08 261.01 335.66 282.99 C 336.54 287.29 330.83 290.43 327.68 287.33 C 316.58 278.45 305.73 269.23 294.59 260.39 C 292.86 258.90 290.63 257.35 290.59 254.82 C 289.66 239.53 290.14 224.14 288.58 208.90 C 287.18 221.97 284.53 234.87 283.04 247.92 C 281.66 254.18 280.70 260.55 280.50 266.95 C 278.53 271.25 273.37 268.94 269.80 270.31 C 251.82 273.00 233.80 275.56 215.87 278.54 C 228.15 279.19 240.45 279.46 252.75 279.80 C 254.96 279.90 257.51 280.07 258.90 282.07 C 268.09 293.23 277.16 304.49 286.39 315.62 C 287.53 317.11 288.99 318.76 288.66 320.80 C 288.59 323.19 286.30 325.14 283.99 325.14 C 261.69 322.78 239.51 319.10 217.18 317.23 C 230.41 334.87 243.41 352.69 256.59 370.37 C 257.96 372.09 259.78 373.40 261.13 375.14 C 261.70 377.38 261.74 380.18 259.72 381.74 C 255.83 385.26 253.14 389.81 249.95 393.92 C 239.02 408.78 227.81 423.45 217.15 438.52 C 239.08 435.66 261.03 432.93 282.98 430.27 C 287.54 429.13 290.55 435.20 287.39 438.41 C 278.43 449.44 269.29 460.33 260.45 471.46 C 258.98 473.23 257.33 475.34 254.79 475.34 C 241.17 475.92 227.52 476.14 213.90 476.82 C 227.91 479.38 242.06 481.14 256.13 483.41 C 262.87 484.16 269.52 486.10 276.36 485.61 C 277.03 485.97 278.38 486.69 279.05 487.04 C 280.19 498.77 282.27 510.42 283.97 522.09 C 285.45 531.07 286.50 540.12 288.23 549.06 C 288.84 533.45 289.28 517.84 289.78 502.23 C 289.78 500.28 290.47 498.29 292.12 497.13 C 303.71 487.72 315.21 478.20 326.81 468.82 C 329.52 465.89 335.15 467.90 334.94 472.01 C 332.93 494.19 328.89 516.21 327.27 538.42 C 337.46 531.72 346.97 524.01 356.88 516.90 C 365.01 510.68 373.51 504.92 381.48 498.52 C 383.57 495.54 387.88 493.02 391.11 495.94 C 395.26 500.55 400.70 503.67 405.55 507.47 C 419.89 517.91 433.92 528.79 448.49 538.91 C 445.64 516.96 442.85 494.99 440.22 473.01 C 439.29 468.65 445.15 465.56 448.27 468.73 C 459.73 477.92 470.94 487.43 482.45 496.56 C 484.03 497.70 485.22 499.41 485.32 501.42 C 486.12 517.68 486.03 534.02 487.20 550.26 C 489.56 536.93 491.28 523.49 493.43 510.12 C 494.19 503.80 495.83 497.55 495.70 491.15 C 495.60 489.73 496.81 488.71 497.46 487.58 C 498.41 487.14 499.35 486.68 500.29 486.23 C 501.77 487.54 504.16 486.40 505.99 486.52 C 525.37 483.45 544.83 480.90 564.15 477.52 C 550.42 476.95 536.69 476.54 522.96 476.19 C 520.52 476.22 517.97 475.60 516.54 473.47 C 507.21 461.83 497.61 450.38 488.26 438.75 C 485.68 435.82 488.02 430.64 491.98 430.85 C 514.08 433.23 536.08 436.80 558.22 438.71 C 546.16 421.28 533.06 404.56 520.62 387.39 C 519.01 384.95 516.70 383.13 514.84 380.92 C 514.25 379.36 514.50 377.63 514.65 376.03 C 516.32 373.61 518.83 371.90 520.48 369.45 C 533.25 352.12 546.21 334.92 558.82 317.47 C 536.90 320.30 514.97 323.07 493.03 325.71 C 488.77 326.89 485.40 321.48 488.13 318.13 C 496.99 307.03 506.16 296.16 515.02 285.05 C 516.69 283.16 518.37 280.59 521.20 280.64 C 534.14 280.27 547.08 279.62 560.03 279.45 C 542.82 276.40 525.48 274.10 508.20 271.45 C 504.62 270.53 500.60 271.49 497.41 269.30 C 496.49 265.76 496.86 262.07 496.22 258.49 C 493.23 240.33 490.94 222.04 487.69 203.92 M 120.98 375.16 C 119.15 374.85 116.34 376.47 117.44 378.54 C 118.68 380.36 121.03 380.18 122.97 380.23 C 153.63 380.62 184.29 381.34 214.96 381.70 C 218.99 381.12 222.79 379.32 226.41 377.50 C 221.71 375.91 217.16 372.99 212.01 373.58 C 181.67 374.20 151.32 374.58 120.98 375.16 M 549.49 378.48 C 554.19 380.17 558.81 382.98 563.98 382.41 C 594.63 381.74 625.29 381.49 655.93 380.78 C 657.78 380.89 658.50 378.94 658.98 377.52 C 656.70 375.65 653.77 375.67 650.99 375.74 C 621.01 375.35 591.03 374.67 561.05 374.30 C 556.96 374.80 553.15 376.69 549.49 378.48 M 247.93 512.92 C 231.38 530.38 214.46 547.48 197.82 564.85 C 196.50 565.83 196.85 567.50 196.80 568.94 C 198.10 568.60 199.65 568.73 200.60 567.60 C 218.11 550.78 235.46 533.79 253.03 517.02 C 256.07 514.43 257.16 510.44 258.61 506.88 C 254.75 508.27 250.60 509.62 247.93 512.92 M 516.94 508.00 C 518.06 511.28 519.16 514.79 521.64 517.34 C 539.44 534.54 557.30 551.68 575.05 568.93 C 576.00 569.91 577.55 569.57 578.79 569.84 C 578.53 568.37 578.73 566.63 577.42 565.61 C 560.12 547.89 543.05 529.95 525.65 512.33 C 523.20 510.14 519.99 509.05 516.94 508.00 M 383.52 543.98 C 384.09 572.32 384.48 600.66 384.97 629.00 C 385.27 631.81 384.70 634.79 385.57 637.51 C 387.11 640.51 390.67 637.63 390.10 635.04 C 390.62 604.69 391.09 574.34 391.65 544.00 C 392.20 538.84 389.30 534.28 387.66 529.59 C 385.78 534.20 383.04 538.83 383.52 543.98 Z" />
<path fill="#000000" opacity="1.00" d=" M 637.48 114.67 C 645.13 112.78 653.65 118.97 653.53 126.99 C 654.10 134.65 646.54 141.49 638.98 140.40 C 632.02 139.85 626.51 132.86 627.46 125.98 C 627.99 120.59 632.28 115.95 637.48 114.67 Z" />
<path fill="#000000" opacity="1.00" d=" M 398.79 323.81 C 400.93 320.82 406.47 321.82 407.16 325.58 C 409.05 334.27 409.54 343.22 411.63 351.87 C 413.15 351.58 414.67 351.29 416.20 351.02 C 419.57 350.60 422.97 350.36 426.31 349.70 C 430.16 349.27 433.97 348.18 437.88 348.37 C 441.32 348.16 443.56 352.76 441.48 355.45 C 436.61 362.85 430.95 369.71 425.94 377.02 C 432.78 382.20 439.85 387.09 446.57 392.42 C 449.95 394.56 448.52 400.17 444.71 400.77 C 436.01 402.42 427.21 403.69 418.42 404.83 C 418.94 408.17 419.43 411.51 419.90 414.86 C 419.95 415.23 420.06 415.96 420.11 416.32 C 420.71 420.92 421.53 425.49 422.14 430.09 C 422.69 432.65 420.72 435.84 417.92 435.77 C 415.80 436.09 414.07 434.63 412.43 433.54 C 406.07 428.89 399.81 424.10 393.30 419.64 C 389.30 425.18 385.13 430.60 381.13 436.14 C 379.71 438.04 378.35 440.05 376.47 441.53 C 374.87 441.95 373.15 441.89 371.57 441.45 C 369.67 440.11 369.31 437.67 368.90 435.57 C 367.73 427.79 366.53 420.01 365.40 412.23 C 360.87 412.54 356.42 413.40 351.95 414.15 C 349.18 414.47 346.42 414.86 343.68 415.36 C 340.87 415.45 336.81 416.75 335.19 413.58 C 333.67 411.50 334.68 408.91 336.10 407.11 C 340.93 400.39 345.94 393.81 350.73 387.07 C 344.51 382.34 338.18 377.76 331.93 373.09 C 330.34 371.75 328.14 370.34 328.26 367.99 C 328.06 365.37 330.23 363.20 332.77 362.98 C 341.10 361.59 349.45 360.21 357.84 359.14 C 357.69 352.76 356.28 346.51 355.45 340.20 C 355.08 337.21 354.11 334.16 354.77 331.15 C 356.02 328.03 360.12 327.28 362.60 329.40 C 369.54 334.28 376.27 339.48 383.20 344.39 C 388.63 337.71 393.37 330.50 398.79 323.81 Z" />
<path fill="#000000" opacity="1.00" d=" M 12.60 354.61 C 20.56 349.42 31.26 348.98 39.69 353.31 C 49.08 358.02 55.25 368.48 54.54 379.01 C 54.14 391.12 44.57 402.00 32.75 404.34 C 26.31 405.23 19.45 404.74 13.78 401.29 C 6.29 397.32 1.67 389.49 0.00 381.37 L 0.00 374.52 C 1.23 366.53 5.57 358.83 12.60 354.61 Z" />
<path fill="#000000" opacity="1.00" d=" M 742.44 351.80 C 747.69 351.05 753.29 350.89 758.31 352.91 C 766.27 355.87 772.70 362.82 774.83 371.07 C 776.14 379.03 775.90 388.03 770.57 394.58 C 763.22 405.00 748.18 408.67 736.80 403.00 C 727.44 398.54 720.94 388.44 721.30 378.01 C 721.24 365.76 730.55 354.47 742.44 351.80 Z" />
<path fill="#000000" opacity="1.00" d=" M 361.06 722.02 C 363.77 711.12 373.74 702.46 384.97 701.55 C 395.32 700.46 405.87 705.96 411.05 714.95 C 416.72 724.38 415.80 737.27 408.84 745.80 C 404.64 751.39 398.02 754.47 391.36 756.00 L 384.50 756.00 C 376.75 754.79 369.26 750.73 364.93 744.05 C 360.44 737.72 359.38 729.48 361.06 722.02 Z" />
</g>
<g id="#010101ff">
<path fill="#010101" opacity="1.00" d=" M 125.37 120.42 C 129.07 112.90 140.26 110.75 146.17 116.85 C 151.75 121.67 151.59 131.24 145.96 135.96 C 140.64 141.13 131.15 140.09 126.83 134.16 C 123.94 130.98 124.14 126.48 124.47 122.50 C 124.70 121.98 125.14 120.94 125.37 120.42 Z" />
<path fill="#010101" opacity="1.00" d=" M 123.61 625.03 C 125.47 619.58 131.19 615.66 136.98 616.23 C 142.91 616.43 148.10 621.38 148.97 627.17 C 150.06 633.22 146.17 639.67 140.30 641.50 C 134.88 643.80 128.70 641.00 125.12 636.76 C 124.60 635.80 124.10 634.84 123.63 633.87 C 123.23 630.95 122.98 627.94 123.61 625.03 Z" />
<path fill="#010101" opacity="1.00" d=" M 626.30 631.88 C 625.22 624.54 631.60 617.15 639.05 617.36 C 647.12 616.91 653.95 625.23 652.26 633.06 C 651.86 634.23 651.45 635.41 651.00 636.57 C 649.02 639.42 646.37 641.96 642.94 642.90 C 635.55 645.40 626.97 639.59 626.30 631.88 Z" />
</g>
<g id="#fefefeff">
</g>
<g id="#fdfdfdff">
</g>
<g id="#fcfcfcff">
</g>
<g id="#e1e1e1ff">
</g>
<g id="#e8e8e8ff">
</g>
</svg>
