<?xml version="1.0" encoding="UTF-8" ?>
<!DOCTYPE svg PUBLIC "-//W3C//DTD SVG 1.1//EN" "http://www.w3.org/Graphics/SVG/1.1/DTD/svg11.dtd">
<svg width="220pt" height="229pt" viewBox="0 0 220 229" version="1.1" xmlns="http://www.w3.org/2000/svg">
<g id="#ffffffff">
</g>
<g id="#231f20ff">
<path fill="#231f20" opacity="1.00" d=" M 104.83 0.00 L 114.87 0.00 C 114.86 8.31 114.89 16.61 114.85 24.92 C 119.69 22.16 124.62 19.55 129.53 16.92 C 131.10 19.71 132.72 22.47 134.40 25.20 C 127.91 28.77 121.36 32.22 114.87 35.80 C 114.87 39.28 114.86 42.76 114.86 46.25 C 124.00 41.38 133.08 36.38 142.20 31.46 C 143.87 34.22 145.48 37.01 147.17 39.76 C 136.38 45.54 125.65 51.42 114.88 57.23 C 114.87 59.49 114.86 61.74 114.86 64.00 C 119.72 61.29 124.60 58.63 129.54 56.06 C 131.10 58.85 132.74 61.59 134.43 64.30 C 127.92 67.86 121.38 71.36 114.87 74.90 C 114.85 85.47 114.88 96.04 114.86 106.61 C 124.60 101.66 134.40 96.82 144.13 91.84 C 144.44 84.69 144.71 77.54 144.93 70.38 C 148.24 70.59 151.57 70.63 154.89 70.82 C 154.54 76.16 154.46 81.50 154.19 86.84 C 156.34 85.80 158.49 84.73 160.61 83.64 C 160.82 71.80 161.44 59.98 161.75 48.15 C 165.07 48.30 168.39 48.43 171.71 48.52 C 171.07 58.56 171.23 68.62 170.58 78.65 C 173.84 76.99 177.13 75.35 180.40 73.70 C 180.81 66.55 180.88 59.40 181.08 52.25 C 184.43 52.43 187.80 52.33 191.14 52.70 C 190.83 58.02 190.67 63.35 190.53 68.68 C 198.17 64.69 205.94 60.96 213.61 57.05 C 215.18 59.89 216.76 62.71 218.25 65.59 C 210.45 69.25 202.87 73.34 195.12 77.08 C 199.90 79.92 204.62 82.86 209.34 85.79 C 207.59 88.49 205.73 91.13 203.92 93.79 C 197.60 89.91 191.28 86.01 184.95 82.12 C 181.78 83.84 178.56 85.45 175.32 87.01 C 184.11 92.56 193.06 97.86 201.84 103.42 C 200.00 105.99 198.19 108.57 196.61 111.31 C 185.97 105.15 175.64 98.45 165.13 92.07 C 163.06 93.12 161.01 94.19 158.95 95.25 C 163.68 98.16 168.43 101.04 173.15 103.98 C 171.29 106.64 169.50 109.33 167.68 112.01 C 161.43 108.03 155.05 104.28 148.81 100.29 C 139.44 105.11 129.95 109.67 120.59 114.50 C 129.96 119.25 139.42 123.83 148.74 128.67 C 155.04 124.75 161.39 120.90 167.68 116.94 C 169.47 119.63 171.25 122.33 173.16 124.95 C 168.45 127.92 163.67 130.77 158.95 133.71 C 161.02 134.74 163.08 135.80 165.13 136.88 C 175.59 130.45 185.97 123.88 196.55 117.65 C 198.20 120.37 200.04 122.97 201.78 125.64 C 192.93 131.07 184.10 136.53 175.25 141.96 C 178.51 143.56 181.78 145.13 184.98 146.84 C 191.27 142.89 197.64 139.07 203.93 135.12 C 205.71 137.83 207.57 140.48 209.35 143.19 C 204.59 146.07 199.89 149.03 195.12 151.88 C 202.90 155.54 210.38 159.82 218.25 163.29 C 216.81 166.22 215.17 169.04 213.64 171.93 C 205.97 168.00 198.22 164.23 190.53 160.32 C 190.64 165.67 190.89 171.02 191.12 176.37 C 187.75 176.53 184.38 176.59 181.01 176.68 C 180.94 169.53 180.79 162.37 180.38 155.23 C 177.12 153.57 173.82 151.97 170.57 150.30 C 171.21 160.33 171.11 170.39 171.68 180.42 C 168.38 180.52 165.08 180.65 161.78 180.81 C 161.38 168.98 160.87 157.16 160.59 145.34 C 158.47 144.23 156.34 143.15 154.20 142.09 C 154.48 147.45 154.54 152.82 154.88 158.18 C 151.55 158.33 148.22 158.35 144.89 158.55 C 144.73 151.39 144.44 144.24 144.12 137.09 C 134.37 132.15 124.57 127.32 114.84 122.35 C 114.90 132.92 114.84 143.49 114.87 154.06 C 121.38 157.59 127.89 161.11 134.40 164.63 C 132.76 167.38 131.12 170.15 129.52 172.93 C 124.63 170.26 119.67 167.72 114.84 164.94 C 114.86 167.20 114.87 169.47 114.88 171.74 C 125.66 177.54 136.38 183.44 147.19 189.19 C 145.47 191.93 143.85 194.74 142.21 197.54 C 133.11 192.55 123.99 187.63 114.86 182.71 C 114.86 186.21 114.87 189.70 114.87 193.20 C 121.38 196.72 127.91 200.20 134.39 203.77 C 132.73 206.50 131.11 209.25 129.55 212.04 C 124.63 209.41 119.68 206.82 114.85 204.02 C 114.88 212.35 114.86 220.67 114.87 229.00 L 104.83 229.00 C 104.84 220.68 104.81 212.36 104.85 204.03 C 100.03 206.84 95.00 209.26 90.21 212.12 C 88.55 209.33 86.87 206.55 85.24 203.74 C 91.78 200.20 98.32 196.65 104.86 193.12 C 104.82 189.63 104.84 186.14 104.82 182.66 C 95.68 187.62 86.52 192.54 77.39 197.52 C 75.80 194.74 74.13 192.02 72.51 189.26 C 83.19 183.33 93.95 177.54 104.74 171.82 C 104.83 169.54 104.87 167.26 104.84 164.97 C 99.94 167.61 95.05 170.25 90.18 172.96 C 88.51 170.17 86.83 167.40 85.22 164.58 C 91.80 161.11 98.35 157.56 104.86 153.96 C 104.81 143.44 104.82 132.92 104.86 122.40 C 95.01 127.24 85.24 132.23 75.42 137.14 C 75.14 144.28 75.07 151.44 74.71 158.58 C 71.41 158.33 68.11 158.30 64.80 158.24 C 64.95 152.85 65.17 147.47 65.37 142.09 C 63.28 143.16 61.20 144.24 59.12 145.33 C 58.68 157.14 58.13 168.95 57.98 180.77 C 54.60 180.62 51.22 180.63 47.86 180.31 C 48.41 170.33 48.65 160.35 49.01 150.37 C 45.73 151.98 42.46 153.63 39.20 155.27 C 39.07 162.43 38.68 169.57 38.49 176.72 C 35.18 176.56 31.86 176.47 28.54 176.40 C 28.83 171.06 28.88 165.72 29.09 160.38 C 21.38 164.17 13.70 168.03 6.03 171.91 C 4.47 169.08 2.85 166.28 1.37 163.41 C 9.12 159.65 16.77 155.68 24.50 151.86 C 19.71 149.04 15.02 146.06 10.27 143.19 C 12.07 140.50 13.87 137.82 15.68 135.13 C 22.00 139.04 28.35 142.89 34.64 146.84 C 37.83 145.16 41.08 143.59 44.31 141.98 C 35.50 136.50 26.68 131.03 17.78 125.69 C 19.60 122.99 21.39 120.28 23.25 117.61 C 33.59 124.06 44.06 130.29 54.34 136.84 C 56.47 135.84 58.60 134.81 60.69 133.72 C 55.98 130.79 51.21 127.96 46.53 124.99 C 48.35 122.32 50.06 119.58 51.99 116.99 C 58.28 120.90 64.60 124.76 70.89 128.68 C 80.23 123.84 89.69 119.22 99.09 114.50 C 89.71 109.70 80.22 105.12 70.86 100.30 C 64.55 104.19 58.26 108.11 51.93 111.96 C 50.10 109.32 48.32 106.64 46.51 103.99 C 51.20 101.01 55.98 98.15 60.70 95.22 C 58.63 94.20 56.56 93.15 54.50 92.09 C 44.08 98.50 33.67 104.92 23.26 111.35 C 21.37 108.71 19.63 105.97 17.76 103.32 C 26.63 97.93 35.49 92.53 44.26 87.00 C 41.01 85.40 37.78 83.78 34.57 82.12 C 28.32 86.08 21.99 89.91 15.70 93.80 C 13.85 91.14 12.05 88.45 10.26 85.75 C 15.02 82.90 19.69 79.90 24.48 77.10 C 16.76 73.29 9.14 69.29 1.37 65.58 C 2.83 62.69 4.45 59.89 6.04 57.07 C 13.72 60.94 21.42 64.74 29.09 68.62 C 28.89 63.27 28.78 57.92 28.58 52.57 C 31.88 52.47 35.18 52.39 38.47 52.23 C 38.70 59.38 39.03 66.53 39.21 73.69 C 42.47 75.32 45.72 76.98 49.00 78.58 C 48.71 68.56 48.29 58.55 47.93 48.53 C 51.29 48.44 54.64 48.31 58.00 48.16 C 58.08 60.01 58.73 71.85 59.11 83.69 C 61.20 84.73 63.27 85.78 65.35 86.85 C 65.17 81.48 64.95 76.12 64.80 70.75 C 68.12 70.66 71.44 70.58 74.75 70.43 C 75.04 77.57 75.16 84.72 75.41 91.86 C 85.27 96.70 95.01 101.76 104.87 106.59 C 104.80 96.06 104.82 85.52 104.86 74.99 C 98.34 71.41 91.78 67.90 85.24 64.34 C 86.84 61.54 88.52 58.78 90.18 56.02 C 95.03 58.72 99.95 61.32 104.83 63.98 C 104.84 61.74 104.83 59.51 104.81 57.27 C 94.06 51.39 83.23 45.66 72.51 39.72 C 74.14 36.94 75.74 34.14 77.53 31.45 C 86.55 36.52 95.70 41.33 104.80 46.26 C 104.85 42.81 104.81 39.36 104.89 35.91 C 98.40 32.26 91.79 28.82 85.26 25.24 C 86.87 22.43 88.50 19.62 90.21 16.87 C 94.99 19.71 100.00 22.13 104.81 24.93 C 104.87 16.62 104.82 8.31 104.83 0.00 Z" />
</g>
</svg>
