<?xml version="1.0" encoding="UTF-8" ?>
<!DOCTYPE svg PUBLIC "-//W3C//DTD SVG 1.1//EN" "http://www.w3.org/Graphics/SVG/1.1/DTD/svg11.dtd">
<svg width="209pt" height="241pt" viewBox="0 0 209 241" version="1.1" xmlns="http://www.w3.org/2000/svg">
<g id="#ffffffff">
</g>
<g id="#000000ff">
<path fill="#000000" opacity="1.00" d=" M 104.36 0.00 L 104.66 0.00 C 106.72 6.26 110.15 11.96 112.37 18.15 C 111.20 23.60 107.42 28.25 106.48 33.85 C 109.85 31.13 112.36 27.41 116.07 25.12 C 118.00 25.01 119.74 27.51 118.18 29.07 C 114.83 33.17 110.57 36.41 107.22 40.49 C 106.50 47.74 107.19 55.06 106.87 62.33 C 107.91 61.30 108.95 60.27 109.99 59.23 C 110.09 53.58 109.61 47.89 110.23 42.27 C 111.31 40.49 113.54 40.56 114.64 42.27 C 115.15 46.40 114.69 50.58 114.98 54.72 C 118.29 50.23 119.14 44.56 121.73 39.73 C 127.75 36.86 134.21 34.94 140.36 32.36 C 137.88 38.58 135.47 44.83 133.07 51.08 C 127.99 53.24 122.58 54.67 117.88 57.62 C 121.90 57.98 125.95 57.57 129.96 58.00 C 132.44 58.31 132.08 62.46 129.66 62.47 C 124.25 62.78 118.83 62.46 113.42 62.61 C 111.29 64.82 109.12 66.99 106.93 69.14 C 106.90 83.22 106.98 97.31 106.89 111.39 C 110.13 106.00 113.18 100.50 116.41 95.10 C 115.06 89.75 113.24 84.51 112.23 79.08 C 112.18 77.14 114.70 76.91 116.07 76.45 C 117.68 80.75 118.61 85.25 120.03 89.61 C 121.73 84.32 121.72 78.70 122.39 73.23 C 127.77 69.18 133.30 65.34 138.66 61.26 C 137.96 67.97 137.24 74.67 136.49 81.37 C 132.11 84.67 127.24 87.42 123.50 91.50 C 127.74 90.84 131.77 89.11 136.06 88.74 C 137.93 89.46 138.21 92.67 136.12 93.23 C 131.03 94.97 125.74 96.05 120.56 97.51 C 117.39 102.97 114.25 108.44 111.12 113.93 C 123.28 106.77 135.56 99.83 147.75 92.72 C 148.54 89.76 149.33 86.80 150.11 83.84 C 147.45 78.79 144.11 74.10 141.79 68.89 C 142.17 67.10 144.11 65.60 145.75 67.03 C 148.25 70.25 149.84 74.05 152.16 77.39 C 152.48 71.87 150.99 66.46 150.30 61.02 C 154.49 55.80 158.80 50.67 162.89 45.37 C 163.92 51.99 164.90 58.62 166.09 65.21 C 162.57 69.63 158.61 73.76 155.90 78.76 C 159.67 76.86 163.13 74.35 167.02 72.68 C 169.23 72.13 170.71 75.52 168.84 76.74 C 164.40 79.90 159.43 82.24 154.78 85.06 C 154.42 86.48 154.06 87.89 153.71 89.31 C 160.01 85.69 166.26 82.00 172.57 78.40 C 174.10 72.83 175.48 67.21 177.12 61.66 C 178.54 61.64 179.96 61.67 181.39 61.73 C 181.14 66.45 179.40 70.89 178.51 75.49 C 182.69 71.86 185.10 66.76 188.78 62.70 C 195.35 61.39 202.12 61.24 208.76 60.33 C 204.73 65.67 200.87 71.14 196.90 76.52 C 191.44 77.26 185.80 77.16 180.53 78.97 C 184.48 80.27 188.65 80.92 192.47 82.57 C 192.95 83.79 193.29 85.06 193.49 86.36 C 187.07 86.98 181.13 83.77 174.94 82.62 C 168.66 86.22 162.41 89.87 156.13 93.46 C 157.51 93.85 158.89 94.25 160.27 94.67 C 165.22 91.98 169.90 88.74 175.05 86.44 C 177.31 86.15 177.71 88.21 177.47 90.00 C 174.13 92.67 170.10 94.31 166.72 96.94 C 172.24 96.88 177.65 95.65 183.08 94.78 C 188.26 99.10 193.57 103.25 198.79 107.51 C 192.14 108.43 185.51 109.54 178.87 110.55 C 174.52 107.18 170.54 103.29 165.71 100.59 C 167.39 104.55 170.10 107.98 171.62 112.01 C 171.09 113.53 169.65 114.70 167.99 114.09 C 164.21 109.65 162.49 103.79 158.71 99.38 C 155.96 98.29 153.04 97.41 150.09 97.18 C 147.58 98.16 145.35 99.71 143.02 101.02 C 133.30 106.78 123.39 112.23 113.71 118.06 C 119.82 117.95 125.95 118.32 132.06 117.90 C 136.99 114.64 140.07 109.08 145.16 105.95 C 146.47 106.42 147.82 107.30 147.80 108.87 C 145.50 112.55 141.82 115.09 139.15 118.49 C 144.52 117.25 149.37 114.57 154.37 112.38 C 160.59 115.04 166.73 117.86 172.96 120.51 C 166.64 122.96 160.67 126.34 154.23 128.42 C 149.15 126.59 144.49 123.62 139.16 122.52 C 141.83 125.91 145.48 128.45 147.81 132.11 C 147.79 133.66 146.51 134.63 145.15 135.04 C 140.27 131.94 137.10 126.87 132.61 123.30 C 126.38 122.44 119.99 123.16 113.70 122.94 C 123.41 128.77 133.33 134.23 143.06 140.01 C 145.39 141.31 147.60 142.85 150.09 143.82 C 153.07 143.58 156.01 142.69 158.78 141.60 C 162.48 137.12 164.25 131.32 168.01 126.87 C 169.78 126.25 172.20 127.93 171.25 129.88 C 169.71 133.54 167.26 136.74 165.71 140.41 C 170.54 137.71 174.53 133.82 178.87 130.45 C 185.51 131.46 192.14 132.57 198.79 133.49 C 193.58 137.75 188.25 141.88 183.10 146.22 C 177.66 145.35 172.25 144.12 166.72 144.06 C 170.09 146.69 174.12 148.32 177.45 150.98 C 177.81 152.78 177.28 154.82 175.04 154.55 C 169.89 152.25 165.22 149.01 160.27 146.33 C 158.89 146.74 157.51 147.14 156.13 147.54 C 162.41 151.13 168.67 154.77 174.94 158.38 C 181.13 157.21 187.07 154.03 193.48 154.63 C 192.91 155.90 193.40 158.22 191.75 158.77 C 188.10 160.11 184.24 160.83 180.54 162.03 C 185.80 163.84 191.43 163.72 196.89 164.47 C 200.87 169.85 204.74 175.32 208.77 180.66 C 202.11 179.96 195.45 179.19 188.78 178.57 C 185.40 174.18 182.62 169.28 178.51 165.50 C 179.39 169.93 180.95 174.22 181.41 178.74 C 180.80 178.98 179.57 179.47 178.96 179.72 C 178.46 179.53 177.48 179.15 176.99 178.95 C 175.45 173.52 174.04 168.06 172.58 162.61 C 166.27 159.00 160.01 155.31 153.71 151.69 C 154.06 153.10 154.42 154.52 154.78 155.94 C 159.45 158.78 164.45 161.09 168.88 164.30 C 170.70 165.55 169.22 168.87 167.05 168.31 C 163.23 166.74 159.89 164.20 156.11 162.53 C 158.54 167.60 163.12 171.25 165.88 176.03 C 165.14 182.59 163.77 189.08 162.90 195.63 C 158.80 190.33 154.50 185.19 150.30 179.98 C 151.01 174.50 152.46 169.05 152.21 163.49 C 150.08 166.66 148.44 170.14 146.29 173.29 C 145.49 174.64 143.40 175.07 142.48 173.57 C 141.10 172.18 142.51 170.59 143.15 169.23 C 145.33 165.14 148.16 161.38 149.91 157.08 C 149.50 154.08 148.50 151.20 147.74 148.27 C 135.55 141.17 123.27 134.23 111.12 127.06 C 114.23 132.55 117.40 138.02 120.56 143.49 C 125.73 144.94 131.01 146.04 136.10 147.76 C 138.23 148.31 137.92 151.56 136.03 152.28 C 131.75 151.86 127.73 150.16 123.49 149.49 C 127.24 153.56 132.10 156.33 136.49 159.62 C 137.24 166.32 137.96 173.03 138.66 179.74 C 133.30 175.66 127.77 171.82 122.39 167.76 C 121.73 162.32 121.76 156.72 120.02 151.47 C 118.58 155.83 117.66 160.35 116.02 164.66 C 114.61 163.98 113.20 163.30 111.81 162.57 C 113.46 157.05 114.85 151.45 116.41 145.91 C 113.18 140.48 110.10 134.98 106.88 129.56 C 107.00 143.65 106.89 157.75 106.94 171.85 C 109.25 174.00 111.20 176.62 113.89 178.31 C 119.12 178.71 124.38 178.14 129.61 178.53 C 132.03 178.54 132.46 182.52 130.04 182.98 C 126.00 183.45 121.91 182.99 117.87 183.42 C 122.60 186.30 127.99 187.77 133.07 189.92 C 135.47 196.17 137.88 202.42 140.36 208.64 C 134.12 206.21 127.87 203.81 121.60 201.46 C 119.45 196.37 118.16 190.85 114.97 186.27 C 114.69 190.41 115.16 194.59 114.64 198.72 C 113.54 200.45 111.27 200.51 110.23 198.70 C 109.61 193.08 110.09 187.41 109.99 181.77 C 108.95 180.73 107.91 179.69 106.87 178.65 C 107.00 185.93 106.87 193.21 106.97 200.48 C 110.71 204.32 114.72 207.91 118.22 211.98 C 119.64 213.52 117.57 215.20 116.94 216.56 C 112.99 213.95 109.98 210.26 106.52 207.09 C 107.46 212.49 110.66 217.06 112.40 222.17 C 110.64 228.71 106.67 234.51 104.64 241.00 L 104.34 241.00 C 102.26 234.71 98.84 228.96 96.56 222.74 C 97.99 217.35 101.49 212.70 102.52 207.15 C 99.34 209.74 96.91 213.17 93.52 215.49 C 91.96 216.84 90.26 214.62 90.11 213.11 C 92.52 209.28 96.25 206.54 99.30 203.25 C 100.34 201.98 102.15 200.96 101.98 199.09 C 102.26 192.29 101.92 185.47 102.13 178.66 C 101.09 179.69 100.05 180.71 99.02 181.75 C 98.90 187.42 99.41 193.13 98.74 198.78 C 97.72 200.48 95.43 200.37 94.36 198.79 C 93.86 194.63 94.30 190.43 94.03 186.26 C 90.84 190.85 89.54 196.36 87.41 201.45 C 81.14 203.82 74.88 206.20 68.64 208.64 C 71.13 202.42 73.53 196.17 75.93 189.92 C 81.01 187.77 86.39 186.29 91.13 183.42 C 87.10 182.99 83.02 183.44 79.00 182.99 C 76.53 182.55 76.96 178.60 79.34 178.53 C 84.75 178.22 90.17 178.54 95.59 178.39 C 97.71 176.17 99.88 174.00 102.07 171.85 C 102.01 157.81 102.21 143.77 101.95 129.73 C 98.87 135.14 95.76 140.54 92.59 145.90 C 93.93 151.25 95.75 156.49 96.76 161.92 C 96.83 163.86 94.30 164.09 92.93 164.54 C 91.32 160.27 90.41 155.78 88.98 151.46 C 87.25 156.72 87.27 162.31 86.62 167.76 C 81.24 171.82 75.70 175.65 70.35 179.74 C 71.04 173.03 71.76 166.33 72.51 159.63 C 76.90 156.33 81.76 153.57 85.51 149.49 C 81.28 150.15 77.28 151.86 73.01 152.27 C 71.27 151.69 71.73 149.52 71.50 148.13 C 77.09 146.40 82.77 145.00 88.43 143.50 C 91.61 138.04 94.77 132.56 97.88 127.05 C 85.73 134.24 73.43 141.17 61.24 148.29 C 60.47 151.21 59.48 154.09 59.09 157.10 C 61.24 162.38 65.06 166.83 67.20 172.12 C 66.89 173.92 64.84 175.36 63.24 173.96 C 60.74 170.73 59.13 166.92 56.83 163.56 C 56.52 169.10 58.00 174.52 58.70 179.98 C 54.50 185.19 50.20 190.33 46.10 195.63 C 45.23 189.07 43.86 182.59 43.12 176.02 C 45.87 171.25 50.47 167.63 52.84 162.54 C 49.10 164.23 45.78 166.70 42.01 168.32 C 39.80 168.91 38.29 165.56 40.13 164.29 C 44.56 161.10 49.56 158.78 54.22 155.94 C 54.58 154.52 54.94 153.10 55.29 151.69 C 48.99 155.31 42.74 159.00 36.43 162.60 C 34.89 168.18 33.52 173.80 31.87 179.35 C 30.45 179.36 29.03 179.32 27.61 179.26 C 27.86 174.54 29.60 170.11 30.48 165.50 C 26.38 169.28 23.60 174.19 20.21 178.57 C 13.54 179.19 6.89 179.96 0.23 180.66 C 4.25 175.31 8.13 169.86 12.10 164.47 C 17.56 163.72 23.21 163.86 28.46 162.02 C 24.52 160.73 20.36 160.08 16.54 158.44 C 16.05 157.22 15.71 155.95 15.51 154.65 C 21.92 154.00 27.87 157.24 34.06 158.38 C 40.34 154.78 46.59 151.13 52.87 147.54 C 51.49 147.14 50.11 146.74 48.73 146.33 C 43.77 149.01 39.10 152.24 33.96 154.56 C 31.72 154.83 31.33 152.80 31.45 151.03 C 34.83 148.36 38.87 146.69 42.29 144.06 C 36.76 144.12 31.34 145.35 25.91 146.22 C 20.75 141.88 15.42 137.75 10.21 133.49 C 16.86 132.57 23.49 131.46 30.13 130.45 C 34.47 133.82 38.47 137.69 43.28 140.41 C 41.60 136.44 38.89 133.01 37.39 128.97 C 37.83 127.30 40.29 125.67 41.55 127.54 C 44.72 132.00 47.07 137.00 49.90 141.68 C 52.90 142.48 55.90 143.28 58.91 144.04 C 71.07 136.97 83.28 129.99 95.44 122.91 C 89.59 123.02 83.75 122.80 77.91 123.00 C 76.54 122.81 75.64 123.94 74.74 124.74 C 71.04 128.36 67.67 132.34 63.56 135.52 C 62.66 134.45 61.57 133.47 61.12 132.10 C 63.58 128.53 67.12 125.87 69.85 122.52 C 64.49 123.74 59.63 126.44 54.63 128.62 C 48.41 125.96 42.27 123.13 36.04 120.51 C 42.35 118.03 48.32 114.68 54.76 112.58 C 59.84 114.41 64.50 117.37 69.84 118.48 C 67.28 115.30 63.97 112.78 61.54 109.50 C 60.56 107.80 62.39 106.39 63.84 105.95 C 68.93 109.07 72.01 114.68 76.97 117.90 C 83.10 118.33 89.27 117.92 95.42 118.09 C 84.17 111.49 72.82 105.07 61.57 98.46 C 58.09 95.82 53.75 98.31 50.15 99.45 C 46.71 103.76 44.88 109.13 41.51 113.50 C 40.24 115.31 37.87 113.67 37.38 112.06 C 38.87 108.00 41.61 104.57 43.27 100.59 C 38.45 103.30 34.47 107.19 30.12 110.55 C 23.48 109.54 16.86 108.43 10.20 107.51 C 15.42 103.25 20.75 99.12 25.91 94.78 C 31.34 95.62 36.74 96.92 42.27 96.92 C 38.88 94.32 34.88 92.66 31.53 90.02 C 31.25 88.22 31.69 86.14 33.96 86.44 C 39.11 88.75 43.78 91.98 48.73 94.67 C 50.11 94.25 51.49 93.85 52.87 93.46 C 46.59 89.87 40.34 86.22 34.07 82.62 C 27.87 83.77 21.94 86.97 15.52 86.37 C 15.68 85.03 16.03 83.76 16.58 82.55 C 20.17 80.98 24.07 80.28 27.85 79.32 C 27.66 79.05 27.28 78.51 27.09 78.24 C 22.20 77.38 17.19 77.37 12.33 76.39 C 7.84 71.43 4.43 65.56 0.24 60.34 C 6.92 61.04 13.60 61.78 20.29 62.47 C 23.59 66.88 26.41 71.73 30.49 75.50 C 29.60 70.89 27.86 66.45 27.61 61.74 C 29.03 61.67 30.45 61.64 31.88 61.65 C 33.52 67.20 34.90 72.82 36.43 78.40 C 42.74 82.00 48.99 85.69 55.29 89.31 C 54.93 87.89 54.58 86.47 54.22 85.06 C 49.55 82.22 44.56 79.89 40.13 76.70 C 38.29 75.44 39.78 72.19 41.97 72.67 C 45.77 74.29 49.12 76.79 52.90 78.48 C 50.54 73.89 46.82 70.25 43.73 66.18 C 42.73 65.29 43.23 63.96 43.33 62.84 C 44.26 57.02 45.26 51.21 46.10 45.37 C 50.20 50.67 54.50 55.81 58.70 61.02 C 58.00 66.47 56.52 71.89 56.83 77.42 C 59.15 74.08 60.72 70.26 63.25 67.07 C 64.94 65.25 68.19 67.88 66.78 69.91 C 64.55 74.74 61.13 78.96 59.09 83.88 C 59.49 86.90 60.49 89.80 61.27 92.73 C 73.45 99.84 85.74 106.77 97.88 113.95 C 94.77 108.44 91.61 102.96 88.43 97.50 C 83.27 96.07 78.01 94.96 72.93 93.25 C 70.77 92.71 71.08 89.43 72.99 88.71 C 77.25 89.16 81.28 90.82 85.51 91.50 C 81.77 87.43 76.91 84.67 72.52 81.39 C 71.75 74.69 71.04 67.97 70.35 61.26 C 75.70 65.34 81.23 69.18 86.61 73.23 C 87.27 78.70 87.26 84.31 88.97 89.60 C 90.40 85.21 91.33 80.67 92.98 76.34 C 94.38 77.02 95.79 77.70 97.18 78.40 C 95.54 83.94 94.15 89.54 92.59 95.09 C 95.81 100.50 98.88 106.00 102.11 111.40 C 101.91 97.57 102.32 83.72 101.92 69.89 C 100.68 66.91 97.68 64.75 95.22 62.70 C 89.94 62.27 84.63 62.88 79.35 62.46 C 76.93 62.48 76.59 58.42 78.98 58.00 C 83.01 57.56 87.09 58.00 91.13 57.58 C 86.40 54.70 81.01 53.23 75.93 51.08 C 73.53 44.83 71.13 38.58 68.64 32.36 C 74.88 34.80 81.15 37.18 87.42 39.55 C 89.54 44.64 90.84 50.15 94.03 54.72 C 94.30 50.57 93.85 46.38 94.36 42.24 C 95.47 40.59 97.68 40.50 98.76 42.24 C 99.49 47.80 98.68 53.43 99.15 59.01 C 99.96 60.31 101.09 61.37 102.09 62.51 C 102.04 55.18 102.12 47.84 102.03 40.51 C 98.32 36.70 94.31 33.15 90.86 29.09 C 88.97 27.54 91.65 23.94 93.57 25.52 C 96.91 27.86 99.35 31.26 102.51 33.85 C 101.46 28.51 98.37 23.92 96.61 18.83 C 98.35 12.30 102.33 6.49 104.36 0.00 Z" />
</g>
</svg>
