<?xml version="1.0" encoding="UTF-8" ?>
<!DOCTYPE svg PUBLIC "-//W3C//DTD SVG 1.1//EN" "http://www.w3.org/Graphics/SVG/1.1/DTD/svg11.dtd">
<svg width="225pt" height="225pt" viewBox="0 0 225 225" version="1.1" xmlns="http://www.w3.org/2000/svg">
<g id="#ffffffff">
</g>
<g id="#000000ff">
<path fill="#000000" opacity="1.00" d=" M 87.72 14.71 C 89.26 11.49 92.83 10.39 96.18 10.50 C 97.94 11.88 100.06 13.08 100.90 15.28 C 101.47 17.49 101.16 19.90 99.81 21.77 C 94.35 30.71 89.18 39.83 83.57 48.67 C 87.09 54.19 90.06 60.04 93.45 65.63 C 94.33 61.17 93.14 55.32 97.46 52.37 C 100.17 50.07 104.35 50.84 106.54 53.48 C 108.85 55.72 108.30 59.16 108.03 62.04 C 107.08 70.14 106.46 78.28 105.43 86.37 C 107.07 89.12 108.50 92.01 110.36 94.62 C 111.59 95.20 113.42 95.36 114.60 94.59 C 116.49 92.00 117.91 89.11 119.56 86.37 C 118.50 77.21 117.53 68.04 116.71 58.86 C 115.85 53.70 122.29 48.88 126.82 51.91 C 131.85 54.56 130.66 60.95 131.54 65.63 C 134.91 60.02 137.94 54.21 141.41 48.65 C 135.59 39.41 130.10 29.96 124.52 20.57 C 122.25 16.56 125.24 12.37 128.82 10.51 C 130.88 10.74 133.14 10.63 134.89 11.94 C 136.82 13.49 137.91 15.79 139.15 17.88 C 142.29 23.65 146.19 28.98 149.08 34.90 C 152.54 29.37 155.75 23.69 159.00 18.03 C 160.27 15.47 163.17 13.84 166.02 14.17 C 170.28 14.55 173.43 19.55 171.70 23.49 C 168.70 29.78 164.83 35.60 161.38 41.64 C 168.28 41.64 175.14 42.49 182.05 42.25 C 185.02 42.31 188.69 41.76 190.73 44.51 C 194.67 48.36 191.69 56.05 186.11 56.09 C 175.27 56.42 164.45 55.56 153.62 55.55 C 150.00 61.12 146.96 67.03 143.50 72.69 C 147.00 71.33 150.32 69.33 154.04 68.64 C 158.09 68.63 160.87 72.15 161.41 75.90 C 160.61 77.89 160.13 80.31 158.03 81.37 C 149.59 85.74 140.66 89.10 132.20 93.38 C 129.67 95.77 128.44 99.25 126.42 102.06 C 127.17 103.25 127.92 104.44 128.66 105.64 C 131.91 105.62 135.16 105.62 138.42 105.60 C 146.13 99.89 153.95 94.32 161.85 88.89 C 166.55 85.67 173.31 90.69 172.08 96.09 C 171.14 100.90 165.91 102.52 162.62 105.45 C 169.13 105.80 175.66 105.55 182.19 105.61 C 185.43 99.96 188.37 94.15 191.70 88.55 C 194.14 84.40 195.95 79.84 198.94 76.03 C 202.19 72.20 209.10 73.83 210.55 78.56 C 211.83 81.36 210.10 84.20 208.72 86.57 C 205.11 92.85 201.78 99.27 198.08 105.49 C 205.42 105.74 212.77 105.60 220.11 105.58 C 222.37 106.96 224.46 108.80 225.00 111.53 L 225.00 113.67 C 224.16 116.39 222.06 119.03 219.06 119.31 C 212.07 119.58 205.06 119.16 198.07 119.51 C 201.92 125.90 205.31 132.56 209.06 139.00 C 210.56 141.40 211.83 144.46 210.26 147.15 C 208.17 151.92 200.67 152.52 198.08 147.88 C 192.63 138.48 187.52 128.87 182.19 119.39 C 175.67 119.44 169.15 119.20 162.64 119.55 C 165.91 122.47 171.11 124.11 172.08 128.88 C 173.31 134.28 166.58 139.32 161.86 136.11 C 153.94 130.69 146.13 125.09 138.40 119.39 C 135.14 119.38 131.89 119.38 128.64 119.36 C 127.91 120.55 127.17 121.74 126.43 122.92 C 128.42 125.73 129.66 129.17 132.15 131.57 C 140.63 135.88 149.60 139.22 158.05 143.62 C 162.23 146.00 162.03 152.81 157.87 155.12 C 153.06 158.31 148.06 153.67 143.46 152.24 C 146.97 157.90 150.01 163.85 153.63 169.45 C 164.79 169.43 175.96 168.46 187.12 169.00 C 192.20 169.89 194.37 176.94 190.68 180.52 C 188.36 183.49 184.29 182.59 181.03 182.75 C 174.46 182.56 167.92 183.05 161.37 183.39 C 164.80 189.13 168.35 194.81 171.40 200.77 C 173.36 204.22 171.34 209.18 167.57 210.39 C 164.41 211.66 160.55 210.02 159.05 207.02 C 155.79 201.35 152.60 195.64 149.08 190.13 C 145.46 197.04 141.06 203.50 137.26 210.30 C 135.74 213.47 132.21 214.52 128.93 214.50 C 125.31 212.69 122.25 208.52 124.49 204.46 C 130.08 195.07 135.58 185.61 141.41 176.36 C 137.93 170.84 135.05 164.97 131.52 159.49 C 130.66 164.11 131.79 170.36 126.89 173.04 C 122.35 176.16 115.79 171.27 116.72 166.06 C 117.55 156.89 118.49 147.73 119.55 138.58 C 117.88 135.86 116.48 132.98 114.64 130.36 C 113.35 129.80 111.55 129.65 110.32 130.42 C 108.50 133.00 107.10 135.84 105.44 138.52 C 106.45 147.67 107.43 156.84 108.27 166.01 C 108.98 170.42 104.59 174.69 100.23 173.93 C 97.40 173.19 94.85 170.89 94.43 167.91 C 93.93 165.07 93.82 162.19 93.47 159.34 C 90.05 164.92 87.08 170.77 83.59 176.32 C 89.38 185.62 94.92 195.08 100.52 204.51 C 102.95 208.91 98.88 214.68 94.01 214.35 C 90.71 214.41 88.34 211.73 86.95 209.03 C 83.48 202.61 79.21 196.65 75.92 190.13 C 72.23 195.79 69.05 201.77 65.58 207.56 C 63.61 210.96 58.58 211.89 55.54 209.39 C 53.04 207.42 51.96 203.58 53.60 200.75 C 56.68 194.85 60.07 189.11 63.67 183.52 C 55.17 182.05 46.50 183.21 37.93 182.59 C 33.48 181.97 31.05 176.24 33.30 172.45 C 34.37 170.39 36.57 168.94 38.91 168.90 C 49.73 168.61 60.54 169.39 71.36 169.45 C 74.98 163.87 78.00 157.93 81.50 152.27 C 78.37 153.54 75.36 155.10 72.14 156.15 C 67.29 157.35 62.32 151.89 64.25 147.18 C 65.27 143.28 69.72 142.42 72.84 140.80 C 79.37 137.48 86.31 135.03 92.78 131.60 C 95.32 129.21 96.55 125.73 98.56 122.90 C 97.81 121.73 97.06 120.55 96.33 119.37 C 93.09 119.38 89.86 119.38 86.62 119.38 C 79.85 124.42 72.90 129.21 66.06 134.14 C 63.96 135.62 61.70 137.45 58.94 137.04 C 54.28 136.55 51.17 130.83 53.67 126.73 C 55.75 123.51 59.51 121.98 62.38 119.56 C 55.86 119.19 49.32 119.46 42.79 119.39 C 37.51 128.84 32.37 138.39 26.97 147.78 C 24.53 152.20 17.58 152.09 15.09 147.81 C 13.53 145.52 13.78 142.51 15.24 140.24 C 19.21 133.37 22.86 126.32 26.89 119.49 C 19.90 119.18 12.89 119.57 5.90 119.31 C 2.86 119.04 0.73 116.32 0.00 113.53 L 0.00 111.21 C 0.88 108.58 2.90 105.98 5.83 105.69 C 12.85 105.43 19.88 105.82 26.89 105.51 C 22.70 98.25 18.68 90.90 14.65 83.55 C 12.35 79.22 16.34 73.73 21.05 73.88 C 24.04 73.71 26.44 75.93 27.74 78.42 C 32.73 87.50 37.79 96.54 42.79 105.62 C 49.31 105.55 55.83 105.80 62.35 105.46 C 59.54 103.02 55.84 101.52 53.72 98.37 C 51.12 94.27 54.27 88.34 59.02 87.95 C 62.00 87.53 64.32 89.69 66.59 91.24 C 73.25 96.04 80.02 100.69 86.60 105.61 C 89.85 105.62 93.09 105.62 96.34 105.64 C 97.07 104.44 97.80 103.24 98.55 102.06 C 96.56 99.25 95.33 95.79 92.83 93.40 C 84.34 89.11 75.40 85.72 66.93 81.36 C 62.77 78.96 62.93 72.16 67.12 69.85 C 71.93 66.75 76.93 71.25 81.51 72.69 C 78.01 67.05 74.97 61.14 71.38 55.55 C 60.24 55.51 49.09 56.56 37.96 55.99 C 31.09 54.97 30.66 44.06 37.40 42.49 C 46.11 42.20 54.85 42.04 63.58 41.65 C 60.27 35.85 56.64 30.23 53.62 24.27 C 51.82 21.19 53.21 16.97 56.17 15.16 C 59.24 13.15 63.76 14.30 65.59 17.44 C 69.03 23.25 72.26 29.19 75.92 34.87 C 79.50 27.95 83.92 21.51 87.72 14.71 Z" />
</g>
</svg>
