<?xml version="1.0" encoding="UTF-8" ?>
<!DOCTYPE svg PUBLIC "-//W3C//DTD SVG 1.1//EN" "http://www.w3.org/Graphics/SVG/1.1/DTD/svg11.dtd">
<svg width="229pt" height="220pt" viewBox="0 0 229 220" version="1.1" xmlns="http://www.w3.org/2000/svg">
<g id="#ffffffff">
</g>
<g id="#020202ff">
<path fill="#020202" opacity="1.00" d=" M 146.76 15.38 C 147.50 14.59 148.24 13.81 148.99 13.03 C 149.48 14.14 149.96 15.26 150.46 16.37 C 150.94 17.74 151.38 19.12 151.87 20.49 C 152.23 19.49 152.94 17.50 153.30 16.50 C 156.06 17.63 155.08 20.74 155.18 23.07 C 154.87 23.51 154.23 24.39 153.92 24.83 C 154.75 25.73 155.59 26.63 156.45 27.51 C 156.64 26.54 157.02 24.59 157.21 23.62 C 157.99 23.63 159.56 23.64 160.35 23.65 C 160.18 26.18 159.52 28.57 158.13 30.69 C 158.52 31.49 158.95 32.28 159.39 33.05 C 160.58 30.86 161.63 28.61 162.86 26.44 C 160.82 24.43 159.77 21.87 160.88 19.04 C 162.08 20.37 163.23 21.75 164.38 23.13 C 164.83 22.57 165.74 21.47 166.19 20.91 C 165.67 20.67 164.64 20.19 164.12 19.96 C 164.48 18.58 164.80 17.20 165.11 15.81 C 165.57 15.55 166.48 15.04 166.93 14.78 C 167.14 16.08 167.34 17.38 167.55 18.67 C 169.19 17.97 170.85 16.86 172.69 17.59 C 170.43 19.45 168.16 21.32 166.12 23.44 C 167.69 24.00 170.69 23.44 169.99 26.01 C 168.29 26.50 166.52 26.70 164.78 26.96 C 163.43 29.89 161.13 32.60 161.31 36.00 C 163.79 34.44 164.38 30.24 167.72 30.28 C 168.48 32.13 166.45 33.55 165.83 35.14 C 169.67 36.34 171.13 31.90 174.06 30.52 C 175.04 31.99 175.71 34.39 173.23 35.23 C 177.06 36.00 179.15 31.61 182.98 31.62 C 182.34 33.15 181.50 34.58 180.31 35.76 C 182.46 36.34 183.29 37.84 182.76 39.99 C 181.28 39.11 179.89 38.10 178.57 37.01 C 176.24 37.02 173.92 37.02 171.59 37.02 C 172.90 38.64 174.27 40.22 175.46 41.93 C 172.56 41.63 170.60 39.53 169.28 37.10 C 167.54 37.16 165.80 37.23 164.07 37.34 C 165.10 38.84 166.12 40.35 167.12 41.88 C 164.17 41.95 162.74 39.35 161.30 37.28 C 160.76 37.29 159.68 37.32 159.14 37.33 C 157.86 39.54 156.61 41.77 155.41 44.03 C 157.69 44.10 159.97 44.15 162.26 44.05 C 162.45 44.59 162.85 45.66 163.05 46.19 C 159.98 46.70 156.88 46.90 153.78 47.00 C 153.17 48.24 152.55 49.48 151.94 50.72 C 155.21 50.92 159.07 50.10 161.67 52.63 C 157.90 53.38 154.05 53.18 150.23 53.34 C 149.50 54.73 148.77 56.12 148.04 57.51 C 151.33 57.47 154.72 57.07 157.88 58.25 C 154.86 60.88 150.47 59.22 146.84 59.62 C 145.59 62.04 144.20 64.38 142.88 66.76 C 143.63 67.88 144.37 69.01 145.11 70.14 C 145.66 69.99 146.76 69.67 147.31 69.51 C 148.64 67.87 150.00 66.10 152.12 65.46 C 152.91 67.29 151.09 68.42 150.29 69.78 C 151.84 69.61 153.39 69.46 154.95 69.34 C 156.09 67.71 157.21 66.08 158.44 64.51 C 159.09 66.21 158.51 67.91 158.05 69.55 C 159.78 69.52 161.52 69.51 163.26 69.47 C 164.71 67.17 165.78 64.33 168.60 63.37 C 168.06 65.54 167.10 67.56 166.05 69.52 C 166.89 69.48 168.56 69.40 169.40 69.36 C 170.20 69.76 171.80 70.55 172.60 70.94 C 170.77 71.17 168.92 71.24 167.09 71.37 C 167.87 73.10 168.41 74.90 168.69 76.78 C 166.36 75.62 164.71 73.57 163.47 71.33 C 161.60 71.33 159.73 71.32 157.87 71.32 C 158.58 73.37 161.30 75.73 158.93 77.63 C 157.06 75.99 156.19 73.60 154.92 71.52 C 153.63 71.43 152.34 71.34 151.06 71.25 C 151.80 73.43 152.50 75.67 152.32 78.02 C 150.57 76.21 149.46 73.95 148.30 71.75 C 147.13 71.34 145.97 70.92 144.82 70.48 C 145.12 72.84 143.52 74.63 142.34 76.45 C 140.83 76.33 139.32 76.21 137.81 76.08 C 138.26 80.62 134.28 83.83 132.82 87.84 C 135.42 87.82 138.02 87.77 140.63 87.65 C 141.37 88.45 142.10 89.25 142.83 90.06 C 139.45 93.08 134.57 92.14 130.47 91.54 C 128.06 96.46 125.02 101.05 122.76 106.05 C 128.57 106.87 134.42 106.33 140.25 106.34 C 141.36 102.58 143.63 99.34 145.50 95.95 C 146.42 95.85 147.34 95.73 148.27 95.71 C 149.03 98.82 147.14 101.45 145.88 104.11 C 145.53 105.20 144.26 104.71 143.46 104.64 C 144.62 102.01 148.71 99.38 146.90 96.27 C 144.71 99.03 143.42 102.31 141.79 105.40 C 143.06 105.93 144.30 106.54 145.53 107.17 L 144.84 105.94 C 148.29 106.08 151.73 106.61 155.20 106.51 C 156.05 104.57 157.48 103.37 159.49 102.91 C 159.42 103.62 159.29 105.06 159.22 105.78 C 159.70 105.67 160.65 105.44 161.13 105.33 C 160.68 104.58 160.22 103.85 159.75 103.11 C 160.88 102.68 162.02 102.27 163.17 101.90 C 161.47 100.73 160.18 99.13 159.04 97.44 C 159.67 96.91 160.31 96.38 160.95 95.85 C 161.98 96.91 162.99 97.99 164.00 99.08 C 164.43 98.30 165.30 96.74 165.73 95.95 C 162.83 95.21 160.08 91.47 163.03 89.06 C 164.72 90.65 166.00 92.61 166.01 95.03 C 167.33 93.02 168.58 90.96 169.84 88.90 C 167.00 87.56 166.20 84.40 165.63 81.60 C 168.54 82.32 169.07 85.55 170.36 87.79 C 171.02 86.43 171.69 85.07 172.37 83.72 C 170.73 81.95 169.52 79.86 168.54 77.66 C 171.28 76.75 172.31 79.33 173.62 81.12 C 174.19 80.26 174.76 79.41 175.33 78.56 C 174.29 76.94 173.31 75.28 172.46 73.55 C 174.55 73.23 175.88 74.51 176.89 76.15 C 178.27 74.20 178.40 70.83 181.20 70.39 C 180.90 71.39 180.32 73.41 180.03 74.41 C 181.88 73.79 183.73 73.13 185.64 72.68 C 184.42 75.23 181.63 75.86 179.12 76.39 C 178.93 76.70 178.57 77.32 178.38 77.63 C 180.50 77.76 182.62 77.97 184.63 78.69 C 182.43 80.57 179.53 80.06 176.90 80.24 C 176.25 81.33 175.59 82.42 174.94 83.52 C 177.17 83.59 179.41 83.72 181.64 83.94 C 180.25 87.08 176.27 85.80 173.62 85.72 C 173.10 86.71 172.60 87.71 172.10 88.71 C 174.25 88.90 176.42 89.06 178.56 89.42 C 176.84 92.16 173.36 91.12 170.69 91.15 C 169.85 92.47 169.04 93.81 168.22 95.15 C 170.27 95.22 172.56 95.02 173.80 97.06 C 171.60 97.25 169.40 97.32 167.19 97.32 C 166.11 99.33 164.98 101.31 163.87 103.31 C 164.55 104.53 165.25 105.74 165.96 106.95 C 170.17 107.12 174.39 107.00 178.61 106.94 C 180.22 104.15 181.36 100.89 184.17 99.05 C 184.30 101.93 182.84 104.42 181.64 106.92 C 183.18 106.87 184.72 106.80 186.25 106.75 C 187.67 104.20 188.42 100.72 191.58 99.78 C 191.17 102.11 190.04 104.19 189.21 106.38 C 190.53 106.61 191.87 106.73 193.21 106.86 C 195.05 104.10 195.49 99.63 199.37 98.99 C 198.61 101.72 197.19 104.18 195.82 106.63 C 197.48 106.67 199.14 106.71 200.80 106.74 C 201.48 105.51 202.14 104.27 202.82 103.04 C 201.50 100.60 199.04 97.27 202.09 95.01 C 202.98 97.05 203.28 99.25 203.58 101.43 C 204.36 100.24 205.12 99.02 205.90 97.82 C 203.77 95.84 202.37 92.61 204.04 89.87 C 204.94 91.84 206.00 93.73 206.88 95.71 C 207.58 94.41 208.27 93.12 208.99 91.83 C 207.37 90.45 206.70 88.19 207.58 86.21 C 208.96 87.43 210.35 88.67 212.30 88.75 C 212.03 89.71 211.68 90.65 211.26 91.56 C 213.06 90.17 215.47 90.14 216.96 92.05 C 214.37 94.09 210.69 93.37 208.25 95.52 C 210.38 95.37 212.51 95.20 214.64 94.99 C 213.59 99.72 207.42 96.78 205.45 100.59 C 207.00 100.74 212.20 98.87 211.24 102.17 C 208.13 103.18 204.32 103.42 202.49 106.54 C 204.84 106.56 207.21 106.72 209.56 106.49 C 211.54 104.85 213.02 102.63 215.26 101.27 C 214.91 103.27 214.38 105.24 214.00 107.23 C 216.43 105.30 218.19 102.47 221.24 101.40 C 220.84 102.58 220.44 103.76 220.02 104.94 C 220.88 105.37 221.73 105.82 222.58 106.27 C 223.62 106.65 224.64 107.08 225.64 107.56 C 223.49 107.67 221.35 107.66 219.21 107.85 C 219.81 109.41 220.37 110.98 220.68 112.63 C 217.98 112.54 216.90 110.25 216.28 108.02 C 215.90 108.01 215.15 108.00 214.77 107.99 C 215.23 109.72 215.57 111.48 215.68 113.28 C 213.54 111.99 211.95 110.06 210.23 108.31 C 207.85 108.17 205.47 108.38 203.11 108.57 C 204.83 111.24 208.57 110.51 210.70 112.71 L 210.16 114.00 C 209.23 113.89 207.36 113.69 206.43 113.58 C 207.16 114.89 207.88 116.20 208.59 117.52 C 210.90 117.59 213.41 117.30 215.19 119.12 C 213.71 120.27 212.11 121.23 210.20 120.36 C 211.13 122.15 212.83 123.79 212.47 126.01 C 210.48 125.09 209.37 123.22 208.32 121.41 C 207.88 122.22 207.00 123.85 206.56 124.67 C 204.14 122.64 205.73 119.93 206.72 117.61 C 206.12 116.74 205.57 115.84 204.92 115.01 C 204.28 115.63 202.99 116.88 202.34 117.51 C 201.81 115.47 202.35 113.51 203.21 111.67 C 202.66 110.60 202.16 109.51 201.54 108.48 C 199.60 108.28 197.65 108.41 195.71 108.47 C 197.84 112.05 201.42 115.13 201.49 119.59 C 196.91 117.61 195.47 112.42 193.11 108.47 C 191.92 108.43 190.74 108.41 189.55 108.38 C 191.29 111.80 193.77 114.90 194.79 118.65 C 193.23 119.16 192.16 117.70 191.17 116.77 C 189.16 114.28 188.10 111.22 186.67 108.41 C 184.76 108.47 182.86 108.48 180.96 108.54 C 182.40 111.98 186.27 114.81 185.17 118.89 C 182.31 115.83 180.46 112.03 178.34 108.45 C 174.38 108.63 170.42 108.65 166.46 108.72 C 165.57 110.08 164.66 111.43 163.72 112.77 C 164.52 113.80 165.31 114.85 166.10 115.90 C 169.14 115.87 173.52 114.38 175.02 118.13 C 172.70 119.68 169.95 118.47 167.46 118.22 C 168.06 119.21 168.69 120.16 169.37 121.09 C 171.48 121.71 173.73 121.16 175.88 121.07 C 176.36 121.64 177.31 122.79 177.79 123.36 C 175.50 123.90 173.15 123.92 170.84 123.53 C 171.53 124.74 172.21 125.95 172.89 127.17 C 175.59 127.06 179.06 126.41 180.71 129.19 C 178.40 129.32 176.09 129.22 173.78 129.07 C 174.55 130.26 175.32 131.45 176.10 132.64 C 178.68 132.83 181.54 132.60 183.75 134.19 C 183.67 134.73 183.51 135.82 183.43 136.36 C 182.26 136.06 181.10 135.73 179.95 135.37 C 179.32 135.37 178.08 135.38 177.46 135.38 C 178.91 137.01 180.13 138.94 180.19 141.20 C 177.92 141.59 177.41 138.92 176.24 137.62 C 175.44 138.91 174.63 140.19 173.79 141.45 C 172.93 138.05 174.53 134.72 173.93 131.33 C 172.46 133.16 171.27 135.19 169.90 137.10 C 167.15 134.32 170.26 131.67 171.69 129.19 C 171.06 128.17 170.44 127.16 169.83 126.13 C 168.95 127.97 167.91 131.93 165.59 129.09 C 166.31 127.08 167.13 125.10 167.97 123.14 C 167.32 122.21 166.67 121.28 166.03 120.36 C 165.34 122.11 165.23 124.16 163.94 125.60 C 162.68 125.09 162.47 123.69 161.90 122.64 C 162.83 120.86 163.81 119.09 164.62 117.25 C 164.01 116.15 163.31 115.11 162.63 114.06 C 161.84 113.68 159.40 113.14 160.61 111.73 L 160.90 110.96 L 161.11 110.10 C 160.63 110.38 159.68 110.96 159.20 111.25 C 159.25 111.99 159.33 113.46 159.38 114.19 C 157.84 113.30 156.49 112.18 155.33 110.84 C 152.26 111.29 149.16 111.28 146.07 111.34 C 147.22 113.40 148.66 115.32 149.49 117.54 C 149.72 119.19 148.44 120.32 146.97 120.76 C 145.18 117.75 143.43 114.73 141.65 111.72 C 135.74 111.43 129.82 111.85 123.92 111.46 C 126.76 115.68 129.19 120.16 131.78 124.54 C 136.20 124.96 140.95 123.74 145.04 126.00 C 143.92 127.04 142.79 128.06 141.65 129.07 C 139.58 129.12 137.51 129.14 135.44 129.10 C 135.06 130.02 134.65 130.94 134.23 131.85 C 133.79 129.57 132.30 128.20 129.74 127.74 C 131.20 131.67 133.73 135.04 135.93 138.57 C 137.37 135.99 135.57 133.56 134.91 131.10 C 135.67 131.87 137.19 133.41 137.94 134.17 C 138.15 134.97 138.36 135.76 138.58 136.56 C 139.90 136.56 141.22 136.57 142.54 136.58 C 143.36 138.18 144.23 139.76 145.07 141.35 C 145.70 141.35 146.97 141.35 147.60 141.35 C 148.82 139.24 150.00 137.10 151.53 135.20 C 152.49 135.09 152.97 135.54 152.98 136.56 C 152.11 138.29 150.93 139.83 149.85 141.42 C 150.89 141.35 152.96 141.21 153.99 141.14 C 155.90 138.67 156.61 134.03 160.23 133.83 C 159.88 136.61 157.70 138.75 156.52 141.22 C 157.88 141.22 159.24 141.21 160.61 141.21 C 161.94 139.21 163.18 137.13 164.74 135.30 L 166.42 136.03 C 165.48 137.92 164.16 139.57 162.87 141.23 C 165.82 141.23 168.78 141.10 171.72 141.32 C 170.49 143.95 172.71 145.31 174.33 146.95 C 171.71 146.46 169.46 144.98 167.85 142.88 C 167.05 142.97 165.45 143.15 164.65 143.24 C 165.87 144.65 167.14 146.02 168.35 147.44 C 165.29 147.22 162.85 145.33 160.97 143.05 C 157.27 143.19 153.56 143.08 149.86 143.24 C 151.25 144.43 152.70 145.55 154.24 146.55 C 154.21 147.33 154.16 148.88 154.13 149.66 C 151.34 148.12 149.24 145.69 147.55 143.03 C 146.89 143.04 145.57 143.04 144.91 143.04 C 144.27 144.05 143.63 145.06 143.00 146.08 C 145.02 149.32 146.46 152.99 149.15 155.78 C 151.80 157.29 155.89 154.90 157.73 158.01 C 155.33 158.16 152.93 158.24 150.53 158.42 C 151.56 160.17 152.66 161.88 153.66 163.65 C 156.53 163.71 159.78 162.92 162.11 165.07 C 159.80 165.54 157.45 165.81 155.09 165.98 C 156.13 167.85 157.19 169.71 158.23 171.58 C 161.10 171.58 163.97 171.72 166.80 172.25 C 165.17 174.51 162.29 173.71 159.92 173.99 C 160.92 175.91 162.00 177.80 163.13 179.66 C 165.58 179.62 168.04 179.53 170.49 179.47 C 172.08 177.75 173.67 176.02 175.47 174.51 C 176.31 175.06 176.50 176.05 176.88 176.91 C 175.97 177.54 174.15 178.79 173.24 179.42 C 175.13 179.35 177.02 179.33 178.92 179.34 C 180.22 177.52 182.16 176.46 184.12 175.50 C 183.94 177.26 183.75 179.03 183.68 180.80 L 184.67 180.02 C 185.53 181.13 186.37 182.26 187.20 183.40 C 185.01 183.44 183.40 181.96 182.08 180.39 C 180.74 180.45 178.05 180.57 176.71 180.63 C 178.76 181.71 180.50 183.26 181.47 185.40 C 178.71 185.01 176.95 182.79 175.09 180.98 C 173.40 181.03 171.72 181.09 170.04 181.12 C 171.99 182.02 173.92 183.14 174.60 185.34 C 171.51 184.91 169.18 182.74 166.78 180.97 C 166.05 181.04 164.58 181.19 163.85 181.26 C 165.00 183.09 166.19 184.90 167.32 186.74 C 169.93 187.14 173.05 186.45 174.95 188.72 C 172.98 189.24 170.97 189.42 168.95 189.60 C 169.51 190.61 170.07 191.63 170.63 192.65 C 172.97 192.37 175.52 191.97 177.31 193.91 C 175.85 194.40 174.38 194.86 172.90 195.28 C 173.74 196.96 174.33 198.73 174.49 200.62 C 172.30 199.69 170.72 197.97 170.02 195.70 C 169.79 197.49 169.46 199.26 169.12 201.04 C 168.57 200.55 167.46 199.59 166.91 199.11 C 167.37 197.01 168.13 194.99 168.88 192.99 C 167.99 191.82 167.08 190.66 166.17 189.51 C 165.34 191.74 166.70 196.84 162.85 195.80 C 162.26 192.66 163.37 189.63 165.22 187.14 C 164.17 185.33 163.10 183.52 161.96 181.78 C 161.38 184.25 161.94 186.78 161.55 189.27 C 160.86 188.77 159.49 187.77 158.80 187.27 C 159.27 190.27 160.19 193.35 159.25 196.37 C 158.24 194.95 157.31 193.46 156.03 192.28 C 156.43 195.07 157.05 197.83 157.21 200.66 C 155.47 199.86 153.95 198.57 152.01 198.24 C 152.39 197.49 153.16 196.00 153.54 195.25 C 151.42 195.12 147.72 196.25 148.67 192.73 C 150.63 192.46 152.54 192.99 154.43 193.42 C 155.01 192.10 155.62 190.79 156.24 189.49 C 154.41 189.46 152.57 189.37 150.74 189.24 C 152.15 186.41 155.03 186.37 157.79 186.34 C 158.10 186.07 158.74 185.52 159.05 185.24 C 156.76 185.39 154.19 185.95 153.74 182.98 C 156.08 182.41 158.51 182.38 160.85 181.85 C 161.71 179.24 158.62 177.06 157.77 174.74 C 156.29 176.87 155.88 180.42 152.62 180.47 C 153.78 177.42 155.22 174.48 155.95 171.29 C 154.83 169.71 153.78 168.10 152.72 166.49 C 151.16 169.02 149.65 171.58 147.84 173.95 C 146.22 170.16 150.09 167.34 151.20 163.99 C 150.39 162.43 149.54 160.90 148.70 159.36 C 146.90 161.71 146.07 166.10 142.77 166.46 C 143.04 162.76 145.79 159.91 146.86 156.46 C 145.25 153.43 143.36 150.56 141.82 147.49 C 140.31 147.38 138.81 147.28 137.30 147.18 C 136.48 148.85 135.67 150.52 134.85 152.19 C 136.21 154.51 137.89 156.72 138.39 159.44 C 136.35 158.01 134.73 156.13 132.98 154.38 C 130.89 158.46 136.87 160.78 136.09 164.86 L 134.79 165.63 C 133.27 163.66 132.22 161.41 130.90 159.32 C 130.52 159.85 129.76 160.92 129.37 161.46 C 131.18 164.01 133.38 166.89 132.02 170.22 C 130.48 168.34 129.41 166.14 128.30 164.00 C 127.85 164.71 126.95 166.13 126.50 166.84 C 127.58 169.67 128.90 172.82 127.19 175.73 C 126.30 173.73 125.85 171.58 125.31 169.47 C 123.38 172.54 121.89 175.88 119.58 178.69 C 119.50 175.87 120.92 173.40 122.28 171.05 C 121.23 171.28 119.13 171.75 118.08 171.98 C 118.96 169.37 121.58 168.74 123.91 168.15 C 124.69 166.65 125.45 165.14 126.15 163.61 C 123.47 164.19 121.16 167.56 118.35 166.28 C 119.53 164.16 121.35 162.05 123.97 161.95 C 126.13 161.91 127.94 160.88 129.39 159.35 C 126.37 158.76 123.29 158.83 120.25 158.45 C 122.94 156.28 126.37 156.47 129.45 157.67 C 130.10 156.50 130.77 155.34 131.43 154.17 C 129.54 154.33 127.65 154.43 125.76 154.51 C 125.66 153.91 125.45 152.70 125.35 152.10 C 127.69 151.71 130.09 151.67 132.27 152.72 C 133.31 150.77 134.51 148.90 135.51 146.92 C 134.84 145.29 133.78 143.84 133.27 142.14 C 133.55 140.82 134.48 139.77 135.14 138.63 C 132.46 136.77 131.11 133.74 129.80 130.88 C 128.52 133.63 127.07 136.30 125.49 138.88 C 124.56 139.15 123.64 139.41 122.71 139.67 C 122.47 138.52 122.23 137.37 122.00 136.22 C 123.94 133.23 125.63 130.07 127.03 126.79 C 124.73 122.09 121.81 117.74 119.12 113.27 C 116.50 118.39 113.36 123.28 111.12 128.58 C 112.83 131.68 114.70 134.69 116.23 137.88 C 116.02 138.46 115.60 139.61 115.39 140.19 C 114.54 140.29 113.68 140.38 112.83 140.48 C 111.21 137.99 109.79 135.38 108.47 132.72 C 106.71 135.47 105.17 138.38 103.16 140.97 C 103.91 143.25 105.18 146.13 103.28 148.22 C 103.00 148.11 102.44 147.91 102.16 147.81 C 102.36 146.85 102.60 145.90 102.89 144.95 C 102.08 144.99 100.46 145.05 99.65 145.09 C 100.77 147.43 102.16 149.61 103.61 151.75 C 105.53 151.96 108.55 150.63 109.56 152.91 C 109.20 154.91 106.56 153.68 105.17 154.14 C 105.72 154.99 106.26 155.86 106.81 156.72 C 109.17 157.10 111.90 156.95 113.70 158.81 C 111.83 158.88 109.97 158.86 108.12 158.77 C 108.95 160.27 109.79 161.77 110.61 163.28 C 112.75 162.37 115.06 162.70 117.28 163.11 C 117.14 163.73 116.88 164.97 116.75 165.60 C 114.93 165.01 113.09 164.52 111.25 164.00 C 112.64 166.37 113.87 168.83 115.28 171.19 C 115.91 171.47 117.17 172.03 117.80 172.31 C 117.09 172.81 116.34 173.23 115.54 173.58 C 113.48 172.09 112.29 169.80 110.89 167.75 C 109.94 169.41 108.90 171.01 107.75 172.53 C 105.83 169.69 107.23 166.83 109.00 164.39 C 108.50 163.67 108.01 162.94 107.52 162.22 C 106.12 163.07 104.89 166.84 102.87 164.84 C 103.63 161.49 106.47 157.95 103.21 154.97 C 102.47 156.73 102.01 158.64 100.85 160.20 C 97.19 158.42 101.27 155.17 102.16 152.80 C 100.53 150.56 99.22 148.03 97.14 146.17 C 97.65 147.26 98.18 148.34 98.73 149.41 L 96.48 149.62 C 94.30 152.79 92.57 156.28 91.06 159.81 C 92.56 162.80 95.73 165.12 95.42 168.80 C 92.72 167.30 91.25 164.56 89.73 162.02 C 88.88 163.53 87.99 165.02 87.06 166.48 C 89.04 169.24 91.75 171.96 91.42 175.66 C 88.63 174.35 87.69 171.27 85.83 169.05 C 85.09 170.41 84.36 171.78 83.62 173.15 C 85.75 176.12 87.63 179.34 88.27 183.00 C 85.35 181.47 83.85 178.39 82.01 175.82 C 81.32 177.18 80.64 178.55 79.97 179.93 C 80.77 181.04 81.56 182.15 82.36 183.26 C 84.52 183.38 86.69 183.60 88.74 184.35 C 87.38 185.53 85.69 186.11 84.00 186.59 C 84.60 187.36 85.20 188.15 85.79 188.93 C 88.05 188.93 90.60 188.52 91.98 190.76 C 90.29 190.87 88.61 190.95 86.92 191.01 C 87.20 191.61 87.77 192.80 88.05 193.40 C 89.43 193.20 91.20 192.73 91.68 194.45 C 90.97 194.66 89.53 195.09 88.82 195.30 C 91.27 195.91 92.55 198.01 93.66 200.10 C 92.83 200.07 91.16 200.00 90.32 199.97 C 89.39 199.21 88.58 198.24 87.41 197.86 C 87.30 198.93 87.07 201.05 86.96 202.11 C 84.42 200.05 85.94 197.60 86.91 195.20 C 86.34 194.03 85.73 192.88 85.08 191.75 C 84.61 193.18 84.14 194.61 83.62 196.04 C 82.99 195.85 81.72 195.48 81.09 195.29 C 81.76 193.26 82.81 191.39 84.01 189.62 C 83.32 188.61 82.64 187.61 81.95 186.61 C 81.17 187.86 80.89 192.36 78.48 190.13 C 78.81 187.64 79.54 185.24 80.06 182.80 C 78.76 182.78 77.45 182.78 76.20 182.39 L 77.43 181.27 C 75.80 181.24 74.18 181.20 72.57 181.14 C 71.66 183.69 68.38 186.49 65.71 184.95 C 67.18 183.63 68.68 182.34 70.00 180.87 C 65.97 179.91 64.60 184.53 61.08 185.24 C 61.61 183.73 62.23 182.26 62.94 180.83 C 60.86 181.50 58.73 182.05 56.54 182.27 C 56.75 181.66 57.17 180.43 57.38 179.82 C 59.36 179.88 61.33 179.88 63.31 179.88 C 62.62 178.12 62.02 176.32 61.48 174.51 C 64.10 175.10 65.12 177.53 66.26 179.63 C 67.35 179.64 68.45 179.65 69.55 179.67 C 68.97 178.22 68.41 176.78 67.81 175.35 C 68.31 174.41 68.80 173.48 69.31 172.56 C 70.53 174.85 71.55 177.25 72.19 179.78 C 74.25 179.81 76.31 179.72 78.37 179.61 C 79.25 177.91 80.14 176.21 81.03 174.52 C 78.73 174.32 76.42 174.23 74.16 173.78 C 76.39 171.36 79.65 172.24 82.51 171.76 C 83.29 170.63 84.02 169.46 84.71 168.27 C 82.07 168.11 79.27 168.50 76.84 167.23 C 79.59 165.86 82.73 166.23 85.70 166.10 C 86.61 164.44 87.51 162.77 88.43 161.10 C 85.56 161.27 82.69 161.24 79.84 160.83 C 82.36 157.92 86.27 159.02 89.64 158.54 C 91.74 155.53 93.56 152.28 95.02 148.92 C 94.50 147.31 93.56 145.89 92.73 144.44 C 90.93 145.86 90.01 149.54 87.08 148.40 C 87.97 147.34 88.88 146.30 89.78 145.26 C 89.19 145.27 88.01 145.30 87.42 145.31 C 85.47 147.74 84.16 151.71 80.52 151.74 C 81.18 149.29 82.69 147.26 84.27 145.33 C 83.07 145.43 81.87 145.53 80.67 145.62 C 79.84 148.94 77.71 152.73 73.74 152.57 C 74.68 149.88 76.44 147.65 78.20 145.46 C 77.49 145.45 76.06 145.44 75.35 145.43 C 73.06 147.88 70.66 152.00 66.70 150.20 C 68.10 148.84 69.48 147.47 70.93 146.16 C 68.77 145.99 64.63 147.84 65.49 144.13 C 67.97 143.72 70.50 143.65 73.01 143.54 C 71.56 142.55 70.09 141.59 68.63 140.62 C 69.37 140.08 70.12 139.54 70.87 139.01 C 73.06 140.83 74.54 143.67 77.53 144.32 C 76.59 142.37 75.46 140.51 74.45 138.59 C 77.90 137.53 79.51 141.23 80.61 143.75 C 81.26 143.70 82.54 143.61 83.18 143.56 C 82.30 141.84 81.44 140.10 80.68 138.32 C 81.26 138.05 82.42 137.51 83.00 137.24 C 84.38 139.27 85.57 141.42 86.73 143.58 C 87.29 143.65 88.42 143.79 88.98 143.86 C 88.57 142.47 88.12 141.08 87.81 139.66 C 89.81 138.32 90.21 141.64 91.32 142.65 L 89.99 143.43 C 91.14 143.61 92.29 143.78 93.44 143.96 L 93.85 142.27 C 94.52 142.86 95.20 143.45 95.88 144.04 C 96.86 143.38 97.85 142.74 98.85 142.11 C 98.87 141.61 98.91 140.62 98.93 140.12 C 100.75 136.77 102.63 133.44 104.08 129.91 C 100.98 130.04 97.87 130.06 94.77 130.16 C 94.09 128.74 91.64 127.19 93.46 125.67 C 97.83 125.64 102.21 125.59 106.58 125.47 C 109.37 120.95 112.00 116.33 114.44 111.62 C 108.96 111.98 103.46 111.66 97.98 111.91 C 95.81 114.10 94.99 117.20 93.44 119.81 C 92.33 120.20 91.15 120.33 90.01 120.56 C 88.22 117.29 91.43 114.40 93.14 111.86 C 90.67 111.88 88.21 111.98 85.74 112.08 C 85.87 111.84 86.13 111.36 86.26 111.12 C 88.81 110.08 91.73 110.79 94.43 110.49 C 94.42 109.93 94.39 108.80 94.38 108.23 C 90.78 108.06 87.03 107.65 83.52 108.55 C 83.73 109.14 84.17 110.32 84.38 110.92 L 84.57 111.79 L 82.02 111.02 C 81.36 112.11 80.68 113.18 80.01 114.25 C 78.46 114.23 76.91 114.27 75.37 114.33 C 74.89 115.12 74.41 115.91 73.94 116.70 C 74.65 117.63 75.37 118.55 76.09 119.47 C 75.95 121.20 78.26 124.39 75.28 124.64 C 73.78 123.25 73.54 121.07 72.61 119.33 C 71.90 120.65 71.23 121.99 70.57 123.33 C 71.94 125.84 72.99 128.50 73.98 131.18 C 70.45 133.09 69.80 128.99 68.89 126.56 C 68.40 127.40 67.41 129.08 66.92 129.93 C 67.97 131.97 69.07 134.00 70.03 136.10 C 69.47 136.90 68.89 137.69 68.31 138.48 C 67.03 136.41 66.42 134.07 66.02 131.70 C 65.44 132.86 64.87 134.03 64.29 135.20 C 65.27 137.15 66.18 139.38 65.36 141.57 C 64.63 141.07 63.18 140.05 62.45 139.54 C 61.42 140.40 60.39 141.24 59.33 142.07 C 58.50 139.74 60.38 137.97 61.47 136.16 C 60.96 135.70 59.94 134.79 59.43 134.33 C 61.33 133.12 63.54 132.28 64.91 130.38 C 62.71 130.33 59.73 133.18 58.33 130.42 C 60.38 128.36 63.35 128.36 66.04 128.10 L 66.03 127.49 C 64.79 126.90 63.57 126.27 62.38 125.60 C 63.99 123.96 65.97 122.76 68.36 123.08 C 69.07 121.80 69.79 120.52 70.53 119.26 C 68.26 120.17 65.84 120.62 63.39 120.32 C 64.61 119.21 65.86 118.15 67.12 117.10 C 68.61 117.08 70.09 117.03 71.58 116.99 C 72.27 115.95 72.96 114.92 73.66 113.88 C 72.83 112.58 72.01 111.28 71.20 109.97 C 69.42 109.99 67.63 109.95 65.85 110.10 C 63.43 113.42 62.08 117.56 58.90 120.37 C 57.86 116.36 61.19 113.11 62.69 109.67 C 61.94 109.89 60.44 110.32 59.69 110.53 C 57.75 113.51 56.27 116.77 54.17 119.66 C 53.80 118.70 52.59 117.74 53.51 116.69 C 54.47 114.44 55.71 112.32 56.99 110.24 C 55.56 110.19 54.12 110.13 52.69 110.07 C 51.40 113.11 49.77 115.99 48.04 118.80 C 47.54 118.40 46.56 117.60 46.06 117.20 C 47.29 114.79 48.61 112.41 49.79 109.97 C 49.11 110.08 47.73 110.28 47.04 110.38 C 45.33 112.94 44.58 116.27 41.79 117.98 C 41.63 115.03 42.99 112.45 44.74 110.21 C 42.17 110.31 39.59 110.29 37.01 110.31 C 36.51 111.21 36.00 112.11 35.50 113.01 C 36.56 115.58 37.57 118.25 37.17 121.09 C 35.72 119.88 34.91 118.20 34.12 116.54 C 33.66 116.99 32.75 117.89 32.29 118.34 C 33.41 120.76 34.54 123.18 35.42 125.70 C 33.10 125.15 31.40 123.54 29.74 121.96 C 29.69 125.07 32.80 127.41 31.20 130.67 C 30.20 129.46 29.25 128.23 28.30 126.99 C 27.06 128.35 25.79 129.68 24.39 130.89 C 24.90 129.37 25.52 127.89 26.17 126.43 C 25.23 126.11 23.34 125.47 22.40 125.15 C 24.18 124.38 26.02 123.78 27.92 123.35 C 28.31 122.76 28.71 122.17 29.11 121.59 C 27.51 121.07 25.91 120.51 24.34 119.90 C 26.28 118.97 28.38 118.57 30.50 118.31 C 30.92 117.54 31.35 116.77 31.77 116.01 C 30.56 115.84 29.35 115.68 28.14 115.53 C 27.82 115.11 27.19 114.28 26.87 113.86 C 28.97 113.69 31.08 113.56 33.18 113.68 C 33.72 112.59 34.24 111.50 34.76 110.41 C 33.35 110.47 31.94 110.58 30.53 110.73 C 29.62 110.52 28.71 110.31 27.80 110.11 C 26.89 113.65 23.50 115.30 20.36 116.47 C 21.19 114.31 22.73 112.57 24.19 110.82 C 23.18 110.82 21.14 110.83 20.13 110.83 C 19.01 113.00 17.18 114.56 14.79 115.12 C 15.32 113.52 16.05 112.02 16.80 110.52 C 13.42 110.10 12.40 113.64 9.67 114.70 C 9.64 112.69 10.76 111.20 12.18 109.95 C 11.07 108.90 10.05 107.77 9.12 106.57 C 11.17 107.43 13.03 108.65 15.00 109.66 C 14.70 107.94 12.65 106.02 13.96 104.38 C 17.08 105.81 18.38 110.14 22.42 109.25 C 21.77 107.80 21.10 106.35 20.66 104.82 C 23.63 103.95 24.33 107.16 25.84 108.87 C 28.81 109.08 31.79 108.86 34.76 108.78 C 34.10 107.79 33.44 106.80 32.77 105.81 C 30.59 106.08 28.44 105.64 26.35 105.06 C 27.33 102.77 29.70 103.48 31.63 103.51 C 30.86 102.18 30.09 100.87 29.31 99.56 C 27.62 99.52 25.90 99.60 24.23 99.30 C 24.10 98.57 23.85 97.12 23.72 96.39 C 25.31 96.97 26.90 97.58 28.50 98.13 C 26.76 95.32 24.88 92.58 23.46 89.58 C 25.12 89.61 26.61 90.27 28.05 91.01 C 28.66 92.93 29.19 94.87 29.75 96.81 C 30.24 95.37 30.68 93.91 31.18 92.47 C 34.67 93.80 32.98 97.49 31.51 99.74 C 32.20 100.54 32.90 101.34 33.60 102.15 C 33.97 100.75 34.36 99.36 34.77 97.98 C 37.82 99.60 36.45 103.02 35.07 105.25 C 35.78 106.41 36.44 107.61 37.32 108.67 C 39.61 108.86 41.92 108.73 44.22 108.73 C 43.05 106.77 41.76 104.87 40.74 102.82 C 41.30 101.99 41.87 101.16 42.44 100.34 C 44.42 102.81 45.68 105.73 46.58 108.75 C 47.81 108.66 49.03 108.59 50.26 108.52 C 48.70 106.21 47.36 103.75 46.69 101.02 C 50.48 101.68 51.17 105.82 52.70 108.68 C 53.97 108.63 55.24 108.59 56.51 108.55 C 54.77 105.80 53.09 102.99 52.09 99.88 C 52.60 99.83 53.61 99.75 54.12 99.71 C 56.26 102.20 57.38 105.33 59.06 108.10 C 60.13 108.21 62.28 108.43 63.36 108.53 C 61.76 105.66 57.47 102.42 59.86 98.88 C 62.30 101.61 63.90 104.93 65.39 108.24 C 67.14 108.26 68.89 108.24 70.64 108.15 C 71.22 106.24 73.33 104.25 71.65 102.32 C 68.92 102.22 66.18 102.46 63.47 102.02 C 64.08 98.99 67.55 100.03 69.74 99.32 C 69.10 98.06 68.45 96.80 67.81 95.54 C 65.22 95.85 62.49 96.46 60.19 94.85 C 60.30 94.39 60.52 93.47 60.64 93.01 C 62.56 93.19 64.49 93.28 66.42 93.39 C 65.62 92.14 64.85 90.86 63.91 89.71 C 61.49 89.68 59.00 89.58 57.00 87.99 C 59.04 87.83 61.09 87.80 63.13 87.75 C 62.39 86.64 61.65 85.53 60.92 84.43 C 58.53 84.41 55.25 83.58 55.20 80.63 C 56.68 81.00 58.14 81.49 59.59 81.96 C 58.49 80.40 56.13 79.14 57.70 76.76 C 59.92 78.15 61.03 80.56 62.23 82.78 C 62.69 82.12 63.61 80.79 64.07 80.13 C 66.25 82.18 65.75 85.24 65.11 87.84 C 65.92 89.19 66.71 90.55 67.52 91.91 C 68.33 89.64 69.05 87.35 69.85 85.08 C 70.48 86.09 71.48 86.95 71.69 88.17 C 71.24 90.36 69.87 92.22 68.87 94.18 C 69.50 95.23 70.14 96.27 70.79 97.30 C 71.60 95.98 72.16 94.52 73.08 93.28 C 76.39 94.73 73.23 98.67 72.33 100.84 C 74.05 104.95 81.61 102.41 81.03 107.58 C 80.29 106.99 78.80 105.83 78.05 105.24 C 78.60 106.11 79.69 107.84 80.24 108.71 C 80.86 107.88 81.43 107.01 82.04 106.18 L 81.98 107.90 C 85.25 105.80 89.21 107.14 92.81 106.90 C 91.43 103.83 88.04 100.72 89.92 97.13 C 90.48 97.08 91.62 96.96 92.18 96.90 C 94.34 99.99 96.10 103.34 97.91 106.64 C 103.50 106.81 109.09 106.52 114.65 105.98 C 112.02 101.47 109.08 97.11 106.86 92.38 C 102.93 92.63 99.00 92.62 95.06 92.67 C 93.70 92.65 92.84 91.30 91.74 90.67 C 94.11 88.03 97.66 88.33 100.87 88.47 C 101.52 88.99 102.16 89.51 102.80 90.04 C 99.64 90.21 95.97 88.66 93.32 91.11 C 95.68 91.39 98.06 91.55 100.43 91.27 C 102.90 91.58 105.40 91.49 107.86 91.03 C 106.42 90.20 104.87 89.90 103.22 90.15 C 102.99 89.72 102.52 88.87 102.29 88.44 L 104.92 88.45 C 102.57 85.09 100.29 81.56 99.09 77.60 C 97.53 77.40 95.97 77.22 94.41 77.08 C 93.31 75.52 92.25 73.93 91.20 72.34 C 89.14 72.45 87.08 72.59 85.05 72.96 C 83.69 75.17 82.87 78.39 79.87 78.81 C 80.02 77.98 80.32 76.33 80.47 75.51 C 81.12 74.73 81.76 73.94 82.39 73.15 C 80.92 73.08 79.44 73.02 77.97 72.97 C 76.90 75.69 75.74 78.71 72.63 79.61 C 72.90 77.21 74.02 75.07 75.31 73.08 C 73.81 73.07 72.31 73.05 70.81 73.02 C 69.95 75.55 68.81 78.34 66.03 79.25 C 66.45 77.05 67.38 74.99 68.63 73.13 C 64.71 73.41 60.52 73.08 57.39 70.41 C 60.47 69.77 63.52 70.54 66.48 71.35 C 65.30 69.42 64.00 67.56 62.94 65.56 C 65.49 66.40 66.73 68.84 68.43 70.70 C 69.64 70.84 70.86 70.94 72.09 71.00 C 70.84 69.28 69.59 67.54 68.72 65.59 C 71.86 65.70 73.32 68.52 74.44 71.02 C 75.05 71.00 76.25 70.95 76.85 70.93 C 76.19 68.62 75.59 66.30 75.11 63.95 C 77.86 65.22 79.11 67.93 79.33 70.81 C 80.46 70.78 81.60 70.77 82.74 70.77 C 81.69 68.79 80.91 66.69 80.68 64.45 C 84.10 64.73 85.30 68.01 86.41 70.72 C 88.16 70.70 89.91 70.70 91.66 70.69 C 92.38 69.54 93.10 68.38 93.84 67.23 C 92.53 65.02 91.32 62.75 89.85 60.64 C 86.67 60.64 83.49 61.10 80.33 60.65 C 81.77 57.40 85.80 58.85 88.58 58.27 C 87.73 56.84 86.88 55.41 86.05 53.96 C 82.83 53.60 77.96 55.73 76.12 52.18 C 78.89 51.78 81.69 51.73 84.49 51.71 C 83.73 50.24 82.97 48.78 82.21 47.32 C 78.91 47.17 75.26 48.11 72.35 46.06 C 74.81 44.85 77.57 44.91 80.23 44.62 C 78.94 42.00 77.61 39.37 75.82 37.05 C 72.23 35.39 71.16 41.32 67.47 40.49 C 67.95 39.24 68.56 38.05 69.30 36.93 C 68.42 36.96 66.67 37.00 65.80 37.03 C 64.42 38.80 62.77 40.36 60.75 41.39 C 60.99 39.96 61.24 38.55 61.54 37.14 C 60.76 37.19 59.21 37.30 58.44 37.35 C 59.12 35.74 59.82 34.15 60.45 32.52 C 62.42 33.18 64.27 34.14 65.95 35.38 C 66.99 35.26 69.07 35.02 70.11 34.90 C 69.45 34.57 68.15 33.90 67.50 33.57 C 67.92 32.88 68.76 31.52 69.18 30.83 C 70.33 32.08 71.44 33.38 72.47 34.74 C 73.08 34.84 74.32 35.04 74.93 35.14 C 73.86 33.21 72.71 31.33 71.49 29.49 C 71.15 29.83 70.46 30.50 70.12 30.83 C 68.37 30.77 66.63 30.62 64.91 30.34 C 65.13 29.64 65.58 28.25 65.80 27.55 C 67.45 27.66 69.11 27.77 70.76 27.87 C 70.08 26.63 69.39 25.39 68.71 24.15 C 66.30 24.15 63.88 23.97 61.63 23.05 C 62.23 22.16 62.84 21.27 63.46 20.38 C 64.74 20.73 66.02 21.08 67.30 21.42 C 65.46 19.29 63.02 17.33 63.08 14.25 C 63.99 14.46 64.90 14.67 65.80 14.89 C 66.64 16.81 67.46 18.74 68.38 20.61 C 68.93 19.01 68.93 15.28 71.75 16.88 C 71.62 19.10 70.88 21.21 70.18 23.29 C 70.57 23.96 71.35 25.29 71.74 25.95 C 72.98 24.15 74.11 22.21 76.34 21.44 C 76.04 24.16 74.68 26.55 73.33 28.87 C 74.60 30.93 75.70 33.24 77.83 34.56 C 78.01 31.64 75.84 29.21 76.30 26.26 C 77.58 27.08 78.82 27.98 80.04 28.91 C 80.47 28.09 80.91 27.26 81.35 26.44 C 80.14 23.98 79.21 21.31 79.76 18.53 C 80.32 18.90 81.45 19.65 82.01 20.02 C 82.31 21.25 82.62 22.48 82.97 23.70 C 84.39 20.53 85.82 17.20 88.59 14.95 C 88.38 18.33 87.21 21.60 84.82 24.04 C 86.61 23.39 88.49 22.31 90.24 23.81 C 88.48 25.86 85.94 26.44 83.41 26.92 C 82.49 28.08 81.73 29.36 80.95 30.61 C 82.55 30.74 84.16 30.87 85.76 30.99 C 84.29 33.22 81.75 34.11 79.20 34.28 C 78.84 34.72 78.13 35.62 77.77 36.06 C 79.23 38.83 80.91 41.48 82.44 44.21 C 83.82 41.83 85.27 39.46 87.30 37.55 C 87.99 41.09 85.50 44.01 84.13 47.02 C 84.83 48.17 85.52 49.32 86.23 50.46 C 88.04 47.68 89.34 44.35 92.38 42.64 C 92.18 46.73 89.40 49.98 87.57 53.46 C 88.57 54.90 89.56 56.33 90.56 57.77 C 92.12 54.96 93.57 52.02 95.93 49.79 C 96.69 53.75 93.32 56.70 92.12 60.20 C 93.08 62.60 94.64 64.69 95.96 66.90 C 97.09 66.79 98.23 66.68 99.36 66.57 C 100.06 65.22 100.78 63.89 101.52 62.56 C 100.26 60.42 99.30 58.11 99.54 55.56 C 101.77 55.54 102.54 57.43 103.37 59.11 C 103.86 58.25 104.36 57.40 104.85 56.54 C 103.91 55.07 103.00 53.58 102.09 52.10 C 102.53 51.14 102.99 50.18 103.48 49.24 C 104.28 50.89 104.99 52.59 105.68 54.29 C 106.40 53.14 107.11 51.99 107.84 50.84 C 106.71 47.96 106.46 44.87 106.88 41.82 C 108.61 43.11 109.31 45.10 109.87 47.10 C 110.93 45.20 111.25 41.77 114.13 42.13 C 114.51 45.32 112.04 47.83 110.43 50.32 C 112.82 50.78 116.92 48.69 117.73 52.01 C 114.89 52.16 112.06 52.22 109.22 52.35 C 108.71 53.40 108.19 54.45 107.68 55.50 C 110.70 55.50 113.96 54.12 116.66 56.12 C 113.47 57.80 109.84 57.61 106.38 58.00 C 105.75 58.84 105.16 59.71 104.60 60.59 C 107.27 60.87 110.50 59.97 112.49 62.30 C 109.70 63.00 106.85 62.72 104.03 62.66 C 102.82 63.93 102.02 65.49 101.09 66.96 C 102.46 68.86 103.57 71.02 103.11 73.45 C 102.76 74.07 102.05 75.33 101.70 75.95 C 102.24 76.31 103.32 77.01 103.85 77.37 C 105.25 79.84 106.68 82.30 108.10 84.76 C 109.77 82.16 111.20 79.41 112.94 76.85 C 114.74 77.04 115.04 78.80 115.46 80.21 C 113.81 82.97 112.34 85.85 110.31 88.35 C 113.35 93.29 116.41 98.21 119.06 103.38 C 121.80 98.94 124.07 94.24 126.79 89.79 C 124.79 87.31 123.21 84.54 121.46 81.89 C 121.71 80.75 121.95 79.61 122.19 78.47 C 126.36 78.10 126.99 83.15 129.05 85.73 C 131.24 82.14 132.61 77.92 135.78 75.04 C 134.84 73.57 133.94 72.08 133.04 70.59 C 134.03 68.64 135.08 66.72 136.11 64.79 C 133.98 64.12 131.76 63.78 129.62 63.13 C 129.57 60.81 132.14 61.48 133.55 61.78 C 133.10 61.05 132.66 60.32 132.22 59.60 C 129.61 60.91 126.61 60.77 125.10 57.93 C 127.10 57.76 129.10 57.62 131.11 57.43 C 130.39 56.35 129.67 55.28 128.96 54.20 C 126.71 53.89 123.02 54.24 122.65 51.18 C 124.10 50.93 125.56 50.70 127.02 50.49 C 125.88 47.08 122.26 46.92 119.42 45.67 C 120.53 44.37 121.92 43.80 123.59 44.53 C 123.04 43.59 122.50 42.64 121.98 41.69 C 123.50 41.23 125.03 40.79 126.57 40.38 C 127.41 43.52 126.59 47.06 128.87 49.73 C 129.85 47.85 130.45 45.01 133.27 45.53 C 132.86 48.08 132.00 50.50 131.14 52.92 C 131.49 54.21 131.93 55.47 132.37 56.74 C 134.32 55.28 135.08 52.94 136.02 50.80 C 136.68 52.14 137.30 53.50 137.89 54.87 C 136.64 56.19 135.39 57.51 134.09 58.79 C 134.74 59.88 135.37 60.98 136.02 62.08 C 137.37 60.11 137.30 56.48 140.27 56.23 C 141.27 59.43 138.48 62.15 137.15 64.82 C 138.08 65.00 139.95 65.35 140.88 65.53 C 140.13 66.59 139.41 67.67 138.71 68.76 C 141.90 66.79 143.24 62.93 145.10 59.81 C 142.72 56.12 138.79 53.05 138.60 48.33 C 139.18 48.49 140.35 48.81 140.93 48.97 C 142.70 51.86 144.36 54.83 145.93 57.83 C 146.85 56.22 147.76 54.61 148.72 53.02 C 146.37 49.79 143.83 46.62 142.19 42.95 C 142.64 42.53 143.53 41.69 143.98 41.27 C 146.45 44.09 147.83 47.61 149.70 50.81 C 150.64 49.08 151.55 47.33 152.45 45.57 C 150.31 42.91 148.24 40.13 146.91 36.96 C 147.41 36.12 147.93 35.29 148.48 34.47 C 150.60 37.23 152.21 40.32 153.85 43.38 C 155.16 40.59 157.33 38.06 157.79 34.94 C 157.35 33.47 156.43 32.21 155.65 30.91 C 152.59 31.85 149.50 31.18 147.45 28.62 C 149.80 28.72 152.16 28.89 154.51 28.89 C 153.65 27.67 152.74 26.48 151.85 25.29 C 149.82 25.49 147.20 26.68 146.36 23.95 C 147.93 23.72 149.51 23.48 151.08 23.25 C 149.91 20.48 148.20 18.00 146.76 15.38 M 135.68 70.06 C 137.06 71.19 139.19 69.07 137.60 67.86 C 136.36 66.61 134.63 69.00 135.68 70.06 M 94.21 68.84 C 92.77 69.44 93.42 72.04 95.05 71.36 C 96.46 70.85 95.73 68.15 94.21 68.84 M 100.41 69.11 C 99.06 69.75 99.04 70.40 100.34 71.06 C 101.69 70.45 101.71 69.80 100.41 69.11 M 136.19 71.08 C 134.68 72.02 136.46 74.51 137.85 73.44 C 139.31 72.38 137.70 69.95 136.19 71.08 M 93.79 72.25 C 93.31 73.87 93.87 74.42 95.46 73.92 C 95.97 72.31 95.42 71.75 93.79 72.25 M 99.73 72.11 C 97.87 74.69 102.66 75.53 102.49 72.61 C 101.80 71.50 100.88 71.34 99.73 72.11 M 140.60 71.46 C 139.87 72.65 139.12 73.84 138.36 75.01 C 139.24 74.97 140.99 74.88 141.86 74.84 C 142.39 73.63 142.91 72.42 143.43 71.21 C 142.72 71.27 141.31 71.40 140.60 71.46 M 97.18 74.15 C 95.69 74.59 96.49 76.83 97.93 76.30 C 99.46 76.00 98.47 73.67 97.18 74.15 M 134.10 79.14 C 132.39 82.17 130.47 85.19 129.65 88.62 C 133.68 86.03 134.82 80.78 136.78 76.65 C 135.59 77.13 134.64 77.96 134.10 79.14 M 100.15 77.59 C 101.87 81.69 104.22 85.42 107.01 88.86 C 106.68 86.80 106.82 84.52 105.34 82.85 C 103.78 80.88 103.27 77.44 100.15 77.59 M 109.00 85.09 C 107.83 86.31 107.96 88.13 107.55 89.66 C 110.89 86.43 113.59 82.18 114.35 77.55 C 111.98 79.62 110.95 82.68 109.00 85.09 M 122.82 79.31 C 122.72 83.57 126.33 86.33 128.10 89.88 C 124.69 94.97 122.23 100.62 119.03 105.83 C 115.98 100.38 112.70 95.07 109.44 89.74 C 109.13 90.31 108.51 91.45 108.20 92.02 C 111.15 96.88 113.83 101.90 116.37 106.99 C 112.28 107.81 108.10 108.29 103.92 107.97 C 100.94 108.05 97.28 107.11 95.41 110.13 C 102.33 111.20 109.32 110.11 116.27 110.54 C 113.57 116.45 109.82 121.83 107.13 127.75 C 109.69 128.61 110.58 126.16 111.61 124.57 C 114.32 120.21 116.13 115.33 119.31 111.26 C 120.62 112.89 121.72 114.67 122.66 116.54 C 124.44 119.76 126.90 122.68 128.22 126.11 C 128.00 130.16 124.84 133.36 123.14 136.91 C 123.37 137.40 123.81 138.38 124.03 138.87 C 125.80 135.64 127.73 132.47 128.94 128.98 C 129.01 128.40 129.14 127.24 129.21 126.67 L 129.35 125.71 C 129.61 125.40 130.14 124.78 130.40 124.48 C 127.49 119.82 124.39 115.24 122.01 110.28 C 128.23 110.48 134.47 110.64 140.67 110.14 C 141.17 109.41 142.17 107.94 142.67 107.21 C 135.46 108.08 128.20 107.58 120.96 107.66 C 123.11 101.73 126.72 96.42 129.68 90.86 C 128.14 86.64 126.05 82.49 122.82 79.31 M 129.67 89.30 C 132.09 91.20 135.23 90.68 138.09 90.78 C 139.62 91.06 140.66 89.89 141.68 88.97 C 137.67 88.94 133.66 88.91 129.67 89.30 M 90.28 99.22 C 92.25 102.12 93.35 105.81 96.33 107.85 C 95.14 104.56 93.40 101.51 91.69 98.47 L 90.28 99.22 M 75.48 104.96 C 75.09 106.26 75.59 106.93 77.01 106.97 C 79.24 106.26 76.89 103.33 75.48 104.96 M 161.92 105.64 C 161.54 107.02 162.05 107.49 163.44 107.06 C 163.82 105.67 163.31 105.20 161.92 105.64 M 73.01 106.78 C 72.67 108.16 73.20 108.60 74.60 108.10 C 74.93 106.71 74.40 106.27 73.01 106.78 M 142.88 107.55 C 144.41 108.56 145.65 110.74 147.79 110.09 C 150.12 109.62 153.33 110.93 154.95 108.73 C 151.79 105.76 146.81 108.08 142.88 107.55 M 157.15 109.06 C 155.65 112.04 160.46 109.17 157.15 109.06 M 162.23 108.97 C 161.74 110.56 162.31 111.10 163.95 110.59 C 164.43 108.98 163.86 108.44 162.23 108.97 M 73.66 109.92 C 73.18 111.27 73.65 111.78 75.07 111.43 C 75.55 110.08 75.08 109.57 73.66 109.92 M 78.46 110.06 C 77.67 111.23 79.65 112.65 80.41 111.37 C 81.29 110.15 79.25 108.85 78.46 110.06 M 141.62 109.04 C 144.17 112.41 145.14 116.89 148.42 119.67 C 148.43 116.07 145.61 113.45 144.30 110.29 C 143.63 109.97 142.29 109.35 141.62 109.04 M 90.47 119.51 C 94.35 118.31 94.79 113.57 96.30 110.38 C 93.80 113.01 91.57 116.02 90.47 119.51 M 131.58 126.35 C 131.45 126.53 131.21 126.90 131.09 127.09 C 135.23 127.74 140.79 129.44 143.84 125.64 C 139.95 125.81 136.08 125.75 132.20 125.57 C 132.04 125.76 131.73 126.15 131.58 126.35 M 93.66 126.92 C 94.11 127.41 95.02 128.38 95.47 128.86 C 99.23 128.73 102.99 128.49 106.72 127.99 C 106.35 127.70 105.61 127.12 105.24 126.83 C 101.38 126.88 97.52 127.09 93.66 126.92 M 101.67 140.08 C 104.83 137.83 105.91 133.63 107.76 130.33 C 108.13 130.61 108.88 131.16 109.26 131.43 C 110.93 134.23 112.31 137.18 114.02 139.94 C 114.22 139.48 114.62 138.56 114.82 138.10 C 113.34 135.43 111.73 132.82 110.33 130.10 C 108.85 130.11 107.38 130.07 105.91 130.10 C 104.25 133.22 101.21 136.47 101.67 140.08 M 137.86 137.96 L 139.63 139.44 L 138.43 140.08 C 139.45 139.69 140.47 139.28 141.57 139.28 L 140.55 141.10 C 141.15 141.23 142.35 141.50 142.95 141.63 C 142.72 140.86 142.26 139.32 142.03 138.55 L 142.85 138.53 C 141.18 138.35 139.52 138.16 137.86 137.96 M 136.11 139.66 C 134.54 142.74 139.48 139.89 136.11 139.66 M 99.85 143.06 C 100.68 144.54 101.51 144.57 102.34 143.14 C 101.49 141.68 100.66 141.65 99.85 143.06 M 135.54 142.93 C 135.11 144.28 135.61 144.76 137.04 144.39 C 137.47 143.04 136.97 142.56 135.54 142.93 M 141.27 143.19 C 141.51 146.51 144.18 141.60 141.27 143.19 M 139.28 144.14 C 137.98 144.89 137.97 145.57 139.26 146.19 C 140.56 145.46 140.57 144.78 139.28 144.14 M 95.22 145.08 C 95.19 148.36 98.31 143.70 95.22 145.08 M 181.94 178.41 L 181.58 179.34 C 182.47 181.71 184.16 177.78 181.94 178.41 Z" />
<path fill="#020202" opacity="1.00" d=" M 94.74 142.12 C 94.68 140.73 96.18 139.09 97.62 139.39 C 98.56 140.80 95.97 143.26 94.74 142.12 Z" />
<path fill="#020202" opacity="1.00" d=" M 153.92 143.34 C 154.66 143.56 156.13 144.01 156.86 144.23 C 158.59 145.75 161.10 147.06 160.56 149.81 C 157.80 148.28 155.80 145.80 153.92 143.34 Z" />
<path fill="#020202" opacity="1.00" d=" M 76.42 182.97 C 77.01 186.15 76.08 189.42 77.25 192.62 C 76.17 191.55 75.11 190.46 74.02 189.40 C 73.22 192.55 74.91 195.50 75.32 198.57 C 74.14 197.32 73.12 195.93 72.14 194.52 C 70.96 196.56 69.75 198.59 68.33 200.48 C 68.39 196.96 69.72 193.87 72.34 191.48 C 70.10 191.99 67.50 193.73 65.45 191.82 C 67.85 190.99 70.32 190.35 72.84 189.98 C 73.29 189.15 73.75 188.32 74.20 187.50 C 71.91 187.39 69.61 187.20 67.34 186.86 C 69.56 185.29 72.57 183.64 74.93 186.04 C 75.30 185.27 76.05 183.74 76.42 182.97 Z" />
</g>
</svg>
