<?xml version="1.0" encoding="UTF-8" ?>
<!DOCTYPE svg PUBLIC "-//W3C//DTD SVG 1.1//EN" "http://www.w3.org/Graphics/SVG/1.1/DTD/svg11.dtd">
<svg width="189pt" height="267pt" viewBox="0 0 189 267" version="1.1" xmlns="http://www.w3.org/2000/svg">
<g id="#ffffffff">
</g>
<g id="#000000ff">
<path fill="#000000" opacity="1.00" d=" M 86.16 33.20 C 90.24 27.77 99.53 28.06 103.21 33.79 C 105.65 37.08 105.22 41.33 105.02 45.17 C 107.50 42.81 110.36 40.36 114.01 40.44 C 120.28 39.91 125.82 45.88 125.12 52.06 C 124.75 57.56 119.71 60.79 116.26 64.45 C 122.44 65.09 126.56 71.97 124.77 77.78 C 123.50 82.12 119.59 84.81 116.59 87.92 C 118.87 88.76 120.92 90.06 122.76 91.64 C 124.21 87.16 124.39 81.68 128.36 78.51 C 132.65 74.81 139.88 75.42 143.26 80.08 C 144.64 75.07 144.98 68.71 149.98 65.81 C 154.81 62.68 161.93 64.40 164.74 69.45 C 166.86 72.67 166.42 76.73 165.32 80.23 C 169.13 77.67 173.80 74.68 178.55 76.62 C 184.42 78.31 187.54 85.59 185.02 91.08 C 183.48 94.97 179.49 96.84 176.03 98.66 C 179.89 99.55 183.88 101.58 185.41 105.48 C 187.77 110.64 185.24 117.47 179.92 119.60 C 175.07 121.82 169.91 119.23 165.18 118.01 C 167.09 123.17 164.48 129.40 159.39 131.52 C 154.51 133.68 149.38 131.06 144.61 129.89 C 145.33 132.30 145.42 134.81 144.80 137.26 C 149.45 136.29 154.37 133.58 159.10 135.63 C 164.36 137.58 167.09 143.95 165.17 149.18 C 170.00 148.07 175.29 145.25 180.16 147.76 C 185.67 150.20 188.01 157.62 184.87 162.78 C 183.12 166.10 179.55 167.78 176.02 168.52 C 179.81 170.60 184.31 172.81 185.44 177.40 C 187.55 183.64 182.55 190.88 175.99 191.18 C 171.92 191.64 168.53 188.99 165.28 186.99 C 166.81 191.12 166.73 196.27 163.44 199.54 C 159.94 203.59 153.38 204.24 149.20 200.88 C 144.84 197.74 144.59 191.95 143.27 187.20 C 140.10 191.39 133.78 192.41 129.43 189.51 C 124.57 186.68 124.23 180.52 122.82 175.66 C 120.93 177.24 118.83 178.52 116.50 179.33 C 119.82 182.71 124.37 185.77 125.06 190.83 C 125.96 196.33 121.91 202.19 116.28 202.80 C 120.01 206.53 125.29 210.15 125.15 216.04 C 125.44 222.67 118.52 228.31 112.10 226.56 C 109.22 226.05 107.10 223.94 105.08 222.00 C 105.21 226.04 105.70 230.60 102.85 233.91 C 99.07 239.06 90.74 239.35 86.59 234.52 C 83.24 231.25 83.69 226.28 83.83 222.01 C 80.81 225.46 76.01 228.11 71.39 226.38 C 65.63 224.88 62.24 218.03 64.35 212.51 C 65.92 208.43 69.73 205.90 72.63 202.82 C 67.06 202.19 62.95 196.42 63.84 190.94 C 64.42 185.91 68.91 182.87 72.15 179.49 C 69.85 178.69 67.97 177.13 66.20 175.51 C 64.66 180.18 64.49 186.04 60.07 189.11 C 55.71 192.42 49.07 191.56 45.65 187.29 C 44.25 192.37 43.84 198.83 38.61 201.61 C 33.52 204.83 26.27 202.42 23.75 197.05 C 22.02 193.95 22.65 190.24 23.61 187.01 C 20.37 188.96 17.01 191.61 12.98 191.16 C 6.26 190.93 1.09 183.33 3.57 177.02 C 4.82 172.62 9.21 170.55 12.90 168.53 C 9.64 167.79 6.24 166.45 4.43 163.46 C 0.80 158.36 2.91 150.38 8.64 147.80 C 13.57 145.22 18.88 148.13 23.81 149.17 C 21.52 143.74 24.94 137.06 30.49 135.35 C 35.04 133.83 39.55 136.30 43.96 137.19 C 43.55 134.75 43.63 132.28 44.28 129.89 C 39.96 130.95 35.58 133.09 31.05 132.07 C 25.16 130.63 21.41 123.66 23.77 117.98 C 18.90 119.29 13.49 121.95 8.55 119.41 C 2.76 116.76 0.77 108.59 4.61 103.53 C 6.44 100.70 9.75 99.53 12.83 98.65 C 9.35 96.78 5.25 94.91 3.80 90.91 C 1.19 85.21 4.87 77.77 11.01 76.43 C 15.59 74.86 19.86 77.85 23.53 80.19 C 22.28 76.20 22.11 71.38 25.12 68.10 C 28.67 63.61 35.88 62.98 40.20 66.72 C 44.11 69.97 44.28 75.47 45.64 80.01 C 49.11 75.49 56.21 74.81 60.50 78.50 C 64.54 81.66 64.69 87.21 66.15 91.73 C 67.69 90.25 69.46 89.06 71.42 88.21 L 72.38 89.47 C 72.40 89.16 72.44 88.56 72.46 88.26 C 69.71 84.74 65.34 82.29 64.10 77.74 C 62.39 71.94 66.47 65.21 72.56 64.44 C 69.20 60.71 64.08 57.57 63.78 52.04 C 63.10 46.17 68.10 40.41 74.06 40.44 C 77.98 40.09 81.28 42.52 83.87 45.17 C 83.68 41.10 83.25 36.51 86.16 33.20 M 90.05 39.91 C 90.00 46.72 90.04 53.54 90.06 60.36 C 86.20 56.38 82.24 52.49 78.32 48.56 C 77.04 47.16 75.00 45.97 73.09 46.80 C 69.75 47.62 68.88 52.42 71.42 54.55 C 77.58 60.83 83.83 67.02 90.04 73.26 C 90.03 76.86 90.03 80.46 90.05 84.06 C 86.18 80.18 82.33 76.29 78.46 72.40 C 77.10 71.00 75.08 69.56 73.06 70.53 C 69.70 71.41 68.90 76.20 71.49 78.35 C 77.63 84.63 83.91 90.77 90.05 97.05 C 90.03 100.64 90.02 104.23 90.06 107.82 C 85.89 103.66 81.81 99.41 77.57 95.32 C 74.93 92.52 69.24 94.98 69.74 98.92 C 71.03 104.95 72.78 110.87 74.46 116.80 C 71.46 114.68 67.67 113.44 65.06 110.90 C 62.79 103.64 61.05 96.21 59.06 88.86 C 58.40 86.57 58.09 83.57 55.50 82.61 C 52.28 81.04 48.20 84.63 49.41 88.03 C 50.85 93.73 52.39 99.40 54.01 105.05 C 50.98 102.90 47.45 101.49 44.55 99.17 C 41.90 90.43 40.05 81.43 37.24 72.75 C 35.32 68.67 28.48 70.43 28.79 74.95 C 29.97 81.05 31.87 87.00 33.46 93.01 C 27.47 89.56 21.55 85.99 15.51 82.64 C 12.63 81.10 8.81 83.85 9.13 87.03 C 9.06 89.16 10.96 90.51 12.60 91.47 C 18.01 94.61 23.43 97.76 28.87 100.85 C 23.08 102.51 17.19 103.86 11.44 105.64 C 7.21 107.25 8.40 114.27 12.98 114.39 C 22.07 112.46 30.95 109.59 39.96 107.33 C 43.11 109.17 46.28 110.99 49.47 112.76 C 43.48 114.34 37.41 115.73 31.54 117.70 C 27.40 119.66 29.28 126.59 33.88 126.22 C 42.79 124.12 51.58 121.52 60.44 119.20 C 63.62 121.05 66.80 122.89 69.99 124.71 C 64.31 125.98 58.70 127.57 53.09 129.13 C 48.97 130.11 48.54 137.03 52.86 138.04 C 58.53 139.66 64.22 141.25 69.99 142.52 C 66.82 144.36 63.63 146.17 60.49 148.06 C 51.69 145.76 42.95 143.16 34.09 141.07 C 29.50 140.38 27.32 147.46 31.46 149.53 C 37.36 151.50 43.43 152.99 49.50 154.38 C 46.32 156.25 43.14 158.12 39.92 159.93 C 31.30 157.65 22.74 155.12 14.07 153.05 C 9.03 151.71 6.65 159.90 11.50 161.61 C 17.26 163.36 23.10 164.89 28.96 166.27 C 23.16 169.78 17.20 173.03 11.41 176.54 C 9.81 177.38 8.91 179.21 9.16 181.00 C 9.41 183.99 13.03 186.03 15.69 184.51 C 21.68 181.15 27.61 177.67 33.53 174.18 C 31.86 180.12 30.05 186.06 28.83 192.11 C 28.32 196.74 35.25 198.60 37.28 194.55 C 39.97 185.90 41.90 177.01 44.48 168.32 C 47.13 165.71 50.95 164.50 53.95 162.27 C 52.37 168.17 50.64 174.04 49.26 179.99 C 48.51 184.65 55.60 186.90 57.72 182.68 C 60.56 173.99 62.31 164.95 65.08 156.23 C 67.86 153.85 71.42 152.53 74.45 150.46 C 72.85 156.28 71.11 162.08 69.80 167.98 C 69.12 171.65 74.30 175.15 77.15 172.21 C 81.56 168.05 85.71 163.62 90.05 159.38 C 90.03 162.98 90.03 166.59 90.04 170.20 C 84.45 175.90 78.82 181.56 73.17 187.19 C 71.63 188.82 69.40 190.50 70.03 193.07 C 70.18 196.60 75.22 198.29 77.57 195.67 C 81.81 191.59 85.89 187.34 90.06 183.18 C 90.03 186.78 90.03 190.38 90.04 193.98 C 84.18 199.81 78.39 205.71 72.52 211.53 C 71.37 212.78 69.78 214.06 70.00 215.97 C 69.44 219.84 74.87 222.29 77.50 219.46 C 81.76 215.36 85.85 211.09 90.05 206.94 C 90.14 214.26 89.82 221.60 90.19 228.91 C 91.49 232.76 97.51 232.71 98.77 228.85 C 99.19 221.57 98.86 214.24 98.92 206.93 C 102.90 211.00 106.91 215.05 110.95 219.05 C 112.24 220.48 114.45 221.24 116.24 220.27 C 119.35 219.20 119.93 214.61 117.42 212.61 C 111.30 206.38 105.08 200.24 98.94 194.01 C 98.95 190.41 98.96 186.81 98.92 183.20 C 103.28 187.51 107.43 192.02 111.96 196.14 C 115.48 198.76 119.89 194.83 119.11 190.91 C 113.41 184.61 107.22 178.77 101.26 172.73 C 97.07 169.62 99.66 163.82 98.94 159.44 C 103.23 163.70 107.35 168.13 111.77 172.25 C 114.66 174.83 119.44 171.79 119.09 168.19 C 117.91 162.18 115.99 156.34 114.47 150.41 C 117.57 152.37 120.77 154.15 123.92 156.03 C 126.09 164.42 128.38 172.77 130.61 181.15 C 130.98 183.22 132.84 185.00 135.01 184.95 C 137.92 185.20 140.45 181.96 139.48 179.19 C 138.04 173.54 136.52 167.91 134.90 162.31 C 138.00 164.20 141.16 166.01 144.30 167.83 C 146.83 176.74 148.93 185.79 151.67 194.63 C 153.75 198.59 160.66 196.71 160.05 192.12 C 158.91 186.04 156.99 180.12 155.37 174.16 C 161.56 177.78 167.66 181.60 174.03 184.88 C 178.59 186.37 182.00 179.53 178.00 176.90 C 172.06 173.20 165.90 169.85 159.87 166.30 C 165.31 165.09 170.65 163.50 176.03 162.07 C 178.01 161.69 179.96 160.15 180.06 158.00 C 180.61 154.76 176.99 151.92 173.95 153.20 C 165.61 155.38 157.30 157.71 148.97 159.93 C 145.74 158.13 142.56 156.26 139.37 154.39 C 145.01 153.17 150.55 151.59 156.10 150.03 C 159.15 149.55 160.76 145.56 158.89 143.10 C 157.75 141.11 155.18 140.64 153.15 141.41 C 144.91 143.64 136.66 145.82 128.43 148.06 C 125.26 146.22 122.10 144.37 118.93 142.53 C 124.68 141.20 130.38 139.67 136.04 138.04 C 140.29 137.02 139.93 130.21 135.89 129.16 C 130.25 127.56 124.59 125.98 118.87 124.69 C 122.10 122.89 125.29 121.01 128.51 119.19 C 136.98 121.49 145.45 123.83 153.95 126.02 C 156.01 126.68 158.47 125.53 159.29 123.53 C 160.46 121.19 159.09 118.02 156.56 117.34 C 150.88 115.70 145.16 114.21 139.43 112.76 C 142.62 111.01 145.76 109.18 148.90 107.32 C 157.62 109.58 166.26 112.16 175.02 114.28 C 179.64 115.28 182.05 108.22 178.09 105.94 C 172.24 103.78 166.01 102.76 160.08 100.79 C 166.14 97.27 172.37 94.00 178.22 90.14 C 181.92 87.41 178.46 81.03 174.15 82.34 C 167.73 85.60 161.64 89.50 155.37 93.04 C 157.05 87.07 158.91 81.12 160.09 75.03 C 160.56 70.44 153.40 68.60 151.59 72.84 C 148.84 81.70 146.88 90.80 144.17 99.68 C 140.97 101.26 137.90 103.11 134.91 105.05 C 136.53 99.32 138.10 93.57 139.55 87.80 C 140.44 84.75 137.19 81.66 134.18 82.31 C 132.39 82.77 131.00 84.30 130.60 86.09 C 128.33 94.32 126.36 102.64 123.88 110.81 C 121.31 113.42 117.48 114.66 114.45 116.79 C 116.09 110.86 117.90 104.96 119.16 98.94 C 119.60 94.84 114.29 92.76 111.42 95.30 C 107.12 99.32 103.11 103.64 98.92 107.79 C 98.96 104.19 98.95 100.59 98.94 96.99 C 104.75 91.10 110.58 85.22 116.45 79.39 C 117.55 78.14 119.16 76.90 118.96 75.03 C 119.44 71.24 114.20 68.68 111.52 71.42 C 107.20 75.50 103.10 79.83 98.92 84.05 C 98.96 80.44 98.95 76.82 98.94 73.21 C 105.27 66.77 111.77 60.49 118.02 53.98 C 121.29 50.44 116.27 44.45 112.21 47.17 C 107.51 51.24 103.37 55.94 98.93 60.29 C 98.93 53.48 99.01 46.67 98.92 39.86 C 99.06 38.05 97.81 36.37 96.13 35.80 C 93.49 34.37 89.64 36.85 90.05 39.91 Z" />
<path fill="#000000" opacity="1.00" d=" M 82.75 113.30 C 85.15 115.83 87.63 118.28 90.05 120.80 C 90.04 122.47 90.03 124.14 90.03 125.80 C 88.49 124.80 86.61 124.17 85.41 122.74 C 84.46 119.61 83.79 116.40 82.75 113.30 Z" />
<path fill="#000000" opacity="1.00" d=" M 99.03 120.84 C 101.10 118.07 103.81 115.86 106.14 113.32 C 105.12 116.61 104.28 119.95 103.35 123.26 C 101.86 124.09 100.38 124.94 98.90 125.77 C 98.88 124.12 98.93 122.48 99.03 120.84 Z" />
<path fill="#000000" opacity="1.00" d=" M 71.08 133.52 C 74.35 132.86 77.58 132.06 80.76 131.05 C 82.32 131.86 83.87 132.70 85.44 133.50 C 83.96 134.40 82.52 135.37 80.94 136.10 C 77.60 135.45 74.38 134.33 71.08 133.52 Z" />
<path fill="#000000" opacity="1.00" d=" M 103.48 133.54 C 105.02 132.72 106.56 131.90 108.10 131.07 C 111.21 132.03 114.37 132.81 117.56 133.45 C 114.41 134.41 111.28 135.46 108.05 136.08 C 106.39 135.50 104.98 134.41 103.48 133.54 Z" />
<path fill="#000000" opacity="1.00" d=" M 85.41 144.22 C 86.95 143.28 88.50 142.36 90.05 141.44 C 90.04 143.18 90.03 144.92 90.01 146.66 C 87.56 149.03 85.15 151.45 82.76 153.89 C 83.76 150.70 84.62 147.47 85.41 144.22 Z" />
<path fill="#000000" opacity="1.00" d=" M 98.94 141.45 C 100.47 142.39 102.00 143.33 103.51 144.31 C 104.28 147.51 105.11 150.69 106.11 153.83 C 103.78 151.39 101.39 148.99 98.96 146.64 C 98.95 144.91 98.94 143.18 98.94 141.45 Z" />
</g>
</svg>
