<?xml version="1.0" encoding="UTF-8" ?>
<!DOCTYPE svg PUBLIC "-//W3C//DTD SVG 1.1//EN" "http://www.w3.org/Graphics/SVG/1.1/DTD/svg11.dtd">
<svg width="225pt" height="225pt" viewBox="0 0 225 225" version="1.1" xmlns="http://www.w3.org/2000/svg">
<g id="#ffffffff">
</g>
<g id="#000000ff">
<path fill="#000000" opacity="1.00" d=" M 104.55 2.80 C 108.99 2.82 113.43 2.80 117.86 2.82 C 117.70 9.77 117.88 16.73 117.75 23.69 C 120.57 22.03 123.43 20.44 126.24 18.75 C 128.47 22.59 130.71 26.42 132.89 30.27 C 127.83 33.13 122.83 36.08 117.79 38.97 C 117.80 42.53 117.80 46.08 117.77 49.64 C 124.34 45.80 130.96 42.06 137.52 38.21 C 139.73 42.05 141.91 45.92 144.19 49.72 C 135.36 54.74 126.57 59.85 117.78 64.95 C 117.86 68.25 117.65 71.56 117.88 74.86 C 119.03 78.15 121.26 80.94 122.89 83.99 C 126.79 77.17 130.68 70.34 134.69 63.58 C 136.74 61.32 139.87 60.38 142.31 58.59 C 141.96 62.06 143.20 65.96 141.22 69.07 C 137.48 75.43 133.85 81.87 130.07 88.22 C 133.32 88.14 136.57 88.35 139.81 88.12 C 143.08 86.87 145.88 84.68 149.00 83.11 C 149.00 72.96 149.00 62.82 149.00 52.67 C 153.47 52.67 157.95 52.68 162.42 52.66 C 162.38 60.23 162.39 67.80 162.41 75.37 C 165.53 73.58 168.65 71.79 171.74 69.96 C 171.71 64.19 171.74 58.42 171.72 52.65 C 176.14 52.68 180.57 52.67 185.00 52.66 C 185.00 55.87 184.99 59.08 185.00 62.29 C 191.04 58.91 197.02 55.43 202.99 51.93 C 205.25 55.74 207.46 59.59 209.67 63.43 C 203.65 66.91 197.53 70.22 191.65 73.93 C 194.46 75.51 197.27 77.08 200.04 78.73 C 197.92 82.59 195.48 86.27 193.56 90.23 C 188.49 87.37 183.42 84.50 178.45 81.47 C 175.25 83.17 172.16 85.05 169.02 86.83 C 175.64 90.59 182.23 94.41 188.82 98.23 C 186.53 102.00 184.35 105.84 182.16 109.68 C 173.37 104.57 164.56 99.50 155.74 94.44 C 152.80 96.32 149.62 97.80 146.76 99.79 C 144.76 102.49 143.41 105.61 141.58 108.44 C 149.69 108.47 157.80 108.31 165.89 108.50 C 168.67 109.36 170.96 111.34 173.61 112.54 C 171.00 113.90 168.59 115.63 165.89 116.80 C 157.85 116.98 149.80 116.87 141.76 116.82 C 143.54 119.54 144.88 122.51 146.73 125.17 C 149.49 127.37 152.81 128.75 155.77 130.67 C 164.54 125.55 173.36 120.54 182.14 115.44 C 184.39 119.24 186.53 123.09 188.81 126.87 C 182.24 130.69 175.63 134.44 169.08 138.29 C 172.18 140.06 175.26 141.86 178.35 143.65 C 183.38 140.68 188.44 137.76 193.53 134.88 C 195.52 138.82 197.92 142.54 200.04 146.41 C 197.22 148.00 194.40 149.58 191.62 151.24 C 197.59 154.80 203.64 158.21 209.67 161.66 C 207.40 165.45 205.40 169.41 202.94 173.09 C 196.94 169.70 191.02 166.16 185.00 162.79 C 184.99 166.01 185.00 169.24 185.00 172.47 C 180.57 172.44 176.14 172.44 171.71 172.48 C 171.75 166.73 171.68 160.98 171.76 155.24 C 168.71 153.31 165.58 151.52 162.42 149.79 C 162.39 157.35 162.38 164.91 162.43 172.48 C 157.95 172.43 153.48 172.46 149.00 172.45 C 149.00 162.30 149.00 152.16 149.00 142.01 C 146.03 140.41 143.24 138.46 140.16 137.06 C 136.80 136.80 133.42 137.03 130.05 136.90 C 134.01 143.71 138.02 150.50 141.89 157.36 C 142.87 160.27 142.08 163.51 142.30 166.54 C 139.47 164.45 135.43 163.57 133.81 160.17 C 130.08 153.83 126.63 147.32 122.66 141.12 C 121.23 144.16 118.99 146.82 117.88 150.01 C 117.65 153.36 117.88 156.71 117.73 160.06 C 126.49 165.26 135.30 170.36 144.19 175.32 C 141.97 179.18 139.72 183.02 137.52 186.89 C 130.96 183.03 124.36 179.25 117.76 175.47 C 117.81 179.00 117.83 182.53 117.74 186.06 C 122.75 189.07 127.84 191.94 132.90 194.86 C 130.69 198.70 128.45 202.51 126.26 206.36 C 123.45 204.68 120.61 203.05 117.76 201.44 C 117.87 208.38 117.70 215.32 117.87 222.26 C 113.43 222.29 108.99 222.26 104.55 222.29 C 104.62 215.33 104.54 208.38 104.60 201.42 C 101.74 203.01 98.92 204.68 96.09 206.33 C 93.85 202.52 91.66 198.67 89.43 194.86 C 94.35 191.93 99.44 189.27 104.28 186.22 C 105.01 182.76 104.37 179.02 104.59 175.45 C 97.98 179.23 91.40 183.07 84.79 186.86 C 82.57 183.03 80.39 179.19 78.14 175.39 C 86.96 170.36 95.72 165.23 104.55 160.22 C 104.50 156.68 104.80 153.11 104.42 149.58 C 102.97 146.66 101.15 143.93 99.61 141.06 C 95.97 147.25 92.35 153.46 88.82 159.72 C 87.28 163.43 83.02 164.37 79.99 166.49 C 80.20 163.50 79.46 160.31 80.43 157.43 C 84.29 150.56 88.35 143.79 92.21 136.91 C 88.81 136.96 85.41 136.93 82.01 136.98 C 79.07 138.74 76.06 140.37 73.13 142.15 C 73.18 152.25 73.15 162.36 73.15 172.47 C 68.73 172.44 64.31 172.44 59.89 172.47 C 59.89 164.91 59.89 157.35 59.89 149.79 C 56.79 151.52 53.73 153.34 50.63 155.07 C 50.63 160.87 50.59 166.68 50.65 172.48 C 46.23 172.43 41.80 172.43 37.38 172.48 C 37.44 169.22 37.44 165.96 37.41 162.70 C 31.38 166.23 25.30 169.67 19.27 173.21 C 17.14 169.30 14.83 165.49 12.63 161.63 C 18.75 158.31 24.67 154.65 30.76 151.29 C 27.95 149.63 25.12 147.99 22.26 146.40 C 24.51 142.55 26.71 138.68 28.98 134.84 C 33.92 137.91 39.04 140.68 44.04 143.66 C 47.07 141.81 50.18 140.09 53.25 138.29 C 46.73 134.42 40.07 130.77 33.56 126.87 C 35.78 123.06 37.96 119.23 40.23 115.44 C 48.97 120.55 57.75 125.58 66.51 130.63 C 69.46 128.87 72.56 127.37 75.39 125.41 C 77.30 122.69 78.75 119.67 80.50 116.84 C 72.48 116.86 64.45 116.97 56.43 116.81 C 53.72 115.60 51.27 113.91 48.72 112.40 C 51.35 111.29 53.66 109.51 56.32 108.50 C 64.45 108.31 72.60 108.46 80.74 108.45 C 78.92 105.55 77.50 102.38 75.41 99.66 C 72.53 97.77 69.45 96.19 66.48 94.44 C 57.79 99.60 48.94 104.49 40.26 109.69 C 37.94 105.91 35.83 102.02 33.52 98.24 C 40.08 94.39 46.67 90.60 53.29 86.84 C 50.21 85.04 47.11 83.29 44.05 81.46 C 39.02 84.39 33.94 87.25 28.93 90.22 C 26.72 86.38 24.49 82.55 22.27 78.71 C 25.12 77.10 27.93 75.44 30.80 73.87 C 24.73 70.39 18.71 66.83 12.59 63.45 C 14.86 59.61 17.17 55.80 19.27 51.86 C 25.28 55.46 31.38 58.90 37.44 62.41 C 37.43 59.17 37.44 55.92 37.38 52.68 C 41.80 52.71 46.23 52.71 50.65 52.69 C 50.58 58.44 50.66 64.19 50.60 69.94 C 53.68 71.74 56.74 73.58 59.88 75.29 C 59.89 67.76 59.90 60.23 59.88 52.70 C 64.30 52.70 68.73 52.70 73.16 52.70 C 73.15 62.80 73.16 72.90 73.16 83.00 C 76.18 84.67 79.08 86.56 82.19 88.09 C 85.52 88.38 88.88 88.13 92.23 88.21 C 88.25 81.12 83.93 74.20 80.11 67.01 C 79.84 64.23 80.02 61.44 79.99 58.65 C 82.94 60.77 87.11 61.70 88.71 65.28 C 92.27 71.53 95.90 77.75 99.50 83.98 C 101.07 81.07 102.90 78.31 104.39 75.37 C 104.84 71.95 104.44 68.46 104.62 65.01 C 95.84 59.83 86.97 54.79 78.13 49.70 C 80.41 45.91 82.57 42.05 84.81 38.23 C 91.40 42.05 97.98 45.88 104.61 49.62 C 104.57 46.11 104.55 42.61 104.63 39.10 C 99.63 36.01 94.49 33.18 89.40 30.26 C 91.67 26.44 93.84 22.55 96.14 18.74 C 98.91 20.46 101.75 22.10 104.63 23.65 C 104.50 16.70 104.63 9.75 104.55 2.80 M 104.28 92.26 C 106.60 96.23 108.91 100.21 111.16 104.23 C 113.41 100.21 115.79 96.27 118.05 92.27 C 115.72 88.36 113.49 84.38 111.20 80.45 C 108.79 84.33 106.68 88.38 104.28 92.26 M 83.57 96.55 C 85.84 100.52 88.07 104.51 90.42 108.43 C 94.95 108.42 99.47 108.41 103.99 108.44 C 101.58 104.52 99.37 100.49 97.02 96.54 C 92.54 96.56 88.06 96.55 83.57 96.55 M 125.32 96.54 C 123.01 100.50 120.73 104.48 118.43 108.45 C 122.92 108.42 127.42 108.41 131.91 108.45 C 134.24 104.50 136.45 100.47 138.82 96.54 C 134.32 96.56 129.82 96.56 125.32 96.54 M 90.19 116.92 C 87.88 120.77 85.65 124.67 83.45 128.59 C 88.00 128.56 92.56 128.59 97.11 128.56 C 99.35 124.62 101.59 120.69 103.96 116.82 C 99.37 116.93 94.78 116.83 90.19 116.92 M 118.44 116.84 C 120.77 120.72 123.03 124.65 125.28 128.57 C 129.84 128.57 134.39 128.60 138.95 128.55 C 136.61 124.69 134.43 120.74 132.14 116.86 C 127.57 116.89 123.01 116.90 118.44 116.84 M 104.33 132.75 C 106.65 136.58 108.89 140.46 111.09 144.36 C 113.52 140.57 115.63 136.60 117.98 132.77 C 115.69 128.84 113.43 124.89 111.16 120.94 C 108.93 124.91 106.64 128.84 104.33 132.75 Z" />
</g>
</svg>
