<?xml version="1.0" encoding="UTF-8" ?>
<!DOCTYPE svg PUBLIC "-//W3C//DTD SVG 1.1//EN" "http://www.w3.org/Graphics/SVG/1.1/DTD/svg11.dtd">
<svg width="219pt" height="230pt" viewBox="0 0 219 230" version="1.1" xmlns="http://www.w3.org/2000/svg">
<g id="#ffffffff">
<path fill="#ffffff" opacity="1.00" d=" M 141.24 203.25 C 141.90 203.80 141.90 203.80 141.24 203.25 Z" />
</g>
<g id="#000000ff">
<path fill="#000000" opacity="1.00" d=" M 106.26 3.38 C 109.40 2.23 113.02 1.21 116.19 2.86 C 119.57 3.91 120.46 7.73 121.14 10.76 C 126.00 8.58 130.13 3.37 135.95 4.65 C 139.83 5.50 145.32 5.56 146.93 9.95 C 147.70 13.97 144.47 17.14 143.12 20.65 C 148.43 23.65 147.90 30.21 146.88 35.37 C 145.18 38.16 144.14 41.38 141.91 43.81 C 139.59 45.80 136.91 47.28 134.47 49.10 C 141.50 52.41 148.86 55.57 154.43 61.17 C 154.65 57.50 154.14 53.78 154.85 50.15 C 156.54 44.48 160.10 39.13 165.76 36.79 C 168.45 34.91 171.56 36.37 173.91 38.04 C 175.23 35.31 176.88 32.76 178.28 30.08 C 180.96 28.15 184.31 29.37 186.47 31.49 C 189.20 34.12 192.87 36.65 193.34 40.72 C 193.49 44.23 193.33 47.74 193.40 51.24 C 195.18 50.89 196.95 50.48 198.70 50.00 C 203.05 50.83 205.48 54.81 206.84 58.68 C 207.50 62.43 204.88 65.47 203.71 68.81 C 207.04 70.95 210.75 72.61 213.66 75.35 C 216.07 78.62 216.10 82.87 217.08 86.67 C 215.68 90.88 214.17 96.24 209.59 97.95 C 207.69 97.78 205.86 97.18 204.00 96.83 C 202.05 99.89 200.98 103.73 197.78 105.78 C 194.61 107.91 190.76 110.90 186.77 109.13 C 183.46 107.70 180.49 105.60 177.39 103.79 C 176.80 111.20 177.17 118.85 174.54 125.97 C 180.67 123.57 185.56 118.69 191.92 116.85 C 196.93 117.63 203.12 120.42 204.02 126.02 C 203.05 128.44 201.80 130.74 200.88 133.19 C 204.42 131.61 207.47 129.01 211.20 127.85 C 213.97 127.26 215.86 129.43 217.23 131.47 C 217.17 132.42 217.06 134.32 217.01 135.27 C 215.16 142.67 212.37 150.99 205.12 154.74 C 206.46 156.65 208.28 159.09 207.13 161.52 C 205.10 166.15 202.87 170.80 199.65 174.74 C 197.70 176.92 194.57 175.85 192.04 175.85 C 191.98 178.22 192.15 180.61 191.84 182.98 C 189.32 188.67 186.34 194.63 180.77 197.91 C 177.55 199.26 173.71 196.41 173.71 193.02 C 173.65 189.67 173.36 186.32 172.69 183.03 C 171.21 185.48 169.72 187.93 168.01 190.23 C 164.05 191.02 160.68 188.61 157.57 186.53 C 155.96 185.46 154.76 183.76 154.50 181.82 C 153.72 175.41 154.05 168.94 153.56 162.51 C 150.67 166.93 147.67 171.37 142.84 173.90 C 140.59 175.41 138.20 176.70 135.89 178.10 C 139.43 180.62 143.58 182.29 146.73 185.35 C 148.46 187.93 148.29 191.17 148.18 194.14 C 147.95 198.45 145.12 201.94 143.57 205.82 C 146.28 207.74 148.88 211.00 147.27 214.48 C 145.33 217.74 144.17 222.29 140.10 223.48 C 136.59 224.81 132.83 225.69 129.06 225.32 C 125.58 224.21 122.77 221.64 119.28 220.52 C 117.19 223.23 116.12 227.90 112.03 228.06 C 109.10 228.06 105.74 228.66 103.21 226.80 C 100.33 225.17 100.71 221.43 99.80 218.68 C 94.31 220.39 89.96 225.67 83.84 225.01 C 79.86 225.08 76.97 222.05 73.98 219.89 C 74.02 218.43 74.04 216.99 74.07 215.54 C 75.72 212.82 77.03 209.91 78.85 207.30 C 77.14 206.24 75.51 205.05 74.05 203.66 C 73.78 200.70 73.32 197.74 73.60 194.78 C 74.03 191.70 75.94 189.13 77.42 186.49 C 79.00 183.47 82.37 182.28 84.95 180.33 C 78.53 176.83 71.66 173.82 66.56 168.39 C 66.39 171.78 66.04 175.16 65.94 178.56 C 64.14 181.58 62.92 184.97 60.74 187.76 C 57.47 190.15 53.70 192.75 49.43 192.11 C 48.43 191.11 47.41 190.13 46.41 189.14 C 45.04 192.04 43.66 194.98 41.75 197.58 C 40.85 200.29 37.89 200.19 35.58 199.73 C 32.84 197.38 29.95 195.08 27.95 192.03 C 25.84 188.20 27.19 183.66 26.26 179.55 C 26.18 178.93 26.03 177.68 25.95 177.05 C 23.46 177.44 20.89 179.13 18.39 178.02 C 15.03 176.11 13.27 172.37 11.93 168.91 C 11.79 165.83 13.84 163.24 15.08 160.57 C 11.94 157.41 6.54 156.65 4.88 152.11 C 3.38 148.16 1.75 143.86 2.66 139.60 C 3.92 136.76 5.23 133.72 7.62 131.64 C 10.10 129.86 13.05 131.73 15.47 132.64 C 17.64 129.19 19.06 124.97 22.61 122.65 C 25.32 120.83 28.36 118.39 31.86 119.40 C 35.79 120.64 38.99 123.48 42.93 124.75 C 42.92 120.50 42.80 116.24 42.96 112.00 C 42.95 108.27 45.22 105.12 46.38 101.71 C 40.13 103.98 35.10 108.64 28.91 111.02 C 24.33 111.82 20.28 108.42 16.91 105.77 C 14.09 102.60 16.90 98.80 18.19 95.64 C 14.27 96.71 11.30 100.01 7.21 100.56 C 4.26 100.33 1.63 97.59 2.17 94.54 C 2.99 86.56 6.35 77.91 13.90 74.09 C 13.00 72.21 11.45 70.35 11.97 68.12 C 13.23 62.91 16.55 58.58 19.24 54.05 C 21.34 52.99 23.68 52.81 26.00 52.89 C 26.00 51.41 26.01 49.94 26.03 48.46 C 28.36 42.09 32.19 36.37 37.36 31.96 C 39.48 31.14 41.73 31.23 43.87 31.94 C 47.27 35.95 45.45 41.40 46.20 46.15 C 48.73 43.44 49.69 38.41 53.96 37.93 C 58.61 38.90 63.41 41.14 66.01 45.31 C 66.21 52.62 65.53 60.03 66.72 67.27 C 68.62 64.62 69.85 61.49 72.13 59.12 C 75.83 55.95 80.21 53.76 84.38 51.31 C 80.99 48.72 77.00 46.94 74.04 43.80 C 73.51 39.94 73.17 35.98 73.83 32.13 C 74.69 29.57 76.39 27.41 77.67 25.06 C 75.30 23.09 71.71 20.50 73.03 16.94 C 74.77 13.05 76.55 8.17 81.10 6.92 C 84.01 6.07 87.01 4.86 90.07 5.12 C 94.06 6.41 97.56 8.82 101.37 10.54 C 102.93 8.12 104.12 5.35 106.26 3.38 M 108.18 7.12 C 108.15 10.91 107.92 14.71 107.30 18.46 C 101.33 15.67 95.85 11.89 89.78 9.34 C 86.15 9.13 82.84 11.25 79.61 12.67 C 88.65 18.45 98.30 23.15 107.46 28.73 C 107.59 32.56 107.55 36.41 107.13 40.22 C 98.35 36.08 90.41 30.24 81.35 26.73 C 81.04 29.82 81.19 32.93 81.19 36.04 C 89.55 41.49 98.87 45.43 106.99 51.20 C 107.73 54.84 107.28 58.63 106.98 62.30 C 102.21 60.19 97.75 57.46 93.30 54.78 C 91.86 53.75 89.91 53.72 88.36 54.52 C 83.27 56.92 78.27 59.64 74.01 63.37 C 73.54 70.35 74.38 77.37 73.24 84.31 C 69.50 82.56 66.04 80.28 62.35 78.41 C 61.79 67.67 61.97 56.90 61.89 46.15 C 59.83 44.00 56.90 43.02 54.27 41.77 C 54.05 42.38 53.62 43.61 53.41 44.22 C 53.20 53.73 53.74 63.27 53.14 72.78 C 49.27 71.12 45.55 69.11 42.01 66.82 C 41.10 56.17 42.56 45.43 41.35 34.83 C 38.32 36.67 36.12 39.48 33.97 42.23 C 33.46 48.72 34.55 55.26 33.31 61.70 C 30.77 60.71 28.41 59.36 26.00 58.11 C 24.87 57.80 23.56 56.36 22.40 57.27 C 20.85 59.11 20.06 61.42 19.34 63.68 C 22.68 65.64 26.05 67.58 29.38 69.58 C 24.98 73.62 19.25 75.95 14.23 79.17 C 9.85 80.98 10.36 86.53 9.46 90.39 C 12.40 89.66 14.88 87.89 17.48 86.44 C 23.41 83.03 29.22 79.43 35.14 76.00 C 36.31 75.35 37.66 74.47 39.04 75.07 C 42.17 76.50 45.10 78.34 47.97 80.23 C 40.25 86.61 30.64 90.24 22.74 96.39 C 25.08 98.21 27.68 99.63 30.20 101.19 C 39.46 96.54 47.89 90.35 57.15 85.69 C 61.29 86.75 65.10 89.37 68.54 91.93 C 63.04 95.84 56.98 98.92 51.24 102.47 C 49.86 108.78 49.87 115.39 51.45 121.65 C 56.76 125.66 63.04 128.20 68.41 132.13 C 65.26 134.80 61.50 136.67 57.65 138.12 C 48.50 133.18 39.63 127.72 30.33 123.05 C 27.68 124.57 25.12 126.23 22.67 128.05 C 31.01 133.84 40.59 137.65 48.72 143.72 C 46.08 145.63 43.17 147.13 40.52 149.01 C 38.84 149.37 37.04 149.46 35.54 148.49 C 28.01 144.36 20.61 139.98 13.01 135.97 C 11.89 135.73 9.89 133.93 9.50 136.07 C 10.24 139.23 11.12 142.40 12.43 145.38 C 17.37 149.35 23.76 151.21 28.50 155.51 C 25.47 157.73 22.02 159.35 19.21 161.88 C 20.36 164.15 21.59 166.39 23.11 168.45 C 27.06 167.51 29.89 163.75 34.04 163.69 C 34.02 170.03 34.10 176.36 33.99 182.70 C 36.03 185.56 38.61 187.97 41.35 190.13 C 42.86 182.41 41.53 174.47 42.22 166.66 C 42.69 163.72 41.31 160.47 42.74 157.77 C 45.92 155.15 49.61 153.18 53.32 151.40 C 54.93 158.98 53.31 166.72 53.74 174.38 C 53.49 177.01 53.67 179.66 54.30 182.24 C 56.99 180.41 61.64 179.73 62.06 175.90 C 62.50 166.05 62.32 156.18 62.49 146.32 C 65.76 143.42 69.81 141.02 74.01 139.69 C 74.06 145.48 74.00 151.27 74.02 157.06 C 74.15 158.62 73.79 160.63 75.36 161.61 C 79.70 165.27 84.80 168.01 90.17 169.86 C 96.36 167.47 101.36 162.75 107.52 160.23 C 107.96 164.08 108.17 167.96 108.14 171.83 C 103.12 175.83 97.17 178.35 91.77 181.78 C 88.30 183.97 84.12 185.26 81.27 188.30 C 80.66 190.89 81.36 193.61 81.47 196.24 C 90.96 193.11 98.61 185.95 108.04 182.78 C 107.99 187.06 108.72 191.68 107.05 195.72 C 99.17 200.76 90.72 204.85 82.88 209.96 C 82.37 210.46 81.34 211.47 80.82 211.98 C 83.41 213.33 86.03 215.31 89.14 214.79 C 95.49 211.96 101.08 207.64 107.51 204.97 C 108.53 208.98 108.00 213.15 108.08 217.25 C 110.72 217.50 114.50 218.92 116.43 216.65 C 116.68 213.24 116.37 209.80 116.74 206.39 C 122.36 208.19 126.98 212.08 132.16 214.78 C 136.37 215.91 140.67 213.66 144.48 212.02 C 138.01 207.03 130.43 203.72 123.58 199.29 C 121.28 197.59 117.75 196.94 116.69 194.02 C 116.33 190.25 116.49 186.44 116.93 182.69 C 125.72 186.64 133.73 192.13 142.12 196.86 C 142.58 196.70 143.49 196.37 143.94 196.20 C 143.95 193.50 143.95 190.80 144.01 188.10 C 136.24 183.00 128.11 178.43 119.97 173.95 C 118.71 173.03 117.03 172.31 116.59 170.67 C 116.39 167.01 116.55 163.34 116.58 159.68 C 117.92 160.15 119.26 160.67 120.59 161.18 C 124.34 163.97 128.57 166.02 132.58 168.39 C 134.49 169.78 136.54 167.99 138.32 167.26 C 142.53 164.97 146.87 162.57 150.07 158.92 C 151.07 152.22 149.99 145.38 150.65 138.65 C 154.50 140.43 158.28 142.45 161.62 145.08 C 161.49 152.72 161.61 160.36 161.55 168.00 C 161.59 170.65 161.38 173.36 162.11 175.95 C 163.93 178.15 166.78 179.11 169.27 180.37 C 170.64 170.35 169.22 160.17 170.12 150.10 C 173.75 151.30 176.89 153.54 180.27 155.26 C 182.06 166.20 179.62 177.53 181.61 188.46 C 183.81 186.65 185.87 184.67 187.77 182.54 C 187.89 175.22 187.35 167.87 188.27 160.60 C 192.43 161.63 195.66 164.66 199.57 166.27 C 201.10 164.04 202.47 161.70 203.54 159.22 C 200.18 156.96 196.56 155.11 193.35 152.63 C 198.14 149.17 203.32 146.29 208.44 143.35 C 212.50 141.16 212.40 135.81 213.12 131.82 C 203.40 136.48 194.73 143.14 185.04 147.79 C 181.31 146.93 178.31 144.25 175.01 142.43 C 175.01 142.15 175.01 141.60 175.01 141.33 C 183.07 135.65 191.89 131.13 200.13 125.71 C 197.94 123.77 195.43 121.53 192.51 121.08 C 184.59 125.57 176.77 130.23 169.11 135.15 C 164.33 138.82 159.41 133.45 155.44 130.97 C 160.09 127.24 165.49 124.64 170.43 121.35 C 171.89 120.57 172.01 118.83 172.36 117.41 C 173.46 111.61 172.67 105.71 172.03 99.92 C 166.87 96.20 160.92 93.77 155.84 89.95 C 158.47 87.58 161.53 85.62 164.87 84.43 C 166.42 84.27 167.67 85.37 168.99 85.98 C 176.92 90.44 184.66 95.26 192.67 99.56 C 195.50 98.05 198.36 96.50 200.73 94.31 C 192.52 88.40 183.04 84.52 174.83 78.61 C 177.79 76.40 180.80 74.20 184.19 72.68 C 187.42 73.38 190.01 75.64 192.89 77.16 C 199.44 80.76 205.73 84.83 212.43 88.15 C 213.36 84.66 212.11 80.76 210.37 77.70 C 204.88 73.90 198.68 71.22 193.21 67.38 C 196.24 65.09 199.60 63.28 202.80 61.24 C 203.09 58.26 201.11 55.86 199.04 53.98 C 196.07 55.82 192.99 57.48 189.83 58.98 C 188.34 52.80 189.79 46.34 188.99 40.08 C 187.15 37.15 184.33 34.99 181.66 32.85 C 180.21 38.12 181.17 43.64 181.03 49.03 C 180.92 54.23 181.26 59.46 180.68 64.64 C 177.84 67.22 174.31 68.99 170.81 70.52 C 170.49 65.01 170.55 59.50 170.15 54.00 C 170.14 49.32 170.53 44.61 169.75 39.96 C 167.17 41.25 164.64 42.66 162.31 44.38 C 161.97 54.88 162.67 65.38 162.31 75.88 C 158.54 78.08 154.87 81.10 150.63 82.07 C 150.19 76.38 150.47 70.69 150.58 65.00 C 150.85 63.45 149.76 62.24 148.58 61.46 C 143.95 58.05 138.85 55.21 133.34 53.52 C 127.71 56.56 122.26 59.93 116.49 62.70 C 115.57 59.21 115.65 55.54 116.02 51.98 C 116.10 50.35 117.88 49.80 118.98 48.96 C 126.88 44.25 135.08 39.92 142.48 34.44 C 143.74 31.81 143.08 28.70 143.06 25.88 C 141.98 24.71 140.67 26.08 139.59 26.51 C 131.98 31.08 124.68 36.21 116.61 39.97 C 116.29 36.08 115.77 31.84 117.04 28.14 C 125.62 22.02 135.23 17.41 143.76 11.24 C 140.52 9.68 136.79 8.32 133.18 8.80 C 127.57 11.79 122.49 15.76 116.71 18.43 C 116.26 14.96 116.96 11.37 116.19 7.95 C 114.60 4.95 110.74 6.41 108.18 7.12 M 141.24 203.25 C 141.90 203.80 141.90 203.80 141.24 203.25 Z" />
<path fill="#000000" opacity="1.00" d=" M 81.93 67.19 C 84.35 65.38 86.91 63.34 89.93 62.72 C 97.62 66.42 104.67 71.39 112.47 74.92 C 119.30 70.67 126.29 66.67 133.27 62.71 C 136.72 62.50 139.44 65.26 142.20 66.97 C 142.34 75.15 142.02 83.34 142.34 91.50 C 144.54 94.19 148.11 95.10 150.95 96.94 C 155.47 99.73 160.24 102.17 164.52 105.32 C 165.19 108.59 165.55 112.13 164.25 115.31 C 161.68 117.90 158.01 119.00 155.00 120.99 C 150.90 123.86 146.47 126.20 142.20 128.81 C 142.16 137.51 142.22 146.21 142.27 154.91 C 140.24 156.89 137.86 158.47 135.32 159.71 C 127.81 155.68 120.53 151.26 112.99 147.28 C 111.48 147.30 110.37 148.56 109.10 149.22 C 102.84 153.15 96.70 157.37 90.04 160.56 C 86.92 160.13 84.11 158.24 81.95 156.01 C 82.13 147.95 81.65 139.88 82.24 131.83 C 82.56 128.51 78.85 127.78 76.65 126.43 C 71.36 123.31 65.94 120.41 60.63 117.34 C 56.97 115.45 58.71 110.54 58.83 107.26 C 65.82 102.67 73.40 99.01 80.25 94.21 C 81.39 93.60 81.38 92.14 81.49 91.03 C 81.79 83.09 80.97 75.08 81.93 67.19 M 85.88 74.05 C 85.61 78.80 86.09 83.54 86.18 88.29 C 90.90 86.65 95.02 83.76 99.22 81.12 C 94.90 78.57 90.86 75.21 85.88 74.05 M 129.33 74.28 C 126.37 75.70 123.62 77.52 120.90 79.34 C 125.05 82.33 129.60 84.72 134.24 86.87 C 134.29 83.31 134.64 79.74 134.23 76.19 C 133.61 74.21 131.09 73.34 129.33 74.28 M 105.64 82.70 C 98.57 87.23 90.96 91.00 84.32 96.15 C 84.45 106.45 85.15 116.72 85.24 127.02 C 87.76 129.52 91.28 130.74 94.21 132.72 C 100.25 135.79 105.84 139.63 111.84 142.76 C 119.79 138.07 127.37 132.79 135.35 128.16 C 135.99 128.45 137.26 129.04 137.89 129.33 C 137.67 128.93 137.22 128.12 137.00 127.72 C 137.23 127.25 137.69 126.33 137.92 125.86 C 138.58 116.55 138.42 107.22 138.61 97.88 C 138.50 96.49 138.66 94.54 137.15 93.82 C 129.39 89.21 121.48 84.85 113.54 80.55 C 110.74 78.74 108.09 81.55 105.64 82.70 M 143.00 122.55 C 147.89 120.35 152.36 117.34 156.86 114.46 C 152.75 110.68 147.72 108.07 142.75 105.63 C 142.49 111.25 141.87 117.01 143.00 122.55 M 63.93 113.83 C 67.76 117.09 72.38 119.28 76.95 121.30 C 77.05 119.72 77.10 118.14 77.18 116.56 C 76.99 113.31 76.89 110.05 76.40 106.83 C 72.02 108.70 67.79 111.03 63.93 113.83 M 121.07 146.64 C 122.19 147.34 123.30 148.04 124.42 148.73 C 127.53 150.61 130.64 152.52 134.03 153.86 C 134.21 148.88 135.11 143.58 133.49 138.77 C 129.24 141.22 124.97 143.67 121.07 146.64 M 86.89 153.90 C 87.35 155.67 89.78 155.39 91.09 154.93 C 94.21 153.48 97.06 151.53 99.99 149.75 C 96.10 146.26 91.37 143.86 86.65 141.70 C 86.11 145.73 85.76 149.95 86.89 153.90 Z" />
<path fill="#000000" opacity="1.00" d=" M 92.77 100.26 C 98.08 96.59 103.64 93.27 109.20 90.01 C 111.40 88.26 113.77 90.17 115.75 91.23 C 120.55 94.18 125.95 96.29 130.08 100.23 C 130.54 106.81 130.36 113.42 130.34 120.01 C 130.44 122.00 129.01 123.54 127.30 124.29 C 122.14 127.02 117.51 130.70 112.22 133.20 C 106.16 130.76 100.72 126.92 94.96 123.83 C 93.17 123.13 93.24 121.00 92.95 119.43 C 92.64 113.05 92.91 106.65 92.77 100.26 M 97.06 107.19 C 97.55 111.61 95.85 116.71 98.40 120.65 C 102.30 123.51 106.70 125.64 110.93 127.96 C 115.20 127.06 118.76 124.23 122.21 121.71 C 122.81 118.86 122.42 115.90 122.53 113.01 C 122.57 110.84 122.47 108.03 120.29 106.89 C 116.48 104.29 112.41 102.08 108.13 100.35 C 104.17 102.15 100.37 104.35 97.06 107.19 Z" />
</g>
</svg>
