<?xml version="1.0" encoding="UTF-8" ?>
<!DOCTYPE svg PUBLIC "-//W3C//DTD SVG 1.1//EN" "http://www.w3.org/Graphics/SVG/1.1/DTD/svg11.dtd">
<svg width="225pt" height="225pt" viewBox="0 0 225 225" version="1.1" xmlns="http://www.w3.org/2000/svg">
<g id="#feffffff">
</g>
<g id="#030506ff">
<path fill="#030506" opacity="1.00" d=" M 164.16 9.10 L 165.04 8.83 C 168.41 10.62 171.92 12.36 174.76 14.95 C 173.41 18.50 171.04 21.54 169.13 24.80 C 171.81 24.60 174.48 24.36 177.16 24.21 C 177.64 28.26 178.17 32.30 178.45 36.36 C 173.03 37.51 167.44 37.20 162.03 38.33 C 160.80 38.42 160.36 39.70 159.75 40.56 C 156.08 46.95 152.31 53.28 148.41 59.53 C 153.47 59.61 158.59 60.32 163.61 59.67 C 165.27 57.20 166.64 54.53 168.54 52.22 C 171.60 54.19 174.94 55.79 177.77 58.09 C 177.98 58.74 178.40 60.04 178.61 60.69 C 180.24 60.71 181.88 60.74 183.52 60.78 C 183.84 64.96 183.72 69.16 183.38 73.34 C 181.90 73.33 180.42 73.32 178.94 73.32 C 177.74 77.87 172.22 78.82 168.92 81.53 C 166.77 78.70 164.90 75.69 163.06 72.66 C 155.76 72.42 148.46 72.20 141.16 71.99 C 139.20 75.13 137.34 78.33 135.34 81.44 C 137.19 81.51 139.03 81.56 140.88 81.62 C 141.18 85.59 141.07 89.56 141.08 93.53 C 136.74 94.06 132.37 93.78 128.01 93.76 C 125.47 98.32 122.61 102.70 120.09 107.27 C 124.46 107.33 128.84 107.18 133.18 106.61 C 135.23 103.84 137.05 100.85 139.49 98.39 C 143.44 100.16 147.04 103.09 149.70 106.54 C 153.13 106.48 156.55 106.42 159.98 106.35 C 163.21 101.48 167.30 97.12 169.88 91.86 C 169.05 89.18 167.77 86.66 167.09 83.94 C 171.53 82.03 175.97 79.96 180.77 79.13 C 183.78 81.29 186.81 83.41 189.69 85.74 C 189.28 86.57 188.88 87.40 188.48 88.23 C 188.96 88.58 189.92 89.29 190.40 89.64 C 189.66 93.34 189.11 97.08 188.39 100.78 C 185.67 100.57 182.99 100.16 180.34 99.54 C 178.80 101.58 177.30 103.64 175.90 105.78 C 182.58 105.67 189.27 105.53 195.95 105.30 C 198.93 100.78 201.51 95.92 205.06 91.83 C 208.94 93.07 212.01 95.89 215.38 98.06 C 214.06 100.39 212.65 102.65 211.14 104.85 C 215.51 104.88 219.88 104.76 224.26 104.81 C 224.52 108.93 224.66 113.06 224.48 117.18 C 220.59 117.39 216.70 117.44 212.82 117.54 C 214.49 119.67 216.14 121.82 217.68 124.05 C 214.59 126.43 211.82 129.47 208.17 130.95 C 203.64 127.49 200.99 121.94 197.10 117.73 C 188.98 118.38 180.83 118.32 172.69 118.48 C 175.04 122.86 177.60 127.12 180.11 131.41 C 183.19 131.35 186.28 131.33 189.36 131.46 C 189.48 135.34 189.56 139.23 189.53 143.12 C 189.02 143.36 188.00 143.84 187.49 144.08 C 188.34 145.81 189.84 147.45 189.63 149.49 C 186.67 151.59 183.52 153.55 180.09 154.78 C 178.40 154.51 177.93 152.34 176.85 151.21 C 176.42 151.54 175.55 152.21 175.12 152.54 C 172.34 151.13 169.55 149.76 166.72 148.45 C 169.95 151.27 173.37 153.88 176.30 157.02 C 175.87 160.61 175.49 164.20 175.23 167.80 C 174.36 168.08 173.50 168.36 172.64 168.65 C 172.35 169.17 171.79 170.22 171.50 170.74 C 168.14 172.37 164.51 173.38 160.92 174.41 C 159.95 171.89 159.07 169.33 158.26 166.76 C 155.18 166.47 152.10 166.18 149.05 165.69 C 152.11 171.57 155.25 177.48 158.99 182.94 C 165.14 183.67 171.36 183.85 177.53 184.47 C 177.65 188.50 177.34 192.51 177.07 196.52 C 173.51 196.66 169.95 196.46 166.40 196.21 C 168.49 199.71 170.53 203.24 172.49 206.82 C 169.20 209.15 165.68 211.12 162.26 213.25 C 160.53 211.26 159.16 209.01 157.93 206.70 C 157.04 208.30 156.15 209.91 155.25 211.50 C 151.57 210.02 147.92 208.48 144.28 206.90 C 145.55 202.02 148.07 197.60 149.70 192.86 C 145.80 185.36 141.26 178.20 137.12 170.83 C 135.06 174.71 132.85 178.51 130.42 182.17 C 131.85 184.92 134.27 187.37 134.67 190.55 C 131.66 192.75 128.29 194.41 125.11 196.36 C 124.63 196.04 123.65 195.39 123.16 195.06 C 122.13 196.59 121.14 198.17 119.92 199.56 C 116.04 198.19 112.60 195.87 109.32 193.44 C 110.11 192.16 110.91 190.88 111.71 189.61 C 111.21 189.27 110.21 188.60 109.71 188.27 C 109.51 184.42 109.18 180.57 109.40 176.71 C 112.74 176.50 116.08 176.34 119.42 176.24 C 123.02 170.32 126.54 164.35 129.96 158.33 C 128.31 155.41 126.63 152.51 125.04 149.56 C 124.79 149.50 124.29 149.39 124.04 149.33 C 123.19 150.18 122.73 152.13 121.17 151.76 C 117.76 150.37 114.76 148.19 111.50 146.51 C 112.90 142.79 115.47 139.65 116.90 135.97 C 115.35 132.71 113.25 129.73 111.69 126.47 C 109.59 129.90 107.66 133.42 105.55 136.84 C 107.08 140.22 108.47 143.67 109.67 147.18 C 106.47 148.69 103.22 150.07 99.97 151.46 C 99.32 151.42 98.02 151.36 97.37 151.33 C 95.73 154.53 93.92 157.63 92.25 160.82 C 94.72 165.96 96.84 171.25 99.30 176.39 C 102.12 176.73 104.93 177.14 107.72 177.73 C 107.37 182.57 106.37 187.32 105.18 192.02 C 101.79 193.65 98.34 195.16 94.84 196.56 C 94.50 196.06 93.82 195.06 93.48 194.56 C 92.90 194.64 91.72 194.82 91.13 194.91 C 87.96 192.86 85.32 190.10 82.52 187.60 C 84.08 185.40 86.00 183.47 87.38 181.15 C 86.62 178.81 85.57 176.57 84.71 174.26 C 81.27 179.84 78.30 185.70 74.85 191.27 C 76.59 196.51 79.73 201.14 81.69 206.29 C 79.16 209.56 74.46 210.40 70.84 212.23 C 69.67 210.00 68.59 207.72 67.53 205.44 C 64.91 208.84 62.99 212.69 60.85 216.39 C 57.17 214.88 53.81 212.73 50.30 210.90 C 51.19 206.93 53.81 203.71 55.56 200.12 C 52.99 200.53 50.42 200.91 47.84 201.20 C 46.76 197.13 46.35 192.93 46.28 188.73 C 51.47 187.88 56.75 187.71 61.92 186.76 C 63.53 186.65 64.09 184.94 64.87 183.81 C 68.33 177.57 71.84 171.35 75.35 165.13 C 70.56 165.15 65.76 164.88 60.98 164.98 C 58.63 166.98 57.55 170.12 55.96 172.71 C 52.27 171.27 48.91 169.18 45.53 167.15 C 45.57 166.54 45.66 165.34 45.70 164.74 C 43.92 164.50 41.81 165.14 40.26 164.07 C 39.24 160.33 40.03 156.36 39.90 152.53 C 41.51 152.39 43.12 152.27 44.73 152.18 C 44.72 151.62 44.71 150.52 44.71 149.96 C 48.00 147.79 51.15 145.34 54.85 143.87 C 56.68 146.73 58.58 149.56 60.46 152.40 C 67.79 152.46 75.12 152.51 82.44 152.58 C 84.26 149.31 86.09 146.06 87.89 142.79 C 86.03 142.72 84.17 142.67 82.31 142.60 C 82.19 138.55 82.14 134.50 82.35 130.45 C 86.58 130.31 90.81 130.38 95.04 130.34 C 97.17 127.22 97.91 122.73 101.62 121.02 C 99.61 119.89 97.22 120.43 95.03 120.33 C 93.63 120.56 91.61 119.88 90.76 121.40 C 88.88 123.75 87.28 126.34 85.09 128.43 C 81.15 126.97 77.40 123.80 75.08 120.19 C 71.48 120.20 67.88 120.18 64.29 120.19 C 61.24 124.79 57.46 128.88 54.45 133.50 C 54.35 136.43 56.42 139.21 56.91 142.17 C 53.19 143.60 49.42 144.91 45.65 146.18 C 44.50 146.25 43.19 146.82 42.23 145.91 C 39.30 143.94 36.42 141.79 34.17 139.05 C 34.59 138.53 35.45 137.50 35.88 136.98 C 35.32 136.80 34.21 136.44 33.65 136.26 C 34.43 132.30 35.32 128.37 36.47 124.51 C 38.99 125.08 41.51 125.71 44.10 125.92 C 45.88 124.19 47.21 122.07 48.67 120.07 C 42.03 120.08 35.40 120.08 28.77 119.99 C 25.60 124.58 22.41 129.15 19.00 133.55 C 15.51 131.37 11.97 129.19 9.02 126.28 C 10.53 124.08 12.05 121.89 13.63 119.74 C 9.09 119.60 4.49 120.07 0.00 119.22 L 0.00 107.07 L 0.01 108.13 C 1.06 107.86 3.16 107.32 4.20 107.05 C 4.27 106.65 4.39 105.87 4.45 105.48 C 4.53 105.79 4.69 106.40 4.77 106.71 L 8.35 106.76 C 8.38 106.46 8.45 105.85 8.48 105.55 C 9.34 106.15 11.05 107.36 11.91 107.97 C 10.65 105.43 9.09 103.07 7.54 100.71 C 10.56 98.01 13.91 95.73 17.23 93.44 C 21.09 97.82 24.16 102.81 27.79 107.37 C 35.99 107.36 44.19 107.45 52.39 107.45 C 50.02 103.10 47.77 98.69 45.43 94.33 C 42.40 94.32 39.38 94.32 36.35 94.31 C 35.91 90.87 35.74 87.38 35.99 83.92 C 35.79 82.38 37.47 81.89 38.37 81.05 C 37.42 79.54 36.48 78.03 35.55 76.51 C 38.95 74.15 42.65 72.29 46.32 70.39 C 47.16 71.55 47.97 72.74 48.77 73.94 C 49.33 73.84 50.45 73.62 51.01 73.51 C 54.37 75.21 57.80 76.79 60.99 78.83 C 59.63 82.02 57.97 85.07 56.38 88.14 C 59.66 94.69 63.30 101.05 66.72 107.52 C 70.40 107.60 74.09 107.60 77.77 107.56 C 76.99 106.03 76.14 104.52 75.54 102.90 C 78.42 100.24 82.23 98.46 85.91 97.10 C 88.67 100.19 90.19 104.18 92.25 107.74 C 95.55 107.81 98.86 107.83 102.17 107.80 C 99.86 103.95 97.55 100.10 95.47 96.11 C 91.78 95.52 88.09 94.96 84.43 94.20 C 84.81 90.64 85.45 87.11 85.75 83.54 C 86.11 83.14 86.82 82.33 87.18 81.93 C 85.40 78.80 83.59 75.69 81.90 72.51 C 76.14 71.78 70.39 71.01 64.63 70.33 C 62.91 72.63 61.05 74.83 59.07 76.91 C 55.11 74.03 51.04 71.15 48.05 67.21 C 48.62 63.71 49.12 60.20 49.48 56.67 C 50.22 56.54 51.69 56.29 52.42 56.16 C 52.45 55.60 52.49 54.47 52.52 53.90 C 56.24 52.64 59.93 51.21 63.81 50.50 C 64.67 53.06 65.59 55.60 66.51 58.14 C 68.99 58.32 71.47 58.52 73.96 58.66 C 70.44 53.12 67.32 47.32 64.04 41.64 C 58.54 40.83 52.93 40.88 47.46 39.90 C 47.50 35.92 46.72 31.30 48.82 27.77 C 51.32 27.80 53.79 28.25 56.27 28.48 C 54.39 24.59 51.73 21.09 50.17 17.06 C 51.40 14.97 54.05 14.28 55.97 12.96 C 57.56 12.31 59.31 10.60 61.09 11.53 C 63.02 14.41 64.50 17.56 66.29 20.52 C 67.49 18.15 68.63 15.74 69.79 13.35 C 73.52 14.77 77.14 16.45 80.76 18.13 C 79.06 23.63 76.48 28.79 74.19 34.06 C 78.19 41.19 82.43 48.18 86.27 55.40 C 89.21 51.44 91.65 47.16 94.19 42.95 C 92.75 40.26 91.27 37.58 89.82 34.89 C 92.60 33.02 95.44 31.19 98.48 29.76 C 99.62 28.98 100.90 29.59 102.08 29.89 C 103.06 28.42 104.04 26.96 105.05 25.51 C 108.67 27.38 112.24 29.40 115.44 31.96 C 114.70 33.25 113.98 34.55 113.24 35.84 C 113.89 36.26 114.55 36.67 115.21 37.09 C 115.31 40.86 115.41 44.64 115.56 48.41 C 112.09 48.73 108.62 49.10 105.15 49.40 C 101.21 55.52 97.63 61.88 93.67 68.00 C 95.59 71.20 97.39 74.48 99.25 77.71 C 100.18 76.19 101.11 74.66 102.03 73.13 C 105.87 74.52 109.22 76.87 112.71 78.93 C 111.10 82.89 108.73 86.46 106.45 90.05 C 107.90 92.75 109.40 95.43 110.93 98.09 C 113.08 94.41 115.30 90.77 117.47 87.11 C 116.31 83.62 114.89 80.23 113.53 76.82 C 116.90 75.02 120.54 73.84 124.09 72.48 C 124.53 72.61 125.39 72.86 125.82 72.99 C 127.62 69.74 130.16 66.76 131.28 63.21 C 129.39 57.98 126.94 52.96 125.05 47.72 C 122.23 47.12 119.39 46.59 116.53 46.21 C 117.01 41.33 117.36 36.18 119.77 31.80 C 122.86 30.03 126.27 28.77 129.72 27.91 C 130.08 28.29 130.79 29.07 131.14 29.46 C 132.35 29.52 133.77 29.15 134.71 30.17 C 137.15 32.27 139.66 34.38 141.60 36.98 C 140.40 39.25 138.28 40.86 137.01 43.09 C 137.38 45.28 138.27 47.35 139.20 49.36 C 140.67 48.47 141.45 46.89 142.34 45.48 C 144.73 41.26 147.22 37.09 149.76 32.95 C 147.86 28.68 145.79 24.48 143.90 20.21 C 143.57 19.17 142.57 17.80 143.96 17.09 C 146.97 15.24 150.25 13.80 153.59 12.65 C 155.65 14.48 156.33 17.39 157.66 19.76 C 159.80 16.19 161.65 12.42 164.16 9.10 M 165.42 12.67 C 163.26 16.56 160.60 20.18 158.78 24.25 C 158.02 24.46 157.26 24.56 156.48 24.55 C 154.85 21.93 153.78 19.02 152.38 16.28 C 150.64 17.25 148.83 18.07 146.99 18.81 C 148.55 23.79 151.20 28.34 153.29 33.10 C 149.00 40.25 144.75 47.43 140.44 54.57 C 139.89 54.61 138.80 54.69 138.26 54.73 C 136.37 50.56 134.30 46.41 133.19 41.95 C 134.72 40.35 136.26 38.77 137.78 37.16 C 136.35 35.94 135.02 34.62 133.56 33.45 C 132.40 32.60 131.35 35.19 129.91 34.45 C 129.30 33.43 128.72 32.39 128.18 31.34 C 126.45 32.29 124.62 33.08 122.75 33.71 C 122.87 34.57 123.12 36.29 123.25 37.15 C 122.61 37.26 121.35 37.49 120.71 37.60 C 120.51 39.55 120.27 41.50 120.00 43.44 C 120.46 43.62 121.40 43.97 121.86 44.15 C 123.60 44.33 125.33 44.53 127.06 44.75 C 129.73 51.08 132.48 57.40 134.81 63.87 C 132.29 68.56 129.48 73.13 126.62 77.61 C 125.43 79.72 123.81 77.15 123.18 76.07 C 121.21 76.89 119.25 77.75 117.29 78.60 C 118.65 81.52 120.61 84.49 120.58 87.79 C 117.92 92.70 114.88 97.40 111.99 102.17 C 110.19 103.60 109.14 101.17 108.40 99.92 C 106.77 96.56 104.23 93.57 103.27 89.93 C 104.64 86.39 107.15 83.42 108.74 79.98 C 106.88 78.94 104.99 77.95 103.03 77.09 C 102.11 79.27 100.91 81.34 99.07 82.87 C 95.69 78.21 92.92 73.10 90.31 67.99 C 94.38 60.77 98.69 53.66 103.15 46.68 C 106.23 46.00 109.41 45.89 112.55 45.66 C 112.45 43.62 112.33 41.59 112.24 39.55 C 110.87 39.47 109.44 39.49 108.38 38.48 C 109.22 36.43 110.51 34.58 111.08 32.41 C 109.35 31.41 107.61 30.35 105.63 29.95 C 104.60 31.96 103.28 33.80 101.86 35.54 C 100.98 34.70 100.12 33.84 99.26 32.97 C 97.35 33.77 95.58 34.85 93.85 35.97 C 95.08 37.99 96.21 40.07 97.51 42.05 C 96.88 45.63 94.26 48.35 92.63 51.49 C 90.46 54.53 89.29 58.40 86.19 60.69 C 80.96 52.81 76.63 44.33 71.78 36.20 C 70.51 34.62 71.43 32.66 72.09 31.04 C 73.77 27.28 75.43 23.52 77.00 19.72 C 75.04 18.87 73.06 18.08 71.02 17.46 C 70.04 20.21 69.02 22.96 67.66 25.54 C 67.17 25.54 66.20 25.54 65.72 25.54 C 63.52 22.06 61.53 18.46 59.49 14.89 C 57.61 15.68 55.81 16.64 53.98 17.55 C 55.60 22.51 60.18 26.25 60.61 31.57 C 57.33 31.52 54.06 31.33 50.79 31.21 C 50.66 33.30 50.54 35.38 50.43 37.47 C 53.61 37.57 56.82 37.53 59.97 38.10 C 61.96 38.32 63.96 38.49 65.95 38.70 C 69.73 45.32 73.53 51.91 77.30 58.53 C 78.06 59.51 79.33 62.37 76.98 62.21 C 72.54 61.72 68.07 61.42 63.69 60.51 C 63.06 58.43 62.50 56.33 62.08 54.19 C 59.72 54.74 57.40 55.42 55.10 56.16 L 56.44 56.60 C 56.33 57.31 56.10 58.73 55.98 59.44 C 54.77 59.59 53.55 59.64 52.33 59.60 C 51.81 61.52 51.61 63.51 51.44 65.49 C 53.56 65.50 55.20 67.03 54.04 69.18 C 55.57 70.44 57.16 71.62 58.78 72.75 C 60.20 70.93 61.63 69.13 63.04 67.31 C 70.03 67.98 77.07 68.45 83.97 69.73 C 86.17 75.17 90.59 79.60 91.87 85.41 C 91.06 85.44 89.44 85.51 88.63 85.55 C 88.41 87.42 88.29 89.35 87.64 91.13 C 87.96 91.38 88.61 91.86 88.93 92.11 C 91.68 92.34 94.42 92.68 97.16 92.99 C 100.12 98.86 104.55 104.15 106.44 110.45 C 103.44 111.75 100.10 110.90 96.94 111.11 C 94.78 110.92 92.35 111.51 90.37 110.49 C 88.38 107.32 86.58 104.02 84.93 100.66 C 83.05 101.77 81.13 102.82 79.23 103.90 C 80.55 105.94 82.00 108.09 81.80 110.66 C 76.54 110.92 71.25 110.86 65.98 110.68 C 64.65 110.84 64.32 109.21 63.65 108.40 C 60.21 101.58 56.17 95.06 52.90 88.15 C 54.29 85.42 55.77 82.74 56.96 79.91 C 55.12 79.02 53.30 78.10 51.47 77.18 C 51.13 77.81 50.44 79.06 50.10 79.69 C 47.21 79.79 46.65 76.33 45.26 74.46 C 43.53 75.37 41.80 76.28 40.07 77.17 C 40.21 77.67 40.48 78.65 40.62 79.14 C 41.58 80.70 43.00 82.34 42.54 84.32 C 41.71 84.45 40.06 84.72 39.23 84.86 C 39.21 87.02 39.19 89.18 39.19 91.35 C 41.93 91.31 44.67 91.32 47.41 91.48 C 50.35 97.37 53.82 103.00 56.58 108.97 C 56.34 109.34 55.87 110.08 55.63 110.46 C 45.78 110.74 35.88 110.45 26.01 110.29 C 23.09 106.21 19.87 102.34 17.26 98.04 C 15.01 98.45 13.17 99.88 11.61 101.48 C 13.47 104.21 16.71 106.59 16.51 110.21 C 12.13 110.34 7.75 110.34 3.37 110.26 C 3.33 112.36 3.32 114.46 3.34 116.57 C 8.35 116.61 13.36 116.43 18.37 116.78 C 17.77 120.40 14.88 122.93 13.11 125.99 C 14.90 127.15 16.61 128.48 18.65 129.18 C 21.24 124.96 24.24 121.02 27.08 116.98 C 31.32 116.38 35.68 116.97 39.97 116.81 C 44.56 117.07 49.29 116.20 53.76 117.57 C 51.95 121.94 48.32 125.17 45.99 129.25 C 43.44 129.43 40.98 128.66 38.52 128.15 C 38.08 130.15 37.63 132.15 37.21 134.16 C 37.86 134.42 39.16 134.94 39.81 135.21 C 39.97 136.68 39.18 137.94 38.50 139.17 C 40.03 140.34 41.55 141.53 43.02 142.79 C 44.02 142.01 45.04 141.27 46.08 140.57 C 46.31 141.08 46.78 142.10 47.01 142.61 C 49.01 141.77 51.03 140.98 53.07 140.25 C 52.25 137.84 51.33 135.46 50.58 133.03 C 54.96 127.89 58.76 122.28 62.96 116.98 C 68.75 116.91 74.53 116.91 80.31 117.24 C 80.27 118.52 80.15 119.81 79.45 120.93 C 81.09 122.15 82.66 123.46 84.17 124.84 C 86.10 122.36 88.08 119.92 89.93 117.38 C 94.74 117.03 99.56 117.32 104.37 117.37 C 104.45 117.91 104.61 118.99 104.70 119.54 C 101.83 124.10 99.66 129.07 96.51 133.46 C 92.76 133.35 89.00 133.38 85.24 133.40 C 85.27 135.50 85.29 137.60 85.32 139.70 C 87.30 139.70 89.28 139.63 91.25 139.74 C 92.61 141.20 91.35 143.00 90.62 144.43 C 88.43 148.20 86.40 152.06 84.06 155.75 C 75.64 155.69 67.22 155.56 58.80 155.45 C 57.07 152.77 55.26 150.16 53.44 147.56 C 51.73 148.97 49.97 150.35 48.23 151.74 C 49.96 152.33 49.29 153.99 49.43 155.24 C 47.22 155.28 45.02 155.31 42.82 155.38 C 42.82 157.41 42.80 159.43 42.76 161.47 C 45.26 161.57 47.76 161.64 50.26 161.82 C 50.01 163.21 49.63 164.60 49.53 166.02 C 51.21 167.03 52.98 167.87 54.76 168.70 C 55.88 166.62 57.00 164.54 57.95 162.38 C 62.18 161.06 66.71 162.06 71.07 161.79 C 73.89 162.05 77.03 161.16 79.58 162.70 C 79.15 165.70 77.13 168.12 75.75 170.74 C 72.34 177.02 68.69 183.16 65.26 189.44 C 59.96 190.28 54.60 190.59 49.32 191.58 C 49.57 193.61 49.83 195.65 50.16 197.68 C 53.14 197.56 56.06 196.79 59.03 196.70 C 59.32 197.02 59.89 197.66 60.18 197.98 C 58.58 201.98 55.97 205.49 54.06 209.35 C 55.87 210.37 57.65 211.45 59.44 212.52 C 61.69 208.58 64.00 204.68 66.06 200.64 C 66.88 200.50 67.70 200.36 68.53 200.23 C 69.71 202.95 70.96 205.63 72.34 208.25 C 74.10 207.39 76.03 206.82 77.63 205.68 C 76.39 200.63 72.81 196.28 71.34 191.20 C 75.70 184.07 79.41 176.56 83.84 169.47 C 84.27 169.44 85.13 169.38 85.56 169.36 C 87.42 173.50 89.89 177.48 90.88 181.94 C 90.07 184.00 87.73 185.14 87.13 187.25 C 87.85 188.89 89.67 189.73 91.00 190.84 C 92.09 190.51 93.11 190.03 94.07 189.39 C 94.88 190.40 95.44 191.68 96.49 192.48 C 98.22 191.85 99.90 191.10 101.59 190.39 C 101.33 188.57 100.96 186.10 103.55 186.14 C 103.82 184.23 104.16 182.34 104.45 180.44 C 102.09 180.03 99.73 179.63 97.36 179.33 C 94.48 173.89 92.20 168.14 89.63 162.55 C 88.31 160.25 90.06 157.99 91.20 156.06 C 93.49 152.51 95.03 148.47 97.77 145.21 C 98.33 145.79 99.45 146.95 100.01 147.53 C 102.05 147.61 103.96 146.44 105.67 145.44 C 104.78 142.29 103.02 139.46 102.24 136.27 C 105.23 132.03 107.23 127.20 110.09 122.89 C 110.85 121.44 112.90 122.08 113.37 123.43 C 115.70 127.46 118.16 131.43 120.26 135.58 C 119.97 139.18 116.90 142.00 115.32 145.16 C 117.16 146.15 118.97 147.25 120.93 148.00 C 122.36 146.79 122.79 143.72 125.00 143.96 C 128.25 148.41 130.45 153.53 133.54 158.10 C 129.73 165.30 125.46 172.27 121.19 179.20 C 118.21 179.27 115.24 179.47 112.27 179.69 C 112.35 181.64 112.44 183.59 112.47 185.55 C 113.88 185.90 115.31 186.21 116.72 186.60 C 115.69 188.70 114.58 190.76 113.52 192.84 C 115.36 193.82 117.21 194.78 119.07 195.73 C 120.04 193.89 121.08 192.09 122.24 190.37 C 122.72 190.36 123.67 190.35 124.14 190.34 C 124.52 190.87 125.28 191.93 125.66 192.46 C 127.47 191.43 129.26 190.36 131.02 189.23 C 129.75 186.90 127.97 184.76 127.29 182.17 C 128.77 178.22 131.54 174.90 133.45 171.15 C 134.71 169.30 135.42 166.42 138.07 166.27 C 143.23 175.11 148.50 183.89 153.40 192.88 C 151.36 196.88 149.74 201.07 148.10 205.24 C 150.05 206.00 152.01 206.74 153.98 207.48 C 154.80 205.39 155.65 203.32 156.52 201.26 C 160.37 201.36 160.81 206.46 162.86 208.97 C 164.60 208.09 166.30 207.13 168.02 206.22 C 167.42 203.55 165.67 201.36 164.36 199.01 L 165.99 198.52 C 165.50 198.57 164.52 198.67 164.03 198.72 C 163.15 196.79 161.57 194.86 162.48 192.63 C 163.37 192.70 165.14 192.83 166.03 192.90 C 168.62 193.35 171.26 193.45 173.89 193.59 C 174.12 191.55 174.31 189.52 174.51 187.48 C 173.04 187.31 171.57 187.15 170.11 186.92 C 165.72 186.61 161.33 186.45 156.95 186.19 C 152.90 178.90 148.59 171.77 144.50 164.51 C 144.54 163.98 144.61 162.92 144.65 162.40 C 149.80 162.67 154.91 163.43 160.04 163.86 C 161.73 165.70 162.05 168.27 162.79 170.56 C 164.66 169.99 166.54 169.44 168.44 168.99 C 168.38 167.76 168.31 166.54 168.25 165.31 C 169.66 165.12 171.06 164.94 172.48 164.78 C 172.57 162.99 172.70 161.20 172.85 159.41 C 171.99 158.65 169.73 158.73 170.27 157.03 C 170.48 154.53 167.44 153.01 165.47 152.24 C 163.90 153.87 162.61 155.73 161.27 157.54 C 159.48 157.42 157.70 157.31 155.92 157.15 C 150.47 156.02 144.80 156.59 139.38 155.27 C 137.39 152.97 136.30 150.00 134.65 147.45 C 133.31 144.86 130.90 142.55 131.27 139.40 C 132.64 139.44 134.01 139.50 135.38 139.57 C 135.70 137.53 136.05 135.50 136.42 133.47 C 133.03 132.65 129.53 132.52 126.08 132.04 C 123.19 128.77 121.64 124.53 119.16 120.95 C 118.35 119.64 118.21 118.13 118.24 116.63 C 123.65 116.68 129.07 116.14 134.46 116.54 C 136.53 119.57 138.17 122.87 140.18 125.94 C 142.30 125.50 143.97 124.03 145.77 122.94 C 144.72 120.95 142.55 118.87 143.38 116.45 C 148.63 114.94 154.36 116.19 159.79 115.63 C 163.53 121.17 166.51 127.19 170.04 132.86 C 170.94 134.54 172.24 136.10 172.55 138.02 C 171.51 140.77 170.12 143.37 168.82 146.01 C 170.68 146.85 172.50 147.75 174.29 148.73 C 174.86 147.77 175.43 146.82 176.00 145.87 C 176.53 146.09 177.58 146.54 178.11 146.77 C 178.90 148.19 179.70 149.60 180.51 151.01 C 182.46 150.29 184.35 149.38 186.00 148.09 C 185.01 145.96 183.62 144.06 182.69 141.92 C 183.66 140.86 185.09 140.72 186.41 140.40 C 186.38 138.41 186.35 136.42 186.34 134.43 C 183.55 134.46 180.75 134.51 177.96 134.35 C 175.42 129.28 172.34 124.50 169.56 119.56 C 168.85 118.38 168.45 117.09 168.36 115.71 C 178.39 115.25 188.43 115.18 198.46 114.58 C 202.09 118.42 204.87 122.96 208.34 126.94 C 210.28 126.16 211.86 124.74 213.58 123.57 C 212.97 122.80 212.35 122.03 211.73 121.27 C 210.27 119.21 208.21 117.33 208.23 114.62 C 212.62 114.26 217.03 114.15 221.43 114.17 C 221.43 112.15 221.41 110.12 221.45 108.10 C 216.50 108.06 211.56 108.30 206.62 108.09 C 206.51 104.62 209.42 102.16 211.15 99.43 C 209.93 97.52 207.73 96.72 205.86 95.62 C 203.23 99.98 200.29 104.14 197.52 108.41 C 189.32 108.59 181.12 108.67 172.93 109.20 C 172.37 108.89 171.25 108.28 170.69 107.97 C 173.04 103.79 176.10 100.09 178.92 96.24 C 181.15 96.62 183.38 97.09 185.58 97.66 C 185.99 95.56 186.79 93.46 186.62 91.30 C 185.70 90.86 184.77 90.45 183.82 90.08 C 184.39 88.85 185.05 87.65 185.55 86.39 C 184.04 85.14 182.34 84.13 180.69 83.07 C 179.50 84.63 177.63 85.20 176.22 83.56 C 174.44 84.23 172.67 84.93 170.90 85.63 C 171.61 87.87 172.55 90.03 173.60 92.14 C 170.04 98.15 165.62 103.58 161.71 109.35 C 155.86 109.33 150.00 109.68 144.16 109.44 C 144.29 108.58 144.56 106.85 144.69 105.99 C 143.65 104.26 141.56 103.45 140.04 102.21 C 137.71 105.03 136.24 110.13 131.89 109.96 C 127.58 110.32 123.24 110.23 118.92 110.33 C 117.59 110.41 116.36 110.05 115.25 109.28 C 118.75 103.03 122.65 97.01 126.18 90.78 C 130.05 90.72 133.93 90.82 137.80 90.84 C 137.83 88.75 137.86 86.66 137.90 84.57 C 135.66 84.56 133.42 84.51 131.20 84.29 C 131.26 82.89 131.66 81.61 132.38 80.44 C 134.79 76.50 137.05 72.47 139.63 68.64 C 148.08 68.93 156.52 69.20 164.95 69.74 C 166.44 72.23 167.99 74.69 169.41 77.22 C 171.36 76.43 173.13 75.27 174.89 74.14 C 174.40 72.94 173.77 71.72 174.10 70.38 C 176.24 70.16 178.38 70.25 180.53 70.28 C 180.62 68.10 180.67 65.91 180.68 63.72 C 178.32 63.64 175.92 63.84 173.61 63.29 C 173.82 62.33 174.25 60.43 174.46 59.47 C 172.71 58.38 170.92 57.35 169.07 56.44 C 167.89 58.85 166.50 61.15 164.93 63.33 C 158.06 63.17 151.18 63.04 144.34 62.41 C 144.22 59.72 146.13 57.65 147.30 55.40 C 151.33 48.92 155.03 42.23 159.13 35.79 C 160.64 35.19 162.31 35.17 163.89 34.83 C 167.59 34.58 171.30 34.38 174.94 33.68 C 174.79 31.61 174.66 29.55 174.54 27.49 C 171.23 27.64 167.97 28.17 164.67 28.37 C 164.98 23.55 168.93 20.02 170.95 15.81 C 169.10 14.77 167.28 13.69 165.42 12.67 M 147.14 119.15 C 148.38 120.67 149.14 122.35 149.45 124.18 C 146.52 126.37 143.32 128.23 140.04 129.84 C 136.43 127.77 135.20 123.06 132.99 119.65 C 129.40 119.37 125.81 119.60 122.22 119.73 C 123.87 122.69 125.50 125.66 127.29 128.54 C 131.20 129.86 135.42 129.94 139.47 130.69 C 139.50 134.62 138.66 138.47 138.27 142.37 C 137.31 142.56 136.34 142.74 135.38 142.93 C 137.58 145.96 139.22 149.35 141.21 152.51 C 147.37 152.96 153.52 153.60 159.62 154.52 C 161.38 152.30 162.86 149.82 165.13 148.06 C 165.11 146.13 166.00 144.42 166.86 142.76 C 167.68 141.13 168.46 139.49 169.32 137.87 C 165.55 131.49 161.91 125.03 158.12 118.65 C 154.46 118.74 150.81 119.09 147.14 119.15 Z" />
</g>
</svg>
