<?xml version="1.0" encoding="UTF-8" ?>
<!DOCTYPE svg PUBLIC "-//W3C//DTD SVG 1.1//EN" "http://www.w3.org/Graphics/SVG/1.1/DTD/svg11.dtd">
<svg width="585pt" height="520pt" viewBox="0 0 585 520" version="1.1" xmlns="http://www.w3.org/2000/svg">
<g id="#bdbdbdff">
</g>
<g id="#ffffffff">
</g>
<g id="#030303ff">
<path fill="#030303" opacity="1.00" d=" M 252.54 75.31 C 267.02 60.26 281.48 45.17 296.00 30.15 C 310.48 45.16 324.87 60.26 339.35 75.28 C 329.27 85.90 319.10 96.45 308.94 106.99 C 305.48 109.79 306.99 114.91 307.14 118.76 C 313.22 125.43 319.60 131.84 325.83 138.38 C 319.66 144.98 313.21 151.34 307.14 158.03 C 306.55 161.54 306.67 165.26 307.07 168.81 C 311.88 174.40 317.13 179.61 322.08 185.09 C 330.02 174.07 338.05 163.10 345.89 152.01 C 342.58 139.11 339.67 126.11 336.26 113.24 C 354.11 107.72 372.12 102.73 390.06 97.52 C 394.44 115.61 398.90 133.68 403.33 151.76 C 390.42 155.55 377.45 159.17 364.59 163.14 C 359.13 175.48 353.55 187.76 348.01 200.07 C 355.32 201.72 362.60 203.50 369.93 205.07 C 372.91 203.32 375.91 201.62 378.89 199.87 C 381.55 191.11 384.01 182.29 386.60 173.52 C 394.44 175.42 402.28 177.31 410.10 179.27 C 414.29 181.11 417.79 177.11 421.22 175.25 C 426.03 160.38 430.04 145.22 434.51 130.22 C 454.82 135.24 475.13 140.23 495.44 145.24 C 489.59 165.27 483.76 185.31 477.96 205.36 C 462.66 201.73 447.44 197.75 432.11 194.24 C 429.44 195.83 426.73 197.34 424.11 199.00 C 421.56 207.76 419.05 216.53 416.41 225.26 C 407.61 222.95 398.74 220.89 389.91 218.68 C 386.87 220.40 383.72 221.95 380.86 223.96 C 378.31 230.95 376.44 238.20 374.17 245.30 C 387.17 246.62 400.16 247.97 413.16 249.24 C 414.60 249.68 415.60 248.45 416.54 247.61 C 425.58 238.92 434.64 230.25 443.73 221.61 C 457.12 234.55 470.61 247.39 484.04 260.29 C 470.60 273.20 457.13 286.07 443.69 298.98 C 434.05 289.85 424.57 280.54 414.84 271.51 L 414.05 271.31 C 400.74 272.50 387.46 273.98 374.16 275.29 C 376.14 281.79 378.12 288.29 380.12 294.79 C 380.58 297.51 383.62 298.14 385.57 299.53 C 387.35 300.29 389.00 302.23 391.09 301.61 C 399.55 299.56 408.00 297.43 416.46 295.39 C 419.05 304.15 421.57 312.94 424.16 321.70 C 426.80 323.26 429.48 324.77 432.11 326.35 C 447.46 322.88 462.68 318.81 478.02 315.26 C 483.71 335.33 489.57 355.36 495.39 375.40 C 475.12 380.42 454.82 385.35 434.54 390.37 C 430.06 375.42 425.97 360.35 421.33 345.47 C 418.86 343.46 415.91 342.19 413.19 340.59 C 404.30 342.73 395.45 345.00 386.55 347.04 C 384.00 338.38 381.67 329.64 378.90 321.05 C 376.23 318.81 372.94 317.28 369.86 315.66 C 362.51 316.91 355.32 318.99 348.02 320.50 C 353.28 332.30 358.61 344.06 363.91 355.84 C 364.28 357.19 365.43 357.98 366.77 358.21 C 378.97 361.72 391.14 365.29 403.32 368.85 C 398.87 386.90 394.50 404.98 390.05 423.03 C 372.15 417.84 354.24 412.65 336.34 407.46 C 339.52 394.41 342.78 381.38 345.88 368.31 C 337.84 357.46 330.20 346.32 322.05 335.56 C 317.02 341.03 311.69 346.27 306.94 351.97 C 307.28 356.24 305.18 361.79 309.22 364.81 C 314.79 370.57 320.33 376.34 325.86 382.14 C 319.51 388.70 313.21 395.32 306.89 401.91 C 307.41 405.64 305.32 410.50 308.70 413.26 C 318.95 423.89 329.18 434.55 339.39 445.23 C 324.88 460.26 310.44 475.36 295.94 490.40 C 281.46 475.35 267.03 460.26 252.55 445.22 C 263.25 434.01 274.07 422.91 284.70 411.63 C 285.58 408.54 284.88 405.11 285.05 401.89 C 278.73 395.30 272.41 388.71 266.10 382.10 C 272.29 375.61 278.60 369.22 284.71 362.65 C 285.58 359.25 285.01 355.53 285.03 352.01 C 280.30 346.27 274.94 341.03 269.90 335.55 C 261.99 346.07 254.45 356.86 246.71 367.50 C 245.66 368.58 246.58 370.07 246.73 371.31 C 249.75 383.35 252.63 395.42 255.60 407.46 C 237.69 412.62 219.81 417.86 201.89 423.02 C 197.46 404.93 192.98 386.85 188.56 368.76 C 201.01 365.14 213.47 361.51 225.92 357.88 C 227.24 357.72 227.66 356.31 228.19 355.33 C 233.37 343.69 238.63 332.08 243.86 320.46 C 236.60 318.77 229.34 317.09 222.07 315.44 C 218.58 318.08 212.58 318.85 211.95 323.96 C 209.81 331.65 207.46 339.28 205.32 346.98 C 196.45 344.92 187.62 342.69 178.78 340.52 C 176.00 342.08 173.01 343.38 170.51 345.41 C 165.92 360.31 161.79 375.36 157.34 390.30 C 137.06 385.26 116.75 380.30 96.46 375.29 C 102.26 355.24 108.12 335.21 113.91 315.16 C 129.02 318.76 144.06 322.65 159.18 326.16 C 162.25 325.28 164.81 323.13 167.64 321.69 C 170.29 312.95 172.86 304.18 175.31 295.38 C 184.26 297.35 193.12 299.73 202.04 301.84 C 205.02 299.87 208.70 298.68 211.20 296.13 C 213.56 289.22 215.56 282.19 217.66 275.19 C 204.20 273.87 190.74 272.46 177.28 271.12 C 167.55 280.34 157.90 289.65 148.20 298.90 C 134.75 285.99 121.18 273.21 107.82 260.22 C 121.30 247.39 134.72 234.50 148.14 221.61 C 157.62 230.58 166.97 239.69 176.47 248.64 C 177.41 249.66 178.88 249.17 180.07 249.15 C 192.58 247.77 205.11 246.68 217.60 245.25 C 215.52 238.19 213.46 231.10 211.12 224.12 C 208.31 221.93 204.99 220.48 201.92 218.68 C 193.06 220.86 184.20 223.04 175.33 225.20 C 172.83 216.53 170.40 207.84 167.72 199.24 C 165.15 197.22 162.15 195.21 159.03 194.39 C 143.95 197.88 128.95 201.74 113.91 205.37 C 108.08 185.30 102.27 165.23 96.47 145.15 C 116.76 140.21 137.04 135.19 157.32 130.23 C 161.71 145.04 165.83 159.93 170.36 174.70 C 172.39 177.17 175.89 178.12 178.50 180.00 C 187.43 177.89 196.33 175.66 205.25 173.51 C 207.85 182.31 210.30 191.16 213.01 199.94 C 216.02 201.63 219.00 203.38 222.00 205.09 C 229.28 203.43 236.56 201.77 243.82 200.05 C 238.24 187.69 232.74 175.30 227.10 162.98 C 214.24 159.27 201.41 155.45 188.54 151.77 C 192.94 133.67 197.44 115.59 201.86 97.50 C 219.78 102.65 237.67 107.89 255.58 113.07 C 252.37 126.04 249.29 139.05 246.00 152.01 C 253.87 163.09 261.87 174.07 269.83 185.09 C 274.89 179.68 279.89 174.21 285.01 168.84 C 285.12 165.27 285.11 161.69 285.01 158.11 C 278.68 151.54 272.32 144.99 266.08 138.34 C 272.45 131.88 278.61 125.21 284.98 118.74 C 285.09 115.54 285.08 112.34 285.01 109.15 C 274.18 97.88 263.36 86.60 252.54 75.31 M 256.01 75.35 C 266.57 86.33 277.16 97.27 287.61 108.34 C 287.55 112.08 287.57 115.82 287.59 119.56 C 281.79 125.76 275.72 131.72 270.06 138.04 L 270.02 138.77 C 275.74 145.06 281.81 151.05 287.62 157.27 C 287.58 161.40 287.59 165.53 287.61 169.66 C 281.55 176.11 275.63 182.69 269.44 189.02 C 260.87 176.77 251.96 164.76 243.30 152.58 C 246.45 140.05 249.45 127.48 252.55 114.94 C 236.39 109.90 220.04 105.50 203.84 100.63 C 199.48 117.02 195.63 133.54 191.58 150.01 C 204.04 153.68 216.51 157.27 228.97 160.92 C 235.09 174.57 241.26 188.19 247.37 201.83 C 238.74 203.77 230.14 205.85 221.50 207.74 C 217.95 205.60 214.31 203.60 210.76 201.46 C 208.71 194.32 206.59 187.19 204.57 180.04 C 204.04 178.94 204.25 177.18 202.84 176.74 C 194.58 178.56 186.39 180.74 178.16 182.69 C 174.94 180.63 171.36 179.11 168.33 176.77 C 163.97 162.33 159.84 147.81 155.65 133.32 C 136.94 137.67 118.32 142.45 99.64 146.97 C 105.05 165.44 110.06 184.05 115.88 202.39 C 130.53 198.61 145.26 195.14 159.94 191.51 C 163.22 193.38 166.48 195.30 169.77 197.16 C 172.24 205.46 174.65 213.79 177.06 222.11 C 185.46 220.35 193.70 217.91 202.09 216.15 C 206.05 217.57 209.55 220.29 213.29 222.29 C 215.81 230.70 218.42 239.09 220.99 247.49 C 206.09 249.00 191.19 250.52 176.28 252.01 C 166.94 242.99 157.53 234.06 148.15 225.08 C 135.95 236.75 123.81 248.49 111.56 260.11 C 114.88 263.93 118.77 267.18 122.35 270.74 C 130.89 278.79 139.23 287.07 147.88 294.99 L 148.60 294.94 C 157.90 286.24 167.08 277.39 176.25 268.54 C 191.18 269.94 206.10 271.53 221.02 273.03 C 218.41 281.44 215.86 289.86 213.28 298.28 C 209.55 300.26 206.08 302.83 202.17 304.40 C 193.78 302.54 185.49 300.23 177.10 298.37 C 174.68 306.59 172.43 314.88 169.83 323.04 C 166.88 325.49 163.15 326.96 159.90 329.02 C 145.17 325.36 130.43 321.75 115.69 318.18 C 110.61 335.43 105.66 352.72 100.59 369.97 C 100.26 371.15 100.07 372.37 99.87 373.60 C 118.51 377.97 137.01 382.95 155.68 387.13 C 159.88 372.57 164.12 358.01 168.39 343.47 C 171.67 341.63 174.92 339.73 178.17 337.84 C 186.64 339.85 195.08 341.97 203.53 344.01 C 205.97 335.69 208.39 327.36 210.79 319.03 C 214.40 316.90 218.05 314.83 221.68 312.74 C 230.24 314.77 238.84 316.69 247.41 318.70 C 241.23 332.34 235.15 346.02 228.93 359.64 C 216.55 363.13 204.25 366.95 191.84 370.33 C 192.01 371.73 192.20 373.13 192.53 374.51 C 196.29 389.63 199.97 404.76 203.72 419.88 C 219.96 415.26 236.14 410.37 252.41 405.84 C 249.79 393.10 246.30 380.55 243.33 367.88 C 252.08 355.76 260.83 343.63 269.58 331.50 C 275.03 337.35 280.47 343.20 285.95 349.02 C 286.60 349.87 287.80 350.62 287.60 351.87 C 287.69 355.70 287.60 359.54 287.59 363.37 C 281.60 369.58 275.60 375.79 269.68 382.07 C 275.40 388.49 281.63 394.45 287.39 400.83 C 287.78 404.65 287.72 408.58 287.41 412.41 C 277.19 423.44 266.47 434.03 256.29 445.09 C 256.57 445.49 257.11 446.27 257.38 446.67 C 270.28 459.99 283.05 473.43 295.94 486.75 C 309.31 472.94 322.58 459.05 335.92 445.22 C 325.51 434.26 314.89 423.48 304.58 412.42 C 304.20 408.59 304.12 404.57 304.60 400.75 C 310.36 394.38 316.64 388.47 322.29 381.99 C 316.29 375.83 310.41 369.55 304.38 363.41 C 304.36 359.26 304.20 355.11 304.41 350.97 C 310.15 344.27 316.41 337.99 322.40 331.51 C 331.11 343.66 339.89 355.75 348.61 367.89 C 345.63 380.53 342.23 393.09 339.50 405.79 C 355.76 410.44 371.98 415.21 388.23 419.90 C 392.15 403.42 396.55 387.03 400.12 370.47 C 387.72 367.00 375.40 363.21 362.99 359.76 C 356.69 346.15 350.67 332.42 344.47 318.77 C 353.04 316.78 361.61 314.84 370.16 312.82 C 373.82 314.85 377.42 316.99 381.06 319.08 C 383.47 327.41 385.93 335.72 388.30 344.07 C 396.81 342.09 405.25 339.86 413.77 337.92 C 416.98 339.85 420.23 341.70 423.49 343.54 C 427.74 358.06 431.98 372.59 436.16 387.13 C 454.92 383.10 473.47 378.05 492.15 373.64 C 486.92 355.13 481.64 336.62 476.06 318.22 C 461.37 321.92 446.64 325.44 431.94 329.10 C 428.67 327.26 425.46 325.31 422.16 323.53 C 419.52 315.37 417.43 307.03 414.79 298.87 L 414.34 298.58 C 406.09 300.34 397.96 302.66 389.72 304.48 C 385.78 302.90 382.26 300.34 378.54 298.28 C 376.04 289.87 373.42 281.50 370.87 273.11 C 385.75 271.58 400.63 270.07 415.52 268.58 C 424.56 277.20 433.56 285.88 442.63 294.47 C 443.87 296.01 445.18 293.91 446.15 293.17 C 457.46 282.07 469.25 271.44 480.30 260.09 C 468.00 248.52 455.91 236.71 443.66 225.08 C 434.33 234.10 424.89 242.99 415.57 252.01 C 400.68 250.54 385.79 248.99 370.90 247.50 C 373.34 239.08 376.11 230.75 378.52 222.32 C 382.08 220.15 385.75 218.16 389.31 216.00 C 397.83 217.94 406.25 220.25 414.78 222.12 C 417.18 213.80 419.63 205.50 422.05 197.19 C 425.34 195.29 428.63 193.39 431.94 191.52 C 446.68 195.11 461.41 198.76 476.16 202.34 C 481.55 183.90 487.09 165.50 492.15 146.97 C 473.47 142.52 454.89 137.68 436.19 133.31 C 432.09 147.87 427.71 162.35 423.60 176.91 C 420.37 178.86 417.07 180.69 413.87 182.67 C 405.28 180.89 396.87 178.20 388.22 176.76 C 385.90 184.93 383.60 193.12 381.07 201.23 C 378.91 203.14 376.11 204.20 373.71 205.79 C 372.24 206.46 370.86 208.01 369.11 207.49 C 360.89 205.67 352.71 203.65 344.48 201.87 C 350.60 188.20 356.73 174.53 362.93 160.89 C 375.37 157.33 387.77 153.62 400.22 150.06 C 396.43 133.56 392.21 117.16 388.24 100.70 C 371.92 105.34 355.58 109.95 339.36 114.94 C 342.41 127.53 345.57 140.10 348.58 152.71 C 339.78 164.77 331.11 176.94 322.33 189.02 C 316.34 182.55 310.29 176.12 304.30 169.66 C 304.32 165.52 304.31 161.39 304.30 157.25 C 310.10 151.03 316.20 145.06 321.90 138.75 L 322.00 138.17 C 316.27 131.84 310.19 125.82 304.34 119.60 C 304.32 115.82 304.35 112.04 304.32 108.26 C 314.80 97.23 325.40 86.32 335.89 75.30 C 322.57 61.48 309.34 47.57 296.00 33.77 C 282.62 47.58 269.32 61.47 256.01 75.35 Z" />
<path fill="#030303" opacity="1.00" d=" M 212.08 115.06 C 220.91 117.64 229.76 120.18 238.60 122.75 C 236.43 131.69 234.15 140.61 232.03 149.56 C 223.13 147.12 214.30 144.43 205.42 141.92 C 207.60 132.96 209.82 124.01 212.08 115.06 M 208.42 139.86 C 215.47 142.56 222.89 144.19 230.09 146.44 C 232.07 139.24 233.68 131.95 235.57 124.72 C 228.47 122.15 221.09 120.36 213.84 118.25 C 212.04 125.46 210.36 132.70 208.42 139.86 Z" />
<path fill="#030303" opacity="1.00" d=" M 353.30 122.76 C 362.14 120.17 371.01 117.65 379.86 115.05 C 382.01 124.03 384.30 132.97 386.41 141.95 C 377.55 144.45 368.72 147.04 359.88 149.62 C 357.67 140.67 355.51 131.71 353.30 122.76 M 356.34 124.60 C 358.21 131.87 359.70 139.25 361.86 146.44 C 369.01 144.33 376.17 142.27 383.33 140.20 C 381.72 132.83 379.87 125.50 377.97 118.20 C 370.78 120.38 363.49 122.26 356.34 124.60 Z" />
<path fill="#030303" opacity="1.00" d=" M 281.00 138.39 C 285.99 133.19 290.96 127.97 295.96 122.78 C 300.92 128.00 305.94 133.16 310.90 138.39 C 305.88 143.55 300.96 148.81 295.92 153.95 C 290.96 148.75 285.98 143.57 281.00 138.39 M 284.65 138.12 C 287.98 142.56 292.18 146.24 295.96 150.29 C 299.64 146.44 303.44 142.69 307.00 138.72 L 306.93 138.00 C 303.46 134.00 299.65 130.30 295.98 126.49 C 292.11 130.27 288.49 134.30 284.65 138.12 Z" />
<path fill="#030303" opacity="1.00" d=" M 278.78 198.38 C 284.54 191.76 290.22 185.07 295.94 178.41 C 301.64 185.12 307.46 191.74 313.11 198.50 C 307.32 205.08 301.74 211.85 296.00 218.48 C 290.25 211.79 284.49 205.11 278.78 198.38 M 282.09 198.41 C 286.72 203.80 291.29 209.24 296.00 214.56 C 300.67 209.25 305.21 203.81 309.80 198.43 C 305.19 193.06 300.60 187.66 295.94 182.33 C 291.27 187.64 286.73 193.07 282.09 198.41 Z" />
<path fill="#030303" opacity="1.00" d=" M 394.08 186.43 C 401.08 188.06 408.03 189.85 415.02 191.49 C 413.21 198.42 411.01 205.24 409.12 212.15 C 402.04 210.70 395.05 208.80 388.04 207.07 C 390.10 200.21 392.07 193.31 394.08 186.43 M 391.24 205.32 C 396.55 206.64 401.88 207.91 407.19 209.27 C 409.00 204.04 410.31 198.65 411.97 193.38 C 406.73 191.99 401.42 190.91 396.23 189.39 C 393.90 194.45 392.92 200.02 391.24 205.32 Z" />
<path fill="#030303" opacity="1.00" d=" M 268.13 212.12 C 274.46 216.36 280.70 220.75 287.02 225.02 C 288.18 225.60 288.09 227.04 288.39 228.12 C 289.86 237.03 291.38 245.93 292.91 254.83 C 285.21 248.63 277.63 242.29 269.95 236.08 C 269.34 228.09 268.76 220.10 268.13 212.12 M 271.04 217.10 C 271.46 222.96 271.92 228.82 272.36 234.68 C 277.88 239.42 283.57 243.98 289.24 248.55 C 288.14 241.43 286.85 234.34 285.66 227.23 C 280.87 223.74 275.88 220.52 271.04 217.10 Z" />
<path fill="#030303" opacity="1.00" d=" M 304.91 225.02 C 311.19 220.71 317.45 216.37 323.77 212.12 C 323.15 220.08 322.52 228.05 321.93 236.01 C 314.30 242.30 306.68 248.60 299.00 254.83 C 300.50 245.92 302.06 237.01 303.53 228.09 C 303.80 227.02 303.74 225.58 304.91 225.02 M 306.23 227.25 C 305.04 234.36 303.78 241.45 302.65 248.57 C 307.62 244.56 312.53 240.48 317.49 236.47 C 318.21 235.70 319.45 235.13 319.52 233.96 C 320.06 228.36 320.39 222.74 320.85 217.13 C 315.97 220.50 311.03 223.77 306.23 227.25 Z" />
<path fill="#030303" opacity="1.00" d=" M 224.98 219.35 C 233.63 217.76 242.27 216.11 250.91 214.50 C 253.83 222.80 256.81 231.07 259.74 239.36 C 251.07 240.97 242.41 242.59 233.74 244.22 C 230.83 235.93 227.88 227.65 224.98 219.35 M 228.41 221.25 C 230.49 227.94 233.10 234.45 235.25 241.11 C 242.30 240.43 249.17 238.55 256.17 237.51 C 254.13 230.69 251.81 223.90 248.97 217.38 C 242.13 218.76 235.27 219.98 228.41 221.25 Z" />
<path fill="#030303" opacity="1.00" d=" M 332.17 239.43 C 335.06 231.12 338.01 222.83 340.93 214.53 C 349.58 216.09 358.21 217.73 366.85 219.34 C 363.92 227.63 361.04 235.94 358.09 244.21 C 349.45 242.62 340.81 241.02 332.17 239.43 M 335.82 237.60 C 342.53 238.67 349.17 240.17 355.88 241.17 L 356.58 240.79 C 358.95 234.32 361.34 227.83 363.37 221.24 C 356.51 219.96 349.65 218.70 342.80 217.40 C 340.18 224.01 337.58 230.71 335.82 237.60 Z" />
<path fill="#030303" opacity="1.00" d=" M 299.10 265.68 C 306.71 271.86 314.14 278.26 321.81 284.37 C 322.59 292.39 323.11 300.43 323.77 308.47 C 317.16 303.95 310.58 299.38 303.97 294.84 C 302.37 285.12 300.69 275.40 299.10 265.68 M 302.68 271.89 C 304.07 279.05 304.70 286.46 306.60 293.46 C 311.18 296.98 316.08 300.09 320.86 303.34 C 320.23 297.52 320.24 291.61 319.29 285.85 C 313.99 280.94 308.18 276.58 302.68 271.89 Z" />
<path fill="#030303" opacity="1.00" d=" M 233.75 276.31 C 242.41 277.87 251.04 279.53 259.71 281.06 C 256.82 289.39 253.88 297.71 250.92 306.02 C 242.29 304.35 233.62 302.84 225.00 301.13 C 227.97 292.88 230.85 284.59 233.75 276.31 M 228.43 299.10 C 235.28 300.76 242.30 301.69 249.20 303.18 C 251.70 296.51 254.01 289.76 256.34 283.02 C 249.39 281.73 242.44 280.47 235.50 279.15 C 233.02 285.75 230.78 292.45 228.43 299.10 Z" />
<path fill="#030303" opacity="1.00" d=" M 332.12 281.20 C 340.80 279.65 349.45 277.96 358.12 276.38 C 360.96 284.69 364.02 292.93 366.83 301.25 C 358.19 302.81 349.57 304.50 340.92 306.08 C 338.00 297.78 335.01 289.50 332.12 281.20 M 335.52 283.17 C 337.77 289.71 340.03 296.25 342.45 302.72 L 343.00 303.06 C 349.85 301.93 356.70 300.70 363.47 299.15 C 361.06 292.52 358.93 285.78 356.31 279.23 C 349.39 280.61 342.44 281.80 335.52 283.17 Z" />
<path fill="#030303" opacity="1.00" d=" M 278.81 322.10 C 284.50 315.39 290.25 308.74 295.93 302.03 C 301.67 308.71 307.40 315.41 313.15 322.10 C 307.42 328.75 301.72 335.43 296.01 342.10 C 290.26 335.45 284.54 328.77 278.81 322.10 M 282.12 322.10 C 286.76 327.46 291.32 332.89 296.00 338.22 C 300.63 332.88 305.23 327.49 309.82 322.10 C 305.24 316.68 300.56 311.34 295.99 305.91 C 291.30 311.25 286.73 316.70 282.12 322.10 Z" />
<path fill="#030303" opacity="1.00" d=" M 182.81 308.27 C 189.84 309.99 196.90 311.58 203.87 313.52 C 201.72 320.35 199.80 327.25 197.79 334.12 C 190.79 332.40 183.79 330.70 176.79 328.99 C 178.77 322.08 180.84 315.19 182.81 308.27 M 179.91 327.13 C 185.27 328.52 190.66 329.79 196.04 331.10 C 197.55 325.79 199.24 320.52 200.59 315.16 C 195.27 313.90 189.97 312.57 184.66 311.28 C 182.91 316.51 181.54 321.86 179.91 327.13 Z" />
<path fill="#030303" opacity="1.00" d=" M 388.04 313.49 C 395.03 311.70 402.05 310.02 409.06 308.33 C 411.04 315.25 413.08 322.16 415.09 329.07 C 408.08 330.76 401.09 332.49 394.09 334.19 C 392.07 327.29 390.11 320.38 388.04 313.49 M 391.27 315.20 C 392.65 320.56 394.30 325.85 395.83 331.17 C 401.19 329.90 406.53 328.54 411.90 327.30 C 410.38 321.96 409.03 316.56 407.11 311.35 C 401.84 312.66 396.56 313.98 391.27 315.20 Z" />
<path fill="#030303" opacity="1.00" d=" M 124.11 332.99 C 134.78 335.69 145.52 338.18 156.19 340.92 C 153.06 351.45 150.04 362.02 146.96 372.56 C 136.24 369.96 125.53 367.32 114.81 364.68 C 117.96 354.13 120.97 343.54 124.11 332.99 M 125.75 336.35 C 123.07 345.16 120.60 354.05 117.97 362.88 C 126.99 365.12 136.04 367.28 145.06 369.55 C 147.99 360.67 150.38 351.63 153.01 342.66 C 145.07 340.73 137.13 338.79 129.20 336.81 C 128.08 336.70 126.81 335.85 125.75 336.35 Z" />
<path fill="#030303" opacity="1.00" d=" M 435.71 340.92 C 446.41 338.34 457.09 335.68 467.79 333.08 C 470.87 343.66 473.94 354.24 477.01 364.83 C 466.30 367.40 455.61 370.06 444.90 372.65 C 441.87 362.06 438.74 351.51 435.71 340.92 M 438.82 342.85 C 441.65 351.73 443.77 360.83 446.88 369.62 C 455.86 367.35 464.88 365.23 473.87 362.99 C 471.29 354.01 468.66 345.04 466.04 336.08 C 456.97 338.36 447.84 340.41 438.82 342.85 Z" />
<path fill="#030303" opacity="1.00" d=" M 205.44 378.57 C 214.32 376.09 223.16 373.46 232.02 370.92 C 234.27 379.82 236.29 388.77 238.69 397.63 C 229.90 400.47 220.94 402.76 212.09 405.45 C 209.81 396.51 207.64 387.54 205.44 378.57 M 208.63 380.25 C 210.02 387.68 212.12 394.95 213.88 402.30 C 221.12 400.17 228.40 398.19 235.61 395.97 C 233.80 388.67 232.02 381.36 230.22 374.06 C 223.02 376.11 215.85 378.27 208.63 380.25 Z" />
<path fill="#030303" opacity="1.00" d=" M 362.49 372.08 C 370.67 374.57 378.91 376.89 387.10 379.38 C 384.91 388.28 382.73 397.18 380.60 406.09 C 371.73 403.60 362.90 400.95 354.03 398.43 C 356.01 390.03 358.18 381.68 360.14 373.28 C 360.73 372.98 361.90 372.38 362.49 372.08 M 362.34 374.87 C 360.59 382.15 358.82 389.42 357.02 396.68 C 364.27 398.76 371.50 400.89 378.75 402.96 C 380.54 395.68 382.31 388.38 384.07 381.09 C 376.82 379.06 369.68 376.59 362.34 374.87 Z" />
<path fill="#030303" opacity="1.00" d=" M 273.12 445.36 C 280.73 437.40 288.36 429.47 295.98 421.52 C 303.61 429.44 311.16 437.44 318.86 445.30 C 311.27 453.30 303.59 461.22 295.98 469.20 C 288.32 461.28 280.72 453.32 273.12 445.36 M 277.01 445.02 L 277.08 445.72 C 283.20 452.46 289.60 458.98 295.98 465.49 C 302.35 458.93 308.76 452.39 314.95 445.67 L 314.96 445.05 C 308.77 438.30 302.29 431.81 295.99 425.16 C 289.67 431.79 283.21 438.29 277.01 445.02 Z" />
</g>
<g id="#020202ff">
<path fill="#020202" opacity="1.00" d=" M 273.09 75.20 C 280.67 67.19 288.37 59.29 295.98 51.31 C 303.58 59.28 311.23 67.21 318.82 75.18 C 311.18 83.09 303.59 91.05 295.97 98.98 C 288.29 91.10 280.76 83.09 273.09 75.20 M 276.97 74.90 L 277.08 75.58 C 283.26 82.26 289.59 88.83 296.00 95.30 C 302.41 88.53 309.08 82.00 315.27 75.03 C 308.80 68.37 302.41 61.64 295.99 54.94 C 289.66 61.60 283.13 68.09 276.97 74.90 Z" />
<path fill="#020202" opacity="1.00" d=" M 114.81 155.83 C 125.50 153.11 136.23 150.58 146.93 147.94 C 149.97 158.52 153.10 169.07 156.12 179.65 C 145.43 182.25 134.75 184.91 124.05 187.52 C 120.97 176.96 117.94 166.38 114.81 155.83 M 117.98 157.57 C 120.60 166.55 123.05 175.58 125.91 184.49 C 134.94 182.27 143.96 180.04 153.00 177.85 C 150.41 168.88 147.79 159.91 145.19 150.95 C 136.11 153.14 127.06 155.39 117.98 157.57 Z" />
<path fill="#020202" opacity="1.00" d=" M 444.91 147.94 C 455.62 150.60 466.34 153.17 477.05 155.84 C 473.86 166.40 471.01 177.06 467.66 187.57 C 457.05 184.78 446.35 182.31 435.72 179.65 C 438.75 169.07 441.88 158.52 444.91 147.94 M 446.60 151.01 C 444.11 159.98 441.39 168.88 438.86 177.84 C 447.95 180.03 456.99 182.43 466.13 184.42 C 468.66 175.47 471.31 166.56 473.91 157.64 C 464.80 155.44 455.74 153.07 446.60 151.01 Z" />
<path fill="#020202" opacity="1.00" d=" M 128.13 260.23 C 134.80 253.90 141.41 247.51 148.05 241.14 C 154.74 247.51 161.38 253.94 168.09 260.29 C 161.46 266.68 154.75 272.99 148.10 279.36 C 141.43 272.99 134.74 266.65 128.13 260.23 M 131.79 260.17 C 137.09 265.55 142.67 270.65 148.10 275.91 C 153.34 270.79 158.83 265.91 163.94 260.68 L 163.99 259.96 C 158.79 254.76 153.43 249.71 148.05 244.70 C 142.55 249.77 137.27 255.07 131.79 260.17 Z" />
<path fill="#020202" opacity="1.00" d=" M 423.84 260.25 C 430.50 253.90 437.16 247.54 443.78 241.14 C 450.45 247.50 457.03 253.96 463.72 260.30 C 457.10 266.71 450.42 273.05 443.79 279.44 C 437.14 273.04 430.44 266.70 423.84 260.25 M 443.43 245.05 C 438.03 249.95 432.91 255.17 427.57 260.13 C 432.69 265.69 438.43 270.64 443.77 275.98 C 449.22 270.76 454.67 265.54 460.11 260.31 C 454.70 255.26 449.55 249.91 444.02 245.01 L 443.43 245.05 Z" />
<path fill="#020202" opacity="1.00" d=" M 240.27 260.25 C 247.52 256.83 254.72 253.31 261.98 249.91 C 271.17 253.44 280.47 256.70 289.61 260.35 L 289.64 260.65 C 280.26 263.50 271.21 267.31 261.99 270.61 C 254.75 267.14 247.48 263.75 240.27 260.25 M 246.11 260.30 C 251.45 262.81 256.77 265.37 262.11 267.88 C 268.82 265.38 275.54 262.91 282.25 260.42 C 275.66 257.46 268.76 255.20 262.00 252.66 C 256.70 255.20 251.37 257.67 246.11 260.30 Z" />
<path fill="#020202" opacity="1.00" d=" M 270.01 284.40 C 277.66 278.18 285.18 271.83 292.79 265.57 C 291.17 275.33 289.57 285.08 287.98 294.84 C 281.35 299.36 274.73 303.90 268.07 308.38 C 268.77 300.39 269.30 292.39 270.01 284.40 M 274.17 284.23 C 273.41 284.96 272.23 285.63 272.32 286.86 C 271.83 292.36 271.45 297.87 271.01 303.38 C 275.78 300.00 280.80 296.96 285.42 293.38 C 287.18 286.33 287.86 278.96 289.22 271.79 C 284.20 275.93 279.19 280.09 274.17 284.23 Z" />
</g>
<g id="#040404ff">
<path fill="#040404" opacity="1.00" d=" M 176.71 191.64 C 183.68 189.72 190.73 188.14 197.75 186.42 C 199.76 193.32 201.79 200.22 203.78 207.13 C 196.79 208.84 189.80 210.57 182.80 212.26 C 180.77 205.39 178.87 198.48 176.71 191.64 M 179.91 193.32 C 181.38 198.58 183.02 203.80 184.43 209.08 C 189.88 208.08 195.30 206.76 200.60 205.12 C 199.04 199.91 197.56 194.68 196.02 189.46 C 190.62 190.65 185.29 192.07 179.91 193.32 Z" />
<path fill="#040404" opacity="1.00" d=" M 302.16 260.43 C 311.38 256.84 320.65 253.42 329.90 249.92 C 337.13 253.40 344.37 256.85 351.60 260.34 C 344.36 263.78 337.13 267.25 329.89 270.68 C 320.65 267.26 311.42 263.81 302.16 260.43 M 309.35 260.38 C 316.16 262.90 322.97 265.44 329.78 267.95 C 335.10 265.44 340.41 262.90 345.72 260.35 C 340.48 257.72 335.16 255.26 329.90 252.68 C 323.00 255.12 316.18 257.78 309.35 260.38 Z" />
</g>
<g id="#050505ff">
<path fill="#050505" opacity="1.00" d=" M 281.04 382.28 C 285.89 376.91 291.01 371.80 295.99 366.54 C 300.96 371.76 305.96 376.94 310.93 382.16 C 305.94 387.35 300.97 392.55 295.99 397.76 C 290.96 392.65 286.15 387.32 281.04 382.28 M 284.96 381.89 L 285.06 382.61 C 288.56 386.56 292.36 390.26 295.98 394.11 C 299.54 389.97 304.16 386.45 307.04 381.92 C 303.58 377.82 299.66 374.13 295.99 370.22 C 292.32 374.11 288.39 377.79 284.96 381.89 Z" />
</g>
</svg>
