<?xml version="1.0" encoding="UTF-8" ?>
<!DOCTYPE svg PUBLIC "-//W3C//DTD SVG 1.1//EN" "http://www.w3.org/Graphics/SVG/1.1/DTD/svg11.dtd">
<svg width="900pt" height="960pt" viewBox="0 0 900 960" version="1.1" xmlns="http://www.w3.org/2000/svg">
<g id="#fcfcfcff">
</g>
<g id="#171717ff">
<path fill="#171717" opacity="1.00" d=" M 426.83 21.03 C 426.72 18.06 428.72 15.31 431.87 15.44 C 442.80 15.20 453.76 15.24 464.69 15.43 C 467.69 15.11 469.62 18.28 469.46 20.97 C 469.44 36.89 469.28 52.82 469.54 68.74 C 479.71 62.79 489.91 56.91 500.12 51.02 C 503.40 49.22 506.46 46.96 510.00 45.66 C 511.50 44.94 512.87 46.22 514.26 46.64 C 519.44 57.79 522.66 69.77 527.39 81.13 C 526.68 82.77 526.33 84.86 524.57 85.75 C 506.29 96.44 487.82 106.83 469.55 117.52 C 469.21 123.64 469.56 129.78 469.35 135.91 C 469.88 135.87 470.93 135.78 471.46 135.74 C 483.94 127.90 497.01 121.00 509.63 113.36 C 516.18 109.75 522.50 105.73 529.09 102.18 C 531.33 100.68 534.90 101.48 535.77 104.19 C 539.76 114.98 543.46 125.90 547.37 136.74 C 547.04 141.28 542.27 142.96 538.90 144.95 C 525.04 153.15 511.00 161.04 497.15 169.25 C 487.85 174.19 479.17 180.30 469.66 184.81 C 469.45 186.95 469.51 189.11 469.29 191.25 L 467.77 192.48 C 467.02 195.94 467.44 199.50 467.41 203.01 C 467.41 221.34 467.39 239.68 467.40 258.02 C 467.37 262.62 467.65 267.24 467.12 271.82 C 466.81 272.77 466.44 273.69 466.08 274.62 C 467.18 273.93 468.29 273.26 469.41 272.59 C 469.41 274.42 469.37 276.25 469.33 278.09 C 470.23 277.81 471.08 277.40 471.86 276.88 C 482.34 268.01 492.94 259.29 503.49 250.50 C 505.12 248.96 507.00 247.72 509.02 246.75 C 510.47 247.27 511.92 247.83 513.33 248.50 C 519.55 264.12 525.15 279.98 530.89 295.77 C 537.31 285.06 543.18 274.02 549.86 263.47 C 539.59 235.25 529.17 207.09 518.64 178.96 C 519.11 177.59 519.61 176.23 520.14 174.89 C 524.68 172.11 529.53 169.77 533.87 166.71 C 539.68 164.29 544.73 160.29 550.42 157.57 C 552.54 156.64 554.87 158.08 556.22 159.66 C 562.87 178.56 570.25 197.20 576.85 216.12 C 578.84 213.36 580.35 210.29 582.23 207.46 C 585.31 201.58 588.86 195.97 592.13 190.20 C 594.91 187.30 598.53 189.03 601.37 190.83 C 609.49 195.77 617.86 200.27 626.04 205.10 C 627.58 205.84 628.41 207.39 629.41 208.70 C 628.76 210.55 628.12 212.42 627.12 214.12 C 622.69 221.65 618.32 229.22 613.99 236.81 C 631.10 234.59 648.03 231.05 665.09 228.42 C 669.08 227.81 673.56 225.91 677.15 228.80 C 677.67 231.18 678.31 233.57 678.20 236.04 C 678.12 245.43 678.26 254.83 678.16 264.23 C 678.22 266.84 676.45 268.47 674.15 269.29 C 668.75 270.26 663.30 270.98 657.95 272.16 C 657.36 273.27 656.23 274.24 655.59 272.56 C 635.37 275.64 615.27 279.51 595.08 282.77 C 592.18 283.35 589.20 283.60 586.39 284.55 C 580.20 295.18 573.86 305.77 568.01 316.60 C 583.65 313.81 599.34 311.27 614.98 308.50 C 616.84 308.15 618.52 309.20 620.19 309.87 C 620.69 311.55 621.47 313.25 620.95 315.05 C 618.56 329.05 616.27 343.07 613.71 357.05 C 613.32 358.60 613.38 360.21 613.48 361.81 C 614.97 360.46 616.66 359.35 618.43 358.39 C 643.71 343.97 668.81 329.24 694.16 314.93 C 694.34 286.94 694.58 258.94 694.43 230.94 C 694.37 228.07 694.40 223.65 698.07 223.10 C 709.30 220.59 720.69 218.75 732.01 216.70 C 733.03 217.06 734.06 217.41 735.10 217.74 C 736.45 219.54 736.80 221.77 736.73 223.97 C 736.75 243.97 736.72 263.97 736.75 283.97 C 736.76 286.01 736.39 288.02 736.09 290.04 C 740.23 289.01 743.54 286.16 747.27 284.24 C 749.05 283.07 751.26 282.40 752.78 280.88 C 753.05 259.90 752.74 238.91 752.93 217.92 C 752.80 215.37 754.38 212.65 757.13 212.43 C 767.68 210.29 778.34 208.70 788.91 206.69 C 791.83 205.99 795.48 207.77 795.53 211.07 C 795.75 226.11 795.40 241.16 795.71 256.19 C 796.70 255.71 797.70 255.22 798.69 254.72 C 809.03 248.37 819.76 242.71 830.14 236.44 C 833.36 234.76 836.30 232.39 839.91 231.62 C 839.89 231.32 839.84 230.73 839.82 230.43 C 840.58 232.39 843.49 231.70 844.22 233.85 C 849.86 243.49 855.53 253.13 861.05 262.85 C 862.52 265.17 861.00 267.91 858.92 269.22 C 844.86 276.98 831.11 285.32 817.07 293.11 C 821.94 296.61 827.47 299.10 832.53 302.33 C 840.06 306.47 847.36 311.01 854.96 315.03 C 857.15 316.12 859.07 318.50 858.49 321.08 C 856.85 324.41 854.13 327.00 851.82 329.86 C 846.19 336.22 841.01 342.96 835.27 349.23 C 834.03 349.83 832.36 351.02 831.03 349.99 C 820.28 344.16 809.83 337.78 799.15 331.81 C 791.14 327.01 782.72 322.83 775.04 317.54 C 769.12 320.33 763.75 324.15 757.97 327.20 C 767.01 332.49 776.11 337.67 785.23 342.81 C 795.75 349.00 806.48 354.83 817.02 361.00 C 819.01 361.95 819.66 364.19 820.45 366.06 C 819.73 367.43 819.06 368.86 818.03 370.04 C 811.18 378.22 804.02 386.15 797.17 394.34 C 795.09 395.55 792.52 395.69 790.50 394.28 C 766.93 380.56 743.09 367.33 719.47 353.71 C 718.24 353.07 717.07 352.31 715.96 351.51 C 688.54 366.78 661.57 382.90 634.16 398.18 C 648.89 403.57 663.52 409.41 678.43 414.26 C 679.58 412.67 681.14 414.04 680.55 415.72 C 683.45 417.01 683.12 421.25 681.24 423.31 C 671.09 435.36 661.06 447.52 650.98 459.62 C 663.37 459.99 675.78 459.62 688.17 459.86 C 706.09 438.21 724.24 416.75 742.17 395.11 C 744.11 392.72 746.48 389.16 750.09 390.34 C 759.80 395.29 768.93 401.31 778.54 406.45 C 781.25 407.68 782.99 411.38 781.01 413.96 C 768.45 429.24 755.56 444.30 743.09 459.64 C 752.78 459.97 762.49 459.56 772.19 459.90 C 776.30 460.06 777.08 464.67 777.14 467.94 C 777.19 476.63 777.11 485.33 777.17 494.03 C 777.33 496.47 776.33 498.75 775.54 501.00 C 773.08 501.75 770.57 502.35 767.99 502.15 C 759.70 501.87 751.37 502.56 743.12 501.76 C 742.92 501.91 742.54 502.21 742.35 502.36 L 743.43 502.18 C 744.01 504.16 745.78 505.40 746.99 507.00 C 757.23 519.49 767.73 531.76 777.98 544.23 C 779.58 546.58 782.67 548.87 781.34 552.07 C 780.38 555.11 777.00 556.23 774.51 557.73 C 766.63 562.30 758.70 566.76 750.81 571.30 C 748.86 572.70 746.73 571.06 744.92 570.27 C 737.85 561.03 730.02 552.37 722.69 543.33 C 711.06 529.68 699.82 515.70 688.15 502.08 C 675.74 502.34 663.30 501.73 650.91 502.39 C 660.95 514.32 671.02 526.26 680.97 538.28 C 682.46 539.88 683.00 541.93 682.50 544.08 C 682.18 544.61 681.55 545.67 681.23 546.21 C 666.01 552.13 650.52 557.34 635.33 563.31 C 635.31 563.56 635.28 564.07 635.26 564.33 C 650.51 572.69 665.43 581.63 680.52 590.27 C 692.38 596.84 703.98 603.90 715.91 610.34 C 738.93 596.91 762.09 583.73 785.31 570.64 C 788.46 568.91 791.42 566.34 795.23 566.40 C 799.01 569.06 801.57 572.97 804.67 576.32 C 808.91 581.04 812.85 586.03 817.17 590.68 C 818.58 592.23 819.68 594.03 820.45 595.99 C 819.53 597.80 818.98 600.17 816.86 600.96 C 799.21 610.99 781.62 621.08 764.03 631.19 C 761.99 632.42 759.65 633.27 758.06 635.10 C 763.31 637.33 767.99 640.67 772.99 643.37 C 775.15 644.70 777.03 642.78 778.81 641.77 C 789.61 635.64 800.31 629.31 811.10 623.15 C 818.16 619.34 824.82 614.78 832.19 611.57 C 833.38 612.04 834.65 612.32 835.76 613.02 C 842.88 621.59 850.03 630.15 857.37 638.54 C 859.11 641.00 858.83 644.38 856.20 646.08 C 845.53 652.08 834.99 658.31 824.32 664.30 C 821.97 665.84 819.25 666.87 817.18 668.79 C 831.02 676.59 844.73 684.65 858.55 692.48 C 860.83 693.72 862.49 696.59 861.06 699.09 C 855.88 708.56 850.10 717.68 845.00 727.19 C 844.26 728.89 842.44 729.57 841.01 730.55 C 834.26 728.88 828.91 724.00 822.66 721.14 C 815.21 716.66 807.61 712.41 800.08 708.07 C 798.61 707.25 797.19 706.08 795.42 706.29 C 795.81 720.87 795.52 735.46 795.57 750.04 C 795.78 751.63 794.83 752.95 794.06 754.25 C 788.91 756.58 783.38 753.79 778.12 753.25 C 770.28 751.53 762.06 751.29 754.52 748.40 C 753.77 746.71 753.19 744.91 753.32 743.04 C 753.32 723.35 753.28 703.65 753.34 683.95 C 753.33 682.59 753.59 680.71 751.97 680.18 C 746.71 677.56 741.87 674.22 736.62 671.60 C 736.89 692.73 736.65 713.87 736.75 735.00 C 736.71 737.32 736.90 739.71 736.23 741.97 C 735.62 744.54 732.32 745.55 730.01 744.94 C 722.66 743.51 715.27 742.30 707.96 740.73 C 703.98 740.05 699.93 739.52 696.20 737.91 C 693.65 733.31 695.34 727.92 694.52 722.95 C 694.34 702.63 694.51 682.30 694.44 661.98 C 694.52 657.13 693.85 652.29 694.31 647.45 C 690.05 644.67 685.70 641.99 681.09 639.84 C 681.82 639.43 682.56 639.04 683.32 638.67 C 682.11 638.13 681.20 638.33 680.56 639.28 C 661.01 627.95 641.41 616.69 621.85 605.38 C 618.91 603.78 615.99 602.14 613.34 600.10 C 615.31 615.82 618.74 631.36 621.08 647.04 C 621.46 648.76 620.50 650.37 620.11 652.00 C 619.07 652.42 618.05 652.89 617.06 653.41 C 600.68 651.23 584.37 648.08 568.08 645.22 C 568.30 646.89 569.35 648.22 570.24 649.61 C 575.32 658.57 580.68 667.38 585.65 676.40 C 586.08 677.97 587.93 677.69 589.19 677.87 C 617.22 683.21 645.45 687.61 673.56 692.58 C 675.77 693.00 677.95 694.38 678.09 696.86 C 678.44 704.54 678.13 712.24 678.23 719.93 C 678.05 724.37 678.85 728.95 677.39 733.25 C 674.94 735.02 671.91 734.92 669.10 734.26 C 650.86 730.92 632.44 728.41 614.32 724.50 C 614.46 725.58 614.62 726.70 615.32 727.61 C 620.19 735.66 624.70 743.91 629.41 752.05 C 629.02 753.10 628.63 754.17 628.29 755.26 C 623.21 759.01 617.41 761.59 612.10 764.97 C 607.33 767.49 602.89 770.59 598.00 772.89 C 596.06 774.09 594.00 772.78 592.19 772.02 C 588.56 765.61 584.93 759.20 581.12 752.89 C 579.71 750.64 578.94 747.93 576.90 746.13 C 570.25 764.47 563.34 782.71 556.70 801.06 C 556.06 803.47 553.42 804.47 551.20 804.82 C 540.81 798.85 530.39 792.96 520.01 786.98 C 519.24 785.28 518.25 783.42 519.30 781.60 C 527.19 760.34 535.06 739.06 542.85 717.77 C 545.08 711.18 548.27 704.82 549.62 697.98 C 542.93 687.79 537.41 676.86 531.01 666.49 C 524.89 682.34 519.44 698.46 513.08 714.22 C 510.32 714.97 507.31 715.03 505.17 712.87 C 499.13 707.43 492.76 702.38 486.49 697.24 C 480.79 692.55 475.03 687.91 469.51 683.01 C 469.30 714.21 469.46 745.41 469.43 776.60 C 486.84 786.56 504.09 796.80 521.48 806.79 C 529.32 811.53 537.34 815.97 545.24 820.60 C 546.99 821.27 547.30 823.19 547.73 824.78 C 543.59 835.49 540.16 846.48 536.05 857.20 C 535.29 859.67 532.33 861.36 529.91 860.04 C 523.33 856.74 517.18 852.63 510.70 849.14 C 497.04 841.04 483.14 833.35 469.54 825.15 C 469.28 831.52 469.42 837.90 469.50 844.28 C 470.54 844.91 471.57 845.57 472.59 846.27 C 489.85 855.98 506.96 865.99 524.11 875.89 C 525.72 876.65 526.67 878.12 527.44 879.67 C 525.93 886.03 523.03 891.95 521.13 898.19 C 519.16 903.15 517.49 908.22 515.46 913.16 C 514.49 915.85 511.02 917.45 508.54 915.68 C 495.54 908.19 482.54 900.70 469.57 893.15 C 469.19 909.87 469.54 926.62 469.41 943.35 C 468.16 944.80 466.85 946.76 464.66 946.54 C 453.82 946.64 442.98 946.58 432.14 946.58 C 429.05 946.89 426.35 944.07 426.75 941.00 C 426.73 925.34 426.83 909.68 426.72 894.03 C 425.52 894.24 424.30 894.50 423.27 895.19 C 413.65 900.65 404.12 906.28 394.54 911.82 C 391.14 913.57 387.99 916.33 384.00 916.46 C 382.38 915.53 380.98 914.24 380.45 912.40 C 377.54 904.58 374.62 896.76 371.80 888.91 C 370.55 885.31 368.33 881.66 369.60 877.75 C 379.54 871.10 390.29 865.70 400.51 859.50 C 409.18 854.60 417.78 849.59 426.44 844.69 C 427.09 838.23 426.71 831.66 426.57 825.17 C 407.93 836.57 388.74 847.08 369.93 858.21 C 367.76 859.37 365.21 861.38 362.68 860.00 C 360.70 859.31 360.19 857.11 359.43 855.43 C 355.87 845.24 352.32 835.06 348.78 824.87 C 349.34 822.93 350.24 821.02 352.12 820.06 C 376.92 805.52 401.92 791.30 426.60 776.58 C 426.88 745.42 426.85 714.22 426.61 683.05 C 421.35 688.11 415.29 692.28 410.02 697.31 C 408.02 698.30 406.50 700.00 404.77 701.38 C 399.94 705.76 394.64 709.59 389.78 713.94 C 387.49 716.04 383.71 715.33 382.39 712.56 C 376.37 697.18 371.10 681.50 364.99 666.17 C 359.46 677.00 352.61 687.14 346.98 697.94 C 346.11 699.26 347.22 700.76 347.52 702.11 C 357.21 728.42 367.11 754.63 376.67 780.98 C 377.74 782.98 377.06 785.12 376.11 787.03 C 365.69 793.02 355.36 799.18 344.76 804.84 C 343.37 804.42 342.02 803.91 340.69 803.36 C 333.03 784.39 326.74 764.86 318.90 745.97 C 314.20 754.82 308.75 763.26 304.02 772.09 C 301.99 772.87 299.62 774.09 297.59 772.62 C 287.56 766.94 277.40 761.46 267.72 755.20 C 267.51 753.48 266.86 751.61 267.94 750.06 C 272.06 742.62 276.32 735.27 280.65 727.96 C 281.58 726.93 281.43 725.57 281.45 724.32 C 281.11 724.53 280.42 724.97 280.07 725.18 C 262.09 728.36 244.08 731.33 226.10 734.48 C 223.95 734.87 221.42 735.02 219.69 733.45 C 217.84 730.65 218.14 727.17 218.13 723.99 C 218.24 714.72 218.00 705.44 218.23 696.17 C 219.41 694.10 221.40 692.72 223.78 692.43 C 252.62 687.51 281.48 682.59 310.31 677.53 C 310.47 676.42 310.87 675.41 311.51 674.51 C 316.76 665.75 321.60 656.75 326.99 648.08 C 327.47 647.23 327.81 646.34 327.99 645.38 C 311.98 648.19 295.96 650.96 279.93 653.58 C 276.84 654.07 274.48 650.78 274.95 647.97 C 277.03 635.26 279.53 622.62 281.42 609.88 C 282.09 606.65 282.88 603.40 282.71 600.08 C 282.39 600.40 281.75 601.04 281.43 601.36 C 262.76 612.10 244.11 622.87 225.46 633.64 C 217.83 638.29 209.79 642.30 202.32 647.19 C 201.11 676.51 202.40 705.93 201.36 735.28 C 200.62 736.86 199.74 738.61 197.83 738.99 C 193.43 740.22 188.83 740.52 184.39 741.56 L 184.42 742.83 C 184.40 742.52 184.37 741.90 184.35 741.60 C 177.91 742.73 171.50 744.09 165.04 745.08 C 163.40 745.44 161.91 744.31 160.61 743.49 C 159.29 741.19 159.51 738.48 159.50 735.95 C 159.65 714.50 159.32 693.04 159.66 671.60 C 154.15 674.37 149.13 678.06 143.47 680.52 C 143.08 681.65 142.87 682.82 142.83 684.03 C 142.94 703.03 142.83 722.04 142.89 741.05 C 142.85 743.17 142.87 745.35 142.24 747.41 C 140.72 749.54 137.77 749.69 135.46 750.36 C 124.92 752.03 114.45 754.09 103.90 755.69 C 102.58 754.67 101.44 753.46 100.55 752.06 C 100.60 736.48 100.65 720.90 100.53 705.32 C 96.98 707.99 92.96 709.92 89.10 712.07 C 83.55 715.26 78.08 718.60 72.47 721.70 C 67.80 724.33 63.22 727.13 58.52 729.71 C 56.12 731.34 52.89 729.73 51.49 727.53 C 46.10 717.98 40.53 708.53 35.03 699.05 C 33.41 696.38 35.68 693.36 38.13 692.24 C 51.86 684.81 65.06 676.44 78.83 669.10 C 78.52 668.43 78.06 667.93 77.45 667.58 C 68.90 662.78 60.43 657.83 51.89 653.01 C 47.61 650.58 43.49 647.79 38.91 645.96 C 37.50 643.75 37.22 641.06 38.70 638.81 C 45.77 630.84 52.34 622.44 59.40 614.47 C 60.64 612.73 62.63 612.06 64.65 611.73 C 83.98 622.14 102.62 633.80 121.90 644.29 C 127.09 641.13 132.31 638.01 137.71 635.25 C 137.65 634.92 137.51 634.27 137.44 633.94 C 126.71 628.64 116.62 622.07 106.07 616.40 C 96.70 611.00 87.30 605.68 77.94 600.26 C 75.60 598.33 75.99 594.79 77.46 592.39 C 82.16 587.79 86.09 582.47 90.48 577.58 C 93.93 573.96 96.65 569.67 100.61 566.55 C 102.25 566.69 103.99 566.64 105.41 567.60 C 109.88 570.15 114.38 572.68 118.83 575.28 C 124.28 578.12 129.42 581.55 134.99 584.17 C 134.21 584.55 133.43 584.93 132.65 585.31 C 133.91 585.93 134.81 585.72 135.35 584.66 C 150.54 593.24 165.59 602.09 180.90 610.43 C 192.01 603.55 203.62 597.51 214.80 590.75 C 230.60 581.91 246.08 572.50 261.98 563.85 C 246.35 557.66 230.44 552.19 214.70 546.26 C 213.36 544.30 212.53 541.49 214.31 539.50 C 224.41 527.00 235.10 514.92 245.12 502.34 C 232.73 501.81 220.32 502.26 207.92 502.12 C 200.73 511.09 193.21 519.80 185.83 528.62 C 174.67 542.22 163.30 555.65 152.00 569.13 C 150.46 571.41 147.28 572.62 144.83 571.03 C 135.44 565.86 126.24 560.37 116.95 555.05 C 113.68 553.75 113.53 549.15 115.95 546.97 C 128.22 532.03 140.94 517.45 152.99 502.33 C 144.35 501.81 135.69 502.31 127.05 502.06 C 124.81 502.01 122.61 501.56 120.51 500.83 C 119.79 498.61 119.03 496.37 119.18 494.01 C 119.25 484.17 119.07 474.34 119.31 464.51 C 119.88 462.16 121.22 460.01 123.89 459.89 C 131.90 459.60 139.93 459.86 147.96 459.78 C 149.91 459.70 151.99 460.65 153.81 459.62 L 152.58 459.78 C 152.08 457.72 150.37 456.39 149.11 454.82 C 138.01 441.59 126.98 428.30 115.97 415.00 C 113.87 412.87 113.59 408.97 116.45 407.36 C 125.91 401.81 135.38 396.25 144.99 390.97 C 147.18 389.57 150.22 390.17 151.61 392.39 C 170.20 414.79 188.98 437.05 207.56 459.45 C 207.91 459.54 208.62 459.72 208.97 459.82 C 221.01 459.71 233.05 459.89 245.09 459.67 C 234.91 446.97 224.16 434.70 213.93 422.03 C 212.15 419.63 213.83 416.30 216.32 415.21 C 231.40 409.39 246.77 404.28 261.79 398.30 C 254.14 393.89 246.54 389.38 238.78 385.17 C 219.65 373.75 199.97 363.23 180.95 351.62 C 155.37 365.75 130.19 380.61 104.66 394.84 C 102.42 396.42 99.74 395.21 98.18 393.33 C 90.77 385.26 83.97 376.65 76.69 368.46 C 74.97 366.42 75.66 363.41 77.67 361.88 C 92.26 353.78 106.63 345.26 121.20 337.11 C 126.69 333.78 132.41 330.84 137.84 327.44 C 137.77 327.29 137.61 327.01 137.53 326.86 C 132.04 323.91 126.81 320.48 121.23 317.72 C 111.70 323.88 101.55 329.04 91.86 334.96 C 82.49 340.07 73.48 345.86 63.91 350.61 C 59.87 349.62 57.90 345.68 55.26 342.87 C 49.99 336.06 43.84 329.96 38.78 323.02 C 36.71 320.67 38.00 317.91 39.70 315.79 C 47.64 311.92 55.09 307.10 62.80 302.78 C 68.27 299.82 73.57 296.56 79.03 293.60 C 78.15 292.83 77.23 292.09 76.19 291.55 C 63.39 284.45 50.92 276.78 38.07 269.79 C 35.78 268.59 33.45 265.65 35.04 263.06 C 40.97 252.88 46.63 242.54 52.77 232.49 C 53.80 232.22 54.84 231.97 55.88 231.73 C 55.85 231.40 55.78 230.76 55.75 230.44 C 56.54 232.05 58.57 232.16 59.95 233.08 C 72.76 240.54 85.64 247.89 98.45 255.35 C 98.98 255.53 100.05 255.90 100.59 256.09 C 100.58 243.40 100.61 230.70 100.58 218.01 C 100.64 214.74 100.08 211.27 101.61 208.22 C 102.62 207.58 103.71 207.09 104.77 206.55 C 114.87 207.95 124.87 209.96 134.94 211.58 C 137.46 211.91 139.86 212.79 142.17 213.85 C 142.60 215.87 142.94 217.93 142.84 220.01 C 142.78 240.17 143.10 260.35 142.69 280.51 C 148.13 284.01 153.74 287.41 159.61 290.13 C 159.38 268.08 159.63 246.02 159.50 223.96 C 159.34 221.81 159.99 219.77 160.78 217.80 C 162.49 217.44 164.21 216.58 165.99 217.02 C 176.37 219.01 186.79 220.79 197.17 222.81 C 198.15 223.27 199.14 223.70 200.15 224.11 C 200.60 225.38 201.43 226.57 201.35 227.98 C 201.63 238.31 201.06 248.67 201.77 258.99 C 201.74 277.61 201.88 296.22 201.68 314.84 C 219.22 324.60 236.49 334.83 253.93 344.77 C 263.45 350.47 273.31 355.64 282.65 361.64 C 282.66 360.04 282.62 358.43 282.32 356.87 C 280.12 344.38 278.03 331.87 275.78 319.39 C 275.34 316.12 274.28 312.41 276.62 309.60 C 278.29 308.91 280.05 308.13 281.90 308.60 C 297.22 311.58 312.70 313.61 327.97 316.77 C 326.96 312.70 323.94 309.54 322.09 305.84 C 318.27 298.68 313.56 291.97 310.18 284.60 C 303.56 282.85 296.70 282.30 289.99 280.96 C 267.29 277.09 244.62 273.08 221.89 269.36 C 220.83 268.63 219.76 267.91 218.69 267.20 C 217.48 259.52 218.36 251.70 218.10 243.96 C 218.20 238.90 217.72 233.78 218.68 228.77 C 220.44 227.80 222.37 226.77 224.45 227.30 C 242.99 230.32 261.47 233.76 280.03 236.70 C 281.28 236.78 282.02 237.88 282.89 238.64 C 278.31 229.50 272.88 220.81 267.81 211.94 C 266.91 210.56 267.41 208.88 267.45 207.37 C 270.71 204.18 275.02 202.42 278.87 200.07 C 284.11 196.88 289.58 194.08 294.77 190.83 C 296.19 190.11 297.63 189.42 298.97 188.57 C 300.75 188.49 302.40 189.14 303.98 189.89 C 308.88 198.71 313.98 207.45 319.19 216.11 C 325.78 197.86 332.57 179.68 339.32 161.49 C 339.98 159.06 342.47 156.99 345.09 157.60 C 348.65 158.97 351.87 161.06 355.17 162.96 C 361.57 166.79 368.14 170.36 374.55 174.19 C 376.51 175.27 377.83 177.76 377.05 179.97 C 366.77 207.73 356.50 235.50 346.27 263.27 C 352.64 273.59 358.39 284.30 364.60 294.72 C 364.79 294.73 365.17 294.75 365.36 294.75 C 371.29 279.79 376.37 264.48 382.33 249.52 C 382.89 247.50 385.27 247.39 386.92 246.77 C 388.69 247.72 390.50 248.64 391.99 250.01 C 403.53 259.68 415.21 269.17 426.66 278.94 C 426.91 249.29 426.68 219.63 426.77 189.98 C 426.66 188.44 427.05 186.81 426.50 185.35 C 401.74 170.79 376.80 156.46 351.95 142.02 C 350.02 140.97 348.56 139.03 348.54 136.78 C 352.98 126.14 356.02 114.94 360.32 104.24 C 361.42 101.47 365.33 100.60 367.61 102.47 C 381.22 110.44 394.93 118.25 408.53 126.25 C 413.37 129.14 418.37 131.77 423.17 134.75 C 424.25 135.48 425.52 135.80 426.77 136.13 C 426.72 129.99 426.78 123.85 426.74 117.71 C 408.04 106.80 389.26 95.99 370.40 85.35 C 369.37 83.45 368.59 81.09 369.55 79.00 C 373.22 69.19 376.70 59.31 380.38 49.50 C 381.11 46.97 384.06 44.48 386.67 46.08 C 393.76 49.21 400.13 53.70 406.91 57.43 C 413.61 61.03 419.99 65.16 426.66 68.82 C 426.93 52.89 426.62 36.96 426.83 21.03 M 432.64 21.76 C 433.00 35.16 432.70 48.58 432.80 61.99 C 432.71 67.28 433.04 72.59 432.51 77.87 C 431.24 77.72 429.89 77.82 428.77 77.10 C 414.35 68.89 400.12 60.34 385.65 52.21 C 382.46 61.86 378.81 71.39 375.27 80.93 C 378.29 82.79 381.43 84.44 384.47 86.29 C 400.46 95.46 416.39 104.77 432.47 113.76 C 433.12 118.81 432.67 123.93 432.80 129.01 C 432.66 134.59 433.14 140.20 432.43 145.76 C 431.26 145.63 430.10 145.50 428.95 145.35 C 408.22 132.47 386.47 121.14 365.82 108.14 C 364.53 109.24 364.29 110.94 363.74 112.45 C 360.94 120.60 357.99 128.70 355.20 136.85 C 380.97 151.85 406.78 166.76 432.54 181.76 C 433.13 195.82 432.63 209.92 432.80 224.00 C 432.64 245.94 433.13 267.89 432.55 289.81 C 428.92 290.14 427.02 286.67 424.43 284.81 C 411.77 274.75 399.65 263.98 386.91 254.07 C 381.01 270.50 374.86 286.83 368.76 303.19 C 371.63 305.59 367.01 306.20 365.82 307.72 C 364.84 306.87 363.85 306.00 363.30 304.81 C 355.74 291.08 347.45 277.72 340.00 263.95 C 341.12 257.72 344.27 252.09 346.17 246.09 C 352.99 227.28 360.10 208.58 366.90 189.77 C 368.30 186.10 369.79 182.44 370.76 178.62 C 361.73 174.40 353.54 168.50 344.55 164.20 C 337.20 185.49 329.05 206.50 321.25 227.63 C 320.42 227.60 319.60 227.57 318.78 227.55 C 312.31 216.98 306.25 206.14 300.14 195.36 C 299.42 195.44 298.75 195.63 298.12 195.94 C 290.11 200.53 282.15 205.21 274.11 209.74 C 274.36 210.72 274.67 211.70 275.22 212.56 C 280.63 221.82 285.85 231.19 291.40 240.37 C 292.16 241.58 292.55 242.92 292.55 244.39 C 289.29 245.05 286.07 243.99 282.87 243.45 C 263.21 240.28 243.63 236.53 223.95 233.45 C 224.31 243.49 223.92 253.54 224.17 263.58 C 253.94 268.46 283.67 273.69 313.40 278.86 C 321.61 292.20 329.17 306.06 337.21 319.55 C 338.06 320.97 339.59 323.59 337.22 324.41 C 318.66 320.96 299.91 318.42 281.45 314.49 C 283.32 329.06 286.49 343.43 288.69 357.95 C 289.25 362.44 290.72 366.84 290.45 371.41 C 286.74 371.95 284.05 368.84 280.93 367.41 C 277.10 365.60 273.83 362.69 269.84 361.27 C 263.90 357.35 257.61 353.92 251.39 350.46 C 242.01 344.84 232.48 339.46 222.96 334.10 C 220.52 332.54 217.98 331.16 215.50 329.68 C 208.90 325.83 202.21 322.13 195.67 318.16 C 195.76 298.78 195.66 279.40 195.71 260.01 C 195.13 249.57 195.46 239.11 195.41 228.65 C 185.39 227.10 175.49 224.86 165.49 223.24 C 165.55 248.61 165.76 274.00 165.36 299.37 C 163.76 299.49 162.21 299.24 160.91 298.27 C 153.08 293.76 145.19 289.35 137.49 284.63 C 137.34 284.27 137.02 283.55 136.86 283.19 C 136.82 261.90 136.62 240.60 136.96 219.33 C 139.88 218.29 139.26 222.07 139.69 223.81 C 139.65 222.09 140.26 219.95 138.70 218.70 C 138.65 217.31 138.65 215.93 138.62 214.56 C 136.84 214.46 135.05 214.22 133.27 214.40 C 134.67 214.79 136.38 214.51 137.53 215.56 C 138.79 216.47 137.77 218.01 137.37 219.10 C 135.61 217.47 133.13 217.66 130.96 217.17 C 122.85 215.71 114.74 214.24 106.60 212.96 C 106.59 230.51 106.77 248.07 106.52 265.62 C 105.26 265.50 103.92 265.66 102.83 264.90 C 87.40 255.89 71.88 247.04 56.41 238.11 C 51.40 246.98 46.14 255.72 41.27 264.65 C 57.18 273.35 72.73 282.74 88.56 291.61 C 89.72 292.00 89.47 293.35 89.70 294.29 C 74.82 303.06 59.78 311.58 44.73 320.07 C 46.33 323.35 49.02 325.87 51.41 328.57 C 55.61 333.55 59.62 338.72 64.03 343.54 C 69.95 340.82 75.41 337.15 81.17 334.10 C 94.19 326.30 107.55 319.05 120.55 311.21 C 121.69 311.37 122.94 311.26 123.93 311.97 C 131.10 316.23 138.33 320.40 145.63 324.45 C 147.15 325.19 148.35 326.36 149.33 327.71 C 142.27 332.36 134.69 336.15 127.46 340.53 C 112.37 348.85 97.66 357.87 82.51 366.08 C 89.18 373.43 95.66 381.00 101.94 388.68 C 103.00 388.64 104.02 388.40 104.89 387.76 C 129.44 373.77 154.04 359.84 178.54 345.74 C 179.73 344.85 181.29 344.96 182.52 345.73 C 199.39 355.51 216.36 365.14 233.26 374.88 C 246.55 382.68 260.06 390.10 273.28 397.99 C 273.40 398.56 273.63 399.71 273.75 400.28 C 266.00 403.62 257.96 406.29 250.04 409.19 C 240.43 412.80 230.80 416.36 221.10 419.71 C 221.15 420.75 221.58 421.70 222.16 422.57 C 231.07 433.09 239.89 443.69 248.66 454.33 C 248.81 454.39 249.09 454.51 249.24 454.57 C 251.16 458.58 256.33 461.00 256.28 465.82 C 239.07 465.72 221.85 466.02 204.64 465.65 C 185.63 442.46 166.18 419.63 147.08 396.51 C 138.65 401.79 129.82 406.43 121.30 411.57 C 121.37 412.82 122.78 413.47 123.43 414.45 C 137.11 430.91 150.88 447.31 164.51 463.81 C 164.95 466.06 162.42 465.72 161.10 465.80 C 149.64 465.81 138.18 465.88 126.72 465.75 C 126.43 465.90 125.85 466.21 125.56 466.37 C 125.40 476.21 125.65 486.06 125.44 495.91 C 137.94 496.38 150.47 495.89 162.97 496.16 C 165.17 496.01 164.50 498.57 163.52 499.61 C 157.41 506.88 151.21 514.07 145.25 521.46 C 137.31 531.15 129.23 540.72 121.08 550.23 C 129.56 555.69 138.66 560.15 147.09 565.65 C 166.31 542.46 185.55 519.27 205.06 496.34 C 220.34 495.73 235.70 496.30 251.01 496.06 C 252.88 496.00 254.75 496.11 256.59 496.41 C 256.44 497.78 255.95 499.01 255.13 500.09 C 243.72 514.28 231.49 527.81 220.29 542.16 C 237.20 547.67 253.69 554.47 270.51 560.26 C 271.60 560.93 274.01 561.14 273.48 562.97 C 273.69 564.55 271.79 564.84 270.86 565.63 C 240.89 582.90 210.76 599.91 180.95 617.43 C 166.24 609.55 151.90 600.96 137.34 592.80 C 125.85 586.34 114.48 579.64 102.94 573.27 C 101.15 573.68 100.35 575.84 99.03 577.04 C 93.96 583.65 87.64 589.31 83.02 596.24 C 104.96 608.70 126.88 621.22 148.76 633.78 C 148.63 635.45 147.59 636.65 146.10 637.33 C 138.54 641.62 131.01 645.96 123.50 650.33 C 121.00 651.56 118.65 649.59 116.55 648.46 C 99.49 638.41 82.15 628.82 65.14 618.68 C 64.81 618.65 64.15 618.57 63.82 618.53 C 57.43 626.14 51.23 633.97 44.46 641.22 C 46.06 642.77 48.08 643.75 50.00 644.86 C 63.19 652.50 76.48 660.00 89.69 667.62 C 89.48 668.58 89.70 669.89 88.55 670.34 C 72.76 679.51 56.85 688.50 41.11 697.75 C 46.48 706.30 51.42 715.12 56.46 723.86 C 71.87 715.18 87.11 706.18 102.49 697.44 C 103.68 696.71 104.97 696.35 106.37 696.34 C 106.92 713.88 106.57 731.45 106.55 749.01 C 116.68 747.46 126.74 745.55 136.84 743.85 C 136.73 722.90 136.85 701.96 136.80 681.01 C 136.81 679.67 136.53 677.81 137.98 677.10 C 146.26 672.22 154.51 667.29 162.94 662.70 C 163.55 662.66 164.75 662.57 165.35 662.52 C 165.76 687.91 165.61 713.33 165.43 738.73 C 175.46 737.26 185.36 734.98 195.36 733.33 C 195.24 729.56 195.67 725.83 195.73 722.07 C 195.67 696.01 195.71 669.95 195.72 643.89 C 226.07 626.05 256.71 608.70 287.15 591.02 C 288.21 590.35 289.50 590.53 290.69 590.40 C 289.28 604.03 286.15 617.45 284.12 631.00 C 283.42 636.51 281.73 641.88 281.46 647.44 C 297.90 644.02 314.56 641.72 331.07 638.64 C 333.56 638.06 336.12 638.03 338.64 638.46 C 338.09 641.83 335.85 644.53 334.29 647.48 C 327.21 659.42 320.48 671.58 313.27 683.44 C 283.59 688.35 253.92 693.39 224.30 698.69 C 224.48 708.64 224.43 718.60 224.36 728.56 C 233.53 726.89 242.76 725.54 251.92 723.81 C 262.32 722.10 272.69 720.18 283.10 718.53 C 286.21 718.00 289.31 717.08 292.51 717.43 C 292.41 720.90 290.00 723.59 288.45 726.52 C 283.58 735.01 278.52 743.40 273.84 752.00 C 278.92 754.92 283.90 758.01 289.08 760.75 C 292.78 762.68 296.11 765.43 300.11 766.71 C 305.72 755.89 312.75 745.78 318.00 734.79 C 319.04 734.55 320.09 734.35 321.15 734.18 C 325.26 744.17 328.64 754.44 332.58 764.50 C 336.37 775.65 341.11 786.46 344.63 797.70 C 353.68 793.66 361.77 787.71 370.71 783.40 C 370.19 780.05 368.72 776.98 367.60 773.83 C 365.22 767.66 363.18 761.38 360.73 755.24 C 360.40 753.85 359.53 753.22 358.15 753.36 C 358.49 753.13 359.16 752.67 359.50 752.45 C 357.98 747.21 355.83 742.19 354.02 737.05 C 349.10 724.39 344.94 711.42 339.67 698.91 C 341.48 694.27 344.39 690.19 346.83 685.88 C 352.55 675.95 358.23 666.00 364.04 656.13 C 364.64 654.26 367.48 653.81 367.89 656.03 C 374.07 673.27 380.70 690.34 386.83 707.60 C 388.47 707.44 389.48 706.00 390.71 705.10 C 401.40 696.38 411.85 687.38 422.58 678.71 C 425.89 676.50 428.24 672.81 432.30 671.87 C 433.28 676.86 432.62 681.97 432.80 687.02 C 432.66 718.11 433.08 749.22 432.59 780.30 C 411.49 792.58 390.36 804.83 369.27 817.13 C 364.62 819.59 360.26 822.57 355.53 824.89 C 358.03 834.53 362.17 843.72 365.03 853.29 C 368.50 852.35 371.41 850.15 374.55 848.50 C 391.69 838.50 408.94 828.69 426.03 818.61 C 428.08 817.43 430.15 816.09 432.58 815.93 C 433.07 826.53 432.63 837.15 432.83 847.77 C 414.26 858.98 395.20 869.45 376.45 880.39 C 375.04 881.56 376.22 883.18 376.63 884.55 C 379.66 892.94 382.90 901.26 385.73 909.73 C 401.40 901.28 416.30 891.37 432.27 883.49 C 433.13 887.61 432.72 891.84 432.80 896.02 C 432.68 910.83 433.04 925.66 432.61 940.46 C 442.92 940.59 453.24 940.58 463.55 940.48 C 463.23 932.00 463.49 923.51 463.41 915.03 C 463.66 904.54 462.89 893.99 463.83 883.54 C 466.23 884.23 468.46 885.33 470.54 886.71 C 483.76 894.46 497.20 901.86 510.29 909.82 C 513.75 900.09 517.73 890.53 520.72 880.65 C 513.53 877.18 506.88 872.73 499.87 868.95 C 487.81 861.74 475.42 855.10 463.41 847.81 C 463.63 837.12 463.00 826.41 463.73 815.74 C 469.35 817.39 474.07 821.04 479.15 823.85 C 487.91 828.73 496.46 833.99 505.23 838.88 C 513.58 843.90 522.22 848.48 530.44 853.71 C 532.33 851.38 532.67 848.23 533.85 845.54 C 536.05 838.57 539.12 831.88 540.82 824.76 C 534.65 821.94 529.03 818.06 523.09 814.81 C 505.92 804.64 488.46 794.96 471.41 784.60 C 468.69 783.36 466.16 781.76 463.62 780.22 C 463.14 760.81 463.54 741.38 463.41 721.96 C 463.56 705.38 463.10 688.77 463.64 672.20 C 466.80 671.83 468.55 674.70 470.82 676.31 C 483.72 686.69 496.15 697.68 509.23 707.83 C 512.08 699.83 515.14 691.91 518.07 683.95 C 518.66 682.44 519.05 680.81 518.56 679.23 C 519.18 678.43 520.19 677.93 520.57 676.95 C 523.58 669.68 525.84 662.11 528.85 654.85 C 529.39 654.79 530.47 654.68 531.01 654.62 C 536.15 662.77 540.73 671.26 545.69 679.51 C 548.71 684.73 551.70 689.96 554.76 695.16 C 555.30 696.34 556.31 697.46 556.31 698.84 C 550.13 715.72 543.93 732.61 537.61 749.45 C 537.11 750.47 537.11 751.58 537.38 752.69 L 536.51 752.00 C 533.28 762.57 528.51 772.65 525.54 783.28 C 534.33 787.90 542.76 793.18 551.49 797.91 C 553.35 792.17 555.58 786.56 557.68 780.91 C 558.12 779.13 559.55 777.13 558.47 775.37 C 558.86 775.10 559.63 774.56 560.01 774.29 C 565.03 761.03 569.95 747.72 574.78 734.37 C 575.70 734.36 576.62 734.41 577.55 734.53 C 581.87 741.53 585.69 748.82 589.97 755.84 C 591.74 759.54 594.48 762.73 595.81 766.65 C 598.64 766.36 600.77 764.27 603.21 763.03 C 609.67 759.44 615.95 755.54 622.47 752.06 C 616.76 742.38 611.33 732.54 605.56 722.89 C 604.49 721.26 603.93 719.40 603.55 717.52 C 609.79 717.17 615.86 719.19 622.01 719.97 C 638.65 722.83 655.32 725.57 671.93 728.60 C 672.43 718.56 672.28 708.46 671.99 698.41 C 642.95 693.67 613.97 688.51 584.95 683.62 C 583.45 683.62 582.26 682.62 581.59 681.36 C 573.47 667.50 565.51 653.55 557.37 639.70 C 558.11 638.97 558.85 638.27 559.61 637.58 C 578.00 640.88 596.42 643.97 614.82 647.22 C 612.07 628.33 607.97 609.59 605.49 590.67 C 606.07 590.59 607.25 590.44 607.83 590.36 C 637.92 607.51 667.86 624.94 697.90 642.18 C 698.87 642.88 700.42 643.47 700.46 644.89 C 700.84 674.40 699.83 703.97 701.07 733.46 C 710.98 734.88 720.75 737.21 730.64 738.77 C 730.79 713.39 730.49 688.00 730.79 662.63 C 731.37 662.63 732.54 662.62 733.12 662.62 C 741.62 667.09 749.75 672.25 758.20 676.84 C 759.99 677.52 759.25 679.55 759.38 681.02 C 759.31 701.94 759.47 722.87 759.31 743.80 C 769.41 745.40 779.43 747.53 789.56 748.94 C 789.68 731.44 789.37 713.93 789.71 696.44 C 791.32 696.33 792.86 696.74 794.21 697.66 C 809.35 706.40 824.53 715.08 839.64 723.87 C 844.80 715.14 849.92 706.37 854.88 697.52 C 838.97 688.21 822.97 679.05 806.94 669.95 C 806.84 669.41 806.63 668.33 806.53 667.78 C 810.63 664.57 815.56 662.64 819.96 659.85 C 830.51 653.43 841.60 647.88 851.92 641.10 C 849.11 639.18 847.36 636.17 845.11 633.70 C 840.93 628.47 836.32 623.60 832.33 618.22 C 813.42 628.54 794.97 639.70 776.18 650.26 C 774.93 650.94 773.32 650.64 772.16 649.94 C 764.79 645.50 757.21 641.42 749.80 637.07 C 748.44 636.47 747.71 635.24 747.46 633.84 C 754.00 629.77 760.73 626.03 767.44 622.26 C 778.45 615.67 789.77 609.61 800.79 603.04 C 804.77 600.66 809.10 598.85 812.81 596.05 L 812.81 595.15 C 806.43 587.98 800.40 580.46 793.93 573.35 C 792.61 572.92 791.59 574.21 790.48 574.66 C 775.26 583.37 760.01 592.02 744.77 600.68 C 736.33 605.63 727.73 610.31 719.33 615.33 C 717.52 616.54 715.08 617.37 713.15 615.97 C 682.94 598.51 652.54 581.38 622.48 563.71 C 622.42 563.20 622.32 562.19 622.27 561.68 C 639.91 555.02 657.59 548.28 675.45 542.27 C 675.43 541.92 675.39 541.22 675.36 540.86 C 664.59 528.51 654.36 515.68 643.65 503.27 C 642.09 501.11 639.33 499.24 639.94 496.21 C 656.99 496.00 674.06 496.04 691.11 496.18 C 709.94 518.23 728.33 540.68 746.94 562.92 C 747.82 563.57 748.51 565.27 749.82 564.86 C 758.08 560.15 766.32 555.40 774.56 550.67 C 774.78 549.50 773.63 548.76 773.10 547.91 C 759.37 531.62 745.84 515.18 732.19 498.84 C 730.83 497.80 732.39 495.60 733.89 496.13 C 746.15 495.96 758.43 496.27 770.70 495.97 C 770.58 485.86 770.80 475.74 770.57 465.64 C 757.63 465.88 744.66 466.06 731.73 465.52 C 731.73 465.05 731.72 464.10 731.72 463.62 C 745.97 446.48 760.17 429.28 774.57 412.26 C 775.12 411.14 773.53 410.84 772.95 410.31 C 764.93 405.72 756.92 401.10 748.92 396.48 C 741.29 406.20 733.01 415.40 725.26 425.02 C 725.69 425.16 726.54 425.42 726.97 425.56 C 726.48 425.49 725.52 425.36 725.03 425.29 C 713.78 438.66 702.60 452.09 691.45 465.54 C 674.27 466.13 657.05 465.72 639.86 465.75 C 639.96 464.39 639.85 462.91 641.01 461.95 C 651.85 448.73 663.10 435.82 673.73 422.42 C 674.19 422.11 675.12 421.50 675.59 421.20 C 675.51 420.85 675.36 420.17 675.29 419.83 C 665.50 416.19 655.67 412.65 645.85 409.10 C 638.06 405.89 629.88 403.62 622.24 400.06 C 622.22 398.74 622.89 397.61 624.13 397.13 C 636.95 389.60 649.98 382.45 662.74 374.83 C 668.16 372.01 673.33 368.73 678.69 365.78 C 690.24 358.96 701.99 352.47 713.59 345.74 C 714.76 345.08 716.21 344.71 717.43 345.55 C 741.39 359.32 765.51 372.83 789.44 386.67 C 790.88 387.36 792.20 388.73 793.93 388.60 C 800.40 381.08 807.07 373.70 813.31 365.99 C 794.00 354.70 774.48 343.76 755.09 332.62 C 752.32 330.92 749.09 329.76 747.14 327.03 C 752.28 322.53 758.94 320.21 764.55 316.33 C 768.07 314.63 771.14 311.65 775.10 311.11 C 784.74 316.21 793.99 322.02 803.54 327.29 C 813.24 332.58 822.52 338.67 832.36 343.66 C 834.38 340.63 836.84 337.94 839.25 335.22 C 843.49 330.39 847.32 325.19 851.79 320.56 C 836.86 311.44 821.38 303.20 806.40 294.17 C 806.37 290.95 810.07 290.43 812.21 288.96 C 824.43 282.00 836.59 274.93 848.77 267.91 C 850.50 266.92 852.27 265.99 853.98 264.95 C 855.45 264.37 854.15 263.01 853.76 262.18 C 849.05 254.21 844.22 246.30 839.83 238.14 C 824.08 246.82 808.59 256.01 792.98 264.96 C 791.93 265.67 790.64 265.41 789.48 265.41 C 789.68 247.97 789.52 230.52 789.57 213.08 C 779.45 214.03 769.61 216.94 759.50 217.83 C 758.78 220.48 759.11 223.24 759.10 225.95 C 759.11 243.98 759.06 262.01 759.07 280.05 C 758.99 281.57 758.95 283.12 758.58 284.61 C 750.49 289.59 742.11 294.11 733.94 298.95 C 732.95 299.56 731.72 299.31 730.64 299.47 C 729.99 293.64 730.49 287.78 730.66 281.94 C 730.68 262.33 730.67 242.71 730.67 223.10 C 720.60 224.81 710.62 227.11 700.51 228.56 C 700.46 256.74 700.55 284.91 700.47 313.09 C 700.16 315.26 700.87 318.31 698.45 319.44 C 692.41 322.76 686.45 326.23 680.50 329.69 C 658.97 342.16 637.37 354.48 615.87 367.00 C 612.42 368.51 609.48 371.52 605.54 371.61 C 605.48 370.37 605.53 369.14 605.67 367.92 C 608.66 350.12 611.90 332.36 614.78 314.55 C 596.07 318.31 577.12 320.96 558.36 324.53 C 558.19 323.04 558.19 321.54 558.41 320.05 C 566.99 306.58 574.47 292.35 582.81 278.69 C 612.45 273.70 642.03 268.40 671.70 263.56 C 671.97 253.54 671.57 243.51 671.92 233.50 C 650.24 236.94 628.66 240.95 607.00 244.50 C 605.57 244.96 604.25 244.41 603.36 243.27 C 607.80 235.13 612.55 227.16 617.14 219.11 C 618.84 216.04 620.96 213.19 622.17 209.87 C 614.30 205.26 606.38 200.77 598.46 196.27 C 597.72 195.88 596.46 194.58 595.88 195.92 C 590.11 205.81 584.43 215.77 578.66 225.66 C 577.97 227.01 576.87 228.02 575.57 228.77 C 574.99 227.63 574.42 226.49 573.92 225.32 C 566.39 204.92 558.77 184.56 551.36 164.12 C 542.60 168.78 534.20 174.09 525.41 178.70 C 526.46 183.07 528.36 187.18 529.82 191.43 C 538.26 214.31 546.68 237.19 555.15 260.06 C 555.55 261.38 556.32 262.65 556.22 264.08 C 549.02 277.23 541.01 289.94 533.80 303.09 C 532.78 304.79 531.82 306.65 530.03 307.68 C 528.26 307.02 528.02 305.06 527.35 303.56 C 521.43 287.01 515.14 270.60 509.20 254.06 C 506.95 255.51 504.86 257.19 502.90 259.01 C 490.65 269.19 478.31 279.25 466.18 289.57 C 463.06 290.49 463.45 286.98 463.39 284.99 C 463.58 250.61 463.11 216.21 463.62 181.84 C 476.48 173.88 489.79 166.66 502.75 158.86 C 515.53 151.64 528.14 144.11 540.88 136.79 C 537.96 128.21 535.02 119.62 531.74 111.17 C 531.64 110.48 531.44 109.09 531.34 108.40 C 529.64 108.42 528.32 109.49 526.98 110.38 C 507.01 122.12 486.76 133.40 466.93 145.37 C 466.23 145.46 464.83 145.64 464.13 145.74 C 463.53 145.25 462.92 144.79 462.29 144.36 L 463.71 144.91 C 463.10 139.63 463.54 134.31 463.41 129.02 C 463.55 123.92 463.04 118.80 463.74 113.74 C 482.82 102.96 501.67 91.80 520.76 81.05 C 517.32 71.39 513.72 61.80 510.32 52.13 C 495.89 60.52 481.48 68.94 466.96 77.19 C 467.76 77.55 468.57 77.91 469.39 78.27 C 468.01 78.95 467.13 78.73 466.73 77.61 C 465.73 77.85 464.73 78.09 463.74 78.32 C 463.57 76.54 463.38 74.76 463.38 72.97 C 463.46 55.87 463.36 38.76 463.43 21.66 C 453.17 21.69 442.90 21.48 432.64 21.76 M 395.23 121.16 C 395.43 124.43 398.24 119.59 395.23 121.16 M 115.23 318.10 C 115.48 321.36 118.23 316.54 115.23 318.10 M 667.23 585.13 C 667.44 588.39 670.23 583.55 667.23 585.13 M 747.20 673.18 C 747.52 676.43 750.16 671.51 747.20 673.18 M 531.18 857.14 C 531.62 860.37 534.08 855.38 531.18 857.14 Z" />
<path fill="#171717" opacity="1.00" d=" M 492.81 305.63 C 493.50 305.31 494.89 304.67 495.59 304.35 C 501.37 316.92 505.32 330.28 510.47 343.13 C 496.07 368.22 481.43 393.18 467.00 418.26 C 466.54 419.96 464.91 420.00 463.45 420.06 C 462.74 391.01 463.49 361.96 463.44 332.90 C 463.49 331.88 463.57 330.87 463.67 329.87 C 471.66 323.87 479.06 317.14 486.80 310.84 C 488.85 309.17 490.85 307.42 492.81 305.63 M 491.09 315.13 C 484.05 321.37 476.55 327.07 469.50 333.30 C 469.48 333.90 469.44 335.10 469.42 335.70 L 468.45 336.34 C 467.95 348.53 468.45 360.77 468.18 372.99 C 468.46 379.24 467.68 385.53 468.25 391.76 L 469.40 392.33 C 469.44 395.42 469.31 398.52 469.63 401.61 C 469.73 401.60 469.95 401.58 470.06 401.57 C 475.31 390.34 482.63 380.15 488.17 369.05 C 488.56 369.82 488.95 370.61 489.35 371.40 C 489.85 370.19 489.65 369.25 488.75 368.58 C 493.72 360.10 498.27 351.36 503.75 343.20 C 500.78 333.30 496.54 323.85 493.29 314.05 C 492.47 314.25 491.73 314.61 491.09 315.13 Z" />
<path fill="#171717" opacity="1.00" d=" M 318.17 351.71 C 321.13 351.54 324.04 352.09 326.93 352.69 C 337.84 354.53 348.73 356.49 359.65 358.30 C 368.43 373.74 377.48 389.01 386.28 404.43 C 391.49 412.78 395.84 421.68 401.30 429.86 C 401.92 432.22 404.15 433.93 403.67 436.61 C 403.02 436.60 401.71 436.56 401.05 436.55 C 382.44 425.90 363.88 415.12 345.26 404.47 C 338.51 400.21 331.17 396.91 324.73 392.17 C 322.67 378.66 319.67 365.28 318.17 351.71 M 325.28 358.64 C 326.92 368.67 328.58 378.71 330.49 388.69 C 340.26 394.93 350.66 400.15 360.51 406.27 C 370.44 411.60 379.92 417.75 389.93 422.93 C 379.66 405.00 369.26 387.12 358.88 369.26 C 357.80 367.33 356.70 365.42 355.47 363.60 C 345.35 362.34 335.36 360.20 325.28 358.64 Z" />
<path fill="#171717" opacity="1.00" d=" M 558.87 354.33 C 565.17 353.66 571.32 351.64 577.69 351.72 C 577.64 354.47 577.44 357.23 576.89 359.93 C 574.92 370.26 573.63 380.72 571.41 391.01 C 571.18 392.70 569.44 393.53 568.17 394.38 C 557.93 400.39 547.64 406.32 537.30 412.14 C 523.63 420.28 509.70 427.97 495.99 436.04 C 494.95 436.82 493.62 436.45 492.43 436.50 C 492.52 434.64 493.20 432.92 494.27 431.42 C 508.24 407.03 522.50 382.80 536.46 358.41 C 543.87 356.73 551.42 355.82 558.87 354.33 M 540.62 363.63 C 528.97 383.30 517.64 403.16 506.24 422.98 C 516.01 417.48 525.76 411.92 535.44 406.25 C 545.45 400.34 555.85 394.95 565.53 388.58 C 567.65 378.73 569.10 368.61 570.79 358.63 C 560.69 360.07 550.73 362.31 540.62 363.63 M 547.28 401.13 C 547.51 404.40 550.28 399.56 547.28 401.13 Z" />
<path fill="#171717" opacity="1.00" d=" M 398.80 526.72 C 400.18 525.50 401.95 525.25 403.73 525.29 C 403.58 526.55 403.52 527.88 402.80 529.00 C 399.84 534.23 396.96 539.51 393.73 544.59 C 382.59 564.34 370.88 583.76 359.77 603.53 C 348.87 605.74 337.87 607.41 326.91 609.30 C 324.29 609.84 321.66 610.41 318.97 610.41 C 318.66 610.04 318.05 609.31 317.75 608.94 C 320.07 599.51 321.13 589.64 323.13 580.07 C 323.97 576.31 323.75 572.22 325.73 568.80 C 350.09 554.78 374.53 540.90 398.80 526.72 M 377.84 545.81 C 364.12 553.90 350.23 561.70 336.45 569.69 C 334.45 570.86 332.44 572.02 330.45 573.21 C 328.99 583.35 326.60 593.35 325.36 603.53 C 335.49 601.59 345.66 599.82 355.85 598.23 C 366.19 579.89 376.89 561.75 387.36 543.48 C 388.22 541.82 389.42 540.39 390.72 539.05 C 386.01 540.42 382.25 543.77 377.84 545.81 Z" />
<path fill="#171717" opacity="1.00" d=" M 492.36 525.43 C 493.78 525.45 495.42 525.06 496.52 526.25 C 515.47 537.03 534.29 548.05 553.24 558.83 C 559.09 562.70 565.70 565.44 571.26 569.71 C 573.93 582.71 575.49 596.06 578.44 609.03 C 578.11 609.38 577.44 610.09 577.11 610.44 C 564.24 608.83 551.51 606.04 538.67 604.06 C 537.79 603.73 536.92 603.41 536.05 603.10 C 522.04 578.19 507.49 553.57 493.25 528.79 C 492.62 527.76 492.51 526.57 492.36 525.43 M 506.14 539.30 C 518.02 558.80 528.87 578.94 540.80 598.40 C 549.97 599.39 558.97 601.60 568.10 602.84 C 568.95 603.14 569.81 603.42 570.69 603.67 C 570.05 597.57 569.18 591.42 567.58 585.51 C 567.27 585.25 566.64 584.75 566.33 584.50 L 566.89 584.06 L 567.47 583.45 C 567.10 579.91 566.23 576.45 565.63 572.95 C 563.29 571.75 561.03 570.43 558.76 569.13 C 542.56 559.67 526.26 550.38 510.01 541.01 C 508.79 540.27 507.50 539.68 506.14 539.30 Z" />
</g>
<g id="#404040ff">
<path fill="#404040" opacity="1.00" d=" M 395.23 121.16 C 398.24 119.59 395.43 124.43 395.23 121.16 Z" />
</g>
<g id="#616161ff">
<path fill="#616161" opacity="1.00" d=" M 467.41 203.01 C 467.44 199.50 467.02 195.94 467.77 192.48 C 467.33 211.97 467.73 231.48 467.57 250.97 C 467.30 257.91 468.20 264.94 467.12 271.82 C 467.65 267.24 467.37 262.62 467.40 258.02 C 467.39 239.68 467.41 221.34 467.41 203.01 Z" />
</g>
<g id="#0a0a0aff">
<path fill="#0a0a0a" opacity="1.00" d=" M 467.77 192.48 L 469.29 191.25 C 469.54 218.36 469.30 245.48 469.41 272.59 C 468.29 273.26 467.18 273.93 466.08 274.62 C 466.44 273.69 466.81 272.77 467.12 271.82 C 468.20 264.94 467.30 257.91 467.57 250.97 C 467.73 231.48 467.33 211.97 467.77 192.48 Z" />
</g>
<g id="#141414ff">
<path fill="#141414" opacity="1.00" d=" M 398.66 308.08 C 399.08 306.66 399.82 305.37 400.79 304.25 C 411.73 312.26 421.57 321.69 432.37 329.88 C 433.01 333.22 432.74 336.62 432.79 340.00 C 432.81 364.99 432.76 389.97 432.81 414.96 C 432.80 416.53 432.65 418.09 432.51 419.66 C 431.63 419.63 430.75 419.60 429.89 419.58 C 424.81 410.48 419.52 401.50 414.31 392.47 C 411.42 387.65 408.68 382.73 405.79 377.91 C 399.32 366.48 392.56 355.22 386.10 343.80 C 386.11 341.78 386.94 339.88 387.57 338.00 C 391.39 328.07 394.94 318.04 398.66 308.08 M 402.87 313.35 C 399.88 323.00 395.97 332.35 392.65 341.88 C 392.24 343.47 393.67 344.59 394.28 345.90 C 399.91 355.50 405.43 365.17 411.09 374.77 C 414.17 380.00 417.10 385.31 420.21 390.53 C 422.19 394.16 424.68 397.56 425.94 401.55 C 426.60 401.22 427.26 400.91 427.93 400.59 L 426.33 400.94 C 426.90 399.00 426.75 396.98 426.76 395.00 C 426.78 377.68 426.76 360.37 426.77 343.05 C 426.76 339.64 426.93 336.22 426.42 332.83 C 418.58 326.97 411.39 320.22 403.62 314.27 C 403.44 314.04 403.06 313.58 402.87 313.35 Z" />
</g>
<g id="#424242ff">
<path fill="#424242" opacity="1.00" d=" M 115.23 318.10 C 118.23 316.54 115.48 321.36 115.23 318.10 Z" />
<path fill="#424242" opacity="1.00" d=" M 667.23 585.13 C 670.23 583.55 667.44 588.39 667.23 585.13 Z" />
</g>
<g id="#090909ff">
<path fill="#090909" opacity="1.00" d=" M 468.45 336.34 L 469.42 335.70 C 469.36 354.57 469.40 373.45 469.40 392.33 L 468.25 391.76 C 467.68 385.53 468.46 379.24 468.18 372.99 C 468.45 360.77 467.95 348.53 468.45 336.34 Z" />
</g>
<g id="#3c3c3cff">
<path fill="#3c3c3c" opacity="1.00" d=" M 547.28 401.13 C 550.28 399.56 547.51 404.40 547.28 401.13 Z" />
<path fill="#3c3c3c" opacity="1.00" d=" M 747.20 673.18 C 750.16 671.51 747.52 676.43 747.20 673.18 Z" />
</g>
<g id="#161616ff">
<path fill="#161616" opacity="1.00" d=" M 273.23 432.17 C 285.22 427.99 297.05 423.33 309.05 419.18 C 311.56 419.19 313.43 421.07 315.54 422.17 C 332.73 432.15 350.00 442.00 367.24 451.90 C 373.64 455.49 379.93 459.30 386.38 462.82 C 386.49 463.70 386.61 464.58 386.73 465.48 C 370.50 466.23 354.22 465.61 337.97 465.81 C 324.16 465.78 310.35 465.88 296.54 465.74 C 295.42 463.24 293.23 461.49 291.57 459.39 C 284.95 451.37 278.33 443.35 271.63 435.40 C 270.72 434.13 271.84 432.42 273.23 432.17 M 280.67 435.92 C 280.92 436.47 281.43 437.58 281.69 438.13 C 284.39 440.84 286.66 443.94 289.16 446.83 C 292.92 451.01 296.11 455.88 300.20 459.66 C 322.86 459.90 345.56 459.75 368.23 459.74 C 362.33 455.97 356.16 452.63 350.11 449.13 C 336.48 441.17 322.75 433.42 309.09 425.54 C 299.58 428.91 290.17 432.53 280.67 435.92 Z" />
<path fill="#161616" opacity="1.00" d=" M 570.87 427.71 C 576.29 424.88 581.29 421.26 586.95 418.90 C 599.39 423.61 611.93 428.06 624.44 432.59 C 624.70 432.98 625.21 433.76 625.46 434.16 C 618.40 442.88 611.09 451.39 603.95 460.04 C 602.38 461.88 600.58 463.57 599.49 465.76 C 571.67 465.88 543.85 465.77 516.03 465.82 C 513.76 465.83 511.50 465.69 509.26 465.52 C 509.34 464.60 509.44 463.69 509.55 462.79 C 512.42 461.80 514.80 459.86 517.44 458.41 C 535.26 448.19 553.09 437.99 570.87 427.71 M 560.48 440.65 C 549.62 447.19 538.42 453.15 527.63 459.78 C 550.46 459.76 573.30 459.80 596.13 459.75 C 602.83 451.92 609.34 443.91 616.00 436.04 C 606.29 432.56 596.71 428.76 586.92 425.54 C 578.09 430.56 569.36 435.74 560.48 440.65 Z" />
</g>
<g id="#151515ff">
<path fill="#151515" opacity="1.00" d=" M 296.33 497.21 C 297.44 495.81 299.46 496.23 301.02 496.09 C 328.35 496.11 355.68 496.10 383.01 496.10 C 384.43 496.12 385.85 496.31 387.27 496.50 C 387.28 496.99 387.28 497.96 387.28 498.44 C 362.32 513.25 336.98 527.40 311.90 542.03 C 310.62 542.91 308.91 543.06 307.50 542.41 C 295.69 538.05 283.90 533.63 272.00 529.50 C 271.73 528.71 271.19 528.22 270.39 528.03 C 279.19 517.96 287.48 507.30 296.33 497.21 M 299.75 502.30 C 293.66 510.50 286.40 517.83 280.41 526.08 C 290.02 529.46 299.54 533.11 309.13 536.56 C 318.43 531.18 327.80 525.91 337.04 520.43 C 337.12 520.79 337.28 521.51 337.36 521.87 C 337.39 521.45 337.45 520.60 337.48 520.18 C 346.02 515.60 354.17 510.36 362.70 505.77 C 364.51 504.55 366.92 503.96 368.04 501.95 C 345.29 502.43 322.51 501.77 299.75 502.30 Z" />
<path fill="#151515" opacity="1.00" d=" M 509.19 496.31 C 530.79 495.80 552.41 496.25 574.02 496.10 C 582.52 496.20 591.03 495.89 599.52 496.26 C 607.61 506.82 616.48 516.79 624.98 527.03 C 624.77 527.60 624.36 528.74 624.15 529.30 C 612.23 533.70 600.28 538.03 588.36 542.41 C 585.81 543.63 583.50 541.48 581.43 540.31 C 565.91 531.20 550.19 522.45 534.69 513.30 C 526.61 508.76 518.59 504.10 510.54 499.51 C 509.08 499.03 509.33 497.51 509.19 496.31 M 527.78 502.54 C 547.65 513.59 567.27 525.09 586.94 536.51 C 596.41 533.15 605.78 529.52 615.25 526.17 C 615.32 525.90 615.46 525.36 615.53 525.08 C 613.36 522.36 610.79 519.98 608.73 517.17 C 604.88 512.24 600.05 507.90 597.04 502.41 C 593.05 501.88 589.02 502.16 585.01 502.12 C 567.32 502.11 549.64 502.11 531.95 502.12 C 530.54 502.09 529.15 502.25 527.78 502.54 Z" />
<path fill="#151515" opacity="1.00" d=" M 429.82 542.45 C 431.02 542.37 432.23 542.43 433.35 542.97 C 432.80 545.61 432.70 548.32 432.78 551.03 C 432.83 577.91 432.75 604.79 432.81 631.67 C 425.92 637.45 418.88 643.07 412.02 648.89 C 408.32 651.85 404.89 655.16 400.86 657.70 C 399.24 655.77 398.33 653.44 397.68 651.05 C 393.71 640.37 389.72 629.71 385.88 618.99 C 387.77 614.63 390.53 610.73 392.78 606.56 C 397.56 598.70 401.87 590.56 406.67 582.72 C 414.25 569.21 422.31 555.99 429.82 542.45 M 419.63 572.51 C 410.42 587.89 401.88 603.66 392.49 618.92 C 395.41 628.74 399.73 638.10 402.76 647.90 C 403.78 647.72 404.71 647.28 405.42 646.51 C 408.37 643.73 411.56 641.22 414.73 638.70 C 418.64 635.34 422.88 632.35 426.52 628.69 C 427.08 620.49 426.61 612.20 426.77 603.96 C 426.57 589.31 427.17 574.63 426.45 560.01 C 424.46 564.33 421.94 568.36 419.63 572.51 Z" />
</g>
<g id="#111111ff">
<path fill="#111111" opacity="1.00" d=" M 463.64 542.36 C 464.73 542.39 465.82 542.43 466.91 542.49 C 466.79 542.69 466.55 543.10 466.42 543.30 C 466.14 543.75 465.58 544.66 465.30 545.11 C 464.64 551.65 467.68 558.24 465.65 564.67 C 464.80 567.18 467.02 569.44 466.79 572.00 C 466.75 587.67 466.74 603.35 466.74 619.02 C 466.75 620.81 466.92 622.59 467.14 624.38 C 467.60 623.29 467.89 622.18 468.00 621.02 C 468.19 601.43 467.68 581.80 468.19 562.22 C 468.51 561.78 469.17 560.91 469.50 560.47 C 469.28 583.18 469.47 605.91 469.41 628.63 C 470.44 629.52 471.47 630.42 472.53 631.29 C 471.73 632.14 470.93 632.99 470.13 633.86 C 468.84 630.67 467.16 627.29 463.45 626.52 C 463.54 598.47 463.15 570.40 463.64 542.36 Z" />
</g>
<g id="#181818ff">
<path fill="#181818" opacity="1.00" d=" M 465.30 545.11 C 465.58 544.66 466.14 543.75 466.42 543.30 C 470.17 548.15 472.44 553.93 475.91 558.98 C 482.18 570.31 488.94 581.37 495.31 592.64 C 494.31 593.17 494.10 594.08 494.68 595.36 C 495.05 594.58 495.43 593.81 495.83 593.05 C 500.31 601.87 505.79 610.14 510.41 618.90 C 506.53 629.63 502.56 640.34 498.61 651.05 C 497.87 653.32 497.02 655.59 495.57 657.53 C 492.08 655.77 489.23 653.08 486.30 650.56 C 478.73 644.41 471.22 638.17 463.81 631.84 C 463.07 630.20 463.61 628.26 463.45 626.52 C 467.16 627.29 468.84 630.67 470.13 633.86 C 470.93 632.99 471.73 632.14 472.53 631.29 C 479.36 636.88 486.17 642.51 492.99 648.12 C 496.73 639.53 499.48 630.50 502.98 621.80 C 504.65 618.76 501.61 616.11 500.40 613.52 C 490.11 595.79 479.73 578.11 469.62 560.28 L 469.50 560.47 C 469.17 560.91 468.51 561.78 468.19 562.22 C 467.68 581.80 468.19 601.43 468.00 621.02 C 467.89 622.18 467.60 623.29 467.14 624.38 C 466.92 622.59 466.75 620.81 466.74 619.02 C 466.74 603.35 466.75 587.67 466.79 572.00 C 467.02 569.44 464.80 567.18 465.65 564.67 C 467.68 558.24 464.64 551.65 465.30 545.11 Z" />
</g>
<g id="#cbcbcbff">
<path fill="#cbcbcb" opacity="1.00" d=" M 296.24 760.26 C 296.76 760.76 296.76 760.76 296.24 760.26 Z" />
</g>
<g id="#3e3e3eff">
<path fill="#3e3e3e" opacity="1.00" d=" M 531.18 857.14 C 534.08 855.38 531.62 860.37 531.18 857.14 Z" />
</g>
<g id="#ffffffff">
</g>
<g id="#f6f6f6ff">
</g>
</svg>
