<?xml version="1.0" encoding="UTF-8" ?>
<!DOCTYPE svg PUBLIC "-//W3C//DTD SVG 1.1//EN" "http://www.w3.org/Graphics/SVG/1.1/DTD/svg11.dtd">
<svg width="299pt" height="288pt" viewBox="0 0 299 288" version="1.1" xmlns="http://www.w3.org/2000/svg">
<g id="#000000ff">
<path fill="#000000" opacity="1.00" d=" M 149.22 0.00 L 149.66 0.00 C 157.59 14.50 166.20 28.62 174.25 43.05 C 191.14 34.00 207.36 23.74 224.21 14.61 C 224.36 33.68 224.25 52.76 224.26 71.83 C 240.78 72.02 257.29 72.25 273.81 71.85 C 267.38 84.48 259.71 96.45 252.86 108.86 C 251.38 111.19 250.31 114.30 247.49 115.31 C 231.52 115.16 215.54 115.39 199.57 115.18 C 207.29 100.86 215.79 86.97 223.77 72.80 C 220.97 73.83 218.37 75.29 215.84 76.85 C 202.08 84.87 188.23 92.75 174.49 100.82 C 174.22 81.97 174.70 63.10 174.25 44.26 C 171.19 48.06 169.18 52.53 166.65 56.67 C 160.86 66.47 155.45 76.51 149.41 86.17 C 142.10 73.59 134.83 60.98 127.59 48.36 C 126.73 46.91 125.76 45.54 124.76 44.19 C 124.29 63.06 124.77 81.94 124.52 100.82 C 110.79 92.76 96.95 84.88 83.20 76.87 C 80.66 75.31 78.05 73.83 75.24 72.81 C 83.22 86.97 91.70 100.86 99.43 115.17 C 85.59 115.40 71.75 115.17 57.91 115.29 C 55.06 115.34 52.20 115.24 49.36 114.89 C 41.79 100.26 32.68 86.46 25.11 71.83 C 31.77 72.10 38.43 72.01 45.08 71.96 C 54.97 71.59 64.85 72.26 74.73 71.83 C 74.77 52.75 74.60 33.68 74.82 14.60 C 91.62 23.79 107.88 33.95 124.72 43.06 C 132.74 28.63 141.49 14.59 149.22 0.00 Z" />
<path fill="#000000" opacity="1.00" d=" M 124.59 101.01 C 132.71 105.17 140.37 110.20 148.41 114.50 C 149.56 115.30 150.80 114.38 151.83 113.89 C 159.37 109.61 166.73 105.01 174.41 101.00 C 174.46 110.54 174.38 120.09 174.45 129.64 C 182.72 134.39 191.01 139.11 199.20 143.98 C 215.25 134.76 231.39 125.68 247.23 116.13 C 248.40 116.03 249.57 115.94 250.75 115.87 C 255.83 119.32 261.32 122.11 266.59 125.27 C 277.43 131.33 287.96 138.01 299.00 143.69 L 299.00 144.01 C 283.35 153.03 267.68 162.04 252.09 171.16 C 251.14 171.76 250.11 172.12 248.99 172.23 C 246.05 171.48 243.65 169.49 241.02 168.08 C 227.05 160.09 213.22 151.86 199.18 144.00 C 190.98 148.91 182.64 153.55 174.42 158.41 C 174.42 167.94 174.44 177.48 174.41 187.02 C 166.29 182.80 158.61 177.79 150.55 173.49 C 149.39 172.72 148.20 173.59 147.17 174.11 C 139.63 178.39 132.28 183.00 124.59 186.99 C 124.55 177.45 124.60 167.91 124.56 158.37 C 116.33 153.57 108.02 148.91 99.85 144.01 C 84.14 152.82 68.62 161.96 53.04 170.99 C 52.09 171.56 51.08 171.97 50.00 172.22 C 48.87 172.11 47.83 171.75 46.87 171.14 C 33.63 163.35 20.28 155.76 7.01 148.02 C 4.75 146.73 2.60 145.13 0.00 144.60 L 0.00 144.09 C 15.96 134.40 32.53 125.71 48.31 115.75 C 52.32 115.76 55.36 118.54 58.70 120.34 C 72.43 128.18 86.03 136.24 99.82 143.98 C 108.00 139.07 116.33 134.40 124.57 129.60 C 124.59 120.07 124.55 110.54 124.59 101.01 Z" />
<path fill="#000000" opacity="1.00" d=" M 50.14 172.96 C 66.53 172.47 82.98 172.81 99.39 172.81 C 91.76 187.17 83.16 201.00 75.25 215.21 C 78.03 214.14 80.65 212.70 83.18 211.14 C 96.94 203.12 110.79 195.25 124.52 187.18 C 124.79 206.06 124.24 224.96 124.80 243.84 C 133.63 230.18 140.88 215.53 149.64 201.82 C 157.91 215.81 165.56 230.20 174.25 243.93 C 174.69 225.02 174.23 206.10 174.49 187.19 C 186.77 194.39 199.13 201.46 211.45 208.60 C 215.53 210.87 219.40 213.55 223.78 215.25 C 215.82 201.05 207.30 187.15 199.57 172.83 C 216.00 172.78 232.47 172.47 248.88 172.97 C 250.80 174.89 251.79 177.52 253.21 179.80 C 260.14 191.73 266.90 203.75 273.95 215.60 C 266.01 216.65 258.01 215.67 250.05 216.11 C 241.47 215.92 232.88 215.82 224.30 215.95 C 224.21 235.13 224.36 254.32 224.22 273.50 C 207.48 264.16 191.13 254.12 174.30 244.93 C 168.64 255.04 162.58 264.93 157.12 275.14 C 154.35 279.23 152.07 283.60 149.85 288.00 L 149.34 288.00 C 141.38 273.51 132.81 259.35 124.71 244.93 C 107.88 254.08 91.58 264.20 74.79 273.44 C 74.63 254.36 74.76 235.27 74.73 216.19 C 66.83 215.54 58.91 216.48 51.01 215.95 C 42.39 216.29 33.79 215.63 25.17 215.90 C 32.33 202.63 40.23 189.78 47.58 176.61 C 48.35 175.35 48.97 173.92 50.14 172.96 Z" />
</g>
</svg>
