<?xml version="1.0" encoding="UTF-8" ?>
<!DOCTYPE svg PUBLIC "-//W3C//DTD SVG 1.1//EN" "http://www.w3.org/Graphics/SVG/1.1/DTD/svg11.dtd">
<svg width="170pt" height="162pt" viewBox="0 0 170 162" version="1.1" xmlns="http://www.w3.org/2000/svg">
<g id="#ffffffff">
</g>
<g id="#050505ff">
<path fill="#050505" opacity="1.00" d=" M 83.88 0.00 L 86.31 0.00 C 90.93 1.36 91.36 7.93 86.99 9.88 C 86.92 15.97 87.23 22.08 86.78 28.16 C 89.34 25.77 92.22 23.54 94.26 20.70 C 93.51 17.29 96.45 13.65 100.07 14.82 C 103.35 15.23 103.75 19.15 103.06 21.74 C 101.42 23.23 99.35 24.20 97.09 23.63 C 93.61 26.77 90.39 30.20 87.00 33.45 C 86.95 41.41 87.14 49.37 86.90 57.33 C 93.74 51.92 101.06 47.16 107.91 41.78 C 107.84 38.50 111.21 34.73 114.58 36.51 C 117.81 37.62 118.23 42.50 115.54 44.39 C 113.69 45.98 110.84 44.20 109.03 45.85 C 101.77 51.29 94.38 56.56 87.00 61.85 C 86.98 70.01 87.06 78.17 86.93 86.32 C 94.59 83.82 102.26 81.36 109.90 78.83 C 113.18 69.68 116.15 60.41 119.07 51.14 C 117.55 48.90 117.16 45.33 119.82 43.75 C 123.05 41.27 128.08 45.06 126.88 48.84 C 126.44 50.72 124.71 51.70 123.02 52.28 C 119.96 60.53 117.42 68.98 114.69 77.34 C 122.26 74.70 130.07 72.70 137.49 69.66 C 139.29 65.50 141.54 61.57 143.42 57.45 C 143.22 55.65 142.07 53.82 143.05 52.04 C 143.48 50.12 145.62 49.85 147.13 49.14 C 149.66 49.65 151.35 51.58 152.17 53.94 C 151.47 56.38 149.67 58.01 147.39 58.97 C 145.03 61.67 144.11 65.31 142.27 68.37 C 148.12 66.62 153.84 64.50 159.69 62.78 C 160.06 59.26 163.36 57.31 166.70 57.89 C 168.09 59.05 169.45 60.32 170.00 62.11 L 170.00 63.90 C 169.55 65.67 168.21 66.90 166.88 68.05 C 165.62 68.02 164.35 68.00 163.09 67.99 C 162.33 67.44 161.56 66.90 160.80 66.36 C 155.16 68.57 149.11 69.77 143.63 72.30 C 146.85 73.64 149.91 75.30 152.90 77.08 C 155.26 75.01 158.21 76.23 160.09 78.26 C 160.13 79.72 160.17 81.19 160.10 82.65 C 159.26 83.44 158.43 84.24 157.62 85.04 C 155.77 84.98 153.62 85.31 152.28 83.71 C 151.64 82.60 151.24 81.37 150.77 80.19 C 146.45 78.26 142.49 75.41 138.00 73.92 C 130.54 76.14 123.14 78.64 115.76 81.14 C 123.10 85.88 129.86 91.45 137.14 96.30 C 141.10 94.60 144.94 98.00 144.16 102.12 C 142.70 104.31 139.97 106.06 137.38 104.56 C 135.24 103.71 134.98 101.25 134.75 99.27 C 126.69 94.03 119.21 87.76 111.14 82.65 C 103.39 84.97 95.73 87.63 88.00 90.05 C 92.99 96.49 97.71 103.14 102.44 109.78 C 112.12 109.87 121.80 109.80 131.48 109.87 C 132.55 108.76 133.61 107.54 135.12 107.03 C 138.35 106.41 141.50 110.18 140.19 113.26 C 139.74 114.41 138.75 115.21 137.99 116.14 C 135.36 116.48 133.06 115.60 131.17 113.80 C 122.59 113.62 114.00 113.85 105.43 113.55 C 109.91 120.08 114.58 126.50 119.38 132.77 C 124.09 133.46 128.82 134.03 133.50 134.84 C 134.00 134.37 134.98 133.44 135.47 132.97 C 138.09 132.20 140.54 133.20 142.08 135.39 C 142.12 137.27 141.86 139.15 140.87 140.78 C 138.79 141.96 136.42 142.13 134.40 140.70 C 132.18 136.39 126.19 138.82 122.50 136.73 C 122.56 137.27 122.57 137.85 122.98 138.26 C 126.73 142.60 129.74 147.49 133.27 151.99 C 134.40 151.98 135.54 151.97 136.67 151.96 C 140.70 154.36 140.28 160.96 135.40 162.00 L 133.42 162.00 C 131.07 161.25 129.65 159.19 128.94 156.94 C 129.32 156.00 129.70 155.06 130.08 154.12 C 126.32 149.30 122.91 144.21 119.21 139.34 C 118.75 142.78 118.03 146.18 117.43 149.60 C 120.41 151.86 119.81 156.17 116.83 158.08 C 114.46 158.22 111.35 158.10 110.65 155.27 C 109.18 152.59 111.76 150.06 113.88 148.75 C 114.18 143.95 115.67 139.32 116.01 134.53 C 111.19 128.50 106.52 122.27 102.41 115.73 C 99.23 123.85 97.10 132.34 94.08 140.52 C 95.11 142.52 95.93 144.67 95.03 146.90 C 93.72 147.65 92.64 149.27 90.96 149.04 C 88.22 149.09 86.74 146.38 85.96 144.13 C 86.77 141.94 88.23 140.15 90.53 139.44 C 93.17 130.23 96.68 121.22 99.09 111.97 C 94.67 105.21 89.64 98.85 84.98 92.25 C 80.51 99.04 75.04 105.21 70.91 112.18 C 73.31 120.86 76.52 129.33 79.06 137.98 C 79.43 140.32 82.62 140.28 83.29 142.47 C 85.19 145.65 81.39 149.86 78.00 148.97 C 76.92 148.33 75.95 147.52 74.95 146.78 C 74.31 144.64 74.77 142.52 75.96 140.67 C 73.15 132.41 70.63 124.05 67.81 115.80 C 63.35 122.31 58.50 128.55 53.97 135.01 C 54.61 139.64 55.82 144.20 56.13 148.87 C 58.73 150.12 61.55 153.36 59.25 156.18 C 58.08 158.61 55.31 158.39 53.09 157.99 C 52.38 157.22 51.66 156.45 50.93 155.70 C 50.73 153.56 51.12 151.44 52.60 149.82 C 51.94 146.37 51.41 142.90 50.82 139.44 C 47.05 144.22 43.77 149.37 39.88 154.06 C 40.31 155.03 40.74 156.01 41.17 156.98 C 40.34 159.10 39.17 161.14 36.93 162.00 L 34.42 162.00 C 32.14 161.18 30.19 159.03 30.60 156.47 C 30.61 154.32 32.47 153.09 33.91 151.83 C 34.62 151.89 36.03 151.99 36.73 152.04 C 40.34 146.99 44.13 142.06 47.66 136.96 C 44.33 137.60 40.98 138.10 37.61 138.39 C 36.26 140.75 33.33 143.36 30.57 141.39 C 27.72 140.06 27.51 136.50 29.03 134.07 C 30.77 133.06 32.72 132.69 34.72 133.05 C 35.58 133.80 36.43 135.31 37.82 134.65 C 42.10 134.01 46.35 133.13 50.68 132.92 C 55.44 126.47 60.04 119.89 64.86 113.47 C 56.17 113.89 47.47 113.64 38.78 113.77 C 36.36 117.51 29.73 116.84 29.57 111.85 C 29.21 111.27 27.27 109.23 29.69 110.67 C 30.25 108.58 32.10 107.26 34.11 106.81 C 35.94 107.17 37.35 108.47 38.49 109.86 C 48.19 109.91 57.89 109.87 67.58 109.77 C 72.34 103.22 76.86 96.46 82.00 90.21 C 74.32 87.42 66.49 85.06 58.71 82.56 C 50.95 88.18 43.18 93.79 35.39 99.36 C 35.18 101.89 33.97 105.02 30.97 105.10 C 27.10 105.83 24.31 100.73 26.81 97.76 C 28.16 95.69 30.72 95.83 32.85 96.32 C 40.14 91.45 46.95 85.87 54.34 81.15 C 47.22 78.65 39.99 76.44 32.80 74.14 C 31.44 73.59 30.19 74.54 29.02 75.09 C 25.74 76.86 22.42 78.55 19.12 80.27 C 18.54 82.40 17.67 85.25 14.96 85.26 C 11.82 85.99 9.73 83.41 9.35 80.60 C 9.91 76.83 13.80 75.37 17.03 76.90 C 20.04 75.34 23.59 73.98 26.13 71.91 C 20.45 70.06 14.75 68.24 9.04 66.45 C 8.53 66.85 7.52 67.66 7.01 68.06 C 3.98 68.67 1.07 67.38 0.00 64.39 L 0.00 61.94 C 0.94 59.99 2.51 57.81 4.94 57.95 C 7.79 57.62 9.83 60.22 10.31 62.77 C 16.15 64.34 21.73 66.88 27.68 68.05 C 26.09 65.34 24.95 62.38 23.31 59.71 C 20.99 58.32 17.22 56.54 18.26 53.20 C 18.89 49.47 24.36 48.51 26.45 51.49 C 27.93 53.31 27.00 55.67 26.58 57.67 C 28.62 61.29 30.36 65.06 32.17 68.79 C 32.60 70.07 34.03 70.38 35.13 70.80 C 41.89 72.94 48.59 75.23 55.38 77.29 C 52.53 68.96 50.01 60.52 47.02 52.24 C 43.20 51.73 41.98 47.15 44.19 44.29 C 46.22 43.20 48.75 42.29 50.65 44.18 C 53.32 46.09 51.59 49.43 51.10 51.93 C 53.96 60.91 56.95 69.86 59.91 78.81 C 67.60 81.38 75.32 83.86 83.04 86.31 C 82.93 78.27 83.02 70.22 83.00 62.18 C 75.19 56.29 67.34 50.43 59.24 44.94 C 56.03 46.24 51.88 43.73 52.73 40.02 C 52.61 37.92 54.72 37.06 56.10 35.97 C 56.74 36.02 58.02 36.12 58.65 36.17 C 60.38 37.54 62.11 39.26 61.87 41.67 C 68.77 47.04 75.97 52.03 83.01 57.21 C 82.97 49.29 83.00 41.36 83.00 33.44 C 79.54 30.16 76.15 26.81 72.76 23.46 C 72.08 23.61 70.72 23.89 70.04 24.03 C 68.02 22.90 66.48 21.20 65.88 18.94 C 66.80 17.21 67.64 14.74 70.01 14.79 C 73.53 13.82 76.11 17.43 75.19 20.64 C 77.82 23.17 80.37 25.77 82.98 28.32 C 82.96 22.20 83.10 16.07 82.91 9.95 C 79.61 8.34 79.07 4.06 81.16 1.25 C 81.84 0.94 83.20 0.31 83.88 0.00 Z" />
</g>
</svg>
