<?xml version="1.0" encoding="UTF-8" ?>
<!DOCTYPE svg PUBLIC "-//W3C//DTD SVG 1.1//EN" "http://www.w3.org/Graphics/SVG/1.1/DTD/svg11.dtd">
<svg width="800pt" height="800pt" viewBox="0 0 800 800" version="1.1" xmlns="http://www.w3.org/2000/svg">
<g id="#ffffffff">
</g>
<g id="#000000ff">
<path fill="#000000" opacity="1.00" d=" M 399.28 2.00 C 399.64 2.00 400.36 2.00 400.72 2.00 C 400.94 2.61 401.39 3.82 401.61 4.42 C 402.67 6.05 403.83 7.62 404.70 9.37 C 406.11 11.66 407.61 13.90 408.67 16.39 C 409.50 17.83 410.49 19.17 411.33 20.61 C 412.49 23.37 414.20 25.82 415.78 28.34 C 415.99 28.86 416.42 29.90 416.63 30.41 C 417.50 31.83 418.50 33.16 419.30 34.62 C 420.31 36.60 421.65 38.39 422.73 40.34 C 423.62 42.60 425.02 44.57 426.35 46.59 C 426.78 47.52 427.21 48.46 427.64 49.40 C 428.49 50.83 429.49 52.17 430.35 53.60 C 430.78 54.53 431.21 55.46 431.65 56.39 C 432.50 57.82 433.50 59.16 434.30 60.62 C 435.32 62.61 436.64 64.42 437.77 66.35 C 437.99 66.87 438.41 67.90 438.63 68.42 C 440.17 70.63 441.60 72.91 442.67 75.40 C 443.50 76.83 444.50 78.17 445.30 79.63 C 446.17 81.37 447.32 82.94 448.37 84.58 C 448.58 85.10 449.02 86.14 449.23 86.66 C 450.26 88.43 451.48 90.10 452.43 91.93 C 417.48 92.05 382.52 92.05 347.57 91.93 C 348.37 90.34 349.43 88.91 350.34 87.40 C 350.78 86.46 351.22 85.53 351.66 84.60 C 352.50 83.17 353.50 81.83 354.30 80.37 C 355.18 78.64 356.33 77.06 357.33 75.40 C 358.49 72.64 360.20 70.19 361.77 67.67 C 361.98 67.15 362.42 66.10 362.63 65.58 C 363.67 63.94 364.82 62.37 365.70 60.63 C 366.49 59.16 367.49 57.82 368.35 56.39 C 368.78 55.46 369.21 54.52 369.65 53.59 C 370.97 51.58 372.38 49.60 373.27 47.34 C 374.19 45.63 375.33 44.05 376.36 42.39 C 376.78 41.46 377.21 40.53 377.65 39.60 C 378.50 38.17 379.50 36.84 380.30 35.37 C 381.32 33.39 382.64 31.58 383.77 29.66 C 383.99 29.13 384.42 28.09 384.63 27.57 C 385.50 26.17 386.49 24.85 387.32 23.42 C 388.38 20.92 389.84 18.64 391.36 16.40 C 391.78 15.47 392.21 14.54 392.65 13.61 C 393.66 11.95 394.81 10.37 395.69 8.63 C 396.49 7.17 397.49 5.83 398.38 4.42 C 398.61 3.82 399.05 2.60 399.28 2.00 Z" />
<path fill="#000000" opacity="1.00" d=" M 197.65 58.61 C 198.27 57.67 198.58 55.95 199.98 55.99 C 201.37 55.88 201.71 57.67 202.38 58.58 C 202.59 59.10 203.02 60.14 203.23 60.66 C 204.35 62.59 205.64 64.41 206.77 66.34 C 206.98 66.86 207.42 67.90 207.64 68.43 C 208.68 70.06 209.83 71.64 210.70 73.38 C 212.12 75.66 213.61 77.91 214.67 80.40 C 215.50 81.83 216.50 83.17 217.33 84.61 C 218.40 87.09 219.84 89.37 221.36 91.60 C 221.79 92.54 222.22 93.47 222.65 94.41 C 223.50 95.83 224.50 97.16 225.29 98.62 C 226.18 100.35 227.33 101.93 228.33 103.61 C 229.74 107.07 232.26 109.92 233.67 113.39 C 234.67 115.06 235.81 116.64 236.70 118.37 C 237.50 119.83 238.50 121.17 239.35 122.60 C 239.78 123.54 240.21 124.47 240.65 125.40 C 241.50 126.84 242.50 128.17 243.36 129.61 C 243.79 130.54 244.22 131.48 244.65 132.41 C 245.51 133.84 246.50 135.18 247.36 136.61 C 247.78 137.54 248.21 138.47 248.64 139.40 C 249.50 140.83 250.50 142.16 251.39 143.58 C 251.61 144.18 252.06 145.38 252.28 145.98 C 217.43 146.01 182.58 146.01 147.73 145.98 C 147.95 145.38 148.38 144.18 148.60 143.58 C 150.18 141.38 151.61 139.09 152.66 136.60 C 153.96 134.57 155.38 132.60 156.27 130.34 C 157.77 127.78 159.53 125.36 160.67 122.60 C 161.67 120.94 162.81 119.36 163.70 117.63 C 164.49 116.17 165.49 114.83 166.35 113.39 C 166.78 112.46 167.21 111.53 167.65 110.60 C 168.50 109.17 169.50 107.83 170.36 106.39 C 170.78 105.46 171.21 104.53 171.65 103.61 C 172.67 101.95 173.82 100.37 174.70 98.63 C 175.49 97.17 176.49 95.83 177.37 94.42 C 177.58 93.90 178.02 92.86 178.23 92.34 C 179.19 90.65 180.33 89.06 181.35 87.40 C 181.78 86.47 182.21 85.53 182.65 84.59 C 183.50 83.17 184.50 81.83 185.35 80.41 C 185.78 79.47 186.22 78.53 186.65 77.60 C 187.50 76.17 188.50 74.84 189.30 73.38 C 190.32 71.39 191.64 69.59 192.77 67.66 C 192.99 67.14 193.42 66.09 193.64 65.57 C 194.50 64.16 195.49 62.83 196.35 61.41 C 196.78 60.48 197.21 59.54 197.65 58.61 Z" />
<path fill="#000000" opacity="1.00" d=" M 597.26 59.35 C 598.10 58.10 598.54 55.59 600.54 56.00 C 601.34 56.72 601.94 57.60 602.35 58.62 C 602.77 59.54 603.20 60.46 603.64 61.38 C 604.49 62.82 605.49 64.16 606.35 65.59 C 606.77 66.53 607.21 67.47 607.66 68.41 C 608.50 69.83 609.50 71.17 610.30 72.63 C 611.18 74.36 612.32 75.94 613.35 77.59 C 613.77 78.53 614.21 79.46 614.65 80.40 C 615.50 81.83 616.50 83.17 617.36 84.61 C 617.78 85.54 618.21 86.47 618.64 87.41 C 619.97 89.42 621.38 91.40 622.28 93.66 C 623.20 95.37 624.34 96.94 625.30 98.63 C 626.32 100.61 627.64 102.42 628.77 104.34 C 628.99 104.86 629.42 105.90 629.63 106.43 C 630.50 107.84 631.50 109.17 632.36 110.60 C 632.78 111.53 633.21 112.46 633.65 113.39 C 634.49 114.82 635.49 116.16 636.30 117.63 C 637.17 119.37 638.32 120.94 639.37 122.59 C 639.59 123.10 640.02 124.14 640.23 124.66 C 641.19 126.34 642.33 127.92 643.33 129.59 C 644.58 132.84 646.98 135.44 648.27 138.66 C 649.18 140.38 650.32 141.94 651.38 143.57 C 651.61 144.17 652.05 145.38 652.28 145.98 C 617.43 146.01 582.57 146.01 547.72 145.98 C 547.94 145.38 548.39 144.18 548.61 143.58 C 549.49 142.17 550.50 140.84 551.33 139.40 C 552.39 136.91 553.84 134.64 555.36 132.40 C 555.78 131.47 556.20 130.54 556.64 129.61 C 557.97 127.58 559.38 125.60 560.28 123.33 C 561.34 121.39 562.67 119.61 563.70 117.64 C 564.49 116.17 565.49 114.83 566.35 113.40 C 566.78 112.47 567.21 111.53 567.65 110.60 C 568.66 108.94 569.80 107.35 570.77 105.65 C 570.99 105.14 571.42 104.10 571.63 103.58 C 572.67 101.95 573.82 100.37 574.69 98.63 C 576.12 96.35 577.61 94.09 578.66 91.59 C 579.96 89.56 581.39 87.60 582.27 85.33 C 583.78 82.77 585.53 80.35 586.68 77.59 C 587.50 76.16 588.50 74.83 589.30 73.38 C 590.17 71.64 591.32 70.06 592.35 68.40 C 592.78 67.46 593.21 66.53 593.65 65.59 C 594.49 64.16 595.49 62.84 596.36 61.43 C 596.58 60.91 597.03 59.87 597.26 59.35 Z" />
<path fill="#000000" opacity="1.00" d=" M 343.35 95.28 C 344.25 94.82 345.15 94.34 346.04 93.84 C 345.95 128.96 346.01 164.09 346.01 199.21 C 344.05 198.17 342.28 196.82 340.41 195.65 C 337.57 194.62 335.23 192.73 332.64 191.26 C 330.39 190.37 328.44 188.94 326.38 187.70 C 324.40 186.69 322.62 185.36 320.69 184.27 C 318.08 183.38 316.01 181.57 313.66 180.23 C 313.14 180.01 312.09 179.58 311.56 179.36 C 309.93 178.33 308.37 177.19 306.68 176.27 C 304.87 175.53 303.04 174.73 301.67 173.28 C 299.09 172.38 297.03 170.56 294.67 169.26 C 292.36 168.46 290.43 166.98 288.43 165.65 C 285.89 164.67 283.64 163.20 281.43 161.65 C 279.40 160.72 277.25 159.92 275.67 158.28 C 273.37 157.44 271.42 155.98 269.41 154.64 C 266.88 153.66 264.63 152.18 262.41 150.65 C 259.56 149.78 257.48 147.48 254.65 146.66 C 256.07 145.28 257.87 144.47 259.68 143.75 C 262.00 142.39 264.13 140.71 266.66 139.72 C 268.37 138.80 269.94 137.65 271.63 136.70 C 274.24 135.25 276.64 133.46 279.42 132.32 C 280.85 131.49 282.18 130.49 283.61 129.65 C 284.54 129.21 285.47 128.78 286.41 128.34 C 287.83 127.49 289.16 126.50 290.62 125.70 C 292.36 124.83 293.93 123.68 295.57 122.64 C 296.09 122.42 297.14 121.98 297.66 121.77 C 299.35 120.80 300.93 119.66 302.60 118.67 C 305.36 117.51 307.81 115.79 310.34 114.23 C 310.86 114.01 311.89 113.59 312.41 113.37 C 314.05 112.33 315.63 111.17 317.38 110.30 C 318.83 109.51 320.16 108.50 321.58 107.64 C 322.10 107.42 323.14 106.99 323.66 106.77 C 325.35 105.81 326.93 104.67 328.59 103.65 C 329.52 103.22 330.46 102.78 331.41 102.35 C 332.82 101.50 334.15 100.50 335.59 99.67 C 338.35 98.53 340.77 96.77 343.35 95.28 Z" />
<path fill="#000000" opacity="1.00" d=" M 453.95 93.82 C 455.08 94.48 456.24 95.10 457.41 95.69 C 458.85 96.50 460.17 97.50 461.59 98.35 C 462.52 98.78 463.46 99.21 464.40 99.64 C 466.64 101.16 468.92 102.62 471.42 103.68 C 472.84 104.50 474.16 105.50 475.57 106.37 C 476.09 106.58 477.13 107.01 477.65 107.23 C 479.34 108.20 480.92 109.34 482.63 110.30 C 484.36 111.18 485.95 112.33 487.61 113.35 C 488.53 113.78 489.46 114.22 490.40 114.65 C 492.05 115.66 493.63 116.81 495.34 117.73 C 497.87 118.72 500.02 120.39 502.34 121.78 C 502.86 121.99 503.90 122.42 504.42 122.63 C 505.83 123.50 507.15 124.51 508.62 125.30 C 511.22 126.73 513.62 128.53 516.39 129.66 C 517.83 130.50 519.17 131.50 520.61 132.36 C 521.53 132.79 522.47 133.22 523.41 133.65 C 525.05 134.67 526.63 135.82 528.37 136.70 C 530.65 138.12 532.90 139.61 535.39 140.67 C 536.83 141.50 538.16 142.49 539.59 143.34 C 541.60 144.28 543.70 145.12 545.35 146.65 C 542.52 147.50 540.40 149.79 537.54 150.67 C 535.34 152.21 533.09 153.68 530.57 154.65 C 528.56 155.99 526.62 157.44 524.34 158.28 C 522.75 159.93 520.59 160.72 518.56 161.66 C 516.35 163.21 514.09 164.67 511.56 165.66 C 509.35 167.20 507.10 168.67 504.57 169.65 C 502.56 170.99 500.62 172.43 498.34 173.28 C 496.75 174.93 494.58 175.73 492.55 176.66 C 490.35 178.21 488.09 179.67 485.58 180.65 C 483.57 181.98 481.63 183.45 479.33 184.26 C 476.96 185.56 474.92 187.37 472.34 188.28 C 470.76 189.92 468.60 190.72 466.58 191.65 C 464.36 193.20 462.09 194.67 459.55 195.67 C 457.69 196.84 455.94 198.17 453.99 199.21 C 453.98 164.08 454.06 128.95 453.95 93.82 Z" />
<path fill="#000000" opacity="1.00" d=" M 143.57 148.61 C 144.18 148.39 145.38 147.95 145.98 147.72 C 146.01 182.58 146.01 217.43 145.98 252.28 C 145.38 252.06 144.18 251.61 143.58 251.39 C 142.17 250.50 140.84 249.50 139.41 248.65 C 138.47 248.21 137.53 247.78 136.59 247.35 C 135.17 246.50 133.84 245.50 132.43 244.63 C 131.91 244.42 130.86 243.99 130.34 243.77 C 128.65 242.80 127.07 241.66 125.39 240.67 C 122.63 239.53 120.23 237.74 117.63 236.30 C 116.17 235.51 114.84 234.51 113.42 233.64 C 112.90 233.42 111.86 232.98 111.34 232.77 C 109.65 231.80 108.08 230.67 106.41 229.68 C 103.63 228.54 101.23 226.74 98.62 225.30 C 97.16 224.51 95.83 223.50 94.42 222.64 C 93.91 222.42 92.87 221.99 92.35 221.77 C 90.65 220.81 89.07 219.67 87.41 218.65 C 86.48 218.22 85.54 217.79 84.61 217.36 C 83.17 216.50 81.83 215.50 80.39 214.64 C 79.46 214.21 78.52 213.78 77.59 213.34 C 76.17 212.49 74.83 211.50 73.38 210.70 C 71.63 209.82 70.05 208.67 68.40 207.65 C 67.47 207.22 66.54 206.78 65.61 206.36 C 63.95 205.34 62.37 204.20 60.66 203.25 C 59.07 202.45 57.12 202.02 56.00 200.53 C 55.60 198.87 57.47 198.26 58.61 197.65 C 59.54 197.22 60.47 196.78 61.40 196.35 C 62.83 195.49 64.16 194.50 65.60 193.67 C 68.09 192.61 70.34 191.11 72.63 189.70 C 75.23 188.25 77.63 186.46 80.40 185.33 C 82.44 184.04 84.40 182.61 86.67 181.73 C 89.22 180.22 91.64 178.47 94.40 177.33 C 96.06 176.33 97.64 175.18 99.37 174.30 C 100.83 173.50 102.17 172.50 103.59 171.63 C 104.11 171.42 105.14 170.99 105.65 170.77 C 107.35 169.80 108.94 168.66 110.60 167.65 C 111.53 167.21 112.46 166.78 113.39 166.35 C 115.05 165.33 116.63 164.19 118.37 163.30 C 119.83 162.50 121.18 161.50 122.62 160.64 C 123.55 160.21 124.48 159.78 125.41 159.35 C 126.84 158.49 128.17 157.50 129.60 156.65 C 130.53 156.22 131.46 155.79 132.39 155.36 C 133.82 154.50 135.16 153.50 136.60 152.65 C 137.53 152.22 138.46 151.79 139.40 151.36 C 140.83 150.50 142.16 149.50 143.57 148.61 Z" />
<path fill="#000000" opacity="1.00" d=" M 254.05 147.63 C 256.64 148.71 258.83 150.55 261.39 151.70 C 263.77 152.94 265.94 154.55 268.38 155.69 C 270.13 156.57 271.76 157.68 273.41 158.73 C 276.14 160.26 279.00 161.53 281.57 163.31 C 283.42 164.58 285.37 165.70 287.39 166.69 C 289.76 167.95 291.94 169.54 294.38 170.69 C 296.13 171.57 297.74 172.68 299.41 173.70 C 301.53 174.82 303.52 176.17 305.63 177.34 C 306.55 177.78 307.48 178.22 308.42 178.66 C 310.06 179.67 311.62 180.81 313.34 181.70 C 315.52 182.78 317.49 184.23 319.64 185.36 C 320.56 185.79 321.49 186.23 322.41 186.66 C 324.07 187.68 325.65 188.82 327.39 189.71 C 328.83 190.50 330.15 191.49 331.59 192.30 C 334.04 193.44 336.21 195.10 338.63 196.31 C 340.58 197.32 342.55 198.37 344.23 199.80 C 343.97 201.22 342.50 201.74 341.40 202.35 C 340.46 202.78 339.53 203.21 338.61 203.64 C 336.36 205.15 334.08 206.60 331.59 207.68 C 330.16 208.51 328.82 209.50 327.37 210.30 C 325.63 211.18 324.05 212.33 322.40 213.35 C 321.46 213.78 320.53 214.21 319.60 214.64 C 318.16 215.50 316.83 216.50 315.41 217.37 C 314.90 217.59 313.86 218.02 313.35 218.23 C 311.41 219.35 309.59 220.65 307.65 221.77 C 307.13 221.99 306.10 222.42 305.58 222.64 C 304.17 223.50 302.84 224.50 301.38 225.30 C 298.77 226.73 296.38 228.53 293.61 229.66 C 292.16 230.50 290.82 231.50 289.39 232.36 C 288.46 232.78 287.53 233.21 286.60 233.65 C 284.94 234.67 283.36 235.82 281.61 236.71 C 280.15 237.50 278.82 238.50 277.39 239.35 C 276.46 239.78 275.53 240.21 274.60 240.65 C 272.93 241.66 271.35 242.80 269.65 243.77 C 269.14 243.99 268.10 244.42 267.58 244.63 C 265.93 245.67 264.34 246.81 262.65 247.78 C 262.13 247.99 261.10 248.41 260.58 248.62 C 259.16 249.50 257.83 250.50 256.42 251.39 C 255.82 251.61 254.62 252.06 254.02 252.28 C 254.00 217.40 253.95 182.51 254.05 147.63 Z" />
<path fill="#000000" opacity="1.00" d=" M 538.62 151.69 C 541.14 150.48 543.44 148.85 545.93 147.59 C 546.08 182.48 545.98 217.38 545.98 252.28 C 545.38 252.05 544.18 251.61 543.58 251.39 C 542.17 250.50 540.84 249.49 539.40 248.66 C 536.90 247.61 534.63 246.15 532.40 244.64 C 531.46 244.21 530.52 243.78 529.59 243.36 C 527.57 242.02 525.59 240.61 523.33 239.72 C 521.39 238.65 519.60 237.32 517.63 236.30 C 515.33 234.88 513.07 233.37 510.57 232.32 C 509.14 231.49 507.82 230.50 506.41 229.65 C 505.46 229.21 504.52 228.78 503.59 228.34 C 501.93 227.32 500.36 226.18 498.63 225.30 C 497.16 224.50 495.82 223.50 494.40 222.65 C 493.46 222.21 492.53 221.78 491.60 221.35 C 489.36 219.84 487.09 218.39 484.60 217.33 C 483.16 216.50 481.82 215.50 480.39 214.65 C 479.46 214.21 478.52 213.78 477.60 213.35 C 476.17 212.49 474.83 211.49 473.37 210.70 C 471.63 209.81 470.05 208.67 468.39 207.65 C 467.45 207.21 466.52 206.78 465.59 206.35 C 464.16 205.49 462.82 204.50 461.39 203.64 C 460.46 203.21 459.54 202.78 458.61 202.36 C 457.55 201.61 454.85 200.98 456.27 199.31 C 457.65 198.35 459.09 197.44 460.61 196.70 C 463.31 195.43 465.69 193.60 468.37 192.30 C 470.52 191.24 472.47 189.81 474.60 188.70 C 476.49 187.51 478.36 186.27 480.39 185.29 C 482.50 184.18 484.48 182.81 486.61 181.70 C 489.29 180.41 491.72 178.68 494.36 177.30 C 496.52 176.24 498.46 174.81 500.59 173.70 C 502.49 172.52 504.36 171.27 506.38 170.29 C 508.53 169.23 510.50 167.86 512.59 166.70 C 519.20 162.93 525.72 159.00 532.37 155.30 C 534.53 154.23 536.48 152.79 538.62 151.69 Z" />
<path fill="#000000" opacity="1.00" d=" M 654.02 147.72 C 654.62 147.94 655.82 148.38 656.42 148.61 C 658.61 150.17 660.90 151.60 663.39 152.67 C 664.82 153.50 666.16 154.49 667.60 155.33 C 670.08 156.39 672.34 157.86 674.60 159.33 C 677.36 160.47 679.76 162.25 682.36 163.70 C 684.65 165.11 686.90 166.61 689.39 167.67 C 690.83 168.50 692.17 169.50 693.61 170.36 C 694.54 170.79 695.47 171.22 696.40 171.65 C 697.83 172.50 699.16 173.50 700.63 174.30 C 702.61 175.32 704.41 176.65 706.34 177.77 C 706.86 177.98 707.90 178.41 708.41 178.63 C 709.83 179.50 711.17 180.50 712.61 181.36 C 713.53 181.79 714.47 182.22 715.41 182.65 C 716.83 183.50 718.16 184.50 719.60 185.35 C 720.52 185.78 721.45 186.21 722.39 186.65 C 723.81 187.50 725.15 188.50 726.63 189.30 C 728.36 190.17 729.93 191.32 731.58 192.37 C 732.10 192.58 733.15 193.01 733.67 193.23 C 735.97 194.61 738.11 196.26 740.62 197.28 C 741.77 197.95 743.19 198.32 744.01 199.47 C 744.37 201.12 742.53 201.74 741.38 202.35 C 740.45 202.78 739.52 203.21 738.60 203.65 C 737.16 204.50 735.82 205.50 734.40 206.35 C 733.46 206.78 732.53 207.21 731.61 207.65 C 729.95 208.67 728.36 209.81 726.63 210.70 C 725.16 211.50 723.82 212.50 722.39 213.35 C 721.45 213.78 720.52 214.21 719.60 214.64 C 717.58 215.97 715.60 217.38 713.33 218.27 C 710.77 219.78 708.35 221.53 705.59 222.68 C 704.15 223.51 702.82 224.50 701.38 225.30 C 699.63 226.18 698.04 227.33 696.39 228.35 C 695.45 228.78 694.52 229.22 693.59 229.65 C 692.16 230.50 690.82 231.50 689.40 232.35 C 688.46 232.78 687.53 233.21 686.60 233.65 C 685.17 234.50 683.83 235.50 682.37 236.30 C 680.38 237.33 678.57 238.65 676.65 239.77 C 676.14 239.99 675.10 240.41 674.58 240.63 C 673.16 241.50 671.83 242.50 670.40 243.33 C 667.91 244.39 665.64 245.84 663.41 247.35 C 662.47 247.78 661.53 248.21 660.60 248.64 C 659.16 249.50 657.82 250.50 656.42 251.39 C 655.82 251.61 654.62 252.06 654.02 252.28 C 653.99 217.43 653.99 182.57 654.02 147.72 Z" />
<path fill="#000000" opacity="1.00" d=" M 346.74 199.98 C 382.25 200.01 417.76 200.02 453.27 199.98 C 452.32 201.13 451.38 202.29 450.60 203.56 C 450.39 204.08 449.98 205.13 449.78 205.66 C 448.80 207.35 447.66 208.94 446.64 210.61 C 446.21 211.54 445.77 212.47 445.34 213.41 C 444.49 214.83 443.49 216.17 442.70 217.63 C 441.81 219.37 440.66 220.95 439.64 222.61 C 439.21 223.54 438.78 224.47 438.35 225.41 C 436.84 227.64 435.39 229.91 434.33 232.40 C 433.50 233.83 432.50 235.16 431.67 236.59 C 430.53 239.37 428.74 241.77 427.29 244.38 C 426.50 245.83 425.50 247.17 424.67 248.60 C 423.60 251.09 422.18 253.38 420.62 255.58 C 420.41 256.10 419.98 257.14 419.77 257.66 C 418.79 259.34 417.65 260.92 416.70 262.62 C 415.82 264.36 414.67 265.93 413.65 267.59 C 413.21 268.52 412.78 269.46 412.35 270.40 C 411.50 271.83 410.50 273.16 409.63 274.57 C 409.42 275.09 408.99 276.13 408.77 276.65 C 407.80 278.34 406.66 279.93 405.67 281.60 C 404.60 284.09 403.18 286.38 401.61 288.57 C 401.39 289.17 400.95 290.39 400.72 291.00 C 400.36 291.00 399.64 291.00 399.28 291.00 C 399.05 290.39 398.61 289.18 398.39 288.57 C 397.32 286.93 396.18 285.35 395.23 283.65 C 395.01 283.13 394.58 282.09 394.37 281.57 C 393.49 280.16 392.49 278.83 391.67 277.40 C 390.61 274.90 389.14 272.64 387.66 270.39 C 386.60 267.90 385.11 265.65 383.70 263.37 C 382.82 261.63 381.67 260.05 380.65 258.40 C 380.21 257.46 379.78 256.53 379.35 255.60 C 378.49 254.16 377.49 252.82 376.64 251.39 C 376.21 250.45 375.77 249.52 375.35 248.59 C 374.32 246.94 373.18 245.36 372.30 243.63 C 371.50 242.16 370.50 240.83 369.65 239.40 C 369.22 238.47 368.79 237.54 368.36 236.62 C 367.50 235.18 366.50 233.84 365.65 232.41 C 365.21 231.47 364.78 230.53 364.35 229.59 C 363.33 227.93 362.19 226.34 361.23 224.65 C 361.01 224.13 360.58 223.10 360.36 222.58 C 359.49 221.16 358.49 219.84 357.70 218.38 C 356.27 215.77 354.46 213.37 353.33 210.60 C 352.50 209.16 351.50 207.83 350.63 206.42 C 350.42 205.90 349.99 204.86 349.78 204.34 C 348.94 202.77 347.89 201.33 346.74 199.98 Z" />
<path fill="#000000" opacity="1.00" d=" M 147.67 254.03 C 182.54 253.97 217.41 253.99 252.28 254.02 C 252.05 254.62 251.61 255.82 251.39 256.43 C 250.50 257.83 249.49 259.17 248.64 260.60 C 248.21 261.53 247.78 262.47 247.35 263.40 C 246.33 265.06 245.19 266.65 244.23 268.35 C 244.01 268.87 243.58 269.90 243.37 270.42 C 242.49 271.83 241.49 273.16 240.67 274.60 C 239.54 277.37 237.74 279.77 236.30 282.37 C 235.50 283.83 234.50 285.16 233.67 286.61 C 232.60 289.09 231.15 291.37 229.64 293.60 C 229.21 294.53 228.78 295.46 228.35 296.39 C 227.49 297.82 226.49 299.17 225.70 300.64 C 224.67 302.61 223.34 304.39 222.27 306.34 C 221.38 308.60 219.97 310.58 218.64 312.60 C 218.21 313.53 217.78 314.47 217.35 315.41 C 216.49 316.84 215.49 318.17 214.64 319.61 C 214.21 320.54 213.78 321.47 213.35 322.40 C 212.33 324.05 211.18 325.63 210.30 327.37 C 209.34 329.07 208.20 330.65 207.23 332.35 C 207.02 332.86 206.58 333.90 206.37 334.42 C 205.50 335.83 204.50 337.17 203.65 338.60 C 203.21 339.52 202.78 340.44 202.36 341.38 C 201.74 342.43 201.29 344.03 199.84 344.15 C 197.85 342.92 197.35 340.52 196.36 338.57 C 195.00 336.57 193.55 334.62 192.73 332.31 C 191.64 330.38 190.30 328.60 189.30 326.62 C 188.05 324.55 186.62 322.59 185.72 320.34 C 184.81 318.63 183.67 317.06 182.65 315.42 C 182.22 314.48 181.80 313.54 181.38 312.61 C 179.81 310.38 178.34 308.10 177.32 305.57 C 176.32 303.93 175.17 302.38 174.32 300.65 C 172.88 298.34 171.30 296.12 170.34 293.55 C 168.79 291.34 167.32 289.08 166.34 286.55 C 165.00 284.56 163.57 282.62 162.72 280.36 C 160.14 277.41 159.12 273.47 156.64 270.42 C 156.22 269.47 155.79 268.52 155.38 267.57 C 154.75 266.54 154.03 265.58 153.28 264.65 C 152.77 263.54 152.25 262.46 151.78 261.35 C 150.38 258.91 148.48 256.77 147.67 254.03 Z" />
<path fill="#000000" opacity="1.00" d=" M 547.72 254.02 C 582.59 253.99 617.46 253.97 652.33 254.03 C 651.56 256.45 650.07 258.49 648.66 260.56 C 647.67 263.09 646.21 265.35 644.66 267.55 C 643.72 269.59 642.93 271.77 641.26 273.35 C 640.09 276.30 638.41 278.98 636.69 281.62 C 635.83 283.37 634.68 284.93 633.67 286.58 C 632.65 289.09 631.20 291.35 629.66 293.56 C 628.69 296.12 627.11 298.34 625.68 300.65 C 624.68 302.61 623.35 304.38 622.28 306.30 C 621.46 308.60 620.01 310.54 618.66 312.55 C 617.68 315.09 616.20 317.35 614.65 319.58 C 613.71 321.61 612.91 323.76 611.28 325.35 C 610.43 327.63 608.99 329.57 607.65 331.57 C 606.66 334.11 605.19 336.37 603.64 338.58 C 602.60 340.48 602.20 343.05 600.10 344.10 C 598.65 344.01 598.26 342.43 597.67 341.40 C 596.52 338.63 594.78 336.19 593.23 333.66 C 593.01 333.14 592.58 332.10 592.37 331.58 C 591.32 329.94 590.17 328.36 589.30 326.62 C 588.49 325.15 587.49 323.82 586.65 322.39 C 586.21 321.46 585.78 320.53 585.35 319.60 C 584.49 318.17 583.50 316.84 582.67 315.40 C 581.61 312.91 580.14 310.65 578.67 308.39 C 577.61 305.90 576.11 303.66 574.70 301.37 C 573.44 298.98 571.69 296.88 570.73 294.34 C 569.21 291.77 567.46 289.35 566.32 286.59 C 565.48 285.15 564.49 283.82 563.70 282.37 C 562.44 279.98 560.70 277.87 559.72 275.34 C 558.80 273.63 557.66 272.06 556.65 270.41 C 556.21 269.47 555.78 268.54 555.36 267.60 C 554.50 266.17 553.50 264.83 552.65 263.41 C 552.21 262.47 551.78 261.54 551.36 260.61 C 550.50 259.17 549.50 257.84 548.61 256.43 C 548.39 255.82 547.95 254.62 547.72 254.02 Z" />
<path fill="#000000" opacity="1.00" d=" M 144.64 257.61 C 145.17 256.52 145.92 255.57 146.66 254.63 C 147.38 257.51 149.47 259.73 150.70 262.39 C 151.50 263.84 152.50 265.16 153.34 266.59 C 153.78 267.52 154.21 268.46 154.65 269.40 C 155.49 270.81 156.49 272.13 157.31 273.57 C 158.82 276.66 160.65 279.58 162.29 282.60 C 163.49 284.49 164.73 286.35 165.70 288.38 C 166.76 290.53 168.20 292.48 169.31 294.62 C 171.01 298.11 173.30 301.28 175.34 304.58 C 175.77 305.51 176.21 306.43 176.65 307.36 C 177.77 309.52 179.23 311.48 180.31 313.67 C 181.19 315.38 182.33 316.94 183.34 318.58 C 183.77 319.51 184.21 320.45 184.65 321.39 C 185.49 322.81 186.49 324.15 187.29 325.61 C 188.16 327.35 189.32 328.92 190.36 330.57 C 190.58 331.08 191.02 332.11 191.24 332.63 C 192.52 334.99 194.04 337.22 195.30 339.60 C 196.41 341.88 197.75 344.05 199.31 346.06 C 164.15 345.95 128.98 345.98 93.82 346.04 C 94.48 344.91 95.09 343.76 95.69 342.60 C 96.51 341.15 97.50 339.82 98.35 338.40 C 98.78 337.46 99.22 336.52 99.65 335.59 C 100.50 334.16 101.50 332.83 102.33 331.39 C 103.74 327.92 106.26 325.07 107.67 321.60 C 108.51 320.16 109.50 318.82 110.30 317.37 C 111.18 315.63 112.33 314.05 113.35 312.39 C 113.79 311.46 114.22 310.52 114.65 309.59 C 115.50 308.16 116.50 306.83 117.35 305.41 C 117.78 304.47 118.21 303.54 118.64 302.61 C 119.49 301.18 120.49 299.84 121.37 298.43 C 121.58 297.91 122.01 296.86 122.23 296.34 C 123.35 294.42 124.67 292.61 125.70 290.63 C 126.50 289.16 127.49 287.83 128.35 286.40 C 128.78 285.47 129.21 284.54 129.64 283.61 C 130.49 282.18 131.49 280.85 132.32 279.41 C 133.46 276.64 135.25 274.24 136.70 271.64 C 137.49 270.17 138.49 268.83 139.35 267.40 C 139.78 266.46 140.22 265.52 140.65 264.59 C 141.50 263.16 142.50 261.82 143.36 260.39 C 143.79 259.46 144.22 258.53 144.64 257.61 Z" />
<path fill="#000000" opacity="1.00" d=" M 653.35 254.63 C 654.07 255.58 654.83 256.53 655.36 257.62 C 655.78 258.54 656.21 259.47 656.65 260.40 C 657.50 261.83 658.49 263.17 659.35 264.61 C 659.78 265.53 660.21 266.46 660.65 267.40 C 661.67 269.05 662.82 270.63 663.70 272.38 C 664.49 273.84 665.49 275.17 666.37 276.59 C 666.58 277.10 667.01 278.14 667.23 278.65 C 668.19 280.35 669.33 281.94 670.35 283.61 C 670.78 284.53 671.21 285.46 671.65 286.39 C 672.49 287.82 673.49 289.16 674.30 290.63 C 675.18 292.37 676.33 293.95 677.35 295.61 C 677.78 296.53 678.21 297.46 678.65 298.40 C 679.66 300.05 680.80 301.62 681.73 303.34 C 682.71 305.87 684.39 308.02 685.78 310.34 C 685.99 310.86 686.42 311.90 686.63 312.43 C 687.67 314.06 688.83 315.63 689.70 317.38 C 690.49 318.83 691.49 320.16 692.34 321.59 C 692.77 322.52 693.20 323.46 693.65 324.39 C 694.49 325.82 695.49 327.15 696.33 328.59 C 697.39 331.08 698.82 333.37 700.38 335.58 C 700.59 336.10 701.01 337.13 701.23 337.65 C 702.19 339.33 703.33 340.92 704.31 342.60 C 704.90 343.76 705.51 344.91 706.17 346.04 C 671.03 345.97 635.88 345.98 600.73 346.04 C 602.33 344.07 603.60 341.87 604.70 339.60 C 605.86 337.51 607.23 335.53 608.29 333.38 C 609.26 331.36 610.51 329.49 611.70 327.60 C 612.95 325.22 614.55 323.05 615.69 320.62 C 616.94 318.23 618.55 316.04 619.71 313.60 C 620.86 311.48 622.23 309.49 623.35 307.35 C 623.78 306.42 624.22 305.50 624.66 304.58 C 625.49 303.17 626.47 301.85 627.32 300.44 C 628.57 298.58 629.69 296.63 630.69 294.61 C 631.80 292.47 633.23 290.50 634.35 288.36 C 634.78 287.43 635.22 286.50 635.66 285.58 C 636.49 284.16 637.48 282.84 638.34 281.44 C 639.76 279.15 640.98 276.74 642.30 274.40 C 643.59 272.57 644.70 270.62 645.69 268.61 C 646.80 266.47 648.24 264.53 649.30 262.37 C 650.47 259.69 652.63 257.51 653.35 254.63 Z" />
<path fill="#000000" opacity="1.00" d=" M 399.42 295.00 C 399.71 295.00 400.30 295.00 400.59 295.00 C 401.32 296.64 402.42 298.07 403.34 299.60 C 403.78 300.53 404.21 301.46 404.65 302.40 C 405.50 303.83 406.50 305.17 407.30 306.63 C 408.18 308.37 409.33 309.95 410.35 311.61 C 410.78 312.53 411.21 313.47 411.65 314.40 C 412.67 316.06 413.80 317.65 414.77 319.35 C 414.98 319.86 415.41 320.90 415.63 321.41 C 416.50 322.83 417.50 324.17 418.36 325.61 C 418.78 326.53 419.21 327.46 419.65 328.40 C 420.50 329.82 421.50 331.17 422.30 332.64 C 423.19 334.37 424.33 335.95 425.35 337.61 C 425.78 338.53 426.21 339.46 426.64 340.39 C 427.49 341.82 428.49 343.15 429.33 344.59 C 430.56 347.85 433.00 350.43 434.27 353.67 C 435.34 355.61 436.68 357.38 437.71 359.35 C 438.09 360.81 439.18 361.93 440.66 362.29 C 442.38 363.18 443.94 364.33 445.59 365.35 C 446.52 365.78 447.45 366.21 448.39 366.64 C 449.82 367.49 451.16 368.49 452.58 369.37 C 453.10 369.59 454.14 370.02 454.66 370.23 C 456.35 371.20 457.94 372.33 459.61 373.36 C 460.53 373.78 461.47 374.22 462.40 374.65 C 464.05 375.67 465.63 376.81 467.37 377.70 C 469.07 378.65 470.65 379.80 472.35 380.77 C 472.87 380.99 473.91 381.42 474.43 381.63 C 475.84 382.50 477.17 383.50 478.61 384.36 C 479.53 384.78 480.46 385.21 481.40 385.65 C 482.82 386.49 484.15 387.49 485.59 388.33 C 488.36 389.46 490.76 391.25 493.36 392.70 C 495.65 394.11 497.91 395.60 500.40 396.68 C 501.93 397.58 503.36 398.67 505.00 399.41 C 505.00 399.71 505.00 400.29 505.00 400.59 C 503.12 401.46 501.45 402.72 499.67 403.76 C 499.15 403.98 498.10 404.41 497.58 404.63 C 495.94 405.67 494.36 406.82 492.63 407.70 C 490.92 408.65 489.34 409.80 487.65 410.77 C 487.13 410.99 486.09 411.42 485.57 411.63 C 484.16 412.50 482.83 413.49 481.43 414.37 C 480.91 414.58 479.87 415.01 479.34 415.23 C 477.65 416.19 476.06 417.33 474.40 418.35 C 473.46 418.78 472.52 419.21 471.59 419.66 C 470.17 420.50 468.83 421.49 467.38 422.29 C 465.39 423.32 463.58 424.64 461.65 425.77 C 461.14 425.99 460.10 426.41 459.58 426.63 C 457.37 428.17 455.09 429.60 452.60 430.67 C 450.35 432.14 448.08 433.61 445.59 434.67 C 443.93 435.66 442.37 436.81 440.66 437.71 C 439.18 438.08 438.08 439.18 437.71 440.65 C 436.82 442.37 435.66 443.94 434.65 445.59 C 434.21 446.53 433.78 447.46 433.35 448.41 C 432.49 449.83 431.49 451.17 430.64 452.60 C 430.21 453.53 429.78 454.47 429.35 455.41 C 428.50 456.83 427.50 458.16 426.63 459.57 C 426.42 460.10 425.98 461.14 425.77 461.66 C 424.64 463.58 423.32 465.39 422.30 467.37 C 420.88 469.66 419.38 471.91 418.33 474.40 C 417.49 475.84 416.49 477.18 415.64 478.61 C 415.21 479.54 414.78 480.47 414.35 481.41 C 413.49 482.83 412.49 484.17 411.64 485.61 C 411.21 486.53 410.78 487.46 410.35 488.39 C 409.33 490.04 408.18 491.62 407.30 493.37 C 406.50 494.83 405.50 496.16 404.65 497.60 C 404.21 498.52 403.78 499.45 403.35 500.39 C 402.42 501.92 401.33 503.36 400.58 505.00 C 400.29 505.00 399.71 505.00 399.42 505.00 C 398.52 503.12 397.27 501.45 396.23 499.65 C 396.01 499.14 395.58 498.10 395.36 497.58 C 394.49 496.16 393.49 494.83 392.69 493.37 C 391.67 491.38 390.35 489.58 389.23 487.66 C 389.01 487.13 388.58 486.09 388.37 485.57 C 387.49 484.15 386.49 482.82 385.64 481.39 C 385.21 480.46 384.78 479.53 384.36 478.61 C 383.50 477.17 382.50 475.83 381.63 474.42 C 381.41 473.90 380.99 472.87 380.77 472.35 C 379.80 470.65 378.65 469.07 377.70 467.37 C 376.81 465.63 375.67 464.06 374.67 462.40 C 373.53 459.64 371.77 457.22 370.27 454.66 C 369.17 451.66 366.83 449.35 365.73 446.35 C 364.81 444.64 363.66 443.07 362.68 441.40 C 362.05 439.78 361.21 438.09 359.35 437.71 C 357.61 436.82 356.05 435.66 354.41 434.63 C 353.90 434.41 352.86 433.99 352.35 433.77 C 350.41 432.65 348.59 431.35 346.67 430.24 C 346.14 430.02 345.09 429.58 344.57 429.37 C 343.15 428.49 341.82 427.49 340.40 426.64 C 339.46 426.21 338.53 425.78 337.59 425.35 C 335.94 424.32 334.36 423.18 332.63 422.30 C 330.94 421.34 329.37 420.20 327.66 419.28 C 325.39 418.38 323.41 416.97 321.39 415.64 C 320.46 415.21 319.53 414.78 318.61 414.36 C 317.18 413.50 315.84 412.50 314.41 411.65 C 313.47 411.21 312.53 410.78 311.60 410.35 C 309.94 409.33 308.37 408.18 306.63 407.30 C 305.16 406.50 303.82 405.50 302.39 404.65 C 301.46 404.21 300.53 403.77 299.60 403.34 C 298.06 402.42 296.63 401.32 295.00 400.58 C 295.00 400.29 295.00 399.69 295.00 399.40 C 297.53 398.14 299.77 396.37 302.42 395.32 C 304.07 394.32 305.64 393.17 307.38 392.30 C 308.84 391.50 310.17 390.50 311.61 389.65 C 312.53 389.21 313.46 388.78 314.40 388.35 C 316.06 387.33 317.65 386.20 319.34 385.23 C 319.87 385.01 320.91 384.58 321.43 384.37 C 322.84 383.49 324.17 382.49 325.59 381.65 C 326.53 381.21 327.47 380.78 328.41 380.34 C 329.83 379.49 331.17 378.49 332.63 377.70 C 334.61 376.67 336.42 375.35 338.35 374.23 C 338.86 374.01 339.90 373.59 340.42 373.37 C 341.83 372.50 343.16 371.50 344.57 370.63 C 345.09 370.42 346.13 369.99 346.65 369.77 C 348.58 368.65 350.38 367.34 352.34 366.27 C 354.59 365.39 356.55 363.97 358.58 362.68 C 360.20 362.06 361.90 361.21 362.29 359.34 C 363.33 357.37 364.66 355.57 365.78 353.65 C 365.99 353.13 366.41 352.10 366.62 351.58 C 368.17 349.37 369.61 347.08 370.67 344.59 C 371.50 343.16 372.49 341.83 373.32 340.41 C 374.38 337.92 375.88 335.67 377.29 333.38 C 378.73 330.77 380.53 328.37 381.67 325.60 C 382.50 324.17 383.49 322.84 384.32 321.41 C 385.73 317.94 388.25 315.08 389.67 311.61 C 390.66 309.94 391.81 308.36 392.70 306.62 C 393.65 304.92 394.79 303.34 395.77 301.66 C 395.98 301.14 396.42 300.10 396.64 299.58 C 397.58 298.06 398.68 296.64 399.42 295.00 M 385.00 385.00 C 385.00 395.00 385.00 405.00 385.00 415.00 C 395.00 415.00 405.00 415.00 415.00 415.00 C 415.00 405.00 415.00 395.00 415.00 385.00 C 405.00 385.00 395.00 385.00 385.00 385.00 Z" />
<path fill="#000000" opacity="1.00" d=" M 199.99 346.71 C 201.60 348.31 203.55 349.45 205.66 350.26 C 207.36 351.18 208.94 352.32 210.57 353.37 C 211.09 353.58 212.13 354.01 212.65 354.23 C 214.34 355.20 215.93 356.34 217.63 357.30 C 219.35 358.17 220.92 359.32 222.58 360.32 C 226.06 361.72 228.91 364.26 232.39 365.67 C 234.07 366.66 235.65 367.80 237.35 368.77 C 237.86 368.99 238.90 369.42 239.41 369.63 C 240.83 370.50 242.16 371.50 243.63 372.30 C 245.37 373.17 246.94 374.32 248.58 375.37 C 249.10 375.58 250.14 376.01 250.66 376.23 C 252.35 377.19 253.93 378.33 255.58 379.37 C 256.10 379.58 257.14 380.02 257.65 380.23 C 259.34 381.20 260.92 382.34 262.63 383.30 C 264.36 384.18 265.94 385.33 267.60 386.35 C 268.53 386.78 269.47 387.21 270.41 387.65 C 271.84 388.50 273.17 389.50 274.61 390.36 C 275.53 390.78 276.46 391.21 277.39 391.64 C 278.82 392.49 280.16 393.49 281.60 394.33 C 284.09 395.39 286.38 396.82 288.58 398.40 C 289.19 398.62 290.40 399.06 291.00 399.28 C 291.00 399.64 291.00 400.36 291.00 400.73 C 290.39 400.95 289.18 401.39 288.58 401.61 C 287.17 402.49 285.84 403.49 284.43 404.37 C 283.91 404.59 282.87 405.02 282.34 405.23 C 280.41 406.35 278.58 407.65 276.65 408.77 C 276.13 408.99 275.09 409.42 274.57 409.63 C 273.16 410.50 271.83 411.49 270.43 412.37 C 269.91 412.58 268.87 413.01 268.35 413.23 C 266.42 414.35 264.61 415.67 262.62 416.70 C 260.33 418.12 258.09 419.61 255.60 420.67 C 254.15 421.50 252.82 422.50 251.39 423.36 C 250.46 423.78 249.52 424.21 248.60 424.65 C 246.94 425.67 245.36 426.82 243.62 427.70 C 242.16 428.50 240.82 429.50 239.39 430.35 C 238.46 430.78 237.53 431.21 236.60 431.65 C 234.36 433.15 232.08 434.61 229.59 435.68 C 228.15 436.50 226.83 437.49 225.41 438.35 C 224.47 438.78 223.53 439.21 222.60 439.65 C 221.17 440.50 219.83 441.50 218.37 442.30 C 216.63 443.18 215.05 444.33 213.40 445.35 C 212.46 445.78 211.53 446.21 210.60 446.65 C 209.16 447.50 207.82 448.50 206.40 449.36 C 205.46 449.78 204.53 450.20 203.59 450.62 C 202.29 451.36 201.13 452.32 199.98 453.27 C 200.02 417.75 200.00 382.23 199.99 346.71 Z" />
<path fill="#000000" opacity="1.00" d=" M 596.41 349.38 C 597.71 348.63 598.86 347.67 600.02 346.73 C 599.98 382.24 599.99 417.75 600.02 453.26 C 598.66 452.10 597.23 451.05 595.66 450.22 C 595.14 450.01 594.09 449.58 593.57 449.37 C 592.15 448.49 590.82 447.49 589.40 446.64 C 588.46 446.21 587.52 445.78 586.60 445.35 C 584.94 444.32 583.36 443.18 581.63 442.30 C 580.16 441.50 578.82 440.50 577.39 439.65 C 576.45 439.21 575.52 438.77 574.59 438.35 C 573.16 437.49 571.83 436.50 570.41 435.65 C 569.46 435.21 568.52 434.78 567.59 434.35 C 566.16 433.49 564.83 432.50 563.40 431.67 C 560.91 430.61 558.65 429.11 556.36 427.69 C 554.63 426.81 553.06 425.67 551.40 424.67 C 548.64 423.51 546.19 421.80 543.66 420.23 C 543.14 420.01 542.09 419.58 541.57 419.36 C 539.93 418.32 538.36 417.17 536.63 416.30 C 534.92 415.34 533.34 414.20 531.65 413.23 C 531.13 413.02 530.10 412.59 529.58 412.37 C 528.17 411.50 526.85 410.50 525.42 409.68 C 522.92 408.61 520.64 407.15 518.39 405.64 C 517.45 405.21 516.52 404.78 515.59 404.35 C 514.16 403.49 512.83 402.49 511.43 401.61 C 510.82 401.39 509.61 400.95 509.00 400.72 C 509.00 400.36 509.00 399.64 509.00 399.28 C 509.61 399.05 510.82 398.61 511.43 398.39 C 512.84 397.49 514.17 396.49 515.61 395.64 C 516.53 395.20 517.46 394.78 518.40 394.35 C 519.82 393.49 521.16 392.50 522.60 391.67 C 525.09 390.61 527.35 389.14 529.59 387.67 C 532.09 386.62 534.34 385.12 536.63 383.70 C 538.60 382.68 540.39 381.35 542.33 380.28 C 544.59 379.38 546.57 377.97 548.59 376.64 C 549.52 376.21 550.45 375.78 551.39 375.35 C 552.81 374.50 554.15 373.50 555.62 372.71 C 557.35 371.82 558.92 370.67 560.59 369.68 C 563.08 368.60 565.35 367.16 567.59 365.65 C 568.53 365.21 569.47 364.78 570.42 364.35 C 571.83 363.49 573.15 362.50 574.58 361.68 C 577.36 360.54 579.76 358.74 582.37 357.30 C 583.83 356.50 585.17 355.50 586.60 354.65 C 587.53 354.21 588.46 353.78 589.41 353.35 C 590.83 352.49 592.17 351.49 593.61 350.64 C 594.53 350.21 595.47 349.79 596.41 349.38 Z" />
<path fill="#000000" opacity="1.00" d=" M 87.40 350.34 C 88.91 349.43 90.34 348.37 91.93 347.57 C 92.05 382.52 92.05 417.48 91.92 452.43 C 90.34 451.63 88.92 450.56 87.40 449.66 C 86.47 449.22 85.54 448.78 84.61 448.35 C 83.17 447.49 81.84 446.50 80.38 445.70 C 78.63 444.82 77.05 443.67 75.40 442.65 C 74.46 442.21 73.53 441.78 72.59 441.36 C 70.36 439.83 68.08 438.39 65.59 437.32 C 63.93 436.32 62.36 435.18 60.63 434.30 C 58.93 433.34 57.35 432.20 55.65 431.23 C 55.14 431.02 54.10 430.58 53.58 430.37 C 51.94 429.33 50.38 428.19 48.67 427.28 C 46.40 426.38 44.43 424.97 42.41 423.65 C 41.47 423.21 40.53 422.78 39.59 422.35 C 37.94 421.32 36.36 420.18 34.63 419.30 C 32.93 418.34 31.34 417.20 29.65 416.23 C 29.13 416.01 28.09 415.58 27.57 415.37 C 26.16 414.49 24.82 413.49 23.40 412.64 C 22.47 412.21 21.54 411.78 20.61 411.36 C 19.18 410.50 17.83 409.50 16.39 408.64 C 15.46 408.21 14.54 407.78 13.61 407.35 C 11.95 406.33 10.36 405.17 8.61 404.30 C 7.16 403.50 5.84 402.50 4.44 401.62 C 3.83 401.40 2.61 400.95 2.00 400.72 C 2.00 400.36 2.00 399.64 2.00 399.28 C 2.61 399.05 3.82 398.61 4.43 398.38 C 6.06 397.32 7.63 396.16 9.38 395.30 C 11.66 393.87 13.92 392.38 16.41 391.33 C 17.84 390.50 19.16 389.50 20.57 388.64 C 21.09 388.42 22.13 387.99 22.66 387.77 C 24.35 386.80 25.93 385.66 27.61 384.67 C 30.37 383.53 32.77 381.74 35.36 380.30 C 37.44 379.06 39.40 377.61 41.66 376.73 C 44.23 375.22 46.65 373.46 49.41 372.32 C 50.85 371.49 52.18 370.50 53.60 369.65 C 54.53 369.21 55.46 368.78 56.40 368.35 C 58.05 367.33 59.63 366.18 61.37 365.30 C 63.06 364.34 64.63 363.20 66.34 362.28 C 68.60 361.38 70.56 359.96 72.60 358.67 C 75.37 357.54 77.77 355.74 80.37 354.30 C 81.83 353.50 83.17 352.50 84.60 351.65 C 85.53 351.21 86.46 350.78 87.40 350.34 Z" />
<path fill="#000000" opacity="1.00" d=" M 708.08 347.57 C 709.66 348.35 711.07 349.43 712.57 350.36 C 713.09 350.58 714.14 351.01 714.66 351.23 C 716.58 352.35 718.38 353.67 720.36 354.70 C 721.82 355.49 723.16 356.49 724.60 357.35 C 725.53 357.78 726.46 358.21 727.41 358.65 C 728.83 359.50 730.16 360.50 731.60 361.35 C 732.52 361.78 733.46 362.21 734.40 362.65 C 735.82 363.50 737.16 364.50 738.64 365.30 C 741.01 366.56 743.12 368.30 745.67 369.27 C 748.22 370.77 750.63 372.53 753.40 373.67 C 754.82 374.50 756.15 375.49 757.60 376.33 C 760.36 377.47 762.77 379.25 765.37 380.70 C 766.83 381.49 768.16 382.49 769.59 383.34 C 770.52 383.78 771.46 384.21 772.41 384.65 C 774.63 386.15 776.91 387.60 779.40 388.67 C 781.65 390.14 783.91 391.61 786.41 392.68 C 788.07 393.67 789.64 394.82 791.38 395.70 C 792.84 396.49 794.16 397.50 795.58 398.38 C 796.18 398.61 797.39 399.05 798.00 399.28 C 798.00 399.64 798.00 400.36 798.00 400.72 C 797.39 400.95 796.18 401.39 795.58 401.62 C 794.16 402.50 792.83 403.51 791.38 404.30 C 789.62 405.18 788.05 406.33 786.40 407.35 C 785.45 407.78 784.52 408.21 783.59 408.65 C 781.92 409.67 780.34 410.80 778.65 411.77 C 778.13 411.99 777.10 412.41 776.58 412.63 C 774.37 414.17 772.08 415.60 769.60 416.67 C 767.93 417.67 766.36 418.81 764.63 419.70 C 763.16 420.49 761.83 421.49 760.42 422.36 C 759.90 422.58 758.86 423.01 758.35 423.23 C 756.64 424.18 755.06 425.32 753.43 426.37 C 752.90 426.58 751.86 427.01 751.34 427.23 C 749.01 428.61 746.87 430.29 744.33 431.28 C 742.62 432.20 741.05 433.34 739.37 434.30 C 737.63 435.17 736.06 436.32 734.43 437.36 C 733.91 437.58 732.86 438.01 732.34 438.23 C 729.80 439.79 727.36 441.51 724.60 442.67 C 722.93 443.67 721.35 444.81 719.62 445.70 C 717.34 447.12 715.09 448.60 712.61 449.67 C 711.08 450.56 709.65 451.62 708.07 452.43 C 707.95 417.48 707.95 382.52 708.08 347.57 Z" />
<path fill="#000000" opacity="1.00" d=" M 93.83 453.96 C 128.95 454.05 164.08 453.98 199.21 453.99 C 198.04 456.20 196.45 458.13 195.26 460.33 C 194.45 462.63 192.98 464.57 191.64 466.58 C 190.72 468.61 189.92 470.76 188.28 472.34 C 187.38 474.93 185.53 476.97 184.26 479.36 C 183.29 481.88 181.59 484.00 180.27 486.34 C 179.39 488.60 177.96 490.57 176.66 492.60 C 174.57 497.05 171.79 501.12 169.26 505.33 C 168.45 507.64 166.97 509.57 165.64 511.59 C 164.71 513.62 163.92 515.78 162.26 517.34 C 161.12 519.77 160.15 522.38 158.27 524.36 C 157.43 526.63 155.99 528.57 154.65 530.57 C 153.67 533.09 152.21 535.34 150.67 537.54 C 149.79 540.40 147.51 542.52 146.64 545.35 C 145.91 544.40 145.17 543.46 144.64 542.39 C 144.22 541.45 143.79 540.53 143.36 539.61 C 142.50 538.17 141.50 536.83 140.65 535.40 C 140.21 534.46 139.78 533.53 139.35 532.60 C 138.49 531.17 137.49 529.82 136.70 528.36 C 135.81 526.63 134.67 525.05 133.66 523.41 C 133.22 522.47 132.79 521.53 132.35 520.61 C 131.34 518.95 130.20 517.37 129.28 515.66 C 128.39 513.40 126.95 511.45 125.70 509.39 C 124.82 507.64 123.67 506.06 122.65 504.40 C 122.22 503.46 121.78 502.52 121.35 501.59 C 120.50 500.17 119.50 498.84 118.67 497.41 C 117.61 494.92 116.16 492.64 114.65 490.41 C 114.21 489.46 113.78 488.52 113.35 487.59 C 112.32 485.93 111.18 484.36 110.30 482.63 C 109.50 481.17 108.51 479.83 107.66 478.41 C 107.22 477.47 106.78 476.53 106.35 475.60 C 105.33 473.93 104.20 472.35 103.23 470.66 C 103.02 470.14 102.58 469.09 102.37 468.57 C 101.49 467.16 100.50 465.83 99.65 464.41 C 99.21 463.46 98.78 462.52 98.35 461.59 C 97.50 460.17 96.50 458.84 95.69 457.41 C 95.10 456.24 94.48 455.08 93.83 453.96 Z" />
<path fill="#000000" opacity="1.00" d=" M 600.79 453.99 C 635.91 453.98 671.03 454.06 706.16 453.96 C 705.65 454.84 705.17 455.74 704.72 456.66 C 703.23 459.22 701.47 461.64 700.33 464.40 C 699.49 465.83 698.50 467.16 697.63 468.58 C 697.42 469.10 696.99 470.13 696.77 470.65 C 695.81 472.34 694.67 473.93 693.63 475.57 C 693.42 476.09 692.98 477.14 692.77 477.66 C 691.64 479.58 690.32 481.39 689.30 483.37 C 688.49 484.83 687.49 486.17 686.65 487.61 C 686.21 488.53 685.78 489.46 685.35 490.40 C 684.33 492.05 683.19 493.62 682.28 495.33 C 681.38 497.60 679.96 499.58 678.64 501.60 C 678.20 502.53 677.78 503.46 677.35 504.39 C 676.33 506.04 675.18 507.62 674.30 509.37 C 673.50 510.82 672.50 512.16 671.65 513.60 C 671.21 514.52 670.78 515.46 670.35 516.39 C 669.50 517.82 668.50 519.15 667.67 520.60 C 666.61 523.09 665.11 525.34 663.69 527.64 C 662.82 529.37 661.67 530.93 660.64 532.57 C 660.42 533.09 659.99 534.14 659.77 534.66 C 658.80 536.35 657.67 537.93 656.64 539.57 C 656.42 540.09 655.98 541.13 655.76 541.65 C 655.07 542.95 654.28 544.20 653.37 545.36 C 652.50 542.55 650.23 540.44 649.35 537.59 C 648.01 535.56 646.54 533.62 645.72 531.31 C 644.64 529.38 643.30 527.60 642.31 525.62 C 641.76 524.54 641.05 523.56 640.33 522.62 C 639.43 520.87 638.52 519.14 637.73 517.35 C 636.06 515.76 635.27 513.58 634.34 511.55 C 632.77 509.34 631.31 507.07 630.33 504.53 C 628.98 502.55 627.56 500.61 626.72 498.34 C 625.07 496.75 624.27 494.59 623.35 492.57 C 621.80 490.36 620.33 488.12 619.36 485.59 C 618.02 483.57 616.54 481.62 615.72 479.31 C 614.64 477.37 613.29 475.61 612.32 473.63 C 611.08 471.54 609.51 469.64 608.73 467.31 C 607.21 464.76 605.45 462.36 604.35 459.60 C 603.18 457.71 601.83 455.95 600.79 453.99 Z" />
<path fill="#000000" opacity="1.00" d=" M 199.32 456.28 C 200.95 454.81 201.62 457.57 202.36 458.61 C 202.78 459.54 203.21 460.47 203.65 461.41 C 204.51 462.83 205.50 464.17 206.35 465.60 C 206.78 466.53 207.22 467.47 207.66 468.40 C 208.50 469.83 209.50 471.17 210.30 472.63 C 211.18 474.36 212.33 475.93 213.33 477.60 C 214.58 480.85 216.99 483.44 218.28 486.67 C 219.19 488.37 220.34 489.94 221.33 491.60 C 222.47 494.37 224.27 496.77 225.71 499.38 C 226.50 500.84 227.50 502.17 228.35 503.60 C 228.78 504.53 229.22 505.47 229.65 506.41 C 230.50 507.83 231.50 509.17 232.35 510.60 C 232.78 511.52 233.21 512.45 233.65 513.39 C 234.50 514.82 235.50 516.16 236.30 517.63 C 237.32 519.61 238.65 521.42 239.77 523.35 C 239.99 523.87 240.42 524.91 240.63 525.43 C 241.50 526.83 242.50 528.16 243.35 529.59 C 243.78 530.52 244.21 531.46 244.65 532.40 C 245.50 533.82 246.49 535.16 247.35 536.58 C 247.78 537.51 248.20 538.45 248.64 539.40 C 249.49 540.82 250.49 542.15 251.38 543.56 C 251.60 544.16 252.05 545.38 252.28 545.98 C 217.39 545.99 182.51 546.05 147.63 545.95 C 148.58 543.61 150.21 541.64 151.30 539.37 C 152.49 536.96 154.04 534.75 155.29 532.38 C 156.27 530.36 157.51 528.48 158.72 526.59 C 160.00 524.23 161.36 521.92 162.67 519.58 C 163.98 517.23 165.55 515.03 166.71 512.60 C 168.02 510.25 169.53 508.03 170.70 505.61 C 171.95 503.22 173.52 501.01 174.70 498.58 C 175.51 497.13 176.50 495.81 177.35 494.39 C 177.79 493.45 178.22 492.51 178.66 491.58 C 179.67 489.92 180.80 488.34 181.77 486.66 C 181.99 486.13 182.42 485.08 182.64 484.56 C 183.68 482.93 184.82 481.36 185.71 479.64 C 186.60 477.90 187.69 476.28 188.68 474.61 C 189.96 472.24 191.54 470.05 192.69 467.62 C 193.79 465.47 195.23 463.53 196.31 461.38 C 197.16 459.59 198.16 457.88 199.32 456.28 Z" />
<path fill="#000000" opacity="1.00" d=" M 597.64 458.62 C 598.40 457.56 598.99 454.84 600.68 456.26 C 601.65 457.65 602.56 459.09 603.29 460.64 C 604.17 462.36 605.31 463.92 606.35 465.56 C 606.58 466.08 607.02 467.11 607.25 467.63 C 609.11 471.05 611.25 474.31 613.34 477.60 C 613.77 478.51 614.20 479.42 614.65 480.35 C 615.90 482.75 617.47 484.98 618.72 487.39 C 619.77 489.54 621.14 491.50 622.29 493.60 C 623.44 496.02 625.02 498.20 626.29 500.56 C 627.30 502.24 628.41 503.86 629.31 505.62 C 630.46 508.03 631.98 510.25 633.29 512.60 C 635.38 516.76 638.18 520.52 640.30 524.67 C 641.19 526.37 642.33 527.93 643.34 529.58 C 643.77 530.50 644.20 531.42 644.65 532.35 C 645.90 534.74 647.46 536.96 648.70 539.36 C 649.77 541.64 651.41 543.60 652.37 545.95 C 617.49 546.05 582.60 545.99 547.72 545.98 C 547.94 545.38 548.39 544.18 548.61 543.58 C 549.49 542.16 550.49 540.83 551.36 539.40 C 551.78 538.46 552.21 537.53 552.64 536.61 C 554.15 534.37 555.60 532.09 556.67 529.60 C 557.50 528.16 558.49 526.83 559.33 525.40 C 560.46 522.63 562.26 520.23 563.70 517.63 C 565.11 515.33 566.62 513.09 567.67 510.59 C 568.49 509.15 569.49 507.83 570.37 506.43 C 570.58 505.91 571.01 504.87 571.23 504.35 C 572.19 502.66 573.34 501.08 574.29 499.38 C 575.16 497.64 576.31 496.06 577.36 494.43 C 577.58 493.91 578.01 492.87 578.23 492.35 C 579.35 490.41 580.64 488.58 581.77 486.65 C 581.99 486.14 582.41 485.10 582.63 484.58 C 583.50 483.16 584.50 481.82 585.36 480.40 C 585.78 479.46 586.21 478.53 586.64 477.61 C 587.66 475.95 588.81 474.37 589.70 472.63 C 590.65 470.92 591.79 469.34 592.77 467.66 C 592.98 467.14 593.41 466.10 593.63 465.58 C 594.50 464.16 595.49 462.82 596.36 461.40 C 596.78 460.47 597.21 459.54 597.64 458.62 Z" />
<path fill="#000000" opacity="1.00" d=" M 399.28 509.00 C 399.64 509.00 400.36 509.00 400.72 509.00 C 400.95 509.61 401.39 510.82 401.61 511.43 C 402.49 512.82 403.50 514.15 404.33 515.59 C 405.38 518.08 406.83 520.36 408.37 522.58 C 408.59 523.10 409.01 524.13 409.23 524.65 C 410.19 526.34 411.33 527.92 412.34 529.59 C 412.77 530.52 413.21 531.45 413.65 532.39 C 414.50 533.82 415.50 535.16 416.30 536.63 C 417.18 538.36 418.33 539.94 419.35 541.60 C 419.78 542.52 420.21 543.45 420.64 544.39 C 422.15 546.63 423.60 548.90 424.67 551.39 C 425.67 553.06 426.82 554.64 427.70 556.38 C 428.49 557.84 429.49 559.17 430.37 560.59 C 430.58 561.10 431.01 562.14 431.23 562.65 C 432.19 564.35 433.33 565.94 434.36 567.61 C 434.78 568.54 435.21 569.47 435.65 570.41 C 437.17 572.63 438.60 574.91 439.67 577.40 C 440.50 578.83 441.50 580.17 442.30 581.63 C 443.74 584.23 445.53 586.63 446.67 589.40 C 447.66 591.07 448.80 592.65 449.78 594.34 C 449.98 594.87 450.40 595.92 450.60 596.45 C 451.38 597.71 452.32 598.86 453.26 600.02 C 417.75 599.99 382.24 599.98 346.73 600.03 C 347.67 598.86 348.63 597.71 349.38 596.41 C 349.79 595.46 350.21 594.53 350.64 593.61 C 351.49 592.17 352.49 590.83 353.35 589.41 C 353.78 588.47 354.21 587.54 354.65 586.61 C 355.50 585.17 356.50 583.83 357.30 582.37 C 358.18 580.62 359.33 579.04 360.35 577.39 C 360.78 576.46 361.21 575.53 361.64 574.61 C 363.15 572.37 364.60 570.09 365.67 567.60 C 366.50 566.15 367.50 564.81 368.36 563.39 C 368.78 562.45 369.21 561.53 369.65 560.61 C 370.67 558.94 371.81 557.36 372.70 555.63 C 373.49 554.16 374.49 552.82 375.35 551.39 C 375.78 550.46 376.21 549.53 376.65 548.60 C 377.50 547.17 378.50 545.82 379.35 544.39 C 379.78 543.45 380.22 542.52 380.65 541.60 C 381.50 540.17 382.50 538.84 383.29 537.38 C 384.54 534.99 386.29 532.88 387.28 530.34 C 388.19 528.63 389.33 527.06 390.33 525.40 C 391.40 522.91 392.85 520.62 394.36 518.39 C 394.78 517.45 395.21 516.52 395.64 515.60 C 396.49 514.16 397.50 512.83 398.39 511.43 C 398.61 510.82 399.05 509.61 399.28 509.00 Z" />
<path fill="#000000" opacity="1.00" d=" M 143.57 548.62 C 144.17 548.39 145.38 547.95 145.98 547.72 C 146.01 582.57 146.01 617.42 145.98 652.28 C 145.38 652.05 144.18 651.61 143.57 651.39 C 142.16 650.49 140.83 649.49 139.40 648.64 C 138.47 648.21 137.54 647.78 136.60 647.36 C 135.18 646.50 133.84 645.50 132.43 644.63 C 131.91 644.42 130.86 643.99 130.34 643.77 C 128.65 642.80 127.06 641.67 125.42 640.63 C 124.90 640.42 123.86 639.99 123.35 639.77 C 121.42 638.64 119.62 637.32 117.63 636.30 C 116.17 635.50 114.84 634.50 113.41 633.66 C 112.47 633.21 111.54 632.78 110.61 632.36 C 109.17 631.49 107.83 630.49 106.39 629.64 C 105.46 629.21 104.53 628.77 103.60 628.35 C 102.17 627.49 100.83 626.49 99.36 625.70 C 96.77 624.25 94.37 622.46 91.60 621.34 C 89.36 619.85 87.09 618.39 84.61 617.33 C 83.17 616.50 81.84 615.50 80.40 614.67 C 77.91 613.61 75.66 612.12 73.37 610.70 C 71.63 609.82 70.06 608.67 68.41 607.65 C 67.47 607.21 66.54 606.78 65.60 606.35 C 64.17 605.50 62.84 604.50 61.41 603.65 C 60.48 603.21 59.55 602.78 58.62 602.36 C 57.67 601.72 56.01 601.39 55.96 600.03 C 55.94 598.61 57.65 598.27 58.60 597.65 C 59.54 597.21 60.47 596.78 61.40 596.35 C 62.83 595.49 64.17 594.49 65.61 593.65 C 66.54 593.21 67.47 592.77 68.40 592.35 C 69.82 591.49 71.16 590.49 72.62 589.71 C 75.22 588.26 77.62 586.47 80.40 585.33 C 81.83 584.50 83.16 583.50 84.57 582.63 C 85.09 582.42 86.13 581.99 86.65 581.77 C 88.35 580.80 89.94 579.66 91.61 578.64 C 92.54 578.21 93.47 577.78 94.40 577.35 C 96.05 576.32 97.63 575.18 99.38 574.30 C 101.66 572.88 103.90 571.39 106.39 570.33 C 108.05 569.34 109.62 568.19 111.33 567.28 C 113.87 566.30 115.98 564.56 118.37 563.30 C 119.84 562.50 121.18 561.50 122.61 560.65 C 123.54 560.21 124.47 559.78 125.40 559.35 C 127.06 558.33 128.65 557.19 130.35 556.23 C 130.86 556.01 131.90 555.59 132.42 555.37 C 133.83 554.50 135.16 553.50 136.57 552.63 C 137.09 552.42 138.14 551.98 138.67 551.77 C 140.36 550.80 141.94 549.67 143.57 548.62 Z" />
<path fill="#000000" opacity="1.00" d=" M 254.02 547.72 C 254.62 547.95 255.83 548.39 256.43 548.61 C 257.83 549.49 259.17 550.50 260.59 551.36 C 261.53 551.78 262.47 552.21 263.41 552.65 C 264.83 553.49 266.16 554.49 267.59 555.35 C 268.52 555.78 269.47 556.21 270.41 556.65 C 271.83 557.50 273.17 558.49 274.60 559.35 C 275.52 559.77 276.46 560.21 277.39 560.65 C 279.05 561.66 280.63 562.81 282.38 563.70 C 283.83 564.49 285.17 565.49 286.60 566.35 C 287.53 566.78 288.46 567.21 289.40 567.65 C 290.82 568.50 292.16 569.49 293.60 570.33 C 296.09 571.39 298.34 572.89 300.64 574.30 C 303.23 575.74 305.63 577.53 308.40 578.67 C 309.83 579.49 311.16 580.49 312.58 581.37 C 313.10 581.58 314.14 582.02 314.67 582.23 C 316.58 583.34 318.38 584.65 320.33 585.72 C 322.59 586.61 324.55 588.05 326.62 589.30 C 328.61 590.32 330.42 591.64 332.35 592.77 C 332.86 592.99 333.90 593.42 334.42 593.63 C 335.83 594.50 337.17 595.49 338.61 596.36 C 339.53 596.78 340.46 597.21 341.40 597.65 C 342.42 598.27 344.05 598.65 344.10 600.12 C 343.01 602.20 340.47 602.61 338.56 603.65 C 336.35 605.21 334.08 606.67 331.55 607.66 C 329.55 609.01 327.61 610.43 325.34 611.29 C 323.75 612.93 321.59 613.72 319.55 614.66 C 317.56 616.00 315.61 617.45 313.32 618.27 C 311.62 619.19 310.06 620.33 308.42 621.35 C 307.47 621.77 306.53 622.20 305.59 622.63 C 303.58 623.98 301.63 625.43 299.34 626.28 C 297.75 627.92 295.60 628.72 293.57 629.65 C 291.56 630.99 289.62 632.45 287.32 633.27 C 285.63 634.19 284.08 635.34 282.41 636.29 C 281.05 636.93 279.78 637.71 278.62 638.67 C 275.00 640.19 271.93 642.68 268.36 644.26 C 265.75 645.74 263.40 647.63 260.55 648.66 C 258.48 650.07 256.45 651.56 254.03 652.33 C 253.97 617.46 253.99 582.59 254.02 547.72 Z" />
<path fill="#000000" opacity="1.00" d=" M 543.57 548.61 C 544.18 548.39 545.38 547.95 545.98 547.72 C 546.01 582.59 546.03 617.46 545.97 652.33 C 543.23 651.52 541.11 649.61 538.66 648.26 C 536.34 647.44 534.40 645.96 532.38 644.62 C 531.44 644.19 530.51 643.77 529.58 643.35 C 528.15 642.49 526.82 641.49 525.40 640.65 C 524.46 640.21 523.53 639.78 522.61 639.36 C 519.36 637.20 515.92 635.39 512.67 633.26 C 510.36 632.45 508.42 630.98 506.42 629.64 C 504.39 628.71 502.24 627.92 500.66 626.28 C 498.08 625.37 496.03 623.56 493.68 622.26 C 491.37 621.45 489.44 619.99 487.44 618.66 C 484.91 617.68 482.66 616.21 480.46 614.67 C 477.88 613.70 475.65 612.11 473.34 610.67 C 471.61 609.82 470.06 608.66 468.42 607.67 C 465.60 606.58 463.18 604.80 460.66 603.19 C 459.48 602.73 458.33 602.24 457.16 601.83 C 454.80 600.24 456.58 598.26 458.61 597.64 C 459.54 597.21 460.47 596.78 461.41 596.35 C 462.82 595.49 464.15 594.50 465.59 593.68 C 468.36 592.53 470.76 590.74 473.38 589.30 C 475.44 588.06 477.39 586.61 479.66 585.73 C 481.61 584.65 483.42 583.35 485.34 582.23 C 485.86 582.01 486.90 581.59 487.42 581.37 C 488.83 580.49 490.16 579.50 491.58 578.63 C 492.10 578.41 493.14 577.98 493.66 577.77 C 495.34 576.79 496.92 575.65 498.63 574.70 C 500.36 573.81 501.95 572.66 503.61 571.65 C 504.54 571.21 505.47 570.77 506.41 570.35 C 508.64 568.83 510.92 567.39 513.41 566.32 C 514.84 565.49 516.17 564.49 517.63 563.70 C 519.36 562.81 520.94 561.67 522.60 560.65 C 523.53 560.21 524.46 559.78 525.40 559.36 C 526.82 558.50 528.16 557.50 529.58 556.63 C 530.10 556.42 531.13 555.99 531.65 555.77 C 533.34 554.81 534.93 553.67 536.57 552.63 C 537.09 552.42 538.13 551.99 538.66 551.77 C 540.35 550.81 541.93 549.67 543.57 548.61 Z" />
<path fill="#000000" opacity="1.00" d=" M 654.02 547.72 C 654.62 547.94 655.82 548.39 656.42 548.61 C 657.82 549.49 659.16 550.50 660.60 551.36 C 661.53 551.78 662.46 552.21 663.41 552.65 C 665.64 554.16 667.92 555.61 670.41 556.68 C 672.07 557.66 673.65 558.80 675.34 559.77 C 675.86 559.98 676.89 560.41 677.41 560.63 C 678.82 561.49 680.15 562.50 681.62 563.30 C 683.36 564.17 684.94 565.32 686.59 566.37 C 687.11 566.59 688.14 567.02 688.66 567.23 C 690.34 568.19 691.93 569.33 693.60 570.35 C 694.52 570.78 695.46 571.21 696.40 571.65 C 697.83 572.50 699.16 573.50 700.63 574.30 C 702.36 575.18 703.93 576.32 705.60 577.33 C 708.35 578.47 710.77 580.22 713.33 581.73 C 715.60 582.61 717.58 584.03 719.61 585.36 C 720.53 585.78 721.46 586.21 722.41 586.65 C 724.05 587.67 725.63 588.81 727.37 589.70 C 728.82 590.49 730.17 591.49 731.61 592.35 C 732.53 592.78 733.46 593.21 734.40 593.65 C 735.83 594.50 737.17 595.49 738.60 596.35 C 739.52 596.78 740.46 597.21 741.40 597.65 C 742.51 598.27 744.43 598.86 743.98 600.52 C 743.23 601.70 741.74 602.02 740.63 602.75 C 740.12 602.97 739.09 603.41 738.58 603.63 C 736.58 604.98 734.60 606.38 732.34 607.27 C 730.63 608.19 729.06 609.34 727.38 610.30 C 725.63 611.17 724.05 612.32 722.42 613.37 C 721.90 613.58 720.86 614.01 720.35 614.23 C 718.64 615.19 717.06 616.33 715.40 617.35 C 714.46 617.78 713.52 618.21 712.59 618.65 C 710.93 619.66 709.34 620.80 707.65 621.77 C 707.13 621.99 706.10 622.42 705.58 622.64 C 703.93 623.67 702.36 624.83 700.62 625.70 C 699.16 626.49 697.83 627.49 696.41 628.34 C 695.47 628.77 694.53 629.20 693.61 629.64 C 691.94 630.66 690.36 631.79 688.67 632.76 C 688.15 632.98 687.10 633.42 686.57 633.64 C 685.15 634.50 683.82 635.50 682.37 636.31 C 680.62 637.18 679.05 638.33 677.40 639.35 C 676.46 639.77 675.53 640.21 674.61 640.64 C 673.17 641.49 671.83 642.49 670.41 643.35 C 669.46 643.77 668.53 644.21 667.60 644.65 C 666.16 645.50 664.82 646.50 663.39 647.36 C 662.45 647.78 661.52 648.21 660.59 648.64 C 659.16 649.49 657.83 650.50 656.42 651.39 C 655.82 651.61 654.62 652.06 654.02 652.28 C 653.99 617.42 653.98 582.57 654.02 547.72 Z" />
<path fill="#000000" opacity="1.00" d=" M 339.61 604.68 C 341.88 603.59 344.07 602.33 346.03 600.74 C 345.99 635.88 345.96 671.03 346.04 706.17 C 344.90 705.51 343.75 704.90 342.59 704.31 C 341.15 703.49 339.83 702.50 338.41 701.67 C 334.93 700.28 332.09 697.73 328.60 696.34 C 327.17 695.50 325.84 694.50 324.43 693.64 C 323.91 693.42 322.85 692.98 322.33 692.76 C 320.41 691.63 318.61 690.32 316.64 689.31 C 314.34 687.88 312.09 686.39 309.60 685.33 C 308.15 684.49 306.82 683.49 305.40 682.64 C 304.46 682.20 303.52 681.77 302.59 681.35 C 300.35 679.83 298.08 678.39 295.60 677.33 C 293.93 676.32 292.35 675.17 290.62 674.30 C 289.16 673.50 287.83 672.50 286.41 671.66 C 285.47 671.21 284.53 670.78 283.60 670.35 C 281.93 669.33 280.35 668.19 278.65 667.23 C 278.13 667.01 277.09 666.58 276.57 666.36 C 275.16 665.49 273.83 664.49 272.38 663.70 C 269.77 662.26 267.37 660.47 264.60 659.33 C 263.16 658.49 261.82 657.50 260.39 656.65 C 259.46 656.20 258.54 655.77 257.61 655.36 C 256.52 654.82 255.57 654.06 254.63 653.34 C 257.50 652.61 259.73 650.55 262.36 649.30 C 264.55 648.24 266.50 646.75 268.68 645.68 C 270.38 644.80 271.93 643.66 273.58 642.70 C 276.04 641.55 278.23 639.94 280.64 638.70 C 282.36 637.81 283.93 636.67 285.58 635.66 C 286.51 635.22 287.44 634.78 288.37 634.34 C 290.48 633.17 292.47 631.81 294.60 630.70 C 296.61 629.71 298.55 628.59 300.39 627.33 C 302.53 626.21 304.49 624.77 306.65 623.70 C 309.24 622.25 311.62 620.46 314.38 619.33 C 316.77 618.09 318.94 616.46 321.37 615.30 C 323.53 614.23 325.47 612.81 327.60 611.70 C 329.26 610.67 330.87 609.57 332.62 608.69 C 335.05 607.54 337.24 605.94 339.61 604.68 Z" />
<path fill="#000000" opacity="1.00" d=" M 453.97 600.75 C 456.10 602.04 458.12 603.52 460.33 604.69 C 462.75 605.92 464.96 607.51 467.37 608.76 C 467.88 608.98 468.91 609.42 469.43 609.64 C 472.69 611.76 475.93 613.93 479.40 615.71 C 481.74 617.02 483.97 618.53 486.40 619.70 C 488.77 620.94 490.97 622.50 493.38 623.70 C 495.13 624.56 496.75 625.68 498.42 626.71 C 500.78 627.96 502.98 629.50 505.38 630.69 C 507.77 631.94 509.95 633.55 512.40 634.71 C 514.79 635.96 517.02 637.49 519.40 638.77 C 519.90 638.99 520.91 639.42 521.41 639.63 C 523.05 640.67 524.64 641.82 526.39 642.71 C 528.07 643.66 529.64 644.80 531.36 645.71 C 533.76 646.92 535.96 648.50 538.38 649.69 C 540.75 650.82 542.74 652.73 545.36 653.34 C 543.93 654.70 542.13 655.52 540.33 656.25 C 538.62 657.19 537.05 658.34 535.40 659.35 C 534.46 659.78 533.53 660.21 532.61 660.65 C 530.95 661.66 529.36 662.81 527.62 663.70 C 526.16 664.49 524.83 665.49 523.42 666.36 C 522.90 666.58 521.87 667.01 521.35 667.23 C 519.65 668.19 518.06 669.32 516.41 670.35 C 515.46 670.77 514.53 671.21 513.60 671.65 C 512.17 672.50 510.83 673.50 509.37 674.30 C 507.63 675.18 506.04 676.33 504.39 677.36 C 503.46 677.78 502.53 678.20 501.60 678.64 C 499.58 679.97 497.60 681.38 495.33 682.28 C 493.38 683.34 491.58 684.65 489.66 685.77 C 489.14 685.99 488.09 686.42 487.57 686.64 C 485.93 687.67 484.36 688.82 482.63 689.70 C 481.16 690.49 479.82 691.49 478.39 692.33 C 475.90 693.39 473.64 694.86 471.39 696.34 C 468.90 697.39 466.63 698.83 464.42 700.37 C 463.90 700.59 462.85 701.02 462.33 701.24 C 460.65 702.20 459.08 703.33 457.41 704.31 C 456.24 704.90 455.08 705.51 453.96 706.18 C 454.04 671.03 454.01 635.89 453.97 600.75 Z" />
<path fill="#000000" opacity="1.00" d=" M 147.72 654.02 C 182.58 653.99 217.43 653.99 252.28 654.02 C 252.05 654.62 251.61 655.82 251.39 656.43 C 250.50 657.83 249.49 659.17 248.64 660.60 C 248.21 661.53 247.78 662.46 247.35 663.40 C 246.33 665.06 245.20 666.65 244.23 668.35 C 244.01 668.87 243.58 669.90 243.37 670.42 C 242.49 671.83 241.49 673.17 240.64 674.61 C 240.21 675.53 239.78 676.46 239.35 677.39 C 238.50 678.82 237.50 680.15 236.70 681.62 C 235.82 683.36 234.67 684.94 233.65 686.60 C 233.21 687.53 232.78 688.47 232.35 689.41 C 230.84 691.64 229.40 693.91 228.33 696.39 C 227.49 697.83 226.50 699.16 225.70 700.62 C 224.67 702.60 223.35 704.41 222.23 706.34 C 222.01 706.86 221.58 707.90 221.37 708.42 C 220.50 709.83 219.50 711.16 218.65 712.59 C 218.21 713.52 217.78 714.46 217.36 715.41 C 216.02 717.42 214.61 719.39 213.72 721.66 C 212.80 723.36 211.65 724.93 210.71 726.62 C 209.26 729.22 207.47 731.62 206.33 734.40 C 205.50 735.83 204.51 737.16 203.65 738.59 C 203.22 739.51 202.78 740.44 202.35 741.38 C 201.74 742.52 201.13 744.37 199.47 744.00 C 198.31 743.20 197.96 741.76 197.25 740.63 C 197.03 740.12 196.58 739.09 196.36 738.57 C 195.49 737.15 194.50 735.83 193.65 734.41 C 193.21 733.46 192.78 732.53 192.35 731.60 C 191.49 730.16 190.49 728.82 189.70 727.37 C 188.26 724.76 186.46 722.37 185.33 719.60 C 184.50 718.16 183.50 716.82 182.65 715.41 C 182.22 714.47 181.79 713.53 181.36 712.61 C 180.33 710.95 179.19 709.37 178.27 707.66 C 177.38 705.39 175.94 703.43 174.69 701.37 C 173.68 699.38 172.35 697.58 171.23 695.66 C 171.02 695.14 170.59 694.10 170.37 693.57 C 168.82 691.37 167.39 689.08 166.33 686.60 C 165.33 684.93 164.18 683.36 163.30 681.63 C 161.88 679.34 160.38 677.08 159.33 674.59 C 158.50 673.15 157.50 671.83 156.67 670.41 C 155.54 667.63 153.78 665.22 152.27 662.67 C 151.39 660.38 149.98 658.40 148.60 656.42 C 148.38 655.82 147.94 654.62 147.72 654.02 Z" />
<path fill="#000000" opacity="1.00" d=" M 547.72 654.02 C 582.57 653.99 617.43 653.99 652.28 654.02 C 652.05 654.62 651.61 655.82 651.39 656.42 C 650.50 657.82 649.50 659.15 648.63 660.57 C 648.41 661.09 647.98 662.14 647.77 662.66 C 646.80 664.35 645.66 665.93 644.65 667.60 C 644.21 668.52 643.78 669.45 643.36 670.39 C 642.50 671.81 641.50 673.14 640.68 674.59 C 639.61 677.08 638.12 679.34 636.70 681.63 C 635.81 683.36 634.66 684.94 633.67 686.61 C 632.60 689.09 631.15 691.36 629.64 693.60 C 629.21 694.52 628.78 695.46 628.35 696.39 C 627.49 697.82 626.49 699.16 625.70 700.63 C 624.81 702.36 623.67 703.94 622.65 705.60 C 622.21 706.53 621.77 707.46 621.35 708.41 C 620.49 709.83 619.49 711.16 618.65 712.60 C 618.21 713.52 617.78 714.45 617.36 715.39 C 616.49 716.82 615.50 718.15 614.67 719.60 C 613.53 722.36 611.74 724.77 610.30 727.37 C 609.50 728.82 608.50 730.16 607.65 731.60 C 607.21 732.53 606.77 733.46 606.35 734.41 C 605.49 735.83 604.50 737.16 603.65 738.60 C 603.21 739.52 602.77 740.45 602.35 741.39 C 601.71 742.50 601.13 744.46 599.48 743.97 C 597.94 742.90 597.56 740.90 596.75 739.33 C 595.64 737.39 594.34 735.58 593.23 733.65 C 593.01 733.13 592.58 732.09 592.37 731.58 C 591.32 729.93 590.17 728.36 589.30 726.62 C 588.49 725.16 587.50 723.83 586.68 722.41 C 585.25 718.93 582.73 716.06 581.32 712.58 C 580.49 711.15 579.49 709.82 578.65 708.41 C 578.21 707.46 577.78 706.53 577.35 705.60 C 576.33 703.94 575.18 702.36 574.30 700.63 C 572.88 698.34 571.39 696.09 570.33 693.60 C 569.33 691.93 568.19 690.36 567.27 688.66 C 566.37 686.39 564.94 684.43 563.69 682.37 C 562.81 680.63 561.67 679.06 560.67 677.40 C 559.51 674.64 557.79 672.19 556.23 669.66 C 556.01 669.14 555.59 668.10 555.37 667.58 C 554.49 666.16 553.49 664.83 552.66 663.39 C 551.60 660.90 550.17 658.61 548.60 656.42 C 548.38 655.82 547.94 654.62 547.72 654.02 Z" />
<path fill="#000000" opacity="1.00" d=" M 347.57 708.08 C 382.52 707.95 417.48 707.95 452.43 708.08 C 451.63 709.65 450.56 711.08 449.65 712.61 C 449.21 713.52 448.78 714.45 448.35 715.38 C 447.50 716.81 446.50 718.16 445.70 719.63 C 444.82 721.35 443.67 722.93 442.68 724.59 C 441.60 727.08 440.16 729.36 438.64 731.60 C 438.21 732.52 437.78 733.45 437.35 734.40 C 436.32 736.05 435.17 737.63 434.29 739.39 C 433.50 740.83 432.50 742.16 431.65 743.59 C 431.22 744.52 430.78 745.45 430.36 746.39 C 429.50 747.81 428.50 749.15 427.67 750.60 C 426.61 753.08 425.15 755.36 423.65 757.59 C 423.21 758.52 422.78 759.45 422.35 760.39 C 421.49 761.82 420.49 763.16 419.70 764.63 C 418.25 767.23 416.46 769.63 415.33 772.40 C 414.49 773.84 413.49 775.17 412.64 776.60 C 412.21 777.53 411.78 778.46 411.35 779.40 C 410.49 780.82 409.49 782.16 408.67 783.61 C 407.61 786.09 406.11 788.34 404.70 790.63 C 403.83 792.37 402.67 793.94 401.61 795.57 C 401.39 796.18 400.95 797.39 400.72 798.00 C 400.36 798.00 399.64 798.00 399.28 798.00 C 399.05 797.39 398.61 796.18 398.38 795.58 C 397.50 794.16 396.49 792.84 395.70 791.39 C 394.82 789.63 393.67 788.05 392.65 786.40 C 392.21 785.46 391.78 784.53 391.36 783.61 C 390.50 782.17 389.50 780.83 388.67 779.40 C 387.60 776.91 386.15 774.63 384.65 772.40 C 384.21 771.46 383.78 770.53 383.35 769.61 C 382.49 768.17 381.49 766.82 380.70 765.36 C 379.81 763.63 378.67 762.06 377.68 760.41 C 376.60 757.92 375.17 755.62 373.62 753.41 C 373.41 752.89 372.99 751.86 372.78 751.34 C 371.39 749.02 369.71 746.87 368.73 744.33 C 367.65 742.39 366.32 740.60 365.30 738.63 C 364.51 737.16 363.50 735.83 362.64 734.43 C 362.42 733.91 361.99 732.86 361.77 732.34 C 360.80 730.64 359.66 729.05 358.65 727.39 C 358.21 726.46 357.78 725.53 357.35 724.61 C 356.33 722.94 355.18 721.36 354.30 719.62 C 353.50 718.16 352.50 716.83 351.64 715.43 C 351.42 714.91 350.98 713.86 350.77 713.34 C 349.73 711.56 348.52 709.89 347.57 708.08 Z" />
</g>
</svg>
