<?xml version="1.0" encoding="UTF-8" ?>
<!DOCTYPE svg PUBLIC "-//W3C//DTD SVG 1.1//EN" "http://www.w3.org/Graphics/SVG/1.1/DTD/svg11.dtd">
<svg width="839pt" height="720pt" viewBox="0 0 839 720" version="1.1" xmlns="http://www.w3.org/2000/svg">
<g id="#000000ff">
<path fill="#000000" opacity="1.00" d=" M 633.85 0.01 C 635.56 0.81 637.28 1.61 639.00 2.41 C 638.39 2.60 637.17 2.98 636.55 3.17 C 636.91 3.61 637.63 4.48 637.99 4.91 C 637.22 4.94 635.66 5.00 634.88 5.04 C 635.86 5.83 636.88 6.62 637.89 7.40 C 636.90 7.52 634.94 7.77 633.96 7.89 C 635.07 8.72 636.21 9.55 637.32 10.40 C 636.30 10.53 634.27 10.78 633.26 10.90 C 634.41 11.74 635.58 12.59 636.72 13.46 C 634.74 13.65 632.76 13.83 630.80 13.99 C 632.39 14.98 633.99 15.96 635.59 16.96 C 633.04 17.21 630.51 17.52 628.04 18.16 C 630.33 19.43 632.62 20.69 634.85 22.05 C 632.11 22.42 629.38 22.76 626.67 23.22 C 629.07 24.87 631.62 26.28 634.16 27.72 C 630.72 28.30 627.26 28.72 623.81 29.21 C 626.72 31.54 630.45 32.64 633.18 35.22 C 628.64 35.62 624.06 37.03 619.54 35.86 C 618.07 31.38 614.96 27.70 612.92 23.49 C 616.07 25.10 619.11 26.91 622.22 28.60 C 620.22 24.83 617.92 21.22 615.87 17.47 C 618.97 19.12 621.98 20.91 625.09 22.55 C 623.46 19.59 621.69 16.71 620.06 13.75 C 622.70 15.13 625.29 16.63 627.90 18.09 C 626.36 15.36 624.76 12.66 623.20 9.94 C 625.58 11.21 627.95 12.54 630.34 13.81 C 629.26 11.80 628.09 9.85 626.91 7.92 C 627.96 8.41 630.06 9.40 631.10 9.90 C 630.32 8.66 628.74 6.17 627.95 4.93 C 629.56 5.76 631.18 6.61 632.79 7.46 C 631.94 5.97 631.09 4.48 630.25 2.99 C 631.56 3.70 632.88 4.41 634.19 5.13 C 633.57 4.07 632.32 1.96 631.70 0.90 L 635.41 2.89 C 635.02 2.17 634.24 0.73 633.85 0.01 Z" />
<path fill="#000000" opacity="1.00" d=" M 188.27 8.89 C 190.01 7.88 191.74 6.86 193.48 5.84 C 193.14 6.59 192.47 8.10 192.13 8.85 C 192.77 8.51 194.05 7.83 194.69 7.48 C 194.16 8.76 193.63 10.04 193.10 11.32 C 194.29 10.58 195.49 9.84 196.68 9.10 C 196.17 10.50 195.66 11.90 195.15 13.31 C 196.47 12.49 197.79 11.68 199.12 10.86 C 198.65 12.03 197.71 14.36 197.24 15.53 C 198.59 14.74 199.95 13.95 201.30 13.16 C 200.56 15.04 199.80 16.91 199.05 18.78 C 200.62 17.86 202.20 16.94 203.78 16.02 C 202.86 18.27 201.75 20.45 201.11 22.80 C 203.59 22.14 205.59 20.45 207.81 19.25 C 206.75 21.97 205.63 24.66 204.50 27.35 C 207.17 25.81 209.81 24.23 212.48 22.70 C 211.11 26.11 209.69 29.50 208.28 32.90 C 211.68 30.88 215.04 28.80 218.48 26.85 C 216.93 30.85 215.23 34.79 213.63 38.78 C 217.01 36.85 220.30 34.76 223.72 32.89 C 221.59 37.99 219.76 43.22 217.29 48.17 C 210.87 48.00 204.44 48.27 198.02 48.21 C 203.01 45.07 208.12 42.11 213.21 39.12 C 208.13 39.06 203.05 39.21 197.97 39.14 C 200.95 37.20 204.06 35.47 207.05 33.55 C 202.81 33.51 198.58 33.61 194.35 33.56 C 197.23 31.64 200.25 29.93 203.26 28.23 C 199.98 27.90 196.68 27.89 193.39 27.88 C 195.32 26.19 198.82 25.65 199.81 23.30 C 197.04 23.22 194.26 23.44 191.49 23.39 C 193.73 21.96 196.04 20.60 198.31 19.20 C 196.01 19.17 193.71 19.17 191.42 19.15 C 192.72 18.30 194.02 17.46 195.33 16.62 C 193.47 16.62 191.61 16.61 189.75 16.59 C 191.15 15.66 192.57 14.75 193.99 13.85 C 192.31 13.83 190.64 13.81 188.97 13.76 C 190.24 13.01 191.51 12.26 192.79 11.51 C 191.67 11.47 189.43 11.39 188.31 11.35 C 189.10 10.77 190.69 9.61 191.48 9.03 C 190.68 8.99 189.07 8.93 188.27 8.89 Z" />
<path fill="#000000" opacity="1.00" d=" M 604.88 27.90 C 613.63 32.79 622.33 37.74 631.12 42.57 C 625.66 43.44 620.19 44.14 614.71 44.81 C 611.44 39.17 608.10 33.57 604.88 27.90 Z" />
<path fill="#000000" opacity="1.00" d=" M 598.41 36.17 C 608.66 41.93 619.04 47.47 629.14 53.48 C 623.14 54.31 617.12 55.07 611.13 55.97 C 616.58 59.35 622.35 62.18 627.83 65.52 C 619.86 66.71 611.89 67.87 603.89 68.73 C 599.23 60.51 594.27 52.46 589.70 44.19 C 596.32 47.69 602.76 51.54 609.38 55.05 C 605.72 48.76 601.98 42.51 598.41 36.17 Z" />
<path fill="#000000" opacity="1.00" d=" M 201.79 58.08 C 211.82 51.85 222.00 45.84 232.20 39.89 C 229.87 45.61 227.51 51.31 225.19 57.03 C 230.81 53.71 236.41 50.36 242.01 46.99 C 239.05 54.52 235.94 62.00 232.86 69.48 C 223.35 69.51 213.85 69.53 204.34 69.48 C 210.41 65.52 217.25 62.41 222.87 57.99 C 215.85 57.80 208.82 58.32 201.79 58.08 Z" />
<path fill="#000000" opacity="1.00" d=" M 580.33 56.00 C 590.28 61.13 599.88 66.90 609.71 72.24 C 613.88 74.68 618.26 76.75 622.25 79.48 C 613.76 80.85 605.20 81.78 596.70 83.09 C 603.24 87.55 610.57 90.72 617.19 95.06 C 606.12 96.51 595.06 98.13 583.98 99.54 C 577.36 88.06 570.53 76.68 564.02 65.14 C 574.69 71.07 585.33 77.08 596.02 83.00 C 590.85 73.96 585.53 65.02 580.33 56.00 Z" />
<path fill="#000000" opacity="1.00" d=" M 214.57 80.58 C 226.90 73.37 239.05 65.86 251.42 58.72 C 248.08 66.88 244.71 75.02 241.42 83.20 C 248.46 79.31 255.19 74.88 262.24 70.99 C 257.84 81.40 253.87 91.99 249.26 102.30 C 236.11 102.15 222.96 102.40 209.81 102.24 C 220.10 95.86 230.66 89.91 240.93 83.49 C 230.70 83.43 220.48 83.57 210.26 83.45 C 211.64 82.41 213.07 81.44 214.57 80.58 Z" />
<path fill="#000000" opacity="1.00" d=" M 550.64 82.11 C 568.11 91.66 585.41 101.51 602.82 111.18 C 606.28 113.25 610.01 114.87 613.27 117.29 C 600.84 119.01 588.39 120.57 575.99 122.42 C 584.95 127.76 594.18 132.63 603.25 137.80 C 605.58 139.23 608.32 140.16 610.19 142.26 C 595.89 144.07 581.62 146.18 567.33 148.03 C 579.75 155.48 592.61 162.18 605.16 169.42 C 585.89 172.33 566.54 174.65 547.25 177.47 C 561.48 185.73 576.02 193.46 590.26 201.71 C 570.95 204.92 551.45 207.02 532.09 209.93 C 550.01 220.19 568.14 230.06 586.10 240.24 C 564.67 243.30 543.22 246.20 521.77 249.04 C 536.77 257.55 552.18 265.34 567.24 273.74 C 566.77 301.52 566.47 329.30 566.25 357.07 C 579.35 334.69 591.75 311.89 605.06 289.64 C 605.34 315.36 605.79 341.09 606.10 366.81 C 617.91 346.65 629.12 326.14 641.05 306.06 C 641.32 325.86 641.37 345.66 641.91 365.46 C 653.72 345.71 664.72 325.48 676.35 305.63 C 676.67 324.43 676.73 343.25 677.26 362.05 C 685.96 347.11 694.34 331.98 703.08 317.07 C 703.66 332.48 703.31 347.92 703.87 363.33 C 711.58 350.64 718.44 337.45 726.21 324.81 C 726.68 348.71 727.00 372.62 727.26 396.52 C 719.35 386.65 711.87 376.44 703.89 366.62 C 703.70 379.96 704.53 393.28 704.38 406.61 C 695.21 395.14 686.45 383.35 677.30 371.86 C 677.43 386.38 677.82 400.90 677.85 415.42 C 665.73 400.12 653.97 384.53 641.89 369.19 C 641.68 378.78 642.36 388.35 642.32 397.93 C 642.37 404.95 642.27 411.98 642.60 418.99 C 630.21 403.54 618.36 387.64 606.06 372.11 C 606.76 385.06 606.29 398.03 606.75 410.99 C 606.93 418.72 606.90 426.46 606.94 434.21 C 593.14 416.69 579.68 398.91 565.89 381.39 C 565.61 404.31 565.33 427.22 565.16 450.14 C 549.96 458.65 534.49 466.67 519.36 475.27 C 540.05 475.28 560.75 475.13 581.45 475.23 C 559.62 488.49 537.56 501.39 515.69 514.59 C 538.89 515.00 562.12 514.30 585.34 514.60 C 568.35 524.83 551.17 534.75 534.33 545.20 C 557.27 545.22 580.21 545.11 603.15 545.15 C 587.26 554.86 571.03 564.03 555.29 573.97 C 572.44 574.17 589.59 573.82 606.75 573.92 C 593.60 582.07 580.20 589.82 566.94 597.79 C 581.90 597.82 596.86 597.49 611.82 597.73 C 591.36 610.21 570.69 622.34 550.12 634.63 C 554.83 622.79 559.74 611.02 564.55 599.21 C 553.01 606.10 541.51 613.05 529.92 619.85 C 535.42 606.21 541.02 592.60 546.59 578.99 C 534.00 586.29 521.65 594.00 509.03 601.23 C 516.38 583.13 523.74 565.02 531.22 546.97 C 516.83 555.33 502.65 564.04 488.29 572.45 C 495.67 554.12 503.23 535.85 510.68 517.55 C 492.86 528.10 475.15 538.84 457.29 549.32 C 464.28 531.96 471.41 514.66 478.50 497.34 C 458.05 508.50 437.59 519.66 417.10 530.75 C 388.50 515.03 359.84 499.42 331.19 483.79 C 344.03 506.01 357.10 528.10 369.89 550.34 C 347.31 537.98 324.96 525.19 302.41 512.77 C 314.08 532.95 325.97 553.01 337.58 573.23 C 320.11 563.61 302.74 553.79 285.32 544.08 C 296.93 564.14 308.72 584.10 320.30 604.18 C 303.90 595.05 287.54 585.84 271.13 576.74 C 279.42 591.90 288.58 606.58 297.03 621.66 C 283.41 614.16 269.91 606.46 256.30 598.97 C 263.86 611.96 271.47 624.92 278.99 637.93 C 259.69 627.33 240.55 616.43 221.29 605.78 C 219.62 604.91 218.00 603.95 216.62 602.68 C 228.99 600.97 241.38 599.40 253.74 597.57 C 242.27 590.84 230.38 584.81 219.04 577.86 C 233.44 575.88 247.83 573.89 262.24 571.97 C 249.87 564.53 237.07 557.79 224.50 550.67 C 243.69 547.55 263.04 545.42 282.27 542.53 C 271.13 535.94 259.69 529.86 248.43 523.47 C 245.49 521.70 242.22 520.41 239.65 518.09 C 258.79 515.32 277.98 512.85 297.13 510.17 C 295.24 508.45 292.89 507.40 290.69 506.17 C 275.01 497.40 259.32 488.65 243.64 479.87 C 264.74 476.60 285.96 473.92 307.13 471.08 C 305.12 469.21 302.55 468.18 300.20 466.85 C 290.05 461.26 279.84 455.81 269.74 450.14 C 269.54 424.70 269.14 399.25 268.77 373.81 C 256.95 393.83 245.90 414.32 233.93 434.26 C 233.60 408.51 233.33 382.75 232.81 357.00 C 221.21 377.24 209.87 397.65 197.97 417.71 C 197.68 397.88 197.58 378.04 197.11 358.20 C 185.43 378.10 174.26 398.30 162.65 418.24 C 162.31 399.49 162.30 380.72 161.73 361.97 C 152.91 376.75 144.72 391.91 135.95 406.72 C 135.29 391.39 135.74 376.04 135.09 360.72 C 127.31 373.33 120.45 386.49 112.80 399.17 C 112.28 375.22 112.03 351.27 111.71 327.32 C 119.64 337.19 127.14 347.40 135.10 357.25 C 135.29 343.89 134.43 330.54 134.62 317.17 C 143.70 328.75 152.59 340.47 161.70 352.02 C 161.57 337.48 161.16 322.95 161.15 308.41 C 173.26 323.65 184.84 339.31 197.08 354.44 C 197.13 350.29 197.19 346.13 197.01 341.97 C 196.40 329.62 196.91 317.24 196.39 304.89 C 208.79 320.33 220.66 336.19 232.90 351.76 C 232.39 331.07 232.20 310.37 232.08 289.67 C 244.24 305.11 256.11 320.78 268.27 336.23 C 268.10 315.37 267.68 294.53 267.42 273.68 C 285.22 263.91 303.32 254.66 321.01 244.68 C 296.68 244.70 272.35 244.89 248.03 244.76 C 270.14 231.58 292.27 218.41 314.35 205.17 C 291.04 205.33 267.74 205.54 244.44 205.41 C 261.28 195.05 278.49 185.29 295.27 174.82 C 272.36 174.79 249.45 174.84 226.54 174.89 C 242.44 165.04 258.74 155.82 274.62 145.95 C 257.37 145.96 240.12 146.10 222.88 146.11 C 236.00 137.90 249.45 130.24 262.67 122.18 C 247.66 122.25 232.66 122.45 217.66 122.32 C 238.23 109.92 258.85 97.60 279.54 85.40 C 274.71 97.20 269.91 109.02 265.05 120.81 C 276.60 113.92 288.11 106.96 299.72 100.16 C 294.16 113.82 288.59 127.47 282.98 141.11 C 295.52 133.62 308.05 126.11 320.62 118.66 C 313.31 136.81 305.85 154.91 298.45 173.02 C 312.81 164.67 326.96 155.94 341.31 147.58 C 333.95 165.92 326.34 184.16 318.96 202.49 C 336.68 191.86 354.41 181.25 372.20 170.73 C 364.39 190.73 355.96 210.49 347.99 230.43 C 371.03 217.93 394.23 205.73 417.22 193.15 C 444.54 207.53 471.64 222.34 498.87 236.91 C 485.85 214.47 472.64 192.15 459.74 169.65 C 482.29 182.01 504.57 194.87 527.17 207.13 C 515.48 187.05 503.74 167.01 492.07 146.92 C 509.59 156.24 526.72 166.29 544.15 175.79 C 532.71 155.80 520.96 135.99 509.41 116.06 C 526.02 124.88 542.26 134.39 558.76 143.42 C 550.07 128.35 541.18 113.40 532.54 98.30 C 546.15 105.81 559.64 113.52 573.28 120.98 C 565.77 108.00 558.12 95.11 550.64 82.11 Z" />
<path fill="#000000" opacity="1.00" d=" M 727.77 362.10 C 734.49 350.71 740.71 339.03 747.60 327.75 C 747.54 339.86 748.06 351.96 748.16 364.07 C 753.57 355.21 758.37 346.00 763.78 337.13 C 764.05 353.27 764.25 369.40 764.49 385.54 C 758.90 378.66 753.69 371.49 748.10 364.62 C 748.03 372.66 748.51 380.69 748.49 388.73 C 741.41 379.99 734.62 371.02 727.77 362.10 Z" />
<path fill="#000000" opacity="1.00" d=" M 90.51 335.06 C 97.51 343.90 104.48 352.79 111.22 361.84 C 104.43 373.16 98.31 384.87 91.38 396.09 C 91.47 383.99 90.92 371.89 90.85 359.79 C 85.40 368.59 80.72 377.85 75.22 386.62 C 74.94 370.53 74.75 354.43 74.50 338.34 C 80.13 345.14 85.22 352.38 90.90 359.14 C 90.96 351.11 90.49 343.09 90.51 335.06 Z" />
<path fill="#000000" opacity="1.00" d=" M 764.34 364.09 C 769.20 355.95 773.53 347.50 778.62 339.50 C 778.81 346.76 778.52 354.03 778.98 361.29 C 783.11 355.52 786.03 348.99 789.85 343.02 C 790.18 354.76 790.14 366.52 790.38 378.26 C 786.47 373.61 782.94 368.64 779.11 363.92 C 779.11 370.34 779.18 376.76 779.14 383.18 C 774.17 376.84 769.26 370.46 764.34 364.09 Z" />
<path fill="#000000" opacity="1.00" d=" M 59.87 340.76 C 64.88 347.04 69.79 353.41 74.64 359.81 C 69.77 367.94 65.43 376.39 60.38 384.40 C 60.24 376.94 60.36 369.47 60.10 362.01 C 56.28 368.18 52.96 374.64 49.15 380.82 C 48.81 369.08 48.86 357.34 48.61 345.60 C 52.53 350.27 56.11 355.22 59.89 360.00 C 59.89 353.58 59.81 347.17 59.87 340.76 Z" />
<path fill="#000000" opacity="1.00" d=" M 790.48 361.35 C 793.82 355.80 796.84 350.08 800.22 344.56 C 800.47 350.40 800.44 356.24 800.56 362.09 C 803.22 357.87 805.39 353.37 808.16 349.23 C 808.29 352.69 808.28 356.17 808.39 359.64 C 810.68 356.17 812.37 352.33 814.85 348.97 C 814.90 352.43 814.87 355.88 814.91 359.34 C 816.62 356.46 818.21 353.51 820.10 350.74 C 820.32 356.26 820.18 361.79 820.29 367.32 C 818.50 365.12 816.77 362.90 814.95 360.75 C 814.90 363.70 814.92 366.66 814.95 369.62 C 812.71 366.89 810.62 364.04 808.39 361.32 C 808.37 365.18 808.43 369.03 808.38 372.89 C 805.72 369.56 803.17 366.15 800.55 362.79 C 800.52 366.64 800.57 370.50 800.54 374.35 C 797.10 370.09 793.76 365.74 790.48 361.35 Z" />
<path fill="#000000" opacity="1.00" d=" M 38.44 361.06 C 38.47 357.16 38.44 353.27 38.45 349.37 C 41.80 353.79 45.32 358.07 48.51 362.61 C 45.10 368.08 42.15 373.82 38.79 379.32 C 38.54 373.46 38.56 367.59 38.42 361.73 C 35.85 366.03 33.52 370.48 30.84 374.73 C 30.73 371.17 30.69 367.62 30.60 364.06 C 28.46 367.74 26.44 371.49 24.17 375.10 C 24.12 371.62 24.10 368.14 24.06 364.66 C 22.33 367.53 20.64 370.43 18.87 373.28 C 18.82 370.43 18.81 367.60 18.75 364.76 C 17.09 367.28 15.54 369.87 13.96 372.44 C 13.94 369.75 13.95 367.06 13.96 364.38 C 12.71 366.37 11.48 368.37 10.22 370.36 C 10.20 369.28 10.16 367.11 10.13 366.03 C 9.15 367.63 8.17 369.25 7.17 370.85 C 7.18 369.51 7.18 366.84 7.19 365.50 C 6.27 366.96 5.36 368.44 4.43 369.91 C 4.41 368.79 4.38 366.56 4.36 365.44 C 3.72 366.52 2.45 368.68 1.81 369.76 C 1.81 368.76 1.81 366.74 1.81 365.74 C 1.36 366.33 0.45 367.52 0.00 368.11 L 0.00 363.23 C 0.99 363.51 1.95 363.25 2.89 362.91 C 3.25 363.47 3.98 364.57 4.34 365.12 C 4.34 364.10 4.33 362.06 4.32 361.04 C 5.29 362.17 6.27 363.29 7.24 364.43 C 7.15 363.25 6.97 360.89 6.87 359.71 C 7.98 360.96 9.08 362.21 10.17 363.47 C 10.14 362.35 10.07 360.11 10.03 358.99 C 11.32 360.54 12.61 362.11 13.89 363.68 C 13.84 361.88 13.80 360.08 13.76 358.28 C 15.50 360.40 17.18 362.56 18.83 364.75 C 18.78 361.98 18.73 359.19 18.68 356.42 C 20.49 358.71 22.28 361.00 24.11 363.27 C 24.08 360.21 24.04 357.16 23.96 354.11 C 26.19 356.92 28.38 359.76 30.62 362.58 C 30.61 358.69 30.58 354.81 30.61 350.93 C 33.24 354.29 35.83 357.69 38.44 361.06 Z" />
<path fill="#000000" opacity="1.00" d=" M 820.42 359.59 C 821.79 356.77 823.32 354.03 825.00 351.38 C 825.05 354.07 825.10 356.77 825.18 359.46 C 826.36 357.44 827.55 355.42 828.77 353.42 C 828.79 354.51 828.84 356.71 828.87 357.80 C 829.84 356.20 830.82 354.61 831.82 353.03 C 831.83 354.36 831.83 357.02 831.84 358.35 C 832.71 356.87 833.60 355.41 834.49 353.94 C 834.56 355.43 834.65 356.92 834.75 358.42 C 835.22 357.43 836.16 355.45 836.63 354.46 C 836.93 355.72 837.23 356.99 837.56 358.26 C 837.92 357.56 838.64 356.18 839.00 355.48 L 839.00 360.71 C 838.04 360.66 837.07 360.68 836.13 360.72 C 835.76 360.22 835.02 359.22 834.65 358.72 C 834.65 359.75 834.66 361.82 834.66 362.85 C 833.70 361.72 832.73 360.59 831.79 359.47 C 831.86 360.64 832.02 362.98 832.09 364.15 C 830.99 362.88 829.91 361.61 828.83 360.34 C 828.86 361.47 828.91 363.73 828.93 364.86 C 827.66 363.31 826.40 361.76 825.14 360.21 C 825.17 361.99 825.20 363.79 825.25 365.58 C 823.63 363.59 822.03 361.58 820.42 359.59 Z" />
<path fill="#000000" opacity="1.00" d=" M 580.13 617.85 C 593.27 617.69 606.41 617.67 619.54 617.78 C 609.52 624.38 598.88 630.00 588.78 636.49 C 599.08 636.60 609.37 636.41 619.67 636.56 C 614.30 639.99 608.73 643.08 603.32 646.44 C 601.45 647.54 599.62 648.92 597.37 649.03 C 598.46 649.70 599.41 650.90 600.91 650.50 C 608.98 650.55 617.05 650.40 625.13 650.55 C 618.90 654.51 612.35 657.97 606.21 662.08 C 613.35 662.29 620.49 661.65 627.64 661.95 C 617.76 668.23 607.66 674.19 597.49 679.98 C 599.73 674.32 602.17 668.74 604.33 663.06 C 598.71 666.28 593.24 669.76 587.59 672.94 C 590.45 665.35 594.14 658.05 596.44 650.26 C 590.58 654.23 584.37 657.69 578.27 661.28 C 581.59 652.99 584.90 644.68 588.47 636.49 C 581.49 640.72 574.53 644.97 567.44 649.00 C 571.62 638.59 575.91 628.23 580.13 617.85 Z" />
<path fill="#000000" opacity="1.00" d=" M 215.84 624.45 C 225.71 623.17 235.58 621.85 245.43 620.37 C 252.34 631.73 258.92 643.31 265.60 654.81 C 254.87 649.01 244.33 642.86 233.60 637.06 C 238.81 646.09 244.14 655.05 249.34 664.09 C 235.16 656.44 221.21 648.37 207.09 640.63 C 215.70 639.09 224.41 638.24 233.06 636.92 C 226.62 632.77 219.67 629.47 213.13 625.49 C 212.74 624.20 215.18 624.84 215.84 624.45 Z" />
<path fill="#000000" opacity="1.00" d=" M 201.86 654.46 C 209.79 653.29 217.73 652.12 225.71 651.27 C 230.42 659.49 235.35 667.59 239.96 675.87 C 233.34 672.31 226.89 668.46 220.23 664.97 C 223.88 671.23 227.63 677.44 231.16 683.77 C 220.86 678.16 210.67 672.33 200.39 666.66 C 206.30 665.46 212.38 665.24 218.27 663.87 C 212.88 660.58 207.19 657.84 201.86 654.46 Z" />
<path fill="#000000" opacity="1.00" d=" M 612.15 671.88 C 618.55 671.95 624.95 671.75 631.36 671.82 C 626.59 675.18 621.29 677.69 616.54 681.07 C 621.47 680.90 626.39 680.77 631.33 680.92 C 628.47 682.98 625.39 684.70 622.35 686.47 C 626.62 686.49 630.89 686.37 635.16 686.47 C 632.31 688.41 629.26 690.02 626.45 692.00 C 629.72 692.08 633.00 692.06 636.28 692.14 C 631.43 694.98 626.65 697.92 621.78 700.71 C 622.89 698.04 624.00 695.37 625.05 692.67 C 622.43 694.21 619.84 695.78 617.20 697.26 C 618.50 693.87 619.91 690.53 621.32 687.18 C 617.90 689.13 614.55 691.21 611.13 693.15 C 612.72 689.16 614.41 685.20 615.95 681.19 C 612.57 683.21 609.21 685.26 605.82 687.26 C 607.93 682.13 609.95 676.97 612.15 671.88 Z" />
<path fill="#000000" opacity="1.00" d=" M 198.52 677.43 C 204.00 676.56 209.49 675.74 215.03 675.28 C 218.15 680.88 221.48 686.37 224.68 691.94 C 219.84 689.26 214.70 686.98 210.30 683.61 C 206.19 681.92 202.35 679.67 198.52 677.43 Z" />
<path fill="#000000" opacity="1.00" d=" M 196.04 684.90 C 199.91 684.36 203.79 683.87 207.66 683.27 C 212.06 686.62 213.84 692.09 216.79 696.58 C 213.58 694.89 210.44 693.09 207.27 691.34 C 209.41 695.06 211.64 698.73 213.75 702.48 C 210.64 700.87 207.62 699.11 204.54 697.45 C 206.15 700.39 207.90 703.26 209.53 706.20 C 204.53 703.56 199.60 700.81 194.74 697.93 C 197.57 697.57 200.41 697.22 203.23 696.74 C 200.69 695.30 198.11 693.92 195.72 692.24 C 199.12 691.61 202.55 691.27 205.98 690.83 C 202.78 688.66 199.28 686.99 196.04 684.90 Z" />
<path fill="#000000" opacity="1.00" d=" M 628.92 696.64 C 631.90 696.62 634.88 696.59 637.88 696.64 C 635.78 698.06 633.63 699.40 631.53 700.81 C 633.76 700.83 635.98 700.82 638.23 700.82 C 637.32 701.45 635.49 702.72 634.57 703.36 C 636.35 703.36 638.13 703.38 639.93 703.41 C 638.55 704.34 637.16 705.24 635.81 706.19 C 637.01 706.13 639.41 706.01 640.61 705.95 C 639.67 706.66 637.80 708.08 636.87 708.79 C 638.00 708.75 640.26 708.65 641.39 708.61 C 640.41 709.23 639.43 709.85 638.45 710.47 C 639.14 710.68 640.53 711.12 641.22 711.33 C 639.59 712.19 637.98 713.08 636.39 713.98 C 636.64 713.33 637.15 712.02 637.41 711.36 C 636.82 711.57 635.64 711.99 635.05 712.20 C 635.55 711.02 636.06 709.86 636.58 708.70 C 635.62 709.25 633.71 710.36 632.75 710.91 C 633.23 709.86 634.18 707.76 634.65 706.71 C 633.27 707.45 631.90 708.20 630.52 708.95 C 631.12 707.47 631.73 705.99 632.34 704.53 C 630.98 705.31 629.64 706.11 628.29 706.91 C 629.06 704.96 629.85 703.04 630.64 701.12 C 629.07 702.09 627.49 703.06 625.93 704.03 C 626.83 701.53 627.84 699.07 628.92 696.64 Z" />
<path fill="#000000" opacity="1.00" d=" M 193.93 703.00 C 196.57 702.69 199.22 702.40 201.88 702.18 C 203.36 704.81 204.92 707.40 206.39 710.04 C 203.95 708.77 201.55 707.41 199.16 706.05 C 200.37 708.14 201.58 710.23 202.73 712.35 C 201.76 711.80 199.83 710.70 198.86 710.15 C 199.72 711.78 200.61 713.42 201.48 715.07 C 199.95 714.23 198.42 713.38 196.90 712.55 C 197.70 713.99 198.54 715.43 199.37 716.88 C 198.07 716.30 196.77 715.72 195.47 715.16 C 196.06 716.13 197.25 718.07 197.84 719.04 C 197.01 718.58 195.34 717.66 194.51 717.21 L 195.19 719.95 C 193.68 719.06 192.17 718.19 190.67 717.31 C 191.24 717.19 192.37 716.96 192.93 716.84 C 192.61 716.38 191.97 715.48 191.64 715.03 C 192.50 714.98 194.21 714.88 195.07 714.83 C 193.96 714.09 192.87 713.40 191.78 712.68 C 192.74 712.51 194.68 712.16 195.65 711.99 C 194.40 711.22 193.14 710.48 191.90 709.73 C 193.02 709.54 195.28 709.18 196.41 708.99 C 195.15 708.22 193.89 707.45 192.63 706.69 C 194.67 706.41 196.70 706.15 198.75 705.95 C 197.13 704.97 195.53 703.99 193.93 703.00 Z" />
</g>
</svg>
