<?xml version="1.0" encoding="UTF-8" ?>
<!DOCTYPE svg PUBLIC "-//W3C//DTD SVG 1.1//EN" "http://www.w3.org/Graphics/SVG/1.1/DTD/svg11.dtd">
<svg width="632pt" height="720pt" viewBox="0 0 632 720" version="1.1" xmlns="http://www.w3.org/2000/svg">
<g id="#ffffffff">
<path fill="#ffffff" opacity="1.00" d=" M 364.23 260.24 C 364.81 260.81 364.81 260.81 364.23 260.24 Z" />
<path fill="#ffffff" opacity="1.00" d=" M 344.15 334.22 C 344.77 334.83 344.77 334.83 344.15 334.22 Z" />
<path fill="#ffffff" opacity="1.00" d=" M 101.97 345.33 C 105.31 345.53 100.39 348.26 101.97 345.33 Z" />
<path fill="#ffffff" opacity="1.00" d=" M 433.13 528.19 C 433.76 528.81 433.76 528.81 433.13 528.19 Z" />
</g>
<g id="#000000ff">
<path fill="#000000" opacity="1.00" d=" M 292.98 31.97 C 297.95 23.61 302.34 15.00 307.06 6.51 C 308.30 7.36 309.71 8.14 310.43 9.54 C 315.05 17.78 319.66 26.01 325.30 33.62 C 326.56 37.97 329.87 41.30 331.44 45.53 C 332.13 46.40 332.85 47.25 333.62 48.06 C 331.27 50.28 328.79 52.43 326.87 55.04 C 326.46 60.00 327.14 64.92 327.46 69.84 C 327.24 71.68 328.97 72.76 330.13 73.85 C 335.46 72.09 339.74 68.10 345.33 66.98 C 347.74 74.64 353.44 80.93 356.46 88.30 C 357.41 91.70 353.72 93.04 351.41 94.39 C 344.16 99.27 336.18 103.02 329.53 108.76 C 325.65 113.16 327.12 119.37 327.23 124.74 C 327.96 127.15 330.13 128.22 332.51 127.48 C 339.13 124.28 345.01 119.71 351.70 116.65 C 355.76 113.97 359.86 111.34 364.03 108.82 C 365.67 108.13 367.90 106.76 369.41 108.41 C 372.29 112.67 374.10 117.66 377.50 121.59 C 377.90 123.68 378.65 125.64 380.34 127.04 C 380.37 127.83 380.42 129.41 380.44 130.20 C 370.55 135.55 360.87 141.30 351.48 147.47 C 345.44 150.62 339.77 154.42 333.95 157.95 C 331.48 159.76 328.83 161.56 327.21 164.23 C 327.48 170.36 328.94 176.41 328.44 182.59 C 328.89 182.81 329.80 183.26 330.25 183.48 C 335.57 182.38 340.13 179.36 344.87 176.87 C 352.17 172.44 359.90 168.72 367.17 164.20 C 374.73 160.24 381.72 155.25 389.29 151.29 C 390.86 150.65 392.65 149.54 394.33 150.57 C 397.85 155.85 400.30 161.79 404.27 166.80 C 405.46 167.80 405.53 170.12 403.88 170.71 C 400.84 172.26 397.63 173.58 395.14 176.00 C 390.54 179.23 385.00 180.95 380.51 184.37 C 376.69 187.47 372.17 189.50 367.91 191.88 C 362.03 196.19 355.90 200.18 349.30 203.27 C 346.71 205.46 344.10 207.76 340.80 208.83 C 340.81 210.76 340.83 212.69 340.85 214.63 C 349.36 218.72 357.41 223.78 365.72 228.29 C 376.78 234.15 387.40 240.78 398.59 246.45 C 405.33 250.94 412.97 253.85 419.78 258.20 C 421.17 258.99 422.89 258.58 424.42 258.78 C 425.26 257.18 426.82 255.83 426.71 253.89 C 428.41 244.63 425.63 235.30 427.24 226.03 C 427.41 209.53 427.28 193.02 427.14 176.52 C 434.61 175.81 442.12 176.32 449.61 176.11 C 449.61 195.07 449.43 214.04 449.75 232.99 C 449.84 241.68 450.46 250.38 452.39 258.90 C 456.89 261.12 460.13 256.68 463.76 254.83 C 467.13 252.69 471.75 250.72 471.61 246.01 C 470.92 242.48 471.49 238.89 471.44 235.34 C 470.79 228.88 471.29 222.40 471.04 215.93 C 471.42 207.29 470.53 198.65 470.80 190.00 C 471.05 185.10 470.08 179.89 472.13 175.26 C 476.45 175.84 480.63 174.23 484.95 174.50 C 489.58 174.72 494.32 173.96 498.86 175.15 C 499.29 179.41 498.16 183.68 499.10 187.90 C 498.67 188.16 497.81 188.67 497.38 188.93 C 498.04 189.53 498.70 190.15 499.36 190.78 C 498.86 191.89 498.36 192.99 497.84 194.09 C 498.27 194.88 498.69 195.69 499.10 196.50 C 496.27 197.27 497.23 199.93 499.24 200.96 C 498.42 201.66 497.61 202.36 496.80 203.07 C 497.56 204.14 498.41 205.15 499.31 206.13 C 498.55 207.13 497.75 208.10 496.96 209.07 C 497.66 210.04 498.38 211.00 499.11 211.96 C 498.57 212.22 497.48 212.75 496.94 213.01 C 497.41 213.36 498.33 214.07 498.80 214.43 C 499.30 219.23 498.93 224.09 498.99 228.91 C 500.25 229.60 501.47 230.46 502.89 230.80 C 508.51 228.01 513.36 223.96 518.83 220.92 C 518.80 209.93 518.81 198.94 518.83 187.95 C 518.71 184.95 519.87 182.04 519.26 179.06 C 519.85 177.24 520.28 174.89 521.92 173.75 C 526.46 173.63 531.02 173.87 535.56 173.38 C 538.95 172.77 542.51 173.17 545.76 174.32 C 546.48 183.20 545.45 192.12 546.07 201.00 C 549.48 202.78 553.03 200.88 555.73 198.73 C 560.18 195.69 566.78 193.73 567.83 187.68 C 568.67 182.82 568.02 177.84 568.20 172.92 C 574.82 172.60 581.53 173.54 588.07 172.09 C 600.94 171.90 613.81 172.14 626.69 171.97 C 624.29 176.50 622.01 181.06 619.47 185.52 C 611.80 195.24 607.67 207.29 599.89 216.96 C 598.46 218.54 598.51 221.10 596.85 222.42 C 591.31 221.92 587.27 217.32 582.01 215.84 C 579.51 216.40 576.87 217.04 575.06 218.97 C 571.64 221.42 567.59 223.20 565.26 226.91 C 571.33 233.07 579.83 235.73 586.52 241.04 C 584.88 246.10 580.96 249.95 578.74 254.74 C 577.09 257.89 575.72 261.32 572.94 263.68 C 568.34 261.18 563.84 258.51 559.45 255.68 C 557.67 255.18 555.74 254.95 554.35 253.64 C 551.92 251.34 548.42 251.07 545.58 249.54 C 543.48 248.31 541.58 246.77 539.48 245.55 C 537.13 245.32 534.76 245.37 532.42 245.52 C 528.21 247.34 524.76 250.34 521.04 252.93 C 520.08 254.65 521.23 256.56 521.37 258.36 C 529.71 261.67 537.19 266.78 545.30 270.59 C 551.31 274.48 557.57 277.93 563.63 281.72 C 558.57 288.71 555.16 296.67 550.46 303.88 C 548.06 304.33 546.58 301.27 544.32 300.72 C 537.11 298.51 531.53 293.02 524.40 290.61 C 520.33 287.81 516.14 285.24 511.50 283.52 C 509.08 279.40 503.76 279.34 500.02 277.03 C 495.88 275.20 491.82 271.67 487.01 272.85 C 483.87 274.29 481.30 276.72 478.07 278.01 C 476.09 280.34 472.24 281.65 471.77 284.87 C 473.62 288.32 477.32 289.90 480.82 291.17 C 487.78 295.65 495.48 298.86 502.39 303.45 C 514.76 310.16 527.08 316.95 539.06 324.35 C 535.34 332.35 530.86 340.12 526.58 347.88 C 525.31 345.38 522.97 344.19 520.31 343.68 C 505.81 335.47 491.02 327.62 476.49 319.40 C 470.48 316.42 465.10 312.05 458.50 310.41 C 456.30 309.71 454.23 311.19 452.11 311.59 C 452.00 321.40 451.96 331.21 452.11 341.02 C 453.08 345.95 451.71 350.93 452.12 355.91 C 452.79 359.79 451.60 363.67 452.18 367.56 C 452.79 373.06 452.94 378.57 452.94 384.10 C 453.47 384.23 454.53 384.47 455.06 384.60 C 454.48 384.64 453.32 384.73 452.73 384.77 C 452.76 386.70 453.28 388.54 454.19 390.24 C 454.50 394.00 454.62 397.79 454.47 401.57 C 456.38 403.20 458.94 404.80 461.46 403.50 C 467.64 399.60 474.47 396.73 480.25 392.20 C 482.02 390.83 484.27 390.35 486.10 389.09 C 490.32 385.86 495.12 383.53 499.48 380.50 C 504.67 377.95 509.03 373.88 514.53 371.94 C 518.26 371.18 519.95 367.36 523.32 365.84 C 525.95 368.19 527.74 371.28 530.05 373.92 C 531.55 375.27 530.60 377.68 531.86 379.13 C 533.70 381.05 534.23 383.75 535.67 385.94 C 516.24 398.12 496.50 409.80 477.40 422.49 C 475.56 424.20 473.61 425.80 471.40 427.01 C 474.11 432.59 480.70 433.46 484.85 437.46 C 487.75 438.67 491.56 439.26 494.24 437.24 C 497.00 435.19 500.47 434.39 503.14 432.19 C 505.96 429.81 509.60 428.81 512.46 426.51 C 516.42 424.14 520.11 421.31 524.30 419.34 C 529.76 416.59 534.37 412.41 539.89 409.76 C 542.37 408.59 544.59 406.97 546.84 405.42 C 550.45 408.09 552.11 412.24 553.96 416.17 C 556.08 419.42 559.04 422.47 559.29 426.56 C 559.85 426.54 560.97 426.51 561.53 426.49 C 559.71 429.54 555.90 430.12 553.34 432.33 C 545.65 437.40 537.26 441.34 529.87 446.88 C 527.20 448.95 524.00 450.25 521.55 452.61 C 520.98 454.04 521.33 455.64 521.27 457.15 C 527.40 459.18 532.14 464.63 538.86 464.92 C 542.75 463.89 545.44 460.68 549.03 459.07 C 552.51 457.29 555.45 454.62 559.09 453.14 C 563.54 450.95 567.08 446.95 571.97 445.71 C 575.54 448.22 577.02 452.49 578.78 456.29 C 581.30 459.90 583.43 463.77 586.00 467.35 C 579.95 471.12 573.41 474.39 568.45 479.60 C 567.04 481.76 569.73 482.94 571.26 483.84 C 575.08 486.54 579.57 488.02 583.40 490.72 C 588.21 492.75 592.85 489.32 596.77 486.81 C 597.74 487.38 598.72 487.94 599.73 488.48 C 601.86 494.66 606.52 499.74 609.21 505.75 C 613.38 511.55 616.76 517.82 619.93 524.18 C 620.05 524.81 620.29 526.06 620.40 526.69 C 620.93 526.91 621.97 527.36 622.49 527.59 C 622.36 530.18 624.40 531.92 625.54 534.04 C 617.10 534.41 608.61 533.47 600.23 534.74 C 594.86 535.40 589.46 534.49 584.09 534.91 C 579.62 534.78 574.96 535.67 570.68 534.01 C 570.56 528.95 571.19 523.69 570.12 518.75 C 565.90 514.73 560.51 512.33 555.47 509.54 C 554.18 509.24 552.85 509.29 551.55 509.22 C 548.56 512.72 549.04 517.32 549.40 521.60 C 549.96 522.39 550.55 523.17 551.17 523.93 C 550.29 524.98 549.44 526.07 548.66 527.21 C 549.25 527.23 550.43 527.28 551.02 527.31 C 551.02 527.90 551.03 529.08 551.03 529.67 C 550.55 529.61 549.57 529.50 549.08 529.44 C 549.14 530.37 549.19 531.30 549.23 532.24 C 549.81 532.30 550.97 532.40 551.55 532.46 C 549.32 536.18 544.75 535.56 541.03 535.78 C 535.23 535.68 529.41 536.06 523.63 535.42 C 523.71 533.12 523.74 530.83 523.68 528.55 C 524.23 528.39 525.31 528.08 525.85 527.93 C 525.31 527.79 524.22 527.52 523.67 527.38 C 523.83 516.11 523.68 504.83 523.77 493.56 C 519.88 489.74 514.89 487.50 510.38 484.55 C 509.02 483.88 507.54 483.53 506.13 483.02 C 504.83 483.78 503.53 484.52 502.22 485.27 C 500.72 499.10 501.79 513.09 501.65 526.99 C 501.51 529.73 501.85 532.45 502.50 535.13 C 495.17 536.88 487.58 536.64 480.10 536.59 C 478.96 536.47 476.87 536.44 476.89 534.85 C 476.57 524.27 477.02 513.67 476.69 503.08 C 476.16 499.04 477.26 494.97 476.30 490.95 C 477.52 486.55 474.42 482.26 476.10 477.94 C 475.52 477.41 474.94 476.89 474.37 476.38 C 477.49 473.01 475.25 468.14 473.51 464.62 C 468.59 461.31 463.78 457.61 457.88 456.23 C 452.79 460.45 454.76 467.41 455.26 473.05 C 454.90 476.44 454.29 479.85 454.72 483.28 C 455.11 491.85 454.11 500.43 454.77 509.00 C 455.01 514.21 453.93 520.09 457.37 524.53 C 456.71 524.56 455.39 524.61 454.72 524.64 C 455.54 526.29 456.49 527.87 457.35 529.51 C 456.79 529.51 455.68 529.52 455.13 529.53 C 455.19 530.42 455.25 531.31 455.30 532.21 C 455.82 532.25 456.86 532.32 457.38 532.35 C 456.41 533.80 455.42 535.24 454.70 536.83 C 449.84 537.72 444.90 537.29 439.99 537.41 C 437.41 537.47 434.82 537.41 432.33 536.68 C 432.10 521.12 432.37 505.55 432.20 489.98 C 431.01 482.78 432.58 475.41 431.06 468.26 C 429.76 465.41 429.69 462.30 429.82 459.23 C 427.83 457.86 425.88 455.77 423.23 456.65 C 411.37 461.69 401.03 469.51 389.71 475.61 C 383.17 480.61 375.56 483.98 368.88 488.73 C 362.83 491.94 357.49 496.32 351.32 499.34 C 348.36 500.60 347.00 503.68 345.25 506.16 C 352.09 510.29 358.85 514.56 366.04 518.07 C 369.38 519.11 371.58 522.06 374.93 523.13 C 382.29 527.93 390.45 531.40 397.79 536.17 C 404.18 538.48 408.46 544.64 415.17 546.19 C 415.01 549.82 412.10 552.39 410.68 555.57 C 409.79 558.19 407.34 560.04 407.34 562.95 C 405.24 563.84 405.00 566.22 404.66 568.20 C 402.11 567.71 399.55 566.98 397.38 565.53 C 390.46 560.82 382.59 557.79 375.39 553.57 C 370.63 551.45 366.75 547.71 361.69 546.22 C 354.23 541.52 346.37 537.50 338.58 533.38 C 336.65 532.73 334.64 533.95 333.45 535.39 C 333.27 540.39 333.38 545.41 333.46 550.42 C 337.91 555.01 343.89 557.39 349.20 560.78 C 354.54 563.28 359.33 566.75 364.59 569.39 C 367.43 571.87 371.50 572.20 374.09 574.97 C 378.63 576.81 382.36 580.08 386.76 582.21 C 388.93 583.31 390.50 585.51 393.02 585.91 C 390.58 593.56 384.71 599.85 382.38 607.62 C 380.79 608.06 379.07 608.74 377.52 607.80 C 371.15 604.94 365.22 601.17 359.08 597.85 C 351.94 594.46 345.63 589.39 338.06 586.89 C 336.82 587.68 335.58 588.48 334.36 589.30 C 334.62 593.34 333.55 597.48 334.78 601.44 C 335.47 603.90 334.92 607.08 337.43 608.66 C 339.32 611.14 342.48 611.60 345.04 613.02 C 348.42 616.26 353.43 616.88 356.76 620.20 C 361.46 622.49 365.49 626.00 370.52 627.69 C 367.74 632.84 364.71 637.89 361.94 643.05 C 360.78 644.16 360.68 645.80 360.19 647.25 C 359.18 648.44 358.09 649.58 357.07 650.78 C 352.80 647.45 347.59 645.80 343.01 643.00 C 340.96 641.56 338.36 641.64 336.01 641.97 C 335.75 648.24 335.87 654.53 335.94 660.81 C 338.87 663.50 341.84 666.42 345.84 667.41 C 345.95 668.86 347.01 670.42 346.26 671.84 C 340.57 681.01 335.31 690.50 330.54 700.17 C 326.49 704.37 324.81 710.28 321.40 714.97 C 320.07 712.23 318.24 709.77 317.18 706.91 C 315.88 705.72 314.37 704.76 312.99 703.70 C 313.64 703.35 314.96 702.65 315.62 702.30 C 314.19 701.78 312.82 701.14 311.44 700.54 C 310.68 696.36 308.46 692.54 305.91 689.18 C 302.83 684.19 300.25 678.81 296.51 674.29 C 296.15 672.76 296.32 671.18 296.26 669.64 C 299.79 668.19 302.59 665.57 305.81 663.61 C 306.05 661.74 306.35 659.85 307.42 658.26 C 306.83 657.24 306.08 656.20 306.22 654.96 C 306.14 650.63 306.20 646.30 306.11 641.98 C 301.98 640.13 297.97 642.62 294.42 644.55 C 290.96 646.79 287.13 648.38 283.74 650.73 C 281.88 649.30 281.07 647.08 279.85 645.17 C 277.12 639.94 273.30 635.34 270.89 629.95 C 270.65 628.47 271.00 626.97 271.54 625.62 C 277.61 620.66 284.93 617.68 291.44 613.42 C 295.40 611.39 298.79 608.26 303.19 607.15 C 305.55 602.64 306.03 597.54 305.46 592.55 C 304.70 590.69 303.85 588.86 303.46 586.89 C 298.26 586.57 293.74 589.82 289.61 592.57 C 282.75 596.34 276.16 600.60 269.21 604.23 C 266.16 606.40 262.78 608.01 259.15 608.96 C 254.37 605.05 252.52 598.98 249.07 594.07 C 247.99 592.24 246.36 590.53 246.34 588.28 C 248.11 586.30 250.24 584.64 252.64 583.50 C 263.79 575.79 275.97 569.77 287.33 562.33 C 292.65 558.59 298.85 556.07 303.68 551.67 C 303.80 545.27 303.79 538.87 303.65 532.47 C 301.97 532.10 300.12 530.95 298.55 532.22 C 281.52 540.90 265.85 551.98 249.03 561.06 C 245.32 563.50 241.11 565.04 237.57 567.78 C 235.87 569.51 233.93 567.49 232.25 566.82 C 232.11 566.20 231.82 564.95 231.67 564.33 C 229.04 560.17 226.60 555.90 224.25 551.57 C 223.76 550.42 222.70 549.72 221.82 548.91 C 228.17 542.53 236.66 539.16 243.89 534.02 C 248.84 531.30 253.32 527.81 258.41 525.33 C 267.55 519.12 277.60 514.44 286.56 507.99 C 286.63 505.90 286.16 503.77 283.98 503.01 C 278.25 500.23 273.19 496.24 267.36 493.65 C 262.41 491.39 258.16 487.85 253.04 485.95 C 250.53 483.02 246.25 483.11 243.54 480.45 C 235.41 475.99 227.30 471.38 219.16 466.90 C 214.77 463.57 209.61 461.53 204.62 459.31 C 203.19 458.60 201.73 459.84 200.48 460.42 C 199.62 461.75 200.04 463.45 199.89 464.95 C 199.92 479.63 199.90 494.32 199.91 509.00 C 199.95 513.99 199.60 519.02 200.54 523.96 C 200.73 529.41 199.97 534.87 200.68 540.31 C 195.92 539.63 191.20 541.50 186.45 540.50 C 183.62 539.83 180.71 539.82 177.83 539.90 C 176.51 535.43 178.89 530.40 176.44 526.25 C 176.95 525.36 177.70 524.47 177.41 523.37 C 176.93 517.33 177.90 511.28 177.48 505.23 C 177.44 501.42 176.23 497.68 176.63 493.87 C 176.55 491.10 175.98 488.34 175.03 485.73 C 175.57 485.16 176.12 484.60 176.68 484.05 C 176.03 483.34 175.40 482.64 174.76 481.94 C 175.48 480.91 176.22 479.91 176.98 478.93 C 176.58 478.56 175.78 477.83 175.38 477.46 C 175.17 473.68 175.40 469.84 174.89 466.05 C 170.37 463.84 166.51 467.77 162.79 469.75 C 159.25 471.44 156.44 474.22 153.16 476.33 C 153.97 479.52 153.00 482.76 153.11 486.00 C 153.27 493.61 153.16 501.23 153.02 508.84 C 153.98 512.85 153.96 516.98 153.19 521.03 C 153.70 524.39 153.64 527.79 153.74 531.18 C 154.04 531.48 154.64 532.08 154.94 532.38 C 153.66 535.01 153.84 538.03 152.86 540.77 C 144.69 541.02 136.52 540.08 128.40 540.88 C 127.29 535.95 128.31 530.91 127.45 525.96 C 127.63 518.68 127.48 511.42 127.67 504.14 C 126.78 500.53 126.83 496.79 125.27 493.35 C 122.40 494.44 119.30 495.08 116.76 496.89 C 113.11 499.50 108.27 500.87 106.16 505.18 C 105.69 516.74 106.16 528.35 105.93 539.94 C 97.87 541.68 89.48 540.25 81.28 540.75 C 81.50 536.33 80.71 531.97 80.62 527.56 C 80.29 527.27 79.63 526.69 79.30 526.39 C 80.93 524.46 79.76 521.25 76.99 521.67 C 71.27 522.88 66.67 526.83 61.74 529.76 C 58.36 532.34 59.54 537.06 58.92 540.74 C 52.70 542.02 46.30 541.39 40.00 541.55 C 30.55 541.40 21.08 541.89 11.65 541.19 C 13.49 538.43 14.77 535.37 16.55 532.58 C 17.69 527.86 21.11 524.21 22.70 519.70 C 25.13 516.07 27.16 512.23 28.98 508.26 C 29.74 506.11 31.71 504.81 33.29 503.31 C 32.87 502.61 32.44 501.92 32.02 501.23 C 34.19 499.72 36.14 497.91 37.25 495.47 C 42.23 497.62 46.77 500.88 51.97 502.44 C 56.98 500.04 62.59 498.10 66.39 493.85 C 66.97 492.01 65.86 490.46 64.30 489.63 C 58.20 486.34 52.38 482.59 46.45 479.01 C 46.40 476.91 47.25 475.10 48.51 473.49 C 49.83 468.87 53.29 465.23 54.55 460.61 C 56.08 458.48 57.30 456.14 59.02 454.15 C 67.40 457.69 75.27 462.22 83.00 467.01 C 87.21 468.98 91.08 471.56 95.12 473.85 C 97.33 475.31 100.44 475.10 102.53 473.51 C 106.73 470.59 112.06 468.99 115.03 464.59 C 109.65 460.23 103.32 457.25 97.44 453.66 C 88.16 448.06 78.42 443.35 69.29 437.50 C 68.32 435.69 70.72 434.47 70.94 432.77 C 71.78 429.35 74.15 426.64 75.74 423.58 C 77.32 419.59 80.29 416.27 81.48 412.11 C 88.30 414.66 94.57 418.38 100.76 422.15 C 104.10 423.67 107.29 425.49 110.30 427.59 C 112.80 429.34 116.05 429.67 118.41 431.64 C 126.90 436.59 135.48 441.45 144.28 445.88 C 149.89 446.29 154.23 442.09 159.01 439.87 C 161.32 438.95 160.02 436.01 160.26 434.15 C 140.80 423.70 121.53 412.74 102.41 401.60 C 99.63 399.54 95.94 398.92 93.61 396.25 C 92.98 394.71 93.36 393.07 93.80 391.56 C 96.70 385.29 99.82 379.06 103.81 373.43 C 108.14 373.32 110.85 377.13 114.78 378.31 C 121.87 382.65 129.30 386.46 136.65 390.34 C 146.51 395.74 155.94 402.08 166.18 406.82 C 168.51 407.22 170.70 410.10 173.01 408.19 C 173.59 406.51 174.07 404.79 174.90 403.21 C 174.23 402.97 172.89 402.50 172.21 402.26 C 173.15 401.44 174.10 400.63 175.06 399.84 C 173.82 392.35 175.50 384.72 175.15 377.17 C 173.23 376.24 171.34 375.24 169.69 373.89 C 171.64 374.04 173.43 374.85 175.23 375.57 C 175.07 370.10 174.54 364.64 174.90 359.16 C 174.10 355.16 173.44 351.16 173.11 347.09 C 173.76 346.49 174.40 345.89 175.05 345.30 C 174.54 345.12 173.50 344.74 172.98 344.56 C 173.25 340.93 175.27 337.28 173.10 333.87 C 173.50 329.59 173.40 325.29 173.74 321.01 C 172.63 320.75 171.52 320.52 170.41 320.30 C 170.27 319.82 170.00 318.84 169.86 318.35 C 170.81 318.54 171.77 318.72 172.73 318.90 C 172.76 317.44 172.81 315.99 172.90 314.54 C 170.51 314.91 168.57 313.01 166.26 313.01 C 161.39 317.06 155.27 319.26 150.19 323.07 C 145.38 326.60 139.01 328.33 135.22 333.05 C 132.59 333.20 130.34 334.64 128.14 335.94 C 121.01 340.27 113.80 344.43 106.64 348.70 C 104.88 350.25 103.03 348.41 101.35 347.71 C 100.39 340.87 93.41 336.11 93.57 329.07 C 99.43 324.13 106.45 320.88 112.82 316.68 C 127.18 308.40 141.89 300.65 155.42 291.03 C 155.41 289.40 155.46 287.77 155.31 286.16 C 153.72 284.42 151.04 284.32 149.35 282.66 C 145.76 279.86 141.87 276.48 137.00 276.75 C 127.28 281.44 118.52 287.92 109.01 293.05 C 101.04 298.63 92.26 302.89 84.04 308.06 C 82.69 309.29 80.80 308.91 79.14 309.08 C 78.99 307.86 78.79 306.65 78.54 305.45 C 74.97 300.82 72.15 295.71 69.18 290.69 C 68.93 289.51 68.79 288.33 68.77 287.13 C 71.99 286.72 74.41 284.75 76.59 282.51 C 81.38 280.53 85.25 276.97 89.92 274.76 C 94.81 271.68 99.58 268.41 104.72 265.74 C 106.27 264.22 109.29 262.78 108.38 260.18 C 106.69 258.35 105.11 256.18 102.65 255.36 C 99.81 254.44 98.06 251.86 95.55 250.43 C 89.24 249.57 83.98 253.93 78.64 256.56 C 76.57 257.38 75.26 259.26 73.51 260.54 C 71.08 261.75 68.31 262.38 66.28 264.28 C 63.60 266.35 60.39 268.80 57.12 269.17 C 54.42 265.70 52.45 261.74 49.89 258.17 C 47.86 254.71 46.78 250.58 43.56 247.95 C 47.43 246.22 50.53 243.21 54.38 241.47 C 56.85 240.24 59.09 238.59 61.07 236.67 C 61.84 235.21 61.33 233.46 61.53 231.89 C 56.41 228.67 51.04 225.93 45.81 222.91 C 41.42 224.46 37.30 226.65 33.22 228.86 C 29.53 224.32 27.54 218.74 24.07 214.06 C 18.47 205.52 13.78 196.49 7.96 188.08 C 6.81 186.92 7.12 185.19 6.87 183.72 C 17.22 183.16 27.67 184.42 37.95 182.82 C 42.28 182.77 46.61 182.71 50.94 182.85 C 52.14 183.03 54.24 183.40 53.96 185.09 C 54.18 190.31 53.97 196.82 59.39 199.59 C 64.26 201.56 68.46 205.00 73.65 206.17 C 73.96 204.03 74.66 201.88 74.33 199.70 C 73.76 194.43 73.84 189.13 73.80 183.84 C 79.42 181.55 85.64 183.72 91.44 182.34 C 94.58 181.50 97.69 183.05 100.87 182.88 C 101.17 184.00 101.43 185.13 101.67 186.27 C 101.85 194.26 102.03 202.26 101.73 210.25 C 102.21 210.56 103.17 211.19 103.65 211.51 C 103.06 212.03 102.48 212.56 101.91 213.09 C 104.44 216.33 102.75 220.70 103.56 224.48 C 109.09 227.45 114.19 232.28 120.80 232.32 C 120.51 224.87 121.55 217.46 121.12 210.02 C 121.44 201.01 120.88 192.03 120.80 183.03 C 123.13 182.38 125.50 181.78 127.94 181.94 C 134.60 182.09 141.28 181.66 147.92 182.35 C 148.80 185.94 148.72 189.63 148.64 193.30 C 148.97 203.95 148.89 214.61 148.75 225.26 C 149.10 225.60 149.81 226.29 150.16 226.64 C 149.66 227.38 149.17 228.12 148.68 228.87 C 149.10 229.45 149.95 230.61 150.38 231.18 C 149.87 232.11 149.36 233.05 148.85 233.98 C 149.29 234.46 150.18 235.43 150.63 235.92 C 150.44 236.47 150.06 237.59 149.87 238.14 C 150.54 242.27 150.50 246.47 150.42 250.65 C 152.17 252.14 153.78 253.87 155.92 254.79 C 160.47 256.52 164.05 260.31 168.95 261.19 C 171.62 260.86 172.72 258.35 172.70 255.92 C 172.76 247.00 172.70 238.07 172.74 229.14 C 172.94 227.77 171.40 227.12 170.72 226.18 C 173.91 220.22 171.56 213.26 172.40 206.85 C 171.70 198.71 171.68 190.47 172.17 182.31 C 179.29 181.12 186.51 182.46 193.69 181.87 C 194.91 183.64 195.00 185.82 194.98 187.90 C 194.97 205.27 194.95 222.64 194.99 240.00 C 195.21 247.32 195.45 254.80 197.55 261.84 C 201.86 263.40 205.79 260.50 209.43 258.56 C 215.58 254.52 222.36 251.59 228.52 247.56 C 238.66 241.26 248.92 235.19 259.35 229.43 C 264.06 226.38 268.74 223.26 273.75 220.72 C 276.35 219.49 278.61 217.62 280.54 215.50 C 281.29 213.81 279.60 212.52 278.62 211.40 C 270.38 205.39 261.49 200.33 252.50 195.53 C 247.92 192.25 242.71 190.10 237.98 187.09 C 229.81 183.29 222.45 177.97 214.27 174.16 C 216.27 169.94 218.32 165.73 220.46 161.57 C 221.99 158.61 224.25 156.05 225.26 152.82 C 229.03 153.55 232.12 156.05 235.72 157.32 C 240.05 160.53 245.19 162.40 249.72 165.33 C 253.07 166.36 255.49 168.98 258.66 170.38 C 263.49 172.27 267.65 175.45 272.25 177.80 C 279.10 181.21 285.39 186.01 292.94 187.82 C 294.04 187.59 295.14 187.31 296.23 186.99 C 296.34 180.36 296.32 173.73 296.24 167.10 C 290.69 163.88 285.87 159.50 279.89 157.04 C 272.24 153.60 265.56 148.28 257.66 145.43 C 255.27 142.39 251.26 141.89 248.12 139.94 C 244.47 137.76 240.62 135.93 237.00 133.69 C 236.98 133.10 236.94 131.92 236.92 131.33 C 237.31 131.34 238.09 131.35 238.48 131.36 C 239.16 126.54 242.55 122.85 244.61 118.60 C 246.00 116.03 247.05 113.19 249.26 111.17 C 257.54 113.77 264.32 119.44 272.32 122.65 C 274.53 123.72 276.35 125.49 278.71 126.26 C 283.60 127.94 287.57 132.04 292.88 132.51 C 294.26 132.84 295.19 131.80 295.86 130.76 C 296.62 126.54 296.24 122.23 296.29 117.97 C 296.47 115.99 294.71 114.69 293.49 113.42 C 285.97 108.45 278.22 103.78 270.09 99.87 C 266.83 97.40 262.94 96.03 259.29 94.25 C 259.27 93.29 259.24 92.34 259.20 91.39 C 259.91 90.74 260.58 90.05 261.21 89.32 C 264.04 82.25 268.09 75.66 272.73 69.65 C 280.48 71.09 286.28 78.74 294.50 77.66 C 296.39 72.39 295.70 66.73 295.57 61.26 C 294.89 57.70 290.80 56.76 288.56 54.40 C 287.32 53.03 285.41 52.70 283.97 51.63 C 283.94 49.98 283.49 48.10 284.73 46.76 C 287.99 42.12 289.76 36.64 292.98 31.97 M 300.34 232.40 C 296.92 235.89 292.45 237.91 288.43 240.56 C 282.15 243.77 276.47 248.06 270.10 251.14 C 267.59 252.13 265.95 254.45 263.46 255.47 C 260.06 257.04 257.59 259.90 255.18 262.66 C 260.00 267.27 266.32 269.59 271.92 273.03 C 282.66 278.49 293.03 284.60 303.66 290.29 C 306.71 291.78 310.06 293.15 313.54 292.65 C 320.68 289.38 326.97 284.56 333.96 281.00 C 342.10 275.70 350.34 270.55 358.85 265.86 C 360.84 264.53 363.58 262.94 363.17 260.12 C 361.96 256.80 358.64 254.99 355.66 253.44 C 349.40 249.19 342.18 246.49 336.17 241.92 C 327.91 238.43 320.25 233.69 312.20 229.78 C 308.11 227.46 303.89 230.52 300.34 232.40 M 364.23 260.24 C 364.81 260.81 364.81 260.81 364.23 260.24 M 240.68 268.64 C 233.62 272.37 227.14 277.13 220.26 281.17 C 216.46 282.35 213.53 285.08 210.23 287.17 C 206.13 290.17 201.16 291.73 197.43 295.28 C 197.48 299.31 197.33 303.42 196.20 307.31 C 196.73 308.19 197.25 309.08 197.77 309.98 C 197.38 310.55 196.59 311.68 196.20 312.24 C 196.89 313.38 197.60 314.57 197.43 315.97 C 197.42 328.90 197.30 341.84 197.63 354.76 C 196.88 357.54 199.60 359.11 200.83 361.21 C 204.89 359.82 208.50 357.51 211.99 355.05 C 218.57 350.42 226.22 347.52 232.57 342.52 C 239.55 338.59 246.65 334.82 252.83 329.68 C 254.90 326.80 253.37 323.22 254.15 320.02 C 254.76 305.67 253.34 291.36 253.41 277.02 C 252.27 273.12 252.20 269.02 251.61 265.01 C 247.92 266.13 243.63 265.75 240.68 268.64 M 368.16 268.32 C 367.73 274.86 368.14 281.44 367.98 288.00 C 368.25 299.57 367.23 311.24 369.16 322.70 C 371.29 327.10 375.94 328.93 380.08 330.90 C 387.51 335.76 395.59 339.50 403.37 343.71 C 406.56 344.46 408.09 347.76 411.23 348.58 C 416.43 350.78 421.05 354.98 427.11 354.41 C 427.30 352.92 427.61 351.44 427.73 349.94 C 427.23 345.76 429.44 341.45 427.90 337.36 C 429.66 333.77 428.34 329.58 429.13 325.75 C 429.15 323.59 429.55 320.88 427.72 319.31 C 428.40 318.06 428.95 316.74 429.37 315.37 C 428.71 315.35 427.39 315.31 426.73 315.29 C 427.48 314.14 428.35 313.05 429.04 311.86 C 429.45 310.19 428.16 309.03 427.46 307.70 C 427.30 303.19 428.12 298.45 426.80 294.11 C 421.28 287.07 411.62 285.59 404.82 280.13 C 402.23 277.78 398.68 277.13 395.92 275.06 C 390.27 270.95 383.71 268.44 377.56 265.22 C 375.89 264.07 373.81 264.36 371.91 264.34 C 370.32 265.26 369.37 266.96 368.16 268.32 M 281.51 311.27 C 281.38 320.86 281.56 330.45 281.45 340.04 C 280.91 341.25 280.18 342.36 279.45 343.47 C 271.85 349.51 262.63 353.09 255.21 359.39 C 253.78 360.16 253.65 362.83 255.34 363.38 C 264.10 368.83 273.57 373.15 281.60 379.74 C 281.29 387.49 281.49 395.26 281.84 403.01 C 281.96 405.84 283.53 408.21 284.73 410.69 C 289.04 410.74 292.55 408.18 296.18 406.26 C 301.84 403.73 306.40 399.35 312.15 396.93 C 320.60 400.42 328.37 405.32 336.50 409.46 C 338.59 409.74 340.70 409.56 342.80 409.57 C 343.84 400.51 342.96 391.35 343.28 382.25 C 344.27 380.60 345.50 379.10 346.47 377.43 C 352.62 373.18 358.92 369.14 365.52 365.61 C 368.67 364.52 370.57 361.65 372.35 359.02 C 369.24 352.19 361.49 350.23 356.07 345.80 C 351.53 343.34 345.97 341.44 343.31 336.68 C 343.16 328.87 343.33 321.05 343.25 313.24 C 342.10 312.36 340.98 311.45 339.91 310.49 C 333.91 310.32 329.80 315.58 324.43 317.51 C 321.50 320.18 317.64 321.10 314.10 322.65 C 311.86 321.01 309.16 320.32 306.64 319.27 C 299.65 315.04 292.64 310.70 284.96 307.86 C 283.73 308.88 281.27 309.23 281.51 311.27 M 344.15 334.22 C 344.77 334.83 344.77 334.83 344.15 334.22 M 101.97 345.33 C 100.39 348.26 105.31 345.53 101.97 345.33 M 416.80 364.79 C 412.97 365.94 410.65 369.62 406.83 370.79 C 394.61 377.84 382.42 384.86 370.46 392.36 C 370.63 408.41 370.11 424.49 370.86 440.53 C 371.60 444.10 371.14 447.77 371.58 451.38 C 372.71 455.07 377.17 454.66 379.75 452.73 C 391.67 444.75 404.63 438.39 416.38 430.22 C 421.25 427.76 426.58 425.31 429.68 420.60 C 430.11 404.08 429.51 387.53 429.78 371.00 C 429.58 368.77 429.01 366.55 429.68 364.34 C 428.39 363.21 427.21 361.97 425.88 360.90 C 422.63 361.49 419.94 363.78 416.80 364.79 M 198.03 367.26 C 196.13 382.44 198.85 397.69 198.28 412.92 C 199.76 417.06 200.27 421.36 199.97 425.77 C 202.79 427.43 205.78 428.77 208.64 430.37 C 210.26 431.54 211.67 433.07 213.71 433.54 C 217.06 434.50 219.54 437.19 222.85 438.27 C 224.91 438.97 226.55 440.42 228.32 441.61 C 234.89 445.39 241.66 448.78 248.14 452.70 C 250.45 454.32 254.80 455.25 255.61 451.57 C 255.79 448.17 257.34 444.33 255.40 441.21 C 255.91 440.53 256.42 439.86 256.94 439.20 C 256.26 438.43 255.59 437.67 254.93 436.91 C 255.68 435.91 256.43 434.91 257.18 433.91 C 256.47 433.29 255.77 432.68 255.07 432.08 C 255.41 431.22 255.99 430.43 256.03 429.48 C 256.15 424.39 256.20 419.23 254.75 414.31 C 253.85 407.87 254.71 401.32 254.26 394.85 C 247.76 391.42 242.08 386.62 235.33 383.68 C 228.80 379.29 221.66 375.97 214.88 372.04 C 211.02 369.07 206.45 367.34 202.23 365.00 C 200.86 365.80 199.46 366.56 198.03 367.26 M 307.87 429.81 C 304.69 430.69 302.66 433.45 299.61 434.57 C 291.54 439.08 283.65 443.84 275.81 448.74 C 271.61 450.20 268.43 453.41 264.59 455.52 C 263.44 456.50 261.67 457.31 261.55 459.01 C 262.82 461.21 265.41 462.17 267.48 463.48 C 280.55 470.38 293.06 478.22 306.25 484.82 C 309.63 487.41 313.75 488.75 317.83 489.81 C 324.18 485.68 330.71 481.81 337.44 478.36 C 339.75 476.20 342.47 474.65 345.32 473.33 C 352.62 468.42 361.16 465.27 367.50 459.05 C 364.59 456.71 361.95 453.93 358.38 452.59 C 351.67 448.55 344.84 444.76 337.99 440.95 C 334.73 438.82 330.73 437.91 327.85 435.19 C 326.13 433.68 323.75 433.39 321.81 432.29 C 318.42 428.56 312.29 426.86 307.87 429.81 M 433.13 528.19 C 433.76 528.81 433.76 528.81 433.13 528.19 Z" />
<path fill="#000000" opacity="1.00" d=" M 170.23 322.22 C 170.82 322.83 170.82 322.83 170.23 322.22 Z" />
<path fill="#000000" opacity="1.00" d=" M 427.23 322.23 C 427.83 322.82 427.83 322.82 427.23 322.23 Z" />
<path fill="#000000" opacity="1.00" d=" M 170.24 325.23 C 170.81 325.82 170.81 325.82 170.24 325.23 Z" />
<path fill="#000000" opacity="1.00" d=" M 169.25 327.23 C 169.82 327.83 169.82 327.83 169.25 327.23 Z" />
<path fill="#000000" opacity="1.00" d=" M 168.43 329.22 C 169.49 329.23 170.56 329.25 171.64 329.27 C 171.66 329.59 171.70 330.21 171.72 330.53 C 170.54 330.51 169.35 330.52 168.17 330.56 C 168.23 330.22 168.36 329.55 168.43 329.22 Z" />
<path fill="#000000" opacity="1.00" d=" M 167.94 332.49 C 169.08 331.70 171.26 333.52 169.81 334.53 C 168.57 335.51 166.69 333.58 167.94 332.49 Z" />
<path fill="#000000" opacity="1.00" d=" M 170.24 468.23 C 170.82 468.82 170.82 468.82 170.24 468.23 Z" />
<path fill="#000000" opacity="1.00" d=" M 170.50 472.63 C 171.36 472.59 172.21 472.52 173.07 472.46 C 172.95 472.95 172.69 473.93 172.57 474.42 C 171.07 475.12 169.65 475.95 168.30 476.89 C 169.20 475.56 169.94 474.14 170.50 472.63 Z" />
<path fill="#000000" opacity="1.00" d=" M 170.30 478.95 C 171.60 479.56 171.58 480.23 170.23 480.95 C 168.96 480.36 168.99 479.70 170.30 478.95 Z" />
<path fill="#000000" opacity="1.00" d=" M 550.13 513.22 C 550.77 513.85 550.77 513.85 550.13 513.22 Z" />
<path fill="#000000" opacity="1.00" d=" M 269.17 627.32 C 272.51 627.37 267.63 630.30 269.17 627.32 Z" />
</g>
</svg>
