<?xml version="1.0" encoding="UTF-8" ?>
<!DOCTYPE svg PUBLIC "-//W3C//DTD SVG 1.1//EN" "http://www.w3.org/Graphics/SVG/1.1/DTD/svg11.dtd">
<svg width="238pt" height="250pt" viewBox="0 0 238 250" version="1.1" xmlns="http://www.w3.org/2000/svg">
<g id="#ffffffff">
</g>
<g id="#010101ff">
<path fill="#010101" opacity="1.00" d=" M 112.08 13.03 C 115.20 10.97 120.10 11.22 122.31 14.50 C 124.06 22.42 125.02 30.76 123.18 38.78 C 126.85 37.58 132.35 36.48 134.25 40.95 C 134.05 46.34 128.65 49.47 124.58 52.06 C 124.61 54.53 124.61 57.00 124.62 59.48 C 131.55 56.93 137.89 53.07 143.87 48.77 C 146.77 46.53 150.78 47.10 154.07 48.06 C 160.15 50.26 166.74 53.77 169.36 60.03 C 171.73 67.96 169.35 76.33 170.43 84.42 C 173.26 83.85 175.77 82.43 177.94 80.57 C 175.22 75.68 177.25 68.21 182.95 66.65 C 186.22 66.15 188.21 69.22 190.39 71.07 C 195.85 68.01 200.90 64.06 207.06 62.45 C 210.14 61.10 214.36 61.58 216.37 64.51 C 218.55 68.26 216.38 72.87 213.79 75.81 C 209.39 80.07 203.36 81.92 198.21 85.07 C 199.48 86.84 201.10 88.70 200.72 91.06 C 200.78 93.57 198.59 95.92 196.05 95.85 C 191.89 96.15 188.38 93.57 185.15 91.32 C 183.12 92.46 181.08 93.58 179.14 94.86 C 185.00 101.08 193.08 104.28 200.02 109.02 C 205.83 112.88 206.20 120.75 205.56 127.03 C 205.03 132.91 199.62 136.33 195.06 139.12 C 191.14 141.11 187.12 142.98 183.73 145.85 C 185.03 147.94 186.37 150.00 187.95 151.89 C 190.33 150.01 192.83 147.95 195.98 147.67 C 198.82 147.23 202.33 148.19 203.61 151.00 C 204.47 153.75 203.27 156.49 202.13 158.95 C 207.98 160.98 213.87 163.19 219.11 166.56 C 221.58 168.25 224.50 170.75 223.74 174.12 C 223.34 176.58 222.43 179.72 219.97 180.75 C 210.84 181.59 202.29 176.94 195.02 171.91 C 193.85 174.03 192.68 176.53 190.15 177.26 C 186.56 177.97 183.25 175.25 181.82 172.16 C 180.56 169.48 181.30 166.46 181.92 163.72 C 179.88 162.35 177.64 161.32 175.29 160.60 C 174.29 169.46 178.15 178.36 175.62 187.12 C 174.33 192.52 169.24 195.82 164.39 197.76 C 159.52 199.64 153.75 200.89 148.86 198.41 C 142.69 195.50 137.64 190.60 131.15 188.30 C 131.24 190.61 131.33 192.91 131.39 195.22 C 136.94 195.23 142.38 200.35 140.89 206.11 C 140.28 209.71 136.20 210.81 133.07 210.27 C 133.68 218.29 132.67 226.72 129.00 233.97 C 127.78 236.74 124.12 239.13 121.51 236.54 C 114.04 230.52 115.64 219.68 116.39 211.23 C 113.46 210.82 110.47 210.66 107.68 209.60 C 105.29 203.35 110.17 196.98 116.37 195.94 C 116.21 193.68 116.16 191.42 116.13 189.16 C 109.54 193.16 103.16 197.69 95.91 200.42 C 88.43 203.14 81.34 198.34 75.14 194.74 C 71.74 192.87 69.93 189.10 69.51 185.35 C 68.70 177.99 69.86 170.60 69.87 163.22 C 67.49 164.34 64.95 165.29 62.95 167.06 C 63.93 172.28 62.75 179.35 57.05 181.30 C 53.38 182.05 52.15 177.73 51.38 175.04 C 44.84 180.14 36.85 182.80 28.98 185.05 C 25.83 186.29 23.17 182.90 22.73 180.10 C 22.45 176.00 25.53 172.72 28.78 170.70 C 33.58 167.74 38.98 165.90 43.74 162.84 C 41.90 161.33 39.53 159.67 39.73 156.98 C 39.67 153.82 42.12 151.45 44.94 150.50 C 48.20 151.42 50.97 153.47 54.12 154.65 C 57.61 155.70 60.02 152.40 62.21 150.30 C 53.30 146.59 45.25 141.20 37.46 135.56 C 34.45 132.98 34.26 128.70 33.89 125.04 C 33.75 119.71 34.00 113.04 39.17 109.99 C 46.10 105.97 54.61 104.56 60.23 98.41 C 57.65 96.92 55.15 94.64 51.99 94.71 C 48.63 95.38 46.24 98.07 43.14 99.34 C 40.05 100.19 36.88 97.20 37.44 94.06 C 37.52 91.29 40.13 89.73 41.80 87.88 C 35.15 85.60 28.77 82.23 23.61 77.41 C 21.60 75.42 19.51 72.94 19.63 69.94 C 20.87 65.56 26.32 65.82 29.86 66.61 C 36.66 68.58 41.78 73.83 48.07 76.88 C 48.37 74.83 48.14 72.37 49.85 70.85 C 52.11 68.36 56.66 69.12 58.11 72.13 C 59.64 75.61 59.15 79.52 59.16 83.21 C 61.80 84.40 64.33 85.83 67.01 86.92 C 66.69 79.96 66.70 72.97 65.89 66.05 C 65.49 62.74 66.34 59.17 68.94 56.93 C 73.85 52.34 80.03 48.15 87.02 48.26 C 90.42 48.13 93.44 49.95 96.14 51.80 C 100.52 54.88 105.74 56.37 110.31 59.12 C 111.03 56.65 111.32 54.09 111.00 51.54 C 107.36 50.16 103.01 48.76 101.31 44.90 C 100.87 42.86 100.98 40.32 102.81 38.97 C 105.03 37.35 107.93 37.90 110.49 37.88 C 109.73 32.59 108.97 27.27 108.93 21.91 C 109.08 18.77 109.44 15.12 112.08 13.03 M 133.68 70.11 C 137.72 72.43 137.89 78.58 134.00 81.08 C 131.66 82.68 129.18 80.79 127.07 79.77 C 125.46 83.13 125.10 86.85 126.14 90.45 C 130.39 89.90 134.03 92.62 135.47 96.51 C 139.33 95.39 143.79 96.74 145.34 100.70 C 148.71 99.25 151.43 96.76 153.17 93.53 C 151.03 92.23 147.68 91.13 148.09 87.97 C 148.11 83.20 153.85 80.28 157.95 82.43 C 156.94 75.97 157.42 69.40 156.74 62.91 C 154.66 61.68 152.52 60.53 150.38 59.38 C 145.33 63.76 138.68 65.64 133.68 70.11 M 79.62 65.10 C 78.41 71.45 80.58 77.80 80.33 84.17 C 84.07 82.95 89.38 84.58 89.86 88.98 C 90.56 92.12 87.63 93.95 85.53 95.57 C 88.14 98.35 91.43 100.31 94.77 102.11 C 96.52 98.42 100.43 96.77 104.37 97.38 C 105.12 95.33 105.67 92.89 107.73 91.72 C 109.32 90.95 111.08 90.64 112.77 90.17 C 112.22 87.83 111.47 85.54 110.23 83.47 C 106.54 83.24 101.84 82.70 100.22 78.79 C 98.80 75.95 100.66 73.08 102.27 70.82 C 96.46 68.51 92.03 63.60 85.97 61.90 C 83.39 60.96 80.28 62.39 79.62 65.10 M 152.37 111.17 C 155.37 114.28 156.06 118.86 153.65 122.53 C 155.87 125.81 155.23 129.66 153.32 132.92 C 156.42 134.59 159.95 134.73 163.40 134.54 C 164.16 132.44 164.51 129.62 167.00 128.84 C 171.03 128.15 174.21 131.40 176.87 133.94 C 182.89 132.42 188.59 129.42 193.10 125.13 C 194.33 122.22 193.46 118.92 192.46 116.06 C 186.52 113.13 180.31 110.80 174.45 107.73 C 173.89 111.37 171.14 115.19 167.02 114.62 C 163.18 114.62 162.45 110.19 162.56 107.20 C 158.83 107.50 155.18 108.62 152.37 111.17 M 77.88 108.99 C 77.67 111.09 77.74 113.24 77.22 115.29 C 76.10 117.46 73.21 118.26 71.06 117.19 C 68.25 116.12 66.76 113.35 65.63 110.75 C 60.18 114.62 53.52 116.78 48.90 121.77 C 46.34 123.87 48.18 128.01 50.81 129.13 C 56.17 132.00 61.51 134.91 66.80 137.89 C 67.55 133.58 72.51 130.06 76.64 132.36 C 79.21 133.76 78.53 136.97 78.46 139.36 C 82.26 138.33 85.90 136.84 89.56 135.40 C 87.07 132.20 86.10 128.07 88.10 124.37 C 87.32 123.28 86.46 122.25 85.88 121.04 C 85.07 118.14 86.95 115.51 88.25 113.09 C 84.95 111.36 81.58 109.68 77.88 108.99 M 137.24 149.51 C 136.19 153.70 132.23 155.74 128.37 156.70 C 128.86 159.89 129.47 163.08 130.70 166.09 C 133.46 164.41 137.50 163.27 139.99 166.05 C 142.94 169.01 141.38 173.50 139.05 176.30 C 144.66 178.49 149.24 182.79 155.05 184.49 C 157.30 184.92 160.64 185.38 162.03 183.07 C 163.59 176.95 161.58 170.72 161.24 164.57 C 158.02 161.95 151.76 162.86 150.70 157.99 C 150.54 154.68 153.86 153.11 155.82 151.03 C 153.84 147.81 150.31 146.37 146.98 145.01 C 144.86 148.31 141.34 150.81 137.24 149.51 M 88.14 153.04 C 90.48 154.27 94.10 155.65 93.46 159.00 C 93.15 163.88 87.40 165.18 83.40 165.03 C 83.89 171.11 82.38 177.13 82.87 183.20 C 83.28 186.48 87.43 190.04 90.53 187.57 C 96.14 184.23 101.67 180.74 107.40 177.60 C 106.11 175.76 104.53 174.09 103.57 172.05 C 103.08 169.33 104.66 166.28 107.37 165.47 C 109.75 164.72 112.06 166.00 114.23 166.82 C 115.11 163.53 115.25 160.12 115.16 156.74 C 110.88 157.00 107.24 154.37 106.10 150.26 C 101.94 152.48 98.15 149.02 95.29 146.32 C 92.80 148.44 90.14 150.40 88.14 153.04 Z" />
</g>
</svg>
