<?xml version="1.0" encoding="UTF-8" ?>
<!DOCTYPE svg PUBLIC "-//W3C//DTD SVG 1.1//EN" "http://www.w3.org/Graphics/SVG/1.1/DTD/svg11.dtd">
<svg width="736pt" height="697pt" viewBox="0 0 736 697" version="1.1" xmlns="http://www.w3.org/2000/svg">
<g id="#ffffffff">
</g>
<g id="#131313ff">
<path fill="#131313" opacity="1.00" d=" M 265.90 24.32 C 274.29 21.42 283.49 30.05 282.04 38.56 C 281.37 42.77 278.10 45.72 275.44 48.77 C 279.76 59.50 282.54 70.73 286.56 81.57 C 288.33 88.26 290.37 94.91 293.08 101.29 C 294.70 108.41 297.30 115.25 299.46 122.22 C 300.83 126.26 301.87 130.43 303.65 134.32 C 304.83 134.98 306.07 135.53 307.36 135.98 C 309.01 130.68 309.21 125.06 310.25 119.62 C 310.87 113.78 312.25 108.03 312.55 102.15 C 313.82 95.82 315.03 89.46 315.48 83.02 C 316.11 79.09 317.29 75.23 317.49 71.24 C 317.08 68.96 315.24 67.19 314.59 64.96 C 314.61 61.07 318.00 57.46 321.94 57.59 C 325.25 58.30 328.51 61.29 327.70 64.96 C 328.04 68.24 324.70 69.74 322.89 71.89 C 319.49 93.05 316.41 114.28 313.11 135.47 C 311.80 139.85 316.07 144.12 313.93 148.45 C 313.11 150.87 311.05 152.67 310.32 155.09 C 311.29 159.63 313.12 163.94 314.52 168.36 C 318.94 169.11 323.88 170.76 325.69 175.30 C 328.14 180.19 324.97 185.28 321.46 188.62 C 322.12 194.04 324.87 199.04 326.07 204.38 C 327.83 204.51 329.59 204.59 331.36 204.67 C 332.52 195.97 333.93 187.31 335.27 178.64 C 335.37 171.30 338.02 164.30 338.37 156.96 C 338.41 151.96 340.80 147.27 340.53 142.24 C 339.94 139.64 336.81 137.97 337.40 135.03 C 337.01 132.73 338.89 131.12 339.95 129.32 C 342.68 129.14 345.42 129.17 348.16 129.36 C 349.06 131.18 350.75 132.82 350.56 135.00 C 350.76 138.87 346.01 140.54 345.67 144.25 C 345.08 152.38 343.07 160.31 342.16 168.40 C 340.90 177.71 339.14 186.94 337.89 196.25 C 337.41 200.91 335.44 205.72 337.09 210.35 C 338.02 214.02 338.62 218.59 335.85 221.63 C 334.88 223.21 332.60 224.59 333.52 226.71 C 334.87 230.85 335.97 235.09 337.59 239.13 C 340.10 241.16 343.96 241.17 345.91 244.00 C 348.67 247.87 348.59 253.80 345.33 257.36 C 343.77 258.89 344.55 261.12 345.11 262.91 C 346.61 267.37 348.03 271.85 349.66 276.27 C 354.01 277.20 358.66 279.46 359.95 284.10 C 361.72 288.56 358.84 292.87 356.13 296.21 C 358.88 305.50 362.18 314.62 364.96 323.89 C 369.49 316.87 371.22 308.59 372.93 300.54 C 375.60 294.15 377.20 287.38 379.34 280.81 C 380.35 273.81 384.08 267.20 382.60 259.96 C 380.53 256.95 377.88 254.33 375.54 251.53 C 370.80 249.58 366.47 246.79 362.86 243.12 C 359.07 240.29 357.49 235.57 356.61 231.11 C 357.25 226.58 362.40 225.22 366.17 224.27 C 370.76 223.25 374.37 226.67 377.50 229.47 C 381.54 233.64 386.18 237.18 390.30 241.28 C 393.89 222.36 399.94 203.99 403.52 185.05 C 403.21 181.97 400.62 179.63 398.29 177.83 C 390.40 172.11 383.25 165.48 376.26 158.71 C 374.23 156.67 372.59 153.97 372.54 151.02 C 373.55 144.14 382.24 139.88 388.24 143.68 C 396.17 149.77 403.04 157.10 410.51 163.74 C 411.20 161.76 411.89 159.77 412.35 157.72 C 414.45 144.84 417.58 132.12 418.87 119.12 C 419.43 114.52 421.12 109.01 417.95 105.00 C 414.10 100.51 409.34 96.88 405.66 92.24 C 402.34 87.87 397.54 84.73 394.91 79.81 C 393.72 77.31 393.03 74.61 392.24 71.96 C 395.00 67.14 400.51 64.44 405.95 64.44 C 412.14 65.56 414.92 71.95 418.96 76.04 C 422.17 78.97 423.98 83.46 428.22 85.15 C 431.12 72.80 434.40 60.52 436.77 48.04 C 437.46 42.78 439.92 37.99 442.53 33.45 C 443.56 31.89 445.09 30.14 447.17 30.39 C 451.41 30.31 455.10 33.96 455.38 38.16 C 455.67 43.34 453.41 48.18 452.13 53.10 C 450.26 60.94 446.36 68.14 444.65 76.03 C 444.02 79.63 443.11 83.17 442.30 86.73 C 445.44 86.10 448.60 85.68 451.79 85.40 C 458.11 83.53 464.20 81.00 470.46 78.96 C 473.47 77.96 476.88 78.84 479.38 80.67 C 481.01 82.77 482.00 85.35 482.41 87.96 C 481.60 90.38 480.39 92.73 478.55 94.53 C 476.03 97.36 472.13 98.04 468.76 99.39 C 460.36 102.12 452.10 105.26 443.71 108.01 C 441.36 108.90 438.46 109.62 437.39 112.18 C 434.56 118.59 432.73 125.42 431.59 132.33 C 430.22 138.51 428.85 144.70 427.96 150.98 C 427.24 155.92 425.57 160.72 425.53 165.75 C 432.34 164.72 438.46 161.18 445.13 159.57 C 449.15 159.56 453.23 157.79 457.18 159.24 C 459.60 159.83 462.01 161.01 463.38 163.19 C 464.36 166.51 462.85 170.29 459.94 172.11 C 454.24 175.31 447.21 175.61 442.12 179.95 C 435.41 183.42 427.83 184.84 420.97 187.96 C 419.44 189.73 419.36 192.15 418.85 194.32 C 417.63 201.53 415.29 208.46 413.45 215.52 C 411.04 224.65 407.11 233.40 406.13 242.87 C 412.16 242.90 417.71 240.13 423.72 239.95 C 428.97 238.17 434.48 238.51 439.95 238.70 C 441.77 239.23 443.56 240.85 443.45 242.88 C 443.53 247.96 439.26 251.62 435.36 254.16 C 425.32 257.87 415.12 261.16 405.07 264.85 C 399.86 266.64 398.59 272.84 398.23 277.67 C 396.83 282.71 396.70 288.00 395.25 293.03 C 393.20 300.57 392.14 308.34 390.64 315.99 C 389.12 319.95 388.99 324.22 389.50 328.40 C 394.33 323.91 398.32 318.61 402.98 313.95 C 404.51 312.21 406.47 310.76 407.58 308.70 C 407.67 304.70 406.60 300.02 409.93 296.94 C 412.70 293.26 417.47 293.18 421.64 293.57 C 425.25 289.57 429.29 285.93 432.47 281.57 C 432.62 277.05 430.82 271.39 434.98 268.06 C 438.22 264.41 443.26 265.53 447.56 265.66 C 451.33 261.44 455.31 257.41 458.91 253.03 C 457.39 249.18 456.14 244.28 458.87 240.68 C 460.88 237.80 464.38 236.70 467.46 235.41 C 473.10 216.70 478.53 197.91 484.02 179.17 C 484.94 176.23 486.29 173.36 486.60 170.28 C 485.69 168.14 484.16 166.27 483.63 163.98 C 483.52 161.57 485.11 159.43 487.02 158.12 C 490.74 155.93 496.94 158.21 496.70 163.06 C 497.78 167.60 492.31 169.23 491.47 173.18 C 485.49 194.84 478.23 216.17 472.46 237.92 C 476.85 234.48 480.03 229.85 483.95 225.94 C 482.77 221.59 481.28 216.41 484.83 212.71 C 488.06 208.16 494.02 209.18 498.80 209.71 C 501.95 206.15 505.41 202.85 508.51 199.23 C 509.57 195.87 506.90 192.38 508.40 189.09 C 509.71 184.62 513.94 181.93 518.36 181.25 C 521.63 170.79 524.85 160.29 527.54 149.65 C 529.58 143.89 531.35 138.03 532.73 132.08 C 534.49 126.99 536.19 121.87 537.57 116.67 C 538.52 113.83 536.15 111.53 535.51 108.94 C 535.25 106.35 536.83 103.80 539.02 102.50 C 541.64 102.16 545.16 101.57 546.97 104.03 C 549.43 106.50 549.28 111.27 546.28 113.27 C 542.16 115.86 541.95 121.09 540.51 125.28 C 538.98 133.46 535.04 140.94 533.78 149.20 C 529.78 160.21 527.11 171.66 523.43 182.79 C 531.55 174.44 539.57 165.97 546.98 157.00 C 552.35 152.00 557.16 146.45 561.95 140.91 C 567.97 135.27 572.86 128.54 578.89 122.91 C 581.65 119.91 584.25 116.76 587.12 113.85 C 585.36 108.90 583.81 102.75 587.32 98.20 C 592.11 90.88 604.74 91.61 608.62 99.47 C 612.49 105.87 608.77 115.18 601.70 117.41 C 598.27 118.22 594.74 117.55 591.29 117.25 C 587.28 121.57 583.00 125.66 579.50 130.42 C 574.75 135.04 570.06 139.73 566.01 144.99 C 559.90 150.28 555.43 157.08 549.50 162.53 C 542.56 170.38 535.14 177.79 528.32 185.75 C 538.72 181.41 549.51 178.04 559.84 173.51 C 566.22 171.68 572.41 169.22 578.50 166.58 C 582.38 165.12 586.61 164.38 590.15 162.16 C 591.65 159.81 592.27 156.39 595.47 155.80 C 601.12 153.65 606.91 161.20 602.86 165.92 C 600.55 170.02 595.55 168.27 591.96 167.50 C 587.90 168.86 583.89 170.39 580.02 172.20 C 574.03 174.53 567.41 175.67 562.06 179.38 C 564.63 181.66 567.05 184.10 569.49 186.52 C 571.99 189.05 575.18 190.86 577.30 193.77 C 570.93 189.69 566.51 183.29 560.13 179.28 C 549.78 183.23 539.40 187.12 528.98 190.91 C 528.36 194.14 527.61 197.72 524.93 199.91 C 521.76 202.68 517.27 201.79 513.44 201.59 C 509.75 205.53 506.34 209.74 502.43 213.48 C 502.60 217.97 503.97 223.62 499.67 226.68 C 496.96 229.72 492.84 229.61 489.12 229.40 C 487.49 229.12 486.64 230.68 485.69 231.66 C 483.03 234.80 480.36 237.95 477.30 240.71 C 484.05 237.18 491.49 235.22 498.52 232.31 C 506.33 228.82 514.73 226.89 522.45 223.17 C 528.13 221.34 533.80 219.44 539.35 217.22 C 542.40 216.25 542.88 212.57 545.21 210.72 C 548.44 209.69 552.44 209.96 554.36 213.16 C 555.26 216.24 555.22 220.33 552.06 222.08 C 548.43 224.50 544.32 220.25 540.70 222.23 C 536.14 223.97 531.59 225.74 527.11 227.67 C 521.20 229.45 515.38 231.56 509.72 234.04 C 499.03 237.72 488.39 241.61 477.89 245.80 C 477.49 249.11 476.43 252.57 473.59 254.61 C 470.67 257.10 466.64 256.62 463.10 256.48 C 459.34 260.88 455.09 264.83 451.26 269.18 C 451.61 273.80 453.33 279.78 449.04 283.10 C 445.88 286.59 440.86 285.69 436.72 285.21 C 433.04 288.96 429.39 292.74 426.07 296.81 C 427.91 301.07 428.93 306.68 425.49 310.45 C 422.13 314.71 415.95 314.28 411.36 312.54 C 407.62 316.41 404.25 320.61 400.47 324.44 C 397.64 327.54 394.35 330.32 392.33 334.06 C 394.19 334.50 396.04 335.90 398.02 335.35 C 408.72 331.72 419.27 327.59 430.08 324.31 C 437.28 323.75 443.80 320.58 450.58 318.37 C 454.40 317.04 458.43 314.81 460.09 310.93 C 463.03 303.37 463.36 295.14 466.16 287.54 C 467.02 282.20 470.54 276.85 476.01 275.56 C 479.91 275.86 483.93 277.81 486.12 281.17 C 487.72 286.44 486.39 292.29 483.58 296.92 C 481.66 300.17 481.04 303.95 480.22 307.58 C 482.61 307.52 485.05 307.48 487.30 306.54 C 503.48 300.86 519.60 295.03 535.81 289.44 C 540.48 288.07 542.83 283.28 544.20 279.00 C 544.18 271.03 548.03 263.84 549.43 256.12 C 551.36 251.23 554.61 244.12 560.97 245.24 C 564.44 245.34 566.94 248.35 567.78 251.50 C 569.57 255.38 568.26 259.60 566.57 263.24 C 564.81 269.98 561.86 276.29 559.44 282.80 C 576.72 276.54 594.11 270.57 611.38 264.31 C 614.44 262.11 618.54 260.57 619.89 256.75 C 622.43 251.69 623.53 246.13 625.04 240.72 C 627.43 235.17 628.46 229.00 631.99 223.98 C 634.79 222.12 638.58 220.40 641.79 222.35 C 647.26 224.66 648.36 231.67 647.31 236.89 C 645.01 243.33 640.74 248.89 638.80 255.48 C 641.98 255.41 645.34 256.17 648.37 254.83 C 660.49 250.24 672.80 246.16 685.00 241.80 C 689.75 239.57 695.21 240.67 700.18 241.48 C 702.22 246.07 702.30 252.73 697.47 255.63 C 693.06 257.78 688.24 258.96 683.69 260.77 C 681.28 261.88 678.60 261.41 676.06 261.76 C 666.94 264.77 658.01 268.31 648.89 271.34 C 647.82 271.48 647.18 272.07 646.96 273.11 C 652.86 276.92 659.57 279.48 664.81 284.28 C 667.58 286.92 671.27 289.15 672.42 293.03 C 671.94 297.95 667.68 300.96 663.90 303.46 C 661.27 303.76 658.46 303.36 656.40 301.59 C 648.43 295.52 640.17 289.84 632.21 283.76 C 630.12 282.34 628.21 280.63 625.95 279.50 C 617.83 278.63 610.51 282.62 603.03 285.02 C 600.58 285.88 597.88 285.16 595.46 286.12 C 589.79 288.15 584.07 290.07 578.43 292.20 C 574.45 293.92 569.87 292.69 566.02 294.88 C 568.32 298.65 572.54 300.38 575.84 303.09 C 582.35 307.61 590.42 311.60 593.00 319.72 C 594.50 322.66 591.12 324.58 589.54 326.55 C 587.40 328.96 583.83 331.57 580.60 329.63 C 567.82 323.96 558.84 312.57 546.93 305.51 C 542.50 304.56 538.37 306.85 533.97 306.79 C 522.33 309.76 511.40 315.14 499.82 318.32 C 494.48 318.30 489.50 320.49 484.79 322.79 C 490.43 325.74 495.11 330.13 500.33 333.71 C 503.16 335.81 506.22 337.76 508.37 340.61 C 510.31 346.74 504.93 352.57 499.27 354.01 C 494.71 356.12 490.55 352.50 487.45 349.57 C 480.21 344.04 473.50 337.84 465.87 332.86 C 461.65 332.21 457.04 332.00 453.02 333.70 C 436.89 339.54 420.77 345.46 404.41 350.62 C 403.92 351.06 402.95 351.93 402.46 352.37 C 410.15 354.07 417.99 355.62 425.89 355.76 C 427.99 354.85 428.97 352.28 431.03 351.14 C 435.75 347.67 443.29 349.87 445.39 355.34 C 446.36 356.86 446.28 359.66 448.63 359.71 C 453.79 360.70 459.00 361.51 464.26 361.85 C 466.42 359.51 468.39 356.64 471.59 355.66 C 474.89 354.96 478.66 355.38 481.16 357.85 C 483.49 359.79 484.35 362.78 485.63 365.41 C 490.84 366.17 496.00 367.25 501.25 367.77 C 503.38 364.59 506.03 360.97 510.17 360.55 C 514.45 359.74 517.96 363.94 522.24 362.54 C 536.80 358.27 551.30 353.77 565.74 349.13 C 571.94 347.96 577.57 344.92 583.78 343.83 C 587.31 343.41 588.45 339.45 591.18 337.70 C 593.70 337.06 597.00 336.92 598.67 339.34 C 601.91 342.29 600.54 348.15 596.58 349.73 C 593.66 351.79 590.79 348.94 587.97 348.30 C 583.58 348.76 579.75 351.25 575.43 352.01 C 569.92 353.01 564.97 355.84 559.43 356.74 C 547.02 360.42 534.68 364.31 522.30 368.10 C 522.38 369.13 522.47 370.16 522.57 371.19 C 527.70 371.77 532.80 372.60 537.89 373.48 C 539.09 369.94 541.13 366.43 544.72 364.89 C 548.45 363.80 552.96 364.24 555.64 367.36 C 558.21 369.66 558.89 373.13 558.68 376.43 C 564.41 377.62 570.21 378.65 576.08 378.83 C 577.87 375.85 580.27 372.86 583.81 372.01 C 587.93 370.59 591.79 373.41 595.18 375.38 C 606.75 371.75 618.46 368.51 629.89 364.47 C 635.55 363.07 641.16 361.46 646.62 359.42 C 650.84 357.85 655.44 357.41 659.55 355.51 C 661.43 353.93 662.19 351.34 664.21 349.85 C 666.50 349.16 669.31 349.00 671.30 350.59 C 675.02 353.15 674.49 359.61 670.42 361.62 C 667.75 363.79 664.60 361.27 661.86 360.63 C 658.56 361.39 655.35 362.45 652.13 363.48 C 644.16 366.51 635.62 367.82 627.77 371.22 C 619.63 373.00 611.86 376.05 603.81 378.17 C 601.07 379.09 597.77 379.35 596.09 382.03 C 602.09 383.61 608.30 384.04 614.39 385.20 C 621.28 385.80 628.01 387.81 634.98 387.71 C 645.19 390.61 655.93 390.73 666.26 393.17 C 675.17 393.70 683.79 396.44 692.71 396.71 C 695.98 394.46 698.55 390.40 703.05 390.49 C 708.68 389.44 713.84 393.34 716.28 398.16 C 717.00 402.26 717.20 407.00 714.42 410.42 C 710.55 415.63 702.60 417.44 697.18 413.59 C 693.18 411.37 691.92 406.57 691.33 402.36 C 684.38 401.10 677.38 400.01 670.36 399.28 C 664.41 397.85 658.32 397.28 652.28 396.45 C 643.05 394.42 633.58 393.88 624.33 391.93 C 616.08 391.03 607.96 388.96 599.68 388.56 C 600.79 389.71 601.94 390.86 603.27 391.78 C 610.67 396.97 617.78 402.56 625.31 407.56 C 628.52 409.31 630.97 412.06 633.96 414.13 C 638.46 417.66 643.49 420.45 647.81 424.22 C 650.63 426.85 655.59 423.54 658.02 426.97 C 660.11 428.78 659.81 431.86 659.29 434.30 C 657.67 437.79 653.17 438.67 649.97 437.03 C 647.24 435.59 647.22 432.21 646.03 429.73 C 643.57 427.21 640.35 425.62 637.57 423.51 C 633.06 419.99 628.58 416.41 623.68 413.45 C 615.40 406.62 606.40 400.73 597.89 394.19 C 596.28 393.10 594.81 391.62 592.88 391.16 C 589.82 391.24 586.85 393.15 583.78 392.08 C 579.99 391.19 577.72 387.75 575.80 384.65 C 569.87 383.70 563.97 382.36 557.95 382.20 C 554.96 381.72 552.90 384.67 549.99 384.68 C 548.17 384.80 546.31 384.75 544.54 384.30 C 541.99 382.90 540.20 380.50 537.84 378.83 C 534.77 378.18 531.64 377.68 528.51 377.45 C 530.02 379.96 532.56 381.49 534.85 383.19 C 540.27 387.09 545.57 391.17 551.25 394.68 C 556.14 398.87 561.31 402.73 566.78 406.12 C 569.55 408.36 572.21 410.78 575.29 412.61 C 578.01 414.41 581.94 412.12 584.40 414.57 C 586.79 416.52 587.12 419.94 586.23 422.73 C 584.37 425.30 580.73 427.73 577.64 425.69 C 574.15 424.33 573.93 420.31 572.48 417.40 C 568.96 413.86 564.10 412.06 560.51 408.60 C 557.03 405.70 553.34 403.04 549.49 400.67 C 539.87 393.17 529.95 386.03 519.98 378.99 C 516.07 380.82 511.36 382.94 507.21 380.53 C 503.68 379.10 502.98 374.69 499.81 372.88 C 494.51 372.10 489.23 371.13 483.86 371.11 C 481.52 373.02 479.28 375.86 475.96 375.69 C 473.69 375.65 471.14 375.98 469.19 374.58 C 466.55 372.94 465.18 370.01 463.55 367.50 C 457.67 366.47 451.80 365.34 445.83 365.12 C 443.14 367.75 440.17 371.17 435.99 370.55 C 430.59 370.90 427.46 365.69 425.25 361.56 C 416.28 360.18 407.28 358.94 398.34 357.37 C 398.50 359.69 397.63 362.58 399.61 364.35 C 405.06 370.28 411.83 374.79 417.51 380.48 C 421.46 384.50 425.88 388.03 430.36 391.44 C 435.71 394.43 439.41 399.48 444.34 403.02 C 449.12 405.11 454.11 402.35 459.01 402.36 C 461.50 402.33 463.14 400.12 465.21 399.05 C 472.30 395.66 480.19 393.13 488.12 394.53 C 491.87 395.93 493.71 400.27 493.75 404.04 C 494.21 407.88 490.71 410.84 487.55 412.31 C 482.51 414.07 477.52 416.47 472.09 416.51 C 468.91 417.22 465.67 418.12 462.85 419.79 C 472.37 428.15 482.83 435.32 492.79 443.13 C 497.23 447.28 502.29 450.69 507.09 454.39 C 511.46 455.59 515.77 454.05 520.02 453.19 C 530.42 452.18 539.41 445.03 550.06 445.46 C 553.60 444.66 556.15 447.73 558.13 450.19 C 558.93 452.75 558.23 455.57 557.06 457.92 C 554.04 460.23 550.91 462.58 547.39 464.07 C 544.51 464.61 541.46 464.22 538.74 465.52 C 535.63 466.99 532.11 466.20 528.94 467.31 C 526.94 467.90 524.99 468.63 523.06 469.40 C 533.97 480.91 547.71 489.05 559.57 499.48 C 563.78 503.29 569.47 506.92 575.37 504.90 C 583.61 505.04 590.48 499.19 598.69 499.30 C 602.82 498.48 606.61 495.76 610.99 496.43 C 614.66 496.35 617.65 499.06 619.46 502.01 C 619.56 505.05 619.49 508.85 616.77 510.81 C 614.60 512.47 612.47 514.28 609.89 515.28 C 601.46 516.18 593.05 517.29 584.68 518.69 C 589.45 525.86 597.99 529.09 604.09 534.93 C 610.70 540.24 617.89 545.11 623.13 551.92 C 625.55 554.22 624.54 557.89 624.09 560.81 C 621.22 563.16 618.28 567.14 614.15 566.43 C 610.67 565.00 607.75 562.50 604.95 560.05 C 601.37 556.60 597.26 553.77 593.69 550.31 C 588.21 545.09 581.64 541.11 576.51 535.51 C 574.95 533.81 573.29 532.20 571.27 531.08 C 570.52 532.58 569.40 534.11 569.70 535.90 C 570.41 539.90 570.60 543.97 571.30 547.98 C 568.87 553.13 568.33 559.19 564.73 563.73 C 561.83 566.14 557.54 567.48 553.86 566.21 C 551.51 564.03 550.59 560.82 549.79 557.83 C 551.13 551.11 552.38 544.38 554.11 537.75 C 554.73 531.75 557.16 526.01 556.77 519.91 C 552.97 515.55 548.65 511.60 544.32 507.75 C 537.21 502.60 530.83 496.52 523.72 491.37 C 519.47 487.70 515.27 483.81 510.21 481.28 C 508.34 484.17 511.07 486.94 510.77 489.96 C 511.00 496.03 509.01 501.82 508.09 507.75 C 507.63 511.47 503.94 513.34 501.24 515.36 C 497.61 518.00 492.61 515.68 490.56 512.19 C 488.75 509.19 489.33 505.53 489.63 502.23 C 491.68 492.47 493.83 482.72 495.46 472.88 C 496.23 469.73 493.53 467.44 491.58 465.41 C 485.67 460.34 479.32 455.77 473.87 450.17 C 466.12 443.90 457.77 438.14 451.40 430.37 C 450.05 430.48 448.69 430.53 447.34 430.51 C 447.11 434.10 449.22 437.37 448.72 440.98 C 448.77 445.65 447.18 450.10 445.44 454.37 C 443.27 457.13 440.22 459.54 436.73 460.29 C 432.91 460.93 429.71 458.26 427.59 455.40 C 426.21 446.76 430.15 438.49 430.54 429.93 C 430.62 426.26 432.63 422.90 432.44 419.22 C 431.65 414.81 427.99 411.94 424.92 409.06 C 415.26 401.08 405.19 393.62 395.83 385.30 C 391.54 382.37 388.23 377.19 382.53 377.16 C 384.98 385.59 387.65 393.98 390.71 402.21 C 395.88 403.06 401.57 407.14 400.73 412.99 C 401.11 416.29 398.85 418.82 397.31 421.46 C 397.66 426.60 400.06 431.37 401.65 436.23 C 405.66 436.97 409.52 439.14 411.43 442.87 C 411.89 445.26 411.90 447.75 411.54 450.16 C 410.88 452.36 409.01 453.97 408.26 456.14 C 408.55 463.05 414.39 467.74 419.58 471.42 C 423.05 473.64 424.68 477.60 427.52 480.45 C 440.23 493.44 453.33 506.07 465.84 519.24 C 467.95 522.81 473.20 521.06 475.50 524.39 C 477.91 527.60 476.91 533.37 472.66 534.52 C 469.90 535.07 466.52 534.92 464.91 532.25 C 462.93 529.95 464.24 526.76 463.23 524.22 C 450.04 511.31 437.56 497.69 424.41 484.73 C 422.99 487.02 420.38 488.68 419.45 491.14 C 421.00 496.87 423.16 502.45 424.82 508.16 C 429.63 509.41 435.24 512.45 435.52 518.03 C 436.28 521.97 433.33 524.96 431.53 528.10 C 431.70 533.88 436.73 537.74 440.67 541.31 C 444.72 544.27 447.35 548.62 450.98 552.02 C 457.21 558.15 463.16 564.55 469.55 570.51 C 473.61 575.07 477.75 579.57 482.39 583.53 C 485.08 585.81 486.85 589.01 489.70 591.12 C 492.34 591.60 495.58 591.13 497.25 593.79 C 501.15 598.07 496.65 605.47 491.07 604.45 C 486.36 603.86 484.93 598.52 485.52 594.47 C 472.33 581.59 459.57 568.31 446.73 555.08 C 445.27 557.76 441.22 560.01 442.82 563.44 C 445.73 571.62 447.89 580.07 451.27 588.08 C 452.70 594.91 455.20 601.42 457.48 607.99 C 459.19 614.38 461.30 620.66 463.64 626.85 C 464.94 631.78 466.45 636.67 468.25 641.45 C 473.23 642.47 478.53 645.42 479.63 650.79 C 479.87 654.46 480.42 658.64 477.97 661.74 C 475.46 665.10 471.23 667.17 467.00 666.70 C 458.39 667.08 452.64 656.64 456.18 649.16 C 457.31 646.04 460.22 644.29 462.78 642.48 C 460.89 634.56 457.33 627.18 455.45 619.28 C 454.30 615.00 452.63 610.89 451.02 606.78 C 449.40 600.26 447.49 593.78 444.82 587.60 C 442.66 579.18 439.78 570.96 437.13 562.69 C 435.33 562.21 433.55 561.71 431.75 561.27 C 430.04 571.67 428.26 582.11 427.22 592.60 C 425.10 600.23 425.04 608.22 423.47 615.92 C 423.95 618.29 425.60 620.40 425.45 622.90 C 424.68 626.57 420.77 629.18 417.10 628.37 C 414.72 627.15 411.92 625.04 412.35 622.02 C 411.70 618.07 415.75 616.22 418.39 614.28 C 418.74 605.68 421.56 597.39 421.73 588.78 C 423.91 580.25 424.46 571.42 426.15 562.79 C 426.99 558.87 426.18 554.90 426.20 550.95 C 425.93 547.03 429.47 544.03 429.32 540.13 C 428.80 536.51 427.45 533.08 426.14 529.69 C 422.18 529.48 417.83 528.07 415.93 524.30 C 413.71 520.80 414.24 516.06 417.04 513.05 C 418.00 511.53 420.30 510.21 419.40 508.16 C 417.73 502.67 415.64 497.31 414.16 491.77 C 412.31 491.02 410.47 490.25 408.66 489.41 C 407.34 497.59 405.86 505.75 405.06 514.00 C 404.05 519.99 402.67 525.94 402.31 532.02 C 402.04 536.64 399.88 541.04 400.46 545.74 C 401.61 548.45 403.80 551.62 401.74 554.49 C 399.30 560.08 389.37 558.36 389.45 552.00 C 388.80 548.01 392.99 546.30 395.14 543.79 C 395.51 534.39 398.57 525.34 398.75 515.93 C 400.41 510.08 400.86 504.00 401.94 498.03 C 402.82 492.70 403.85 487.36 403.64 481.92 C 403.49 477.81 405.99 474.16 405.80 470.03 C 406.14 465.76 404.24 461.83 403.06 457.84 C 398.61 457.11 393.53 455.38 392.16 450.54 C 389.94 445.66 393.25 441.00 396.43 437.53 C 394.88 432.99 393.40 428.42 392.11 423.81 C 387.83 422.94 382.85 421.52 381.25 416.92 C 378.83 412.07 381.61 406.80 385.43 403.64 C 382.36 394.56 379.80 385.27 376.24 376.37 C 372.65 380.04 372.90 385.29 371.50 389.89 C 369.47 398.28 368.02 406.81 365.28 415.02 C 363.72 419.67 363.20 424.59 361.61 429.23 C 360.30 432.86 360.05 436.84 360.48 440.66 C 366.57 450.65 377.50 456.13 384.82 465.05 C 386.85 467.90 386.88 471.62 386.36 474.96 C 383.02 478.88 376.97 479.38 372.16 478.43 C 366.23 475.01 361.96 469.55 357.12 464.85 C 355.80 463.38 353.31 464.36 353.03 466.23 C 351.75 470.32 351.78 474.76 350.13 478.78 C 347.07 491.60 342.05 503.96 340.40 517.11 C 340.28 521.81 344.68 524.43 347.52 527.48 C 352.81 533.21 358.83 538.17 364.58 543.42 C 368.64 545.80 370.50 550.98 369.46 555.49 C 366.52 559.49 360.04 561.18 355.89 558.04 C 351.44 555.27 348.30 551.01 344.55 547.45 C 341.43 544.17 337.16 541.59 336.12 536.87 C 334.87 536.36 333.63 535.84 332.40 535.30 C 332.26 540.14 332.49 544.99 332.29 549.83 C 331.23 555.20 329.43 560.44 329.20 565.96 C 327.16 575.28 323.61 584.42 323.27 594.05 C 322.64 597.75 326.43 599.25 328.57 601.44 C 335.24 608.50 341.96 615.52 348.49 622.69 C 350.00 625.83 352.16 629.20 351.41 632.84 C 349.74 636.88 344.76 637.67 340.99 638.57 C 332.40 637.75 327.03 630.23 321.87 624.16 C 320.01 622.04 317.78 618.71 314.54 619.55 C 313.36 620.24 313.82 621.47 314.06 622.55 C 315.36 627.44 312.85 632.18 312.28 637.00 C 310.06 645.21 308.84 653.68 306.07 661.76 C 304.91 664.87 304.49 668.55 301.79 670.82 C 299.42 672.82 296.40 674.75 293.17 674.39 C 288.85 673.00 287.26 668.14 287.25 664.02 C 287.14 660.07 289.40 656.60 289.87 652.74 C 290.78 646.41 293.86 640.72 295.19 634.51 C 296.37 629.22 298.27 623.92 297.59 618.42 C 296.26 615.73 292.41 615.76 290.35 617.55 C 285.52 621.30 279.36 622.34 273.84 624.69 C 271.51 625.81 268.91 625.66 266.40 625.62 C 264.51 623.13 262.47 620.30 262.59 617.03 C 263.41 614.07 264.51 610.84 267.06 608.93 C 274.15 605.50 282.36 604.49 288.87 599.84 C 294.65 596.36 302.29 596.28 307.03 591.03 C 308.80 587.93 308.21 584.22 309.11 580.88 C 313.04 566.68 318.19 552.56 318.72 537.70 C 317.42 536.91 316.15 536.10 314.89 535.26 C 311.93 537.59 309.43 540.69 305.76 541.94 C 301.82 543.58 297.31 544.11 293.96 546.93 C 290.86 549.69 286.27 548.60 282.50 548.44 C 276.54 545.00 279.87 536.70 283.97 533.08 C 288.43 530.45 293.82 529.88 298.25 527.19 C 303.48 523.26 310.13 522.28 316.06 519.81 C 322.17 518.15 326.24 512.13 326.42 505.93 C 326.23 501.38 328.86 497.53 329.93 493.26 C 330.89 489.80 331.55 486.24 333.02 482.95 C 335.41 477.40 334.82 471.16 336.67 465.46 C 337.39 463.14 337.52 460.71 337.69 458.32 C 336.11 458.33 334.44 458.04 332.97 458.75 C 328.02 460.79 323.04 462.84 317.87 464.22 C 313.22 464.61 308.55 464.84 303.89 464.60 C 302.00 461.43 301.32 456.85 303.95 453.90 C 306.33 451.44 309.00 449.07 312.32 448.02 C 320.19 445.20 328.17 442.67 335.97 439.66 C 339.39 437.91 342.92 435.22 343.79 431.25 C 345.71 423.54 347.22 415.71 349.94 408.23 C 352.13 398.69 354.39 389.14 357.49 379.88 C 357.71 376.90 357.44 373.93 357.29 370.96 C 350.48 376.93 344.68 383.91 338.44 390.44 C 334.27 393.40 338.34 399.08 335.60 402.85 C 333.03 407.85 326.82 408.76 321.78 408.16 C 317.92 411.92 314.21 415.84 310.51 419.75 C 312.29 424.15 311.61 429.64 307.76 432.72 C 304.81 435.76 300.29 434.66 296.52 434.64 C 292.34 438.62 288.79 443.18 284.66 447.20 C 284.64 450.73 285.31 454.83 282.58 457.61 C 280.57 460.44 277.09 461.25 273.91 461.97 C 267.87 483.06 261.58 504.09 255.39 525.11 C 255.14 527.56 256.82 529.70 257.29 532.05 C 256.88 535.24 254.51 538.57 251.00 538.48 C 248.44 538.95 246.28 537.20 244.80 535.31 C 243.85 533.15 244.45 530.72 244.47 528.45 C 246.33 527.01 248.45 525.86 250.05 524.12 C 255.50 504.60 261.91 485.35 267.32 465.79 C 264.33 468.89 260.78 471.64 258.71 475.49 C 258.42 478.61 259.22 482.12 257.08 484.78 C 254.33 489.30 248.74 490.62 243.79 490.39 C 240.47 494.38 236.82 498.07 233.19 501.78 C 233.48 505.60 233.56 509.85 230.99 512.99 C 229.00 515.69 225.65 516.61 222.64 517.67 C 219.60 528.05 216.18 538.33 213.65 548.84 C 211.62 554.48 209.81 560.20 208.46 566.05 C 207.16 571.00 204.74 575.69 204.22 580.84 C 204.72 583.22 206.14 585.48 205.62 588.01 C 205.42 590.91 202.49 592.70 199.94 593.39 C 196.11 593.43 192.50 589.92 192.60 586.06 C 193.10 582.54 196.58 581.09 198.70 578.76 C 200.93 574.25 201.32 569.09 203.02 564.38 C 204.93 559.06 206.48 553.61 207.78 548.10 C 211.27 538.70 213.53 528.91 216.64 519.38 C 206.60 529.10 197.71 539.92 187.69 549.64 C 180.83 557.76 172.79 564.77 166.05 573.01 C 160.90 577.90 156.09 583.12 151.18 588.26 C 152.74 592.81 153.73 598.35 150.48 602.44 C 146.76 608.20 138.03 609.43 132.76 605.15 C 128.44 601.97 126.18 595.73 128.51 590.72 C 130.44 585.81 135.62 582.14 140.98 582.58 C 143.24 582.66 145.26 583.84 147.32 584.67 C 152.47 579.69 157.35 574.45 161.97 568.99 C 166.28 564.66 170.84 560.53 174.49 555.60 C 179.31 550.72 184.51 546.13 188.54 540.54 C 190.72 538.40 193.11 536.49 195.14 534.20 C 201.58 527.16 208.67 520.69 214.59 513.18 C 211.08 513.15 207.93 514.79 204.71 515.93 C 196.74 519.00 188.61 521.70 180.80 525.17 C 174.89 527.02 168.99 528.98 163.37 531.62 C 159.69 533.30 155.36 533.59 152.04 536.03 C 150.66 537.81 149.43 539.71 148.09 541.53 C 146.07 541.61 144.02 541.83 142.01 541.54 C 137.45 539.82 136.84 532.56 140.97 530.04 C 143.79 528.30 147.23 529.59 150.12 530.52 C 154.59 529.48 158.59 527.07 162.96 525.72 C 167.97 524.15 172.87 522.27 177.67 520.17 C 189.26 516.14 200.83 511.96 212.20 507.36 C 212.89 503.36 214.55 498.91 218.64 497.31 C 222.13 495.34 226.03 497.03 229.58 497.85 C 232.86 494.16 236.35 490.67 239.77 487.11 C 237.39 482.78 236.65 477.24 240.30 473.36 C 243.64 468.36 250.40 468.53 255.43 470.55 C 259.44 466.25 263.91 462.30 267.12 457.33 C 258.15 460.06 249.54 463.82 240.70 466.92 C 234.11 470.02 226.93 471.53 220.29 474.52 C 214.95 477.14 208.95 478.03 203.64 480.71 C 201.68 482.84 200.66 486.04 197.71 487.08 C 194.49 488.23 190.77 485.98 189.50 482.96 C 189.15 480.56 189.16 477.76 191.22 476.09 C 193.78 473.04 197.96 474.65 201.14 475.57 C 203.51 475.46 205.62 474.15 207.83 473.40 C 215.18 470.10 223.10 468.31 230.37 464.80 C 240.52 461.70 250.30 457.55 260.31 454.04 C 261.92 453.35 264.39 452.94 264.42 450.73 C 264.82 446.84 267.23 443.60 270.58 441.69 C 274.24 440.60 278.09 441.50 281.58 442.77 C 284.93 439.02 288.55 435.52 291.98 431.85 C 291.70 429.00 290.73 426.23 290.71 423.37 C 291.64 419.89 293.90 416.51 297.46 415.33 C 300.52 413.77 303.85 415.31 306.96 415.85 C 310.57 411.97 314.89 408.49 317.69 404.00 C 316.95 401.04 315.88 398.07 316.56 394.98 C 317.93 391.38 320.97 388.09 324.95 387.57 C 327.65 387.15 330.24 388.19 332.84 388.76 C 338.50 382.17 345.21 376.49 350.37 369.48 C 337.94 368.12 327.60 377.53 315.39 377.98 C 308.10 379.89 301.11 382.84 293.97 385.23 C 290.17 386.37 287.35 389.31 283.79 390.94 C 281.75 398.75 280.32 406.73 277.71 414.39 C 276.16 420.99 272.01 427.21 265.97 430.44 C 261.18 430.49 257.28 426.49 256.59 421.89 C 255.02 412.28 262.15 403.88 261.64 394.35 C 260.79 394.45 259.10 394.65 258.26 394.75 C 241.98 400.53 225.69 406.29 209.37 411.94 C 206.55 412.87 204.26 415.06 202.75 417.57 C 200.89 422.01 200.58 426.90 198.90 431.40 C 196.92 436.62 197.02 442.41 194.70 447.53 C 193.34 450.48 192.15 453.59 190.11 456.16 C 187.61 458.24 184.32 459.77 181.00 459.58 C 177.59 457.97 175.57 454.22 174.74 450.66 C 175.72 444.13 178.93 438.25 180.31 431.83 C 181.10 428.33 182.78 424.90 182.20 421.23 C 175.26 420.26 170.57 426.29 164.38 427.99 C 152.73 431.92 141.22 436.25 129.59 440.26 C 126.60 440.96 125.44 444.07 124.50 446.65 C 121.95 455.58 118.88 464.36 116.32 473.29 C 114.36 477.78 111.11 482.41 106.09 483.66 C 103.96 484.39 101.08 485.56 99.23 483.65 C 94.61 480.23 93.74 473.78 95.02 468.54 C 97.81 461.95 100.73 455.28 101.86 448.17 C 96.51 447.96 91.77 450.74 86.77 452.19 C 82.10 453.39 78.70 457.17 74.02 458.37 C 65.23 461.12 56.53 466.34 47.02 464.30 C 44.98 462.05 43.68 459.04 43.46 456.02 C 46.45 451.63 50.97 448.11 56.13 446.64 C 62.16 444.71 67.99 442.10 74.11 440.51 C 80.76 441.09 86.35 436.38 92.93 436.56 C 95.64 436.33 98.07 434.93 100.65 434.16 C 96.41 430.03 91.05 427.31 86.85 423.14 C 82.70 419.17 76.52 416.63 74.71 410.75 C 73.34 404.43 81.56 398.35 87.17 401.60 C 93.96 404.48 98.83 410.20 104.78 414.33 C 109.35 417.85 114.34 420.77 118.72 424.52 C 122.04 425.05 125.51 424.69 128.84 424.32 C 145.46 418.50 162.00 412.34 178.75 406.91 C 176.26 403.10 171.43 402.49 167.98 399.95 C 163.51 396.05 157.43 394.15 154.10 388.96 C 150.27 385.69 152.66 379.34 156.88 377.70 C 159.47 376.80 162.08 375.37 164.88 375.53 C 167.81 376.60 170.57 378.12 173.03 380.04 C 180.90 386.15 188.80 392.24 197.23 397.56 C 199.74 399.26 202.87 398.00 205.45 397.15 C 209.58 395.87 213.48 393.40 217.93 393.52 C 220.14 393.54 222.22 392.76 224.28 392.05 C 233.43 388.86 242.54 385.55 251.69 382.35 C 254.29 381.37 257.12 381.60 259.82 381.19 C 254.63 374.47 245.39 372.58 239.91 366.07 C 236.62 363.41 235.29 358.28 237.87 354.72 C 239.85 352.58 242.17 350.57 244.96 349.57 C 252.89 349.75 258.94 355.45 264.57 360.36 C 269.86 364.26 274.86 368.78 281.00 371.32 C 287.86 370.70 293.78 365.93 300.85 366.30 C 310.13 363.44 319.17 359.82 328.38 356.73 C 331.66 355.80 333.97 353.00 337.22 352.01 C 339.73 351.06 342.91 350.69 344.07 347.89 C 334.07 346.41 324.16 344.42 314.22 342.66 C 311.00 345.11 307.08 348.51 302.74 346.89 C 298.72 346.00 296.12 342.56 294.30 339.13 C 288.82 338.44 283.48 336.80 277.99 336.41 C 275.26 337.76 273.06 340.42 269.85 340.63 C 267.65 340.76 265.27 340.85 263.31 339.66 C 260.44 338.25 259.13 335.16 257.45 332.63 C 252.27 331.86 247.19 330.35 241.94 330.18 C 237.57 329.23 235.24 334.56 230.94 334.39 C 226.39 334.82 222.88 331.51 220.34 328.17 C 203.49 332.87 186.94 338.62 170.15 343.46 C 164.92 345.67 159.23 346.34 153.96 348.42 C 151.12 349.44 150.29 353.57 147.00 353.63 C 145.20 353.63 142.96 354.11 141.59 352.60 C 137.47 349.87 138.65 341.54 144.02 341.26 C 146.96 340.61 149.58 342.11 152.01 343.55 C 171.78 336.77 192.09 331.67 211.90 324.96 C 208.45 323.67 204.71 322.90 201.03 323.43 C 198.21 325.82 195.05 328.43 191.06 327.68 C 185.86 327.80 183.33 322.78 181.22 318.87 C 175.19 318.48 169.38 316.25 163.32 316.34 C 160.58 317.78 158.14 320.06 154.89 320.28 C 151.29 320.77 148.59 317.90 145.66 316.34 C 143.46 316.15 141.38 317.10 139.31 317.70 C 131.51 320.31 123.51 322.29 115.82 325.24 C 109.35 326.83 102.96 328.75 96.73 331.11 C 91.49 332.35 86.34 333.95 81.19 335.53 C 77.66 336.39 76.88 341.63 72.99 341.62 C 69.18 342.47 65.06 338.86 65.44 335.01 C 65.12 332.07 67.72 329.73 70.26 328.80 C 73.36 327.53 75.82 331.11 78.88 330.59 C 86.08 329.18 92.69 325.74 99.87 324.30 C 104.43 323.09 108.87 321.48 113.31 319.91 C 122.47 317.76 131.32 314.52 140.36 311.93 C 129.05 309.75 117.69 307.48 106.28 306.11 C 99.49 304.05 92.36 303.42 85.39 302.26 C 80.64 301.07 75.83 300.06 70.96 299.53 C 64.44 299.08 58.19 296.15 51.62 296.46 C 49.47 298.50 47.75 301.12 44.94 302.33 C 41.99 302.91 38.91 302.94 35.96 302.40 C 30.65 300.42 26.80 294.69 27.64 288.97 C 28.44 285.49 30.09 281.93 33.34 280.13 C 36.64 277.70 41.08 277.90 44.87 278.79 C 50.12 280.75 52.33 286.18 53.67 291.17 C 65.74 292.57 77.53 295.75 89.59 296.96 C 96.40 299.13 103.56 299.82 110.59 300.82 C 118.04 302.90 125.78 303.59 133.34 305.20 C 137.21 305.83 141.05 306.94 145.01 306.53 C 143.34 303.41 140.24 301.57 137.45 299.59 C 130.24 294.47 123.29 288.97 115.83 284.21 C 111.65 280.69 107.29 277.38 102.72 274.35 C 98.01 271.54 94.29 267.35 89.50 264.63 C 86.13 264.23 81.55 264.40 80.11 260.56 C 77.56 256.18 82.11 250.33 86.94 251.33 C 91.36 251.30 93.14 256.33 92.64 260.05 C 96.13 263.05 99.91 265.68 103.77 268.19 C 108.60 272.07 113.56 275.81 118.80 279.13 C 128.22 286.67 138.22 293.45 147.85 300.73 C 151.94 299.23 157.19 298.18 160.83 301.26 C 164.05 303.37 164.52 307.48 165.50 310.88 C 171.06 311.84 176.58 313.05 182.18 313.78 C 184.11 311.60 185.96 309.19 188.61 307.83 C 191.94 307.04 195.82 307.10 198.50 309.50 C 201.12 311.33 202.08 314.48 202.76 317.44 C 208.86 318.61 214.96 320.14 221.17 320.43 C 219.27 317.41 216.09 315.65 213.32 313.55 C 205.74 308.18 198.46 302.38 190.59 297.45 C 186.03 293.26 180.85 289.82 175.70 286.42 C 171.97 283.39 168.22 280.39 164.24 277.72 C 161.82 275.65 158.01 277.66 155.85 275.15 C 152.48 272.81 152.34 267.08 155.92 264.89 C 158.91 261.92 164.37 263.81 165.84 267.48 C 166.96 269.33 165.82 272.00 167.60 273.51 C 171.21 276.56 175.23 279.10 179.14 281.75 C 183.79 285.54 188.56 289.19 193.65 292.37 C 202.70 299.70 212.46 306.12 221.68 313.23 C 225.25 316.89 230.30 311.86 234.24 314.57 C 238.40 316.00 240.25 320.24 240.88 324.28 C 246.48 325.24 252.08 326.23 257.61 327.53 C 259.90 325.07 261.86 322.02 265.12 320.76 C 268.78 319.75 272.95 320.60 275.59 323.43 C 277.81 325.38 278.24 328.45 278.91 331.16 C 284.16 331.81 289.26 333.30 294.54 333.74 C 296.49 331.24 298.37 328.37 301.47 327.23 C 305.19 325.60 309.49 327.00 312.36 329.64 C 314.49 331.81 315.04 334.90 315.84 337.72 C 325.56 339.11 335.16 341.34 344.90 342.60 C 344.35 339.45 341.79 337.42 339.37 335.64 C 335.68 333.01 332.83 329.40 329.09 326.84 C 325.03 323.99 321.86 320.11 317.78 317.30 C 310.81 312.07 304.79 305.42 297.01 301.37 C 290.98 300.47 285.89 305.22 279.97 305.46 C 272.55 305.34 266.45 311.28 258.98 310.75 C 256.91 310.67 254.42 311.07 253.05 309.12 C 249.35 306.13 249.74 300.62 251.15 296.57 C 252.51 291.77 258.10 291.32 262.01 289.63 C 264.75 288.34 267.77 288.57 270.70 288.32 C 274.20 287.36 277.66 286.17 280.99 284.72 C 281.32 284.03 281.62 283.32 281.89 282.60 C 274.45 278.48 267.91 273.02 261.19 267.87 C 255.15 261.77 247.60 257.51 241.29 251.72 C 238.55 249.41 234.94 247.93 231.32 248.54 C 225.15 250.29 219.41 253.70 212.96 254.34 C 207.92 254.31 203.64 257.46 198.81 258.39 C 195.09 258.63 190.71 259.21 187.90 256.17 C 183.10 252.34 185.97 244.46 190.61 241.81 C 196.39 239.56 202.29 237.61 208.18 235.65 C 212.29 235.81 216.31 235.04 219.95 233.03 C 216.44 228.82 211.63 226.05 207.72 222.26 C 199.91 216.10 192.29 209.70 184.29 203.77 C 181.23 201.89 178.30 199.66 174.81 198.62 C 171.92 198.12 168.93 198.15 166.02 198.52 C 161.23 202.36 155.32 204.62 149.19 204.92 C 143.45 206.86 137.40 208.51 131.31 207.49 C 124.18 204.62 123.22 192.57 130.63 189.45 C 135.15 185.25 141.45 185.86 147.04 184.54 C 150.60 184.68 153.96 183.47 157.24 182.24 C 153.12 178.15 148.27 174.92 143.99 171.02 C 140.03 168.01 135.73 165.37 132.42 161.60 C 128.60 157.09 123.05 154.38 119.60 149.51 C 117.58 147.30 118.09 143.84 119.66 141.53 C 121.91 137.48 127.23 136.72 131.37 137.69 C 137.61 141.60 142.46 147.23 147.95 152.05 C 155.32 158.87 161.75 166.97 170.55 172.05 C 170.54 163.63 172.46 155.36 174.99 147.38 C 176.08 143.36 177.48 138.61 181.55 136.67 C 185.05 136.22 189.67 135.64 191.99 138.97 C 194.22 142.35 195.32 146.60 194.15 150.58 C 192.25 156.99 192.25 163.75 190.47 170.19 C 189.78 174.59 187.66 178.96 188.74 183.47 C 190.45 187.79 195.01 189.71 198.12 192.84 C 209.61 202.08 219.70 213.10 232.23 221.01 C 233.94 215.76 234.34 210.25 234.93 204.81 C 236.80 198.23 239.91 191.96 243.85 186.36 C 245.52 186.44 247.21 186.36 248.88 186.64 C 250.98 188.12 252.76 190.05 254.25 192.15 C 255.44 198.86 252.55 205.18 252.18 211.80 C 251.13 219.20 248.36 226.32 248.32 233.87 C 248.32 236.44 250.20 238.39 251.91 240.07 C 255.66 244.15 261.02 246.18 265.00 250.01 C 271.06 255.99 278.15 260.81 284.18 266.83 C 286.89 269.58 289.85 272.10 293.26 273.96 C 295.42 269.93 293.95 265.28 294.70 260.95 C 295.61 256.15 295.10 250.56 298.76 246.77 C 301.14 243.72 305.56 240.92 309.30 243.39 C 312.87 244.50 313.70 248.38 314.82 251.47 C 316.51 256.04 314.55 260.80 313.76 265.33 C 312.86 271.39 310.95 277.24 309.81 283.25 C 308.87 286.55 311.87 289.01 313.72 291.32 C 321.63 298.41 330.34 304.58 338.05 311.89 C 345.43 316.47 351.07 323.99 359.92 325.94 C 357.51 316.74 354.16 307.82 351.28 298.77 C 348.55 296.60 344.35 296.76 342.29 293.61 C 339.54 290.85 340.02 286.60 340.60 283.10 C 341.55 281.11 343.15 279.54 344.50 277.83 C 342.82 272.11 340.65 266.55 339.08 260.80 C 332.97 261.53 326.61 256.37 327.39 249.97 C 327.09 246.14 330.29 243.54 332.68 241.06 C 330.86 236.22 329.74 231.08 327.63 226.38 C 324.62 224.42 320.44 223.67 318.93 219.97 C 316.79 216.97 318.74 212.58 315.89 210.06 C 301.84 195.80 287.56 181.78 273.60 167.44 C 271.17 165.77 267.84 167.51 265.15 166.32 C 263.43 164.70 261.99 162.51 262.48 160.04 C 262.51 154.96 269.66 152.43 273.15 155.81 C 275.40 157.90 275.43 161.34 277.45 163.60 C 280.56 167.16 284.43 169.97 287.36 173.69 C 289.72 176.66 292.69 179.01 295.50 181.51 C 300.30 187.65 306.16 192.83 311.54 198.44 C 314.81 201.54 317.68 205.13 321.46 207.66 C 319.97 202.01 318.37 196.34 316.11 190.95 C 313.98 188.59 310.13 188.55 308.13 185.94 C 305.95 182.99 304.52 178.71 306.65 175.35 C 307.44 173.52 309.16 172.07 309.46 170.07 C 308.29 165.53 306.50 161.17 305.23 156.65 C 301.13 155.38 296.20 154.21 294.53 149.69 C 292.64 146.62 294.33 142.99 293.47 139.75 C 279.22 124.85 264.25 110.64 250.12 95.62 C 247.30 94.81 243.91 96.79 241.41 94.76 C 238.54 92.81 237.49 88.62 239.67 85.76 C 241.43 82.47 245.88 82.92 248.92 83.79 C 251.20 86.15 251.63 89.68 253.94 92.02 C 256.99 95.22 260.12 98.35 263.42 101.30 C 263.57 96.09 263.67 90.83 262.81 85.67 C 265.86 90.89 263.11 97.30 264.85 102.81 C 268.56 107.06 272.57 111.07 276.74 114.87 C 276.83 111.34 276.75 107.80 276.64 104.27 C 277.03 104.37 277.81 104.56 278.19 104.65 C 278.45 108.68 277.75 112.88 278.76 116.79 C 281.41 120.56 285.07 123.45 288.16 126.83 C 291.64 130.24 294.68 134.13 298.68 136.97 C 295.16 125.89 291.82 114.73 287.67 103.86 C 286.12 96.80 283.40 90.07 281.06 83.25 C 279.65 77.61 277.82 72.08 275.73 66.65 C 274.06 60.93 272.54 55.14 270.23 49.63 C 265.42 48.88 260.22 46.96 258.14 42.15 C 254.08 35.51 258.58 26.16 265.90 24.32 M 444.94 37.77 C 440.00 44.80 440.17 53.75 438.05 61.77 C 435.37 71.37 433.14 81.09 430.31 90.65 C 427.65 90.47 424.65 90.56 422.59 88.56 C 417.30 83.44 413.00 77.40 408.07 71.96 C 405.55 68.76 399.47 70.14 398.44 73.92 C 398.96 79.19 404.24 81.89 407.32 85.65 C 410.56 89.72 414.26 93.38 418.03 96.98 C 422.61 101.45 426.12 107.98 424.28 114.52 C 421.98 132.17 417.80 149.48 415.33 167.10 C 410.81 170.34 405.60 167.18 402.09 164.01 C 396.81 158.92 391.68 153.66 385.98 149.03 C 383.06 146.71 377.16 149.24 378.64 153.29 C 382.42 158.21 387.97 161.31 392.11 165.90 C 397.31 171.45 406.02 174.39 407.94 182.44 C 409.51 185.82 407.42 189.22 406.80 192.55 C 404.42 203.99 401.08 215.19 398.34 226.54 C 397.34 230.61 396.42 234.73 396.40 238.94 C 396.39 241.82 394.62 244.25 393.40 246.74 C 390.88 246.80 388.19 246.69 386.23 244.89 C 382.08 241.01 377.78 237.31 373.70 233.35 C 372.13 231.89 370.47 230.44 368.46 229.63 C 366.35 228.79 364.27 230.01 362.32 230.67 C 362.46 232.39 362.13 234.33 363.27 235.79 C 366.84 240.69 371.78 244.44 377.37 246.77 C 382.67 251.08 388.04 256.71 388.38 263.94 C 387.81 268.90 386.02 273.61 384.97 278.47 C 382.69 289.12 378.53 299.20 375.68 309.66 C 373.35 316.95 370.88 324.33 365.98 330.37 C 368.91 330.35 371.86 330.16 374.79 330.51 C 378.44 331.25 381.61 333.37 384.68 335.39 C 384.79 331.59 383.63 327.87 383.67 324.13 C 385.81 316.13 386.14 307.81 388.01 299.76 C 389.78 291.44 392.13 283.24 393.39 274.81 C 393.33 269.69 395.95 264.31 400.23 261.44 C 409.45 257.97 418.64 254.25 428.24 251.93 C 431.91 250.98 434.52 248.00 437.40 245.71 C 437.39 245.22 437.37 244.25 437.36 243.77 C 432.79 243.26 428.27 243.93 423.89 245.23 C 419.00 245.19 414.76 247.91 410.00 248.58 C 406.79 249.00 403.25 250.49 400.38 248.23 C 399.94 234.75 407.05 222.75 409.56 209.81 C 412.17 202.60 412.48 194.87 414.80 187.58 C 415.59 185.57 417.29 184.05 419.17 183.06 C 425.31 180.28 432.05 178.94 438.07 175.89 C 443.79 171.53 451.12 170.58 457.46 167.47 C 457.53 166.78 457.67 165.40 457.73 164.70 C 453.62 164.59 449.43 164.12 445.36 164.81 C 439.35 166.81 433.40 169.00 427.41 171.09 C 425.58 171.71 422.97 172.07 422.12 169.83 C 419.33 165.69 420.87 160.65 421.93 156.22 C 425.11 142.39 427.95 128.49 430.76 114.58 C 432.00 110.64 433.59 105.82 438.08 104.60 C 448.36 100.88 458.71 97.36 469.03 93.74 C 473.08 92.74 476.98 89.22 476.45 84.73 C 474.16 84.44 471.75 83.87 469.52 84.75 C 463.25 86.96 457.05 89.36 450.70 91.32 C 446.16 91.10 441.89 93.45 437.35 92.45 C 437.30 90.29 437.03 88.08 437.54 85.95 C 440.60 74.97 444.58 64.26 447.24 53.16 C 448.48 47.72 451.79 42.40 450.27 36.67 C 448.47 36.58 445.76 35.43 444.94 37.77 M 181.84 142.91 C 178.05 149.61 177.67 157.49 176.18 164.88 C 175.26 168.71 176.03 172.83 174.16 176.43 C 171.94 176.25 169.45 176.91 167.42 175.77 C 154.54 166.47 143.83 154.59 131.49 144.63 C 130.13 143.77 128.91 142.22 127.14 142.48 C 124.47 142.20 123.17 146.21 125.08 147.89 C 130.03 153.28 135.70 157.95 141.29 162.63 C 147.93 167.66 153.94 173.45 160.60 178.44 C 163.45 180.23 162.93 184.40 160.06 185.88 C 151.73 190.32 140.46 187.37 133.30 194.30 C 130.92 196.02 130.59 200.49 133.17 202.14 C 138.39 203.50 143.41 201.01 148.38 199.77 C 157.12 199.74 164.20 192.99 173.04 193.40 C 180.68 193.08 186.25 198.91 191.93 203.10 C 201.02 209.54 208.83 217.52 217.75 224.19 C 220.21 226.04 222.72 227.98 224.43 230.59 C 225.27 232.97 224.35 235.79 222.08 237.00 C 217.72 239.22 213.00 240.89 208.05 240.79 C 203.99 242.15 200.03 243.84 195.96 245.20 C 193.99 245.79 192.00 247.21 191.47 249.29 C 191.23 250.47 191.18 252.70 192.98 252.54 C 199.77 254.25 205.59 249.61 212.08 248.82 C 218.83 248.71 224.71 244.90 231.16 243.40 C 235.98 242.63 240.95 244.16 244.53 247.47 C 250.07 252.65 256.44 256.83 261.91 262.08 C 270.29 269.74 279.95 275.91 287.95 283.99 C 286.88 285.89 285.72 288.00 283.46 288.63 C 278.97 290.21 274.53 292.05 269.91 293.22 C 265.52 293.18 261.28 294.57 257.43 296.61 C 254.90 299.14 254.52 305.00 259.09 305.51 C 266.06 305.56 272.02 300.61 278.99 300.26 C 284.98 299.90 290.22 296.52 296.02 295.46 C 300.95 295.96 304.69 299.69 308.49 302.53 C 315.02 309.07 323.03 313.91 329.45 320.56 C 335.22 325.43 341.14 330.16 346.81 335.14 C 348.50 337.97 348.93 341.46 350.91 344.20 C 352.61 338.89 356.39 334.69 360.97 331.67 C 356.28 329.99 350.96 329.41 347.14 325.91 C 342.76 321.89 337.72 318.69 333.33 314.69 C 329.06 311.35 325.40 307.26 320.80 304.36 C 317.14 302.05 314.25 298.78 310.89 296.10 C 307.48 292.98 303.85 288.96 304.26 283.99 C 304.77 275.96 308.01 268.45 309.06 260.51 C 309.64 256.28 310.62 251.27 307.09 248.03 C 304.25 248.15 302.40 250.44 301.62 252.98 C 299.20 260.85 300.78 269.35 298.23 277.19 C 295.72 278.11 292.60 279.90 290.18 277.78 C 281.75 271.29 273.88 264.10 265.59 257.42 C 261.96 253.98 258.06 250.81 253.70 248.35 C 247.67 244.73 242.35 238.59 242.53 231.22 C 244.24 224.20 246.10 217.19 246.98 210.01 C 247.57 205.33 250.16 200.98 249.75 196.19 C 249.81 194.34 248.13 193.32 247.08 192.08 C 242.41 193.74 242.85 199.38 241.06 203.20 C 238.07 210.35 238.51 218.32 235.89 225.56 C 232.58 225.42 228.71 226.37 226.00 223.95 C 218.22 217.05 209.61 211.09 202.50 203.47 C 195.86 198.41 189.38 193.03 183.78 186.80 C 182.47 184.15 183.27 180.83 183.64 177.98 C 185.46 171.23 186.21 164.22 188.32 157.55 C 189.89 152.74 189.75 147.55 189.31 142.58 C 187.56 139.77 183.36 140.00 181.84 142.91 M 636.57 227.53 C 634.35 229.74 632.90 232.62 631.99 235.59 C 630.45 240.77 628.80 245.91 627.16 251.06 C 625.88 255.27 625.16 259.80 622.61 263.48 C 620.45 265.10 617.98 266.32 615.49 267.33 C 607.80 269.73 599.93 271.58 592.44 274.58 C 583.39 278.06 574.43 281.87 565.06 284.43 C 562.47 285.06 560.25 286.59 558.00 287.93 C 556.81 286.94 555.56 286.01 554.56 284.83 C 555.14 280.93 557.33 277.54 558.67 273.89 C 561.11 268.48 562.05 262.58 563.29 256.82 C 564.10 253.92 561.85 249.68 558.47 250.48 C 553.68 253.93 553.47 260.35 551.60 265.47 C 549.37 271.23 549.76 277.52 548.20 283.43 C 546.14 287.96 543.04 292.69 538.03 294.22 C 524.12 298.86 510.40 304.08 496.52 308.83 C 491.25 310.75 486.02 312.90 480.41 313.58 C 477.56 314.96 474.61 317.88 471.47 315.31 C 471.44 313.31 471.17 311.18 472.32 309.41 C 474.36 305.62 476.27 301.73 477.17 297.49 C 478.14 292.93 482.01 289.01 481.29 284.16 C 480.02 283.08 478.80 281.42 476.97 281.50 C 474.67 281.28 473.46 283.84 472.46 285.51 C 469.18 293.19 469.04 301.76 466.07 309.53 C 464.58 315.22 460.09 320.43 454.29 321.97 C 448.31 323.89 442.50 326.32 436.52 328.25 C 433.97 328.78 431.27 328.36 428.84 329.46 C 419.04 333.05 409.13 336.33 399.30 339.83 C 394.91 341.61 390.71 338.40 386.67 337.13 C 388.38 340.89 390.68 344.68 390.50 348.97 C 390.84 353.94 388.46 358.67 385.36 362.41 C 382.58 365.85 378.21 367.19 374.47 369.24 C 377.76 370.10 381.34 370.09 384.36 371.82 C 397.52 377.80 406.71 389.52 418.82 397.10 C 423.04 400.56 427.41 403.86 431.35 407.66 C 435.14 410.97 437.16 416.07 437.62 420.97 C 436.00 430.35 434.51 439.78 432.54 449.10 C 432.22 451.06 433.13 452.88 433.70 454.70 C 435.58 454.51 437.95 455.09 439.23 453.29 C 442.78 450.24 442.78 445.22 443.45 440.96 C 444.54 436.26 440.36 432.35 441.41 427.66 C 444.88 426.53 448.29 424.97 451.94 424.52 C 459.23 429.56 464.76 436.82 472.10 441.83 C 476.06 444.45 478.88 448.42 482.79 451.11 C 489.60 456.34 496.94 461.49 501.43 468.96 C 500.64 482.43 495.95 495.28 494.33 508.63 C 495.59 509.34 496.85 510.99 498.47 510.36 C 499.84 509.52 501.19 508.57 502.27 507.36 C 504.06 502.42 504.60 497.17 505.28 492.00 C 505.56 488.68 502.25 485.59 503.87 482.28 C 505.22 478.35 509.51 475.73 513.61 476.48 C 518.28 479.64 522.70 483.18 526.84 487.01 C 537.40 495.08 547.57 503.66 557.45 512.56 C 560.40 515.26 563.49 519.26 561.94 523.48 C 560.86 534.04 557.39 544.16 556.04 554.68 C 555.36 556.87 555.36 559.15 555.65 561.41 C 556.87 561.38 558.10 561.45 559.32 561.26 C 564.11 558.21 563.95 551.78 566.37 547.13 C 565.05 541.96 565.30 536.57 565.53 531.29 C 566.42 527.46 570.90 527.04 574.10 526.27 C 580.53 532.80 587.34 538.92 594.70 544.41 C 597.45 546.21 599.07 549.27 601.87 550.99 C 607.01 553.94 610.15 559.52 615.88 561.63 C 617.14 560.57 618.43 559.52 619.73 558.51 C 619.43 556.80 620.01 554.69 618.50 553.47 C 613.78 548.52 608.75 543.88 603.15 539.95 C 596.84 534.18 589.76 529.35 583.45 523.58 C 581.58 521.42 578.86 519.27 579.53 516.08 C 583.01 515.67 585.54 513.29 588.41 511.62 C 594.13 511.54 599.78 510.65 605.49 510.27 C 609.15 510.01 613.64 507.57 613.80 503.53 C 609.49 498.64 603.65 503.59 598.72 504.32 C 591.04 503.81 584.67 509.44 577.10 509.55 C 573.97 509.84 570.80 510.98 567.67 510.09 C 562.05 508.39 557.78 504.19 553.16 500.80 C 547.89 496.02 542.24 491.65 536.24 487.83 C 530.50 483.56 525.62 478.30 519.84 474.09 C 518.07 471.84 516.88 468.60 517.61 465.73 C 519.65 463.52 523.06 464.17 525.67 463.10 C 534.36 459.62 544.81 461.04 552.33 454.78 C 553.18 453.19 551.91 451.78 551.25 450.43 C 548.55 450.67 545.76 450.35 543.14 451.14 C 536.33 453.38 529.67 456.09 522.83 458.23 C 516.46 458.11 509.61 461.88 503.60 458.43 C 489.98 447.67 476.31 437.00 462.46 426.53 C 459.50 424.49 458.50 420.97 457.32 417.79 C 462.32 412.78 469.80 410.54 476.77 410.35 C 481.32 408.99 486.54 407.59 488.88 402.99 C 487.92 401.83 487.04 400.60 485.93 399.61 C 479.14 398.58 472.21 400.60 466.68 404.56 C 463.61 406.75 459.94 407.77 456.19 407.66 C 451.81 408.96 447.15 409.15 442.69 408.20 C 436.60 404.82 432.75 398.65 426.78 395.12 C 421.25 391.82 417.34 386.53 412.15 382.80 C 408.99 379.96 405.93 377.01 402.55 374.42 C 399.29 371.09 395.01 368.30 393.55 363.65 C 391.71 360.05 392.80 355.86 394.55 352.47 C 398.51 347.07 405.15 344.99 411.28 343.12 C 424.82 338.43 438.35 333.71 451.80 328.74 C 456.89 326.63 462.60 327.04 467.97 327.56 C 478.37 333.97 486.87 343.02 497.04 349.75 C 499.63 348.28 504.19 345.73 502.29 342.20 C 498.20 338.35 493.14 335.72 489.04 331.86 C 485.81 328.54 480.41 329.01 477.39 325.53 C 476.28 322.20 479.04 319.37 481.89 318.21 C 488.13 316.12 494.22 313.13 500.91 312.98 C 511.88 309.60 522.55 305.25 533.48 301.77 C 538.57 301.67 543.50 299.82 548.63 300.57 C 556.71 304.74 562.85 311.63 570.26 316.77 C 574.47 319.76 578.41 324.01 583.74 324.69 C 585.56 323.24 588.29 321.22 587.63 318.57 C 581.74 310.81 572.33 307.10 565.00 300.98 C 562.99 299.03 561.68 296.51 560.33 294.08 C 564.55 292.10 569.12 291.09 573.45 289.39 C 580.99 287.08 588.21 283.68 596.02 282.32 C 606.23 280.81 615.23 273.87 625.84 274.76 C 631.06 276.34 635.12 280.36 639.63 283.30 C 646.94 288.21 653.25 294.47 660.98 298.79 C 662.88 297.65 664.79 296.50 666.69 295.33 C 666.63 294.11 666.82 292.86 666.52 291.67 C 662.49 286.90 657.17 283.48 651.95 280.17 C 648.84 277.96 645.52 276.09 642.09 274.42 C 642.71 272.14 643.46 269.37 646.15 268.85 C 657.03 265.26 667.54 260.05 679.08 258.88 C 683.07 258.62 686.36 256.13 689.97 254.67 C 692.54 253.39 695.63 252.65 697.46 250.25 C 698.13 248.42 697.57 246.47 697.39 244.61 C 689.34 243.03 682.21 247.92 674.75 249.98 C 663.59 253.39 653.02 258.96 641.35 260.46 C 638.31 261.14 635.18 263.40 632.25 261.16 C 633.80 257.09 635.10 252.92 636.73 248.89 C 639.78 242.56 643.52 235.78 642.44 228.51 C 640.94 227.21 638.19 225.58 636.57 227.53 M 346.31 354.34 C 339.88 355.03 335.36 360.03 329.28 361.62 C 320.02 364.76 310.88 368.29 301.60 371.32 C 294.92 370.79 289.24 374.70 283.01 376.30 C 276.27 376.74 271.11 371.63 265.80 368.28 C 260.01 364.14 254.99 358.73 248.44 355.76 C 246.18 354.72 244.22 356.64 242.34 357.59 C 242.57 359.25 241.97 361.32 243.48 362.52 C 247.13 366.09 251.61 368.66 256.09 371.04 C 259.25 373.01 262.26 375.19 265.50 377.03 C 265.98 380.93 263.15 384.44 259.89 386.21 C 256.86 386.93 253.65 386.75 250.69 387.83 C 241.23 391.28 231.68 394.51 222.19 397.92 C 219.41 398.96 216.27 398.06 213.54 399.34 C 207.93 400.97 202.12 405.17 196.15 402.55 C 189.41 399.45 183.46 394.91 177.46 390.61 C 173.11 387.68 169.71 383.33 164.65 381.52 C 162.46 380.79 160.27 381.78 158.25 382.54 C 158.58 384.40 158.14 386.82 159.97 388.03 C 168.12 393.06 175.85 398.76 183.29 404.78 C 184.97 405.70 185.70 408.71 183.45 409.39 C 179.05 411.65 174.16 412.66 169.59 414.51 C 156.17 419.96 142.35 424.39 128.73 429.32 C 123.77 429.53 117.97 430.91 113.84 427.33 C 104.41 421.21 96.06 413.58 86.66 407.41 C 85.20 406.22 83.26 406.43 81.52 406.31 C 80.84 407.27 80.12 408.20 79.34 409.08 C 81.92 414.57 87.82 416.95 91.95 421.03 C 95.00 423.99 98.14 426.87 101.45 429.55 C 103.50 431.14 104.64 433.58 104.73 436.16 C 98.77 437.61 93.07 439.97 87.07 441.27 C 76.96 444.65 66.90 448.17 56.86 451.77 C 53.43 453.05 50.00 455.69 49.16 459.42 C 56.64 460.37 63.34 456.59 70.27 454.48 C 73.66 453.49 76.68 451.63 79.85 450.13 C 84.22 448.45 88.76 447.22 93.27 445.96 C 97.22 444.91 101.04 443.07 105.23 443.32 C 106.25 445.33 108.07 447.34 107.41 449.78 C 105.71 457.45 101.97 464.46 99.87 472.01 C 98.76 474.98 101.02 477.43 102.55 479.72 C 107.67 478.61 110.86 473.87 111.89 469.00 C 113.73 462.00 116.43 455.29 118.54 448.37 C 119.68 444.79 120.36 440.83 122.94 437.94 C 126.15 435.76 130.10 435.11 133.65 433.66 C 146.37 428.83 159.46 424.99 172.00 419.70 C 175.69 418.62 179.15 416.53 183.05 416.32 C 187.86 419.01 188.56 425.36 186.33 429.99 C 184.40 437.44 181.57 444.64 180.27 452.26 C 181.46 453.44 183.07 455.32 184.75 453.69 C 192.03 448.29 190.59 438.14 193.89 430.61 C 196.64 423.36 195.66 413.55 203.27 409.10 C 220.57 402.50 238.23 396.86 255.62 390.46 C 257.33 389.82 259.09 389.19 260.95 389.21 C 264.52 388.86 266.28 392.60 268.65 394.60 C 266.90 403.83 261.41 412.41 262.38 422.04 C 262.62 424.05 265.03 424.01 266.47 423.45 C 270.93 420.30 271.80 414.50 273.45 409.68 C 275.51 404.08 276.37 398.17 277.74 392.40 C 278.31 390.38 278.64 387.97 280.54 386.71 C 283.64 384.54 286.87 382.46 290.49 381.25 C 297.91 378.67 305.28 375.92 312.72 373.40 C 315.47 372.33 318.52 372.97 321.28 371.96 C 328.00 369.55 334.74 367.18 341.46 364.76 C 346.73 363.16 352.16 366.02 357.33 364.44 C 352.61 359.68 350.07 353.21 350.35 346.50 C 349.11 349.17 347.73 351.77 346.31 354.34 M 362.57 368.09 C 362.83 379.71 359.82 391.15 356.87 402.31 C 355.38 406.39 355.65 410.89 353.56 414.79 C 352.24 419.53 351.27 424.38 349.84 429.11 C 349.64 436.43 343.92 442.83 337.08 444.91 C 330.52 447.11 324.03 449.52 317.49 451.74 C 313.38 453.07 309.51 455.65 307.22 459.37 C 315.88 459.54 324.84 457.67 332.00 452.55 C 335.43 452.53 340.14 451.41 342.09 455.16 C 345.39 460.74 341.65 467.08 341.24 472.94 C 338.94 485.00 333.80 496.37 331.82 508.51 C 330.40 513.98 327.96 519.73 322.97 522.85 C 316.88 525.78 310.05 526.97 304.05 530.10 C 299.65 533.52 294.19 534.87 289.04 536.73 C 286.53 537.38 285.71 540.03 285.17 542.27 C 286.72 544.43 289.24 543.06 291.02 542.03 C 295.01 539.63 299.56 538.50 303.84 536.76 C 307.65 535.22 309.84 530.75 314.14 530.30 C 318.44 529.44 321.33 533.38 324.56 535.46 C 325.21 543.36 322.00 550.80 321.34 558.59 C 319.29 565.95 317.09 573.27 314.87 580.59 C 314.19 585.88 313.99 591.86 309.84 595.82 C 305.76 600.70 298.78 600.52 293.63 603.66 C 286.91 608.56 278.38 609.66 270.96 613.12 C 269.23 614.87 268.57 617.35 268.24 619.73 C 272.88 620.17 277.05 617.81 281.35 616.49 C 285.16 615.33 287.89 612.08 291.76 611.07 C 296.26 608.93 301.35 612.64 302.68 616.97 C 304.81 622.02 302.58 627.39 301.30 632.35 C 298.91 642.84 295.09 652.92 292.57 663.38 C 291.81 665.73 293.43 667.58 295.02 669.09 C 300.97 665.31 301.57 657.90 303.26 651.73 C 305.09 645.39 305.79 638.82 307.74 632.51 C 309.19 628.23 308.38 623.69 308.86 619.31 C 309.26 615.89 312.99 614.39 316.02 614.27 C 319.62 613.94 322.59 616.59 324.75 619.16 C 327.08 622.19 329.90 624.78 332.24 627.80 C 335.51 631.64 341.38 634.50 346.13 631.49 C 345.92 630.04 345.66 628.60 345.35 627.18 C 340.15 620.27 333.29 614.84 327.95 608.05 C 323.86 603.72 317.51 599.93 318.22 593.06 C 319.38 584.12 321.53 575.31 323.93 566.62 C 325.59 555.98 329.94 545.65 328.47 534.70 C 330.24 533.91 331.94 532.61 333.95 532.62 C 337.58 534.18 340.10 537.37 343.26 539.64 C 348.81 543.71 352.45 549.86 358.34 553.54 C 360.03 555.11 362.43 554.40 364.48 554.36 C 364.41 552.69 365.30 550.52 363.64 549.38 C 355.25 541.43 346.39 533.97 338.43 525.59 C 336.85 523.31 336.07 520.53 335.51 517.86 C 335.48 511.50 337.92 505.55 339.03 499.37 C 342.10 489.11 345.84 478.91 346.94 468.20 C 348.08 464.24 350.25 460.63 350.95 456.52 C 355.24 455.18 357.22 459.77 360.17 461.91 C 365.04 465.62 368.63 470.79 373.71 474.23 C 376.34 474.98 379.08 474.37 381.58 473.46 C 381.48 471.63 382.34 469.47 381.02 467.92 C 376.51 462.10 369.82 458.52 365.05 452.94 C 360.06 448.74 354.52 443.23 355.51 436.08 C 356.84 427.70 358.66 419.35 361.34 411.28 C 362.68 407.22 363.07 402.93 364.18 398.81 C 366.94 388.79 367.33 377.51 374.71 369.44 C 370.65 369.16 366.62 368.50 362.57 368.09 Z" />
</g>
</svg>
