<?xml version="1.0" encoding="UTF-8" ?>
<!DOCTYPE svg PUBLIC "-//W3C//DTD SVG 1.1//EN" "http://www.w3.org/Graphics/SVG/1.1/DTD/svg11.dtd">
<svg width="626pt" height="626pt" viewBox="0 0 626 626" version="1.1" xmlns="http://www.w3.org/2000/svg">
<g id="#ffffffff">
</g>
<g id="#000000ff">
<path fill="#000000" opacity="1.00" d=" M 326.34 72.40 C 333.02 68.51 341.28 67.05 348.72 69.53 C 357.86 71.75 364.81 79.54 367.50 88.36 C 369.15 95.06 368.32 102.18 365.56 108.47 C 360.51 124.05 355.10 139.51 350.12 155.10 C 348.92 158.37 347.48 161.61 347.09 165.11 C 347.94 164.63 348.74 164.08 349.49 163.45 C 356.03 156.68 362.81 150.13 369.41 143.40 C 372.36 140.70 374.85 137.49 378.23 135.28 C 384.92 130.26 394.14 129.44 401.97 132.03 C 409.88 135.08 416.62 141.92 418.30 150.40 C 419.57 157.74 418.89 166.02 413.95 171.96 C 408.88 178.17 402.76 183.42 397.20 189.19 C 392.65 194.23 387.14 198.40 383.07 203.87 C 394.30 208.35 404.84 214.50 414.21 222.15 C 415.75 219.72 416.25 216.84 416.92 214.09 C 418.44 207.33 420.71 200.77 422.32 194.04 C 423.98 187.30 425.46 180.23 429.39 174.39 C 436.83 163.68 452.74 160.35 463.77 167.32 C 472.53 172.26 477.47 182.87 476.34 192.74 C 475.42 197.83 473.63 202.71 472.52 207.76 C 470.59 216.57 467.16 225.02 465.93 234.00 C 480.02 218.73 493.53 202.90 507.45 187.46 C 510.03 185.03 512.25 182.06 515.59 180.59 C 521.19 177.82 527.68 175.76 533.94 177.34 C 544.11 179.14 553.29 186.97 555.55 197.22 C 557.75 205.27 556.15 214.37 550.93 220.93 C 546.93 226.26 540.91 230.10 534.33 231.26 C 527.67 232.53 521.04 233.91 514.44 235.49 C 500.37 237.87 486.55 241.50 472.45 243.69 C 472.48 244.07 472.53 244.81 472.56 245.19 C 482.55 247.06 492.16 250.44 502.04 252.74 C 506.69 253.83 511.34 255.19 515.59 257.42 C 524.01 262.30 529.40 272.09 528.43 281.87 C 527.94 295.97 513.89 307.71 499.91 305.57 C 485.13 303.28 471.13 297.26 456.32 295.10 C 458.54 306.91 458.50 319.10 456.32 330.91 C 466.84 329.48 476.82 325.57 487.16 323.28 C 492.09 322.17 496.91 320.28 502.01 320.25 C 509.55 319.85 517.16 323.22 522.02 328.98 C 527.52 334.76 529.42 343.29 528.02 351.02 C 526.97 357.64 522.76 363.48 517.42 367.39 C 510.07 372.26 501.07 373.13 492.80 375.57 C 486.13 377.63 479.37 379.38 472.53 380.80 C 472.51 381.17 472.46 381.91 472.44 382.29 C 488.30 384.93 503.94 388.72 519.75 391.64 C 528.10 394.04 537.51 393.90 544.77 399.23 C 554.18 405.34 558.52 417.73 555.60 428.47 C 552.75 442.18 537.54 451.69 523.96 448.54 C 520.02 447.85 516.40 445.94 513.02 443.89 C 508.21 439.73 504.04 434.88 499.95 430.03 C 488.49 417.46 477.51 404.44 465.92 392.00 C 467.27 401.32 470.74 410.14 472.78 419.31 C 474.31 426.32 477.60 433.22 476.26 440.56 C 474.63 447.67 470.81 454.74 464.23 458.37 C 452.57 466.11 435.07 462.08 428.15 449.84 C 423.85 441.26 422.58 431.62 419.76 422.54 C 417.85 416.45 416.68 410.17 414.79 404.09 C 412.75 404.78 411.12 406.21 409.42 407.46 C 401.41 413.62 392.37 418.30 383.05 422.16 C 389.61 429.81 397.24 436.48 404.20 443.78 C 409.61 449.38 416.45 454.60 418.16 462.65 C 419.36 468.81 419.19 475.52 416.39 481.26 C 412.52 488.50 405.23 494.10 396.99 495.14 C 389.53 496.25 381.63 494.13 376.01 489.04 C 369.32 482.71 363.04 475.96 356.36 469.63 C 354.36 468.90 352.14 469.38 350.07 469.34 C 351.40 476.11 353.89 482.57 356.22 489.05 C 358.96 498.30 362.32 507.36 365.26 516.56 C 369.07 525.32 369.89 536.21 364.36 544.45 C 357.87 556.30 341.79 560.83 329.69 555.28 C 318.26 550.44 311.28 536.75 314.03 524.66 C 319.69 506.12 326.75 488.01 331.96 469.34 C 329.85 469.34 327.64 468.94 325.60 469.63 C 318.74 476.08 312.48 483.18 305.43 489.44 C 296.02 497.63 280.33 497.47 271.37 488.65 C 263.20 481.49 260.55 469.04 264.97 459.14 C 268.32 451.85 275.00 447.06 280.31 441.30 C 286.42 434.87 293.20 429.07 298.87 422.24 C 289.43 418.10 280.11 413.46 271.97 407.06 C 270.43 405.86 268.77 404.80 266.91 404.18 C 264.48 414.96 261.34 425.57 258.54 436.27 C 256.89 444.54 253.61 453.47 245.97 457.99 C 238.91 463.06 229.41 463.33 221.44 460.44 C 214.19 457.12 208.14 450.71 206.50 442.75 C 204.46 436.18 206.59 429.40 208.21 423.00 C 210.57 412.95 214.15 403.18 215.75 392.96 C 212.59 395.02 210.34 398.10 207.88 400.90 C 198.14 411.84 188.46 422.84 178.72 433.78 C 173.87 439.58 168.62 445.62 161.07 447.76 C 145.78 453.41 127.37 441.70 125.68 425.57 C 124.06 415.46 128.84 404.92 137.22 399.15 C 143.44 394.32 151.65 394.35 158.98 392.48 C 168.80 389.96 178.88 388.71 188.74 386.34 C 193.87 385.10 199.08 384.17 204.27 383.23 C 205.70 382.72 207.94 382.83 208.21 380.85 C 203.00 379.24 197.64 378.20 192.45 376.54 C 183.34 373.69 173.55 372.64 165.13 367.90 C 157.73 362.93 152.78 354.02 153.43 345.01 C 153.63 331.74 165.66 319.93 178.98 320.24 C 183.88 319.99 188.55 321.64 193.21 322.92 C 203.98 325.29 214.37 329.24 225.29 331.01 C 224.56 325.02 224.02 319.01 223.71 313.00 C 224.03 307.04 224.52 301.09 225.40 295.19 C 215.40 296.32 206.02 300.30 196.21 302.37 C 191.15 303.45 186.29 305.54 181.05 305.67 C 171.47 306.67 161.56 301.40 157.00 292.92 C 150.77 283.10 152.91 269.19 161.30 261.28 C 165.63 256.88 171.72 254.95 177.53 253.37 C 187.82 250.95 197.95 247.93 208.17 245.24 C 208.02 242.98 205.40 243.33 203.88 242.75 C 193.15 241.12 182.71 238.13 172.03 236.32 C 165.43 235.29 159.01 233.34 152.42 232.23 C 148.07 231.24 143.44 230.79 139.58 228.38 C 131.65 223.81 125.63 215.33 125.50 205.99 C 124.74 196.47 129.55 186.75 137.52 181.53 C 142.17 178.77 147.46 176.94 152.89 176.74 C 158.56 177.05 164.10 178.97 168.87 182.05 C 174.60 186.69 178.82 192.81 183.94 198.06 C 194.60 210.46 205.69 222.50 216.40 234.86 C 214.41 225.44 211.70 216.16 209.14 206.87 C 207.65 199.58 204.34 192.21 206.20 184.67 C 207.35 177.41 211.98 170.96 218.29 167.27 C 229.48 160.21 245.84 163.78 252.93 175.01 C 257.41 181.66 258.25 189.77 260.45 197.28 C 262.98 205.35 264.86 213.61 266.88 221.81 C 269.68 220.94 271.88 218.93 274.21 217.24 C 281.78 211.67 290.29 207.64 298.78 203.70 C 289.47 193.22 278.93 183.87 269.33 173.64 C 266.12 169.73 263.54 165.10 263.07 159.98 C 261.32 149.19 267.62 138.15 277.15 133.19 C 286.42 128.72 298.28 130.00 305.98 137.00 C 315.01 145.63 323.71 154.61 332.55 163.43 C 333.34 164.09 334.17 164.69 335.05 165.23 C 329.26 146.25 322.42 127.59 316.44 108.66 C 314.75 103.70 312.84 98.58 313.54 93.24 C 314.66 84.93 319.15 76.92 326.34 72.40 M 333.32 248.18 C 320.91 249.76 308.62 254.74 299.33 263.24 C 294.28 266.57 291.06 271.77 287.14 276.24 C 276.06 292.31 272.45 313.60 278.71 332.22 C 282.51 345.37 291.21 356.77 301.99 365.02 C 309.01 370.93 317.77 374.26 326.52 376.72 C 339.97 379.74 354.28 378.32 366.93 372.85 C 389.95 362.63 406.77 338.52 406.13 312.99 C 406.65 290.72 393.92 269.41 375.32 257.67 C 362.98 249.81 347.85 246.41 333.32 248.18 Z" />
</g>
</svg>
