<?xml version="1.0" encoding="UTF-8" ?>
<!DOCTYPE svg PUBLIC "-//W3C//DTD SVG 1.1//EN" "http://www.w3.org/Graphics/SVG/1.1/DTD/svg11.dtd">
<svg width="216pt" height="216pt" viewBox="0 0 216 216" version="1.1" xmlns="http://www.w3.org/2000/svg">
<g id="#fefefeff">
</g>
<g id="#696868ff">
<path fill="#696868" opacity="1.00" d=" M 101.67 2.76 C 105.56 2.25 109.49 2.26 113.41 2.38 C 114.30 9.70 113.64 17.09 113.88 24.45 C 120.07 20.69 126.29 16.98 132.29 12.91 C 135.08 16.94 132.83 22.17 133.49 26.72 C 128.22 30.99 121.96 33.77 116.14 37.20 C 114.24 38.32 114.67 40.93 114.27 42.77 C 120.16 39.97 125.87 36.80 131.43 33.40 C 132.69 32.35 133.38 34.15 133.45 35.15 C 133.67 38.90 133.20 42.66 133.36 46.42 C 127.18 50.71 120.60 54.38 113.99 57.96 C 116.09 58.71 115.43 60.32 114.33 61.62 C 114.00 65.84 114.37 70.08 114.15 74.31 C 120.46 70.72 126.19 66.11 132.72 62.96 C 134.26 70.56 133.49 78.43 133.71 86.14 C 138.58 83.98 142.81 80.67 147.63 78.41 C 147.70 71.02 147.44 63.62 147.77 56.23 C 151.16 55.18 153.95 52.68 157.53 52.17 C 157.63 59.09 158.31 65.99 158.14 72.92 C 159.89 71.80 161.67 70.75 163.50 69.76 C 164.30 62.43 164.38 55.05 164.73 47.69 C 168.04 46.12 171.23 44.22 174.71 43.04 C 175.21 43.34 176.19 43.94 176.68 44.24 C 175.26 44.95 173.84 45.65 172.33 46.14 C 170.46 47.21 166.79 47.15 166.90 49.98 C 166.48 56.86 166.13 63.74 165.62 70.61 C 162.88 72.31 160.10 73.94 157.38 75.67 C 156.31 73.58 156.06 71.23 156.15 68.92 C 156.24 64.11 155.65 59.31 155.85 54.50 C 153.72 55.54 151.57 56.56 149.42 57.56 C 149.35 64.67 149.47 71.80 149.30 78.91 C 147.37 81.45 143.91 82.37 141.31 84.16 C 138.37 85.55 135.83 88.07 132.54 88.55 C 131.66 87.22 131.91 85.54 131.78 84.04 C 131.65 77.97 131.39 71.90 131.27 65.83 C 125.05 69.61 119.12 73.85 112.75 77.38 C 112.19 70.73 112.25 64.01 112.42 57.34 C 118.13 52.85 124.89 49.85 131.02 45.95 C 131.29 42.58 131.36 39.19 131.29 35.81 C 125.40 38.99 119.67 42.50 113.64 45.40 C 111.22 43.84 113.01 39.85 112.54 37.33 C 118.47 33.08 125.33 30.37 131.25 26.11 C 131.30 22.79 131.38 19.47 131.30 16.16 C 125.66 19.16 120.41 22.79 114.95 26.07 C 114.20 26.43 112.12 27.52 112.09 25.93 C 111.50 18.75 111.97 11.51 111.93 4.31 C 109.08 4.23 106.22 4.32 103.40 4.82 C 103.68 12.14 103.64 19.47 103.64 26.79 C 100.20 26.31 97.43 24.15 94.57 22.37 C 91.20 20.16 87.62 18.28 84.33 15.94 C 84.20 19.23 83.99 22.55 84.49 25.82 C 90.27 30.11 97.10 32.84 102.95 37.02 C 103.53 39.58 103.33 42.22 103.40 44.82 C 102.08 44.82 100.68 44.99 99.49 44.29 C 94.34 41.59 89.38 38.56 84.20 35.92 C 84.42 39.08 84.19 42.27 84.54 45.42 C 90.76 49.29 97.01 53.17 103.38 56.80 C 103.58 63.49 103.29 70.19 103.52 76.88 C 96.34 74.97 90.79 69.48 84.44 65.81 C 84.05 73.38 84.15 80.96 83.79 88.53 C 77.59 87.06 72.31 83.10 66.83 79.97 C 66.12 72.72 66.43 65.41 66.49 58.14 C 64.39 56.78 62.12 55.72 59.80 54.78 C 59.36 61.57 59.40 68.39 59.28 75.19 C 55.94 74.93 53.35 72.69 50.52 71.16 C 49.09 63.90 49.92 56.40 48.67 49.14 C 46.86 47.21 43.92 46.65 41.66 45.28 C 41.64 52.07 41.97 58.86 42.41 65.63 C 39.13 65.78 36.50 63.68 33.84 62.09 C 29.98 59.64 25.78 57.77 21.94 55.27 C 20.96 57.51 19.61 59.60 18.99 61.98 C 19.71 63.05 21.08 63.36 22.14 63.99 C 27.35 66.49 32.30 69.49 37.46 72.08 C 36.32 73.42 35.19 74.80 33.64 75.69 C 29.07 78.48 24.88 81.84 20.28 84.58 C 23.11 86.06 26.00 87.45 28.85 88.89 C 34.31 84.82 40.32 81.52 45.51 77.09 C 48.52 78.38 51.33 80.07 54.11 81.78 C 52.10 84.97 48.51 86.39 45.59 88.53 C 43.17 90.28 40.80 92.12 38.14 93.52 C 41.08 95.30 43.99 97.24 47.33 98.16 C 52.75 93.79 58.99 90.61 64.70 86.65 C 69.48 89.58 74.17 92.66 78.94 95.61 C 78.00 97.06 76.94 98.46 75.43 99.37 C 71.20 102.21 66.91 104.96 62.43 107.39 C 66.98 111.87 73.02 114.39 78.12 118.16 C 79.36 119.06 77.48 120.12 76.91 120.81 C 73.07 123.60 68.89 125.87 64.98 128.55 C 58.59 125.23 52.70 121.01 46.69 117.06 C 43.72 118.50 40.86 120.17 37.84 121.51 C 42.93 125.60 48.56 128.94 53.78 132.84 C 51.51 134.98 48.92 136.71 46.28 138.35 C 40.19 134.88 34.75 130.43 28.85 126.67 C 25.77 127.83 22.76 129.17 19.73 130.47 C 25.44 134.29 30.96 138.39 36.74 142.10 C 35.89 143.18 35.12 144.40 33.81 144.96 C 28.73 147.68 23.84 150.79 18.51 153.01 C 19.40 155.45 20.45 157.83 21.59 160.17 C 28.08 157.11 34.22 153.29 40.24 149.40 C 41.36 150.27 42.57 151.28 42.16 152.90 C 42.00 158.58 41.55 164.25 41.62 169.94 C 43.91 168.96 46.23 168.06 48.60 167.30 C 49.26 159.88 49.31 152.42 49.83 144.98 C 52.73 143.33 55.34 140.86 58.69 140.19 C 59.95 146.99 59.22 154.03 59.48 160.93 C 61.63 159.71 64.86 159.40 66.04 157.06 C 66.16 150.09 66.06 143.11 66.16 136.14 C 71.40 132.61 77.25 130.08 82.35 126.35 C 83.12 127.43 83.87 128.58 83.74 129.97 C 83.89 136.55 84.24 143.12 84.16 149.70 C 90.53 146.09 96.35 141.59 102.72 137.99 C 104.12 142.55 103.19 147.37 103.55 152.05 C 103.48 154.62 104.43 158.05 101.57 159.50 C 95.84 162.83 90.24 166.37 84.51 169.69 C 84.39 172.99 84.32 176.29 84.08 179.59 C 90.33 176.58 96.22 172.90 102.31 169.61 C 103.82 172.20 103.20 175.22 103.10 178.06 C 97.09 182.18 90.32 185.14 84.42 189.39 C 84.08 192.76 84.30 196.17 84.12 199.56 C 90.40 195.54 96.76 191.55 103.39 188.14 C 104.02 195.78 103.41 203.44 103.65 211.09 C 106.58 211.21 109.51 211.14 112.44 210.92 C 112.20 203.49 112.50 196.06 112.22 188.63 C 113.56 188.90 114.95 189.11 116.13 189.86 C 121.30 192.92 126.17 196.53 131.61 199.12 C 131.54 195.89 131.69 192.64 131.39 189.41 C 128.14 187.34 124.72 185.51 121.42 183.50 C 118.59 181.76 115.07 180.79 113.06 177.99 C 112.35 175.41 112.61 172.70 112.61 170.06 L 115.63 170.70 C 115.18 171.29 114.74 171.88 114.29 172.48 C 114.65 174.20 114.95 175.94 115.22 177.68 C 121.20 181.21 127.26 184.60 133.36 187.90 C 134.22 192.63 133.56 197.46 133.77 202.23 C 126.73 199.56 120.71 194.80 114.19 191.10 C 114.16 198.08 114.33 205.07 114.11 212.05 C 110.73 213.97 106.32 212.69 102.54 213.23 C 101.28 210.32 101.66 207.11 101.68 204.03 C 101.81 199.67 101.76 195.31 101.90 190.95 C 95.55 194.92 89.15 198.83 82.68 202.61 C 81.89 197.81 82.44 192.94 82.23 188.11 C 88.38 184.48 94.67 181.11 100.78 177.40 C 100.96 175.84 101.15 174.28 101.32 172.72 C 94.91 175.59 89.08 179.57 82.73 182.57 C 81.93 178.11 82.31 173.56 82.17 169.06 C 86.42 165.94 91.25 163.73 95.59 160.74 C 97.44 159.31 100.28 158.75 101.33 156.51 C 101.73 151.36 101.26 146.17 101.31 141.01 C 95.03 144.69 89.42 149.56 82.76 152.54 C 81.92 144.79 82.03 136.95 81.87 129.16 C 77.35 131.66 72.87 134.25 68.39 136.81 C 68.11 144.14 68.18 151.48 68.34 158.81 C 64.89 160.15 61.84 162.54 58.11 163.09 C 57.25 156.35 57.79 149.53 57.49 142.76 C 55.51 143.57 53.71 144.72 52.00 145.99 C 51.58 152.73 51.23 159.48 51.02 166.24 C 51.09 167.48 49.88 168.32 48.91 168.83 C 46.02 170.22 43.04 171.37 40.15 172.74 C 39.22 165.88 39.99 158.93 39.82 152.03 C 34.34 155.63 28.49 158.59 22.93 162.05 C 22.17 162.76 20.88 162.59 20.35 161.68 C 18.50 158.96 17.31 155.85 15.80 152.94 C 21.50 148.88 28.09 146.38 33.93 142.55 C 28.04 138.86 22.43 134.75 16.62 130.92 C 20.00 128.23 23.97 126.36 28.04 124.99 C 29.46 124.29 30.75 125.40 31.86 126.14 C 36.50 129.50 41.26 132.69 45.92 136.04 C 47.52 135.13 49.12 134.22 50.72 133.33 C 45.71 129.14 39.79 126.17 34.95 121.75 C 38.51 118.79 42.78 116.89 46.80 114.66 C 52.41 118.97 58.80 122.14 64.41 126.45 C 68.29 123.98 72.14 121.45 76.09 119.08 C 70.39 115.52 64.63 112.01 59.21 108.03 C 64.32 103.38 70.71 100.52 76.22 96.39 C 72.43 94.09 68.86 91.43 65.03 89.20 C 58.86 92.35 53.20 96.83 47.07 100.25 C 42.84 99.06 38.83 96.64 35.40 93.99 C 36.15 92.53 37.63 91.74 38.90 90.82 C 42.94 88.00 46.99 85.21 51.06 82.43 C 49.44 81.36 47.82 80.28 46.20 79.21 C 41.49 82.72 36.47 85.79 31.75 89.28 C 30.67 89.91 29.56 91.21 28.18 90.59 C 24.35 89.26 20.99 86.84 17.09 85.66 C 21.76 80.13 28.84 77.38 34.23 72.60 C 28.12 69.69 22.44 65.94 16.21 63.27 C 17.46 59.93 18.66 56.54 20.42 53.44 C 21.61 52.46 23.09 53.71 24.20 54.23 C 29.35 57.47 34.99 59.92 39.92 63.51 C 39.71 56.74 39.88 49.96 39.57 43.19 C 43.51 43.28 46.68 45.88 50.31 47.05 C 52.43 54.37 50.93 62.15 52.34 69.56 C 53.97 70.86 55.77 71.91 57.50 73.06 C 57.55 66.13 57.87 59.19 57.69 52.26 C 61.42 52.90 65.40 54.45 68.12 57.06 C 68.73 64.15 67.81 71.32 68.54 78.40 C 72.71 81.42 77.40 83.65 81.88 86.17 C 81.97 78.42 82.19 70.67 82.41 62.93 C 89.43 65.39 94.78 70.94 101.38 74.26 C 101.17 68.86 101.98 63.37 101.07 58.03 C 95.14 53.90 88.53 50.73 82.64 46.60 C 81.89 42.25 82.42 37.77 81.90 33.38 C 88.94 35.04 94.54 40.03 101.16 42.77 C 101.09 41.15 101.01 39.52 100.94 37.90 C 94.76 34.47 88.69 30.84 82.49 27.44 C 82.04 22.68 82.04 17.89 82.26 13.12 C 85.11 14.04 87.61 15.71 90.16 17.25 C 91.26 17.12 92.35 17.15 93.42 17.34 C 93.56 21.51 99.10 22.03 101.89 24.05 C 101.62 16.95 101.87 9.85 101.67 2.76 Z" />
<path fill="#696868" opacity="1.00" d=" M 173.67 48.52 C 174.53 47.77 175.38 47.01 176.25 46.27 C 176.32 52.00 175.85 57.72 175.65 63.45 C 181.80 59.66 188.23 56.33 194.26 52.35 C 196.72 55.32 197.77 59.09 199.68 62.39 C 194.12 66.58 187.56 69.11 181.72 72.84 C 187.32 76.77 193.06 80.51 198.66 84.43 C 195.98 87.43 191.98 88.55 188.48 90.27 C 186.82 91.24 185.06 90.17 183.68 89.26 C 178.94 86.09 174.35 82.73 169.67 79.49 C 168.02 80.35 166.40 81.27 164.81 82.25 C 169.99 86.17 175.54 89.57 180.69 93.52 C 177.26 96.52 173.06 98.39 169.09 100.54 C 162.90 97.01 156.85 93.16 151.07 89.00 C 147.22 91.33 143.60 94.01 139.71 96.26 C 144.67 99.80 149.84 103.00 155.01 106.21 C 156.37 106.92 155.74 108.92 154.55 109.48 C 149.59 112.80 144.24 115.56 139.59 119.35 C 143.67 121.36 147.37 124.02 151.13 126.56 C 156.83 122.52 163.00 119.20 168.58 114.98 C 172.84 116.48 176.59 119.07 180.63 121.04 C 179.03 123.65 176.27 125.08 173.86 126.80 C 170.84 128.86 167.90 131.03 164.70 132.81 C 166.41 133.97 167.98 135.56 170.11 135.88 C 175.78 132.21 181.14 128.01 186.92 124.51 C 190.95 126.05 194.73 128.18 198.69 129.90 C 193.99 135.25 187.30 138.25 181.79 142.66 C 187.57 146.00 193.47 149.11 199.26 152.42 C 198.85 155.80 197.27 158.90 195.50 161.76 C 194.04 163.08 192.49 161.73 191.13 161.01 C 186.18 157.91 180.92 155.33 176.14 151.98 C 176.17 158.80 176.33 165.63 176.29 172.46 C 172.35 172.13 169.28 169.43 165.54 168.49 C 163.80 161.16 164.54 153.54 163.75 146.10 C 162.09 144.99 160.57 143.29 158.48 143.10 C 158.15 149.58 158.10 156.08 158.26 162.57 C 154.31 163.31 151.09 160.40 147.59 159.12 C 147.48 151.81 147.90 144.49 147.52 137.19 C 143.43 134.03 138.54 132.14 134.14 129.45 C 133.64 137.07 133.91 144.71 133.72 152.34 C 126.52 150.11 120.87 144.70 114.43 140.98 C 115.00 146.36 114.10 151.89 114.76 157.19 C 120.35 161.82 127.47 164.28 133.14 168.80 C 134.20 173.08 133.56 177.60 133.71 181.97 C 126.97 180.44 121.64 175.58 115.29 173.02 C 115.93 172.49 116.57 171.97 117.21 171.46 C 121.91 174.27 126.68 176.96 131.59 179.39 C 131.52 176.25 131.67 173.10 131.34 169.97 C 130.10 169.02 128.74 168.25 127.43 167.40 C 122.32 164.55 117.28 161.57 112.31 158.48 C 112.73 151.74 112.62 144.98 112.49 138.23 C 116.88 139.40 120.22 142.57 124.01 144.88 C 126.54 146.44 129.06 148.03 131.48 149.76 C 131.94 142.02 131.57 134.26 132.32 126.54 C 138.33 128.79 143.66 132.62 149.32 135.65 C 149.53 142.89 149.42 150.13 149.40 157.37 C 151.50 158.78 153.79 159.85 156.18 160.68 C 156.12 153.79 156.60 146.92 156.66 140.04 C 159.70 140.84 162.37 142.51 165.10 143.99 C 166.86 151.17 166.23 158.65 166.93 165.96 C 168.83 168.15 171.84 168.83 174.36 170.09 C 174.28 163.25 173.66 156.43 173.77 149.59 C 181.31 151.41 187.07 157.24 194.22 160.09 C 195.19 157.88 196.20 155.69 197.11 153.45 C 190.93 149.95 184.50 146.88 178.54 143.01 C 183.53 138.33 189.62 135.02 195.15 131.03 C 194.60 129.74 192.92 129.53 191.85 128.81 C 189.83 127.98 187.41 126.13 185.29 127.72 C 180.41 131.47 175.04 134.50 170.30 138.42 C 167.46 137.03 164.70 135.47 162.01 133.81 C 163.08 131.34 165.55 130.11 167.68 128.69 C 171.06 126.58 174.23 124.17 177.38 121.72 C 174.61 120.16 171.82 118.63 168.95 117.27 C 163.56 120.81 158.19 124.40 152.74 127.84 C 151.21 128.99 149.40 127.62 148.02 126.90 C 144.24 124.39 140.42 121.95 136.56 119.57 C 141.20 114.67 147.54 111.97 153.02 108.16 L 152.97 107.40 C 147.60 103.77 142.06 100.39 136.61 96.87 C 140.44 92.43 146.25 90.44 150.73 86.74 C 156.99 90.22 162.64 94.69 168.88 98.18 C 172.12 97.38 174.91 95.43 177.71 93.69 C 173.69 91.31 170.10 88.29 166.16 85.78 C 164.72 84.70 162.92 83.91 162.02 82.27 C 164.39 80.32 167.24 77.46 170.44 77.65 C 176.04 81.32 181.39 85.39 187.01 89.05 C 189.88 87.71 192.73 86.33 195.56 84.89 C 190.03 80.60 183.96 77.08 178.35 72.90 C 184.14 68.65 190.78 65.75 197.02 62.23 C 195.97 59.83 194.91 57.43 193.92 55.01 C 187.41 58.68 180.95 62.46 174.60 66.40 C 172.55 60.66 174.37 54.45 173.67 48.52 Z" />
<path fill="#696868" opacity="1.00" d=" M 95.28 98.69 C 95.41 93.86 94.71 89.01 95.42 84.20 C 99.75 86.20 103.89 88.59 108.10 90.84 C 112.14 88.62 116.09 86.23 120.20 84.14 C 121.37 88.74 120.43 93.45 120.42 98.11 C 123.62 102.26 129.57 103.65 132.69 107.75 C 129.34 111.65 124.53 113.89 120.47 116.95 C 120.49 121.50 121.05 126.03 120.88 130.58 C 119.87 130.48 118.87 130.38 117.87 130.29 C 114.47 128.09 110.87 126.23 107.17 124.61 C 103.71 126.71 100.05 128.48 96.75 130.84 C 96.25 130.65 95.25 130.26 94.75 130.06 C 94.42 125.54 95.62 120.90 94.55 116.47 C 90.66 113.48 86.43 110.94 82.46 108.05 C 86.45 104.56 90.87 101.61 95.28 98.69 M 97.06 87.01 C 96.95 91.02 97.33 95.02 97.26 99.03 C 93.97 102.62 89.30 104.55 85.70 107.81 C 89.30 110.31 92.88 112.85 96.68 115.06 C 97.20 119.51 96.65 123.97 96.54 128.43 C 100.47 126.77 103.83 123.57 108.00 122.69 C 111.87 124.09 115.21 126.62 118.97 128.28 C 118.88 124.19 118.70 120.09 118.55 116.00 C 122.28 113.09 126.38 110.71 130.20 107.91 C 126.38 105.22 122.54 102.56 118.58 100.08 C 118.62 95.68 118.69 91.27 118.92 86.87 C 115.30 88.85 111.90 91.31 108.01 92.72 C 104.14 91.33 100.70 88.91 97.06 87.01 Z" />
</g>
</svg>
