<?xml version="1.0" encoding="UTF-8" ?>
<!DOCTYPE svg PUBLIC "-//W3C//DTD SVG 1.1//EN" "http://www.w3.org/Graphics/SVG/1.1/DTD/svg11.dtd">
<svg width="500pt" height="350pt" viewBox="0 0 500 350" version="1.1" xmlns="http://www.w3.org/2000/svg">
<g id="#ffffffff">
</g>
<g id="#000000ff">
<path fill="#000000" opacity="1.00" d=" M 318.46 38.45 C 323.09 35.97 329.38 39.84 329.53 45.03 C 329.91 48.91 326.80 51.74 324.12 54.01 C 325.61 58.43 326.53 63.68 323.90 67.88 C 321.27 72.13 316.15 73.79 311.46 74.46 C 309.51 78.68 307.35 82.80 305.13 86.87 C 310.29 85.27 315.46 83.67 320.60 82.01 C 321.01 85.14 321.45 88.26 321.79 91.40 C 313.22 94.29 304.69 97.32 296.13 100.24 C 294.64 103.21 293.26 106.24 291.91 109.28 C 303.11 106.48 314.27 103.51 325.50 100.85 C 326.05 104.31 326.69 107.76 327.33 111.21 C 312.48 115.34 297.61 119.39 282.76 123.53 C 279.35 129.53 275.79 135.44 272.33 141.42 C 273.44 142.74 274.53 144.07 275.62 145.41 C 284.52 142.24 295.67 139.69 303.80 146.07 C 306.71 142.61 310.16 138.54 315.06 138.45 C 317.99 138.38 320.03 140.69 321.69 142.79 C 323.14 141.66 325.01 139.60 326.98 140.76 C 328.92 141.51 328.85 144.14 327.48 145.40 C 325.92 146.31 324.07 145.86 322.40 145.65 C 322.12 148.39 321.55 151.56 318.93 153.06 C 314.67 155.13 309.77 153.78 305.54 152.36 C 301.91 162.49 290.53 166.14 280.98 168.16 C 281.01 168.82 281.06 170.13 281.09 170.79 C 287.37 172.31 293.51 174.76 299.87 175.74 C 313.37 168.56 326.64 160.90 340.08 153.58 C 342.09 156.45 343.95 159.43 345.83 162.40 C 335.88 168.32 325.84 174.07 315.85 179.92 C 318.91 181.12 321.96 182.35 325.04 183.51 C 333.21 179.47 341.48 175.64 349.75 171.81 C 351.52 174.37 353.32 176.92 355.11 179.47 C 350.31 181.85 345.48 184.17 340.77 186.73 C 345.00 188.26 349.24 189.75 353.48 191.24 C 357.58 188.51 362.57 185.89 367.62 187.49 C 372.22 188.78 374.70 193.18 376.62 197.20 C 379.75 197.67 383.47 196.78 386.04 199.12 C 390.44 203.07 387.82 211.71 381.95 212.53 C 378.64 212.98 375.79 210.98 373.13 209.34 C 369.67 211.86 365.39 214.03 360.98 213.05 C 355.68 212.05 352.48 207.07 350.44 202.49 C 345.99 201.53 341.54 200.64 337.08 199.72 C 340.06 204.24 342.82 208.88 345.83 213.38 C 343.01 214.75 340.15 216.01 337.31 217.30 C 332.30 209.55 326.94 202.04 321.90 194.32 C 318.68 193.78 315.46 193.26 312.26 192.65 C 317.97 202.85 323.61 213.09 329.46 223.21 C 326.34 224.87 323.17 226.44 320.00 227.99 C 312.18 214.50 304.21 201.09 296.31 187.64 C 289.57 185.90 282.92 183.88 276.16 182.25 C 276.04 182.76 275.81 183.79 275.69 184.31 C 282.05 192.65 289.13 203.17 285.36 214.12 C 289.52 216.06 294.59 218.16 295.98 222.99 C 296.87 225.70 295.27 228.27 293.84 230.44 C 296.75 231.63 298.75 234.89 296.15 237.52 C 292.90 237.76 291.44 235.07 291.43 232.21 C 288.89 232.41 285.87 233.11 283.80 231.16 C 279.92 227.88 280.10 222.27 279.96 217.65 C 270.35 217.45 263.81 209.08 259.39 201.48 C 258.22 200.05 257.75 196.63 255.28 198.09 C 255.46 205.11 255.90 212.13 256.03 219.16 C 267.17 230.02 278.40 240.80 289.39 251.82 C 287.15 254.48 285.05 257.24 282.87 259.94 C 274.32 251.97 265.71 244.06 257.30 235.94 C 257.23 239.26 256.84 242.56 256.83 245.88 C 262.79 252.91 269.19 259.58 275.29 266.50 C 273.44 269.02 271.63 271.57 269.81 274.11 C 266.07 270.20 262.40 266.24 258.52 262.48 C 258.72 267.06 257.84 271.68 258.43 276.23 C 261.93 279.34 265.70 282.96 266.00 287.95 C 266.47 293.02 263.03 297.23 259.63 300.57 C 260.46 303.59 262.07 306.85 260.77 309.99 C 258.69 315.68 249.18 315.67 246.95 310.09 C 245.54 307.13 246.56 303.84 247.44 300.89 C 243.71 297.94 239.93 294.01 240.00 288.91 C 240.03 283.98 243.32 280.06 246.51 276.67 C 246.80 272.05 245.55 267.32 245.36 262.65 C 242.04 266.98 238.60 271.22 235.07 275.37 L 236.42 275.19 L 234.60 275.55 L 234.94 275.27 C 232.97 272.98 230.99 270.70 229.03 268.41 C 234.52 260.95 240.28 253.70 245.76 246.24 C 245.27 243.06 244.83 239.87 244.35 236.70 C 237.00 244.55 229.94 252.66 222.68 260.60 C 222.00 261.25 221.26 261.82 220.44 262.31 C 218.46 259.70 215.93 257.58 213.96 254.97 C 214.14 254.65 214.52 254.00 214.70 253.68 C 224.55 242.22 234.53 230.88 244.30 219.37 C 243.78 212.96 243.70 206.53 243.29 200.12 C 238.52 206.62 233.26 213.16 226.01 217.01 C 222.57 218.83 218.61 219.64 214.74 219.05 C 213.99 223.47 213.08 228.64 209.08 231.34 C 206.59 233.07 203.51 232.03 200.92 231.15 C 200.40 233.58 198.79 236.54 195.78 235.41 C 192.67 232.85 196.00 229.69 198.82 229.02 C 197.90 226.46 196.68 223.58 198.25 220.99 C 200.57 216.71 205.78 215.57 210.16 214.58 C 208.44 203.93 216.10 195.05 223.41 188.39 C 222.95 187.86 222.03 186.81 221.57 186.28 C 215.56 188.01 209.35 189.21 203.51 191.37 C 195.50 204.64 187.65 218.00 179.71 231.31 C 176.55 229.84 173.48 228.18 170.39 226.57 C 176.05 216.34 181.94 206.24 187.65 196.04 C 184.49 196.54 181.35 197.08 178.19 197.55 C 172.86 205.13 167.69 212.81 162.50 220.48 C 159.67 219.20 156.84 217.95 154.01 216.67 C 156.96 212.09 159.85 207.48 162.81 202.91 C 158.37 203.87 153.92 204.79 149.44 205.61 C 147.53 209.87 144.74 214.28 140.10 215.86 C 135.34 217.52 130.33 215.21 126.60 212.29 C 123.65 213.83 120.69 216.29 117.13 215.43 C 111.59 213.98 110.09 205.87 114.06 202.05 C 116.62 199.85 120.24 200.03 123.40 200.26 C 125.44 196.37 127.83 191.97 132.32 190.58 C 137.48 188.89 142.58 191.66 146.83 194.35 C 150.97 192.75 155.23 191.49 159.33 189.79 C 154.58 187.38 149.83 184.95 145.11 182.47 C 146.93 180.00 148.71 177.50 150.40 174.94 C 158.78 178.66 166.97 182.80 175.26 186.72 C 178.28 185.53 181.31 184.38 184.34 183.21 C 174.40 177.31 164.45 171.41 154.43 165.64 C 156.31 162.65 158.20 159.68 160.14 156.73 C 173.72 164.21 187.17 171.92 200.77 179.36 C 205.66 177.87 210.59 176.54 215.53 175.24 C 214.94 172.53 214.45 169.79 214.19 167.02 C 205.77 164.14 197.26 160.29 191.23 153.55 C 188.68 150.70 187.07 147.12 186.59 143.33 C 182.18 143.53 177.02 144.22 173.43 141.05 C 170.99 139.03 171.53 135.71 171.54 132.93 C 169.87 132.66 167.97 132.77 166.62 131.58 C 166.17 130.30 166.39 128.93 166.41 127.61 C 169.10 126.17 171.55 127.89 172.94 130.19 C 175.27 128.54 178.10 126.65 181.07 127.79 C 185.38 129.41 187.65 133.76 189.57 137.64 C 200.28 132.85 211.63 139.28 220.25 145.48 C 221.23 143.84 219.93 142.35 219.20 140.95 C 216.09 135.65 213.09 130.28 210.04 124.94 C 195.28 120.73 180.56 116.35 165.79 112.13 C 166.40 108.65 167.06 105.18 167.79 101.72 C 178.92 104.66 190.03 107.62 201.13 110.63 C 199.90 107.62 198.53 104.66 197.27 101.66 C 188.68 98.49 180.06 95.40 171.45 92.27 C 171.94 89.18 172.42 86.10 172.81 83.00 C 177.91 84.69 183.04 86.29 188.12 88.04 C 185.99 83.99 184.34 79.70 182.02 75.75 C 178.02 74.54 173.52 73.62 170.76 70.16 C 166.93 65.96 168.09 59.74 169.67 54.82 C 167.17 52.16 163.60 49.26 164.40 45.15 C 165.31 40.12 171.65 37.32 176.03 39.83 C 179.00 41.74 179.75 45.44 180.36 48.66 C 184.90 49.46 189.99 51.09 192.26 55.47 C 194.63 60.01 193.28 65.21 192.15 69.88 C 194.52 73.80 197.30 77.47 199.54 81.48 C 200.76 76.10 201.80 70.69 202.83 65.27 C 205.72 66.35 208.59 67.48 211.48 68.55 C 210.05 77.74 208.03 86.87 207.03 96.10 C 208.57 98.93 210.78 101.32 212.57 103.99 C 215.47 92.63 218.43 81.29 221.34 69.94 C 224.65 71.02 227.94 72.20 231.25 73.29 C 227.60 88.54 223.97 103.79 220.48 119.07 C 223.87 124.46 226.63 130.25 230.25 135.51 C 232.46 134.09 234.85 132.98 237.31 132.05 C 236.65 122.61 237.23 111.06 245.52 104.89 C 243.05 101.11 240.27 96.68 241.32 91.98 C 241.91 89.04 244.77 87.57 247.28 86.48 C 246.83 84.87 245.48 83.15 246.30 81.46 C 246.81 79.40 250.18 79.14 251.02 81.07 C 252.16 82.84 250.75 84.79 250.30 86.55 C 252.77 87.58 255.57 89.11 256.18 91.96 C 257.11 96.69 254.46 101.13 251.98 104.94 C 260.66 111.28 260.53 123.18 260.25 132.85 C 261.01 133.25 261.77 133.65 262.53 134.06 C 265.95 128.46 269.23 122.77 272.63 117.15 C 269.33 101.82 265.80 86.54 262.49 71.21 C 265.81 70.26 269.09 69.17 272.38 68.12 C 275.27 79.46 277.83 90.89 280.79 102.21 C 282.78 99.57 284.73 96.90 286.65 94.20 C 285.09 85.11 283.73 75.98 282.28 66.86 C 285.16 65.86 288.01 64.77 290.89 63.74 C 291.99 69.09 292.94 74.47 293.95 79.84 C 296.39 75.99 299.17 72.37 301.59 68.51 C 300.62 63.98 299.16 58.97 301.45 54.56 C 303.53 49.81 309.00 48.22 313.69 47.42 C 314.76 44.24 315.12 40.18 318.46 38.45 Z" />
</g>
</svg>
