<?xml version="1.0" encoding="UTF-8" ?>
<!DOCTYPE svg PUBLIC "-//W3C//DTD SVG 1.1//EN" "http://www.w3.org/Graphics/SVG/1.1/DTD/svg11.dtd">
<svg width="430pt" height="480pt" viewBox="0 0 430 480" version="1.1" xmlns="http://www.w3.org/2000/svg">
<g id="#ffffffff">
</g>
<g id="#000000ff">
<path fill="#000000" opacity="1.00" d=" M 197.51 11.79 C 198.67 8.18 202.32 6.07 205.79 5.15 C 213.22 4.35 221.02 3.88 228.15 6.65 C 230.36 8.63 232.04 11.10 233.34 13.75 C 233.38 16.48 233.39 19.21 233.36 21.94 C 233.74 22.31 234.50 23.04 234.87 23.41 C 237.18 22.74 239.51 22.18 241.87 21.75 C 245.39 22.15 249.06 22.61 251.74 25.18 C 256.57 27.23 260.82 30.34 265.47 32.72 C 266.70 34.13 267.91 35.55 269.12 36.97 C 269.65 41.47 268.88 46.04 265.69 49.44 C 262.02 51.90 258.15 54.05 254.23 56.09 C 251.34 58.32 248.12 60.10 245.07 62.10 C 244.78 62.66 244.20 63.77 243.91 64.33 C 244.77 66.26 245.51 68.25 246.65 70.05 C 247.74 71.40 248.79 72.79 249.85 74.17 C 251.24 76.08 252.75 77.91 254.16 79.81 C 258.23 83.79 261.15 88.66 264.76 93.02 C 266.54 95.23 268.36 97.41 269.83 99.85 C 272.90 99.71 274.36 96.72 275.92 94.51 C 278.50 89.11 283.90 85.10 290.00 85.37 C 295.11 86.03 299.82 88.24 304.08 91.06 C 307.18 92.96 309.41 95.83 311.18 98.96 C 311.19 101.41 311.22 103.87 311.22 106.33 C 310.87 106.75 310.17 107.61 309.82 108.04 C 309.01 112.29 304.98 115.37 305.12 119.91 C 312.94 123.04 321.55 122.29 329.70 123.89 C 336.07 125.22 342.56 125.69 349.01 126.45 C 351.34 126.80 354.77 125.83 354.77 122.96 C 355.00 115.65 354.67 108.32 354.92 101.01 C 355.63 99.62 356.25 98.18 356.84 96.74 C 357.44 95.84 358.03 94.94 358.61 94.04 C 361.54 92.45 364.63 90.69 368.10 91.36 C 373.50 92.96 378.06 96.45 382.95 99.12 C 388.09 101.47 392.76 105.39 394.17 111.10 C 398.15 110.11 401.87 107.32 406.16 108.36 C 409.72 108.47 412.17 111.17 414.37 113.62 C 415.61 116.50 418.18 118.48 419.74 121.16 C 420.72 122.85 421.66 124.59 422.95 126.08 C 423.80 127.58 424.58 129.10 425.33 130.66 C 425.26 133.20 424.98 135.73 424.50 138.23 C 423.44 139.62 422.30 140.94 421.20 142.30 C 419.14 143.86 417.00 145.32 414.92 146.86 C 416.92 148.90 419.08 150.78 421.09 152.82 C 423.13 157.28 422.73 162.22 422.88 167.00 C 422.66 170.93 423.55 175.08 422.10 178.85 C 421.84 180.65 421.60 182.46 421.30 184.26 C 420.50 185.14 419.87 186.14 419.37 187.21 C 417.14 188.86 414.85 191.06 411.84 190.69 C 406.86 191.62 403.01 187.89 398.92 185.78 C 392.56 182.45 386.36 178.83 379.97 175.57 C 378.96 176.03 377.95 176.48 376.95 176.94 C 374.42 182.30 372.23 187.84 369.70 193.19 C 369.62 193.76 369.46 194.90 369.38 195.47 C 367.63 198.29 366.65 201.49 364.96 204.33 C 364.81 204.85 364.51 205.87 364.37 206.38 C 363.34 208.21 362.66 210.20 361.74 212.08 C 360.84 214.50 359.74 217.11 361.63 219.37 C 366.71 220.23 371.86 220.11 376.99 220.12 C 380.26 220.04 383.04 221.85 385.65 223.60 C 386.97 226.27 389.16 228.83 388.86 232.00 C 388.85 236.22 388.95 240.45 388.72 244.67 C 387.12 248.28 385.52 252.05 382.17 254.39 C 380.48 255.07 378.76 255.66 377.04 256.21 C 373.28 256.52 368.73 256.14 365.80 258.93 C 366.02 261.14 366.29 263.38 367.42 265.34 C 367.93 266.69 368.51 268.03 369.35 269.23 C 369.42 269.76 369.54 270.80 369.61 271.32 C 371.61 274.13 372.93 277.32 374.10 280.54 C 375.36 284.51 377.26 288.23 378.86 292.07 C 380.70 295.76 381.62 300.24 385.10 302.81 C 387.66 301.96 390.23 301.04 392.60 299.73 C 399.78 295.97 406.67 290.11 415.26 290.69 C 419.31 291.15 421.00 294.94 422.67 298.12 C 423.04 302.04 422.96 306.00 423.30 309.93 C 423.25 314.07 422.71 318.20 422.85 322.35 C 422.25 323.69 421.66 325.03 421.12 326.40 C 420.12 327.61 418.59 328.55 418.12 330.10 C 417.84 331.55 419.04 332.35 419.96 333.20 C 425.95 335.58 425.86 342.90 424.40 348.14 C 423.02 349.95 421.93 351.95 421.04 354.04 C 420.32 355.31 419.57 356.56 418.80 357.80 C 417.97 359.27 417.03 360.68 416.18 362.13 C 414.88 364.45 413.25 366.56 411.40 368.46 C 408.61 369.37 405.80 370.76 402.78 370.26 C 399.91 369.71 397.23 368.53 394.66 367.20 C 393.98 368.15 393.31 369.12 392.64 370.08 C 391.32 373.39 388.50 375.71 385.41 377.33 C 379.30 380.34 373.81 384.93 367.07 386.44 C 362.80 387.36 359.15 384.74 356.58 381.64 C 356.31 377.75 355.58 373.89 355.60 369.98 L 354.77 369.50 L 355.71 368.17 C 355.52 363.09 354.45 358.07 354.83 352.97 C 353.21 351.81 351.53 350.15 349.34 350.93 C 342.85 352.42 336.21 352.98 329.59 353.69 C 323.09 354.70 316.61 355.89 310.10 356.88 C 308.68 356.90 307.54 357.83 306.70 358.88 C 308.28 364.73 313.31 369.63 312.79 376.00 C 312.98 380.93 309.56 386.49 304.53 387.51 L 304.73 388.28 C 299.51 390.72 294.76 395.19 288.65 394.77 C 285.51 395.12 283.18 392.77 280.79 391.17 C 279.04 388.86 277.28 386.54 275.87 384.00 C 274.97 382.44 274.05 380.90 273.18 379.33 C 271.98 379.49 270.79 379.68 269.60 379.89 C 268.51 382.81 266.02 384.82 264.02 387.11 C 263.47 387.87 262.93 388.63 262.40 389.40 C 259.37 392.79 256.54 396.36 254.17 400.26 C 253.57 400.90 252.97 401.55 252.37 402.20 C 251.28 403.48 250.29 404.85 249.33 406.25 C 247.22 409.11 245.31 412.10 243.23 414.98 C 243.22 415.72 243.21 417.18 243.21 417.91 C 250.21 423.17 258.43 426.56 265.54 431.67 C 265.87 433.15 266.34 434.60 267.34 435.79 C 267.38 437.44 267.43 439.09 267.48 440.75 L 266.53 440.22 C 266.06 441.96 266.08 443.91 265.16 445.49 C 260.71 450.35 254.36 452.49 249.20 456.41 C 244.78 458.62 240.17 460.80 235.06 460.17 C 235.08 461.57 235.11 462.97 235.15 464.38 C 234.83 464.40 234.20 464.45 233.88 464.48 C 233.67 465.97 233.43 467.47 233.22 468.97 C 232.11 470.51 230.80 471.90 229.66 473.42 C 227.49 474.41 225.31 475.35 223.12 476.28 C 219.58 476.23 216.05 476.23 212.52 476.28 C 212.56 475.61 212.65 474.26 212.70 473.59 C 212.57 474.28 212.32 475.66 212.19 476.35 C 208.42 476.27 204.50 475.90 201.26 473.80 C 198.84 472.83 198.54 469.85 197.31 467.85 C 195.57 465.59 196.64 462.60 195.84 460.09 C 195.09 458.58 193.17 459.40 191.95 459.65 C 187.68 461.00 182.44 461.34 178.94 458.08 C 173.41 454.35 166.92 451.81 162.43 446.73 C 160.91 441.60 160.51 434.93 165.59 431.65 C 168.48 430.32 170.99 428.33 173.74 426.76 C 174.56 426.22 175.37 425.68 176.18 425.13 C 180.20 422.82 184.58 420.93 187.67 417.33 C 186.55 415.46 185.42 413.60 184.32 411.73 C 183.44 410.67 182.58 409.60 181.71 408.56 C 179.50 404.69 176.27 401.56 173.84 397.85 C 173.09 396.61 172.31 395.40 171.68 394.10 L 170.90 394.41 C 170.18 393.59 169.48 392.76 168.80 391.91 C 168.02 390.45 166.96 389.22 165.64 388.24 C 164.88 387.04 164.11 385.86 163.35 384.68 C 162.49 383.75 161.69 382.78 160.89 381.81 C 159.48 379.77 157.54 377.62 154.79 378.13 C 153.33 380.76 151.68 383.29 150.30 385.97 C 147.50 391.16 141.72 394.58 135.80 394.05 C 131.44 393.01 127.94 390.01 123.84 388.36 C 122.15 386.91 120.44 385.50 118.78 384.03 C 118.10 383.01 117.43 381.99 116.73 381.00 C 116.46 377.66 116.52 374.32 116.80 371.00 C 119.00 367.29 120.78 363.35 122.63 359.47 C 123.46 357.92 121.98 356.45 120.42 356.50 C 114.21 355.95 108.26 353.75 102.01 353.51 C 95.87 353.28 89.87 351.92 83.86 350.79 C 82.27 350.77 80.68 350.71 79.10 350.85 C 77.79 351.65 77.51 353.37 76.66 354.58 C 76.40 362.08 76.05 369.57 76.24 377.08 C 76.50 379.85 75.45 382.48 74.28 384.94 C 72.67 386.43 70.99 387.84 69.26 389.21 C 66.94 389.46 64.60 389.92 62.26 389.65 C 58.05 388.94 55.09 385.64 51.56 383.54 C 50.19 383.08 48.84 382.57 47.48 382.10 C 47.24 381.75 46.75 381.04 46.51 380.69 C 44.55 379.95 42.55 379.11 41.21 377.41 L 40.66 377.64 C 39.57 376.26 38.49 374.87 37.41 373.49 C 37.18 370.63 37.23 367.44 35.29 365.13 C 30.73 366.43 26.67 369.94 21.70 369.22 C 19.80 368.63 18.25 367.36 16.65 366.24 C 15.10 363.80 13.41 361.44 12.34 358.75 C 11.54 357.52 10.80 356.26 10.07 355.00 C 8.95 352.85 8.21 350.45 6.61 348.60 C 5.76 345.26 6.12 341.83 6.63 338.48 C 7.57 337.47 8.13 336.24 8.46 334.92 C 10.47 333.73 12.39 332.40 13.79 330.50 C 13.10 329.74 12.41 329.01 11.70 328.28 C 11.00 327.56 10.39 326.77 9.85 325.93 C 8.90 318.65 9.29 311.30 9.22 303.98 C 9.14 301.07 10.24 298.34 11.68 295.87 C 14.68 293.73 17.98 290.95 21.96 291.93 C 24.85 292.88 27.46 294.49 30.15 295.89 C 35.07 298.77 40.29 301.10 45.15 304.10 C 45.91 304.22 47.44 304.45 48.20 304.56 C 49.08 302.81 50.02 301.09 50.60 299.21 C 51.41 297.34 52.29 295.50 53.22 293.69 C 53.33 293.25 53.55 292.39 53.65 291.96 C 55.82 288.06 56.93 283.69 58.72 279.63 C 59.90 276.86 60.83 273.99 61.95 271.19 C 63.09 268.76 64.12 266.26 64.97 263.71 C 65.60 262.36 66.22 261.00 66.83 259.64 C 65.97 259.01 65.09 258.42 64.19 257.86 C 58.08 257.02 51.67 257.52 45.78 255.55 C 44.77 253.98 43.58 252.55 42.32 251.18 C 40.86 243.69 41.83 236.09 42.29 228.57 C 43.91 226.22 45.29 223.42 48.11 222.30 C 53.63 218.63 60.72 222.30 66.37 219.11 C 66.10 216.25 64.16 213.63 63.50 210.75 C 62.90 206.26 60.41 202.37 58.66 198.27 C 58.24 196.78 57.77 195.30 57.15 193.88 C 56.07 191.52 55.20 189.01 53.56 186.97 C 53.54 186.40 53.48 185.26 53.45 184.69 C 53.10 184.22 52.41 183.29 52.06 182.82 C 51.42 181.11 50.64 179.45 49.94 177.76 C 49.01 177.29 48.08 176.83 47.15 176.37 C 42.92 178.37 38.76 180.52 34.63 182.74 C 31.98 184.56 28.68 185.09 26.08 187.01 C 23.21 188.96 19.71 188.71 16.44 188.49 C 15.00 187.65 13.57 186.80 12.20 185.87 C 11.35 184.37 10.51 182.85 9.66 181.35 C 9.76 173.47 9.67 165.59 9.71 157.70 C 10.95 154.81 12.42 152.03 14.55 149.69 C 13.39 148.71 12.21 147.76 11.01 146.83 C 8.21 146.01 6.69 143.44 4.83 141.40 C 4.32 138.19 4.17 134.93 4.91 131.74 C 5.59 130.53 6.26 129.31 6.91 128.09 C 8.26 125.05 9.86 122.13 11.63 119.32 C 12.83 117.55 13.88 115.69 14.88 113.81 C 16.95 112.24 18.94 110.29 21.64 110.00 C 27.43 108.09 31.52 114.71 37.28 113.68 C 37.28 112.14 37.31 110.59 37.35 109.06 C 38.50 107.27 39.63 105.47 40.70 103.64 C 45.28 99.97 50.80 97.81 55.76 94.73 C 59.59 92.65 63.51 90.18 68.06 90.66 C 71.35 92.11 74.54 94.01 76.12 97.40 C 76.37 107.04 76.10 116.69 76.26 126.33 C 82.77 127.87 89.39 125.78 95.94 125.53 C 100.76 125.60 105.29 123.74 110.06 123.35 C 113.97 123.00 117.84 122.32 121.67 121.47 C 121.63 120.12 121.57 118.77 121.50 117.43 C 121.16 117.09 120.49 116.39 120.15 116.05 C 119.59 113.49 118.22 111.20 116.81 109.03 C 116.13 104.94 116.18 100.53 118.57 96.98 C 121.73 92.82 126.61 90.63 131.09 88.22 C 137.20 85.35 145.96 84.81 150.37 90.86 C 152.62 95.06 155.52 98.86 158.08 102.87 C 160.60 101.98 162.20 99.73 164.00 97.88 C 165.19 95.86 166.62 93.99 168.13 92.20 C 170.10 89.87 171.99 87.47 173.85 85.05 C 177.08 80.83 180.50 76.77 183.64 72.47 C 185.10 70.75 187.25 68.62 186.20 66.17 C 183.36 63.36 179.55 61.87 176.33 59.57 C 175.23 59.00 174.13 58.43 173.01 57.91 C 172.25 57.35 171.50 56.78 170.75 56.21 C 165.98 53.55 160.06 51.14 158.82 45.20 C 158.78 43.12 158.76 41.05 158.83 38.97 C 159.49 37.83 160.10 36.67 160.68 35.49 C 166.31 29.52 173.94 26.26 180.83 22.08 C 185.28 20.61 190.10 21.27 194.41 22.91 C 196.01 19.36 195.64 15.24 197.51 11.79 M 205.86 15.61 C 205.77 17.21 205.77 18.84 205.27 20.38 C 204.21 23.84 204.97 27.50 204.65 31.05 C 204.33 33.83 204.17 36.63 204.26 39.43 C 199.74 38.96 196.87 35.06 192.52 34.29 C 192.92 33.26 193.31 32.23 193.87 31.28 C 191.08 32.60 188.15 32.09 185.43 30.84 C 183.94 31.64 182.41 32.37 180.84 33.00 C 180.53 33.34 179.90 34.01 179.59 34.35 C 175.91 35.52 173.17 38.43 169.60 39.86 C 168.67 40.88 167.74 42.58 168.74 43.85 C 176.38 48.36 184.04 52.88 191.89 57.02 C 194.85 58.72 197.71 60.65 200.91 61.89 C 201.28 63.46 201.56 65.86 199.43 66.39 C 199.42 66.54 199.40 66.85 199.39 67.00 C 198.67 68.07 197.96 69.14 197.32 70.26 C 195.61 72.53 193.41 74.48 192.44 77.23 C 192.26 77.25 191.92 77.30 191.74 77.32 C 190.93 78.74 190.04 80.17 188.60 81.03 C 188.01 81.97 187.43 82.90 186.82 83.82 C 185.98 85.07 185.11 86.30 184.28 87.56 L 183.63 87.56 C 182.43 90.08 180.39 92.04 178.67 94.20 C 177.86 95.28 177.08 96.39 176.35 97.53 C 175.18 98.66 174.13 99.91 173.17 101.21 C 172.29 102.02 171.43 102.85 170.57 103.67 C 169.81 104.96 169.06 106.26 168.39 107.60 C 167.34 108.68 166.40 109.85 165.30 110.87 C 165.29 111.08 165.27 111.49 165.26 111.70 C 162.51 113.91 161.24 117.52 158.02 119.24 C 156.31 117.34 154.23 115.66 153.34 113.17 L 152.76 113.43 C 152.07 111.34 150.91 109.48 149.62 107.72 C 148.89 106.98 148.28 106.15 147.79 105.23 C 145.85 101.63 144.43 97.13 140.29 95.52 C 135.03 96.33 130.70 99.62 126.32 102.37 C 125.91 105.57 127.63 108.22 129.32 110.76 C 131.81 115.70 134.71 120.43 137.44 125.25 C 137.73 126.05 138.33 127.65 138.63 128.46 C 134.79 130.10 130.51 129.89 126.46 130.56 C 126.42 130.76 126.33 131.14 126.29 131.34 C 121.52 131.39 116.88 132.82 112.10 132.85 C 105.61 133.01 99.50 135.54 93.03 135.71 C 84.71 136.21 76.55 138.26 68.22 138.46 C 66.78 130.06 67.84 121.48 67.52 113.00 C 67.15 108.73 68.55 104.04 66.27 100.14 C 63.15 101.58 60.17 103.29 57.05 104.72 C 53.90 107.03 49.75 107.97 47.21 111.07 C 45.80 116.66 48.71 122.90 45.70 128.14 C 46.02 128.50 46.68 129.22 47.01 129.59 C 43.69 130.30 40.39 129.21 38.09 126.74 C 34.39 124.86 30.54 123.15 27.14 120.77 C 26.65 120.45 25.66 119.81 25.17 119.50 C 21.57 118.52 20.90 122.98 19.14 125.07 C 18.57 126.12 17.98 127.16 17.36 128.19 C 15.88 130.75 14.81 133.52 13.40 136.11 C 13.77 136.64 14.52 137.68 14.90 138.21 C 20.14 140.76 24.90 144.20 30.21 146.62 C 31.43 147.71 32.92 148.41 34.38 149.12 C 30.38 152.03 26.17 154.72 21.61 156.67 C 20.89 157.34 20.17 158.00 19.44 158.66 C 19.50 165.82 19.35 172.98 19.53 180.14 C 27.91 176.04 36.22 171.78 44.41 167.32 C 47.55 165.37 50.64 163.28 54.12 161.94 C 54.57 162.94 55.04 163.94 55.52 164.94 C 55.75 165.19 56.21 165.69 56.44 165.95 C 57.52 170.98 60.46 175.36 61.88 180.30 C 62.14 180.71 62.66 181.52 62.92 181.93 C 64.03 184.52 65.11 187.13 66.17 189.74 C 70.48 200.48 74.55 211.34 79.17 221.95 C 79.41 223.82 80.08 225.57 81.28 227.03 C 81.03 227.77 80.80 228.52 80.53 229.25 C 74.37 230.38 68.05 229.31 61.82 229.88 C 58.60 230.28 55.36 230.34 52.12 230.34 C 51.69 231.45 51.26 232.56 50.81 233.67 C 50.68 237.45 50.31 241.24 50.63 245.02 C 50.88 246.53 52.41 247.31 53.41 248.30 C 60.28 248.01 67.16 248.27 74.04 248.20 C 76.29 248.28 78.64 248.40 80.75 249.24 C 80.91 250.97 79.54 252.44 79.02 254.03 C 78.18 255.73 77.66 257.55 77.55 259.45 L 76.24 259.51 C 76.21 259.97 76.16 260.91 76.13 261.37 C 74.09 265.01 73.82 269.53 71.39 272.87 C 71.37 273.46 71.35 274.65 71.33 275.25 C 70.91 275.56 70.05 276.18 69.63 276.49 C 69.63 277.20 69.64 278.60 69.65 279.31 C 67.74 280.82 68.42 283.61 66.66 285.24 C 66.54 285.65 66.32 286.49 66.21 286.91 C 65.36 288.29 64.81 289.82 64.44 291.41 C 63.80 292.57 63.33 293.80 62.92 295.06 C 62.67 295.50 62.15 296.39 61.90 296.83 C 60.17 301.34 58.63 305.95 56.34 310.21 C 55.06 311.16 55.31 312.89 54.94 314.25 C 54.32 315.46 53.69 316.67 53.10 317.91 C 50.52 317.90 47.91 317.41 46.04 315.49 C 38.91 311.88 32.09 307.61 24.89 304.09 C 23.18 303.11 21.46 302.14 19.74 301.19 C 19.45 302.49 19.17 303.79 18.90 305.10 C 18.14 307.72 18.32 310.46 18.17 313.16 C 18.61 316.27 17.18 320.60 20.68 322.34 C 24.73 324.71 28.75 327.12 32.64 329.74 C 32.64 330.12 32.65 330.89 32.65 331.27 C 29.20 333.68 25.60 335.90 21.78 337.67 C 20.28 339.01 18.55 340.03 16.68 340.77 C 15.88 341.57 15.07 342.38 14.25 343.17 C 14.69 343.52 15.55 344.22 15.98 344.56 C 16.71 346.80 17.94 348.84 19.08 350.89 C 20.94 353.85 22.31 357.12 24.68 359.74 C 26.09 359.17 27.52 358.64 28.94 358.10 C 30.31 356.83 32.00 356.02 33.70 355.30 C 37.17 352.53 41.32 350.88 45.25 348.90 C 45.87 350.66 46.49 352.42 47.14 354.18 C 46.71 354.58 45.85 355.36 45.41 355.76 C 45.69 356.13 46.25 356.89 46.53 357.26 C 46.89 361.22 46.78 365.19 46.60 369.15 C 47.94 370.19 49.31 371.20 50.70 372.18 C 53.75 373.41 56.05 375.93 59.21 376.96 C 61.20 378.69 63.77 379.40 66.20 380.28 C 66.56 378.87 66.91 377.47 67.24 376.06 C 66.86 374.74 66.57 373.39 66.37 372.04 C 67.62 371.08 67.73 369.51 67.72 368.08 C 67.62 358.92 68.45 349.78 68.13 340.62 C 71.70 339.45 75.39 340.46 79.02 340.58 C 85.44 340.97 91.62 343.15 98.06 343.31 C 101.98 343.59 105.87 344.25 109.79 344.59 C 117.65 346.59 125.84 346.47 133.83 347.66 C 135.46 348.01 137.39 348.23 138.42 349.74 C 138.18 353.26 135.82 356.07 134.19 359.04 C 131.52 363.53 129.56 368.40 126.76 372.81 C 126.35 373.82 125.90 374.81 125.42 375.80 C 125.85 376.57 126.31 377.32 126.80 378.06 C 128.41 379.16 130.18 380.02 131.67 381.30 C 134.39 382.67 137.00 385.14 140.25 384.57 C 140.98 383.67 141.73 382.79 142.48 381.92 C 142.56 381.46 142.71 380.53 142.79 380.07 C 145.62 374.80 149.49 370.15 152.04 364.74 C 152.17 364.33 152.43 363.51 152.55 363.10 C 153.26 362.22 153.96 361.34 154.65 360.44 C 155.21 360.41 156.35 360.33 156.91 360.29 C 158.05 361.40 159.15 362.55 160.21 363.74 C 161.41 365.61 162.46 367.59 163.98 369.24 C 165.78 371.15 167.48 373.15 169.02 375.30 C 169.49 376.36 170.04 377.39 170.63 378.41 L 171.28 378.37 C 175.87 385.10 181.48 391.07 186.23 397.67 C 187.13 398.78 187.98 399.94 188.75 401.16 C 189.72 402.40 190.77 403.58 191.82 404.76 C 192.43 405.86 193.03 406.97 193.66 408.07 C 196.21 409.32 197.22 412.06 198.58 414.35 C 199.80 415.93 201.21 417.36 202.51 418.88 C 202.51 419.60 202.51 420.33 202.52 421.06 C 200.71 422.07 198.88 423.06 197.06 424.08 C 190.92 427.56 184.96 431.34 178.82 434.82 C 176.73 436.40 174.40 437.62 172.02 438.72 C 171.36 439.41 170.70 440.10 170.04 440.80 C 173.04 442.95 176.34 444.62 179.43 446.64 C 182.54 448.57 185.90 452.10 189.90 450.42 C 193.06 448.52 196.51 447.09 199.42 444.79 C 201.09 443.60 204.93 442.25 204.81 445.54 L 205.64 445.57 C 205.59 446.85 205.54 448.14 205.50 449.43 C 206.05 454.25 205.66 459.10 205.78 463.94 C 206.55 464.75 207.32 465.57 208.09 466.40 C 213.80 466.45 219.86 467.75 225.31 465.49 C 225.12 458.18 225.72 450.89 225.27 443.59 C 227.26 443.46 229.18 443.96 230.76 445.19 C 233.65 447.07 236.61 448.84 239.74 450.28 C 241.62 450.83 242.95 449.19 244.42 448.39 C 247.95 446.26 251.44 444.05 254.98 441.96 C 256.36 441.16 258.58 440.43 257.74 438.36 C 248.21 432.32 238.23 426.94 228.60 421.04 C 228.56 420.32 228.53 419.60 228.50 418.89 C 229.39 417.94 230.32 417.02 231.27 416.13 C 231.82 415.12 232.37 414.12 232.92 413.11 C 233.92 411.68 235.06 410.36 236.16 409.01 C 238.27 405.25 241.66 402.38 243.62 398.53 C 245.95 395.89 248.25 393.20 249.93 390.09 C 250.76 389.25 251.57 388.40 252.38 387.54 C 253.33 386.08 254.38 384.67 255.55 383.38 C 258.08 380.83 259.19 377.18 262.12 374.98 C 263.84 372.40 265.74 369.96 267.68 367.55 C 269.18 365.35 270.87 363.23 273.12 361.75 C 273.62 361.99 274.63 362.48 275.13 362.72 C 278.24 366.91 280.68 371.54 283.15 376.13 C 284.76 378.48 285.93 381.12 287.70 383.37 C 288.49 384.38 289.52 385.91 291.05 385.40 C 295.30 383.42 299.15 380.69 303.22 378.37 C 303.06 376.10 303.70 373.46 301.65 371.85 C 301.54 371.43 301.34 370.58 301.23 370.15 C 299.00 366.50 297.05 362.68 294.66 359.13 C 293.17 356.20 290.82 353.32 291.26 349.85 C 294.86 349.43 298.45 348.85 301.93 347.78 C 307.64 346.81 313.47 346.80 319.19 345.80 C 327.66 344.06 336.30 343.41 344.86 342.30 C 351.26 340.68 357.91 340.15 364.50 340.05 C 364.91 342.31 365.25 344.58 364.84 346.87 C 365.10 348.33 365.14 349.80 364.98 351.28 C 365.34 355.81 365.40 360.39 364.93 364.92 C 365.48 368.54 364.94 372.23 365.44 375.85 C 365.83 376.08 366.62 376.52 367.02 376.75 C 371.62 375.23 375.52 372.10 379.89 370.01 C 381.34 369.17 382.78 368.30 384.20 367.38 C 384.09 361.67 384.18 355.97 384.78 350.29 C 385.31 350.34 386.37 350.43 386.89 350.48 C 392.21 353.81 397.64 356.97 403.23 359.83 C 403.98 360.09 405.49 360.61 406.24 360.87 C 409.11 356.78 411.82 352.47 413.57 347.77 C 414.64 346.46 415.70 345.13 416.78 343.82 C 411.59 338.84 404.52 336.45 398.67 332.36 C 398.60 331.81 398.47 330.70 398.40 330.15 C 399.01 329.84 400.22 329.20 400.83 328.89 C 405.16 325.78 410.64 324.10 414.17 319.99 C 414.58 315.28 414.29 310.53 414.24 305.81 C 413.12 304.19 413.24 302.20 413.14 300.34 C 411.36 300.90 409.58 301.46 407.80 302.00 C 407.52 302.36 406.97 303.07 406.70 303.43 C 402.74 304.51 399.70 307.41 395.96 308.96 C 391.69 311.61 387.27 313.98 382.95 316.53 C 381.89 316.71 380.84 316.87 379.79 317.03 C 378.13 313.87 375.36 310.91 375.82 307.07 L 374.55 307.52 C 374.39 305.64 374.05 303.76 373.09 302.11 C 372.44 301.35 371.91 300.52 371.50 299.62 C 371.02 298.10 370.34 296.68 369.67 295.25 C 368.24 291.48 366.54 287.83 364.96 284.13 C 363.74 281.95 362.76 279.64 362.27 277.18 L 361.64 277.68 C 361.54 275.95 361.04 274.32 360.17 272.84 C 358.79 269.74 357.44 266.64 356.21 263.48 C 355.42 261.64 354.51 259.86 353.55 258.11 C 353.32 256.55 353.09 254.96 351.88 253.83 C 351.44 252.08 350.89 250.37 350.28 248.68 C 351.27 248.21 352.24 247.67 353.29 247.31 C 361.90 246.42 370.99 248.48 379.28 245.46 C 379.23 240.56 379.25 235.66 379.26 230.77 C 378.17 230.42 377.09 230.07 376.02 229.72 C 368.68 229.71 361.34 229.73 354.00 229.72 C 351.52 229.76 349.11 229.10 346.72 228.53 C 346.74 226.97 346.76 225.41 346.78 223.85 C 347.18 223.41 347.98 222.53 348.38 222.09 C 348.42 221.48 348.49 220.26 348.53 219.65 C 350.05 217.10 351.13 214.30 351.85 211.43 C 352.13 211.04 352.68 210.26 352.96 209.87 C 353.84 207.19 354.89 204.55 356.22 202.06 C 356.36 201.64 356.64 200.82 356.78 200.41 C 358.51 196.41 360.33 192.42 361.68 188.28 C 361.92 187.96 362.41 187.33 362.65 187.01 C 363.15 184.79 363.91 182.65 364.80 180.57 C 365.10 180.17 365.69 179.36 365.98 178.96 C 366.70 176.72 367.61 174.54 368.23 172.27 C 368.83 171.07 369.38 169.84 369.82 168.57 C 370.89 166.21 372.04 163.88 373.05 161.49 C 376.62 160.31 379.28 163.41 382.19 164.83 C 387.04 167.34 391.55 170.48 396.54 172.70 C 399.26 174.69 402.41 175.95 405.28 177.71 C 408.00 179.23 410.57 181.41 413.82 181.58 C 413.53 181.22 412.96 180.51 412.67 180.16 C 413.94 173.16 413.01 165.97 413.25 158.89 C 410.71 157.26 408.29 155.39 405.44 154.31 C 405.12 153.97 404.47 153.29 404.15 152.95 C 400.70 151.95 398.13 149.28 394.85 147.91 C 401.92 143.03 409.58 139.07 416.83 134.47 C 415.06 131.77 413.27 129.08 411.26 126.56 C 410.64 125.64 410.04 124.71 409.44 123.79 C 408.35 122.42 407.30 121.02 406.32 119.57 C 405.62 118.98 404.92 118.38 404.22 117.79 C 401.50 118.86 398.68 120.04 396.67 122.25 C 392.76 124.30 389.11 127.45 384.48 127.48 C 383.80 122.30 384.43 117.07 384.05 111.87 C 383.32 110.06 381.24 109.73 379.68 108.98 C 379.43 108.68 378.93 108.07 378.68 107.76 C 373.85 105.96 370.00 101.81 364.66 101.37 C 364.59 113.01 364.64 124.65 364.63 136.30 C 363.84 137.04 363.06 137.79 362.29 138.56 C 353.63 137.23 344.93 136.03 336.20 135.40 C 336.67 134.66 337.15 133.91 337.61 133.16 C 336.00 133.52 335.30 136.33 333.31 134.84 C 325.99 132.74 318.28 133.07 310.82 131.83 C 306.22 131.07 301.57 130.56 297.03 129.46 C 296.87 127.57 294.92 129.33 294.00 129.27 C 292.59 128.87 290.68 128.34 290.14 126.82 C 290.55 125.33 291.24 123.96 291.80 122.54 C 292.10 122.15 292.70 121.38 293.01 121.00 C 295.26 115.74 298.60 111.00 301.39 106.01 C 301.42 104.39 301.41 102.76 301.38 101.14 C 297.62 98.81 293.97 96.31 289.69 94.98 C 288.16 95.43 286.83 96.32 285.50 97.17 C 284.78 98.50 284.05 99.83 283.27 101.12 C 282.40 102.42 281.60 103.76 280.70 105.04 C 279.93 106.52 279.12 107.99 278.36 109.48 C 276.46 112.11 275.04 115.04 273.09 117.64 C 271.30 116.80 269.27 116.03 268.63 113.94 C 267.20 112.89 266.00 111.58 265.45 109.86 C 263.61 107.71 261.37 105.81 260.39 103.07 L 259.77 103.12 C 257.41 98.50 252.96 95.25 250.83 90.41 C 250.51 90.36 249.87 90.26 249.56 90.21 C 249.56 89.64 249.56 88.50 249.57 87.92 C 246.62 87.20 245.29 84.34 244.47 81.69 C 243.47 81.21 242.48 80.73 241.49 80.25 C 241.47 79.70 241.42 78.60 241.39 78.04 C 239.38 76.73 238.53 74.37 236.58 72.92 C 236.60 72.67 236.64 72.17 236.66 71.92 C 234.26 70.49 232.68 68.21 231.37 65.81 C 230.90 65.39 229.96 64.57 229.49 64.15 C 229.62 62.59 229.07 60.63 230.98 59.92 C 239.23 54.49 247.90 49.72 256.40 44.70 C 257.90 43.87 259.26 42.81 260.23 41.37 C 258.30 40.14 256.44 38.75 254.27 37.97 C 253.87 37.60 253.07 36.87 252.68 36.50 C 250.76 35.51 248.81 34.58 246.76 33.93 C 246.49 33.58 245.95 32.88 245.69 32.53 C 243.95 32.49 242.14 31.28 240.50 32.29 C 235.41 34.55 231.04 38.40 225.48 39.55 C 225.29 36.92 225.40 34.24 224.73 31.66 C 224.87 31.26 225.15 30.46 225.30 30.06 C 224.01 26.17 225.79 21.74 223.76 18.10 C 223.71 17.46 223.62 16.16 223.58 15.51 C 219.98 13.83 215.91 14.27 212.06 14.12 C 209.86 13.89 207.81 14.72 205.86 15.61 Z" />
<path fill="#000000" opacity="1.00" d=" M 225.38 106.26 C 225.23 101.69 225.16 97.10 225.48 92.54 C 226.16 92.80 227.51 93.33 228.19 93.60 C 233.61 100.27 238.73 107.19 244.26 113.78 C 247.18 117.61 250.32 121.29 253.01 125.29 C 253.29 125.59 253.87 126.18 254.15 126.47 C 256.24 129.48 258.60 132.30 260.74 135.27 C 261.65 139.17 259.75 142.59 257.61 145.67 C 256.62 145.49 255.63 145.32 254.64 145.15 C 254.09 143.69 253.12 142.53 251.88 141.61 C 249.33 138.43 246.52 135.43 244.35 131.96 C 241.72 128.46 238.00 125.82 236.34 121.64 C 235.37 120.67 234.34 119.78 233.30 118.90 C 233.35 118.67 233.44 118.20 233.48 117.97 C 231.65 116.65 230.08 114.99 228.88 113.07 C 227.48 110.92 226.46 108.58 225.38 106.26 Z" />
<path fill="#000000" opacity="1.00" d=" M 203.16 93.25 C 204.46 93.52 205.73 94.33 205.69 95.82 C 205.86 99.51 205.87 103.20 205.64 106.88 C 205.06 108.58 204.27 110.23 204.24 112.07 C 203.64 113.49 202.96 114.87 202.23 116.23 C 201.60 117.07 200.90 117.86 200.13 118.58 L 198.98 118.37 C 199.14 118.86 199.45 119.83 199.61 120.32 C 199.22 120.30 198.46 120.25 198.07 120.22 C 196.47 123.60 193.73 126.20 191.71 129.30 C 190.28 132.20 187.37 133.99 186.01 136.91 C 183.98 139.29 181.29 141.11 179.73 143.87 C 179.04 145.20 177.80 146.06 176.68 146.99 C 176.64 147.45 176.56 148.36 176.52 148.81 C 175.92 148.48 174.71 147.82 174.11 147.49 L 173.72 147.67 C 171.99 144.70 170.45 141.57 168.18 138.96 C 169.31 137.63 170.42 136.27 171.61 134.98 C 171.66 134.63 171.77 133.93 171.83 133.58 C 173.36 131.83 174.88 130.07 176.30 128.22 C 177.61 126.45 178.66 124.50 180.12 122.85 C 180.66 122.07 181.19 121.29 181.71 120.49 C 183.22 118.76 184.69 116.98 186.29 115.33 C 186.33 115.01 186.41 114.36 186.45 114.03 C 187.95 112.43 189.74 111.04 190.84 109.10 C 191.95 107.81 192.96 106.43 194.08 105.14 C 195.18 103.77 196.30 102.41 197.28 100.95 C 199.17 98.33 201.33 95.92 203.16 93.25 Z" />
<path fill="#000000" opacity="1.00" d=" M 225.28 146.92 C 225.09 145.50 225.75 144.27 226.46 143.11 C 228.12 144.33 229.47 145.89 230.66 147.56 C 231.78 148.69 232.92 149.80 233.79 151.14 C 236.67 154.41 238.90 158.18 241.83 161.40 C 243.02 163.30 244.77 165.06 244.78 167.44 C 243.66 168.49 243.15 169.89 242.84 171.36 C 241.51 171.80 241.40 173.04 241.31 174.24 C 240.45 175.49 239.63 176.76 238.79 178.01 C 238.18 178.98 237.59 179.97 237.06 180.99 C 236.46 182.62 235.32 183.94 234.40 185.38 C 233.50 185.26 232.60 185.11 231.72 184.94 C 230.81 183.37 229.62 181.98 228.84 180.34 C 228.32 179.25 227.75 178.19 227.18 177.14 C 226.74 176.10 226.26 175.09 225.74 174.10 C 225.68 173.25 225.62 172.40 225.56 171.55 C 225.26 163.36 225.33 155.14 225.28 146.92 Z" />
<path fill="#000000" opacity="1.00" d=" M 273.62 155.16 C 275.58 152.00 276.63 148.24 279.48 145.67 C 281.67 145.92 283.89 146.11 286.05 146.60 C 296.22 149.12 306.89 148.28 317.00 151.09 C 323.47 151.55 329.90 152.58 336.38 152.90 C 337.25 153.48 338.12 154.06 339.00 154.64 C 333.25 157.23 328.38 162.17 322.10 163.30 C 312.71 162.07 303.20 161.61 293.92 159.68 C 289.58 159.39 285.34 158.16 280.97 158.35 C 278.14 158.46 275.74 156.83 273.62 155.16 Z" />
<path fill="#000000" opacity="1.00" d=" M 121.85 150.85 C 129.11 149.14 136.61 148.96 143.93 147.63 C 146.52 147.60 149.85 146.84 151.65 149.26 C 152.87 151.58 153.95 153.98 155.42 156.16 C 155.49 156.85 155.57 157.55 155.65 158.25 C 145.65 160.93 135.36 161.85 125.08 162.63 C 124.80 160.66 123.71 161.73 123.29 162.99 C 116.94 164.54 110.36 165.42 103.84 164.64 C 101.90 163.23 99.79 162.07 97.50 161.34 C 95.40 159.01 92.19 158.25 90.08 155.95 C 94.72 154.66 99.68 155.16 104.26 153.63 C 109.97 151.81 116.07 152.28 121.85 150.85 Z" />
<path fill="#000000" opacity="1.00" d=" M 202.13 149.96 C 203.24 149.40 204.31 148.80 205.37 148.16 C 206.21 154.72 205.61 161.38 205.73 167.98 C 205.11 169.02 204.49 170.06 203.91 171.13 C 203.37 172.14 202.83 173.15 202.29 174.16 C 201.01 176.38 199.56 178.60 199.14 181.17 C 197.97 182.86 196.58 184.37 195.03 185.72 C 193.22 183.41 191.68 180.90 190.60 178.17 C 189.42 175.34 187.08 172.68 187.59 169.43 C 189.36 165.74 192.24 162.70 194.73 159.47 C 197.26 156.35 199.77 153.20 202.13 149.96 Z" />
<path fill="#000000" opacity="1.00" d=" M 338.23 179.23 C 341.64 177.34 345.02 175.37 348.68 174.00 C 348.56 175.07 348.43 176.15 348.30 177.23 C 347.18 179.07 346.44 181.10 345.46 183.01 C 344.69 185.07 343.91 187.13 343.25 189.23 C 342.08 191.84 341.19 194.56 340.04 197.18 C 339.27 198.62 338.70 200.16 338.43 201.78 L 337.74 201.33 C 337.48 202.58 337.24 203.84 337.01 205.10 C 336.22 206.37 335.56 207.69 335.05 209.09 C 334.50 210.38 333.99 211.68 333.50 213.00 C 331.00 217.59 329.64 222.69 327.19 227.32 C 326.49 227.92 325.80 228.54 325.12 229.16 C 321.53 229.52 317.94 229.52 314.35 229.16 C 314.16 226.89 314.33 224.61 314.41 222.34 L 315.34 222.55 C 315.87 219.64 316.79 216.82 318.05 214.14 C 319.42 210.01 322.11 206.34 322.79 201.99 C 323.66 200.29 324.42 198.54 325.51 196.97 C 325.61 196.52 325.81 195.62 325.91 195.17 C 326.73 193.69 327.38 192.12 327.61 190.44 C 327.88 190.10 328.41 189.44 328.68 189.11 C 328.49 186.24 330.45 184.34 332.36 182.57 C 334.41 181.63 336.33 180.45 338.23 179.23 Z" />
<path fill="#000000" opacity="1.00" d=" M 82.64 176.86 C 88.25 178.90 93.26 182.22 98.45 185.09 C 100.40 189.03 102.67 192.85 103.98 197.06 C 104.27 197.43 104.85 198.17 105.14 198.54 C 106.61 205.44 110.56 211.47 113.17 217.97 C 113.53 220.04 114.03 222.10 115.01 223.98 C 115.33 225.74 115.54 227.51 115.57 229.31 C 112.17 229.72 108.72 229.95 105.32 229.38 C 103.05 227.64 102.25 224.91 100.61 222.72 C 100.57 222.24 100.48 221.26 100.43 220.77 C 100.05 220.44 99.30 219.78 98.92 219.45 C 98.73 217.92 98.91 216.17 97.74 214.98 C 97.29 213.59 96.74 212.23 95.92 211.02 C 92.61 204.88 91.22 197.99 87.86 191.90 C 86.90 189.48 85.98 187.06 85.05 184.63 L 84.43 184.61 C 84.40 182.68 83.87 180.83 82.65 179.32 C 82.65 178.71 82.64 177.47 82.64 176.86 Z" />
<path fill="#000000" opacity="1.00" d=" M 156.24 178.54 C 160.25 178.29 164.35 177.06 168.30 178.45 C 169.52 180.36 170.84 182.20 172.05 184.12 C 173.47 186.68 175.01 189.19 176.21 191.88 C 176.97 193.02 177.77 194.12 178.58 195.22 L 177.22 196.52 C 176.41 195.81 174.94 194.63 175.13 196.62 C 169.29 196.69 163.40 197.09 157.60 196.28 C 157.40 195.91 156.99 195.16 156.78 194.79 C 154.88 194.18 153.13 193.24 151.65 191.90 C 150.47 191.31 149.28 190.74 148.10 190.16 C 146.31 188.81 144.26 187.88 142.22 186.99 C 140.37 185.10 137.92 184.04 135.69 182.69 C 138.80 180.96 142.47 181.04 145.92 180.63 C 149.48 180.63 152.70 178.82 156.24 178.54 Z" />
<path fill="#000000" opacity="1.00" d=" M 258.95 180.32 C 259.76 179.19 260.21 177.02 262.02 177.33 C 265.45 177.32 268.86 177.80 272.24 178.28 C 272.58 178.20 273.26 178.03 273.60 177.94 C 280.04 178.46 286.31 180.00 292.74 180.57 C 290.65 182.76 288.22 184.49 285.49 185.76 C 279.23 189.05 273.70 193.41 267.78 197.23 C 261.70 197.15 255.52 197.86 249.53 196.56 C 252.72 191.82 255.31 186.70 257.91 181.63 C 258.17 181.30 258.69 180.64 258.95 180.32 Z" />
<path fill="#000000" opacity="1.00" d=" M 210.33 196.34 C 211.22 195.05 212.13 193.77 213.02 192.48 C 215.81 194.39 217.39 197.43 219.07 200.26 C 219.33 200.57 219.87 201.18 220.14 201.48 C 221.82 205.92 224.81 209.61 227.40 213.53 C 231.19 214.36 235.09 214.28 238.93 213.96 C 244.63 213.16 250.48 213.35 256.20 213.94 C 255.63 215.18 254.96 216.38 254.28 217.56 C 252.39 220.31 250.66 223.18 249.28 226.23 C 248.49 227.53 247.58 228.76 246.79 230.06 C 245.99 233.39 242.05 236.21 243.57 239.79 C 246.85 244.28 249.41 249.21 252.35 253.92 C 252.99 254.87 253.63 255.84 254.25 256.81 C 254.49 257.74 254.73 258.68 254.97 259.62 C 247.50 261.47 239.65 261.06 232.00 261.16 C 230.31 261.06 228.79 261.90 227.31 262.57 C 226.68 263.83 226.01 265.06 225.25 266.24 C 223.08 268.89 221.99 272.20 219.93 274.91 C 219.57 276.48 218.13 277.39 217.57 278.85 C 216.81 280.56 215.84 282.17 214.91 283.79 C 213.51 282.59 212.18 281.32 210.92 279.98 C 210.43 279.31 209.93 278.65 209.44 278.00 C 209.00 276.66 208.50 275.35 207.77 274.15 C 206.98 272.76 206.21 271.35 205.42 269.96 C 204.54 268.66 203.69 267.35 202.88 266.02 C 202.46 264.14 201.08 262.79 199.73 261.53 C 199.61 261.08 199.38 260.19 199.27 259.74 L 199.34 261.64 C 190.70 261.22 181.99 262.28 173.40 261.07 C 173.42 260.46 173.45 259.25 173.47 258.65 C 176.34 254.48 178.18 249.70 181.24 245.65 C 181.36 245.26 181.62 244.48 181.75 244.10 C 182.69 242.77 183.30 241.26 183.85 239.74 C 183.00 236.46 181.14 233.60 179.48 230.69 C 178.91 229.83 178.37 228.95 177.88 228.05 C 176.63 226.13 175.11 224.40 173.60 222.68 C 173.52 222.25 173.35 221.39 173.27 220.96 C 172.04 219.32 170.73 217.62 170.31 215.57 C 179.07 213.98 187.99 214.81 196.83 214.56 C 198.11 214.53 199.22 213.79 200.40 213.38 C 203.22 207.44 206.40 201.62 210.33 196.34 M 210.26 214.16 C 209.10 215.69 208.05 217.29 206.99 218.88 C 204.76 221.56 201.63 223.43 198.12 223.73 C 194.81 224.62 190.48 223.41 188.24 226.67 C 189.82 229.09 191.01 231.76 192.72 234.09 C 192.81 237.03 192.92 239.97 192.71 242.90 C 191.77 245.29 190.72 247.64 189.73 250.01 C 193.50 252.11 197.95 250.97 201.95 252.26 C 204.68 252.59 206.56 254.72 208.59 256.34 C 209.77 259.18 211.42 261.87 213.91 263.75 C 215.32 262.74 216.75 261.71 217.62 260.17 C 219.13 257.86 220.81 255.63 222.93 253.85 C 227.02 251.07 232.18 251.58 236.77 250.27 C 236.85 247.09 234.52 244.69 233.47 241.86 C 233.24 239.49 233.38 237.10 233.43 234.73 C 235.34 232.16 236.10 228.92 237.76 226.19 C 237.32 225.37 236.89 224.55 236.45 223.74 C 230.12 223.62 221.18 224.55 218.29 217.32 C 218.10 217.30 217.73 217.26 217.54 217.23 C 217.15 215.75 216.31 214.61 215.14 213.69 C 214.47 212.94 213.80 212.19 213.14 211.45 C 212.08 212.25 211.02 213.05 210.26 214.16 Z" />
<path fill="#000000" opacity="1.00" d=" M 298.74 201.56 C 301.26 200.30 303.81 199.11 306.33 197.87 C 306.31 198.46 306.26 199.63 306.24 200.22 C 304.21 204.29 302.52 208.51 301.04 212.80 C 300.03 213.89 299.78 215.36 299.44 216.75 C 298.53 218.51 297.63 220.28 296.64 222.00 C 296.61 222.60 296.57 223.78 296.54 224.38 C 295.35 226.10 294.20 227.87 292.67 229.34 C 285.20 229.80 277.56 230.24 270.14 229.00 C 270.33 227.64 270.54 226.28 270.77 224.93 C 272.46 222.34 273.44 219.32 275.40 216.90 C 275.44 216.43 275.50 215.47 275.54 215.00 C 276.29 214.36 277.04 213.72 277.80 213.09 C 282.28 210.94 286.73 208.70 290.94 206.04 C 293.43 204.34 296.52 203.68 298.74 201.56 Z" />
<path fill="#000000" opacity="1.00" d=" M 128.39 203.33 C 132.46 204.98 136.31 207.13 140.10 209.33 C 144.55 211.47 149.56 213.59 152.08 218.11 C 153.46 221.27 154.96 224.39 157.12 227.11 C 157.18 227.97 157.25 228.83 157.31 229.69 C 151.51 229.64 145.71 229.92 139.92 229.50 C 137.61 226.69 136.64 223.16 134.85 220.06 C 133.33 216.59 131.67 213.10 131.01 209.37 C 130.70 209.39 130.09 209.44 129.79 209.47 C 129.64 207.36 129.05 205.33 128.39 203.33 Z" />
<path fill="#000000" opacity="1.00" d=" M 315.63 248.61 C 320.22 246.65 326.69 245.28 330.28 249.77 C 330.75 250.97 331.29 252.14 331.86 253.31 C 332.62 255.76 333.48 258.25 335.10 260.29 C 335.97 263.16 336.84 266.11 338.52 268.62 C 338.60 269.20 338.76 270.36 338.84 270.93 C 339.18 271.29 339.86 272.00 340.20 272.35 C 340.34 273.70 340.53 275.09 341.53 276.12 C 342.34 277.98 343.20 279.83 343.81 281.78 C 344.11 282.05 344.71 282.61 345.01 282.89 C 345.32 286.10 346.84 289.00 348.05 291.94 C 348.65 293.27 349.24 294.60 349.84 295.94 C 351.01 298.67 351.87 301.50 352.43 304.42 C 352.89 304.64 353.80 305.09 354.25 305.31 C 352.34 305.24 350.38 304.99 348.76 303.91 C 344.34 301.07 339.28 299.18 335.52 295.41 C 333.90 291.93 332.51 288.35 330.99 284.83 C 328.41 280.37 327.41 275.07 324.24 270.97 C 324.22 270.18 324.19 268.61 324.18 267.82 C 323.80 267.55 323.04 267.02 322.66 266.75 C 322.05 262.51 320.02 258.69 317.86 255.06 C 317.62 252.75 316.79 250.60 315.63 248.61 Z" />
<path fill="#000000" opacity="1.00" d=" M 268.46 247.74 C 276.28 247.06 284.14 247.06 291.97 247.36 C 295.85 248.29 296.73 252.71 297.84 255.95 C 298.62 258.48 299.76 260.90 301.24 263.11 C 301.34 263.58 301.54 264.52 301.65 264.98 C 302.44 266.23 302.97 267.61 303.51 269.00 C 305.45 272.09 305.89 275.90 306.72 279.40 C 305.19 278.75 303.71 278.04 302.24 277.30 C 298.22 275.60 294.85 272.70 290.77 271.16 C 286.17 267.28 280.06 265.85 275.62 261.76 C 274.87 260.13 274.06 258.52 273.32 256.89 C 271.49 253.96 268.93 251.31 268.46 247.74 Z" />
<path fill="#000000" opacity="1.00" d=" M 100.64 252.38 C 102.01 250.58 103.46 248.35 105.99 248.27 C 109.65 248.02 113.36 248.03 116.98 248.71 C 116.23 250.84 115.43 252.95 114.72 255.10 C 113.92 256.42 113.36 257.85 113.20 259.41 L 112.56 259.26 C 111.58 263.44 109.34 267.19 108.27 271.35 C 106.88 273.50 105.98 275.92 105.06 278.30 C 103.49 282.53 101.16 286.53 100.24 290.98 C 96.91 295.03 91.82 296.74 87.56 299.56 C 85.60 300.95 83.34 301.79 81.12 302.68 C 81.82 300.44 82.60 298.21 82.85 295.87 C 84.16 294.89 84.25 293.19 84.63 291.73 C 85.90 289.64 85.99 287.08 87.33 285.02 C 87.42 284.56 87.60 283.65 87.69 283.19 C 89.52 281.08 90.25 278.23 90.92 275.56 C 91.29 275.27 92.03 274.68 92.40 274.38 C 92.39 273.55 92.38 271.88 92.37 271.05 C 92.67 270.84 93.28 270.43 93.58 270.22 C 94.07 267.75 95.07 265.45 95.95 263.11 C 96.46 262.07 96.98 261.05 97.53 260.04 C 98.87 257.62 99.94 255.05 100.64 252.38 Z" />
<path fill="#000000" opacity="1.00" d=" M 136.44 250.38 C 138.02 249.10 139.80 247.62 141.95 247.73 C 147.72 248.04 153.81 246.41 159.26 248.99 C 157.94 249.52 157.15 250.47 156.88 251.85 C 156.34 253.10 155.71 254.31 155.15 255.56 C 154.90 255.54 154.40 255.51 154.15 255.49 C 154.05 257.55 153.16 259.35 152.03 261.01 C 151.43 262.07 150.85 263.16 150.30 264.25 C 148.43 265.09 146.60 266.05 144.65 266.71 C 142.57 268.48 139.91 269.31 137.71 270.90 C 135.76 271.85 133.65 272.71 132.32 274.52 C 130.66 275.07 129.00 275.58 127.33 276.09 C 127.56 274.90 128.03 272.53 128.26 271.34 C 128.47 271.35 128.89 271.37 129.09 271.38 C 129.32 269.97 129.57 268.57 129.83 267.17 C 130.68 265.84 131.31 264.40 131.51 262.83 C 131.76 262.56 132.27 262.03 132.52 261.76 C 133.40 259.54 134.19 257.29 134.86 255.00 C 135.53 253.51 136.07 251.97 136.44 250.38 Z" />
<path fill="#000000" opacity="1.00" d=" M 249.12 278.47 C 254.28 278.84 260.33 276.80 264.61 280.58 C 267.53 282.34 270.37 284.23 273.42 285.76 C 276.74 288.29 280.82 289.54 284.20 291.99 C 287.62 294.55 291.70 296.04 294.95 298.85 C 289.17 300.84 283.01 301.14 276.96 301.61 C 272.55 301.46 268.28 302.95 263.87 302.75 C 262.44 301.64 260.94 300.59 260.03 298.99 C 258.99 297.35 258.20 295.55 257.03 294.00 C 256.28 292.73 255.62 291.41 254.78 290.21 C 254.15 289.29 253.59 288.32 253.10 287.33 C 252.65 286.23 252.14 285.15 251.58 284.11 C 251.04 283.02 250.44 281.98 249.68 281.04 C 249.48 280.18 249.30 279.32 249.12 278.47 Z" />
<path fill="#000000" opacity="1.00" d=" M 133.62 298.07 C 143.39 290.79 154.43 285.47 164.85 279.23 C 169.49 278.44 174.36 278.69 179.02 279.46 C 178.78 280.25 178.31 281.83 178.07 282.62 C 177.04 284.38 175.97 286.12 174.94 287.89 C 172.72 291.23 171.24 295.02 168.73 298.19 C 168.64 298.61 168.46 299.44 168.37 299.85 C 167.58 300.63 166.85 301.45 166.17 302.33 C 162.12 302.47 158.04 302.38 154.03 301.75 C 147.20 300.80 139.95 301.21 133.62 298.07 Z" />
<path fill="#000000" opacity="1.00" d=" M 193.73 292.46 C 194.39 292.40 195.05 292.36 195.72 292.35 C 196.29 293.23 196.82 294.14 197.31 295.09 C 199.09 298.46 201.29 301.60 202.96 305.05 C 203.51 305.95 204.08 306.84 204.66 307.73 C 206.43 309.09 205.85 311.44 204.84 313.07 C 204.59 317.08 204.48 321.12 205.56 325.03 C 204.44 328.93 204.54 333.02 204.16 337.02 C 202.25 335.12 200.70 332.92 199.05 330.82 C 197.64 329.16 195.97 327.73 194.85 325.86 C 193.40 324.26 192.59 322.17 190.94 320.74 C 190.43 319.85 189.92 318.92 189.01 318.38 C 188.35 316.93 187.43 315.64 186.67 314.25 C 185.96 312.83 184.76 311.62 184.56 309.99 C 184.94 308.15 185.89 306.52 186.68 304.84 C 187.35 303.61 187.92 302.32 188.44 301.02 C 188.66 300.73 189.10 300.14 189.32 299.85 C 190.80 297.39 191.97 294.74 193.73 292.46 Z" />
<path fill="#000000" opacity="1.00" d=" M 233.90 292.77 C 238.34 297.70 240.93 303.89 244.37 309.49 C 245.05 311.47 245.24 313.77 247.03 315.16 L 245.34 314.19 C 245.30 314.85 245.22 316.17 245.18 316.83 C 243.05 319.66 240.88 322.46 238.74 325.28 C 237.33 327.57 235.53 329.57 233.69 331.51 C 231.31 334.65 229.47 338.53 225.66 340.21 C 224.88 329.46 225.40 318.63 225.31 307.85 C 226.81 305.73 227.81 303.31 228.79 300.93 C 229.64 299.56 230.49 298.20 231.39 296.87 C 232.24 295.51 233.09 294.15 233.90 292.77 Z" />
<path fill="#000000" opacity="1.00" d=" M 97.88 318.08 C 101.18 316.49 104.27 313.31 108.25 314.41 C 113.71 314.49 119.03 315.82 124.41 316.61 C 130.45 317.89 136.72 317.26 142.74 318.63 C 146.36 319.59 150.13 319.74 153.79 320.53 C 154.70 322.95 153.81 325.29 152.21 327.17 C 151.42 328.27 150.75 329.45 150.40 330.78 C 142.26 332.31 133.96 330.06 125.84 329.15 C 116.57 327.22 106.99 327.51 97.87 324.79 C 95.11 324.97 92.38 324.37 89.98 323.03 C 92.64 321.41 95.48 320.10 97.88 318.08 Z" />
<path fill="#000000" opacity="1.00" d=" M 295.95 317.86 C 305.10 317.62 313.98 315.14 323.09 314.58 C 325.96 315.44 328.39 317.47 331.02 318.91 C 333.24 320.71 336.55 321.30 337.80 324.12 C 334.13 324.47 330.41 324.68 326.86 325.79 C 317.95 327.54 308.69 326.95 299.86 329.22 C 294.59 330.13 289.29 330.86 283.97 331.36 C 281.88 331.64 279.88 330.99 277.98 330.22 C 276.86 327.29 274.66 324.62 275.11 321.33 C 282.21 320.84 288.82 318.02 295.95 317.86 Z" />
<path fill="#000000" opacity="1.00" d=" M 166.94 340.80 C 168.22 337.11 169.46 333.36 171.80 330.18 C 172.47 330.24 173.82 330.37 174.49 330.43 C 176.01 332.21 177.70 333.98 178.53 336.22 C 180.32 338.14 182.13 340.07 183.68 342.20 C 187.18 346.45 190.57 350.79 193.64 355.36 C 198.21 361.06 204.13 366.35 205.67 373.80 C 205.42 374.08 204.93 374.62 204.68 374.89 C 206.40 376.41 205.84 378.63 204.56 380.21 C 204.38 383.09 204.99 386.02 204.09 388.87 C 200.42 385.92 198.18 381.74 194.83 378.53 C 194.14 377.52 193.49 376.51 192.83 375.50 C 191.85 374.34 190.91 373.16 190.06 371.92 C 188.94 370.06 187.34 368.57 185.97 366.91 C 184.92 364.89 183.55 363.08 181.94 361.48 C 180.52 359.16 178.89 356.99 176.90 355.13 C 173.22 350.59 169.96 345.80 166.94 340.80 Z" />
<path fill="#000000" opacity="1.00" d=" M 254.85 334.87 C 255.63 334.22 256.41 333.57 257.19 332.92 C 259.81 334.84 260.70 338.13 262.50 340.70 C 262.51 341.76 262.51 342.82 262.50 343.89 C 261.21 345.58 260.10 347.40 258.88 349.14 C 257.62 350.89 255.95 352.31 254.89 354.21 C 253.81 355.65 252.67 357.05 251.63 358.52 C 250.82 359.58 250.02 360.64 249.29 361.75 C 248.41 362.80 247.56 363.88 246.72 364.96 C 243.53 369.69 239.29 373.62 236.25 378.47 C 234.27 380.77 232.64 383.34 230.68 385.67 C 229.17 387.28 227.73 389.08 225.47 389.66 C 225.22 384.37 225.18 379.07 225.37 373.78 C 227.75 369.34 230.98 365.43 234.41 361.78 C 235.10 360.39 235.95 359.09 236.84 357.82 C 238.83 356.06 240.38 353.92 241.61 351.58 C 242.68 350.82 243.72 350.03 244.75 349.23 C 244.74 348.86 244.71 348.13 244.70 347.76 C 246.51 345.56 248.43 343.46 249.96 341.04 C 251.61 338.99 253.32 337.01 254.85 334.87 Z" />
</g>
</svg>
