<?xml version="1.0" encoding="UTF-8" ?>
<!DOCTYPE svg PUBLIC "-//W3C//DTD SVG 1.1//EN" "http://www.w3.org/Graphics/SVG/1.1/DTD/svg11.dtd">
<svg width="512pt" height="512pt" viewBox="0 0 512 512" version="1.1" xmlns="http://www.w3.org/2000/svg">
<g id="#000000ff">
<path fill="#000000" opacity="1.00" d=" M 236.48 86.47 C 243.23 77.91 255.79 74.77 265.77 79.15 C 275.76 83.23 282.36 94.18 281.10 104.94 C 280.21 115.74 271.59 124.90 261.12 127.23 C 261.13 134.02 261.12 140.80 261.13 147.58 C 266.61 142.20 271.90 136.62 277.46 131.31 C 279.67 128.87 284.03 129.41 285.54 132.35 C 286.90 134.62 285.90 137.40 284.08 139.06 C 276.46 146.77 268.75 154.40 261.12 162.12 C 261.13 169.82 261.12 177.52 261.13 185.22 C 270.69 186.34 280.26 188.56 288.75 193.27 C 293.74 195.59 297.99 199.13 302.42 202.34 C 309.58 195.15 316.78 187.99 323.94 180.80 C 323.93 170.54 323.95 160.29 323.92 150.03 C 323.93 147.62 323.87 144.61 326.26 143.21 C 329.23 140.98 334.06 143.27 334.07 147.03 C 334.39 154.86 334.08 162.70 334.19 170.54 C 342.60 162.16 351.01 153.79 359.37 145.37 C 360.71 144.14 362.05 142.61 363.96 142.38 C 366.73 141.92 369.52 144.25 369.66 147.04 C 369.91 149.38 368.07 151.11 366.61 152.65 C 358.19 161.01 349.83 169.42 341.44 177.81 C 349.29 177.92 357.14 177.61 364.98 177.93 C 368.78 177.94 371.06 182.81 368.80 185.80 C 367.39 188.12 364.42 188.06 362.05 188.08 C 351.75 188.05 341.46 188.07 331.17 188.06 C 323.99 195.24 316.81 202.41 309.66 209.62 C 319.46 221.21 325.42 235.76 326.78 250.87 C 334.49 250.88 342.20 250.86 349.91 250.88 C 357.81 243.10 365.54 235.15 373.49 227.43 C 375.69 225.01 380.03 225.44 381.57 228.36 C 383.00 230.60 382.04 233.42 380.21 235.08 C 375.00 240.39 369.65 245.57 364.43 250.87 C 371.21 250.88 377.99 250.87 384.77 250.88 C 386.34 244.67 389.87 238.90 395.22 235.28 C 402.73 229.92 413.24 229.34 421.34 233.72 C 427.66 237.05 432.48 243.15 434.11 250.13 C 436.24 258.62 433.47 268.10 427.13 274.13 C 421.01 280.16 411.71 282.65 403.39 280.48 C 394.09 278.27 386.87 270.34 384.75 261.13 C 377.97 261.12 371.19 261.12 364.41 261.13 C 369.80 266.58 375.36 271.85 380.67 277.37 C 383.48 279.80 382.47 284.88 378.88 285.92 C 376.43 286.91 374.07 285.32 372.46 283.61 C 364.97 276.10 357.47 268.60 349.95 261.12 C 342.24 261.13 334.54 261.12 326.84 261.13 C 325.53 276.27 319.46 290.76 309.72 302.41 C 319.20 311.85 328.59 321.35 338.11 330.74 C 348.76 330.59 359.42 330.40 370.08 330.35 C 373.22 330.00 376.35 332.79 375.81 336.04 C 375.62 338.64 373.17 340.53 370.64 340.51 C 363.16 340.78 355.67 340.67 348.19 340.85 C 354.78 347.57 361.57 354.10 368.10 360.87 C 370.40 362.94 370.21 366.95 367.61 368.68 C 365.39 370.43 362.22 369.58 360.47 367.61 C 353.79 361.04 347.23 354.33 340.55 347.76 C 340.50 355.80 340.98 363.86 340.71 371.89 C 340.59 375.42 336.20 377.72 333.23 375.81 C 331.05 374.74 330.53 372.18 330.57 369.98 C 330.42 359.10 330.31 348.22 330.15 337.34 C 320.91 328.10 311.70 318.85 302.45 309.63 C 290.85 319.44 276.30 325.45 261.16 326.78 C 261.15 334.49 261.16 342.21 261.15 349.92 C 268.30 357.07 275.42 364.25 282.61 371.35 C 283.93 372.77 285.59 374.12 286.10 376.07 C 286.93 379.19 284.15 382.51 280.94 382.26 C 278.79 382.21 277.29 380.50 275.84 379.16 C 270.97 374.23 266.07 369.34 261.16 364.45 C 261.15 371.22 261.16 378.00 261.16 384.77 C 267.35 386.38 273.16 389.85 276.75 395.24 C 281.76 402.29 282.64 411.99 279.06 419.85 C 275.96 426.93 269.41 432.37 261.89 434.12 C 253.86 436.11 244.94 433.78 238.91 428.11 C 232.41 422.18 229.43 412.75 231.37 404.16 C 233.36 394.55 241.43 386.88 250.93 384.77 C 250.94 377.99 250.94 371.20 250.93 364.42 C 246.01 369.32 241.10 374.23 236.22 379.17 C 234.73 380.55 233.17 382.28 230.97 382.27 C 228.19 382.33 225.64 379.85 225.86 377.03 C 225.82 374.86 227.57 373.34 228.92 371.89 C 236.29 364.59 243.61 357.23 250.94 349.89 C 250.93 342.19 250.94 334.48 250.94 326.78 C 241.39 325.61 231.81 323.44 223.33 318.76 C 218.32 316.42 214.05 312.88 209.64 309.63 C 200.92 318.32 192.22 327.04 183.53 335.76 C 183.50 346.52 183.59 357.28 183.51 368.04 C 183.65 370.57 182.06 373.25 179.43 373.68 C 176.42 374.41 173.28 371.84 173.36 368.76 C 173.13 361.18 173.36 353.59 173.28 346.01 C 166.39 352.89 159.49 359.76 152.64 366.68 C 151.09 368.16 149.30 369.95 146.96 369.64 C 144.22 369.45 141.99 366.71 142.40 364.00 C 142.60 362.06 144.14 360.72 145.37 359.37 C 152.44 352.37 159.46 345.32 166.49 338.28 C 158.32 338.14 150.14 338.59 141.99 338.12 C 138.25 337.79 136.45 332.71 138.92 329.98 C 140.30 328.07 142.86 328.07 144.97 328.04 C 155.57 328.05 166.17 328.05 176.76 328.02 C 185.31 319.48 193.85 310.94 202.40 302.41 C 196.51 294.94 191.32 286.73 188.60 277.53 C 186.66 272.26 186.13 266.64 185.26 261.13 C 177.54 261.12 169.83 261.13 162.11 261.12 C 154.77 268.44 147.42 275.75 140.11 283.12 C 138.65 284.46 137.13 286.19 134.98 286.20 C 132.15 286.35 129.59 283.82 129.74 280.99 C 129.74 278.82 131.46 277.29 132.81 275.84 C 137.75 270.96 142.67 266.05 147.57 261.13 C 140.79 261.12 134.01 261.13 127.23 261.12 C 125.62 267.59 121.80 273.55 116.13 277.16 C 107.26 283.12 94.63 282.37 86.46 275.50 C 77.65 268.59 74.67 255.51 79.51 245.44 C 83.92 235.45 95.35 229.25 106.13 231.04 C 116.47 232.37 125.00 240.81 127.25 250.87 C 134.03 250.87 140.80 250.88 147.57 250.87 C 142.20 245.38 136.61 240.10 131.32 234.54 C 128.66 232.15 129.58 227.29 132.99 226.14 C 135.48 225.03 137.96 226.63 139.62 228.41 C 147.11 235.91 154.60 243.40 162.11 250.88 C 169.82 250.87 177.54 250.88 185.26 250.87 C 186.58 235.73 192.60 221.21 202.37 209.57 C 195.21 202.39 188.04 195.22 180.86 188.06 C 169.58 188.10 158.30 188.52 147.03 188.35 C 143.19 188.36 140.89 183.30 143.32 180.37 C 144.54 178.50 146.88 178.23 148.91 178.22 C 156.17 178.11 163.44 178.08 170.70 177.96 C 163.09 170.34 155.50 162.70 147.86 155.11 C 146.17 153.39 144.31 151.79 142.97 149.76 C 141.06 146.75 143.55 142.42 147.05 142.32 C 149.38 142.05 151.09 143.89 152.63 145.34 C 160.94 153.72 169.30 162.05 177.65 170.38 C 177.66 162.62 177.24 154.84 177.46 147.08 C 177.48 143.17 182.57 140.91 185.56 143.36 C 187.73 144.80 187.57 147.64 187.65 149.93 C 187.74 160.21 187.91 170.49 188.03 180.77 C 195.21 187.97 202.41 195.16 209.61 202.34 C 221.21 192.54 235.75 186.57 250.87 185.22 C 250.88 177.51 250.87 169.79 250.88 162.08 C 243.56 154.75 236.24 147.40 228.88 140.11 C 227.53 138.66 225.85 137.15 225.80 135.01 C 225.61 132.18 228.14 129.63 230.96 129.73 C 233.13 129.74 234.69 131.43 236.16 132.81 C 241.04 137.75 245.94 142.67 250.87 147.57 C 250.88 140.79 250.87 134.01 250.88 127.23 C 244.68 125.61 238.84 122.14 235.25 116.73 C 228.87 107.86 229.41 94.81 236.48 86.47 M 250.33 88.49 C 243.97 91.03 239.79 98.28 241.31 105.06 C 242.55 113.06 251.21 118.89 259.10 116.93 C 267.78 115.40 273.40 105.21 270.02 97.05 C 267.29 89.39 257.81 85.21 250.33 88.49 M 251.36 195.48 C 231.50 196.98 212.87 208.84 203.17 226.23 C 194.99 240.61 193.02 258.38 198.16 274.14 C 203.46 291.57 217.19 306.09 234.17 312.61 C 244.32 316.37 255.49 317.92 266.17 315.77 C 283.74 312.97 299.61 301.75 308.49 286.38 C 315.65 274.01 318.47 258.97 315.58 244.91 C 312.98 230.12 304.44 216.61 292.47 207.60 C 280.86 198.75 265.90 194.37 251.36 195.48 M 98.37 241.52 C 91.69 243.29 86.79 250.09 87.40 257.00 C 87.71 265.23 95.92 272.20 104.12 270.83 C 113.39 270.05 120.16 259.23 116.33 250.62 C 113.69 243.66 105.57 239.46 98.37 241.52 M 405.43 241.68 C 398.27 243.70 393.19 251.64 394.90 258.98 C 396.30 265.49 402.23 270.79 408.97 270.97 C 417.92 271.75 425.95 262.91 424.48 254.07 C 423.61 245.26 413.87 238.83 405.43 241.68 M 251.28 395.48 C 243.41 397.86 238.86 407.36 241.96 414.98 C 244.39 421.68 252.01 425.88 258.97 424.30 C 266.74 422.95 272.45 414.65 270.65 406.91 C 269.27 398.37 259.48 392.30 251.28 395.48 Z" />
<path fill="#000000" opacity="1.00" d=" M 249.53 208.66 C 262.87 206.55 276.92 211.09 287.17 219.76 C 297.96 228.87 303.94 242.99 303.95 257.01 C 303.39 268.20 299.32 279.30 291.81 287.69 C 282.90 297.90 269.50 303.65 256.04 304.00 C 242.56 303.68 229.13 297.92 220.20 287.70 C 212.70 279.32 208.62 268.25 208.06 257.08 C 208.01 243.29 213.78 229.40 224.24 220.27 C 231.31 214.05 240.19 209.94 249.53 208.66 M 253.29 218.40 C 238.63 219.40 225.13 229.64 220.44 243.60 C 216.30 254.88 218.30 268.02 225.24 277.77 C 234.42 291.04 252.63 297.20 267.91 291.73 C 285.69 286.19 297.30 266.05 292.75 247.91 C 289.22 230.09 271.35 216.82 253.29 218.40 Z" />
</g>
</svg>
