<?xml version="1.0" encoding="UTF-8" ?>
<!DOCTYPE svg PUBLIC "-//W3C//DTD SVG 1.1//EN" "http://www.w3.org/Graphics/SVG/1.1/DTD/svg11.dtd">
<svg width="512pt" height="512pt" viewBox="0 0 512 512" version="1.1" xmlns="http://www.w3.org/2000/svg">
<g id="#000000ff">
<path fill="#000000" opacity="1.00" d=" M 251.02 77.95 C 251.27 74.44 255.76 72.37 258.65 74.34 C 260.28 75.25 261.09 77.12 261.08 78.93 C 261.29 87.12 260.91 95.32 261.26 103.51 C 267.57 106.92 273.73 110.62 279.95 114.19 C 282.16 115.29 283.64 117.50 283.48 120.02 C 283.48 128.35 283.61 136.68 283.41 145.00 C 283.46 147.24 281.86 148.92 280.03 149.95 C 273.74 153.68 267.32 157.17 261.08 160.98 C 261.19 170.35 261.09 179.71 261.13 189.08 C 271.12 179.15 280.99 169.09 291.04 159.22 C 293.49 156.40 298.58 157.56 299.58 161.14 C 300.47 163.50 299.03 165.82 297.33 167.37 C 285.26 179.39 273.25 191.49 261.15 203.50 C 261.09 218.05 261.14 232.59 261.13 247.14 C 273.70 239.95 286.20 232.62 298.79 225.47 C 303.44 208.71 307.80 191.87 312.39 175.10 C 312.88 172.90 314.63 170.86 317.01 170.78 C 320.32 170.34 323.33 173.77 322.36 176.99 C 318.88 190.73 315.02 204.38 311.42 218.10 C 319.57 213.43 327.71 208.73 335.84 204.02 C 335.88 196.67 335.78 189.31 335.87 181.95 C 335.81 179.86 336.68 177.75 338.57 176.71 C 345.04 172.74 351.74 169.13 358.27 165.24 C 360.50 163.90 363.32 162.33 365.87 163.90 C 372.58 167.50 379.05 171.52 385.70 175.24 C 392.82 171.19 399.86 166.96 407.03 162.99 C 409.36 161.53 412.76 162.42 414.03 164.88 C 415.47 167.28 414.39 170.59 411.94 171.86 C 404.95 176.03 397.83 179.98 390.82 184.10 C 390.75 191.70 390.97 199.31 390.76 206.91 C 390.79 209.29 389.01 211.06 387.05 212.12 C 380.94 215.66 374.78 219.14 368.69 222.72 C 366.97 223.67 365.22 224.81 363.20 224.94 C 361.37 224.71 359.76 223.75 358.18 222.87 C 352.46 219.51 346.69 216.22 340.94 212.92 C 332.81 217.59 324.70 222.29 316.59 227.00 C 329.54 230.47 342.49 233.93 355.45 237.36 C 357.13 237.89 359.10 238.26 360.21 239.79 C 362.19 242.17 361.28 246.18 358.46 247.46 C 356.86 248.35 355.01 247.85 353.36 247.45 C 336.91 243.02 320.45 238.63 303.99 234.22 C 291.42 241.50 278.83 248.74 266.27 256.03 C 278.83 263.32 291.40 270.58 303.98 277.84 C 321.00 273.33 337.97 268.60 355.03 264.23 C 358.75 263.12 362.51 267.33 360.96 270.90 C 360.25 273.10 357.97 274.03 355.93 274.54 C 342.79 278.03 329.66 281.53 316.53 285.07 C 324.66 289.79 332.79 294.49 340.94 299.18 C 347.12 295.65 353.28 292.06 359.45 288.51 C 361.37 287.36 363.82 286.56 365.89 287.84 C 372.62 291.46 379.13 295.50 385.81 299.22 C 388.08 300.47 390.76 302.14 390.73 305.08 C 390.95 312.70 390.74 320.33 390.81 327.96 C 398.01 332.23 405.40 336.20 412.52 340.61 C 415.60 342.54 415.25 347.59 411.99 349.16 C 409.38 350.69 406.59 348.97 404.33 347.66 C 398.15 344.02 391.92 340.46 385.71 336.86 C 379.80 340.22 373.91 343.64 368.04 347.08 C 366.53 347.91 364.96 348.82 363.20 348.90 C 360.87 348.57 358.91 347.19 356.92 346.07 C 350.83 342.43 344.58 339.07 338.56 335.34 C 336.68 334.29 335.80 332.18 335.87 330.10 C 335.78 322.76 335.87 315.42 335.85 308.08 C 327.72 303.36 319.57 298.67 311.42 293.99 C 314.89 306.98 318.38 319.98 321.89 332.96 C 322.49 335.06 323.02 337.61 321.39 339.42 C 319.40 342.13 314.79 341.89 313.16 338.93 C 311.89 336.30 311.45 333.37 310.63 330.59 C 306.64 315.93 302.87 301.20 298.75 286.58 C 286.15 279.46 273.69 272.10 261.13 264.92 C 261.14 279.46 261.10 294.00 261.14 308.54 C 273.39 320.75 285.63 332.98 297.84 345.23 C 300.17 347.14 300.58 351.05 298.19 353.08 C 296.02 355.28 292.38 354.59 290.50 352.36 C 280.69 342.59 270.93 332.76 261.13 322.98 C 261.12 332.38 261.13 341.78 261.12 351.18 C 267.40 354.83 273.73 358.38 280.00 362.03 C 281.84 363.05 283.44 364.75 283.41 367.00 C 283.64 374.99 283.43 383.01 283.51 391.01 C 283.63 393.48 282.95 396.23 280.57 397.44 C 274.17 401.25 267.69 404.95 261.20 408.61 C 260.98 416.77 261.26 424.94 261.08 433.11 C 261.23 435.92 258.82 438.55 255.96 438.44 C 253.14 438.48 250.77 435.91 250.92 433.12 C 250.74 424.95 251.01 416.78 250.80 408.62 C 244.32 404.95 237.85 401.25 231.46 397.44 C 229.09 396.22 228.39 393.50 228.52 391.03 C 228.61 383.01 228.38 374.98 228.63 366.97 C 228.60 364.76 230.18 363.11 231.99 362.09 C 238.26 358.40 244.61 354.85 250.88 351.16 C 250.86 341.77 250.89 332.37 250.87 322.98 C 241.25 332.59 231.63 342.20 222.03 351.83 C 220.65 353.15 218.99 354.68 216.92 354.40 C 214.18 354.28 211.88 351.59 212.24 348.87 C 212.36 346.90 213.91 345.51 215.17 344.17 C 227.10 332.33 238.92 320.38 250.85 308.53 C 250.91 293.98 250.86 279.44 250.87 264.89 C 238.30 272.09 225.81 279.43 213.21 286.59 C 208.49 303.53 204.16 320.58 199.45 337.51 C 198.68 341.12 193.71 342.58 191.13 339.94 C 188.32 337.53 189.93 333.71 190.69 330.75 C 194.03 318.49 197.29 306.22 200.58 293.96 C 192.43 298.64 184.29 303.33 176.16 308.04 C 176.12 315.39 176.22 322.75 176.13 330.10 C 176.28 332.50 174.93 334.65 172.83 335.73 C 166.08 339.71 159.26 343.59 152.49 347.53 C 150.52 348.76 148.01 349.37 145.92 348.06 C 139.32 344.44 132.89 340.51 126.32 336.82 C 119.89 340.54 113.43 344.23 107.01 347.97 C 105.07 349.06 102.74 350.37 100.50 349.33 C 96.90 348.05 96.20 342.61 99.49 340.57 C 106.59 336.17 113.96 332.19 121.15 327.93 C 121.20 320.61 121.12 313.29 121.20 305.97 C 121.09 303.64 122.25 301.41 124.34 300.32 C 131.07 296.33 137.90 292.49 144.66 288.54 C 146.63 287.33 149.13 286.51 151.28 287.84 C 157.95 291.45 164.42 295.43 171.03 299.14 C 179.17 294.46 187.31 289.76 195.44 285.04 C 181.97 281.37 168.45 277.87 155.00 274.17 C 152.60 273.67 150.53 271.48 150.74 268.95 C 150.71 265.53 154.54 263.12 157.67 264.33 C 174.46 268.77 191.22 273.33 207.99 277.81 C 220.58 270.55 233.16 263.29 245.73 256.00 C 233.14 248.72 220.55 241.44 207.95 234.19 C 190.94 238.71 173.97 243.37 156.94 247.79 C 153.58 248.79 150.10 245.46 150.77 242.06 C 151.07 239.51 153.48 238.06 155.78 237.59 C 168.99 234.04 182.21 230.53 195.41 226.96 C 187.29 222.26 179.16 217.56 171.03 212.89 C 164.42 216.60 157.96 220.57 151.30 224.18 C 149.14 225.48 146.61 224.69 144.63 223.48 C 138.08 219.67 131.52 215.89 124.97 212.10 C 123.01 211.04 121.20 209.28 121.24 206.89 C 121.03 199.30 121.25 191.70 121.18 184.10 C 113.97 179.81 106.56 175.83 99.44 171.39 C 96.17 169.35 96.92 163.85 100.51 162.62 C 102.49 161.68 104.61 162.64 106.34 163.67 C 112.98 167.53 119.64 171.36 126.29 175.21 C 132.86 171.52 139.30 167.60 145.91 163.97 C 147.74 162.88 149.96 163.04 151.77 164.12 C 158.42 167.84 164.96 171.77 171.60 175.51 C 173.67 176.67 176.06 178.25 176.02 180.95 C 176.29 188.62 176.04 196.31 176.13 203.99 C 184.26 208.70 192.40 213.39 200.55 218.07 C 197.01 204.72 193.38 191.38 189.86 178.02 C 188.93 175.54 189.74 172.38 192.28 171.25 C 194.99 169.80 198.68 171.42 199.39 174.42 C 204.15 191.39 208.46 208.49 213.22 225.45 C 225.82 232.60 238.30 239.95 250.87 247.14 C 250.85 232.58 250.92 218.03 250.84 203.48 C 238.57 191.29 226.36 179.04 214.16 166.79 C 211.83 164.89 211.41 160.99 213.80 158.97 C 215.96 156.78 219.64 157.42 221.50 159.67 C 231.31 169.45 241.07 179.27 250.87 189.05 C 250.88 179.65 250.87 170.25 250.88 160.85 C 244.59 157.18 238.24 153.62 231.96 149.94 C 230.13 148.92 228.59 147.20 228.62 144.98 C 228.39 136.98 228.60 128.96 228.52 120.96 C 228.39 118.48 229.08 115.76 231.47 114.57 C 237.86 110.77 244.31 107.07 250.79 103.43 C 251.09 94.94 250.61 86.43 251.02 77.95 M 238.75 122.14 C 238.75 128.77 238.75 135.41 238.75 142.05 C 244.49 145.38 250.26 148.67 256.00 151.99 C 261.74 148.66 267.51 145.38 273.25 142.05 C 273.25 135.41 273.25 128.77 273.25 122.13 C 267.50 118.80 261.75 115.49 256.00 112.16 C 250.25 115.49 244.49 118.80 238.75 122.14 M 148.63 174.16 C 142.92 177.54 137.13 180.77 131.43 184.16 C 131.45 190.77 131.42 197.39 131.40 204.00 C 137.13 207.36 142.90 210.65 148.66 213.96 C 154.41 210.64 160.17 207.34 165.91 203.99 C 165.91 197.36 165.90 190.74 165.91 184.11 C 160.16 180.78 154.42 177.42 148.63 174.16 M 346.09 184.11 C 346.11 190.75 346.08 197.38 346.06 204.02 C 351.81 207.33 357.56 210.65 363.31 213.96 C 369.08 210.65 374.85 207.36 380.59 204.01 C 380.59 197.40 380.54 190.78 380.57 184.16 C 374.88 180.78 369.10 177.54 363.40 174.16 C 357.60 177.42 351.85 180.78 346.09 184.11 M 131.40 308.06 C 131.41 314.68 131.41 321.29 131.40 327.91 C 137.12 331.27 142.91 334.53 148.63 337.90 C 154.42 334.63 160.16 331.26 165.91 327.92 C 165.90 321.30 165.91 314.67 165.91 308.04 C 160.15 304.73 154.41 301.39 148.66 298.07 C 142.90 301.39 137.13 304.69 131.40 308.06 M 363.34 298.07 C 357.59 301.40 351.83 304.71 346.09 308.05 C 346.09 314.67 346.10 321.29 346.09 327.92 C 351.83 331.27 357.59 334.58 363.34 337.90 C 369.10 334.57 374.86 331.26 380.60 327.91 C 380.59 321.29 380.59 314.68 380.60 308.06 C 374.87 304.69 369.10 301.39 363.34 298.07 M 238.75 370.01 C 238.75 376.64 238.75 383.27 238.75 389.90 C 244.49 393.24 250.23 396.58 256.00 399.87 C 261.77 396.59 267.51 393.24 273.25 389.90 C 273.24 383.27 273.25 376.64 273.24 370.01 C 267.51 366.68 261.76 363.35 256.00 360.07 C 250.26 363.40 244.49 366.68 238.75 370.01 Z" />
</g>
</svg>
