<?xml version="1.0" encoding="UTF-8" ?>
<!DOCTYPE svg PUBLIC "-//W3C//DTD SVG 1.1//EN" "http://www.w3.org/Graphics/SVG/1.1/DTD/svg11.dtd">
<svg width="915pt" height="1031pt" viewBox="0 0 915 1031" version="1.1" xmlns="http://www.w3.org/2000/svg">
<g id="#000000ff">
<path fill="#000000" opacity="1.00" d=" M 456.57 0.00 L 466.41 0.00 C 479.15 1.85 490.52 10.35 495.92 22.03 C 499.48 29.16 499.36 37.29 499.28 45.05 C 506.32 40.50 514.53 37.50 523.02 37.89 C 536.98 37.67 549.87 46.78 556.19 58.90 C 562.27 71.19 561.37 86.95 553.04 98.01 C 547.58 105.03 541.13 111.21 535.62 118.20 C 543.49 115.31 552.02 113.83 560.34 115.50 C 571.10 117.49 580.38 124.82 585.82 134.19 C 590.83 142.90 591.69 153.63 589.26 163.28 C 587.57 169.99 583.32 175.61 578.88 180.76 C 587.08 183.88 594.84 188.88 599.66 196.36 C 604.70 203.70 605.49 212.79 608.00 221.11 C 615.36 218.06 623.45 216.37 631.40 217.83 C 644.56 220.06 656.37 229.57 660.69 242.31 C 667.58 259.57 659.05 281.25 642.28 289.24 C 636.61 291.92 630.68 294.02 624.88 296.41 C 627.13 311.94 630.37 327.31 633.19 342.75 C 640.41 338.12 647.67 333.54 654.86 328.86 C 656.83 327.88 657.45 325.74 657.82 323.74 C 664.47 286.82 671.28 249.92 677.97 213.00 C 679.07 206.15 680.35 199.10 684.27 193.21 C 690.74 183.21 701.94 175.99 713.99 175.50 C 724.96 174.99 736.31 179.01 743.89 187.10 C 748.83 192.39 752.52 198.98 753.92 206.12 C 754.78 210.41 754.53 214.82 754.42 219.17 C 757.53 209.44 758.87 198.98 763.96 189.99 C 770.45 179.35 782.44 172.02 794.98 171.74 C 805.85 171.25 816.86 175.77 824.29 183.72 C 831.85 191.80 835.42 203.03 834.66 214.01 C 844.07 209.46 855.22 208.15 865.17 211.79 C 875.48 215.02 883.77 223.23 887.91 233.12 C 892.75 243.84 891.43 256.66 885.84 266.83 C 882.68 272.75 877.47 277.16 872.05 280.92 C 880.40 282.76 889.29 284.28 896.09 289.89 C 905.59 297.50 911.60 309.76 910.69 322.02 C 910.04 332.37 905.35 342.65 897.11 349.13 C 890.81 354.07 883.18 357.80 875.07 358.08 C 866.49 358.52 858.31 355.53 849.99 353.99 C 855.58 358.96 860.44 364.96 862.83 372.15 C 867.84 385.39 863.87 401.10 854.19 411.19 C 845.42 419.99 832.19 424.75 819.88 422.04 C 814.47 420.82 809.33 418.71 804.10 416.94 C 773.29 406.33 742.53 395.55 711.71 384.98 C 709.45 383.85 707.38 385.38 705.54 386.54 C 692.15 395.27 678.69 403.89 665.21 412.49 C 687.85 434.38 716.20 450.31 746.60 458.51 C 749.15 459.48 751.50 457.81 753.68 456.68 C 762.19 451.83 770.81 447.16 779.36 442.39 C 783.74 439.97 788.01 437.24 792.83 435.75 C 804.37 432.07 817.56 434.49 827.19 441.80 C 833.83 446.83 838.47 454.23 840.85 462.17 C 843.85 472.50 841.67 483.94 836.03 492.99 C 833.03 497.86 828.56 501.56 824.00 504.90 C 830.31 509.85 837.33 514.49 841.17 521.80 C 847.22 532.73 847.81 546.80 841.86 557.91 C 837.09 566.86 828.90 574.19 819.03 576.94 C 810.88 579.18 801.89 579.28 794.01 575.98 C 788.82 573.87 784.41 570.35 780.02 566.97 C 768.75 558.24 757.37 549.65 746.15 540.85 C 744.10 539.25 741.80 537.52 739.04 538.00 C 706.16 540.83 675.04 556.31 651.48 579.16 C 668.65 591.84 686.33 603.82 703.60 616.38 C 705.36 617.60 707.08 618.98 709.12 619.75 C 712.51 619.78 715.80 618.72 719.11 618.11 C 751.79 611.41 784.48 604.80 817.16 598.12 C 832.70 595.12 849.17 603.57 856.60 617.36 C 862.48 628.47 863.05 642.65 856.65 653.67 C 852.90 660.66 846.95 666.20 840.07 670.05 C 849.98 668.85 859.90 667.77 869.81 666.54 C 876.68 665.68 883.88 665.90 890.35 668.59 C 901.74 673.19 911.03 683.35 913.51 695.52 C 918.01 711.71 908.98 729.65 894.57 737.56 C 890.47 739.82 885.90 740.90 881.44 742.14 C 887.18 746.87 893.99 750.42 898.66 756.35 C 904.88 764.02 907.51 774.24 906.67 784.00 C 905.84 793.31 900.92 801.88 894.21 808.23 C 885.69 816.34 873.11 819.38 861.66 817.48 C 852.81 815.96 845.69 810.17 838.59 805.10 C 838.73 816.96 833.36 828.68 824.27 836.27 C 818.02 841.44 809.98 844.12 801.95 844.61 C 791.42 845.33 781.00 840.70 773.45 833.54 C 768.17 828.55 764.88 821.81 763.21 814.81 C 760.18 802.80 757.28 790.75 754.18 778.76 C 754.06 785.80 755.23 792.93 753.69 799.89 C 751.64 809.49 745.27 817.81 737.28 823.34 C 729.15 828.94 718.74 830.57 709.11 828.97 C 697.27 826.65 686.89 818.17 681.83 807.28 C 678.30 800.03 678.39 791.82 678.03 783.95 C 676.51 752.96 674.97 721.96 673.46 690.97 C 673.66 688.64 672.10 686.92 670.26 685.78 C 649.10 670.97 628.14 655.88 606.98 641.06 C 604.69 657.66 605.71 674.76 610.09 690.94 C 610.49 693.56 612.90 694.84 614.98 696.01 C 627.57 703.06 640.08 710.23 652.59 717.41 C 667.91 726.21 674.68 746.86 668.12 763.15 C 664.96 770.93 659.55 777.99 652.21 782.24 C 645.04 786.42 636.51 788.27 628.25 787.48 C 622.92 786.96 617.97 784.74 613.20 782.43 C 611.33 791.64 606.59 800.31 599.02 806.03 C 590.02 813.66 577.35 816.03 566.03 813.13 C 549.70 809.09 536.83 793.01 537.54 776.02 C 538.28 761.96 539.46 747.94 540.35 733.90 C 540.54 731.86 540.31 729.73 538.79 728.24 C 528.14 715.39 514.93 704.26 499.30 698.05 C 499.20 723.60 499.24 749.14 499.28 774.69 C 523.85 790.81 548.49 806.82 573.08 822.89 C 579.84 827.27 587.15 831.44 591.65 838.37 C 598.94 849.17 600.53 863.91 594.74 875.72 C 591.49 882.38 586.57 888.35 580.23 892.27 C 572.78 896.84 563.75 898.63 555.09 897.66 C 548.71 896.89 542.82 894.02 537.51 890.53 C 529.03 884.99 520.56 879.43 512.07 873.91 C 507.67 871.08 503.46 867.86 498.61 865.83 C 501.28 870.51 505.41 874.07 509.03 877.98 C 520.55 890.13 532.06 902.28 543.57 914.45 C 548.30 919.69 553.68 924.40 557.75 930.21 C 564.18 939.46 565.37 951.65 562.33 962.35 C 559.67 971.49 553.02 979.09 545.00 984.02 C 536.24 989.38 525.22 990.29 515.40 987.74 C 509.31 986.20 504.19 982.44 499.32 978.65 C 498.89 987.80 500.35 997.32 497.08 1006.10 C 492.34 1019.14 480.10 1028.88 466.43 1031.00 L 456.57 1031.00 C 439.54 1028.87 424.66 1014.19 423.44 996.88 C 422.92 987.20 423.51 977.49 423.14 967.81 C 416.43 973.27 410.48 980.10 402.13 983.13 C 389.65 987.76 374.52 985.45 364.46 976.56 C 356.41 969.75 350.90 959.70 350.72 949.05 C 350.13 938.11 354.58 927.06 362.76 919.75 C 381.95 902.60 401.15 885.47 420.41 868.40 C 421.63 867.17 423.22 865.91 423.16 864.00 C 423.48 859.96 423.24 855.92 423.14 851.89 C 409.46 861.22 396.23 871.20 382.57 880.55 C 366.73 891.50 342.77 886.98 331.74 871.27 C 321.34 858.37 321.68 838.66 331.66 825.64 C 334.37 822.02 337.86 819.09 341.54 816.52 C 367.66 798.00 393.68 779.36 419.79 760.84 C 421.30 759.57 423.57 758.38 423.23 756.06 C 423.24 734.53 423.36 713.00 423.15 691.47 C 398.80 701.73 376.13 716.74 358.78 736.82 C 356.82 739.20 354.12 741.61 354.37 745.00 C 354.33 756.99 354.39 769.00 354.40 781.00 C 354.50 787.46 353.82 794.10 350.95 799.98 C 345.53 811.32 334.37 820.06 321.78 821.63 C 315.07 822.36 308.09 821.88 301.84 819.17 C 290.40 814.37 281.68 803.88 278.95 791.78 C 270.78 791.15 262.41 789.29 255.78 784.23 C 247.87 778.35 242.22 769.35 240.58 759.61 C 238.79 747.93 242.61 735.39 251.01 727.01 C 256.13 721.85 262.75 718.66 268.77 714.75 C 273.22 711.85 277.96 709.39 282.26 706.26 C 284.01 705.09 284.16 702.79 284.69 700.95 C 287.92 685.10 289.55 668.88 288.87 652.70 C 275.18 660.97 261.90 669.90 248.28 678.28 C 246.21 679.71 243.28 681.01 243.36 683.96 C 240.19 712.66 236.99 741.35 233.84 770.04 C 232.95 776.78 232.74 783.65 231.11 790.27 C 227.99 802.45 217.98 812.14 206.29 816.26 C 195.18 819.86 182.29 818.12 172.78 811.24 C 167.56 807.57 163.65 802.40 160.30 797.05 C 159.53 804.91 157.10 812.81 151.87 818.90 C 144.62 827.67 133.56 833.63 122.00 833.14 C 102.43 833.97 84.59 816.46 84.17 797.07 C 84.04 792.25 84.47 787.44 84.46 782.63 C 78.07 786.23 72.16 790.88 65.06 793.06 C 56.44 795.67 46.95 794.70 38.72 791.20 C 27.60 786.47 19.51 775.85 16.93 764.15 C 14.61 752.99 17.91 741.23 24.68 732.21 C 11.02 726.69 0.95 713.34 0.00 698.55 L 0.00 695.45 C 0.42 679.19 12.04 664.10 27.72 659.73 C 37.33 656.93 47.26 659.39 56.83 661.03 C 50.58 656.68 45.05 651.09 41.92 644.06 C 36.17 632.51 37.34 618.12 44.37 607.38 C 53.34 593.25 72.23 586.24 88.14 591.82 C 119.68 603.65 151.23 615.46 182.77 627.28 C 186.81 629.13 190.10 625.10 193.41 623.40 C 221.31 605.47 249.42 587.87 277.28 569.88 C 257.98 545.48 230.09 528.02 199.66 521.50 C 197.96 521.14 196.49 522.26 195.07 523.00 C 182.05 531.01 169.08 539.12 155.94 546.93 C 145.02 553.56 130.79 553.37 119.57 547.56 C 111.38 543.31 105.12 535.79 101.73 527.27 C 97.72 517.19 98.92 505.47 103.83 495.91 C 107.49 488.53 114.24 483.43 121.12 479.24 C 113.38 472.64 107.92 463.31 107.10 453.07 C 105.56 441.02 110.78 428.73 119.69 420.68 C 131.98 409.63 151.86 408.07 165.56 417.42 C 175.97 424.70 186.35 432.02 196.76 439.29 C 199.31 441.50 202.66 439.88 205.51 439.35 C 230.99 432.94 256.82 423.87 276.89 406.33 C 260.48 394.29 243.84 382.57 227.35 370.64 C 225.60 369.01 223.24 369.59 221.20 370.21 C 189.01 379.42 156.76 388.41 124.56 397.58 C 117.26 399.86 109.37 401.03 101.87 399.02 C 92.97 396.56 84.58 391.36 79.32 383.65 C 72.59 373.86 70.45 360.82 74.57 349.58 C 77.20 341.85 82.41 335.21 88.95 330.40 C 78.99 332.99 68.19 331.09 59.64 325.38 C 43.89 315.95 37.36 294.06 45.49 277.58 C 49.62 268.06 57.99 261.08 67.49 257.29 C 61.99 253.23 56.64 248.62 53.49 242.42 C 47.75 231.62 47.18 217.92 53.07 207.05 C 57.81 197.69 66.46 190.35 76.66 187.66 C 85.23 185.09 94.46 186.10 102.75 189.23 C 103.83 176.79 110.46 164.72 121.29 158.24 C 132.74 151.43 147.97 150.57 159.57 157.50 C 167.72 162.08 173.86 169.61 177.31 178.24 C 179.84 173.05 182.60 167.85 186.76 163.75 C 193.52 156.72 203.27 152.82 212.99 152.88 C 230.98 152.04 248.31 166.33 250.90 184.15 C 252.74 196.55 254.32 208.98 256.17 221.38 C 260.22 215.76 264.76 210.25 271.04 207.02 C 279.32 202.03 289.35 201.26 298.72 202.88 C 302.37 192.61 309.60 183.29 319.73 178.81 C 327.31 175.15 335.96 175.20 344.15 176.15 C 338.72 169.18 332.69 162.70 327.33 155.69 C 320.36 146.44 318.67 133.88 321.89 122.88 C 324.90 112.58 332.63 103.85 342.27 99.24 C 349.66 95.50 358.14 95.54 366.18 96.36 C 363.32 92.64 360.30 88.98 358.25 84.73 C 354.08 76.26 353.60 66.21 356.25 57.20 C 358.95 47.87 365.69 39.96 374.07 35.17 C 383.48 29.72 395.25 29.17 405.46 32.57 C 412.52 34.83 418.25 39.79 423.12 45.21 C 423.33 39.07 422.89 32.77 424.78 26.83 C 428.96 12.71 441.91 1.75 456.57 0.00 M 454.71 15.89 C 445.45 18.36 438.48 27.42 438.40 36.99 C 438.33 52.00 438.38 67.01 438.40 82.02 C 438.44 84.30 438.08 86.56 437.35 88.72 C 433.22 82.89 428.53 77.48 424.16 71.84 C 418.38 64.90 413.25 57.38 407.02 50.83 C 401.78 45.92 394.02 44.69 387.17 46.12 C 377.34 48.36 369.73 57.89 369.75 67.99 C 369.49 73.45 371.52 78.82 374.98 83.00 C 396.03 109.39 416.95 135.90 438.05 162.24 C 438.81 166.77 438.20 171.42 438.37 176.00 C 438.13 181.84 439.12 187.85 437.42 193.54 C 418.03 169.67 398.00 146.31 378.40 122.60 C 376.38 120.25 374.52 117.73 372.15 115.71 C 366.61 111.01 358.66 109.98 351.78 111.77 C 342.92 114.32 336.08 122.75 335.58 131.99 C 334.98 138.09 337.13 144.26 341.18 148.82 C 373.25 187.11 405.19 225.50 437.29 263.76 C 438.71 265.12 438.28 267.20 438.41 268.96 C 438.37 274.94 438.40 280.91 438.33 286.88 C 423.16 283.20 408.19 278.49 394.04 271.87 C 390.38 270.18 386.88 268.10 383.00 266.95 C 375.07 262.13 367.38 256.93 360.15 251.11 C 359.72 238.75 358.98 226.41 358.47 214.06 C 358.34 209.39 357.45 204.44 354.19 200.87 C 353.27 199.43 352.17 198.11 350.97 196.91 C 345.54 191.17 336.83 189.54 329.35 191.41 C 319.82 193.81 312.65 203.17 312.64 212.97 C 312.63 217.06 312.99 221.14 313.03 225.23 C 307.22 223.07 301.72 220.17 295.90 218.08 C 284.81 214.57 271.95 221.39 268.27 232.34 C 264.44 241.85 268.39 253.50 276.88 259.09 C 289.40 265.53 302.77 270.24 315.52 276.24 C 316.59 304.45 317.74 332.67 318.98 360.88 C 318.02 360.60 317.07 360.32 316.12 360.05 C 300.47 348.26 284.31 337.13 268.46 325.59 C 263.89 322.42 259.56 318.89 254.74 316.09 C 253.22 312.04 252.90 307.71 252.29 303.47 C 247.12 266.16 241.84 228.86 236.69 191.55 C 236.12 186.30 235.21 180.68 231.31 176.79 C 230.14 175.22 228.71 173.88 227.18 172.68 C 220.56 166.69 210.23 166.56 202.57 170.54 C 194.29 174.92 189.26 184.74 190.88 194.03 C 194.59 220.36 198.21 246.70 201.96 273.03 C 202.32 274.88 202.14 276.77 201.59 278.56 C 193.68 272.44 185.47 266.70 177.20 261.08 C 172.98 236.65 168.23 212.32 163.88 187.92 C 163.23 183.94 161.89 179.95 159.04 176.99 C 157.80 175.50 156.43 174.13 154.98 172.86 C 149.25 167.56 140.47 166.79 133.32 169.26 C 123.72 172.47 117.05 182.80 118.34 192.88 C 119.23 199.16 120.62 205.35 121.71 211.59 C 122.27 215.03 123.49 218.57 122.32 222.03 C 115.12 216.31 107.35 211.35 100.02 205.80 C 90.42 197.61 74.13 201.15 67.83 211.81 C 62.24 219.81 62.99 231.32 69.19 238.77 C 71.98 242.06 75.74 244.30 79.19 246.82 C 87.13 252.49 95.14 258.08 103.03 263.83 C 94.03 266.26 85.00 268.58 75.97 270.87 C 71.80 271.87 67.67 273.53 64.53 276.54 C 57.65 282.82 55.25 293.45 58.93 302.04 C 61.77 309.60 69.13 314.88 76.99 316.11 C 82.95 316.93 88.70 314.74 94.39 313.35 C 113.56 308.46 132.67 303.34 151.86 298.55 C 160.99 305.33 170.61 311.47 179.44 318.66 C 156.90 325.21 134.26 331.45 111.69 337.87 C 106.77 339.33 101.51 340.26 97.23 343.27 C 89.28 348.89 85.52 359.93 88.91 369.15 C 92.28 380.16 104.99 387.45 116.15 384.12 C 153.43 373.67 190.66 363.02 227.95 352.61 C 251.96 369.75 275.91 386.97 299.85 404.21 C 290.41 416.76 277.69 426.50 264.00 433.99 C 242.56 445.64 218.86 452.26 195.09 457.18 C 184.80 449.31 173.89 442.25 163.36 434.69 C 161.02 433.14 158.90 431.20 156.31 430.06 C 150.67 425.08 141.93 425.87 135.36 428.43 C 126.75 432.15 121.17 441.73 122.07 451.04 C 122.55 457.34 125.62 463.47 130.73 467.27 C 136.61 471.69 142.88 475.59 148.74 480.06 C 141.10 485.07 133.18 489.62 125.44 494.47 C 119.83 497.77 115.80 503.58 114.80 510.03 C 112.33 522.01 121.47 534.74 133.52 536.52 C 139.76 537.95 146.06 535.71 151.22 532.25 C 164.21 524.21 177.30 516.33 190.27 508.25 C 192.39 507.17 194.41 505.07 196.94 505.42 C 207.45 507.35 217.78 510.33 227.72 514.27 C 255.69 525.39 279.52 545.61 296.65 570.21 C 295.57 572.60 294.86 575.17 293.46 577.41 C 292.18 578.53 290.70 579.40 289.27 580.32 C 255.12 601.83 221.25 623.78 187.04 645.18 C 154.53 632.89 121.94 620.81 89.42 608.57 C 85.40 607.06 81.40 605.11 77.01 605.10 C 66.68 604.57 56.67 612.18 54.24 622.21 C 51.42 631.67 55.98 642.57 64.43 647.52 C 68.93 650.02 73.93 651.40 78.69 653.31 C 98.59 660.88 118.67 668.01 138.46 675.87 C 134.20 678.84 129.75 681.53 125.40 684.35 C 123.75 685.30 122.04 686.67 120.01 686.07 C 96.87 682.50 73.76 678.82 50.63 675.20 C 45.16 674.40 39.62 673.02 34.07 673.90 C 22.59 675.71 13.82 687.33 15.48 698.89 C 16.49 708.66 24.43 717.44 34.21 718.96 C 43.89 720.61 53.64 721.88 63.30 723.62 C 55.98 728.99 47.88 733.21 40.42 738.38 C 31.23 744.93 28.54 758.86 34.67 768.34 C 38.94 775.71 47.57 780.05 56.04 779.37 C 62.41 779.11 67.63 775.10 72.84 771.89 C 82.23 766.08 91.47 760.04 100.96 754.39 C 100.58 767.95 99.70 781.50 99.26 795.06 C 98.87 804.02 104.74 812.49 112.74 816.20 C 116.84 818.14 121.53 818.32 125.97 817.83 C 135.99 816.24 144.43 807.25 144.94 797.04 C 146.10 772.75 147.12 748.46 148.23 724.17 C 158.73 717.39 169.30 710.72 179.89 704.09 C 177.20 728.73 174.38 753.35 171.73 777.99 C 170.45 788.29 177.48 798.63 187.28 801.72 C 193.59 803.66 200.85 803.16 206.43 799.43 C 212.45 795.84 216.61 789.39 217.27 782.40 C 221.01 748.79 224.71 715.17 228.46 681.56 C 228.75 678.70 228.73 675.83 228.65 672.98 C 252.88 657.57 277.00 641.96 301.40 626.81 C 306.27 655.50 304.40 685.08 297.29 713.23 C 297.00 715.33 294.90 716.25 293.34 717.33 C 285.05 722.36 276.85 727.53 268.58 732.59 C 265.93 734.20 263.28 735.89 261.18 738.20 C 255.61 744.29 253.83 753.57 256.72 761.29 C 259.73 769.77 267.94 775.99 276.97 776.35 C 282.94 777.10 288.38 774.20 293.40 771.39 C 293.64 776.45 293.28 781.52 293.66 786.58 C 294.54 797.64 304.90 806.99 315.99 806.80 C 327.86 807.41 339.03 796.92 339.20 785.04 C 339.34 769.68 339.17 754.31 339.26 738.95 C 339.11 736.10 341.49 734.12 343.00 731.99 C 367.03 701.60 401.76 681.18 438.29 669.44 C 438.39 702.52 438.49 735.61 438.24 768.69 C 431.21 770.18 425.92 775.23 420.16 779.15 C 396.22 796.21 372.26 813.27 348.32 830.34 C 340.24 835.97 337.06 847.24 340.57 856.36 C 343.46 864.10 350.62 870.37 358.99 871.18 C 364.68 872.08 370.57 870.61 375.22 867.25 C 396.30 852.46 417.06 837.20 438.25 822.57 C 438.54 837.72 438.26 852.88 438.41 868.04 C 438.27 870.02 438.80 872.53 436.93 873.89 C 417.20 891.51 397.44 909.10 377.68 926.70 C 372.22 931.10 366.89 936.61 366.09 943.95 C 363.66 956.88 374.83 970.23 387.96 970.16 C 393.70 970.60 399.37 968.46 403.65 964.68 C 415.30 954.67 426.40 944.01 438.23 934.21 C 438.59 954.14 438.22 974.08 438.41 994.01 C 438.45 1005.78 449.24 1016.22 460.99 1015.92 C 472.86 1016.46 483.99 1005.93 484.08 994.05 C 484.22 976.23 484.03 958.40 484.16 940.58 C 493.14 949.36 501.40 958.85 510.27 967.76 C 514.15 971.59 519.47 974.04 524.96 974.04 C 535.33 974.56 545.61 967.15 548.16 957.06 C 549.78 950.51 548.86 942.99 544.30 937.78 C 538.76 931.32 532.45 925.54 526.87 919.12 C 517.31 909.34 508.15 899.19 498.59 889.41 C 493.65 884.34 489.15 878.85 483.91 874.07 C 484.42 861.95 483.93 849.82 484.17 837.70 C 505.76 851.41 526.99 865.71 548.54 879.49 C 554.34 883.28 561.89 883.71 568.31 881.34 C 574.76 878.95 579.76 873.37 582.07 866.96 C 584.19 860.57 583.20 853.24 579.48 847.63 C 577.44 845.32 575.45 842.91 572.84 841.24 C 556.48 830.61 540.15 819.93 523.82 809.26 C 510.72 800.92 497.98 791.99 484.67 784.02 C 483.83 779.73 484.16 775.34 484.12 771.00 C 484.12 740.14 484.14 709.27 484.11 678.41 C 494.60 679.47 504.71 683.10 514.07 687.85 C 530.40 696.37 543.92 709.47 554.85 724.14 C 556.17 725.58 555.75 727.63 555.74 729.42 C 554.68 744.62 553.58 759.82 552.64 775.02 C 551.60 787.04 561.92 798.61 573.94 799.09 C 585.80 800.38 597.36 790.38 598.29 778.58 C 598.92 771.64 599.20 764.67 599.74 757.73 C 608.28 761.27 615.70 767.00 624.10 770.84 C 630.09 773.53 637.22 772.89 643.02 770.03 C 648.52 767.36 652.43 762.13 654.42 756.45 C 656.65 749.87 655.33 742.37 651.42 736.70 C 646.96 730.80 639.80 728.25 633.73 724.45 C 622.07 718.02 610.78 710.89 598.87 704.94 C 596.13 699.03 594.79 692.61 593.39 686.29 C 588.46 662.93 590.00 638.38 597.14 615.65 C 626.49 635.95 655.37 656.93 684.61 677.39 C 686.14 678.59 688.40 679.68 688.14 681.99 C 690.04 719.17 691.76 756.37 693.71 793.55 C 694.30 805.20 705.43 814.91 717.00 814.30 C 729.21 814.66 739.92 803.06 739.36 791.01 C 738.27 765.28 736.68 739.57 735.70 713.84 C 741.79 717.85 747.59 722.29 753.60 726.42 C 755.26 727.70 757.46 728.83 757.83 731.12 C 764.41 757.54 771.09 783.94 777.65 810.37 C 778.55 814.05 779.86 817.72 782.28 820.70 C 787.59 827.25 796.56 831.04 804.93 829.03 C 816.85 826.97 825.58 814.01 822.83 802.19 C 820.32 791.37 817.28 780.67 814.90 769.83 C 829.02 779.38 842.62 789.69 856.68 799.33 C 863.29 803.91 872.33 803.93 879.41 800.43 C 886.49 796.70 891.57 789.08 891.74 781.01 C 891.86 775.96 890.61 770.72 887.32 766.77 C 883.85 762.15 878.48 759.57 874.02 756.07 C 863.60 748.80 853.46 741.10 842.87 734.09 C 842.21 733.11 841.54 732.14 840.89 731.18 C 853.57 729.82 866.23 728.28 878.91 726.84 C 884.95 726.27 890.59 723.08 894.30 718.29 C 900.89 710.49 901.20 697.58 894.18 689.97 C 892.82 688.49 891.30 687.18 889.96 685.71 C 884.38 680.97 876.68 680.61 869.78 681.77 C 844.85 684.71 819.90 687.54 794.96 690.46 C 790.67 690.93 786.36 691.68 782.03 691.37 C 773.82 684.83 765.12 678.87 756.44 672.96 C 758.39 672.32 760.39 671.82 762.41 671.39 C 783.47 667.12 804.51 662.77 825.57 658.56 C 830.32 657.73 835.14 656.09 838.61 652.60 C 847.09 644.99 848.94 630.62 841.26 621.85 C 840.02 620.33 838.62 618.95 837.11 617.73 C 832.12 613.11 824.81 612.03 818.33 613.34 C 782.43 620.74 746.49 627.95 710.58 635.34 C 708.44 635.76 706.27 635.91 704.11 635.96 C 691.23 626.07 677.64 617.10 664.49 607.56 C 652.26 599.10 640.42 590.06 627.95 581.97 C 635.80 572.51 644.87 564.10 654.43 556.40 C 680.04 535.90 712.22 523.60 745.07 522.58 C 746.84 522.27 748.24 523.46 749.59 524.43 C 763.68 535.36 777.87 546.15 791.98 557.06 C 796.96 561.28 803.35 564.25 810.02 563.29 C 821.29 562.66 830.91 552.27 830.85 541.02 C 830.98 535.97 829.38 530.95 826.30 526.95 C 821.60 522.14 815.98 518.41 810.73 514.26 C 805.94 510.68 801.37 506.79 796.38 503.50 C 803.31 497.32 812.81 494.91 819.86 488.86 C 828.68 480.83 829.65 465.62 821.11 457.02 C 819.94 455.77 818.67 454.63 817.29 453.64 C 810.49 448.31 800.49 447.71 793.07 452.10 C 780.25 459.31 767.32 466.32 754.49 473.53 C 752.86 474.31 751.13 475.56 749.24 474.89 C 736.67 471.90 724.32 467.81 712.54 462.47 C 708.35 460.64 704.39 458.26 699.98 456.99 C 687.68 449.97 675.71 442.28 664.95 433.04 C 656.47 426.23 649.13 418.19 641.42 410.57 C 644.67 407.30 648.82 405.18 652.63 402.65 C 670.81 390.93 689.05 379.31 707.18 367.53 C 745.01 380.28 782.63 393.67 820.41 406.60 C 831.50 410.40 844.70 403.51 848.50 392.54 C 851.52 384.99 849.73 375.85 844.23 369.91 C 843.26 368.84 842.22 367.84 841.08 366.98 C 839.47 365.47 837.64 364.22 835.58 363.46 C 809.42 354.20 783.05 345.50 756.98 336.01 C 762.64 331.91 768.71 328.41 774.54 324.55 C 776.13 323.65 777.79 322.20 779.76 322.92 C 808.47 329.28 837.19 335.62 865.88 342.06 C 875.58 344.87 886.84 340.89 892.17 332.23 C 896.83 324.61 897.02 314.05 891.23 306.96 C 889.86 304.99 888.28 303.09 886.19 301.88 C 883.20 298.84 878.94 297.88 874.93 297.04 C 860.92 293.95 846.91 290.88 832.92 287.69 C 843.78 280.56 854.88 273.81 865.77 266.73 C 876.05 260.13 879.19 244.37 871.37 234.73 C 870.39 233.32 869.24 232.02 868.02 230.83 C 862.74 225.49 854.54 223.76 847.36 225.43 C 842.48 226.57 838.58 229.85 834.40 232.39 C 826.14 237.54 818.03 242.94 809.67 247.93 C 812.46 236.78 815.90 225.79 818.81 214.67 C 820.52 208.10 818.68 200.87 814.31 195.72 C 813.18 194.18 811.82 192.82 810.29 191.69 C 802.43 184.96 789.76 185.29 781.99 192.01 C 777.82 195.22 775.28 200.06 774.07 205.09 C 766.93 230.89 759.63 256.65 752.48 282.44 C 752.00 285.61 748.75 286.82 746.43 288.44 C 738.78 293.07 731.47 298.25 723.66 302.63 C 728.51 274.01 734.07 245.51 739.12 216.92 C 740.13 211.30 738.70 205.41 735.33 200.82 C 734.21 199.52 733.19 198.14 731.99 196.93 C 727.01 191.52 719.09 189.96 712.06 191.05 C 705.46 192.16 699.71 196.65 696.45 202.41 C 694.10 206.55 693.69 211.37 692.81 215.96 C 685.60 255.44 678.43 294.93 671.22 334.41 C 671.11 337.13 668.31 338.08 666.43 339.44 C 651.62 348.58 637.33 358.61 622.31 367.38 C 617.39 340.63 612.33 313.90 607.59 287.12 C 616.26 283.63 624.97 280.19 633.62 276.63 C 639.03 274.43 643.50 270.12 645.81 264.75 C 649.37 257.48 648.28 248.28 643.23 241.98 C 642.01 240.42 640.66 238.96 639.15 237.70 C 633.17 232.50 624.29 230.95 616.94 233.96 C 610.51 236.58 604.10 239.26 597.62 241.76 C 594.84 231.62 592.58 221.33 589.90 211.16 C 589.21 208.47 587.90 205.97 586.02 203.93 C 584.86 202.41 583.51 201.03 582.08 199.77 C 572.18 190.26 554.27 194.17 548.01 206.02 C 543.98 212.39 544.42 220.31 546.66 227.23 C 549.95 240.44 553.32 253.63 556.45 266.88 C 549.35 274.35 541.77 281.42 533.30 287.32 C 519.05 297.45 502.18 304.06 484.70 305.53 C 484.24 303.05 484.04 300.53 484.08 298.02 C 484.19 286.33 484.07 274.64 484.13 262.95 C 483.97 261.35 484.67 259.90 485.82 258.82 C 513.72 228.72 541.53 198.55 569.40 168.42 C 576.63 160.95 577.52 148.24 571.34 139.88 C 569.69 138.08 568.19 136.13 566.28 134.60 C 557.85 127.50 544.07 128.67 536.49 136.50 C 519.04 155.36 501.67 174.28 484.15 193.08 C 484.12 180.39 484.08 167.69 484.15 155.00 C 483.92 153.36 485.08 152.17 486.05 151.02 C 503.80 131.11 521.50 111.14 539.23 91.21 C 546.71 83.10 547.10 68.90 539.13 61.00 C 538.46 60.24 537.76 59.52 537.02 58.85 C 528.78 50.50 513.67 51.33 505.81 59.81 C 498.53 67.83 491.47 76.06 484.16 84.06 C 484.08 70.71 484.13 57.35 484.14 44.00 C 484.38 37.08 484.33 29.28 479.15 23.99 C 477.89 22.49 476.52 21.08 475.06 19.80 C 469.59 14.93 461.58 14.18 454.71 15.89 M 373.42 211.11 C 374.01 221.69 374.43 232.29 374.99 242.88 C 388.07 252.67 402.82 260.30 418.38 265.30 C 416.80 263.01 415.07 260.83 413.28 258.72 C 399.95 242.89 386.77 226.92 373.42 211.11 M 499.55 266.51 C 498.81 273.34 499.43 280.27 499.28 287.13 C 514.67 282.69 528.12 273.32 539.74 262.51 C 537.49 252.05 534.81 241.69 532.06 231.36 C 521.04 242.90 510.16 254.62 499.55 266.51 M 262.68 267.51 C 264.15 279.71 266.00 291.86 267.70 304.03 C 267.72 306.87 270.47 308.07 272.41 309.55 C 282.50 316.50 292.18 324.03 302.39 330.80 C 302.14 315.95 301.26 301.12 300.71 286.29 C 291.86 282.44 282.96 278.73 274.13 274.84 C 269.93 273.04 266.34 270.18 262.68 267.51 Z" />
<path fill="#000000" opacity="1.00" d=" M 362.68 307.95 C 386.36 320.22 411.94 328.71 438.13 333.70 C 438.64 342.46 438.27 351.23 438.37 360.00 C 438.30 388.49 438.52 416.98 438.26 445.47 C 437.16 444.97 436.08 444.46 435.01 443.94 C 418.93 432.78 402.99 421.40 386.96 410.15 C 380.11 405.52 373.61 400.33 366.50 396.09 C 365.86 391.40 365.79 386.66 365.60 381.94 C 364.68 357.28 363.46 332.62 362.68 307.95 M 378.79 332.20 C 379.42 350.44 380.21 368.67 381.00 386.91 C 394.98 396.84 408.90 406.89 423.13 416.46 C 423.37 392.99 423.24 369.51 423.20 346.03 C 408.07 342.53 393.25 337.83 378.79 332.20 Z" />
<path fill="#000000" opacity="1.00" d=" M 532.99 340.98 C 545.22 335.58 556.54 328.30 567.00 320.00 C 571.64 344.71 576.15 369.44 580.69 394.17 C 548.59 414.86 516.32 435.31 484.12 455.85 C 484.12 421.30 484.13 386.76 484.12 352.21 C 500.90 351.38 517.65 347.95 532.99 340.98 M 499.30 366.47 C 499.20 387.02 499.24 407.57 499.28 428.11 C 520.91 414.46 542.47 400.69 563.98 386.85 C 561.50 373.26 558.95 359.69 556.48 346.11 C 538.97 356.50 519.52 363.78 499.30 366.47 Z" />
<path fill="#000000" opacity="1.00" d=" M 307.74 461.74 C 319.39 453.31 329.78 443.17 338.18 431.48 C 367.38 451.86 396.51 472.35 425.50 493.03 C 411.08 502.49 396.43 511.58 381.92 520.90 C 366.95 530.27 352.26 540.12 337.10 549.19 C 320.61 523.00 297.94 500.58 271.23 484.87 C 270.73 484.39 269.74 483.44 269.25 482.96 C 282.61 476.94 295.93 470.53 307.74 461.74 M 299.91 485.25 C 315.81 497.61 329.49 512.49 341.81 528.36 C 360.65 516.37 379.56 504.49 398.28 492.31 C 379.46 478.89 360.49 465.68 341.63 452.32 C 329.61 465.46 315.39 476.48 299.91 485.25 Z" />
<path fill="#000000" opacity="1.00" d=" M 545.70 470.72 C 564.52 458.76 583.26 446.67 602.13 434.79 C 621.65 457.60 644.69 477.40 670.48 492.80 C 642.52 505.44 617.66 524.43 597.33 547.35 C 595.01 549.97 592.66 552.60 589.85 554.72 C 562.76 534.50 534.89 515.29 507.63 495.29 C 520.07 486.73 533.04 478.96 545.70 470.72 M 534.78 495.82 C 552.49 508.78 570.41 521.45 588.21 534.29 C 593.23 529.61 597.81 524.48 602.88 519.86 C 614.26 508.92 627.06 499.62 640.27 491.04 C 625.53 480.11 612.08 467.59 599.33 454.45 C 577.89 468.37 556.17 481.85 534.78 495.82 Z" />
<path fill="#000000" opacity="1.00" d=" M 484.17 534.71 C 508.99 552.29 533.67 570.06 558.30 587.91 C 552.05 604.44 547.07 621.59 545.56 639.26 C 545.17 643.37 544.96 647.50 544.56 651.62 C 526.48 640.12 505.56 633.04 484.15 631.71 C 484.12 599.37 484.08 567.04 484.17 534.71 M 499.25 564.02 C 499.25 581.98 499.24 599.95 499.26 617.91 C 510.42 619.83 521.26 623.19 531.79 627.32 C 533.74 615.79 536.69 604.47 540.15 593.31 C 526.51 583.55 512.96 573.67 499.25 564.02 Z" />
<path fill="#000000" opacity="1.00" d=" M 397.23 565.25 C 410.93 556.64 424.43 547.68 438.27 539.29 C 438.41 566.78 438.51 594.28 438.22 621.76 C 406.91 630.36 376.67 643.47 349.95 662.04 C 350.08 641.16 347.35 620.37 342.80 600.01 C 360.85 588.28 379.10 576.87 397.23 565.25 M 359.84 607.16 C 361.63 616.42 362.99 625.75 363.95 635.13 C 382.80 624.75 402.85 616.79 423.27 610.11 C 423.17 595.70 423.38 581.29 423.16 566.89 C 401.98 580.18 380.91 593.68 359.84 607.16 Z" />
</g>
<g id="#999999ff">
<path fill="#999999" opacity="1.00" d=" M 354.19 200.87 C 357.45 204.44 358.34 209.39 358.47 214.06 C 358.98 226.41 359.72 238.75 360.15 251.11 C 358.43 249.80 356.34 248.36 356.45 245.92 C 355.51 230.92 355.20 215.87 354.19 200.87 Z" />
</g>
<g id="#ffffffff">
</g>
</svg>
