<?xml version="1.0" encoding="UTF-8" ?>
<!DOCTYPE svg PUBLIC "-//W3C//DTD SVG 1.1//EN" "http://www.w3.org/Graphics/SVG/1.1/DTD/svg11.dtd">
<svg width="1027pt" height="1179pt" viewBox="0 0 1027 1179" version="1.1" xmlns="http://www.w3.org/2000/svg">
<g id="#000000ff">
<path fill="#000000" opacity="1.00" d=" M 502.24 3.28 C 508.84 -0.49 517.30 -0.65 524.03 2.89 C 531.79 6.80 536.90 15.28 536.84 23.96 C 536.85 38.25 536.84 52.54 536.84 66.83 C 539.37 64.29 542.11 61.75 545.58 60.56 C 552.68 57.81 561.31 59.95 566.28 65.72 C 571.07 71.00 572.36 79.09 569.50 85.61 C 568.17 88.96 565.55 91.53 563.03 93.99 C 554.29 102.70 545.59 111.44 536.85 120.14 C 536.83 147.76 536.84 175.37 536.85 202.98 C 552.73 187.13 568.59 171.25 584.45 155.38 C 587.27 152.49 590.14 149.43 594.04 148.02 C 601.84 144.82 611.54 147.71 616.29 154.68 C 621.45 161.71 620.73 172.31 614.58 178.51 C 588.69 204.45 562.77 230.35 536.85 256.26 C 536.83 295.14 536.84 334.02 536.85 372.90 C 581.37 337.75 625.67 302.32 670.29 267.30 C 671.72 257.15 679.21 248.09 689.14 245.29 C 703.45 240.74 720.32 250.51 723.72 265.08 C 726.36 275.06 722.33 286.20 714.21 292.48 C 706.03 348.65 697.65 404.80 689.40 460.97 C 723.08 441.53 756.77 422.11 790.42 402.62 C 799.78 367.53 809.22 332.46 818.60 297.37 C 820.04 291.43 824.49 286.33 830.24 284.21 C 837.03 281.53 845.29 283.35 850.35 288.62 C 855.07 293.33 856.91 300.62 855.03 307.02 C 848.86 330.01 842.69 353.01 836.54 376.01 C 860.36 362.21 884.29 348.59 908.01 334.65 C 911.28 324.65 913.54 314.26 916.44 304.13 C 918.02 299.00 918.56 293.32 921.94 288.96 C 926.23 283.20 933.97 280.32 940.97 281.96 C 948.57 283.50 954.71 290.22 955.63 297.92 C 956.15 301.31 955.34 304.70 954.47 307.96 C 964.90 301.90 975.36 295.89 985.81 289.85 C 990.33 287.24 994.85 284.20 1000.17 283.55 C 1009.70 282.07 1019.86 287.16 1024.20 295.81 C 1028.20 303.24 1027.51 312.78 1022.72 319.68 C 1020.48 323.09 1017.23 325.70 1013.70 327.67 C 1001.72 334.56 989.76 341.49 977.79 348.39 C 983.07 349.50 988.24 352.14 991.22 356.79 C 995.41 362.81 995.52 371.30 991.52 377.45 C 987.37 384.15 978.75 387.66 971.12 385.62 C 957.90 382.15 944.73 378.48 931.51 375.07 C 907.68 388.94 883.74 402.62 859.91 416.47 C 881.37 422.22 902.83 427.98 924.30 433.72 C 928.02 434.74 931.97 435.48 935.16 437.82 C 941.22 441.97 944.38 449.88 942.78 457.07 C 941.32 464.68 934.69 470.87 927.03 471.89 C 922.57 472.64 918.24 471.11 914.01 469.98 C 880.59 461.01 847.17 452.07 813.76 443.10 C 780.14 462.61 746.34 481.80 712.86 501.53 C 765.58 522.34 818.31 543.13 870.94 564.16 C 876.38 562.16 882.41 561.52 888.04 563.14 C 896.33 565.29 903.31 571.74 906.16 579.80 C 909.66 589.85 907.46 602.03 899.51 609.40 C 892.12 616.66 880.49 618.69 870.94 614.82 C 818.29 635.91 765.47 656.61 712.76 677.57 C 746.08 696.83 779.41 716.06 812.73 735.30 C 813.80 736.12 815.10 735.48 816.26 735.26 C 849.54 726.25 882.87 717.40 916.16 708.43 C 919.68 707.42 923.35 706.48 927.04 707.10 C 934.69 708.12 941.29 714.29 942.77 721.87 C 944.40 729.06 941.24 736.98 935.18 741.16 C 931.98 743.51 927.99 744.25 924.24 745.28 C 902.80 751.01 881.37 756.78 859.93 762.49 C 883.71 776.40 907.68 789.98 931.45 803.90 C 944.72 800.55 957.89 796.82 971.14 793.37 C 975.92 792.14 981.17 792.95 985.38 795.54 C 993.23 800.08 996.69 810.66 992.99 818.95 C 990.48 825.28 984.33 829.38 977.80 830.62 C 987.89 836.39 997.93 842.24 1008.01 848.04 C 1012.30 850.63 1017.04 852.72 1020.48 856.49 C 1025.75 862.12 1028.08 870.43 1026.18 877.94 C 1024.47 885.24 1018.97 891.49 1011.94 894.10 C 1005.36 896.70 997.68 896.01 991.58 892.47 C 979.19 885.35 966.82 878.20 954.46 871.03 C 955.59 874.96 956.34 879.18 955.23 883.21 C 953.51 890.37 947.24 896.16 939.95 897.24 C 933.02 898.45 925.61 895.31 921.59 889.56 C 919.33 886.51 918.53 882.73 917.58 879.14 C 914.50 867.57 911.35 856.03 908.31 844.46 C 884.42 830.57 860.48 816.80 836.55 802.99 C 842.70 825.99 848.87 848.99 855.03 871.99 C 856.52 877.23 855.66 883.09 852.60 887.62 C 848.83 893.38 841.73 896.72 834.89 895.91 C 827.41 895.19 820.70 889.54 818.79 882.26 C 809.32 846.97 799.85 811.68 790.41 776.38 C 756.76 756.89 723.08 737.46 689.40 718.02 C 697.66 774.22 706.01 830.40 714.24 886.59 C 719.11 890.42 722.62 895.91 723.90 901.98 C 725.82 910.45 723.13 919.81 717.02 925.98 C 710.29 932.69 700.24 936.52 690.80 934.15 C 680.13 931.88 671.76 922.45 670.29 911.71 C 625.68 876.67 581.36 841.27 536.84 806.10 C 536.83 844.99 536.82 883.87 536.85 922.75 C 562.10 947.96 587.30 973.23 612.56 998.43 C 615.14 1000.88 617.54 1003.69 618.67 1007.14 C 621.24 1014.11 619.13 1022.49 613.54 1027.40 C 608.22 1032.33 599.96 1033.66 593.36 1030.68 C 589.29 1029.01 586.45 1025.54 583.40 1022.55 C 567.88 1007.04 552.38 991.51 536.84 976.01 C 536.83 1003.62 536.83 1031.23 536.84 1058.84 C 546.08 1068.06 555.29 1077.31 564.56 1086.52 C 567.77 1089.51 570.16 1093.47 570.78 1097.87 C 572.38 1106.77 566.55 1116.16 557.91 1118.74 C 550.30 1121.36 541.85 1118.16 536.83 1112.15 C 536.84 1126.45 536.85 1140.74 536.83 1155.03 C 536.85 1161.99 533.64 1168.88 528.27 1173.30 C 522.50 1178.16 514.28 1179.95 507.05 1177.74 C 499.49 1175.59 493.32 1169.33 491.15 1161.80 C 489.92 1157.98 490.15 1153.92 490.14 1149.98 C 490.16 1137.37 490.13 1124.76 490.16 1112.16 C 487.62 1114.72 484.88 1117.26 481.40 1118.45 C 474.54 1121.09 466.24 1119.21 461.23 1113.83 C 456.03 1108.56 454.51 1100.11 457.51 1093.35 C 458.76 1090.24 461.11 1087.78 463.47 1085.49 C 472.38 1076.63 481.24 1067.72 490.14 1058.86 C 490.16 1031.25 490.15 1003.63 490.14 976.02 C 473.09 993.01 456.11 1010.08 439.05 1027.07 C 431.82 1034.36 418.70 1033.83 412.06 1026.02 C 405.54 1019.07 405.70 1007.17 412.46 1000.45 C 438.32 974.52 464.24 948.64 490.13 922.75 C 490.16 883.87 490.15 844.99 490.14 806.11 C 445.62 841.26 401.32 876.69 356.70 911.71 C 355.27 921.84 347.81 930.88 337.91 933.69 C 323.76 938.22 307.07 928.75 303.39 914.43 C 300.53 904.36 304.48 892.93 312.75 886.59 C 320.96 830.39 329.32 774.22 337.59 718.03 C 303.91 737.47 270.22 756.89 236.56 776.37 C 227.55 810.14 218.47 843.90 209.45 877.67 C 208.52 881.10 207.79 884.72 205.70 887.69 C 201.19 894.63 191.81 897.83 184.00 895.02 C 175.00 892.17 169.30 881.87 171.79 872.73 C 177.97 849.47 184.25 826.24 190.45 802.99 C 166.52 816.81 142.55 830.57 118.67 844.47 C 115.28 857.35 111.78 870.20 108.36 883.08 C 106.25 892.74 95.70 899.42 86.06 897.06 C 78.42 895.52 72.24 888.76 71.35 881.03 C 70.84 877.65 71.65 874.29 72.52 871.05 C 61.70 877.35 50.84 883.57 40.01 889.85 C 35.45 892.60 30.62 895.40 25.15 895.62 C 15.06 896.50 4.86 890.01 1.55 880.40 C -2.34 870.29 2.16 858.01 11.39 852.49 C 23.93 845.11 36.60 837.95 49.16 830.61 C 44.12 829.53 39.18 827.10 36.17 822.78 C 31.60 816.72 31.33 807.87 35.49 801.52 C 39.65 794.81 48.31 791.32 55.96 793.41 C 69.08 796.90 82.19 800.39 95.29 803.96 C 119.25 790.20 143.17 776.36 167.08 762.52 C 144.03 756.35 120.99 750.17 97.95 743.99 C 91.98 742.49 86.94 737.89 84.92 732.08 C 82.44 725.38 84.27 717.37 89.40 712.40 C 94.03 707.72 101.19 705.80 107.54 707.57 C 141.93 716.81 176.33 725.97 210.70 735.25 C 211.86 735.44 213.21 736.14 214.29 735.30 C 247.60 716.04 280.95 696.87 314.22 677.56 C 261.51 656.63 208.71 635.90 156.05 614.83 C 150.62 616.85 144.60 617.48 138.98 615.87 C 130.23 613.60 122.95 606.54 120.41 597.88 C 117.79 588.71 119.54 578.07 126.15 570.98 C 133.43 562.71 145.91 560.02 156.05 564.18 C 208.71 543.12 261.49 522.38 314.21 501.47 C 280.95 482.12 247.56 462.97 214.26 443.69 C 213.20 442.87 211.88 443.55 210.74 443.75 C 176.37 453.03 141.96 462.20 107.58 471.44 C 100.97 473.30 93.49 471.14 88.87 466.08 C 83.97 460.92 82.45 452.86 85.17 446.28 C 87.32 440.78 92.20 436.47 97.92 435.02 C 120.97 428.83 144.04 422.67 167.09 416.49 C 143.16 402.66 119.25 388.78 95.26 375.04 C 82.40 378.59 69.48 381.96 56.60 385.45 C 49.76 387.50 41.91 385.22 37.25 379.81 C 32.14 374.17 31.05 365.32 34.69 358.62 C 37.46 353.01 43.21 349.58 49.20 348.39 C 36.79 341.24 24.38 334.09 12.00 326.89 C 5.28 323.03 0.71 315.73 0.22 307.99 C -0.36 300.21 3.38 292.30 9.73 287.78 C 17.08 282.34 27.58 281.89 35.43 286.54 C 47.82 293.66 60.19 300.80 72.55 307.97 C 71.19 303.55 70.58 298.69 72.23 294.26 C 74.47 287.47 80.90 282.33 88.02 281.64 C 96.47 280.56 105.22 286.05 107.81 294.18 C 111.75 307.60 114.80 321.31 118.95 334.65 C 142.69 348.58 166.63 362.22 190.46 376.02 C 184.30 353.02 178.14 330.03 171.97 307.04 C 170.32 301.32 171.53 294.90 175.24 290.23 C 179.33 284.89 186.44 282.09 193.08 283.23 C 200.19 284.30 206.39 289.81 208.22 296.78 C 217.68 332.06 227.15 367.34 236.57 402.63 C 270.23 422.11 303.92 441.54 337.61 460.99 C 329.35 404.81 320.97 348.65 312.78 292.46 C 304.92 286.38 300.88 275.75 303.06 266.02 C 305.92 251.26 322.57 241.01 337.03 245.06 C 347.34 247.60 355.25 256.86 356.71 267.30 C 401.33 302.32 445.63 337.75 490.15 372.90 C 490.15 334.01 490.19 295.12 490.13 256.23 C 464.21 230.35 438.31 204.45 412.43 178.53 C 404.55 170.78 405.97 156.35 415.16 150.23 C 420.63 146.24 428.31 145.63 434.37 148.65 C 437.84 150.28 440.37 153.24 443.05 155.89 C 458.75 171.59 474.43 187.31 490.15 202.99 C 490.16 175.38 490.16 147.77 490.15 120.16 C 481.26 111.29 472.41 102.40 463.51 93.55 C 460.92 91.07 458.41 88.32 457.21 84.87 C 454.53 78.05 456.37 69.77 461.68 64.72 C 466.90 59.49 475.32 57.90 482.11 60.83 C 485.29 62.08 487.79 64.48 490.17 66.85 C 490.15 52.55 490.15 38.25 490.16 23.95 C 490.10 15.55 494.88 7.33 502.24 3.28 M 343.26 294.64 C 352.41 356.32 361.35 418.04 370.65 479.68 C 373.60 482.34 377.61 483.81 380.96 486.03 C 417.36 507.03 453.74 528.06 490.14 549.05 C 490.16 503.05 490.15 457.05 490.15 411.05 C 441.19 372.24 392.24 333.43 343.26 294.64 M 536.84 411.05 C 536.85 457.05 536.83 503.05 536.85 549.05 C 576.68 526.09 616.47 503.04 656.32 480.11 C 665.53 418.30 674.59 356.47 683.72 294.65 C 634.75 333.44 585.79 372.24 536.84 411.05 M 173.12 589.38 C 188.32 595.80 203.80 601.58 219.11 607.76 C 261.82 624.68 304.54 641.58 347.24 658.51 C 387.10 635.53 426.94 612.50 466.79 589.51 C 426.95 566.49 387.10 543.48 347.24 520.49 C 289.20 543.44 231.21 566.54 173.12 589.38 M 560.20 589.49 C 600.04 612.51 639.88 635.52 679.75 658.51 C 737.81 635.46 795.93 612.55 853.97 589.47 C 795.88 566.51 737.82 543.49 679.74 520.49 C 639.88 543.46 600.05 566.50 560.20 589.49 M 370.67 698.89 C 361.45 760.69 352.39 822.53 343.27 884.35 C 392.24 845.57 441.20 806.76 490.16 767.95 C 490.15 721.95 490.17 675.95 490.15 629.94 C 450.31 652.90 410.53 675.96 370.67 698.89 M 536.85 629.94 C 536.83 675.94 536.85 721.95 536.84 767.95 C 585.80 806.76 634.75 845.56 683.73 884.35 C 674.61 822.53 665.53 760.71 656.33 698.90 C 616.48 675.96 576.69 652.91 536.85 629.94 Z" />
<path fill="#000000" opacity="1.00" d=" M 399.67 407.88 C 398.92 398.25 396.53 388.82 392.92 379.89 C 400.85 392.47 412.73 402.04 425.32 409.68 C 436.31 416.11 448.27 421.40 460.98 423.14 C 466.59 423.89 472.44 423.71 477.76 421.58 C 467.82 429.16 463.87 441.82 461.31 453.54 C 457.42 474.15 457.98 496.26 466.41 515.71 C 457.40 501.82 444.00 491.34 429.65 483.40 C 419.20 477.83 407.94 473.24 396.06 472.10 C 391.00 471.59 385.83 472.09 381.08 473.96 C 387.62 469.59 391.36 462.31 394.11 455.18 C 399.55 440.11 400.95 423.78 399.67 407.88 M 410.14 411.94 C 410.77 429.11 408.66 446.62 402.10 462.60 C 419.10 465.75 434.97 473.56 448.99 483.52 C 448.36 466.35 450.48 448.85 457.03 432.87 C 440.03 429.70 424.17 421.90 410.14 411.94 Z" />
<path fill="#000000" opacity="1.00" d=" M 582.87 415.73 C 602.85 408.85 621.93 397.28 634.68 380.12 C 625.11 399.47 623.42 421.96 626.49 443.10 C 628.48 454.50 631.76 466.84 640.99 474.60 C 629.55 469.65 616.64 472.71 605.26 476.28 C 585.37 483.25 566.28 494.82 553.73 512.09 C 561.47 497.02 563.90 479.76 563.46 462.99 C 563.10 452.85 561.65 442.65 558.13 433.10 C 555.82 427.01 552.58 420.94 547.16 417.06 C 558.52 422.22 571.49 419.25 582.87 415.73 M 567.72 429.59 C 573.48 445.89 574.63 463.53 573.04 480.66 C 587.57 471.50 603.80 464.61 620.90 462.29 C 615.13 445.98 613.99 428.34 615.59 411.22 C 601.03 420.34 584.83 427.25 567.72 429.59 Z" />
<path fill="#000000" opacity="1.00" d=" M 673.76 546.69 C 676.70 542.54 679.05 537.85 679.67 532.75 C 681.03 544.22 688.97 553.47 697.00 561.18 C 708.78 572.03 722.77 580.56 737.90 585.83 C 743.68 587.76 749.65 589.35 755.78 589.56 C 735.65 591.09 716.56 599.55 700.40 611.39 C 690.07 619.36 679.20 629.09 676.75 642.55 C 675.45 630.92 667.24 621.65 659.12 613.89 C 642.91 599.27 622.71 588.28 600.86 585.50 C 616.13 585.04 630.71 579.28 643.91 571.94 C 655.21 565.39 666.00 557.34 673.76 546.69 M 637.55 586.62 C 652.72 594.68 666.84 605.25 677.39 618.92 C 688.60 605.76 703.33 595.97 718.94 588.76 C 703.76 580.73 689.65 570.15 679.11 556.49 C 667.86 569.62 653.18 579.44 637.55 586.62 Z" />
<path fill="#000000" opacity="1.00" d=" M 324.91 568.85 C 335.89 560.64 347.63 550.61 350.25 536.43 C 351.64 548.58 360.40 558.16 369.00 566.14 C 385.11 580.21 404.95 591.04 426.46 593.43 C 410.35 593.98 394.98 600.15 381.19 608.15 C 370.44 614.64 360.16 622.51 352.86 632.87 C 350.12 636.87 347.84 641.36 347.43 646.27 C 345.78 634.35 337.51 624.80 329.01 616.91 C 316.85 606.01 302.47 597.45 286.90 592.44 C 281.79 590.86 276.55 589.60 271.18 589.46 C 290.62 587.97 309.09 580.01 324.91 568.85 M 308.05 590.24 C 323.24 598.26 337.34 608.85 347.88 622.51 C 359.14 609.38 373.82 599.54 389.46 592.37 C 374.28 584.33 360.17 573.76 349.62 560.09 C 338.38 573.23 323.68 583.05 308.05 590.24 Z" />
<path fill="#000000" opacity="1.00" d=" M 560.69 663.47 C 569.56 677.07 582.66 687.38 596.70 695.25 C 607.02 700.85 618.15 705.45 629.90 706.80 C 635.29 707.45 640.84 707.04 645.92 705.05 C 639.21 709.53 635.41 717.06 632.67 724.41 C 627.63 738.65 626.20 754.00 627.16 769.02 C 627.81 779.36 630.13 789.58 634.13 799.15 C 626.01 786.36 613.89 776.63 601.01 768.93 C 590.19 762.68 578.46 757.56 566.00 755.87 C 560.39 755.11 554.54 755.29 549.23 757.43 C 555.87 752.57 559.75 744.97 562.45 737.40 C 567.31 723.16 568.69 707.87 567.64 692.92 C 566.92 682.81 564.71 672.79 560.69 663.47 M 578.01 695.48 C 578.61 712.65 576.53 730.16 569.96 746.13 C 586.97 749.29 602.82 757.11 616.86 767.06 C 616.22 749.89 618.33 732.38 624.90 716.41 C 607.90 713.25 592.04 705.44 578.01 695.48 Z" />
<path fill="#000000" opacity="1.00" d=" M 421.73 702.73 C 441.63 695.74 460.72 684.17 473.28 666.89 C 463.25 686.80 461.67 710.11 465.13 731.86 C 467.29 742.78 470.51 754.87 479.83 761.92 C 468.72 756.90 456.05 759.65 444.88 763.02 C 424.67 769.81 405.39 781.45 392.44 798.69 C 401.87 779.35 403.57 756.97 400.51 735.91 C 398.52 724.50 395.23 712.13 385.97 704.40 C 397.42 709.35 410.34 706.30 421.73 702.73 M 406.09 716.71 C 411.86 733.02 413.01 750.66 411.41 767.79 C 425.95 758.65 442.16 751.75 459.27 749.42 C 453.51 733.11 452.36 715.47 453.96 698.35 C 439.42 707.50 423.20 714.41 406.09 716.71 Z" />
</g>
</svg>
