<?xml version="1.0" encoding="UTF-8" ?>
<!DOCTYPE svg PUBLIC "-//W3C//DTD SVG 1.1//EN" "http://www.w3.org/Graphics/SVG/1.1/DTD/svg11.dtd">
<svg width="512pt" height="512pt" viewBox="0 0 512 512" version="1.1" xmlns="http://www.w3.org/2000/svg">
<g id="#000000ff">
<path fill="#000000" opacity="1.00" d=" M 159.38 100.99 C 159.62 96.49 164.60 93.09 168.90 94.39 C 171.29 94.93 172.96 96.87 174.14 98.89 C 179.31 107.63 184.20 116.54 189.52 125.20 C 192.42 120.20 195.16 115.11 198.23 110.22 C 200.25 106.77 205.05 105.49 208.50 107.54 C 212.23 109.53 213.43 114.71 211.20 118.25 C 207.00 125.79 202.55 133.19 198.32 140.72 C 201.92 146.89 205.46 153.09 209.06 159.26 C 217.41 144.85 225.72 130.42 234.05 116.00 C 235.24 113.94 236.84 111.90 239.25 111.27 C 243.33 109.91 248.09 112.78 248.88 116.97 C 249.42 119.19 248.58 121.43 247.52 123.35 C 237.69 140.50 227.72 157.56 217.95 174.73 C 221.43 180.67 224.87 186.63 228.27 192.61 C 245.76 185.00 266.26 184.99 283.74 192.62 C 287.18 186.63 290.63 180.64 294.11 174.68 C 284.35 157.56 274.41 140.55 264.61 123.46 C 263.21 121.14 262.43 118.22 263.58 115.63 C 265.03 111.88 269.72 109.88 273.43 111.49 C 275.77 112.37 277.17 114.55 278.37 116.60 C 286.56 130.83 294.77 145.05 303.00 159.26 C 306.60 153.08 310.14 146.87 313.74 140.69 C 309.50 133.15 305.02 125.74 300.82 118.18 C 298.92 115.03 299.54 110.67 302.43 108.34 C 305.57 105.53 311.01 106.18 313.39 109.67 C 316.76 114.67 319.37 120.14 322.65 125.20 C 327.60 116.59 332.59 108.00 337.54 99.39 C 338.89 96.96 340.96 94.57 343.90 94.24 C 348.04 93.50 352.37 96.81 352.61 101.03 C 352.94 103.42 351.62 105.58 350.54 107.60 C 345.63 116.04 340.76 124.50 335.89 132.96 C 341.63 133.05 347.38 132.86 353.13 133.07 C 356.95 132.99 360.47 136.12 360.71 139.96 C 361.29 144.33 357.36 148.47 352.97 148.29 C 344.33 148.44 335.68 148.30 327.03 148.34 C 323.40 154.53 319.84 160.75 316.26 166.96 C 333.19 167.00 350.13 166.89 367.06 166.98 C 371.13 166.72 375.09 169.89 375.32 174.03 C 375.82 178.61 371.56 182.66 367.04 182.28 C 347.15 182.37 327.26 182.30 307.37 182.35 C 303.93 188.40 300.27 194.33 296.98 200.48 C 312.34 211.66 322.56 229.44 324.73 248.31 C 331.62 248.32 338.51 248.29 345.40 248.32 C 355.34 231.26 365.16 214.13 375.06 197.05 C 376.46 194.52 378.93 192.32 381.97 192.32 C 385.73 192.07 389.37 195.09 389.78 198.85 C 390.20 201.34 388.95 203.65 387.78 205.74 C 379.55 219.91 371.36 234.11 363.17 248.31 C 370.35 248.31 377.52 248.32 384.70 248.30 C 388.93 241.00 393.08 233.66 397.35 226.39 C 398.96 223.35 402.47 221.18 405.97 222.08 C 410.55 222.86 413.41 228.39 411.32 232.58 C 408.65 237.98 405.32 243.02 402.43 248.30 C 412.90 248.37 423.38 248.21 433.86 248.37 C 437.61 248.34 441.17 251.21 441.59 255.01 C 442.32 259.48 438.41 263.73 433.93 263.63 C 423.43 263.79 412.93 263.63 402.43 263.70 C 405.34 269.00 408.69 274.07 411.37 279.49 C 413.16 283.19 411.17 287.93 407.45 289.52 C 404.02 291.11 399.65 289.62 397.82 286.34 C 393.36 278.85 389.09 271.25 384.71 263.71 C 377.53 263.67 370.35 263.69 363.17 263.69 C 371.68 278.57 380.38 293.33 388.81 308.24 C 391.30 312.29 389.03 318.02 384.54 319.41 C 381.06 320.56 377.10 318.80 375.41 315.60 C 365.33 298.32 355.48 280.90 345.35 263.65 C 338.47 263.73 331.60 263.67 324.73 263.69 C 322.61 282.70 312.15 300.28 296.93 311.76 C 300.50 317.67 303.88 323.70 307.37 329.65 C 327.23 329.69 347.08 329.64 366.94 329.71 C 371.50 329.30 375.87 333.37 375.28 338.03 C 375.06 342.15 371.05 345.28 367.03 345.03 C 350.11 345.10 333.18 345.01 316.26 345.03 C 319.84 351.24 323.40 357.47 327.03 363.66 C 335.66 363.70 344.30 363.56 352.93 363.71 C 356.53 363.64 359.99 366.23 360.61 369.83 C 361.59 373.97 358.37 378.52 354.09 378.85 C 348.05 379.28 341.97 378.90 335.92 379.04 C 341.01 387.93 346.19 396.78 351.26 405.68 C 353.33 408.84 353.15 413.52 350.06 415.97 C 346.84 419.17 340.97 418.27 338.68 414.41 C 333.17 405.27 328.03 395.92 322.57 386.75 C 319.75 391.59 317.02 396.50 314.15 401.31 C 312.61 404.18 309.27 406.06 306.00 405.37 C 301.16 404.66 298.14 398.70 300.55 394.40 C 304.74 386.59 309.42 379.05 313.74 371.32 C 310.14 365.14 306.58 358.92 302.97 352.75 C 295.11 366.30 287.28 379.87 279.46 393.45 C 277.66 396.82 275.43 400.99 271.05 401.10 C 265.37 401.66 260.93 394.80 263.91 389.86 C 273.78 372.20 284.21 354.85 294.08 337.19 C 290.52 331.43 287.38 325.43 283.82 319.68 C 279.53 320.57 275.34 322.76 270.89 323.51 C 256.73 326.67 241.64 325.17 228.35 319.36 C 224.83 325.40 221.17 331.38 217.93 337.58 C 227.72 354.05 237.10 370.76 246.78 387.30 C 248.10 389.62 249.57 392.25 248.86 395.02 C 248.10 398.94 243.88 401.91 239.94 400.96 C 237.47 400.54 235.55 398.69 234.36 396.58 C 225.90 381.97 217.50 367.34 209.03 352.74 C 205.43 358.93 201.86 365.14 198.29 371.34 C 202.25 378.21 206.20 385.09 210.19 391.94 C 211.39 394.08 212.71 396.44 212.24 399.00 C 211.66 403.17 207.19 406.42 203.04 405.31 C 200.17 404.78 198.32 402.36 197.03 399.95 C 194.52 395.56 191.97 391.20 189.49 386.81 C 184.79 394.43 180.48 402.29 175.96 410.02 C 174.28 412.78 172.92 416.29 169.59 417.42 C 165.12 419.31 159.64 415.73 159.37 410.96 C 159.08 408.58 160.32 406.41 161.43 404.42 C 166.34 395.97 171.21 387.50 176.08 379.03 C 170.04 378.91 163.99 379.27 157.97 378.86 C 152.91 378.54 149.59 372.47 151.97 368.01 C 153.37 364.96 156.78 363.51 160.00 363.66 C 168.31 363.63 176.62 363.66 184.94 363.66 C 188.57 357.49 192.13 351.27 195.71 345.06 C 179.48 345.07 163.25 345.04 147.02 345.08 C 144.49 345.03 141.66 345.10 139.63 343.35 C 136.02 340.78 135.68 334.93 138.96 331.96 C 140.74 330.01 143.49 329.66 145.99 329.68 C 165.53 329.69 185.06 329.69 204.60 329.68 C 208.02 323.59 211.76 317.67 214.98 311.47 C 199.58 300.36 189.42 282.52 187.25 263.69 C 180.36 263.67 173.48 263.72 166.60 263.66 C 156.36 281.09 146.42 298.69 136.17 316.11 C 134.00 319.93 128.26 321.00 124.96 318.03 C 121.65 315.62 121.33 310.76 123.51 307.49 C 131.89 292.87 140.37 278.31 148.76 263.69 C 141.59 263.69 134.41 263.67 127.23 263.70 C 123.04 271.00 118.85 278.30 114.64 285.58 C 113.45 287.70 111.55 289.60 109.06 290.00 C 105.08 290.95 100.84 288.00 100.10 284.05 C 99.47 281.53 100.64 279.10 101.85 276.97 C 104.41 272.55 106.98 268.14 109.51 263.70 C 99.31 263.66 89.11 263.73 78.91 263.68 C 76.20 263.70 73.28 262.76 71.72 260.42 C 69.22 257.13 70.16 251.88 73.67 249.70 C 75.51 248.43 77.82 248.32 79.97 248.30 C 89.82 248.31 99.67 248.32 109.51 248.30 C 106.88 243.65 104.14 239.07 101.50 234.42 C 100.12 232.09 99.32 229.14 100.51 226.56 C 101.98 222.83 106.72 220.84 110.40 222.49 C 112.74 223.38 114.11 225.59 115.32 227.64 C 119.26 234.54 123.25 241.41 127.20 248.30 C 134.39 248.32 141.58 248.31 148.76 248.30 C 140.47 233.93 132.15 219.57 123.84 205.21 C 122.60 203.06 121.56 200.55 122.30 198.04 C 123.25 193.80 128.25 191.16 132.29 192.76 C 135.63 193.97 137.07 197.49 138.78 200.31 C 148.09 216.33 157.22 232.45 166.68 248.37 C 173.53 248.23 180.39 248.35 187.24 248.31 C 189.35 229.32 199.79 211.70 215.04 200.28 C 211.50 194.33 208.08 188.31 204.61 182.32 C 184.74 182.28 164.87 182.36 145.00 182.29 C 140.45 182.69 136.15 178.60 136.69 174.00 C 136.93 169.86 140.90 166.71 144.96 166.97 C 161.87 166.88 178.79 166.97 195.71 166.93 C 192.13 160.73 188.57 154.51 184.94 148.34 C 176.28 148.29 167.62 148.45 158.97 148.28 C 154.64 148.41 150.73 144.40 151.25 140.05 C 151.43 136.14 155.05 132.99 158.91 133.04 C 164.63 132.83 170.36 133.04 176.08 132.96 C 171.20 124.48 166.32 116.01 161.41 107.55 C 160.30 105.55 159.07 103.37 159.38 100.99 M 250.41 202.49 C 227.14 204.84 206.96 223.90 203.12 246.92 C 199.18 266.93 208.79 288.24 225.27 299.86 C 237.90 308.87 254.77 312.37 269.74 307.78 C 289.88 302.62 305.80 284.52 308.86 264.05 C 310.71 253.55 308.85 242.48 304.09 232.97 C 294.88 212.97 272.38 199.97 250.41 202.49 Z" />
</g>
</svg>
