<?xml version="1.0" encoding="UTF-8" ?>
<!DOCTYPE svg PUBLIC "-//W3C//DTD SVG 1.1//EN" "http://www.w3.org/Graphics/SVG/1.1/DTD/svg11.dtd">
<svg width="512pt" height="512pt" viewBox="0 0 512 512" version="1.1" xmlns="http://www.w3.org/2000/svg">
<g id="#000000ff">
<path fill="#000000" opacity="1.00" d=" M 231.96 94.95 C 234.41 87.05 241.04 80.51 249.06 78.39 C 255.91 76.95 263.61 77.32 269.58 81.34 C 278.46 86.87 283.14 98.25 280.57 108.43 C 278.47 117.86 270.50 125.32 261.15 127.40 C 261.10 147.93 261.13 168.46 261.13 188.99 C 271.11 179.07 280.99 169.04 291.02 159.17 C 293.14 156.64 297.51 156.88 299.19 159.77 C 300.72 162.08 299.75 165.10 297.80 166.82 C 285.59 179.02 273.40 191.24 261.15 203.41 C 261.09 218.04 261.14 232.67 261.13 247.30 C 273.46 240.19 285.80 233.11 298.11 225.96 C 299.35 225.39 299.40 223.86 299.84 222.75 C 304.08 206.78 308.35 190.82 312.68 174.88 C 313.20 172.04 316.11 169.91 318.98 170.69 C 321.95 171.35 323.51 174.77 322.50 177.56 C 318.94 191.09 315.25 204.60 311.67 218.13 C 329.65 207.78 347.61 197.41 365.56 187.02 C 364.56 181.45 364.97 175.56 367.49 170.43 C 371.03 162.87 378.60 157.27 386.96 156.50 C 397.97 155.30 409.95 161.79 413.64 172.49 C 417.29 181.91 414.64 193.41 407.05 200.13 C 400.16 206.32 389.72 208.38 381.11 204.79 C 376.65 203.12 373.03 199.87 369.99 196.29 C 352.31 206.54 334.54 216.63 316.93 227.00 C 330.56 230.81 344.29 234.26 357.90 238.12 C 361.50 238.84 362.97 243.78 360.43 246.39 C 358.88 248.29 356.21 248.32 354.05 247.60 C 337.44 243.15 320.83 238.67 304.20 234.26 C 291.58 241.60 278.90 248.85 266.27 256.19 C 278.91 263.50 291.56 270.79 304.21 278.09 C 321.17 273.62 338.09 268.96 355.07 264.56 C 358.40 263.31 362.16 266.38 361.69 269.86 C 361.56 272.44 359.21 274.12 356.87 274.61 C 343.51 278.19 330.13 281.75 316.77 285.34 C 334.47 295.59 352.19 305.81 369.91 316.04 C 376.22 308.09 387.22 304.12 397.08 306.83 C 409.47 309.93 417.84 323.71 414.77 336.13 C 412.52 348.22 400.23 357.41 388.01 356.09 C 378.96 355.37 370.49 349.46 367.00 341.03 C 364.78 336.11 364.78 330.56 365.53 325.32 C 347.52 315.05 329.62 304.59 311.64 294.27 C 315.23 307.92 319.02 321.52 322.54 335.19 C 323.87 338.84 320.05 342.84 316.36 341.65 C 314.08 341.14 312.92 338.96 312.45 336.87 C 308.00 320.25 303.56 303.62 299.09 287.01 C 286.44 279.68 273.78 272.38 261.13 265.07 C 261.12 279.67 261.13 294.28 261.12 308.89 C 273.11 320.90 285.10 332.92 297.12 344.90 C 298.45 346.30 300.07 347.87 299.95 349.98 C 299.98 352.64 297.59 355.02 294.93 354.98 C 292.82 355.13 291.26 353.51 289.87 352.18 C 280.31 342.56 270.70 332.98 261.10 323.39 C 261.09 343.92 261.09 364.45 261.10 384.98 C 268.26 386.69 274.76 391.30 278.19 397.89 C 282.62 405.81 282.14 416.39 276.37 423.52 C 272.42 428.41 267.03 432.29 261.04 434.21 C 255.79 434.57 250.14 435.26 245.31 432.66 C 235.34 428.15 229.14 416.70 231.03 405.88 C 232.46 395.63 240.84 387.17 250.87 384.99 C 250.88 364.45 250.87 343.92 250.87 323.38 C 241.10 333.13 231.34 342.89 221.58 352.65 C 219.90 354.58 217.01 355.80 214.63 354.34 C 211.49 352.77 211.22 348.11 213.84 345.92 C 226.14 333.52 238.57 321.24 250.88 308.85 C 250.87 294.26 250.88 279.66 250.87 265.07 C 238.20 272.38 225.53 279.68 212.87 287.02 C 208.34 303.90 203.87 320.80 199.29 337.66 C 198.74 340.66 195.28 342.77 192.42 341.46 C 189.95 340.55 188.62 337.62 189.44 335.13 C 192.96 321.49 196.74 307.90 200.33 294.27 C 182.34 304.61 164.40 315.03 146.41 325.36 C 147.49 331.78 146.88 338.73 143.27 344.29 C 137.93 353.22 126.64 357.86 116.54 355.64 C 109.80 354.11 103.76 349.73 100.16 343.85 C 97.16 338.47 95.85 332.03 97.11 325.96 C 98.90 316.90 106.05 309.08 115.04 306.80 C 124.88 304.13 135.82 308.12 142.12 316.04 C 159.83 305.82 177.54 295.59 195.23 285.34 C 182.13 281.84 169.04 278.31 155.94 274.84 C 154.13 274.31 152.02 273.79 151.05 272.00 C 149.50 269.67 150.43 266.19 152.92 264.92 C 154.54 263.89 156.52 264.42 158.25 264.81 C 174.77 269.26 191.29 273.67 207.81 278.09 C 220.46 270.80 233.10 263.50 245.73 256.19 C 233.10 248.86 220.44 241.59 207.81 234.26 C 190.87 238.72 173.97 243.35 157.02 247.78 C 153.87 248.96 150.18 246.33 150.33 242.98 C 150.19 240.27 152.55 238.26 155.03 237.79 C 168.36 234.15 181.74 230.68 195.06 227.01 C 177.49 216.59 159.70 206.53 142.04 196.26 C 138.79 200.08 134.85 203.47 130.04 205.11 C 119.77 208.92 107.26 204.85 101.18 195.75 C 94.32 186.10 95.49 171.38 104.41 163.39 C 112.28 156.01 125.00 153.97 134.44 159.50 C 143.96 164.75 148.71 176.49 146.46 186.99 C 164.42 197.39 182.39 207.77 200.36 218.14 C 197.10 205.95 193.85 193.77 190.55 181.60 C 190.00 179.41 189.20 177.24 189.23 174.95 C 189.56 171.91 192.99 169.69 195.89 170.80 C 198.32 171.49 199.20 174.05 199.77 176.24 C 203.78 191.51 207.96 206.73 211.96 222.00 C 212.49 223.36 212.46 225.27 213.95 225.99 C 226.24 233.13 238.56 240.20 250.87 247.30 C 250.86 232.67 250.90 218.04 250.85 203.41 C 238.78 191.43 226.80 179.35 214.74 167.36 C 213.32 165.91 211.70 164.18 212.05 161.96 C 212.25 158.74 215.98 156.44 218.95 157.74 C 221.13 158.92 222.72 160.88 224.48 162.59 C 233.26 171.40 242.07 180.19 250.87 188.99 C 250.87 168.45 250.89 147.91 250.86 127.37 C 244.85 125.88 239.22 122.55 235.62 117.44 C 230.91 111.09 229.55 102.47 231.96 94.95 M 251.34 88.39 C 245.00 90.50 240.45 97.05 241.13 103.77 C 241.55 111.65 249.15 118.17 256.97 117.58 C 265.12 117.07 272.05 109.10 270.82 100.88 C 270.09 91.85 259.85 85.32 251.34 88.39 M 116.35 167.50 C 111.22 169.47 107.36 174.49 107.07 180.01 C 106.12 187.38 111.68 194.82 119.01 195.98 C 127.83 197.81 137.46 190.29 136.73 181.05 C 136.95 171.04 125.52 163.41 116.35 167.50 M 385.30 167.26 C 378.84 169.34 374.53 176.22 375.32 182.94 C 375.87 190.96 383.98 197.46 391.92 196.27 C 400.04 195.47 406.47 187.02 404.78 178.96 C 403.84 170.07 393.57 164.11 385.30 167.26 M 118.35 316.46 C 111.06 318.01 105.77 325.61 107.07 333.01 C 107.76 340.30 114.67 346.19 121.94 346.01 C 129.50 346.11 136.61 339.71 136.70 332.03 C 137.82 322.40 127.65 313.85 118.35 316.46 M 386.46 316.48 C 379.69 318.24 374.50 325.01 375.28 332.09 C 375.45 340.05 383.19 346.75 391.10 345.79 C 399.01 345.37 405.89 338.04 405.04 330.00 C 404.88 320.95 395.09 313.99 386.46 316.48 M 251.36 395.68 C 246.35 397.28 242.26 401.70 241.34 406.91 C 239.76 413.91 244.17 421.58 250.97 423.77 C 254.30 424.04 257.67 424.04 261.00 423.77 C 267.48 421.67 271.87 414.59 270.78 407.84 C 269.89 398.97 259.78 392.46 251.36 395.68 Z" />
</g>
</svg>
