<?xml version="1.0" encoding="UTF-8" ?>
<!DOCTYPE svg PUBLIC "-//W3C//DTD SVG 1.1//EN" "http://www.w3.org/Graphics/SVG/1.1/DTD/svg11.dtd">
<svg width="1000pt" height="997pt" viewBox="0 0 1000 997" version="1.1" xmlns="http://www.w3.org/2000/svg">
<g id="#ffffffff">
</g>
<g id="#231f20ff">
<path fill="#231f20" opacity="1.00" d=" M 543.67 0.00 L 545.45 0.00 C 554.30 0.49 560.04 11.45 554.99 18.84 C 542.00 38.16 528.82 57.35 515.74 76.61 C 514.34 78.90 511.93 80.98 512.32 83.92 C 512.42 131.09 512.26 178.27 512.38 225.44 C 519.52 214.92 526.71 204.43 533.84 193.90 C 535.83 190.71 539.13 188.34 542.90 187.86 C 548.02 187.05 553.39 189.96 555.58 194.65 C 557.46 198.46 557.23 203.29 554.83 206.83 C 540.78 227.71 526.34 248.35 512.48 269.35 C 512.13 277.49 512.47 285.67 512.32 293.83 C 525.88 279.55 539.52 265.35 553.08 251.07 C 556.03 247.77 560.79 246.02 565.14 247.19 C 570.52 248.32 574.66 253.51 574.63 259.01 C 574.73 262.36 573.27 265.60 570.95 267.97 C 551.41 288.47 531.87 308.97 512.34 329.48 C 512.36 347.57 512.32 365.65 512.35 383.74 C 526.30 368.23 540.27 352.75 554.25 337.27 C 555.77 335.49 557.98 334.23 558.89 332.00 C 578.17 285.25 597.59 238.55 616.90 191.82 C 617.66 190.21 616.90 188.47 616.65 186.85 C 613.08 170.27 609.76 153.64 606.21 137.05 C 605.12 132.67 604.05 127.25 607.78 123.78 C 612.29 118.59 621.87 120.60 623.77 127.25 C 626.37 137.75 628.07 148.47 630.61 159.00 C 633.15 152.50 635.77 146.02 638.59 139.63 C 640.87 134.26 648.40 132.52 652.95 136.06 C 656.40 138.59 657.79 143.45 656.13 147.41 C 653.58 153.74 650.87 160.01 648.34 166.35 C 656.98 160.61 665.63 154.88 674.33 149.24 C 678.03 146.68 683.47 147.19 686.57 150.47 C 690.78 154.46 690.02 162.10 685.09 165.17 C 669.09 175.77 653.04 186.30 637.01 196.84 C 634.34 198.23 633.93 201.44 632.75 203.92 C 614.05 249.11 595.33 294.30 576.62 339.49 C 575.84 341.89 576.67 344.46 576.46 346.93 C 575.39 368.05 574.20 389.17 573.22 410.30 C 586.36 397.37 599.48 384.42 612.65 371.53 C 613.56 345.34 614.42 319.15 615.33 292.97 C 615.56 288.28 614.91 282.98 618.11 279.09 C 621.94 273.90 630.06 272.79 635.16 276.73 C 638.41 279.05 640.31 283.07 640.23 287.05 C 639.53 306.82 638.84 326.61 638.23 346.39 C 643.90 340.49 650.25 335.15 655.56 328.97 C 660.69 304.39 665.36 279.70 670.39 255.10 C 671.56 249.40 677.30 245.29 683.04 245.55 C 690.22 245.66 696.03 253.02 694.53 260.03 C 692.06 272.88 689.37 285.68 686.90 298.52 C 720.64 265.39 754.34 232.21 788.10 199.10 C 788.96 198.26 789.78 197.31 789.89 196.05 C 794.64 172.00 799.44 147.97 804.22 123.94 C 805.15 118.36 810.35 114.11 815.93 113.90 C 822.20 113.49 828.06 118.74 828.61 124.95 C 828.81 127.97 827.97 130.93 827.40 133.87 C 825.12 144.89 823.11 155.97 820.74 166.97 C 826.92 161.06 832.91 154.96 839.05 149.01 C 843.57 144.50 851.56 144.56 856.06 149.05 C 860.86 153.48 861.08 161.81 856.44 166.43 C 850.33 172.54 844.13 178.56 837.94 184.60 C 850.68 182.31 863.41 179.95 876.15 177.64 C 880.56 176.68 885.45 178.25 888.28 181.83 C 891.64 185.82 892.00 191.97 889.14 196.33 C 887.16 199.50 883.68 201.49 880.02 201.98 C 856.51 206.21 833.03 210.60 809.51 214.80 C 808.33 215.11 806.97 215.13 806.04 216.00 C 772.00 249.40 738.04 282.88 703.98 316.26 C 716.57 313.80 729.23 311.64 741.86 309.37 C 747.15 308.06 753.08 310.49 755.62 315.37 C 759.93 322.34 754.96 332.42 746.90 333.47 C 722.63 337.87 698.36 342.21 674.10 346.63 C 672.69 346.81 671.79 347.99 670.82 348.87 C 665.80 353.92 660.64 358.84 655.61 363.88 C 675.08 363.70 694.56 363.24 714.04 363.08 C 720.65 362.75 727.28 368.18 727.46 374.96 C 727.77 381.29 722.44 387.34 716.05 387.56 C 688.01 388.13 659.97 388.53 631.93 388.92 C 630.54 388.78 629.36 389.45 628.48 390.45 C 616.46 402.45 604.23 414.25 592.18 426.22 C 614.32 424.85 636.56 423.97 658.66 422.73 C 704.31 403.72 749.93 384.60 795.57 365.57 C 797.72 364.49 800.54 364.11 801.92 361.93 C 811.67 346.95 821.49 332.02 831.25 317.04 C 833.51 313.07 836.82 308.57 842.00 309.03 C 848.98 308.62 853.92 317.34 850.19 323.20 C 844.51 332.22 838.53 341.06 832.74 350.01 C 839.19 347.39 845.56 344.57 852.04 342.02 C 856.94 339.95 863.07 343.00 864.51 348.09 C 865.93 352.46 863.86 357.67 859.65 359.60 C 853.39 362.39 846.99 364.88 840.70 367.61 C 850.94 370.42 861.55 371.82 871.87 374.37 C 877.22 375.86 880.10 382.51 877.67 387.49 C 875.91 391.44 871.25 393.97 866.99 392.92 C 848.60 389.19 830.23 385.42 811.87 381.59 C 810.29 381.32 808.65 380.79 807.16 381.59 C 760.72 400.99 714.29 420.40 667.85 439.79 C 665.51 440.63 664.62 443.20 662.84 444.76 C 646.97 459.08 631.13 473.45 615.25 487.76 C 633.53 487.74 651.80 488.11 670.08 488.11 C 690.95 468.60 711.72 448.99 732.58 429.48 C 737.65 424.65 746.73 425.54 750.71 431.31 C 754.50 436.23 753.69 443.78 749.02 447.85 C 734.58 461.30 720.31 474.93 705.80 488.31 C 712.86 488.36 719.92 488.29 726.98 488.37 C 728.50 488.30 730.21 488.57 731.51 487.54 C 751.88 473.89 772.25 460.23 792.65 446.60 C 796.71 443.76 802.48 443.49 806.62 446.33 C 811.43 449.34 813.56 455.94 811.33 461.17 C 810.29 463.95 808.07 466.06 805.63 467.64 C 795.15 474.62 784.75 481.72 774.25 488.66 C 820.16 488.99 866.07 489.28 911.99 489.52 C 914.47 489.32 917.36 490.21 919.54 488.62 C 939.28 475.29 959.13 462.12 978.88 448.80 C 981.31 447.12 983.98 445.48 987.06 445.47 C 993.40 445.03 999.35 450.20 1000.00 456.49 L 1000.00 459.57 C 999.18 464.47 995.43 467.92 991.28 470.23 C 981.53 476.71 971.85 483.30 962.07 489.74 C 970.72 489.95 979.39 489.73 988.04 490.04 C 994.30 490.19 999.69 495.77 999.75 502.01 C 999.93 508.44 994.44 514.46 987.95 514.56 C 979.31 514.72 970.66 514.32 962.02 514.34 C 972.74 521.81 983.48 529.25 994.17 536.76 C 998.33 539.59 1000.53 545.16 999.02 550.04 C 997.57 555.65 991.75 559.68 985.98 558.98 C 981.27 558.64 977.85 555.06 974.06 552.69 C 955.48 539.99 937.06 527.04 918.38 514.49 C 911.66 513.77 904.78 514.35 898.00 514.12 C 856.73 513.70 815.45 513.61 774.17 513.38 C 783.38 519.65 792.55 525.99 801.74 532.28 C 805.20 534.68 809.32 536.89 810.83 541.10 C 813.12 546.62 810.68 553.55 805.39 556.36 C 801.37 558.61 796.09 558.39 792.33 555.70 C 771.70 541.67 751.27 527.33 730.58 513.42 C 722.33 512.63 713.94 513.45 705.65 512.92 C 720.12 526.93 734.73 540.81 749.18 554.84 C 753.01 558.63 753.49 565.05 750.61 569.54 C 747.78 574.32 741.44 576.54 736.21 574.70 C 732.99 573.64 730.73 570.97 728.34 568.73 C 708.86 550.07 689.49 531.31 669.97 512.71 C 652.16 512.67 634.36 512.49 616.56 512.43 C 631.52 525.78 646.35 539.26 661.26 552.66 C 663.02 554.23 664.60 556.14 666.89 556.96 C 704.61 572.28 742.31 587.65 780.02 602.98 C 790.02 606.87 799.82 611.43 809.96 614.88 C 829.41 611.13 848.73 606.55 868.14 602.59 C 872.80 601.48 877.83 604.52 879.16 609.09 C 881.00 614.34 877.32 620.48 871.88 621.47 C 861.84 623.64 851.79 625.77 841.75 627.90 C 847.96 630.99 854.63 633.07 860.92 635.99 C 865.48 638.05 867.64 644.00 865.49 648.52 C 863.59 652.96 858.01 655.48 853.46 653.63 C 846.97 651.15 840.59 648.41 834.15 645.80 C 839.98 654.66 845.95 663.43 851.73 672.32 C 855.26 677.74 851.44 685.83 845.06 686.63 C 840.53 687.59 836.30 684.66 834.24 680.81 C 824.80 666.58 815.32 652.37 805.87 638.14 C 804.20 635.82 803.01 632.69 799.97 631.90 C 753.03 612.92 706.21 593.62 659.23 574.75 C 656.89 575.49 654.46 575.98 652.01 575.75 C 631.42 574.67 610.82 573.76 590.23 572.58 C 603.16 585.45 615.96 598.45 628.86 611.36 C 657.24 612.09 685.63 612.95 714.01 613.70 C 719.34 613.75 724.32 617.68 725.64 622.82 C 727.18 628.29 724.59 634.85 719.31 637.25 C 716.09 638.79 712.43 638.23 709.00 638.24 C 690.66 637.64 672.31 637.25 653.97 636.68 C 659.22 641.89 664.44 647.14 669.63 652.42 C 670.55 653.42 671.70 654.23 673.11 654.40 C 697.11 658.98 721.10 663.67 745.09 668.33 C 751.73 669.39 756.48 676.60 754.82 683.12 C 753.48 689.53 746.45 693.84 740.11 692.45 C 727.49 690.10 714.93 687.51 702.31 685.18 C 734.73 717.92 767.34 750.47 799.77 783.21 C 801.57 784.90 803.16 787.34 805.86 787.57 C 829.62 792.09 853.34 796.79 877.08 801.34 C 882.40 802.15 886.82 806.73 887.41 812.08 C 888.24 817.88 884.15 823.74 878.57 825.29 C 874.53 826.54 870.38 825.09 866.39 824.39 C 855.79 822.36 845.21 820.20 834.60 818.26 C 840.62 824.28 846.65 830.31 852.63 836.38 C 857.33 841.05 857.04 849.60 852.03 853.93 C 847.50 858.25 839.68 858.20 835.25 853.77 C 829.11 847.79 823.19 841.60 817.10 835.59 C 819.42 848.43 821.96 861.24 824.32 874.08 C 825.38 879.59 822.12 885.51 816.91 887.57 C 811.43 889.99 804.49 887.61 801.55 882.43 C 799.89 879.56 799.68 876.17 799.01 873.00 C 794.71 850.12 790.39 827.25 786.09 804.37 C 752.24 770.35 718.40 736.31 684.52 702.32 C 687.00 715.14 689.43 727.98 691.78 740.82 C 693.08 746.94 689.05 753.54 682.98 755.07 C 676.38 757.08 668.81 752.42 667.64 745.62 C 663.05 721.43 658.50 697.23 653.98 673.03 C 653.85 671.72 653.16 670.65 652.22 669.80 C 646.94 664.50 641.58 659.28 636.44 653.84 C 636.78 673.89 637.41 693.93 637.69 713.97 C 637.74 719.51 633.50 724.66 628.11 725.80 C 623.04 727.21 617.30 724.63 614.79 720.06 C 612.75 716.76 613.12 712.73 612.91 709.02 C 612.49 682.25 611.68 655.50 611.27 628.73 C 598.69 615.88 585.90 603.22 573.28 590.40 C 574.25 609.95 575.30 629.49 576.31 649.04 C 576.48 651.60 576.20 654.31 577.24 656.74 C 597.28 703.79 617.25 750.87 637.23 797.95 C 637.67 799.31 638.81 800.21 639.99 800.95 C 654.44 810.16 668.81 819.49 683.23 828.76 C 686.35 830.85 690.26 832.52 691.77 836.25 C 693.90 840.85 691.52 846.87 686.82 848.77 C 683.75 850.22 680.04 849.75 677.29 847.84 C 668.65 842.26 659.95 836.77 651.37 831.10 C 653.95 837.58 656.91 843.91 659.47 850.40 C 661.84 855.78 657.78 862.54 652.01 863.28 C 647.78 864.04 643.26 861.53 641.67 857.54 C 638.95 851.33 636.38 845.06 633.74 838.83 C 631.50 848.88 629.73 859.04 627.64 869.13 C 626.94 873.27 623.26 876.62 619.09 877.00 C 613.15 877.75 607.50 872.00 608.65 866.04 C 612.44 846.41 616.39 826.81 620.27 807.19 C 600.52 760.74 580.79 714.28 561.08 667.82 C 560.10 665.23 556.95 664.73 555.26 662.75 C 540.91 646.99 526.70 631.09 512.34 615.34 C 512.36 633.41 512.34 651.47 512.34 669.54 C 531.91 690.02 551.55 710.44 571.09 730.96 C 574.94 734.85 575.80 741.30 572.95 746.00 C 570.29 750.83 564.09 753.31 558.84 751.64 C 555.12 750.71 552.66 747.57 550.13 744.93 C 537.57 731.67 524.95 718.46 512.34 705.24 C 512.46 713.43 512.12 721.64 512.48 729.83 C 526.45 750.98 541.01 771.77 555.10 792.85 C 558.69 798.39 556.42 806.58 550.60 809.63 C 545.46 812.67 538.21 811.22 534.73 806.34 C 527.17 795.52 519.95 784.47 512.38 773.67 C 512.30 819.77 512.39 865.88 512.32 911.99 C 512.47 914.24 511.75 916.85 513.26 918.78 C 526.50 938.17 539.65 957.63 552.88 977.03 C 554.77 979.68 556.77 982.56 556.80 985.96 C 557.14 990.33 554.76 994.54 551.22 997.00 L 537.73 997.00 C 534.70 994.61 532.79 991.20 530.64 988.08 C 524.56 979.10 518.45 970.15 512.39 961.17 C 512.26 969.77 512.43 978.37 512.31 986.97 C 512.32 991.01 509.93 994.62 506.79 997.00 L 493.25 997.00 C 490.12 994.64 487.77 991.04 487.73 987.03 C 487.59 978.38 487.76 969.73 487.63 961.09 C 480.69 971.30 473.72 981.50 466.79 991.72 C 465.49 993.68 463.98 995.51 462.15 997.00 L 448.65 997.00 C 443.13 993.25 441.33 985.08 445.31 979.60 C 458.29 960.49 471.29 941.39 484.31 922.30 C 485.70 920.02 488.10 917.94 487.72 915.02 C 487.62 867.84 487.75 820.66 487.62 773.48 C 480.65 783.86 473.56 794.15 466.57 804.51 C 464.92 807.12 462.68 809.48 459.68 810.48 C 454.31 812.61 447.65 810.18 444.83 805.17 C 442.47 801.24 442.59 795.97 445.15 792.17 C 459.19 771.29 473.70 750.68 487.55 729.69 C 487.91 721.53 487.55 713.35 487.68 705.19 C 473.91 719.60 460.17 734.04 446.41 748.45 C 442.66 752.39 436.31 753.29 431.62 750.55 C 424.83 747.07 423.26 736.96 428.56 731.51 C 448.24 710.82 467.96 690.18 487.68 669.53 C 487.72 651.44 487.62 633.35 487.69 615.26 C 473.86 630.54 460.08 645.87 446.27 661.16 C 444.58 663.17 441.91 664.40 441.02 667.02 C 421.76 713.70 402.38 760.34 383.09 807.00 C 382.32 808.41 382.99 810.01 383.20 811.49 C 387.06 829.93 390.95 848.38 394.64 866.86 C 395.76 871.90 391.97 877.15 386.98 878.04 C 382.05 879.08 376.71 875.54 375.81 870.57 C 373.57 860.41 371.70 850.16 369.37 840.01 C 366.81 846.24 364.32 852.50 361.68 858.69 C 359.84 863.52 353.83 866.09 349.09 863.99 C 344.38 862.19 341.90 856.37 343.76 851.71 C 346.28 845.29 349.05 838.96 351.67 832.58 C 342.93 838.27 334.24 844.05 325.47 849.70 C 321.02 852.84 314.18 850.98 311.79 846.13 C 309.28 841.79 311.09 835.82 315.36 833.34 C 330.48 823.48 345.53 813.52 360.67 803.70 C 362.34 802.50 364.56 801.65 365.32 799.58 C 383.29 756.16 401.24 712.73 419.24 669.33 C 420.67 665.53 422.63 661.91 423.69 657.98 C 423.27 651.63 423.91 645.30 424.24 638.96 C 425.03 622.16 425.98 605.37 426.79 588.56 C 413.63 601.43 400.60 614.42 387.39 627.24 C 386.39 653.49 385.65 679.75 384.73 706.00 C 384.53 710.71 385.12 716.01 381.89 719.91 C 377.29 726.21 366.69 726.11 362.27 719.65 C 358.98 715.47 359.89 709.91 360.12 705.00 C 360.60 687.45 361.33 669.90 361.80 652.35 C 356.19 658.20 350.08 663.57 344.60 669.53 C 339.20 694.22 334.71 719.16 329.56 743.92 C 328.26 750.30 321.26 754.74 314.93 753.16 C 308.70 751.95 304.22 745.34 305.44 739.12 C 307.86 726.14 310.72 713.24 313.04 700.25 C 279.23 733.71 245.14 766.91 211.31 800.35 C 210.62 801.06 210.21 801.93 210.10 802.95 C 205.34 827.01 200.55 851.07 195.72 875.12 C 194.70 880.56 189.60 884.90 184.04 884.89 C 176.69 885.51 170.15 878.12 171.48 870.91 C 173.94 857.86 176.63 844.84 179.25 831.82 C 172.86 837.91 166.76 844.30 160.30 850.32 C 155.60 854.52 147.75 854.05 143.52 849.42 C 139.07 844.97 138.93 836.96 143.43 832.49 C 149.50 826.39 155.71 820.43 161.79 814.33 C 148.84 816.74 135.88 819.09 122.91 821.38 C 117.21 822.44 111.37 818.55 109.58 813.16 C 107.51 807.67 110.22 800.99 115.41 798.34 C 118.06 797.03 121.05 796.72 123.93 796.18 C 146.30 792.17 168.65 788.05 191.02 784.05 C 192.26 783.85 193.47 783.45 194.32 782.49 C 228.08 749.16 262.02 716.02 295.78 682.70 C 283.27 685.14 270.70 687.32 258.16 689.62 C 253.60 690.67 248.45 689.24 245.57 685.44 C 239.74 678.90 243.77 667.21 252.40 665.69 C 277.26 661.04 302.15 656.58 327.03 652.04 C 332.77 646.30 338.69 640.73 344.32 634.87 C 324.21 635.30 304.09 635.50 283.98 635.85 C 278.39 636.16 273.72 631.26 272.79 626.02 C 271.59 620.69 274.51 614.82 279.42 612.46 C 282.67 610.82 286.42 611.26 289.93 611.16 C 316.61 610.56 343.30 610.36 369.98 609.81 C 382.64 597.49 395.15 585.02 407.80 572.68 C 385.84 573.90 363.79 574.95 341.87 576.00 C 295.84 595.13 249.88 614.41 203.86 633.57 C 201.58 634.60 198.74 635.16 197.53 637.62 C 187.71 652.76 177.81 667.85 168.02 683.01 C 166.00 686.70 162.55 690.24 157.99 689.90 C 151.19 690.03 146.25 681.75 149.74 675.86 C 155.41 666.77 161.43 657.88 167.23 648.87 C 160.74 651.52 154.33 654.37 147.81 656.92 C 143.19 658.72 137.53 656.17 135.75 651.57 C 133.88 647.17 135.80 641.52 140.14 639.41 C 146.51 636.49 153.09 634.03 159.49 631.15 C 149.37 628.91 139.16 627.07 129.04 624.86 C 124.52 624.01 121.14 619.53 121.49 614.96 C 121.61 609.32 127.48 604.56 133.04 606.07 C 151.37 609.74 169.70 613.47 188.02 617.24 C 189.59 617.45 191.29 618.13 192.82 617.33 C 239.74 597.73 286.67 578.12 333.60 558.54 C 334.64 556.98 335.68 555.40 337.06 554.11 C 352.95 539.84 368.81 525.53 384.68 511.23 C 366.46 511.17 348.24 510.93 330.03 510.80 C 309.10 530.23 288.38 549.89 267.53 569.40 C 263.00 573.73 255.20 573.70 250.72 569.32 C 245.69 564.80 245.58 556.12 250.59 551.54 C 265.09 537.92 279.52 524.21 294.14 510.70 C 287.08 510.61 280.02 510.70 272.97 510.63 C 271.44 510.68 269.76 510.44 268.48 511.46 C 247.82 525.18 227.17 538.93 206.50 552.63 C 199.59 557.51 188.97 552.44 188.02 544.15 C 187.12 539.31 189.61 534.24 193.73 531.67 C 204.37 524.55 214.95 517.33 225.66 510.33 C 177.73 509.95 129.79 509.68 81.85 509.44 C 61.23 523.27 40.59 537.08 19.98 550.90 C 16.87 553.19 12.79 554.13 9.05 553.05 C 4.22 551.81 0.59 547.37 0.00 542.47 L 0.00 539.49 C 0.73 536.01 2.62 532.71 5.68 530.80 C 16.40 523.60 27.13 516.39 37.89 509.25 C 30.26 509.11 22.63 509.14 15.01 509.08 C 12.34 508.99 9.54 508.93 7.10 507.71 C 1.82 505.20 -1.10 498.56 0.85 493.00 C 2.46 487.84 7.65 484.16 13.07 484.37 C 21.37 484.41 29.67 484.56 37.97 484.73 C 27.29 477.11 16.45 469.73 5.73 462.18 C 2.74 460.11 0.84 456.63 0.53 453.03 C 0.02 447.28 4.26 441.58 9.87 440.33 C 13.50 439.30 17.43 440.29 20.43 442.46 C 38.43 454.90 56.47 467.29 74.49 479.72 C 77.05 481.34 79.35 483.46 82.14 484.69 C 130.05 485.24 177.97 485.28 225.89 485.65 C 215.17 478.14 204.30 470.84 193.58 463.35 C 188.19 459.77 186.66 451.73 190.38 446.43 C 193.98 440.79 202.41 439.32 207.79 443.23 C 228.37 457.31 248.82 471.60 269.46 485.58 C 277.69 486.31 286.03 485.57 294.30 486.08 C 281.65 473.64 268.68 461.53 255.99 449.15 C 253.16 446.30 249.58 443.84 248.22 439.90 C 246.22 434.58 248.60 428.06 253.55 425.27 C 258.28 422.37 264.87 423.24 268.69 427.27 C 289.17 446.93 309.65 466.58 330.11 486.24 C 347.87 486.34 365.63 486.48 383.40 486.52 C 367.57 472.34 351.83 458.07 336.12 443.78 C 334.03 441.95 331.25 441.30 328.76 440.22 C 283.29 421.72 237.81 403.24 192.35 384.73 C 191.11 384.20 189.77 383.84 188.44 384.25 C 169.61 388.26 150.77 392.30 131.93 396.26 C 126.29 397.71 120.31 392.79 120.38 387.04 C 120.14 382.51 123.61 378.24 128.05 377.44 C 138.15 375.26 148.28 373.17 158.37 370.97 C 152.03 368.19 145.49 365.86 139.17 363.04 C 134.83 361.13 132.52 355.64 134.24 351.21 C 135.84 346.19 142.05 343.36 146.89 345.45 C 153.26 347.96 159.59 350.58 165.92 353.19 C 160.08 344.40 154.16 335.67 148.41 326.83 C 144.87 321.69 148.06 313.91 154.03 312.47 C 158.25 311.22 162.82 313.32 165.02 317.03 C 175.50 332.83 186.01 348.62 196.48 364.43 C 197.56 366.47 199.95 366.95 201.89 367.81 C 247.94 386.43 293.89 405.29 339.96 423.87 C 342.23 423.27 344.57 422.86 346.93 423.02 C 367.91 424.12 388.89 425.11 409.86 426.28 C 397.69 414.08 385.51 401.88 373.41 389.61 C 372.42 388.79 371.55 387.40 370.08 387.61 C 342.03 386.80 313.97 386.05 285.92 385.28 C 281.99 385.17 278.20 383.12 276.04 379.84 C 272.43 374.82 273.61 367.24 278.45 363.44 C 281.32 360.92 285.28 360.42 288.96 360.74 C 307.98 361.48 327.01 361.81 346.03 362.41 C 340.20 356.68 334.72 350.57 328.74 345.00 C 306.64 340.33 284.33 336.41 262.14 332.05 C 257.52 331.01 252.17 330.97 248.60 327.41 C 244.05 323.18 243.58 315.44 247.67 310.73 C 250.57 307.23 255.40 305.56 259.86 306.53 C 272.54 308.94 285.21 311.37 297.88 313.83 C 264.69 280.46 231.45 247.13 198.29 213.72 C 197.32 212.78 196.31 211.73 194.89 211.59 C 170.89 206.95 146.89 202.27 122.88 197.63 C 120.28 197.14 117.76 196.00 115.94 194.04 C 111.71 189.87 111.19 182.52 115.02 177.93 C 117.78 174.22 122.68 172.44 127.19 173.38 C 139.97 175.78 152.72 178.35 165.50 180.76 C 159.46 174.67 153.37 168.63 147.35 162.52 C 142.80 158.04 142.84 149.93 147.42 145.48 C 151.86 140.57 160.25 140.48 164.85 145.23 C 170.97 151.19 176.88 157.37 182.96 163.38 C 180.59 150.57 178.14 137.78 175.79 124.97 C 174.45 118.74 178.81 112.07 185.00 110.69 C 191.46 108.87 198.71 113.45 199.92 120.02 C 204.26 142.81 208.48 165.63 212.75 188.43 C 213.37 191.14 213.16 194.43 215.62 196.29 C 248.96 229.51 281.89 263.16 315.37 296.22 C 313.02 284.13 310.83 272.02 308.49 259.93 C 305.75 252.03 312.47 242.51 321.03 243.59 C 326.65 243.88 331.66 248.32 332.50 253.90 C 336.94 277.59 341.46 301.28 345.87 324.98 C 346.16 326.21 346.26 327.65 347.32 328.53 C 352.72 333.98 358.21 339.36 363.55 344.89 C 363.20 324.92 362.56 304.97 362.28 285.01 C 362.08 277.57 369.86 271.31 377.08 273.17 C 382.71 273.96 387.05 279.25 386.83 284.92 C 387.62 313.34 388.10 341.76 388.78 370.18 C 401.43 382.87 414.07 395.56 426.68 408.29 C 425.49 386.71 424.75 365.05 423.16 343.51 C 408.71 309.18 394.05 274.92 379.50 240.63 C 373.53 226.90 368.03 212.94 361.77 199.36 C 345.33 188.33 328.44 177.90 311.86 167.05 C 307.76 164.47 306.12 158.64 308.60 154.41 C 310.98 149.57 317.73 147.78 322.19 150.83 C 331.01 156.43 339.79 162.09 348.56 167.77 C 345.87 161.33 343.00 154.97 340.42 148.49 C 338.38 143.74 341.28 137.86 346.06 136.18 C 350.42 134.45 355.94 136.50 357.92 140.80 C 360.84 147.23 363.46 153.79 366.24 160.28 C 368.39 150.04 370.30 139.76 372.43 129.52 C 373.18 125.44 376.86 122.25 380.96 121.94 C 386.93 121.04 392.55 127.03 391.33 132.92 C 387.64 151.96 383.76 170.96 379.98 189.98 C 379.26 192.35 380.91 194.44 381.68 196.56 C 400.98 241.92 420.22 287.31 439.53 332.66 C 441.85 333.82 444.10 335.21 445.78 337.23 C 459.70 352.73 473.78 368.09 487.68 383.61 C 487.70 365.56 487.66 347.51 487.66 329.46 C 468.41 309.34 449.15 289.23 429.89 269.12 C 427.42 266.69 425.49 263.53 425.37 259.98 C 424.86 254.12 429.16 248.32 434.93 247.17 C 439.52 245.94 444.41 247.97 447.43 251.49 C 460.82 265.62 474.35 279.61 487.69 293.79 C 487.67 286.19 487.67 278.59 487.68 270.99 C 487.84 269.62 487.22 268.41 486.45 267.34 C 472.83 247.36 459.27 227.34 445.66 207.37 C 443.22 204.12 442.45 199.69 443.88 195.86 C 445.59 190.88 450.76 187.41 456.02 187.75 C 460.19 187.90 464.01 190.36 466.18 193.88 C 473.32 204.40 480.49 214.90 487.66 225.40 C 487.75 178.25 487.61 131.10 487.69 83.95 C 487.72 82.64 487.62 81.27 486.74 80.23 C 472.95 59.99 459.19 39.73 445.43 19.47 C 441.47 14.18 442.90 5.90 448.42 2.26 C 453.76 -1.59 462.00 -0.13 465.60 5.42 C 473.00 16.15 480.29 26.97 487.64 37.73 C 487.78 29.14 487.57 20.55 487.69 11.96 C 487.69 4.45 495.73 -1.57 502.95 0.41 C 508.19 1.67 512.32 6.65 512.33 12.09 C 512.43 20.62 512.26 29.14 512.36 37.67 C 519.46 27.07 526.70 16.57 533.86 6.01 C 535.96 2.56 539.72 0.50 543.67 0.00 M 467.22 397.95 C 473.50 412.57 479.71 427.24 485.93 441.89 C 486.87 444.44 489.02 446.21 490.74 448.23 C 493.79 451.71 496.98 455.07 500.01 458.57 C 504.76 452.46 511.72 447.72 514.11 440.07 C 519.70 426.78 525.00 413.37 530.77 400.16 C 523.30 407.88 516.40 416.15 509.02 423.97 C 504.95 428.55 497.35 429.19 492.58 425.37 C 489.52 422.77 487.09 419.53 484.35 416.61 C 478.57 410.45 473.17 403.94 467.22 397.95 M 529.88 452.63 C 529.38 458.58 529.42 464.58 528.90 470.55 C 534.90 470.21 540.94 470.14 546.91 469.43 C 561.59 463.26 576.36 457.26 590.97 450.93 C 583.14 451.23 575.29 451.68 567.46 452.09 C 563.53 452.19 559.50 453.74 555.66 452.27 C 551.01 450.53 547.35 446.06 546.97 441.05 C 547.28 429.81 548.29 418.59 548.50 407.35 C 542.36 422.47 535.89 437.46 529.88 452.63 M 451.56 410.70 C 451.98 420.80 452.57 430.90 453.12 441.00 C 452.63 447.17 447.17 452.33 440.96 452.42 C 429.37 452.20 417.76 450.96 406.18 450.96 C 421.56 456.93 436.73 463.43 452.07 469.45 C 458.40 470.01 464.76 470.24 471.11 470.54 C 470.03 463.72 471.79 456.30 468.47 449.98 C 462.74 436.93 457.55 423.61 451.56 410.70 M 555.08 486.99 C 550.03 490.72 545.76 495.42 540.94 499.44 C 545.28 503.26 549.29 507.53 553.98 510.93 C 568.60 517.08 583.40 522.84 598.04 528.99 C 592.44 523.61 586.51 518.59 580.82 513.31 C 578.43 510.96 575.35 509.29 573.46 506.47 C 570.28 501.58 571.08 494.45 575.44 490.51 C 583.59 483.07 591.85 475.75 599.98 468.28 C 584.94 474.32 569.99 480.65 555.08 486.99 M 401.97 469.99 C 409.59 477.05 417.26 484.09 425.18 490.82 C 429.08 494.91 429.52 501.72 426.34 506.35 C 423.91 509.55 420.57 511.89 417.68 514.64 C 411.82 520.13 405.58 525.23 399.89 530.90 C 414.89 524.51 430.01 518.41 444.98 511.95 C 449.94 508.15 454.27 503.56 459.08 499.56 C 453.23 494.86 448.65 488.05 441.13 485.92 C 428.07 480.62 415.02 475.28 401.97 469.99 M 409.33 547.76 C 417.24 547.78 425.14 547.12 433.05 546.76 C 436.43 546.77 439.79 545.18 443.15 546.26 C 448.66 547.70 453.23 553.08 452.94 558.92 C 452.61 569.79 451.80 580.64 451.36 591.51 C 457.70 576.69 463.76 561.73 469.91 546.84 C 470.79 540.75 470.54 534.51 471.01 528.37 C 465.03 528.85 458.95 528.59 453.04 529.60 C 438.44 535.59 423.92 541.77 409.33 547.76 M 528.92 528.38 C 529.44 533.92 529.24 539.53 529.90 545.05 C 535.94 559.71 542.33 574.24 548.40 588.90 C 548.17 578.91 547.27 568.95 547.04 558.96 C 546.69 552.41 552.47 546.35 559.06 546.46 C 570.69 546.79 582.30 547.69 593.92 548.12 C 579.66 542.22 565.33 536.48 551.06 530.60 C 549.77 530.10 548.52 529.42 547.13 529.34 C 541.06 528.93 534.99 528.68 528.92 528.38 M 485.78 558.93 C 480.26 572.22 474.82 585.55 469.23 598.81 C 476.80 590.87 483.92 582.50 491.45 574.52 C 495.90 569.83 504.10 569.82 508.56 574.50 C 516.81 583.11 524.46 592.29 532.71 600.90 C 526.02 585.67 519.79 570.24 513.06 555.04 C 509.00 549.87 504.24 545.30 500.01 540.27 C 495.32 546.53 488.13 551.17 485.78 558.93 Z" />
</g>
</svg>
