<?xml version="1.0" encoding="UTF-8" ?>
<!DOCTYPE svg PUBLIC "-//W3C//DTD SVG 1.1//EN" "http://www.w3.org/Graphics/SVG/1.1/DTD/svg11.dtd">
<svg width="512pt" height="512pt" viewBox="0 0 512 512" version="1.1" xmlns="http://www.w3.org/2000/svg">
<g id="#000000ff">
<path fill="#000000" opacity="1.00" d=" M 250.98 83.89 C 250.89 81.15 253.28 78.67 256.04 78.76 C 258.80 78.70 261.20 81.19 261.06 83.95 C 261.24 92.55 261.06 101.17 261.13 109.78 C 266.13 104.93 270.91 99.86 275.95 95.06 C 277.98 92.87 281.79 93.01 283.59 95.42 C 285.47 97.58 284.77 100.96 282.69 102.72 C 275.54 109.94 268.30 117.08 261.13 124.27 C 261.12 136.16 261.12 148.05 261.13 159.94 C 277.78 143.34 294.38 126.69 311.02 110.08 C 312.34 108.78 314.05 107.54 316.02 107.90 C 319.24 108.19 321.45 112.00 320.03 114.92 C 318.88 117.06 316.94 118.61 315.28 120.33 C 297.21 138.32 279.24 156.40 261.16 174.37 C 261.09 184.10 261.13 193.83 261.14 203.56 C 267.77 197.07 274.18 190.35 280.89 183.93 C 283.37 181.25 288.30 182.47 289.27 185.97 C 290.14 188.26 288.75 190.52 287.14 192.05 C 278.47 200.73 269.78 209.39 261.12 218.08 C 261.13 227.77 261.12 237.45 261.13 247.14 C 269.41 242.31 277.84 237.72 286.01 232.70 C 290.07 220.49 292.60 207.68 296.44 195.35 C 297.50 192.04 302.16 191.09 304.59 193.48 C 306.42 195.02 306.36 197.64 305.72 199.75 C 303.47 208.30 301.11 216.82 298.87 225.37 C 307.29 220.56 315.66 215.66 324.07 210.83 C 331.07 184.88 337.99 158.90 344.96 132.94 C 345.45 131.10 346.35 129.11 348.27 128.40 C 351.35 126.94 355.36 129.50 355.29 132.92 C 355.05 135.72 354.09 138.38 353.40 141.09 C 347.81 161.90 342.20 182.70 336.66 203.52 C 346.98 197.61 357.27 191.65 367.55 185.68 C 370.06 176.21 372.63 166.76 375.14 157.29 C 375.67 155.10 376.67 152.65 379.08 152.01 C 382.59 150.77 386.55 154.36 385.46 157.97 C 383.88 164.85 381.84 171.62 380.10 178.46 C 387.60 174.20 394.99 169.72 402.54 165.56 C 405.40 163.75 409.60 165.60 410.11 168.96 C 410.69 171.43 409.00 173.69 406.91 174.78 C 399.70 179.01 392.42 183.11 385.22 187.35 C 392.12 189.32 399.15 190.87 405.99 193.05 C 409.46 194.15 410.36 199.22 407.58 201.52 C 406.00 203.05 403.66 202.97 401.70 202.39 C 392.04 199.78 382.37 197.22 372.72 194.59 C 362.38 200.49 352.08 206.45 341.78 212.41 C 364.62 218.55 387.49 224.62 410.33 230.80 C 413.05 231.33 415.23 234.04 414.59 236.85 C 414.12 240.04 410.43 241.78 407.54 240.64 C 381.42 233.65 355.31 226.62 329.18 219.67 C 320.79 224.54 312.37 229.35 303.98 234.22 C 312.86 236.65 321.78 238.91 330.63 241.42 C 333.32 242.01 335.20 244.86 334.48 247.56 C 333.92 250.37 330.75 252.13 328.05 251.22 C 316.33 248.23 304.68 244.94 292.97 241.89 C 291.47 241.14 290.15 242.23 288.90 242.90 C 281.38 247.32 273.80 251.62 266.25 256.00 C 274.57 260.85 282.97 265.56 291.23 270.50 C 301.17 268.01 311.03 265.22 320.94 262.61 C 323.94 261.86 326.89 260.72 330.00 260.56 C 333.48 260.74 335.80 264.97 334.02 267.98 C 333.13 269.93 330.92 270.53 329.04 271.07 C 320.68 273.29 312.33 275.54 303.98 277.77 C 312.37 282.65 320.78 287.48 329.17 292.34 C 355.42 285.37 381.63 278.22 407.90 271.31 C 410.73 270.28 414.10 272.21 414.56 275.20 C 415.24 278.05 412.95 280.76 410.20 281.24 C 387.39 287.40 364.56 293.48 341.75 299.62 C 352.05 305.60 362.37 311.56 372.71 317.47 C 382.87 314.79 392.98 311.86 403.19 309.39 C 406.83 308.42 410.29 312.46 408.96 315.94 C 408.27 318.23 405.89 319.18 403.79 319.72 C 397.60 321.36 391.41 323.01 385.23 324.68 C 392.20 328.79 399.23 332.80 406.24 336.85 C 407.83 337.81 409.66 338.96 410.03 340.96 C 410.92 344.04 408.16 347.23 405.04 347.19 C 403.19 346.96 401.57 346.02 399.98 345.12 C 393.37 341.23 386.71 337.42 380.07 333.57 C 381.83 340.74 384.20 347.78 385.59 355.04 C 386.10 360.44 377.64 362.26 375.90 357.15 C 372.85 346.96 370.37 336.59 367.54 326.33 C 357.25 320.38 346.95 314.42 336.62 308.51 C 342.68 331.37 348.92 354.18 354.96 377.04 C 356.50 380.69 352.83 385.01 349.00 383.90 C 346.66 383.47 345.39 381.21 344.91 379.08 C 337.96 353.12 331.03 327.15 324.04 301.21 C 315.65 296.37 307.28 291.50 298.88 286.70 C 301.17 295.79 303.87 304.78 306.01 313.91 C 307.08 317.60 302.78 321.12 299.34 319.64 C 297.31 318.93 296.26 316.92 295.83 314.95 C 292.65 303.12 289.49 291.29 286.34 279.45 C 277.96 274.56 269.54 269.73 261.13 264.89 C 261.12 274.57 261.13 284.25 261.12 293.92 C 269.61 302.43 278.11 310.94 286.63 319.41 C 288.41 321.09 290.25 323.44 289.27 326.06 C 288.28 329.54 283.36 330.80 280.88 328.09 C 274.18 321.66 267.77 314.94 261.13 308.44 C 261.13 318.17 261.10 327.89 261.15 337.62 C 280.21 356.62 299.21 375.68 318.24 394.71 C 320.41 396.54 321.34 399.97 319.30 402.27 C 317.46 404.71 313.54 404.69 311.55 402.43 C 294.68 385.71 277.97 368.82 261.13 352.06 C 261.12 363.94 261.13 375.83 261.13 387.72 C 267.99 394.58 274.84 401.46 281.74 408.30 C 282.98 409.65 284.54 411.03 284.65 413.01 C 285.02 416.05 282.09 418.89 279.07 418.49 C 277.11 418.31 275.75 416.78 274.40 415.53 C 270.00 411.07 265.58 406.63 261.13 402.22 C 261.06 410.82 261.24 419.43 261.06 428.03 C 261.17 430.75 258.82 433.25 256.08 433.24 C 253.27 433.38 250.84 430.84 250.94 428.07 C 250.75 419.46 250.95 410.84 250.87 402.22 C 245.85 407.09 241.06 412.18 235.99 416.98 C 233.53 419.71 228.63 418.52 227.60 415.06 C 226.66 412.70 228.09 410.37 229.77 408.81 C 236.80 401.78 243.85 394.76 250.87 387.72 C 250.87 375.83 250.88 363.94 250.87 352.06 C 234.22 368.65 217.63 385.30 201.00 401.91 C 199.37 403.74 196.66 404.88 194.34 403.60 C 191.22 402.14 190.62 397.59 193.21 395.33 C 212.35 376.03 231.62 356.84 250.85 337.62 C 250.90 327.89 250.87 318.16 250.87 308.44 C 244.18 314.94 237.74 321.70 230.98 328.12 C 228.22 331.04 222.76 329.01 222.49 325.03 C 222.08 322.66 223.91 320.85 225.40 319.31 C 233.91 310.85 242.39 302.35 250.85 293.85 C 250.83 284.17 250.85 274.50 250.84 264.83 C 242.41 269.71 233.93 274.50 225.57 279.51 C 222.67 290.82 219.52 302.07 216.58 313.37 C 215.96 315.31 215.67 317.65 213.88 318.92 C 211.46 320.86 207.42 319.78 206.26 316.92 C 205.43 315.23 206.02 313.35 206.39 311.63 C 208.64 303.30 210.90 294.98 213.10 286.63 C 204.68 291.43 196.33 296.34 187.91 301.15 C 180.79 327.40 173.87 353.71 166.73 379.95 C 166.14 383.35 161.75 385.29 158.96 383.12 C 156.49 381.73 156.38 378.56 157.20 376.16 C 163.25 353.60 169.33 331.05 175.34 308.48 C 165.03 314.39 154.74 320.35 144.46 326.30 C 141.93 335.80 139.35 345.29 136.84 354.79 C 136.31 356.93 135.34 359.42 132.93 359.98 C 129.48 361.26 125.51 357.63 126.54 354.07 C 128.11 347.17 130.19 340.39 131.94 333.53 C 124.43 337.79 117.04 342.28 109.47 346.42 C 106.63 348.20 102.49 346.36 101.92 343.07 C 101.30 340.60 102.97 338.32 105.07 337.23 C 112.30 333.00 119.57 328.86 126.81 324.66 C 119.91 322.70 112.88 321.12 106.04 318.96 C 102.52 317.89 101.67 312.74 104.51 310.48 C 106.32 308.66 109.02 309.23 111.22 309.84 C 120.56 312.40 129.94 314.85 139.28 317.41 C 149.60 311.48 159.93 305.59 170.17 299.53 C 147.36 293.42 124.53 287.34 101.73 281.19 C 98.72 280.66 96.47 277.42 97.61 274.46 C 98.54 271.44 102.13 270.33 104.90 271.44 C 130.87 278.39 156.83 285.38 182.80 292.31 C 191.20 287.44 199.62 282.62 208.01 277.74 C 199.65 275.50 191.29 273.25 182.92 271.03 C 181.05 270.49 178.88 269.89 177.99 267.96 C 176.63 265.62 177.65 262.26 180.11 261.12 C 181.90 260.05 183.99 260.79 185.86 261.19 C 197.48 264.29 209.09 267.50 220.75 270.48 C 229.02 265.54 237.42 260.82 245.74 255.97 C 238.19 251.57 230.59 247.24 223.05 242.81 C 221.83 242.23 220.53 241.06 219.09 241.81 C 207.37 244.89 195.70 248.17 183.96 251.19 C 180.21 252.57 176.20 248.43 177.65 244.74 C 178.24 242.73 180.14 241.58 182.07 241.13 C 190.62 238.73 199.27 236.70 207.78 234.13 C 199.55 229.17 191.14 224.50 182.84 219.63 C 156.49 226.62 130.19 233.80 103.83 240.73 C 100.41 241.89 96.75 238.62 97.38 235.11 C 97.66 232.55 100.06 231.04 102.38 230.55 C 125.01 224.51 147.63 218.44 170.25 212.38 C 159.96 206.40 149.66 200.45 139.33 194.53 C 129.39 197.20 119.45 199.92 109.49 202.52 C 106.85 203.41 103.66 201.84 102.98 199.08 C 102.10 196.37 103.97 193.40 106.68 192.77 C 113.36 190.82 120.12 189.16 126.84 187.32 C 119.64 183.11 112.38 179.00 105.19 174.79 C 103.08 173.70 101.28 171.43 101.93 168.93 C 102.44 165.51 106.74 163.70 109.60 165.58 C 117.11 169.73 124.46 174.16 131.93 178.39 C 130.19 171.56 128.13 164.81 126.55 157.94 C 125.61 154.70 128.71 151.29 132.00 151.79 C 134.36 151.90 136.05 153.94 136.55 156.11 C 139.23 165.92 141.82 175.77 144.43 185.60 C 154.72 191.61 165.05 197.56 175.38 203.49 C 169.32 180.65 163.09 157.85 157.06 135.01 C 155.67 131.69 158.40 127.70 162.01 127.98 C 164.83 127.94 166.61 130.51 167.10 133.02 C 174.05 158.94 180.95 184.88 187.93 210.80 C 196.33 215.62 204.70 220.50 213.12 225.30 C 210.85 216.50 208.35 207.76 206.12 198.96 C 205.03 196.06 206.95 192.56 210.05 192.14 C 212.73 191.57 215.32 193.57 215.88 196.16 C 219.32 208.15 222.23 220.30 225.73 232.27 C 233.76 237.69 242.54 242.10 250.87 247.11 C 250.88 237.43 250.87 227.76 250.88 218.08 C 242.41 209.58 233.93 201.08 225.42 192.61 C 223.67 190.94 221.80 188.62 222.74 186.03 C 223.66 182.49 228.63 181.17 231.13 183.92 C 237.83 190.34 244.23 197.07 250.87 203.56 C 250.87 193.83 250.91 184.10 250.84 174.37 C 232.75 156.37 214.77 138.26 196.69 120.24 C 195.03 118.53 193.13 116.97 191.95 114.87 C 190.61 111.94 192.77 108.24 195.95 107.91 C 198.17 107.47 199.98 109.04 201.44 110.48 C 217.90 126.98 234.38 143.45 250.87 159.91 C 250.88 148.03 250.88 136.15 250.87 124.27 C 243.69 117.06 236.44 109.92 229.30 102.68 C 227.27 100.90 226.54 97.55 228.45 95.42 C 230.23 93.03 234.02 92.86 236.05 95.04 C 241.11 99.82 245.89 104.90 250.90 109.74 C 250.98 101.13 250.77 92.50 250.98 83.89 Z" />
</g>
</svg>
