<?xml version="1.0" encoding="UTF-8" ?>
<!DOCTYPE svg PUBLIC "-//W3C//DTD SVG 1.1//EN" "http://www.w3.org/Graphics/SVG/1.1/DTD/svg11.dtd">
<svg width="660pt" height="660pt" viewBox="0 0 660 660" version="1.1" xmlns="http://www.w3.org/2000/svg">
<g id="#ffffffff">
</g>
<g id="#010101ff">
<path fill="#010101" opacity="1.00" d=" M 267.78 0.66 C 289.53 23.20 312.35 45.24 329.40 71.74 C 346.77 45.39 369.40 23.17 391.22 0.59 C 382.01 15.54 372.80 30.59 365.76 46.72 C 363.71 51.60 361.72 56.69 361.56 62.05 C 361.29 63.54 362.51 64.62 363.31 65.69 C 379.63 84.16 391.39 106.59 397.51 130.45 C 398.28 133.73 399.55 136.85 400.97 139.90 C 407.35 154.61 412.05 170.30 412.32 186.43 C 424.49 179.67 438.07 175.93 451.77 173.92 C 457.01 172.98 462.41 173.02 467.52 171.46 C 491.58 164.69 517.21 163.67 541.73 168.55 C 545.23 169.65 547.86 166.27 550.22 164.23 C 564.29 148.68 573.44 129.58 583.96 111.64 C 574.64 141.68 567.53 172.76 552.81 200.80 C 573.42 202.26 593.79 206.05 613.82 211.06 C 624.22 213.63 634.62 216.20 645.08 218.48 C 635.02 219.09 624.94 217.80 614.88 218.54 C 604.08 218.46 593.17 219.01 582.65 221.60 C 579.97 222.53 576.25 223.09 575.46 226.33 C 568.30 247.49 556.71 267.15 541.45 283.48 C 538.08 287.42 533.87 290.61 530.95 294.92 C 521.09 308.56 509.51 321.41 494.84 329.98 C 510.70 338.98 522.54 353.33 533.19 367.81 C 542.62 377.14 551.46 387.16 558.55 398.42 C 566.23 409.87 571.54 422.68 576.36 435.52 C 581.83 439.02 588.62 439.54 594.92 440.37 C 611.54 442.49 628.35 440.70 645.01 441.65 C 635.21 443.17 625.73 446.17 616.05 448.27 C 595.29 453.38 574.26 457.75 552.87 458.96 C 567.33 487.13 574.76 518.08 583.91 548.19 C 575.17 533.06 567.17 517.40 556.68 503.35 C 553.00 498.82 549.49 493.58 544.03 491.08 C 529.53 493.53 514.73 495.29 500.01 493.89 C 487.69 493.48 475.66 490.55 463.79 487.49 C 446.08 485.61 428.00 482.34 412.36 473.38 C 412.05 490.84 406.57 507.72 399.42 523.50 C 397.99 526.71 397.41 530.20 396.42 533.56 C 389.90 556.14 378.40 577.30 362.76 594.86 C 360.82 596.67 361.67 599.58 361.99 601.88 C 363.52 608.46 366.30 614.67 369.24 620.72 C 375.67 634.05 383.49 646.64 391.19 659.25 C 380.79 648.83 370.79 638.01 360.63 627.34 C 349.38 615.04 338.57 602.26 329.59 588.18 C 312.22 614.50 289.59 636.66 267.83 659.26 C 273.99 648.91 280.56 638.77 286.02 628.02 C 290.30 619.93 294.44 611.66 296.81 602.79 C 297.23 600.22 298.32 596.96 296.23 594.85 C 279.50 576.03 267.42 553.13 261.30 528.71 C 260.40 524.91 258.57 521.44 257.12 517.85 C 251.23 503.74 246.88 488.77 246.66 473.38 C 232.90 481.21 217.21 484.80 201.63 486.72 C 197.96 486.98 194.29 487.48 190.76 488.56 C 166.97 495.25 141.63 496.09 117.40 491.35 C 113.29 490.17 110.39 494.29 107.75 496.76 C 94.30 512.12 85.29 530.66 75.09 548.19 C 84.24 518.08 91.66 487.14 106.12 458.98 C 86.44 457.76 67.00 454.14 47.87 449.44 C 36.54 447.01 25.44 443.57 14.00 441.65 C 28.64 440.84 43.37 442.08 58.01 440.99 C 65.91 440.12 74.12 439.75 81.45 436.36 C 83.22 435.63 83.49 433.53 84.13 431.98 C 92.35 407.76 106.95 385.99 125.35 368.32 C 136.22 353.71 148.07 339.08 164.16 329.95 C 148.12 320.77 136.23 306.20 125.42 291.54 C 107.29 274.29 92.91 252.94 84.63 229.26 C 83.68 227.10 83.40 224.12 80.84 223.23 C 73.87 220.12 66.11 219.87 58.66 218.88 C 52.12 218.40 45.55 218.75 39.01 218.31 C 30.64 218.19 22.27 218.96 13.90 218.53 C 33.07 214.28 51.98 208.94 71.28 205.32 C 82.82 203.01 94.52 201.84 106.22 200.79 C 91.45 172.77 84.36 141.68 75.03 111.64 C 83.92 126.75 91.74 142.59 102.40 156.59 C 106.05 161.13 109.53 166.35 115.01 168.80 C 126.89 166.77 138.92 165.28 151.00 165.44 C 161.12 165.95 171.27 166.70 181.18 168.95 C 187.17 169.96 192.86 172.36 198.94 172.89 C 215.46 174.53 232.01 178.34 246.67 186.37 C 246.90 168.13 253.14 150.70 260.40 134.20 C 265.85 112.26 275.39 91.24 289.34 73.38 C 291.77 69.71 295.28 66.86 297.44 63.02 C 297.55 58.11 295.90 53.37 294.11 48.86 C 287.04 31.93 277.44 16.21 267.78 0.66 M 308.74 90.77 C 296.01 97.53 285.91 108.74 279.67 121.67 C 272.55 136.40 269.62 152.80 268.77 169.04 C 268.48 175.60 267.76 182.24 268.81 188.77 C 271.03 191.90 274.52 193.94 278.18 194.92 C 284.12 196.28 290.19 194.68 295.87 192.92 C 296.89 159.15 302.69 125.07 316.97 94.23 C 314.56 92.63 311.88 88.62 308.74 90.77 M 342.05 94.26 C 356.35 125.09 362.02 159.15 363.20 192.90 C 367.67 194.37 372.30 195.54 377.03 195.44 C 382.09 195.27 387.14 192.92 390.17 188.79 C 391.49 179.88 390.12 170.87 389.73 161.93 C 388.07 144.75 383.87 127.33 374.24 112.77 C 367.85 103.30 359.22 95.06 348.83 90.17 C 346.16 89.98 344.12 92.79 342.05 94.26 M 328.83 118.26 C 320.41 143.23 317.15 169.73 318.43 196.01 C 318.89 209.66 321.12 223.27 324.88 236.40 C 320.74 238.07 316.20 237.69 311.84 237.84 C 306.41 237.73 300.90 237.94 295.58 236.73 C 298.35 239.85 301.11 242.98 304.02 245.98 C 313.19 255.37 321.22 265.79 329.60 275.87 C 336.94 266.50 344.48 257.29 352.50 248.49 C 356.23 244.70 359.89 240.84 363.29 236.76 C 353.69 238.21 343.59 239.17 334.14 236.40 C 340.40 215.23 341.56 192.96 340.42 171.02 C 339.36 153.09 335.80 135.32 330.18 118.27 C 329.84 118.26 329.16 118.26 328.83 118.26 M 131.28 193.42 C 131.27 196.13 131.50 198.83 131.81 201.52 C 165.73 203.99 197.92 216.64 227.81 232.24 C 232.84 227.27 238.71 221.61 238.78 214.02 C 238.64 211.20 239.25 207.35 236.39 205.66 C 217.13 193.83 195.83 183.99 172.99 182.39 C 158.39 181.49 143.49 185.30 131.28 193.42 M 426.40 203.37 C 423.78 204.93 420.05 206.36 420.37 210.07 C 418.60 219.15 425.08 226.59 431.23 232.28 C 461.06 216.54 493.31 204.08 527.20 201.48 C 527.50 198.80 527.74 196.11 527.72 193.42 C 515.50 185.27 500.55 181.48 485.93 182.40 C 464.62 183.87 444.60 192.65 426.40 203.37 M 112.29 228.07 C 111.71 242.67 116.32 257.35 124.66 269.32 C 136.14 286.17 152.95 298.48 170.38 308.60 C 173.45 310.30 176.81 313.02 180.48 311.28 C 189.02 308.11 192.36 298.68 194.09 290.51 C 165.46 272.75 138.78 250.89 119.45 223.02 C 116.80 224.06 112.31 224.39 112.29 228.07 M 539.43 223.31 C 519.98 250.94 493.52 272.88 464.89 290.48 C 466.37 296.96 468.43 303.87 473.63 308.37 C 476.64 310.84 481.16 313.28 484.84 310.72 C 502.48 300.92 519.57 289.08 531.84 272.81 C 541.65 260.13 547.41 244.13 546.71 228.03 C 546.60 224.63 542.24 223.50 539.43 223.31 M 145.23 223.46 C 150.74 230.32 157.11 236.44 163.58 242.39 C 187.51 263.26 215.81 279.63 246.70 287.53 C 243.53 296.91 237.94 305.15 232.15 313.07 C 248.78 308.61 265.75 305.42 282.82 303.15 C 276.35 287.17 270.76 270.84 265.89 254.31 C 262.20 263.24 258.05 272.37 251.05 279.23 C 236.04 263.51 217.82 251.12 198.49 241.32 C 181.62 233.11 163.80 226.46 145.23 223.46 M 461.75 240.71 C 441.93 250.56 423.31 263.21 407.95 279.23 C 400.95 272.36 396.81 263.23 393.11 254.30 C 391.39 259.01 390.27 263.91 388.68 268.67 C 385.12 280.37 380.58 291.74 376.18 303.14 C 393.24 305.45 410.21 308.61 426.85 313.06 C 421.07 305.14 415.45 296.92 412.32 287.54 C 433.00 282.20 452.61 273.15 470.41 261.40 C 486.48 250.80 501.46 238.31 513.77 223.47 C 495.64 226.33 478.25 232.82 461.75 240.71 M 273.45 232.75 C 277.47 256.18 283.53 279.22 290.49 301.93 C 297.70 301.43 304.94 300.90 312.10 300.05 C 316.51 294.20 320.46 287.99 324.86 282.12 C 308.48 264.90 291.80 247.89 273.45 232.75 M 334.16 282.07 C 338.48 288.00 342.47 294.19 346.91 300.02 C 354.04 300.95 361.29 301.41 368.48 301.93 C 375.46 279.20 381.60 256.16 385.50 232.69 C 367.27 247.95 350.50 264.83 334.16 282.07 M 318.98 299.32 C 326.00 299.39 333.02 299.43 340.04 299.29 C 336.52 295.38 333.27 291.22 329.59 287.46 C 325.69 291.08 322.51 295.36 318.98 299.32 M 324.39 302.52 C 321.13 303.22 317.71 303.34 314.57 304.47 C 311.35 307.96 308.36 311.72 305.50 315.52 C 303.30 320.16 301.65 325.07 300.05 329.94 C 301.49 334.63 303.23 339.26 305.17 343.77 C 307.99 347.91 311.33 351.69 314.63 355.46 C 319.66 356.68 324.84 357.59 329.99 358.10 C 334.78 357.21 339.70 356.75 344.39 355.45 C 347.70 351.72 351.03 347.92 353.83 343.78 C 355.74 339.25 357.53 334.64 358.94 329.93 C 357.78 325.96 356.13 322.14 354.77 318.24 C 353.46 314.28 350.13 311.55 347.73 308.28 C 346.16 306.44 344.79 303.78 342.04 303.78 C 336.18 303.11 330.28 300.76 324.39 302.52 M 292.75 308.62 C 294.22 313.61 295.86 318.56 297.74 323.42 C 301.26 317.51 304.76 311.60 308.03 305.55 C 302.88 306.31 297.82 307.52 292.75 308.62 M 351.00 305.53 C 354.21 311.61 357.77 317.51 361.26 323.44 C 363.12 318.57 364.78 313.63 366.25 308.63 C 361.18 307.51 356.12 306.35 351.00 305.53 M 217.27 330.01 C 239.68 338.02 262.60 344.60 285.84 349.73 C 288.86 343.09 291.82 336.41 295.10 329.89 C 291.77 323.44 288.89 316.78 285.87 310.19 C 262.62 315.32 239.58 321.68 217.27 330.01 M 373.21 310.18 C 370.05 316.73 367.26 323.44 363.90 329.89 C 367.19 336.41 370.10 343.12 373.19 349.74 C 396.41 344.56 419.34 338.06 441.73 330.00 C 419.45 321.65 396.41 315.38 373.21 310.18 M 292.69 351.25 C 297.82 352.38 302.95 353.50 308.12 354.42 C 304.79 348.32 301.33 342.30 297.69 336.38 C 295.90 341.30 294.31 346.28 292.69 351.25 M 350.86 354.38 C 356.04 353.50 361.17 352.37 366.31 351.26 C 364.65 346.29 363.09 341.28 361.28 336.35 C 357.76 342.34 354.24 348.32 350.86 354.38 M 232.16 346.88 C 237.94 354.78 243.62 362.98 246.65 372.40 C 230.90 376.41 215.74 382.61 201.57 390.56 C 180.44 402.61 160.74 417.67 145.17 436.47 C 159.04 434.23 172.49 429.85 185.46 424.50 C 209.83 414.16 232.70 399.69 251.16 380.60 C 258.00 387.60 262.19 396.65 265.86 405.59 C 270.81 389.04 276.30 372.62 282.90 356.64 C 265.77 354.66 248.86 351.10 232.16 346.88 M 376.10 356.65 C 382.71 372.64 388.20 389.06 393.13 405.64 C 396.65 396.63 401.18 387.89 407.59 380.57 C 421.27 394.19 436.83 405.94 453.88 415.04 C 472.61 425.12 492.78 432.91 513.81 436.47 C 499.74 419.30 482.01 405.43 463.15 393.88 C 447.35 384.39 430.26 376.87 412.34 372.48 C 415.30 363.00 421.06 354.83 426.83 346.89 C 410.12 351.09 393.22 354.65 376.10 356.65 M 174.10 349.19 C 156.82 358.71 140.28 370.38 127.95 385.97 C 117.71 398.91 111.52 415.35 112.31 431.94 C 112.39 435.54 116.88 435.74 119.44 436.87 C 138.73 408.96 165.49 387.21 194.04 369.34 C 192.65 362.89 190.58 356.02 185.45 351.53 C 182.40 349.03 177.82 346.72 174.10 349.19 M 476.46 349.60 C 469.15 353.34 466.64 361.95 464.95 369.38 C 493.56 387.18 520.26 409.01 539.58 436.89 C 542.12 435.77 546.58 435.49 546.69 431.96 C 547.50 414.88 540.94 397.98 530.16 384.86 C 517.86 369.86 501.76 358.44 484.84 349.16 C 482.30 347.42 478.95 348.12 476.46 349.60 M 290.45 358.10 C 283.54 380.80 277.38 403.79 273.47 427.22 C 291.66 411.94 308.45 395.09 324.82 377.90 C 320.96 372.20 316.94 366.60 313.01 360.94 C 312.01 359.18 309.77 359.41 308.05 359.28 C 302.15 359.24 296.35 357.93 290.45 358.10 M 350.97 359.28 C 349.22 359.38 346.97 359.20 345.98 360.99 C 342.05 366.64 338.04 372.23 334.14 377.91 C 343.10 387.26 352.25 396.44 361.46 405.54 C 369.21 413.26 377.75 420.13 385.71 427.60 C 381.55 404.09 375.61 380.92 368.53 358.12 C 362.64 357.92 356.85 359.25 350.97 359.28 M 319.06 360.74 C 322.51 364.48 325.64 368.52 329.17 372.17 C 333.58 369.32 336.12 364.30 339.98 360.75 C 333.01 360.21 326.03 360.20 319.06 360.74 M 329.36 383.98 C 318.87 397.55 307.80 410.71 295.49 422.67 C 305.26 422.32 315.30 420.19 324.84 423.49 C 321.90 433.65 320.14 444.11 318.95 454.61 C 316.73 483.80 319.15 513.66 328.91 541.41 C 329.18 541.54 329.71 541.81 329.98 541.94 C 337.56 519.82 341.14 496.36 340.74 473.00 C 340.97 456.29 338.69 439.58 334.16 423.49 C 343.69 420.20 353.74 422.34 363.52 422.69 C 351.09 410.74 340.25 397.31 329.36 383.98 M 131.76 458.37 C 131.51 461.06 131.27 463.77 131.28 466.48 C 138.23 470.92 145.88 474.34 153.98 476.01 C 162.72 478.02 171.79 477.65 180.64 476.68 C 200.62 473.60 219.19 464.73 236.30 454.27 C 238.83 452.87 238.62 449.50 238.78 447.02 C 239.30 438.94 233.14 432.70 227.69 427.60 C 197.90 443.39 165.63 455.81 131.76 458.37 M 420.41 449.91 C 420.31 453.81 424.32 455.20 427.06 456.92 C 445.98 467.82 466.83 477.11 489.02 477.45 C 502.67 477.95 516.33 473.96 527.72 466.47 C 527.73 463.76 527.50 461.06 527.24 458.37 C 495.86 455.95 465.68 445.20 437.83 430.92 C 435.64 429.92 433.61 428.44 431.21 428.02 C 424.61 433.11 418.69 441.11 420.41 449.91 M 276.41 465.48 C 272.45 467.09 267.71 470.05 268.38 474.99 C 268.24 496.22 270.18 518.19 279.42 537.62 C 285.90 551.56 296.95 563.47 310.86 570.18 C 313.00 568.82 315.03 567.29 316.97 565.66 C 302.70 534.82 296.91 500.76 295.84 467.00 C 289.66 464.87 282.80 463.44 276.41 465.48 M 363.21 466.91 C 362.03 500.70 356.35 534.80 342.03 565.65 C 343.95 567.25 345.82 568.99 348.15 570.00 C 358.39 565.44 366.95 557.51 373.38 548.40 C 383.59 533.58 388.02 515.62 389.74 497.92 C 390.15 489.62 391.21 481.30 390.45 472.99 C 390.55 470.21 387.83 468.60 385.88 467.12 C 379.03 462.76 370.44 464.64 363.21 466.91 Z" />
</g>
</svg>
