<?xml version="1.0" encoding="UTF-8" ?>
<!DOCTYPE svg PUBLIC "-//W3C//DTD SVG 1.1//EN" "http://www.w3.org/Graphics/SVG/1.1/DTD/svg11.dtd">
<svg width="236pt" height="214pt" viewBox="0 0 236 214" version="1.1" xmlns="http://www.w3.org/2000/svg">
<g id="#ffffffff">
</g>
<g id="#231e20ff">
<path fill="#231e20" opacity="1.00" d=" M 67.00 0.00 L 67.94 0.00 L 67.25 0.01 C 71.53 7.28 75.86 14.52 79.97 21.89 C 81.60 17.04 82.68 12.04 84.07 7.12 C 90.23 8.79 96.51 10.15 102.55 12.20 C 99.88 23.29 96.81 34.30 93.74 45.29 C 96.60 51.02 100.09 56.42 103.17 62.04 C 103.60 64.17 104.54 61.70 104.67 61.18 C 109.18 47.23 113.23 33.10 118.04 19.27 C 122.70 33.90 127.22 48.59 131.89 63.22 C 135.60 57.58 138.71 51.57 142.18 45.78 C 139.29 34.52 136.23 23.31 133.21 12.10 C 139.41 10.44 145.59 8.66 151.82 7.12 C 153.29 12.07 154.58 17.06 155.88 22.05 C 160.10 14.69 164.36 7.35 168.60 0.00 L 169.89 0.00 L 168.94 0.17 C 174.44 3.34 179.97 6.47 185.42 9.72 C 180.98 16.96 176.85 24.38 172.66 31.76 C 177.58 30.29 182.61 29.22 187.46 27.55 C 189.31 33.77 190.88 40.07 192.55 46.35 C 181.70 49.20 170.87 52.11 160.07 55.10 C 158.75 55.29 158.28 56.68 157.62 57.62 C 154.71 62.77 151.78 67.89 148.74 72.96 C 163.89 69.88 178.94 66.30 194.05 62.97 C 183.81 74.59 173.17 85.84 162.73 97.28 C 169.57 97.46 176.41 97.41 183.25 97.28 C 191.57 89.29 199.31 80.59 207.95 73.00 C 212.67 77.22 216.95 81.90 221.45 86.36 C 217.89 90.10 214.20 93.73 210.51 97.35 C 219.01 97.41 227.50 97.38 236.00 97.35 L 236.00 116.64 C 227.51 116.62 219.02 116.68 210.53 116.58 C 214.20 120.27 217.92 123.91 221.45 127.72 C 216.89 132.22 212.34 136.72 207.84 141.28 C 199.57 133.14 191.51 124.79 183.20 116.70 C 176.36 116.60 169.53 116.67 162.70 116.60 C 173.25 128.06 183.78 139.54 194.30 151.03 C 179.11 147.62 163.93 144.16 148.69 140.97 C 152.10 146.77 155.49 152.57 158.78 158.44 C 169.93 161.89 181.33 164.47 192.53 167.74 C 190.90 173.98 189.29 180.23 187.47 186.42 C 182.62 184.89 177.70 183.59 172.74 182.45 C 177.01 189.70 180.93 197.15 185.45 204.25 C 180.18 207.57 174.40 210.13 169.49 214.00 L 168.38 214.00 C 164.56 206.48 159.93 199.40 155.92 191.98 C 154.53 196.96 153.30 201.98 151.85 206.94 C 145.64 205.44 139.56 203.45 133.31 202.11 C 135.90 190.75 139.58 179.63 142.01 168.25 C 138.95 162.23 135.24 156.53 132.01 150.59 C 127.28 165.35 122.84 180.21 117.95 194.92 C 113.38 180.06 108.57 165.27 104.00 150.42 C 101.05 155.85 97.83 161.13 94.78 166.51 C 93.80 167.81 94.07 169.46 94.45 170.93 C 97.11 181.32 100.16 191.62 102.64 202.06 C 96.40 203.47 90.30 205.45 84.06 206.89 C 82.77 201.94 81.42 197.00 80.09 192.06 C 75.99 199.38 71.34 206.40 67.77 214.00 L 66.44 214.00 C 61.61 210.21 55.96 207.63 50.71 204.49 C 54.73 196.97 59.06 189.61 63.47 182.31 C 58.43 183.68 53.37 184.95 48.33 186.31 C 46.79 180.09 45.00 173.94 43.37 167.74 C 54.46 164.55 65.73 161.96 76.75 158.57 C 80.64 152.97 83.67 146.79 87.24 140.98 C 72.06 144.25 56.93 147.69 41.78 151.10 C 52.15 139.52 62.83 128.23 73.21 116.65 C 66.54 116.75 59.85 116.43 53.18 116.76 C 44.35 124.39 36.62 133.31 28.09 141.31 C 23.61 136.68 19.00 132.19 14.47 127.61 C 18.07 123.92 21.77 120.33 25.37 116.65 C 16.91 116.66 8.46 116.61 0.00 116.60 L 0.00 97.34 C 8.45 97.35 16.90 97.43 25.35 97.35 C 21.73 93.71 18.22 89.98 14.48 86.46 C 18.90 81.77 23.62 77.37 28.09 72.72 C 36.43 80.81 44.46 89.22 52.78 97.34 C 59.59 97.39 66.40 97.43 73.21 97.31 C 62.63 85.96 52.16 74.50 41.76 62.98 C 56.87 66.35 71.96 69.89 87.13 73.00 C 83.97 67.45 80.79 61.91 77.60 56.38 C 76.89 55.01 75.13 55.01 73.87 54.50 C 63.72 51.78 53.59 49.00 43.42 46.35 C 44.97 40.06 46.76 33.83 48.44 27.57 C 53.32 29.16 58.31 30.37 63.27 31.68 C 59.07 24.35 54.94 16.98 50.64 9.71 C 56.04 6.38 61.66 3.42 67.00 0.00 M 111.71 95.93 C 106.51 95.33 101.29 95.04 96.12 94.21 C 98.93 98.64 102.16 102.77 105.18 107.06 C 102.17 111.31 98.96 115.42 96.08 119.77 C 101.26 119.17 106.46 118.71 111.65 118.16 C 113.57 122.73 115.74 127.20 117.66 131.77 C 117.83 131.75 118.17 131.71 118.35 131.69 C 120.37 127.19 122.43 122.70 124.37 118.17 C 129.60 118.69 134.85 119.14 140.08 119.76 C 136.97 115.53 133.91 111.28 130.87 107.01 C 133.88 102.78 136.99 98.61 139.94 94.33 C 134.74 94.95 129.52 95.35 124.31 95.92 C 122.41 91.14 120.12 86.53 118.17 81.77 C 115.63 86.30 113.77 91.17 111.71 95.93 Z" />
</g>
</svg>
