<?xml version="1.0" encoding="UTF-8" ?>
<!DOCTYPE svg PUBLIC "-//W3C//DTD SVG 1.1//EN" "http://www.w3.org/Graphics/SVG/1.1/DTD/svg11.dtd">
<svg width="211pt" height="239pt" viewBox="0 0 211 239" version="1.1" xmlns="http://www.w3.org/2000/svg">
<g id="#ffffffff">
</g>
<g id="#000000ff">
<path fill="#000000" opacity="1.00" d=" M 107.51 5.01 C 109.05 8.48 109.78 12.23 110.60 15.91 C 112.27 23.79 114.11 31.62 115.90 39.47 C 117.84 38.74 119.77 37.97 121.72 37.22 C 122.59 38.66 123.47 40.10 124.37 41.53 C 126.79 40.14 128.98 38.41 131.17 36.70 C 132.75 38.76 134.30 40.85 135.68 43.05 C 131.47 46.45 127.14 49.90 122.26 52.29 C 118.34 51.18 113.97 50.78 110.56 48.41 C 109.15 45.95 108.83 43.02 107.89 40.36 C 107.01 43.16 106.69 46.32 104.85 48.71 C 101.24 50.78 97.03 51.32 93.07 52.36 C 88.54 49.51 83.99 46.64 80.03 43.02 C 81.41 40.82 82.94 38.73 84.53 36.67 C 86.68 38.36 88.85 40.03 91.10 41.59 C 92.07 40.15 93.01 38.69 93.93 37.21 C 95.85 37.95 97.76 38.72 99.69 39.42 C 102.70 28.05 104.66 16.43 107.51 5.01 Z" />
<path fill="#000000" opacity="1.00" d=" M 80.04 62.88 C 84.01 59.17 88.68 56.34 93.17 53.31 C 97.21 54.35 101.26 55.40 105.11 57.03 C 106.24 59.80 107.01 62.69 107.80 65.57 C 108.86 62.72 108.97 59.28 111.13 57.01 C 114.66 54.98 118.83 54.47 122.70 53.35 C 127.08 56.45 131.75 59.20 135.70 62.87 C 134.33 65.11 132.77 67.22 131.16 69.29 C 129.00 67.57 126.82 65.86 124.42 64.47 C 123.44 65.97 122.46 67.46 121.44 68.93 C 119.46 67.80 117.52 66.59 115.62 65.33 C 114.19 72.34 113.29 79.45 111.41 86.36 C 114.35 82.96 115.97 78.51 119.37 75.53 C 122.21 74.66 125.11 76.32 127.44 77.84 C 125.74 82.93 122.09 86.98 119.43 91.56 C 114.66 98.48 111.18 106.13 107.59 113.70 C 103.90 102.31 96.74 92.59 90.47 82.54 C 89.38 80.93 88.93 79.03 88.75 77.13 C 91.09 76.23 93.47 75.02 96.06 75.28 C 99.45 78.17 101.19 82.43 103.79 85.97 C 102.75 79.09 101.43 72.26 100.05 65.44 C 98.11 66.67 96.14 67.85 94.10 68.91 C 93.16 67.46 92.24 66.00 91.31 64.55 C 88.85 65.88 86.64 67.59 84.49 69.35 C 82.91 67.26 81.37 65.14 80.04 62.88 Z" />
<path fill="#000000" opacity="1.00" d=" M 48.26 57.16 C 50.96 57.20 53.66 57.20 56.36 57.15 C 57.17 62.32 57.26 67.57 58.07 72.74 C 55.00 75.57 52.42 79.04 48.86 81.29 C 45.70 82.09 42.56 80.24 39.50 79.56 C 41.56 81.35 43.90 82.88 45.58 85.06 C 45.99 87.94 44.96 90.76 44.35 93.55 C 43.74 95.40 43.47 97.66 41.70 98.83 C 38.04 101.33 33.86 102.93 29.72 104.45 C 27.44 103.46 25.97 101.43 25.56 98.99 C 27.18 96.94 29.96 96.31 31.95 94.67 C 32.30 93.09 31.29 91.60 30.90 90.11 C 31.87 88.65 34.87 87.62 33.64 85.56 C 26.24 77.13 16.92 70.59 9.48 62.18 C 15.26 62.87 20.66 65.19 26.20 66.86 C 31.98 68.84 37.83 70.64 43.59 72.69 C 43.79 70.88 43.58 68.97 44.27 67.25 C 45.77 66.35 47.66 66.75 49.32 66.46 C 49.69 63.31 48.80 60.23 48.26 57.16 Z" />
<path fill="#000000" opacity="1.00" d=" M 159.42 57.16 C 162.07 57.20 164.72 57.20 167.38 57.16 C 166.77 60.22 166.26 63.32 166.25 66.45 C 167.96 66.59 169.68 66.70 171.40 66.81 C 171.81 68.74 172.03 70.70 172.23 72.66 C 180.45 69.77 188.76 67.13 197.04 64.41 C 200.05 63.40 203.13 62.55 206.30 62.25 C 202.05 67.02 197.03 71.00 192.43 75.43 C 188.65 79.10 184.25 82.23 181.34 86.71 C 182.51 87.84 183.70 88.94 184.89 90.06 C 184.32 91.47 183.75 92.88 183.19 94.30 C 185.56 95.86 188.07 97.19 190.41 98.80 C 189.54 101.04 188.44 103.27 186.23 104.46 C 181.63 102.82 176.79 101.19 173.07 97.93 C 170.92 94.07 170.12 89.38 170.21 84.99 C 171.88 82.88 174.11 81.32 176.15 79.59 C 173.19 80.31 170.25 81.82 167.14 81.43 C 163.46 79.20 160.86 75.61 157.65 72.79 C 158.14 67.57 158.81 62.36 159.42 57.16 Z" />
<path fill="#000000" opacity="1.00" d=" M 61.82 71.79 C 65.45 70.08 69.40 67.13 73.59 68.49 C 74.99 69.75 75.52 71.66 76.40 73.27 C 73.98 74.76 71.39 75.94 68.95 77.39 C 69.54 78.90 70.16 80.39 70.77 81.89 C 69.22 83.29 67.67 84.66 66.13 86.07 C 70.74 90.47 75.87 94.28 80.90 98.18 C 79.02 94.15 77.07 90.16 75.04 86.21 C 77.24 84.50 79.55 82.94 82.04 81.68 C 86.82 87.79 89.49 95.17 93.40 101.82 C 95.94 106.24 98.85 110.43 101.74 114.62 C 88.72 115.91 75.58 115.27 62.51 115.54 C 62.53 112.94 62.79 110.34 63.89 107.95 C 68.20 106.45 72.78 106.79 77.26 106.55 C 71.17 103.79 65.02 101.09 58.54 99.39 C 58.06 101.29 57.66 103.22 57.23 105.14 C 55.64 105.29 54.04 105.35 52.46 105.63 C 51.59 108.66 52.78 111.79 53.21 114.81 C 50.47 114.80 47.73 114.80 44.99 114.73 C 44.78 109.56 43.97 104.44 43.56 99.29 C 46.75 96.46 49.33 92.82 53.07 90.71 C 56.07 90.42 58.95 91.86 61.83 92.52 C 59.82 90.11 57.01 88.10 55.88 85.10 C 56.45 80.30 56.93 74.24 61.82 71.79 Z" />
<path fill="#000000" opacity="1.00" d=" M 139.58 73.01 C 140.20 70.52 141.94 67.29 145.05 68.14 C 149.32 69.17 153.61 71.11 156.85 74.12 C 158.71 77.42 159.60 81.32 159.77 85.08 C 158.78 88.14 155.81 90.05 153.81 92.45 C 156.79 91.95 159.84 90.18 162.85 90.86 C 166.46 93.08 169.39 96.35 172.12 99.56 C 171.76 104.65 170.98 109.72 170.61 114.82 C 167.93 114.79 165.25 114.79 162.57 114.84 C 163.18 111.83 163.67 108.79 163.62 105.71 C 161.86 105.39 159.98 105.51 158.33 104.78 C 157.64 102.97 158.36 98.42 155.12 99.95 C 149.41 101.70 143.86 104.00 138.49 106.61 C 142.48 106.90 146.65 106.25 150.49 107.63 C 153.60 108.92 153.03 112.79 153.28 115.49 C 140.18 115.30 127.00 115.94 113.95 114.60 C 117.94 108.94 121.81 103.17 124.89 96.95 C 127.66 91.88 129.94 86.52 133.39 81.84 C 136.00 82.87 138.86 84.16 140.39 86.60 C 138.63 90.55 136.54 94.34 134.64 98.23 C 139.77 94.44 144.79 90.46 149.50 86.14 C 148.09 84.74 146.52 83.48 145.24 81.94 C 145.20 80.34 146.28 78.96 146.76 77.49 C 144.50 75.81 141.41 75.18 139.58 73.01 Z" />
<path fill="#000000" opacity="1.00" d=" M 105.20 116.06 C 107.09 115.29 109.16 115.75 111.12 115.87 C 111.25 117.94 111.26 120.01 111.13 122.07 C 109.12 122.69 106.54 123.88 104.73 122.18 C 103.35 120.50 103.15 117.33 105.20 116.06 Z" />
<path fill="#000000" opacity="1.00" d=" M 44.98 123.23 C 47.72 123.06 50.46 123.06 53.21 123.08 C 52.60 126.14 52.11 129.23 52.09 132.36 C 53.76 132.56 55.43 132.70 57.08 133.00 C 57.86 134.74 57.91 136.69 58.33 138.52 C 64.93 137.20 71.03 134.24 77.18 131.61 C 72.72 131.33 68.12 131.66 63.86 130.08 C 62.81 127.71 62.54 125.13 62.50 122.57 C 75.59 122.77 88.72 122.20 101.77 123.35 C 98.21 128.66 94.50 133.89 91.60 139.60 C 88.49 145.26 86.04 151.33 82.04 156.46 C 79.54 155.14 77.24 153.52 75.01 151.81 C 77.14 147.92 79.02 143.90 80.93 139.89 C 75.89 143.76 70.82 147.62 66.14 151.93 C 67.59 153.32 69.11 154.64 70.50 156.10 C 70.36 157.74 69.51 159.20 69.02 160.75 C 71.47 162.11 74.00 163.35 76.39 164.84 C 75.35 166.86 74.68 169.59 72.13 170.18 C 68.12 169.90 64.49 167.86 61.10 165.85 C 57.49 163.87 56.94 159.42 56.17 155.79 C 54.64 151.25 59.54 148.65 61.81 145.48 C 58.36 146.30 54.03 149.01 50.98 146.00 C 48.36 143.76 46.04 141.20 43.56 138.80 C 43.95 133.61 44.80 128.45 44.98 123.23 Z" />
<path fill="#000000" opacity="1.00" d=" M 113.95 123.37 C 127.02 122.19 140.18 122.75 153.28 122.60 C 152.97 125.30 153.65 129.24 150.47 130.48 C 146.71 131.78 142.62 131.23 138.72 131.61 C 144.79 134.33 150.87 137.36 157.49 138.46 C 157.75 136.74 157.77 134.95 158.33 133.28 C 160.00 132.55 161.87 132.62 163.64 132.34 C 163.64 129.20 163.15 126.10 162.59 123.02 C 165.23 123.10 167.88 122.95 170.51 123.24 C 171.23 128.39 171.58 133.59 172.20 138.76 C 169.11 141.56 166.54 145.01 162.95 147.22 C 159.82 147.80 156.80 146.26 153.80 145.58 C 155.71 147.72 157.92 149.64 159.51 152.05 C 160.26 154.90 159.02 157.82 158.37 160.58 C 157.08 166.27 150.63 167.98 145.88 169.81 C 142.30 171.48 140.26 167.55 139.34 164.80 C 141.74 163.29 144.30 162.08 146.77 160.69 C 146.32 159.19 145.21 157.80 145.25 156.19 C 146.51 154.59 148.08 153.29 149.46 151.81 C 144.71 147.59 139.73 143.65 134.66 139.82 C 136.63 143.81 138.60 147.79 140.62 151.75 C 138.47 153.65 136.11 155.33 133.41 156.34 C 128.77 149.70 125.78 142.12 121.65 135.18 C 119.31 131.10 116.52 127.30 113.95 123.37 Z" />
<path fill="#000000" opacity="1.00" d=" M 91.21 154.27 C 97.67 144.88 103.52 135.07 107.98 124.56 C 112.10 135.90 119.09 145.78 125.43 155.93 C 126.30 157.53 127.81 160.36 125.63 161.49 C 123.61 162.37 120.87 163.53 118.86 162.13 C 116.02 159.18 114.26 155.41 111.87 152.12 C 112.96 159.02 114.37 165.87 115.61 172.75 C 117.49 171.53 119.38 170.33 121.29 169.17 C 122.47 170.64 123.59 172.14 124.76 173.61 C 126.96 172.09 129.06 170.43 131.15 168.76 C 132.76 170.83 134.32 172.95 135.70 175.19 C 131.74 178.74 127.32 181.77 122.78 184.53 C 119.46 184.25 116.20 183.12 113.04 182.04 C 108.85 180.72 109.00 175.54 107.72 172.08 C 106.77 175.39 106.96 179.80 103.65 181.81 C 100.58 183.18 97.17 183.88 93.83 183.88 C 88.39 182.75 84.15 178.67 80.06 175.17 C 81.40 172.95 82.91 170.85 84.43 168.75 C 86.60 170.44 88.78 172.11 91.07 173.64 C 92.08 172.24 93.01 170.79 94.07 169.43 C 96.33 169.93 98.10 171.55 100.05 172.69 C 101.40 165.86 102.79 159.03 103.73 152.14 C 101.11 155.65 99.53 160.09 95.95 162.78 C 93.53 162.76 91.00 162.30 89.01 160.86 C 88.05 158.46 90.12 156.24 91.21 154.27 Z" />
<path fill="#000000" opacity="1.00" d=" M 25.55 139.11 C 26.13 136.60 27.85 133.21 31.00 133.99 C 34.34 134.99 37.48 136.61 40.44 138.44 C 44.48 140.84 44.57 146.11 45.57 150.19 C 46.72 154.28 41.95 155.99 39.62 158.43 C 42.43 157.76 45.15 156.65 48.03 156.40 C 52.08 158.51 54.81 162.32 58.09 165.38 C 57.27 170.51 57.17 175.72 56.35 180.85 C 53.67 180.80 50.99 180.80 48.31 180.82 C 48.60 177.89 49.91 174.91 49.30 171.97 C 47.84 171.57 46.34 171.38 44.88 171.02 C 43.05 169.83 44.01 167.26 43.64 165.43 C 32.22 169.01 21.05 173.44 9.39 176.15 C 16.92 167.07 27.21 160.61 34.48 151.29 C 33.27 150.21 32.06 149.15 30.86 148.06 C 31.32 146.75 31.82 145.44 32.13 144.08 C 30.84 141.52 27.08 141.53 25.55 139.11 Z" />
<path fill="#000000" opacity="1.00" d=" M 184.16 134.15 C 187.41 132.83 189.55 136.29 190.14 138.98 C 188.52 141.33 185.34 141.99 183.15 143.77 C 183.73 145.18 184.31 146.59 184.91 147.99 C 183.70 149.12 182.49 150.24 181.31 151.39 C 188.55 160.61 198.65 167.13 206.30 176.00 C 194.62 173.62 183.57 168.93 172.19 165.49 C 172.02 167.37 171.85 169.26 171.43 171.10 C 169.69 171.40 167.83 171.33 166.21 172.13 C 166.24 175.07 166.85 177.96 167.37 180.85 C 164.71 180.80 162.05 180.79 159.38 180.82 C 158.78 175.68 158.21 170.54 157.60 165.40 C 160.71 162.46 163.40 158.96 167.05 156.65 C 170.10 156.04 173.08 157.96 176.06 158.46 C 174.09 156.67 171.76 155.20 170.19 153.01 C 170.08 148.63 170.98 144.04 173.14 140.19 C 176.18 137.24 180.26 135.61 184.16 134.15 Z" />
<path fill="#000000" opacity="1.00" d=" M 80.05 195.01 C 84.18 191.61 88.52 188.40 93.18 185.77 C 97.08 186.63 101.13 187.38 104.69 189.26 C 106.74 191.53 106.80 194.95 107.75 197.76 C 108.88 194.88 108.91 191.29 111.27 189.11 C 114.87 187.35 118.87 186.64 122.74 185.69 C 127.11 188.70 131.62 191.54 135.67 194.99 C 134.33 197.26 132.76 199.38 131.14 201.45 C 128.99 199.66 126.86 197.79 124.29 196.62 C 123.44 198.03 122.60 199.46 121.78 200.88 C 119.82 200.12 117.88 199.33 115.94 198.53 C 114.03 206.65 112.21 214.80 110.43 222.95 C 109.65 226.31 109.04 229.77 107.49 232.89 C 104.58 221.50 102.74 209.86 99.61 198.52 C 97.74 199.35 95.88 200.16 93.98 200.91 C 92.96 199.60 92.48 197.66 90.94 196.86 C 88.51 197.94 86.59 199.86 84.48 201.44 C 82.91 199.36 81.40 197.23 80.05 195.01 Z" />
</g>
</svg>
