<?xml version="1.0" encoding="UTF-8" ?>
<!DOCTYPE svg PUBLIC "-//W3C//DTD SVG 1.1//EN" "http://www.w3.org/Graphics/SVG/1.1/DTD/svg11.dtd">
<svg width="338pt" height="338pt" viewBox="0 0 338 338" version="1.1" xmlns="http://www.w3.org/2000/svg">
<g id="#ffffffff">
</g>
<g id="#010103ff">
<path fill="#010103" opacity="1.00" d=" M 139.23 0.00 L 159.78 0.00 C 159.78 7.61 159.77 15.22 159.79 22.83 C 166.85 15.78 173.90 8.72 180.95 1.67 C 185.81 6.50 190.60 11.39 195.54 16.15 C 183.64 28.09 171.72 40.01 159.78 51.91 C 159.76 64.83 159.81 77.75 159.76 90.68 C 153.03 89.26 146.02 89.14 139.31 90.71 C 139.15 77.77 139.29 64.84 139.24 51.90 C 127.29 40.01 115.37 28.09 103.48 16.14 C 108.44 11.43 113.18 6.49 118.03 1.66 C 125.08 8.73 132.15 15.78 139.22 22.83 C 139.25 15.22 139.22 7.61 139.23 0.00 Z" />
<path fill="#010103" opacity="1.00" d=" M 74.50 20.22 L 74.75 19.86 C 81.46 19.61 88.19 19.80 94.90 19.72 C 95.41 36.60 94.81 53.57 95.45 70.41 C 104.41 79.54 113.55 88.50 122.69 97.45 C 117.02 101.46 112.22 106.49 108.15 112.10 C 99.00 102.87 89.76 93.72 80.41 84.69 C 63.76 85.07 47.09 84.40 30.46 85.24 C 29.95 78.37 30.37 71.46 30.15 64.58 C 40.09 64.41 50.04 64.62 59.98 64.35 C 54.77 58.80 49.04 53.76 43.92 48.13 C 48.77 43.57 53.23 38.61 58.10 34.09 C 59.30 34.26 59.99 35.43 60.88 36.14 C 65.38 40.71 70.01 45.14 74.49 49.73 C 74.61 39.89 74.29 30.05 74.50 20.22 Z" />
<path fill="#010103" opacity="1.00" d=" M 204.11 19.70 C 210.81 19.81 217.53 19.62 224.23 19.85 C 224.81 20.89 224.48 22.21 224.65 23.36 C 218.41 26.58 213.08 31.76 210.16 38.19 C 207.31 43.98 206.54 50.53 206.46 56.91 C 206.43 69.62 206.47 82.34 206.45 95.05 C 206.81 96.61 205.37 97.50 204.49 98.50 C 199.91 103.01 195.33 107.51 190.83 112.09 C 186.78 106.45 181.93 101.45 176.24 97.45 C 185.48 88.52 194.51 79.37 203.72 70.40 C 203.99 53.50 203.57 36.59 204.11 19.70 Z" />
<path fill="#010103" opacity="1.00" d=" M 243.13 28.38 C 248.71 26.03 254.89 25.80 260.85 26.29 C 273.28 27.75 284.53 36.27 289.43 47.77 C 292.86 55.35 292.57 63.85 292.52 71.99 C 292.52 117.30 292.51 162.61 292.52 207.92 C 301.43 213.52 309.44 220.69 315.23 229.53 C 325.70 245.01 329.26 264.80 325.36 283.03 C 321.93 299.01 312.62 313.63 299.62 323.53 C 288.16 332.42 273.87 337.34 259.43 338.00 L 255.43 338.00 C 244.80 337.59 234.22 334.94 224.79 330.00 C 211.15 322.90 200.05 311.12 193.64 297.16 C 187.47 283.50 185.61 267.82 189.08 253.18 C 193.01 235.17 204.45 219.08 219.86 209.04 C 219.82 162.36 219.86 115.68 219.83 68.99 C 219.77 62.84 219.79 56.53 221.82 50.64 C 225.16 40.54 233.15 32.12 243.13 28.38 M 244.79 57.86 C 240.97 62.66 240.11 69.07 240.16 75.02 C 240.12 126.76 240.15 178.50 240.14 230.24 C 232.91 232.89 225.91 236.97 221.28 243.27 C 212.42 254.99 210.97 271.64 216.97 284.96 C 220.83 294.06 228.04 301.57 236.71 306.24 C 247.12 311.72 259.80 312.87 270.96 309.01 C 282.76 305.17 292.66 295.98 297.50 284.57 C 303.17 271.39 301.69 255.27 293.35 243.54 C 288.58 236.70 281.27 232.02 273.35 229.66 C 272.84 205.14 273.33 180.55 273.11 156.00 C 273.16 151.33 273.17 146.67 273.11 142.00 C 273.17 124.33 273.17 106.67 273.11 89.00 C 273.18 81.71 273.34 74.38 272.36 67.13 C 271.42 61.97 268.88 56.54 263.90 54.20 C 257.69 51.41 249.13 52.15 244.79 57.86 Z" />
<path fill="#010103" opacity="1.00" d=" M 250.96 59.79 C 255.22 57.53 261.95 57.77 264.51 62.45 C 266.90 66.52 267.08 71.39 267.22 75.99 C 267.20 100.91 267.26 125.83 267.19 150.75 C 260.05 150.68 252.90 150.86 245.75 150.64 C 245.90 125.43 245.72 100.21 245.84 75.00 C 246.18 69.72 246.38 63.32 250.96 59.79 Z" />
<path fill="#010103" opacity="1.00" d=" M 12.67 106.99 C 17.51 102.20 22.39 97.45 27.08 92.51 C 39.09 104.39 50.94 116.43 62.96 128.30 C 75.84 128.28 88.71 128.29 101.59 128.30 C 100.29 135.02 100.27 141.96 101.62 148.68 C 88.73 148.77 75.85 148.70 62.96 148.72 C 51.02 160.67 39.10 172.66 27.10 184.55 C 22.36 179.60 17.46 174.83 12.61 169.99 C 19.63 162.91 26.81 155.98 33.68 148.75 C 26.16 148.67 18.64 148.75 11.12 148.71 C 11.16 141.90 11.13 135.10 11.13 128.29 C 18.69 128.27 26.24 128.34 33.79 128.25 C 26.87 121.05 19.67 114.11 12.67 106.99 Z" />
<path fill="#010103" opacity="1.00" d=" M 141.18 102.21 C 156.24 98.49 173.18 105.49 181.15 118.81 C 188.22 129.89 188.67 144.73 182.30 156.22 C 177.36 165.63 168.12 172.56 157.78 174.90 C 148.34 176.91 138.06 175.45 129.87 170.21 C 121.18 164.96 114.95 155.92 112.96 145.98 C 111.05 136.51 112.87 126.29 118.21 118.22 C 123.39 110.18 131.79 104.20 141.18 102.21 Z" />
<path fill="#010103" opacity="1.00" d=" M 197.40 128.28 C 200.42 128.31 203.45 128.31 206.47 128.33 C 206.45 135.12 206.44 141.91 206.48 148.70 C 203.44 148.73 200.40 148.72 197.36 148.76 C 198.75 142.01 198.72 135.04 197.40 128.28 Z" />
<path fill="#010103" opacity="1.00" d=" M 82.47 190.51 C 90.99 181.94 99.63 173.48 108.16 164.91 C 112.16 170.61 117.13 175.47 122.68 179.65 C 113.79 188.11 105.26 196.93 96.48 205.50 C 94.63 206.74 95.34 209.12 95.20 210.98 C 95.10 226.43 95.27 241.89 94.89 257.34 C 88.08 257.30 81.27 257.27 74.46 257.29 C 74.41 247.31 74.53 237.33 74.52 227.35 C 69.31 232.71 63.71 237.67 58.65 243.18 C 53.29 238.83 48.76 233.51 43.94 228.58 C 49.44 223.41 54.74 218.04 60.06 212.70 C 50.10 212.61 40.13 212.56 30.16 212.43 C 30.25 205.57 30.18 198.72 30.29 191.86 C 46.55 192.37 62.82 192.01 79.09 192.25 C 80.58 192.66 81.52 191.36 82.47 190.51 Z" />
<path fill="#010103" opacity="1.00" d=" M 190.52 164.97 C 196.14 169.84 201.19 175.35 206.48 180.57 C 206.40 187.36 206.52 194.14 206.41 200.93 C 204.86 202.21 203.36 203.54 201.86 204.86 C 193.31 196.47 184.94 187.90 176.30 179.60 C 181.73 175.47 186.92 170.84 190.52 164.97 Z" />
<path fill="#010103" opacity="1.00" d=" M 139.18 186.45 C 146.00 187.64 152.99 187.76 159.80 186.40 C 159.72 199.29 159.82 212.19 159.75 225.09 C 165.58 231.07 171.57 236.90 177.44 242.85 C 175.15 251.60 174.73 260.73 175.25 269.73 C 170.16 264.51 165.06 259.29 159.80 254.24 C 159.76 261.78 159.77 269.32 159.80 276.86 C 152.95 276.85 146.09 276.84 139.24 276.87 C 139.21 269.33 139.26 261.78 139.22 254.23 C 132.05 261.22 124.98 268.30 117.98 275.45 C 113.47 270.21 107.66 266.04 103.72 260.36 C 115.74 248.77 127.37 236.77 139.24 225.02 C 139.18 212.16 139.31 199.31 139.18 186.45 Z" />
<path fill="#010103" opacity="1.00" d=" M 280.66 256.00 C 283.81 255.58 287.50 256.81 289.31 259.55 C 290.60 261.81 290.26 264.50 290.30 266.99 C 289.83 277.47 285.64 287.75 278.57 295.51 C 274.93 299.46 267.71 298.82 264.72 294.45 C 263.00 291.99 265.17 289.45 266.70 287.59 C 272.61 280.52 275.56 271.18 274.79 261.99 C 274.20 258.48 277.64 256.38 280.66 256.00 Z" />
</g>
</svg>
