<?xml version="1.0" encoding="UTF-8" ?>
<!DOCTYPE svg PUBLIC "-//W3C//DTD SVG 1.1//EN" "http://www.w3.org/Graphics/SVG/1.1/DTD/svg11.dtd">
<svg width="225pt" height="225pt" viewBox="0 0 225 225" version="1.1" xmlns="http://www.w3.org/2000/svg">
<g id="#ffffffff">
</g>
<g id="#010102ff">
<path fill="#010102" opacity="1.00" d=" M 107.89 21.35 C 108.95 20.49 109.87 19.42 111.11 18.81 C 113.54 18.08 115.39 20.11 117.16 21.38 C 117.10 23.92 116.86 26.81 114.18 27.98 C 121.30 29.49 122.46 40.12 116.06 43.38 C 116.06 45.72 116.05 48.05 116.02 50.38 C 118.53 47.81 121.06 45.27 123.63 42.76 C 125.44 44.27 127.28 45.73 129.05 47.29 C 124.90 51.59 120.66 55.80 116.40 60.00 C 116.44 62.01 116.45 64.03 116.45 66.04 C 121.60 60.72 126.94 55.58 132.10 50.27 C 133.75 51.86 135.36 53.48 136.97 55.11 C 130.21 61.77 123.57 68.54 116.81 75.20 C 117.19 81.56 116.81 87.94 116.95 94.31 C 119.31 89.13 121.35 83.82 123.57 78.58 C 126.94 77.16 130.28 75.63 133.67 74.26 C 133.15 72.71 132.73 71.13 132.47 69.52 C 133.85 68.02 135.46 66.76 137.24 65.76 C 139.56 66.84 141.29 68.67 142.44 70.94 C 141.51 73.50 139.56 75.78 136.59 75.46 C 136.82 79.59 137.30 83.71 137.29 87.85 C 133.89 91.15 130.84 94.81 127.60 98.27 C 132.61 95.47 137.48 92.43 142.54 89.71 C 146.09 80.61 149.32 71.39 152.74 62.23 C 154.87 62.69 156.99 63.24 159.10 63.82 C 156.31 70.85 153.70 77.96 150.97 85.01 C 152.74 83.88 155.01 83.23 156.33 81.56 C 158.57 75.97 160.41 70.21 162.60 64.59 C 164.82 65.35 167.06 66.09 169.29 66.86 C 167.88 70.26 166.46 73.66 165.34 77.17 C 167.19 75.97 169.06 74.81 170.98 73.74 C 171.38 71.80 172.05 69.94 172.70 68.08 C 174.29 66.86 175.99 65.78 177.68 64.70 C 180.29 64.80 182.87 65.37 185.08 66.82 C 185.19 63.73 186.91 61.41 189.98 60.78 C 191.01 61.13 192.05 61.48 193.09 61.82 C 193.73 62.76 194.39 63.69 195.05 64.62 C 194.68 66.45 195.08 68.95 193.18 70.03 C 191.50 71.13 189.47 70.57 187.62 70.42 C 188.37 74.02 187.36 78.14 184.17 80.26 C 181.52 82.19 178.11 80.80 175.13 81.12 C 172.90 82.01 170.78 83.16 168.61 84.17 C 172.08 84.89 175.52 85.78 178.96 86.63 C 178.58 88.88 178.14 91.13 177.74 93.38 C 172.05 92.07 166.41 90.56 160.75 89.13 C 158.71 90.15 156.69 91.21 154.66 92.24 C 161.96 93.59 169.10 95.71 176.37 97.23 C 175.98 99.33 175.55 101.42 175.17 103.52 C 166.26 101.52 157.38 99.36 148.50 97.24 C 146.71 96.59 144.97 97.56 143.44 98.39 C 138.94 100.95 134.48 103.58 129.86 105.91 C 135.64 105.79 141.25 103.98 147.03 103.90 C 150.01 105.92 152.66 108.41 155.49 110.65 L 155.88 110.18 C 156.02 111.20 156.15 112.22 156.28 113.24 C 152.18 114.35 149.01 117.65 144.89 118.59 C 139.46 117.58 134.15 116.01 128.74 114.96 C 133.79 117.75 138.67 120.89 143.87 123.42 C 153.81 121.26 163.78 118.97 173.61 116.30 C 174.52 118.40 175.29 120.55 176.03 122.71 C 167.66 124.39 159.52 127.08 151.10 128.49 C 153.78 129.50 156.18 131.39 159.04 131.83 C 165.15 130.57 171.14 128.74 177.24 127.41 C 177.93 129.56 178.64 131.70 179.39 133.84 C 174.73 134.70 170.19 136.12 165.54 136.99 C 167.61 137.94 169.66 138.93 171.72 139.92 C 177.37 136.73 185.71 141.79 184.20 148.51 C 186.12 147.94 188.41 147.28 190.03 148.89 C 192.63 150.28 192.35 153.45 192.12 155.94 C 190.49 156.86 188.80 157.67 187.08 158.43 C 184.82 157.33 182.06 155.90 182.07 153.00 C 179.09 155.57 174.43 156.34 171.23 153.71 C 168.64 152.23 168.18 149.00 167.55 146.37 C 165.80 145.40 164.07 144.38 162.35 143.37 C 163.54 147.61 164.72 151.85 165.78 156.13 C 163.54 156.46 161.32 156.87 159.11 157.29 C 157.70 151.79 156.05 146.36 154.67 140.86 C 154.18 137.52 150.28 136.69 148.03 134.75 C 150.02 142.77 152.30 150.72 154.39 158.72 C 152.35 159.08 150.31 159.47 148.29 159.91 C 145.41 150.06 142.72 140.14 140.12 130.21 C 134.89 127.41 130.01 124.02 124.77 121.26 C 129.11 125.57 133.47 129.86 137.78 134.21 C 137.02 137.97 136.39 141.76 135.39 145.46 C 137.70 146.17 140.32 147.52 140.80 150.13 C 141.57 152.63 139.39 155.00 136.98 155.32 C 134.76 156.08 133.21 153.87 131.63 152.76 C 131.55 150.58 131.68 148.35 133.62 147.00 C 129.86 145.93 126.33 144.24 122.64 143.00 C 121.21 138.44 119.54 133.95 118.24 129.35 L 117.62 129.48 C 117.71 135.08 117.76 140.68 117.66 146.28 C 124.47 153.24 131.45 160.04 138.28 166.98 C 136.63 168.54 135.01 170.13 133.41 171.74 C 128.24 166.58 123.40 161.11 118.18 156.00 C 118.18 158.04 118.17 160.08 118.17 162.12 C 122.27 166.33 126.51 170.41 130.68 174.56 C 129.03 176.16 127.39 177.78 125.77 179.40 C 123.36 176.98 120.94 174.57 118.64 172.04 C 118.52 174.30 118.52 176.56 118.59 178.82 C 120.44 180.44 122.77 182.15 122.88 184.86 C 123.55 189.26 120.39 193.33 116.22 194.45 C 117.78 195.49 118.62 197.14 119.33 198.83 C 118.91 199.85 118.51 200.87 118.11 201.90 C 115.81 203.20 112.75 203.66 110.64 201.73 C 109.35 199.80 109.89 197.58 110.43 195.51 C 110.96 195.20 112.04 194.59 112.58 194.28 C 107.84 192.86 105.52 187.68 106.84 183.06 C 108.03 181.58 109.24 180.10 110.62 178.79 C 110.66 176.53 110.70 174.26 110.74 172.00 C 108.18 174.49 105.94 177.28 103.44 179.83 C 101.78 178.20 100.12 176.57 98.38 175.03 C 102.78 171.15 106.46 166.55 110.69 162.50 C 110.70 160.38 110.70 158.26 110.66 156.14 C 105.36 161.30 100.17 166.57 94.92 171.78 C 93.33 170.17 91.73 168.57 90.04 167.08 C 96.71 160.31 103.49 153.65 110.18 146.90 C 110.08 140.49 110.25 134.08 110.13 127.68 C 108.16 132.65 106.73 137.82 104.96 142.87 C 101.13 144.45 97.43 146.38 93.44 147.53 C 96.90 149.28 95.13 153.85 92.55 155.63 C 90.42 155.59 88.35 155.12 86.59 153.86 C 86.38 153.07 85.96 151.47 85.75 150.68 C 86.79 148.02 88.78 145.49 92.00 146.19 C 91.93 142.23 91.33 138.32 90.87 134.40 C 94.15 130.69 96.99 126.61 100.13 122.78 C 95.09 125.56 90.06 128.39 84.97 131.07 C 81.49 140.31 78.08 149.61 74.90 158.96 C 72.88 158.35 70.88 157.68 68.87 157.02 C 71.49 149.96 73.97 142.85 76.57 135.79 C 74.85 136.67 73.16 137.62 71.45 138.53 C 69.23 144.35 67.24 150.26 65.02 156.08 C 62.76 155.36 60.51 154.65 58.22 154.05 C 59.71 150.63 61.12 147.17 62.67 143.78 C 60.48 144.88 58.31 146.00 56.16 147.14 C 55.94 150.42 54.44 153.89 51.23 155.23 C 48.38 156.70 44.97 155.84 42.42 154.14 C 42.01 155.99 41.19 157.68 40.03 159.18 C 37.41 159.93 34.39 159.62 32.87 157.08 C 30.23 153.21 35.68 147.54 39.64 150.46 C 39.42 147.93 39.23 145.08 40.89 142.95 C 42.55 140.66 45.28 139.61 47.88 138.82 C 49.23 139.38 50.58 139.95 51.93 140.52 C 54.05 139.20 56.20 137.93 58.37 136.71 C 55.08 135.88 51.77 135.12 48.42 134.56 C 49.05 132.32 49.65 130.08 50.20 127.82 C 55.84 128.90 61.39 130.47 67.05 131.45 C 69.15 131.07 70.98 129.73 72.96 128.93 C 65.63 127.50 58.42 125.49 51.11 123.96 C 51.52 121.85 51.91 119.74 52.24 117.62 C 61.89 119.54 71.41 122.18 81.10 123.83 C 86.90 121.12 92.31 117.58 98.09 114.80 C 92.30 115.00 86.74 117.21 80.95 117.24 C 78.46 115.62 76.35 113.49 74.06 111.61 C 72.84 114.31 70.19 116.80 67.07 115.30 C 63.05 114.13 64.09 108.51 66.84 106.45 C 69.48 106.09 71.92 107.08 73.67 109.05 C 76.23 106.90 78.80 104.77 81.28 102.52 C 86.92 103.38 92.50 104.64 98.10 105.76 C 94.04 102.73 89.50 100.43 85.17 97.83 C 83.92 96.85 82.40 97.63 81.05 97.88 C 72.19 100.14 63.23 102.04 54.40 104.42 C 53.35 102.38 52.56 100.23 51.72 98.10 C 59.83 96.19 67.88 94.01 76.02 92.18 C 73.62 91.20 71.51 89.20 68.89 89.02 C 62.73 90.13 56.76 92.05 50.65 93.39 C 49.94 91.25 49.21 89.12 48.44 87.00 C 52.75 86.08 57.02 84.92 61.22 83.59 C 59.47 82.54 57.70 81.51 55.96 80.43 C 52.64 81.38 48.12 82.48 45.59 79.37 C 43.15 77.37 43.03 73.98 43.49 71.10 C 41.45 71.72 39.44 71.22 37.49 70.57 C 36.72 69.09 35.99 67.59 35.38 66.04 C 36.55 64.31 37.51 61.43 40.05 61.50 C 43.29 60.83 45.58 63.72 46.37 66.51 C 48.07 65.85 49.81 65.29 51.56 64.79 C 54.36 65.59 57.22 66.86 58.84 69.42 C 59.36 70.93 59.59 72.52 59.90 74.09 C 61.80 75.13 63.66 76.25 65.53 77.35 C 64.38 72.95 63.37 68.52 62.01 64.19 C 64.13 63.81 66.25 63.39 68.36 62.96 C 70.14 69.27 71.75 75.61 73.38 81.95 C 75.44 83.28 77.47 84.64 79.50 86.00 C 77.48 78.03 75.56 70.04 73.50 62.08 C 75.63 61.56 77.76 61.00 79.89 60.47 C 82.43 70.49 85.32 80.43 87.75 90.48 C 92.77 93.28 97.43 96.68 102.52 99.34 C 98.85 94.61 95.32 89.76 91.80 84.91 C 92.61 81.97 93.37 79.03 94.19 76.10 C 94.36 74.87 95.35 73.69 96.69 73.85 C 99.84 75.02 102.97 76.26 106.14 77.37 C 107.15 82.64 107.95 87.96 109.30 93.16 C 109.57 87.84 109.35 82.50 109.36 77.17 C 109.49 75.40 107.97 74.23 106.88 73.08 C 100.86 67.23 95.05 61.16 89.02 55.32 C 90.64 53.69 92.25 52.05 93.86 50.42 C 98.85 55.44 103.58 60.69 108.55 65.73 C 108.50 63.80 108.81 61.81 108.35 59.93 C 104.48 55.67 100.18 51.82 96.19 47.68 C 97.82 46.10 99.43 44.50 101.05 42.91 C 103.54 45.34 105.96 47.85 108.46 50.27 C 108.56 48.07 108.57 45.87 108.56 43.68 C 105.15 41.30 102.41 36.80 104.66 32.72 C 105.36 29.84 108.24 28.93 110.68 27.97 C 108.15 26.61 107.41 24.03 107.89 21.35 Z" />
<path fill="#010102" opacity="1.00" d=" M 89.07 67.27 C 90.05 66.00 91.61 65.39 92.93 64.56 C 96.63 65.36 99.29 70.22 95.81 72.97 C 95.32 73.18 94.34 73.60 93.86 73.81 L 93.11 73.96 C 89.59 74.45 87.38 70.06 89.07 67.27 Z" />
<path fill="#010102" opacity="1.00" d=" M 156.32 111.23 C 157.83 109.41 159.42 107.45 162.01 107.43 C 163.06 108.00 164.12 108.55 165.19 109.08 C 165.72 110.81 166.75 112.88 165.58 114.59 C 164.72 116.32 162.58 116.61 160.98 117.31 C 158.38 116.21 156.82 113.99 156.32 111.23 Z" />
</g>
</svg>
