<?xml version="1.0" encoding="UTF-8" ?>
<!DOCTYPE svg PUBLIC "-//W3C//DTD SVG 1.1//EN" "http://www.w3.org/Graphics/SVG/1.1/DTD/svg11.dtd">
<svg width="291pt" height="289pt" viewBox="0 0 291 289" version="1.1" xmlns="http://www.w3.org/2000/svg">
<g id="#ffffffff">
</g>
<g id="#1a1a1aff">
<path fill="#1a1a1a" opacity="1.00" d=" M 120.31 26.56 C 129.95 21.29 139.34 15.60 148.94 10.28 C 158.49 15.66 167.96 21.17 177.50 26.55 C 177.57 31.77 177.52 36.98 177.54 42.20 C 171.38 42.88 165.19 43.12 159.02 43.59 C 158.97 47.47 159.37 51.34 159.65 55.21 C 164.62 55.08 169.58 55.57 174.54 55.47 C 178.50 58.49 182.47 61.49 186.43 64.50 C 182.52 67.61 178.58 70.68 174.64 73.76 C 170.03 73.99 165.42 74.04 160.81 74.00 C 160.81 75.82 160.81 77.63 160.80 79.45 C 164.14 79.40 167.46 79.56 170.79 79.79 C 170.92 83.94 170.56 88.07 170.50 92.22 C 167.35 92.31 164.21 92.55 161.06 92.55 C 160.96 94.62 160.84 96.69 160.76 98.76 C 167.76 95.68 174.59 92.22 181.60 89.19 C 182.37 96.56 182.87 103.96 183.88 111.30 C 185.54 110.55 187.20 109.79 188.85 109.03 C 187.50 106.23 185.97 103.52 184.73 100.67 C 187.63 97.99 191.52 96.30 194.84 94.07 C 196.72 97.05 198.64 100.01 200.51 103.01 C 202.22 101.99 203.92 100.96 205.63 99.94 C 203.76 95.83 201.06 92.15 199.27 88.01 C 199.06 82.88 199.70 77.74 199.79 72.60 C 204.07 74.19 208.29 75.93 212.59 77.47 C 213.64 77.93 214.97 78.17 215.46 79.36 C 217.59 83.07 219.66 86.81 221.76 90.53 C 225.41 89.01 228.96 87.27 232.58 85.67 C 229.85 80.46 227.25 75.20 224.46 70.03 C 229.03 67.23 233.71 64.61 238.30 61.86 C 247.69 67.16 256.97 72.64 266.38 77.90 C 266.73 88.84 266.70 99.80 267.03 110.75 C 262.42 113.43 257.74 115.97 253.11 118.62 C 249.72 113.69 246.44 108.67 243.09 103.70 C 239.63 105.53 236.20 107.42 232.77 109.31 C 235.14 113.59 237.85 117.67 240.15 121.98 C 240.21 127.04 239.21 132.07 238.92 137.12 C 233.97 135.04 228.72 133.50 223.99 131.02 C 221.49 127.03 219.53 122.72 217.17 118.64 C 215.24 119.58 213.30 120.50 211.32 121.33 C 213.03 124.66 215.10 127.78 216.96 131.02 C 213.18 133.27 209.34 135.44 205.55 137.67 C 203.82 134.55 202.29 131.34 200.68 128.17 C 198.70 129.31 196.72 130.46 194.75 131.61 C 201.16 136.52 207.74 141.21 214.24 146.00 C 207.74 150.79 201.19 155.52 194.74 160.38 C 196.72 161.54 198.70 162.71 200.67 163.89 C 202.24 160.71 203.82 157.53 205.48 154.39 C 209.36 156.48 213.13 158.79 216.96 160.98 C 215.09 164.18 213.16 167.34 211.26 170.52 C 213.24 171.47 215.22 172.44 217.20 173.39 C 219.08 169.89 220.98 166.40 222.82 162.89 C 223.43 161.88 223.90 160.56 225.18 160.25 C 229.74 158.46 234.32 156.70 238.87 154.90 C 239.27 159.92 240.16 164.93 240.18 169.97 C 237.87 174.30 235.21 178.43 232.76 182.68 C 236.17 184.61 239.60 186.49 243.06 188.33 C 246.42 183.37 249.69 178.35 253.12 173.44 C 257.77 176.02 262.41 178.62 267.03 181.25 C 266.70 192.20 266.73 203.16 266.37 214.11 C 256.94 219.35 247.69 224.94 238.24 230.14 C 233.70 227.36 229.06 224.75 224.48 222.05 C 227.19 216.82 229.89 211.58 232.58 206.34 C 228.96 204.75 225.42 202.99 221.77 201.47 C 219.49 205.55 217.18 209.61 214.88 213.67 C 209.82 215.52 204.84 217.55 199.79 219.40 C 199.71 214.28 199.06 209.15 199.28 204.03 C 201.03 199.89 203.71 196.20 205.66 192.14 C 203.95 191.08 202.24 190.03 200.52 188.98 C 198.65 191.98 196.77 194.97 194.83 197.93 C 191.40 195.91 188.07 193.71 184.62 191.73 C 185.87 188.74 187.40 185.88 188.85 182.99 C 187.18 182.21 185.51 181.45 183.83 180.71 C 182.94 188.05 182.33 195.43 181.62 202.79 C 174.55 199.87 167.77 196.31 160.76 193.24 C 160.84 195.30 160.95 197.37 161.06 199.44 C 164.21 199.51 167.35 199.74 170.50 199.77 C 170.56 203.92 170.89 208.06 170.81 212.21 C 167.49 212.53 164.15 212.59 160.81 212.55 C 160.81 214.36 160.81 216.18 160.81 218.00 C 165.39 217.93 169.97 218.10 174.55 218.22 C 178.54 221.27 182.49 224.38 186.41 227.52 C 182.47 230.54 178.52 233.54 174.55 236.52 C 169.57 236.53 164.59 236.93 159.61 236.81 C 159.43 240.68 158.98 244.54 158.99 248.42 C 165.17 248.90 171.37 249.16 177.54 249.80 C 177.53 255.00 177.55 260.20 177.53 265.40 C 168.00 270.86 158.49 276.33 148.95 281.76 C 139.38 276.32 129.84 270.80 120.25 265.39 C 120.13 260.19 120.21 255.00 120.20 249.81 C 126.47 249.18 132.76 248.90 139.04 248.41 C 138.82 244.54 138.55 240.67 138.23 236.81 C 133.30 236.93 128.37 236.52 123.44 236.53 C 119.44 233.58 115.49 230.57 111.55 227.55 C 115.33 224.32 119.39 221.43 123.22 218.26 C 127.88 218.07 132.53 217.94 137.20 218.00 C 137.19 216.18 137.19 214.36 137.18 212.54 C 133.84 212.59 130.50 212.53 127.17 212.21 C 127.20 208.05 127.09 203.89 127.47 199.74 C 130.63 199.75 133.80 199.52 136.96 199.43 C 137.00 197.38 137.03 195.32 137.09 193.28 C 130.15 196.42 123.26 199.70 116.35 202.93 C 115.57 195.51 114.98 188.08 114.09 180.68 C 112.40 181.45 110.71 182.23 109.03 183.02 C 110.48 185.87 111.92 188.74 113.33 191.62 C 109.92 193.72 106.54 195.90 103.08 197.93 C 101.12 195.01 99.26 192.02 97.47 188.99 C 95.71 190.03 93.95 191.09 92.20 192.16 C 94.38 196.12 96.72 200.00 98.74 204.05 C 98.72 209.16 98.16 214.27 98.24 219.39 C 93.14 217.66 88.20 215.50 83.12 213.71 C 80.70 209.67 78.47 205.53 76.12 201.45 C 72.53 203.03 69.01 204.78 65.36 206.23 C 67.96 211.54 70.78 216.73 73.40 222.03 C 68.76 224.78 64.15 227.58 59.39 230.12 C 50.14 224.58 40.62 219.49 31.42 213.87 C 31.39 202.98 31.00 192.08 31.01 181.18 C 35.54 178.53 40.19 176.10 44.68 173.39 C 48.23 178.25 51.44 183.34 54.82 188.31 C 58.30 186.50 61.73 184.59 65.16 182.69 C 62.63 178.40 60.06 174.14 57.56 169.83 C 58.08 164.85 58.42 159.85 59.12 154.89 C 63.65 156.76 68.24 158.46 72.79 160.27 C 74.02 160.60 74.42 161.94 75.07 162.88 C 76.97 166.35 78.76 169.88 80.74 173.32 C 82.68 172.35 84.63 171.39 86.59 170.45 C 84.71 167.29 82.83 164.14 80.92 161.00 C 84.75 158.75 88.58 156.53 92.45 154.34 C 94.07 157.51 95.62 160.71 97.35 163.82 C 99.27 162.65 101.22 161.51 103.17 160.39 C 96.77 155.50 90.17 150.89 83.77 146.00 C 90.17 141.11 96.82 136.55 103.15 131.57 C 101.19 130.46 99.23 129.34 97.29 128.20 C 95.65 131.34 94.05 134.50 92.44 137.66 C 88.59 135.48 84.74 133.27 80.93 131.01 C 82.83 127.86 84.72 124.71 86.60 121.56 C 84.63 120.61 82.68 119.65 80.74 118.68 C 78.21 122.84 76.42 127.46 73.53 131.38 C 68.78 133.41 63.90 135.16 59.11 137.10 C 58.54 132.11 57.82 127.12 57.74 122.10 C 60.00 117.70 62.73 113.56 65.20 109.29 C 61.72 107.47 58.32 105.53 54.86 103.69 C 51.40 108.62 48.29 113.79 44.68 118.62 C 40.17 115.92 35.53 113.48 31.00 110.82 C 31.00 99.93 31.40 89.04 31.42 78.14 C 40.60 72.51 50.14 67.49 59.32 61.88 C 64.13 64.37 68.71 67.26 73.40 69.97 C 70.75 75.23 68.07 80.48 65.31 85.69 C 68.92 87.29 72.52 88.89 76.08 90.61 C 78.47 86.54 80.68 82.37 83.12 78.33 C 88.18 76.47 93.16 74.41 98.23 72.60 C 98.15 77.73 98.73 82.86 98.73 87.99 C 96.71 92.02 94.37 95.90 92.19 99.85 C 93.94 100.93 95.70 101.98 97.47 103.01 C 99.27 100.00 101.14 97.03 103.06 94.10 C 106.52 96.14 109.91 98.29 113.33 100.40 C 111.91 103.27 110.48 106.13 109.03 108.99 C 110.72 109.79 112.42 110.57 114.11 111.35 C 114.94 103.94 115.61 96.50 116.34 89.08 C 123.26 92.33 130.19 95.56 137.10 98.82 C 137.03 96.73 137.00 94.65 136.97 92.56 C 133.78 92.55 130.59 92.31 127.41 92.20 C 127.13 88.08 127.20 83.94 127.16 79.81 C 130.50 79.55 133.84 79.40 137.19 79.45 C 137.19 77.63 137.19 75.82 137.19 74.00 C 132.52 73.91 127.80 74.26 123.17 73.58 C 119.21 70.67 115.35 67.60 111.54 64.49 C 115.48 61.45 119.45 58.44 123.44 55.46 C 128.37 55.55 133.30 55.12 138.24 55.17 C 138.51 51.29 138.96 47.42 138.90 43.52 C 132.66 43.18 126.42 42.84 120.21 42.21 C 120.23 36.99 120.07 31.77 120.31 26.56 M 148.40 52.27 C 148.78 58.60 148.34 64.93 148.23 71.27 C 147.87 72.81 147.64 74.38 147.58 75.96 C 146.89 89.37 146.09 102.77 145.49 116.18 C 146.29 116.05 147.89 115.78 148.69 115.65 C 149.64 115.78 151.54 116.05 152.49 116.18 C 151.44 97.08 150.44 77.97 149.43 58.86 C 149.17 56.71 150.54 53.78 148.40 52.27 M 73.71 102.29 C 89.49 112.51 105.41 122.50 121.28 132.58 C 122.05 131.18 122.82 129.77 123.59 128.37 C 106.95 119.70 90.49 110.67 73.71 102.29 M 215.49 106.68 C 201.79 113.96 188.00 121.07 174.33 128.40 C 175.11 129.79 175.87 131.18 176.62 132.58 C 192.80 122.46 208.76 112.01 225.01 102.00 C 221.67 103.20 218.64 105.08 215.49 106.68 M 126.12 107.41 C 125.46 111.66 124.91 115.93 124.31 120.20 C 130.33 125.15 136.27 130.18 142.29 135.13 C 141.00 126.88 139.62 118.64 138.33 110.40 C 134.25 109.44 130.19 108.37 126.12 107.41 M 159.55 110.35 C 158.35 118.63 156.87 126.87 155.64 135.15 C 161.59 130.14 167.64 125.23 173.54 120.16 C 173.05 115.90 172.36 111.67 171.87 107.41 C 167.76 108.38 163.68 109.46 159.55 110.35 M 103.92 145.99 C 106.92 148.94 110.00 151.81 112.98 154.78 C 120.70 151.82 128.47 149.01 136.17 146.00 C 128.44 143.05 120.68 140.16 112.94 137.26 C 109.96 140.21 106.96 143.12 103.92 145.99 M 161.69 146.01 C 169.45 148.96 177.24 151.86 185.01 154.78 C 187.96 151.85 190.92 148.93 193.89 146.03 C 190.94 143.07 187.97 140.13 184.96 137.23 C 177.22 140.20 169.44 143.05 161.69 146.01 M 124.32 171.84 C 124.91 176.11 125.48 180.38 126.10 184.64 C 130.16 183.61 134.22 182.56 138.32 181.66 C 139.62 173.41 140.98 165.18 142.29 156.93 C 136.26 161.85 130.33 166.90 124.32 171.84 M 155.64 156.84 C 156.85 165.12 158.34 173.36 159.55 181.64 C 163.66 182.62 167.76 183.60 171.86 184.60 C 172.36 180.34 173.05 176.10 173.56 171.84 C 167.64 166.77 161.60 161.86 155.64 156.84 M 71.74 190.87 C 89.09 181.91 106.35 172.76 123.59 163.60 C 122.82 162.22 122.06 160.84 121.30 159.45 C 104.73 169.85 88.28 180.43 71.74 190.87 M 174.33 163.69 C 191.64 172.68 208.81 181.94 226.16 190.86 C 209.63 180.42 193.18 169.86 176.63 159.46 C 175.87 160.87 175.10 162.28 174.33 163.69 M 145.48 175.90 C 146.11 189.29 146.88 202.67 147.58 216.05 C 147.64 217.64 147.83 219.23 148.24 220.77 C 148.06 227.09 149.18 233.41 148.39 239.71 C 148.57 239.52 148.91 239.14 149.08 238.95 C 150.28 217.92 151.32 196.88 152.49 175.85 C 151.56 175.98 149.71 176.23 148.78 176.36 C 147.95 176.24 146.31 176.01 145.48 175.90 Z" />
</g>
</svg>
