<?xml version="1.0" encoding="UTF-8" ?>
<!DOCTYPE svg PUBLIC "-//W3C//DTD SVG 1.1//EN" "http://www.w3.org/Graphics/SVG/1.1/DTD/svg11.dtd">
<svg width="256pt" height="256pt" viewBox="0 0 256 256" version="1.1" xmlns="http://www.w3.org/2000/svg">
<g id="#000000ff">
<path fill="#000000" opacity="1.00" d=" M 131.17 0.01 C 135.88 1.23 137.76 6.06 140.46 9.58 C 145.32 17.10 150.96 24.43 153.82 32.99 C 151.51 42.68 146.94 51.83 145.63 61.80 C 155.11 53.66 161.95 43.02 170.50 33.99 C 173.04 39.44 170.52 45.21 168.37 50.30 C 161.38 66.35 152.11 81.24 143.35 96.35 C 140.52 101.21 138.19 106.41 137.24 111.99 C 143.06 107.89 147.29 102.05 151.12 96.15 C 158.68 84.33 164.83 71.69 171.35 59.29 C 174.71 52.75 179.72 46.98 186.11 43.26 C 186.67 45.27 187.61 47.39 186.67 49.45 C 183.16 59.31 178.55 68.85 176.31 79.12 C 183.02 75.97 187.27 69.58 192.40 64.48 C 195.46 61.58 198.17 56.89 202.96 57.16 C 210.07 57.34 217.08 58.70 224.16 59.29 C 227.92 59.68 231.79 59.65 235.42 60.85 C 235.32 61.38 235.11 62.45 235.01 62.98 C 231.85 65.75 227.81 67.25 224.09 69.14 C 215.59 73.24 206.38 75.77 196.97 76.60 C 194.17 76.54 192.60 79.01 191.10 80.98 C 186.60 87.20 182.21 93.50 177.96 99.90 C 185.32 100.20 192.71 99.38 199.86 97.60 C 204.84 96.43 209.84 94.14 212.89 89.86 C 215.24 86.92 214.93 82.49 218.01 80.07 C 224.12 75.16 230.86 70.94 238.21 68.14 C 238.04 73.13 236.42 77.89 234.62 82.49 C 231.47 90.85 226.93 99.39 219.05 104.15 C 211.24 108.95 200.37 104.29 193.58 111.26 C 205.67 114.10 218.68 113.88 230.07 119.24 C 228.16 122.06 224.44 122.56 221.45 123.64 C 215.13 125.34 208.57 127.04 201.98 126.16 C 191.37 124.59 180.63 125.17 169.95 125.21 C 164.89 125.37 159.79 125.18 154.76 125.84 C 152.19 126.06 150.26 127.86 148.37 129.42 C 155.12 131.07 162.04 132.22 169.01 132.26 C 184.33 132.38 199.66 132.12 214.97 132.67 C 220.43 133.04 226.81 133.17 230.57 137.79 C 218.97 142.54 206.38 143.81 194.28 146.70 C 195.65 147.77 197.29 148.41 199.03 148.60 C 206.91 149.72 214.91 151.25 222.02 154.99 C 225.99 156.95 229.11 160.52 230.15 164.87 C 232.37 172.71 236.69 179.80 238.38 187.80 C 234.93 187.30 231.38 186.66 228.45 184.65 C 220.46 179.46 214.66 171.74 208.75 164.42 C 206.93 162.01 204.26 160.35 201.25 159.91 C 193.56 158.61 185.73 158.30 177.94 158.39 C 183.04 169.23 191.87 179.29 203.84 182.36 C 209.00 183.93 214.49 183.92 219.63 185.53 C 224.99 187.51 229.92 190.72 233.81 194.91 C 223.72 199.20 212.60 199.68 201.89 201.30 C 191.94 194.85 185.50 184.55 176.37 177.21 C 178.97 188.95 184.20 199.91 187.59 211.43 C 185.90 211.71 183.93 212.89 182.45 211.44 C 178.26 208.36 175.43 203.86 172.56 199.60 C 163.66 185.67 156.18 170.89 148.86 156.09 C 146.53 151.29 142.03 147.98 137.23 145.93 C 140.57 155.61 145.39 164.70 150.14 173.75 C 156.63 185.92 163.24 198.02 170.19 209.93 C 172.52 213.82 172.77 219.54 169.32 222.87 C 161.44 213.68 155.62 202.39 145.54 195.32 C 146.70 206.22 153.55 215.85 153.76 226.92 C 152.59 230.69 149.89 233.74 147.71 236.97 C 142.77 243.58 137.90 250.34 131.85 256.00 L 128.46 256.00 L 131.49 255.99 C 130.89 250.06 130.78 244.05 131.61 238.14 C 132.85 230.38 136.46 223.30 138.73 215.85 C 139.65 213.16 138.27 210.45 137.48 207.90 C 134.67 200.55 132.24 193.02 128.54 186.05 C 124.76 192.72 122.76 200.17 120.04 207.29 C 119.23 209.94 117.71 212.72 118.61 215.55 C 120.49 222.03 123.25 228.26 124.70 234.88 C 126.29 241.80 125.87 248.96 125.70 256.00 L 124.40 256.00 C 117.67 247.87 110.61 239.88 105.45 230.61 C 103.93 228.08 103.49 225.04 104.27 222.20 C 106.41 213.24 110.01 204.65 111.34 195.50 C 102.09 203.40 95.51 213.86 86.83 222.34 C 85.67 219.04 85.60 215.48 87.19 212.31 C 95.28 193.08 105.74 174.97 115.73 156.70 C 117.62 153.39 118.58 149.68 119.18 145.94 C 115.63 148.80 112.73 152.36 110.11 156.07 C 99.50 170.95 90.73 187.02 82.01 203.05 C 79.66 207.52 76.27 211.86 71.01 212.86 C 70.30 211.28 69.62 209.69 68.95 208.10 C 73.54 198.13 79.44 188.30 80.55 177.17 C 72.01 184.03 65.96 193.58 57.00 200.00 C 54.59 201.50 51.59 200.57 48.94 200.44 C 40.32 199.11 31.40 198.46 23.32 194.89 C 31.34 186.65 42.95 182.70 54.21 181.77 C 57.76 181.35 62.05 181.55 64.28 178.20 C 69.83 171.35 75.22 164.23 79.23 156.34 C 70.44 156.68 61.63 158.30 53.42 161.50 C 49.30 163.22 44.90 165.65 43.40 170.16 C 41.77 174.90 37.35 177.68 33.62 180.65 C 29.18 184.12 24.12 186.85 18.53 187.88 C 20.97 176.76 24.33 164.94 32.94 156.94 C 36.18 153.71 40.56 151.90 45.06 151.42 C 51.17 150.66 57.32 149.87 63.15 147.80 C 52.95 141.73 40.51 142.36 29.29 139.50 C 28.01 138.95 27.54 137.41 26.67 136.40 C 40.21 131.37 54.83 132.57 68.98 132.29 C 82.15 132.04 95.67 133.43 108.42 129.33 C 106.43 127.35 104.22 125.06 101.14 125.33 C 87.48 125.06 73.76 124.61 60.12 125.61 C 50.96 127.49 41.59 125.73 32.75 123.19 C 30.05 122.54 27.98 120.68 26.51 118.39 C 38.53 114.84 51.13 114.05 63.30 111.23 C 54.74 105.87 44.31 105.84 34.79 103.41 C 32.41 102.96 31.49 100.48 30.38 98.65 C 25.35 88.95 21.08 78.73 18.93 67.99 C 28.39 69.63 34.69 77.50 41.24 83.79 C 45.56 87.72 48.77 92.81 53.23 96.53 C 61.71 98.11 70.35 98.94 78.93 99.86 C 75.67 92.68 71.47 85.61 65.00 80.86 C 59.25 76.42 52.05 74.36 44.90 73.71 C 38.98 73.27 33.97 69.87 28.85 67.22 C 25.88 65.58 22.08 64.11 21.66 60.23 C 31.10 59.15 40.56 58.21 50.01 57.18 C 53.18 56.94 56.94 56.09 59.44 58.64 C 66.35 64.69 71.88 72.08 78.01 78.88 C 78.63 78.46 79.87 77.61 80.50 77.19 C 77.88 69.65 74.78 62.28 72.11 54.75 C 70.90 51.11 68.61 47.11 71.03 43.44 C 76.73 46.52 80.12 52.23 83.73 57.36 C 92.61 70.76 100.32 84.88 107.92 99.03 C 109.60 102.04 110.90 105.30 112.98 108.07 C 114.86 109.80 117.43 110.53 119.71 111.59 C 118.89 108.77 117.99 105.97 116.80 103.28 C 109.05 85.92 99.41 69.50 90.01 52.99 C 88.13 49.54 85.36 46.18 85.63 42.00 C 85.69 39.13 85.31 35.47 88.14 33.73 C 91.23 36.48 93.10 40.25 95.52 43.56 C 100.19 50.13 105.21 56.54 111.33 61.84 C 110.31 53.31 106.79 45.38 104.59 37.13 C 103.88 34.43 103.45 31.47 104.59 28.82 C 106.59 23.76 109.86 19.34 113.10 15.01 C 116.82 10.20 120.56 5.30 125.43 1.59 C 125.95 6.84 126.03 12.14 125.61 17.40 C 124.80 26.27 120.86 34.38 118.54 42.88 C 117.52 46.33 119.33 49.72 120.43 52.90 C 122.96 58.97 124.94 65.34 128.58 70.86 C 132.68 64.39 135.21 57.10 137.56 49.86 C 138.55 46.31 140.07 42.37 138.38 38.79 C 135.95 33.13 132.62 27.74 131.72 21.55 C 130.74 14.42 131.02 7.18 131.17 0.01 Z" />
</g>
</svg>
