<?xml version="1.0" encoding="UTF-8" ?>
<!DOCTYPE svg PUBLIC "-//W3C//DTD SVG 1.1//EN" "http://www.w3.org/Graphics/SVG/1.1/DTD/svg11.dtd">
<svg width="197pt" height="255pt" viewBox="0 0 197 255" version="1.1" xmlns="http://www.w3.org/2000/svg">
<g id="#ffffffff">
</g>
<g id="#000000ff">
<path fill="#000000" opacity="1.00" d=" M 96.60 36.47 C 97.22 34.07 101.21 34.44 101.39 36.92 C 101.59 39.06 101.49 41.21 101.50 43.35 C 105.53 45.97 110.22 47.74 113.79 50.98 C 114.13 55.99 113.89 61.04 113.95 66.07 C 114.17 67.36 113.02 68.25 112.07 68.85 C 108.58 71.01 104.89 72.85 101.44 75.09 C 101.51 78.30 101.48 81.51 101.46 84.72 C 108.92 77.42 116.14 69.89 123.66 62.67 C 125.97 60.25 129.36 64.71 126.86 66.64 C 118.83 74.85 110.63 82.90 102.52 91.04 C 105.15 96.79 107.59 102.63 110.26 108.36 C 116.15 107.71 122.03 107.04 127.92 106.46 C 129.44 106.56 129.38 104.76 129.78 103.77 C 132.31 94.13 134.95 84.51 137.47 74.87 C 137.88 73.51 138.06 71.91 139.39 71.09 C 140.81 70.59 142.04 71.55 143.25 72.14 C 141.01 82.88 137.75 93.41 134.94 104.02 C 137.81 102.42 140.66 100.80 143.46 99.09 C 143.49 94.75 143.31 90.42 143.50 86.09 C 143.50 84.50 145.17 83.89 146.28 83.16 C 150.21 81.04 153.93 78.52 157.97 76.61 C 162.66 77.76 166.33 81.43 170.80 83.22 C 172.99 82.32 174.85 80.70 177.10 79.96 C 179.53 79.96 180.36 82.90 179.11 84.72 C 177.10 85.65 175.18 86.75 173.27 87.87 C 173.19 92.60 173.60 97.37 173.06 102.07 C 168.24 105.09 163.39 108.47 158.04 110.40 C 153.87 108.45 150.04 105.83 145.99 103.63 C 143.19 105.21 140.40 106.82 137.71 108.58 C 147.68 111.21 157.70 113.74 167.60 116.63 C 170.72 117.23 169.12 122.55 166.11 121.39 C 154.93 118.56 143.82 115.43 132.67 112.49 C 128.94 117.58 125.27 122.73 121.45 127.76 C 125.09 132.94 128.95 137.96 132.59 143.15 C 144.08 140.17 155.53 136.99 167.02 133.97 C 167.58 134.29 168.70 134.92 169.26 135.24 C 169.01 136.48 169.55 138.57 167.84 138.93 C 157.88 141.99 147.66 144.20 137.70 147.26 C 140.47 148.84 143.25 150.42 146.00 152.05 C 149.42 150.08 152.81 148.05 156.25 146.13 C 157.22 145.66 158.36 144.86 159.44 145.56 C 164.09 147.99 168.52 150.83 173.13 153.35 C 173.45 158.15 173.26 162.97 173.29 167.78 C 175.58 169.35 178.88 170.12 179.95 172.95 C 179.65 174.63 178.67 175.52 177.01 175.64 C 174.79 174.79 172.80 173.48 170.77 172.28 C 167.08 174.44 163.43 176.67 159.66 178.70 C 158.14 179.76 156.63 178.37 155.30 177.70 C 151.52 175.34 147.43 173.45 143.83 170.81 C 143.14 166.12 143.73 161.32 143.54 156.60 C 140.69 154.98 137.92 153.24 135.01 151.72 C 137.69 161.55 140.30 171.39 142.90 181.23 C 144.42 184.26 138.92 186.21 138.16 182.94 C 134.90 171.79 132.22 160.48 129.00 149.32 C 122.75 148.70 116.49 148.09 110.26 147.27 C 107.59 153.05 105.16 158.94 102.48 164.73 C 110.63 172.96 118.95 181.03 127.00 189.35 C 128.40 190.42 127.72 193.15 125.97 193.36 C 124.49 194.20 123.18 192.65 122.18 191.78 C 115.28 184.83 108.33 177.95 101.47 170.96 C 101.48 174.21 101.49 177.46 101.49 180.72 C 105.38 182.88 109.14 185.31 113.15 187.25 C 114.38 189.65 113.86 192.40 113.96 194.99 C 113.84 198.22 114.20 201.49 113.77 204.70 C 110.26 208.02 105.46 209.68 101.48 212.39 C 101.35 215.57 102.49 219.65 98.99 221.41 C 95.28 219.81 96.53 215.55 96.37 212.37 C 92.25 209.86 87.95 207.65 83.96 204.94 C 83.94 199.32 83.94 193.70 83.96 188.09 C 87.96 185.39 92.24 183.17 96.38 180.71 C 96.37 177.45 96.38 174.20 96.37 170.94 C 89.33 178.10 82.21 185.17 75.11 192.26 C 73.90 194.01 70.88 194.00 70.28 191.76 C 69.30 190.63 70.88 189.50 71.46 188.62 C 79.37 180.63 87.35 172.70 95.31 164.75 C 92.82 158.88 90.20 153.07 87.62 147.24 C 81.35 148.16 75.02 148.60 68.73 149.38 C 65.81 160.55 62.87 171.73 59.78 182.86 C 59.38 185.00 56.58 185.02 55.19 183.83 C 54.74 182.68 54.72 181.52 55.13 180.36 C 57.78 170.83 60.26 161.26 62.86 151.72 C 59.98 153.25 57.20 154.97 54.36 156.57 C 54.16 161.31 54.76 166.13 54.04 170.82 C 50.45 173.42 46.42 175.35 42.64 177.67 C 41.36 178.26 39.96 179.63 38.47 178.84 C 34.61 176.79 30.88 174.50 27.12 172.28 C 25.11 173.44 23.18 174.78 20.99 175.59 C 18.94 175.93 17.05 173.26 18.53 171.60 C 20.27 169.96 22.53 169.04 24.56 167.82 C 24.88 163.01 23.93 157.99 25.09 153.32 C 29.69 150.50 34.32 147.65 39.16 145.28 C 43.74 146.66 47.60 149.90 51.87 152.06 C 54.65 150.42 57.46 148.83 60.25 147.22 C 50.23 144.34 40.05 141.95 30.06 138.95 C 27.51 138.00 28.77 134.79 30.70 133.86 C 42.16 137.10 53.71 140.00 65.19 143.19 C 68.93 138.04 72.75 132.96 76.42 127.77 C 72.63 122.71 68.92 117.59 65.19 112.48 C 54.98 115.29 44.71 117.92 34.50 120.75 C 32.72 121.17 30.79 121.99 29.08 120.89 C 28.76 119.64 28.67 118.37 28.80 117.07 C 39.20 113.98 49.74 111.37 60.21 108.55 C 57.43 106.85 54.62 105.17 51.75 103.63 C 47.50 105.80 43.64 109.30 38.99 110.32 C 34.13 107.78 29.18 105.17 24.76 101.94 C 24.28 97.37 24.82 92.77 24.52 88.19 C 22.85 86.20 19.71 85.86 18.28 83.62 C 17.20 81.99 19.33 79.81 20.96 79.98 C 23.14 80.92 25.11 82.27 27.22 83.36 C 31.14 81.12 34.90 78.58 39.00 76.68 C 40.88 76.57 42.39 78.02 44.01 78.78 C 47.34 80.93 51.05 82.52 54.17 84.99 C 54.65 89.59 54.13 94.23 54.41 98.84 C 56.90 101.04 60.15 102.23 62.92 104.06 C 60.21 94.02 57.40 84.01 54.89 73.92 C 54.09 71.11 58.49 69.73 59.63 72.32 C 62.80 83.62 65.75 94.99 68.78 106.34 C 75.09 106.94 81.37 107.69 87.67 108.35 C 90.13 102.60 92.93 96.98 95.13 91.12 C 88.71 83.87 81.44 77.30 74.67 70.32 C 73.02 68.38 70.32 66.90 69.97 64.17 C 70.86 62.67 72.70 60.97 74.29 62.72 C 81.79 69.90 88.97 77.42 96.39 84.69 C 96.37 81.46 96.36 78.24 96.40 75.02 C 92.44 72.46 88.02 70.58 84.29 67.69 C 83.49 62.12 84.17 56.40 83.95 50.78 C 87.92 48.00 92.25 45.82 96.39 43.32 C 96.43 41.04 96.15 38.72 96.60 36.47 M 89.10 53.49 C 89.10 57.24 89.12 60.98 89.05 64.73 C 92.31 66.63 95.50 68.68 98.89 70.33 C 102.36 68.76 105.52 66.60 108.83 64.73 C 108.79 61.00 108.80 57.27 108.83 53.54 C 105.54 51.62 102.22 49.76 98.95 47.81 C 95.68 49.73 92.38 51.59 89.10 53.49 M 148.53 87.88 C 148.54 91.62 148.54 95.37 148.53 99.11 C 151.79 101.06 155.12 102.90 158.37 104.87 C 161.68 102.91 165.03 101.03 168.32 99.05 C 168.27 95.35 168.28 91.65 168.32 87.95 C 165.03 85.97 161.68 84.09 158.38 82.13 C 155.13 84.10 151.79 85.93 148.53 87.88 M 29.52 88.01 C 29.58 91.67 29.58 95.33 29.51 99.00 C 32.77 101.05 36.18 102.85 39.45 104.86 C 42.74 102.91 46.07 101.05 49.34 99.07 C 49.30 95.35 49.30 91.64 49.33 87.92 C 46.07 85.94 42.74 84.08 39.46 82.14 C 36.16 84.11 32.78 85.96 29.52 88.01 M 90.86 113.91 C 84.24 113.09 77.59 112.44 70.95 111.74 C 75.04 117.01 78.85 122.49 82.85 127.82 C 78.91 133.23 74.93 138.60 71.00 144.02 C 77.61 143.22 84.23 142.59 90.83 141.76 C 93.58 147.87 96.30 153.99 98.93 160.16 C 101.60 154.01 104.30 147.88 107.04 141.76 C 113.65 142.57 120.27 143.22 126.87 144.04 C 122.94 138.60 118.95 133.21 115.01 127.77 C 119.09 122.52 122.83 117.00 126.90 111.74 C 120.27 112.41 113.64 113.10 107.02 113.92 C 104.32 107.82 101.62 101.72 98.95 95.60 C 96.23 101.69 93.57 107.81 90.86 113.91 M 29.60 156.49 C 29.53 160.25 29.56 164.01 29.55 167.78 C 32.87 169.69 36.18 171.59 39.48 173.53 C 42.74 171.61 46.03 169.72 49.31 167.81 C 49.19 164.04 49.62 160.21 49.08 156.48 C 45.83 154.66 42.70 152.16 39.15 151.10 C 35.88 152.73 32.85 154.81 29.60 156.49 M 148.54 156.53 C 148.53 160.29 148.54 164.06 148.53 167.82 C 151.85 169.69 155.13 171.63 158.44 173.52 C 161.69 171.56 165.01 169.71 168.29 167.78 C 168.29 164.05 168.28 160.31 168.30 156.58 C 164.98 154.65 161.68 152.66 158.28 150.86 C 155.06 152.79 151.82 154.70 148.54 156.53 M 89.09 190.85 C 89.10 194.62 89.11 198.38 89.08 202.15 C 92.37 204.06 95.68 205.93 98.93 207.90 C 102.21 205.94 105.53 204.04 108.84 202.13 C 108.79 198.38 108.80 194.63 108.83 190.89 C 105.52 189.01 102.22 187.09 98.95 185.14 C 95.68 187.08 92.40 188.99 89.09 190.85 Z" />
</g>
</svg>
