<?xml version="1.0" encoding="UTF-8" ?>
<!DOCTYPE svg PUBLIC "-//W3C//DTD SVG 1.1//EN" "http://www.w3.org/Graphics/SVG/1.1/DTD/svg11.dtd">
<svg width="225pt" height="225pt" viewBox="0 0 225 225" version="1.1" xmlns="http://www.w3.org/2000/svg">
<g id="#ffffffff">
</g>
<g id="#010101ff">
<path fill="#010101" opacity="1.00" d=" M 111.46 0.00 L 114.55 0.00 C 117.64 1.07 120.91 2.37 122.80 5.21 C 125.23 8.14 125.04 12.23 124.58 15.78 C 124.12 19.30 120.87 21.33 118.58 23.68 C 117.68 27.66 118.41 31.88 118.19 35.96 C 123.57 30.66 128.75 25.15 134.33 20.06 C 136.69 21.60 139.01 23.39 140.36 25.91 C 133.71 34.01 125.62 40.86 118.43 48.49 C 117.98 51.75 118.25 55.06 118.26 58.35 C 123.71 53.31 128.66 47.74 134.18 42.79 C 137.00 43.31 139.02 45.67 140.41 48.02 C 138.83 50.81 136.28 52.82 134.09 55.09 C 129.45 59.78 124.83 64.49 120.07 69.05 C 117.05 71.34 118.48 75.43 118.20 78.64 C 121.90 73.06 125.73 67.29 131.34 63.43 C 133.04 62.16 135.23 61.97 137.25 61.55 C 137.94 67.81 134.71 73.38 132.24 78.87 C 135.78 74.51 138.35 68.60 143.95 66.56 C 146.22 67.21 146.47 69.88 146.27 71.87 C 145.71 78.51 142.55 84.49 139.91 90.48 C 141.87 89.05 144.76 88.18 145.34 85.52 C 147.41 77.76 149.48 69.98 151.60 62.23 C 152.23 60.24 152.56 58.01 154.12 56.49 C 156.55 56.59 158.82 57.54 161.12 58.27 C 160.54 66.02 157.44 73.28 155.75 80.82 C 158.44 79.21 161.89 78.29 163.90 75.84 C 166.92 67.21 168.85 58.22 171.32 49.42 C 171.79 48.16 171.89 46.54 173.12 45.74 C 175.72 45.30 178.34 46.22 180.48 47.66 C 180.66 49.92 179.95 52.11 179.34 54.25 C 177.76 59.37 176.45 64.58 175.19 69.78 C 178.70 67.97 181.99 65.80 185.46 63.91 C 184.94 58.39 187.91 52.87 193.05 50.65 C 197.20 49.98 202.13 49.51 205.52 52.52 C 211.98 57.40 211.20 68.94 203.83 72.58 C 199.93 75.33 194.99 74.28 190.94 72.50 C 187.52 74.50 184.10 76.49 180.80 78.68 C 188.01 80.83 195.60 81.97 202.50 85.01 C 202.59 87.75 201.63 90.35 200.60 92.85 C 190.80 91.07 181.33 87.77 171.61 85.56 C 168.19 84.73 165.43 87.62 162.43 88.77 C 162.39 89.10 162.31 89.75 162.27 90.08 C 169.22 92.20 176.37 93.64 183.26 95.97 C 182.96 98.73 183.35 104.20 179.18 103.67 C 169.97 101.85 161.03 98.79 151.92 96.48 C 148.99 95.70 146.65 98.32 144.19 99.50 C 149.60 99.71 155.06 100.15 160.27 101.71 C 163.61 102.74 167.80 104.04 168.11 108.13 C 163.87 110.71 158.92 110.74 154.14 111.04 C 158.60 113.28 163.81 113.08 168.26 115.38 C 167.59 116.90 167.16 118.76 165.52 119.56 C 159.18 123.15 151.69 123.72 144.55 123.90 C 147.00 125.16 149.26 126.97 151.95 127.66 C 160.62 125.47 169.19 122.89 177.86 120.71 C 179.60 120.28 181.39 120.22 183.17 120.16 C 183.96 122.70 184.50 125.32 184.56 127.99 C 177.34 130.22 170.02 132.08 162.71 133.95 C 165.14 135.68 167.57 137.56 170.42 138.55 C 175.19 138.60 179.62 136.32 184.25 135.43 C 190.03 134.30 195.55 131.58 201.49 131.47 C 203.50 132.98 204.32 136.15 203.79 138.60 C 202.70 139.74 201.12 140.17 199.66 140.61 C 193.75 142.08 187.86 143.65 182.03 145.42 C 185.39 147.19 188.47 149.62 192.08 150.87 C 194.76 150.55 197.28 149.28 200.02 149.41 C 206.59 149.06 212.36 155.53 211.74 161.99 C 211.90 170.04 202.34 176.22 195.03 172.73 C 189.86 171.00 187.18 165.53 187.32 160.32 C 183.84 158.36 180.45 156.26 176.91 154.42 C 178.77 161.76 181.08 168.98 182.70 176.39 C 180.21 177.52 177.60 178.82 174.78 178.44 C 170.74 168.77 169.29 158.20 165.86 148.33 C 163.42 146.26 160.47 144.91 157.67 143.42 C 159.11 149.48 160.93 155.44 162.55 161.45 C 162.86 162.97 163.47 164.81 162.19 166.06 C 160.12 167.00 157.85 167.32 155.65 167.79 C 151.34 158.11 150.38 147.30 146.51 137.46 C 144.91 135.15 141.93 134.27 139.58 132.88 C 143.18 140.27 148.04 148.57 145.32 157.02 C 138.97 155.99 136.12 149.43 132.36 144.98 C 134.42 150.44 138.67 155.95 136.63 162.06 C 127.60 160.04 122.77 151.28 117.74 144.36 C 118.05 147.37 117.98 150.43 118.58 153.40 C 125.79 161.06 133.70 168.08 140.67 175.98 C 139.12 177.74 137.65 179.63 135.74 181.03 C 133.88 181.27 132.48 179.92 131.27 178.73 C 126.93 174.40 122.53 170.12 118.22 165.75 C 118.23 169.01 117.97 172.31 118.43 175.55 C 125.69 183.19 133.55 190.26 140.63 198.08 C 138.64 200.17 136.01 205.20 132.67 202.48 C 127.69 197.85 122.97 192.95 118.18 188.12 C 118.21 192.27 118.19 196.43 118.21 200.59 C 121.21 202.69 124.27 205.28 125.03 209.07 C 126.95 215.82 122.03 223.48 114.98 224.19 C 107.79 225.48 100.39 219.36 100.71 211.99 C 100.55 207.07 104.08 203.32 107.80 200.64 C 107.86 196.51 107.88 192.38 107.77 188.25 C 103.37 192.70 98.91 197.09 94.52 201.54 C 93.48 202.43 92.52 203.64 91.09 203.89 C 88.29 202.70 84.29 199.31 87.15 196.20 C 93.80 189.16 100.89 182.52 107.62 175.56 C 108.06 172.39 107.78 169.17 107.79 165.98 C 103.84 169.95 99.88 173.92 95.94 177.90 C 94.46 179.34 92.98 180.91 91.00 181.65 C 88.97 180.47 87.18 178.81 86.01 176.76 C 86.21 174.79 87.65 173.34 88.99 172.02 C 94.88 166.25 100.60 160.30 106.49 154.53 C 109.16 152.32 107.75 148.59 107.75 145.65 C 103.22 152.31 98.25 160.58 89.59 161.98 C 88.50 155.78 91.74 150.19 94.45 144.91 C 90.28 149.07 87.78 156.08 81.31 156.98 C 80.84 155.38 80.17 153.79 80.27 152.10 C 80.88 144.98 83.94 138.45 87.29 132.25 C 83.83 134.59 78.48 135.80 77.75 140.58 C 75.06 149.45 73.27 158.61 70.24 167.36 C 67.79 168.22 64.92 167.67 62.80 166.22 C 61.73 164.89 62.46 163.24 62.79 161.79 C 64.45 155.75 66.08 149.70 67.73 143.66 C 65.57 144.84 63.42 146.05 61.33 147.35 C 57.93 148.94 58.34 153.27 57.22 156.32 C 54.97 163.56 53.48 171.03 51.01 178.20 C 48.49 180.35 45.26 177.67 42.59 177.10 C 44.08 169.61 46.53 162.36 48.24 154.93 C 44.82 156.60 41.65 158.72 38.30 160.52 C 37.51 163.71 37.06 167.22 34.75 169.75 C 30.29 175.26 20.74 175.17 16.32 169.64 C 10.95 164.01 13.16 153.42 20.49 150.61 C 24.59 148.43 29.30 149.87 33.20 151.74 C 36.61 149.78 39.94 147.69 43.39 145.81 C 36.17 143.50 28.44 142.53 21.55 139.35 C 20.97 136.89 22.11 134.51 22.71 132.18 C 24.77 132.26 26.86 132.21 28.88 132.64 C 37.29 134.87 45.64 137.32 54.12 139.23 C 57.20 138.27 59.82 136.32 62.57 134.70 C 56.57 132.54 50.25 131.51 44.18 129.58 C 42.72 129.06 40.77 128.81 40.46 126.97 C 40.73 124.72 41.63 122.62 42.30 120.48 C 52.77 121.98 62.83 125.59 73.05 128.27 C 75.96 127.36 78.52 125.61 81.08 124.01 C 74.30 123.55 67.31 122.90 61.18 119.71 C 59.71 118.97 58.72 117.62 58.13 116.12 C 61.57 112.92 66.67 113.21 70.84 111.55 C 66.69 110.51 61.74 110.91 58.51 107.59 C 58.04 105.90 59.84 104.90 60.97 104.03 C 67.24 100.33 74.77 100.04 81.84 99.52 C 79.00 97.90 76.07 95.36 72.55 96.29 C 62.98 98.40 53.76 102.17 44.03 103.49 C 42.69 101.17 42.15 98.51 41.68 95.90 C 48.92 92.89 56.73 91.64 64.17 89.24 C 61.43 87.72 58.76 86.00 55.83 84.85 C 45.39 86.62 35.36 90.34 24.98 92.43 C 23.75 89.93 20.64 85.10 24.57 83.69 C 31.11 81.37 37.99 80.23 44.60 78.11 C 41.28 76.20 38.12 74.00 34.65 72.38 C 32.03 72.15 29.57 73.58 26.94 73.60 C 21.18 73.97 15.02 69.26 15.14 63.22 C 14.96 59.85 14.95 56.05 17.52 53.49 C 22.71 47.41 33.68 48.30 37.50 55.48 C 39.78 57.97 37.85 62.39 40.99 64.14 C 43.85 66.01 46.91 67.57 49.96 69.10 C 48.49 61.62 45.69 54.45 44.47 46.91 C 47.04 46.27 50.75 43.62 52.88 46.14 C 56.23 55.78 57.99 65.93 61.40 75.56 C 63.87 77.71 66.92 79.04 69.72 80.68 C 67.74 73.53 65.39 66.42 64.02 59.13 C 65.24 56.02 69.28 56.44 72.01 56.30 C 75.05 66.33 77.49 76.54 80.43 86.59 C 82.28 88.27 84.59 89.33 86.76 90.52 C 83.69 84.39 80.75 77.99 80.22 71.06 C 80.01 69.25 80.93 66.76 83.05 66.69 C 87.89 69.08 90.46 74.08 93.85 78.02 C 91.54 72.80 88.52 67.47 89.55 61.53 C 98.31 62.83 103.03 71.34 107.86 77.82 C 107.55 75.08 108.85 71.58 106.46 69.50 C 100.15 63.15 93.75 56.88 87.47 50.49 C 84.17 47.78 88.16 43.76 90.99 42.67 C 97.17 45.78 101.06 52.02 106.30 56.43 C 105.92 56.62 105.16 57.00 104.77 57.19 C 105.83 57.28 106.88 57.37 107.93 57.48 C 107.82 54.46 108.03 51.42 107.62 48.43 C 100.95 41.42 93.84 34.81 87.13 27.84 C 84.28 24.57 88.87 21.60 91.04 19.59 C 97.06 24.49 102.19 30.36 107.76 35.75 C 107.81 31.94 108.05 28.11 107.72 24.31 C 105.92 22.44 103.58 21.06 102.20 18.80 C 99.52 14.63 99.84 8.78 102.98 4.93 C 104.92 2.08 108.33 0.97 111.46 0.00 Z" />
</g>
</svg>
