<?xml version="1.0" encoding="UTF-8" ?>
<!DOCTYPE svg PUBLIC "-//W3C//DTD SVG 1.1//EN" "http://www.w3.org/Graphics/SVG/1.1/DTD/svg11.dtd">
<svg width="238pt" height="250pt" viewBox="0 0 238 250" version="1.1" xmlns="http://www.w3.org/2000/svg">
<g id="#ffffffff">
</g>
<g id="#333333ff">
<path fill="#333333" opacity="1.00" d=" M 118.46 17.70 C 125.85 25.39 131.36 34.80 134.57 44.96 C 144.72 43.26 155.11 41.79 165.37 43.52 C 171.78 51.60 175.86 61.19 179.34 70.83 C 189.71 68.49 200.55 68.72 210.91 71.04 C 208.08 81.35 202.56 90.80 195.39 98.68 C 201.87 106.46 208.37 114.59 211.85 124.22 C 208.86 134.20 201.84 142.36 195.41 150.36 C 202.61 158.19 207.99 167.66 210.92 177.89 C 200.61 180.36 189.73 180.51 179.38 178.16 C 175.87 187.45 172.16 196.92 165.86 204.72 C 164.98 205.96 163.21 205.62 161.92 205.96 C 152.77 206.91 143.60 205.53 134.59 204.05 C 131.34 214.19 125.86 223.60 118.49 231.29 C 111.19 223.54 105.64 214.20 102.41 204.05 C 92.29 205.77 81.94 207.14 71.70 205.54 C 65.27 197.45 61.14 187.87 57.71 178.21 C 47.31 180.44 36.46 180.35 26.10 177.96 C 28.95 167.66 34.44 158.21 41.60 150.31 C 35.31 142.80 29.12 134.93 25.48 125.73 C 24.76 124.41 25.57 123.06 26.06 121.83 C 29.81 113.26 35.60 105.80 41.60 98.71 C 34.46 90.81 28.97 81.38 26.09 71.11 C 36.39 68.64 47.25 68.51 57.59 70.85 C 61.24 61.25 65.19 51.57 71.67 43.49 C 81.91 41.87 92.29 43.17 102.40 44.99 C 105.62 34.82 111.18 25.48 118.46 17.70 M 112.95 34.12 C 114.48 36.29 115.91 38.52 117.20 40.84 C 117.53 40.38 118.19 39.46 118.52 39.00 C 118.84 39.46 119.48 40.39 119.81 40.85 C 121.11 38.52 122.54 36.27 124.04 34.06 C 122.28 31.30 120.46 28.59 118.51 25.97 C 116.51 28.58 114.68 31.32 112.95 34.12 M 110.39 39.20 C 111.96 40.96 113.43 42.80 114.82 44.69 C 115.18 43.97 115.54 43.24 115.91 42.52 C 114.70 40.28 113.41 38.10 112.01 35.97 C 111.47 37.05 110.93 38.13 110.39 39.20 M 121.94 44.92 C 123.45 42.97 124.98 41.03 126.62 39.18 C 126.08 38.13 125.55 37.07 125.02 36.02 C 123.47 38.74 120.32 41.54 121.94 44.92 M 107.63 46.54 C 109.07 47.66 110.51 48.78 111.93 49.91 C 112.47 48.85 113.02 47.79 113.58 46.73 C 112.36 44.77 111.05 42.88 109.67 41.03 C 108.97 42.86 108.30 44.70 107.63 46.54 M 123.40 46.76 C 123.98 47.79 124.57 48.83 125.15 49.87 C 126.56 48.74 127.99 47.61 129.42 46.49 C 128.73 44.68 128.06 42.87 127.34 41.07 C 125.95 42.91 124.62 44.80 123.40 46.76 M 74.71 48.45 C 72.86 51.07 71.17 53.79 69.53 56.54 C 72.30 57.69 75.02 58.94 77.67 60.35 C 78.52 57.69 80.72 56.66 83.41 57.00 C 83.50 54.06 83.68 51.11 84.08 48.19 C 80.95 48.20 77.83 48.28 74.71 48.45 M 86.02 48.32 C 85.63 51.28 85.38 54.25 85.27 57.22 C 86.20 57.29 88.06 57.42 88.99 57.49 C 89.16 54.51 89.52 51.55 89.97 48.60 C 88.65 48.50 87.33 48.41 86.02 48.32 M 147.04 48.61 C 147.50 51.55 147.82 54.52 148.06 57.49 C 148.98 57.42 150.82 57.28 151.74 57.22 C 151.63 54.24 151.37 51.26 150.95 48.31 C 149.65 48.41 148.34 48.51 147.04 48.61 M 152.94 48.18 C 153.30 51.14 153.51 54.12 153.61 57.11 C 156.30 56.62 158.37 57.79 159.42 60.34 C 162.04 58.95 164.72 57.68 167.45 56.53 C 165.82 53.79 164.13 51.09 162.31 48.47 C 159.19 48.29 156.06 48.21 152.94 48.18 M 91.89 48.90 C 91.42 51.82 91.11 54.75 90.91 57.70 C 93.00 58.11 95.09 58.54 97.17 59.04 C 94.48 59.42 91.78 59.68 89.08 59.96 C 90.98 61.92 92.83 63.93 94.54 66.05 C 96.66 62.73 98.96 59.51 101.57 56.55 C 101.08 57.85 100.57 59.14 100.06 60.43 C 102.74 59.28 105.58 58.60 108.49 58.47 C 109.31 56.24 110.14 54.01 111.02 51.80 C 109.74 50.70 108.45 49.61 107.15 48.53 C 106.95 49.20 106.55 50.54 106.35 51.21 C 101.56 50.26 96.74 49.50 91.89 48.90 M 126.00 51.76 C 126.85 53.97 127.66 56.19 128.46 58.42 C 131.39 58.63 134.27 59.29 136.98 60.43 C 136.44 59.13 135.90 57.83 135.38 56.52 C 138.03 59.49 140.36 62.72 142.50 66.07 C 144.20 63.93 146.03 61.90 147.93 59.93 C 145.25 59.69 142.57 59.44 139.91 59.07 C 141.99 58.53 144.10 58.08 146.21 57.64 C 145.90 54.74 145.57 51.84 145.11 48.95 C 140.26 49.47 135.45 50.27 130.67 51.22 C 130.46 50.54 130.05 49.17 129.84 48.49 C 128.55 49.58 127.27 50.67 126.00 51.76 M 113.13 57.71 C 114.09 59.92 114.95 62.18 115.72 64.47 C 116.61 63.36 117.49 62.25 118.38 61.14 C 119.37 62.23 120.36 63.32 121.34 64.41 C 122.08 62.12 122.92 59.87 123.89 57.66 C 122.08 56.07 120.26 54.50 118.39 52.99 C 116.62 54.55 114.86 56.11 113.13 57.71 M 67.03 61.90 C 69.83 62.92 72.57 64.08 75.23 65.43 C 75.75 64.30 76.27 63.17 76.78 62.04 C 74.17 60.69 71.52 59.44 68.83 58.28 C 68.22 59.48 67.62 60.69 67.03 61.90 M 160.21 62.04 C 160.72 63.17 161.23 64.30 161.76 65.43 C 164.40 64.09 167.14 62.94 169.92 61.91 C 169.37 60.69 168.81 59.48 168.25 58.26 C 165.52 59.41 162.83 60.67 160.21 62.04 M 107.03 64.05 C 107.40 62.80 107.78 61.55 108.16 60.30 C 105.08 60.83 101.65 61.16 99.26 63.39 C 97.84 66.56 97.18 70.02 96.47 73.40 C 97.66 74.46 99.02 75.30 100.32 76.21 C 101.60 72.58 102.92 68.96 104.49 65.44 C 104.50 67.27 104.45 69.10 104.38 70.93 C 106.36 71.37 108.32 71.88 110.26 72.50 C 111.46 70.35 113.13 68.39 113.89 66.02 C 113.61 63.62 112.59 61.40 111.77 59.16 C 110.20 60.80 108.65 62.46 107.03 64.05 M 125.19 59.15 C 124.27 61.57 123.46 64.02 123.00 66.57 C 124.32 68.49 125.55 70.48 126.71 72.50 C 128.64 71.89 130.61 71.38 132.59 70.95 C 132.54 69.11 132.51 67.26 132.53 65.42 C 134.04 68.92 135.36 72.50 136.62 76.09 C 137.94 75.28 139.26 74.48 140.60 73.69 C 139.71 70.22 139.29 66.56 137.68 63.34 C 135.28 61.19 131.92 60.84 128.89 60.28 C 129.24 61.52 129.59 62.77 129.93 64.01 C 128.32 62.42 126.77 60.77 125.19 59.15 M 150.48 60.41 C 147.91 62.68 145.57 65.20 143.49 67.92 C 144.71 70.39 145.81 72.91 146.87 75.44 C 149.54 75.05 152.22 74.74 154.91 74.57 C 156.34 71.47 157.36 68.21 158.04 64.88 C 156.18 62.38 153.60 60.78 150.48 60.41 M 78.96 64.91 C 79.66 68.20 80.70 71.41 82.00 74.52 C 84.72 74.74 87.44 75.07 90.14 75.44 C 91.16 72.90 92.28 70.41 93.54 67.99 C 91.46 65.24 89.11 62.70 86.55 60.39 C 83.37 60.70 80.85 62.43 78.96 64.91 M 66.17 63.77 C 64.44 68.30 62.69 72.82 61.07 77.40 C 60.39 77.19 59.03 76.77 58.35 76.56 C 58.65 78.26 58.96 79.96 59.28 81.65 C 61.60 82.06 63.92 82.46 66.23 82.87 C 67.83 80.46 69.79 78.32 72.13 76.60 C 71.16 76.43 69.23 76.10 68.26 75.94 C 72.10 75.08 76.01 74.64 79.94 74.57 C 78.96 72.01 78.09 69.41 77.30 66.79 C 75.71 68.99 74.09 71.18 72.46 73.36 C 73.10 71.27 73.80 69.21 74.51 67.14 C 71.81 65.82 69.04 64.64 66.17 63.77 M 162.47 67.18 C 163.20 69.20 163.91 71.23 164.52 73.28 C 162.85 71.15 161.26 68.96 159.73 66.73 C 158.94 69.38 158.07 72.00 157.05 74.57 C 161.00 74.64 164.95 75.04 168.80 75.95 C 167.47 76.16 166.15 76.36 164.82 76.55 C 167.22 78.25 168.97 80.60 170.90 82.77 C 173.19 82.54 175.45 82.02 177.72 81.66 C 178.04 79.97 178.35 78.28 178.65 76.58 C 177.98 76.79 176.64 77.21 175.96 77.41 C 174.35 72.82 172.54 68.30 170.81 63.75 C 167.93 64.64 165.17 65.85 162.47 67.18 M 118.42 71.92 C 117.43 72.61 116.44 73.31 115.45 74.01 C 116.10 76.09 116.74 78.18 117.37 80.27 C 117.94 80.27 119.07 80.29 119.63 80.29 C 120.27 78.18 120.92 76.06 121.60 73.96 C 120.54 73.28 119.48 72.60 118.42 71.92 M 104.26 72.85 C 104.08 76.38 104.08 79.92 104.08 83.45 C 106.87 84.13 109.61 85.00 112.29 86.03 C 113.43 84.69 114.59 83.38 115.75 82.06 C 115.16 79.75 114.53 77.44 113.86 75.15 C 111.42 77.24 109.06 79.43 106.61 81.51 C 107.55 79.05 108.49 76.59 109.41 74.13 C 107.70 73.67 105.99 73.25 104.26 72.85 M 127.54 74.12 C 128.51 76.60 129.49 79.09 130.42 81.59 C 127.99 79.46 125.63 77.26 123.15 75.18 C 122.48 77.48 121.85 79.79 121.25 82.12 C 122.42 83.40 123.58 84.69 124.73 85.99 C 127.42 85.00 130.15 84.14 132.93 83.44 C 132.91 79.91 132.92 76.39 132.76 72.87 C 131.01 73.26 129.27 73.68 127.54 74.12 M 45.08 74.63 C 46.78 77.23 47.53 81.58 51.32 81.66 C 50.39 79.37 49.45 77.08 48.56 74.78 C 47.39 74.73 46.23 74.68 45.08 74.63 M 188.54 74.71 C 187.58 77.04 186.63 79.35 185.68 81.68 C 189.46 81.54 190.22 77.27 191.92 74.67 C 190.79 74.68 189.66 74.70 188.54 74.71 M 33.14 75.29 C 34.48 78.32 35.92 81.31 37.60 84.17 C 40.20 83.87 42.82 83.73 45.44 83.72 C 45.17 83.21 44.62 82.21 44.35 81.70 C 44.95 81.66 46.16 81.59 46.76 81.55 C 45.34 79.30 44.11 76.94 43.02 74.52 C 39.71 74.57 36.41 74.78 33.14 75.29 M 50.67 75.08 C 51.54 77.20 52.51 79.28 53.56 81.32 C 54.50 81.36 56.38 81.45 57.32 81.50 C 56.94 79.70 56.81 77.84 56.17 76.11 C 54.37 75.61 52.51 75.39 50.67 75.08 M 180.66 76.37 C 180.24 78.05 180.01 79.76 179.70 81.46 C 180.61 81.44 182.45 81.40 183.36 81.38 C 184.45 79.33 185.46 77.24 186.36 75.10 C 184.47 75.52 182.37 75.41 180.66 76.37 M 190.26 81.55 C 190.86 81.60 192.06 81.72 192.67 81.77 C 192.38 82.26 191.82 83.23 191.54 83.71 C 194.17 83.74 196.80 83.87 199.42 84.17 C 201.10 81.29 202.55 78.29 203.90 75.24 C 200.61 74.78 197.30 74.56 193.98 74.52 C 192.91 76.95 191.66 79.30 190.26 81.55 M 95.96 75.66 C 95.65 78.43 95.37 81.21 95.15 83.99 C 92.57 82.81 89.98 81.66 87.36 80.58 C 87.43 82.10 87.51 83.63 87.60 85.15 C 91.11 86.17 94.55 87.42 97.95 88.79 C 98.34 85.14 99.01 81.54 99.86 77.98 C 98.56 77.20 97.26 76.42 95.96 75.66 M 137.17 77.96 C 138.00 81.53 138.65 85.14 139.06 88.79 C 142.45 87.42 145.90 86.18 149.41 85.14 C 149.50 83.62 149.58 82.11 149.67 80.60 C 147.03 81.66 144.42 82.79 141.86 84.01 C 141.65 81.22 141.35 78.45 141.05 75.67 C 139.75 76.43 138.46 77.19 137.17 77.96 M 68.05 83.31 C 68.99 83.56 70.89 84.06 71.84 84.31 C 69.64 84.89 67.44 85.44 65.24 85.97 C 66.85 87.98 68.58 89.89 70.48 91.63 C 72.83 91.48 75.18 91.41 77.54 91.40 C 78.02 89.39 78.56 87.40 79.19 85.43 C 77.61 84.70 76.03 83.95 74.47 83.17 C 78.24 83.18 81.96 83.82 85.61 84.69 C 85.58 83.10 85.55 81.51 85.52 79.92 C 82.07 78.84 78.58 77.89 75.07 77.03 C 72.36 78.68 69.99 80.80 68.05 83.31 M 151.48 79.92 C 151.45 81.51 151.42 83.11 151.39 84.71 C 155.06 83.81 158.81 83.16 162.60 83.19 C 161.01 83.96 159.40 84.69 157.79 85.41 C 158.44 87.39 158.99 89.40 159.50 91.42 C 161.93 91.39 164.39 91.70 166.81 91.37 C 168.74 89.78 170.26 87.77 171.83 85.85 C 169.64 85.45 167.43 85.12 165.22 84.85 C 166.45 84.30 167.68 83.74 168.91 83.17 C 166.91 80.82 164.65 78.68 162.03 77.03 C 158.47 77.83 154.96 78.82 151.48 79.92 M 125.81 87.65 C 126.65 89.07 127.48 90.51 128.29 91.96 C 125.12 89.86 121.91 87.81 118.53 86.07 C 115.08 87.78 111.84 89.89 108.63 92.01 C 109.48 90.54 110.35 89.09 111.23 87.64 C 108.88 86.80 106.49 86.05 104.08 85.39 C 104.15 87.69 104.24 89.99 104.36 92.29 C 106.63 94.42 108.72 96.73 110.69 99.14 C 111.72 96.82 112.97 94.59 114.35 92.46 C 112.85 99.68 112.25 107.06 112.64 114.43 C 106.53 110.28 99.76 107.27 92.84 104.78 C 95.42 104.69 98.01 104.77 100.59 105.09 C 99.35 102.17 98.38 99.16 97.61 96.10 C 95.70 94.84 93.76 93.63 91.83 92.42 C 91.24 94.84 90.69 97.26 90.19 99.70 C 91.86 99.72 93.54 99.74 95.22 99.78 C 91.80 101.41 88.45 103.17 85.30 105.27 C 85.10 109.07 85.22 112.88 85.43 116.68 C 84.58 115.25 83.75 113.81 82.93 112.37 C 81.03 114.00 79.19 115.70 77.42 117.47 C 79.29 118.49 81.14 119.59 83.11 120.41 C 86.35 120.14 89.47 119.03 92.72 118.67 C 91.20 116.53 89.80 114.32 88.52 112.03 C 94.11 116.86 100.17 121.16 106.77 124.51 C 100.19 127.86 94.12 132.12 88.56 136.96 C 89.83 134.69 91.22 132.48 92.68 130.33 C 89.57 129.88 86.49 129.29 83.49 128.35 C 81.45 129.40 79.42 130.46 77.40 131.54 C 79.18 133.30 81.02 135.00 82.91 136.64 C 83.75 135.18 84.59 133.73 85.44 132.28 C 85.21 136.09 85.09 139.92 85.28 143.74 C 88.45 145.83 91.83 147.58 95.24 149.24 C 93.55 149.27 91.87 149.28 90.18 149.27 C 90.67 151.73 91.23 154.18 91.85 156.61 C 93.79 155.37 95.73 154.13 97.65 152.87 C 98.41 149.81 99.37 146.80 100.61 143.91 C 98.07 144.20 95.52 144.29 92.97 144.26 C 99.79 141.61 106.58 138.74 112.65 134.59 C 112.25 141.94 112.85 149.32 114.33 156.54 C 112.95 154.41 111.72 152.19 110.67 149.88 C 108.67 152.32 106.51 154.64 104.28 156.87 C 104.22 159.13 104.16 161.40 104.13 163.66 C 106.50 162.95 108.87 162.19 111.20 161.35 C 110.33 159.90 109.46 158.45 108.61 156.99 C 111.83 159.13 115.09 161.20 118.54 162.94 C 121.95 161.18 125.17 159.12 128.36 157.02 C 127.53 158.46 126.67 159.90 125.81 161.33 C 128.15 162.19 130.52 162.96 132.92 163.65 C 132.73 161.33 133.11 158.87 132.40 156.63 C 130.42 154.34 128.19 152.25 126.31 149.86 C 125.29 152.19 124.05 154.42 122.66 156.55 C 124.15 149.32 124.77 141.92 124.35 134.55 C 130.46 138.73 137.26 141.76 144.22 144.21 C 141.61 144.32 139.00 144.24 136.42 143.92 C 137.63 146.82 138.61 149.81 139.36 152.87 C 141.29 154.15 143.24 155.40 145.19 156.64 C 145.77 154.20 146.32 151.75 146.81 149.29 C 145.14 149.27 143.48 149.26 141.81 149.21 C 145.22 147.56 148.59 145.84 151.73 143.71 C 151.91 139.90 151.80 136.09 151.58 132.28 C 152.42 133.72 153.26 135.17 154.10 136.63 C 155.99 135.01 157.82 133.31 159.59 131.55 C 157.57 130.44 155.53 129.37 153.46 128.36 C 150.48 129.29 147.41 129.87 144.33 130.30 C 145.78 132.44 147.16 134.64 148.41 136.91 C 142.83 132.11 136.81 127.82 130.22 124.51 C 136.80 121.20 142.78 116.86 148.43 112.15 C 147.16 114.39 145.77 116.57 144.32 118.69 C 147.55 119.04 150.67 120.14 153.89 120.43 C 155.87 119.59 157.71 118.48 159.59 117.44 C 157.81 115.70 155.98 114.01 154.11 112.37 C 153.28 113.82 152.44 115.26 151.60 116.70 C 151.79 112.89 151.90 109.08 151.73 105.26 C 148.56 103.17 145.17 101.45 141.77 99.76 C 143.45 99.73 145.14 99.71 146.82 99.70 C 146.31 97.25 145.76 94.81 145.15 92.39 C 143.23 93.61 141.31 94.83 139.41 96.09 C 138.61 99.15 137.63 102.17 136.40 105.09 C 138.94 104.78 141.50 104.70 144.06 104.78 C 137.20 107.33 130.46 110.29 124.37 114.42 C 124.75 107.06 124.14 99.69 122.69 92.48 C 124.05 94.61 125.27 96.83 126.34 99.13 C 128.26 96.58 130.77 94.50 132.62 91.92 C 132.90 89.75 132.84 87.55 132.88 85.37 C 130.50 86.06 128.14 86.80 125.81 87.65 M 190.82 85.74 C 190.35 86.41 189.89 87.09 189.43 87.76 C 191.75 88.08 194.07 88.43 196.38 88.84 C 197.05 87.84 197.72 86.84 198.39 85.84 C 195.86 85.73 193.34 85.69 190.82 85.74 M 38.64 85.87 C 39.27 86.85 39.89 87.84 40.52 88.82 C 42.96 88.43 45.41 88.05 47.84 87.59 C 45.68 84.63 41.74 85.94 38.64 85.87 M 56.51 88.79 C 56.99 91.10 57.46 93.40 57.93 95.71 C 60.30 96.04 62.67 96.42 65.03 96.84 C 64.66 95.82 63.93 93.80 63.56 92.79 C 65.01 92.54 66.46 92.30 67.91 92.07 C 66.27 90.26 64.72 88.36 63.27 86.39 C 61.01 87.18 58.76 87.98 56.51 88.79 M 79.43 91.43 C 82.12 91.84 84.79 92.30 87.44 92.90 C 84.27 93.76 81.10 94.62 78.03 95.79 C 79.72 97.51 81.42 99.23 83.15 100.92 C 84.88 100.55 86.61 100.20 88.35 99.85 C 88.73 97.01 89.34 94.20 90.17 91.45 C 87.15 89.62 84.05 87.92 80.93 86.28 C 80.41 87.99 79.91 89.71 79.43 91.43 M 146.84 91.47 C 147.67 94.26 148.29 97.10 148.73 99.98 C 150.46 100.27 152.20 100.57 153.94 100.89 C 155.64 99.21 157.30 97.51 158.95 95.78 C 155.86 94.64 152.69 93.76 149.51 92.90 C 152.18 92.33 154.87 91.86 157.57 91.45 C 157.09 89.73 156.59 88.01 156.08 86.29 C 152.95 87.93 149.84 89.60 146.84 91.47 M 169.11 92.02 C 170.54 92.28 171.98 92.56 173.42 92.83 C 172.94 94.17 172.47 95.51 172.00 96.85 C 174.35 96.42 176.71 96.03 179.08 95.70 C 179.55 93.38 180.01 91.07 180.46 88.75 C 178.23 87.96 176.00 87.18 173.77 86.38 C 172.31 88.33 170.78 90.24 169.11 92.02 M 41.75 90.50 C 43.03 91.98 44.33 93.44 45.62 94.91 C 47.29 94.24 48.96 93.58 50.64 92.95 C 49.87 91.87 49.11 90.80 48.34 89.73 C 46.14 89.96 43.95 90.21 41.75 90.50 M 186.38 92.93 C 188.03 93.58 189.68 94.25 191.32 94.94 C 192.65 93.49 193.97 92.02 195.27 90.53 C 193.08 90.23 190.89 89.97 188.71 89.73 C 187.93 90.79 187.15 91.86 186.38 92.93 M 47.06 96.37 C 47.70 97.00 48.34 97.63 48.98 98.26 C 45.84 102.05 42.70 105.84 39.68 109.73 C 42.01 111.61 44.40 113.42 46.89 115.09 C 48.20 113.51 49.52 111.93 50.93 110.44 C 50.05 112.91 48.99 115.32 47.91 117.71 C 50.57 117.06 53.25 116.49 55.95 116.07 C 54.08 112.62 52.52 109.00 51.24 105.29 C 52.05 106.24 52.85 107.20 53.65 108.17 C 54.24 105.37 55.07 102.64 56.31 100.07 C 54.75 98.25 53.22 96.42 51.71 94.57 C 50.16 95.17 48.61 95.77 47.06 96.37 M 185.26 94.58 C 183.75 96.43 182.24 98.28 180.69 100.09 C 181.93 102.67 182.75 105.40 183.33 108.20 C 184.14 107.19 184.96 106.19 185.79 105.20 C 184.51 108.95 182.93 112.59 181.04 116.08 C 183.79 116.48 186.51 117.04 189.19 117.77 C 188.01 115.36 186.92 112.91 186.06 110.38 C 187.47 111.90 188.78 113.49 190.09 115.09 C 192.60 113.44 194.99 111.64 197.31 109.73 C 194.33 105.82 191.14 102.07 188.03 98.26 C 188.51 97.80 189.48 96.86 189.96 96.39 C 188.40 95.77 186.82 95.18 185.26 94.58 M 104.51 94.97 C 104.70 97.10 104.92 99.22 105.17 101.35 C 103.43 100.10 101.69 98.84 99.95 97.59 C 100.83 100.17 101.48 102.90 102.96 105.22 C 104.66 105.93 106.47 106.33 108.23 106.87 C 108.72 105.02 109.24 103.17 109.77 101.32 C 108.08 99.15 106.32 97.03 104.51 94.97 M 127.24 101.30 C 127.75 103.13 128.27 104.97 128.77 106.82 C 130.57 106.29 132.39 105.79 134.21 105.31 C 135.28 102.79 136.25 100.23 137.05 97.62 C 135.28 98.85 133.54 100.13 131.80 101.40 C 132.08 99.27 132.32 97.14 132.50 95.00 C 130.65 97.02 128.89 99.12 127.24 101.30 M 73.05 98.19 C 73.13 99.43 73.21 100.67 73.29 101.91 C 75.36 102.37 77.41 102.89 79.45 103.46 C 79.89 102.73 80.33 102.00 80.77 101.27 C 79.22 99.73 77.71 98.15 76.22 96.54 C 75.17 97.09 74.11 97.64 73.05 98.19 M 156.23 101.29 C 156.68 102.01 157.13 102.73 157.59 103.45 C 159.62 102.88 161.67 102.37 163.73 101.90 C 163.81 100.66 163.89 99.43 163.97 98.19 C 162.91 97.64 161.86 97.09 160.81 96.53 C 159.30 98.14 157.79 99.74 156.23 101.29 M 58.45 97.64 C 59.16 99.85 59.89 102.07 60.61 104.29 C 59.61 103.33 58.61 102.37 57.61 101.42 C 56.60 104.29 55.50 107.26 55.77 110.36 C 57.83 113.41 60.82 115.67 63.40 118.25 C 64.79 117.47 66.18 116.70 67.58 115.94 C 64.93 113.08 62.44 110.07 60.28 106.82 C 61.87 107.87 63.45 108.94 65.01 110.04 C 66.40 108.49 67.85 107.00 69.37 105.58 C 68.14 103.48 67.14 101.24 65.69 99.29 C 63.42 98.24 60.87 98.11 58.45 97.64 M 171.30 99.32 C 169.86 101.28 168.86 103.52 167.64 105.61 C 169.15 107.02 170.60 108.51 171.98 110.05 C 173.53 108.95 175.10 107.87 176.69 106.84 C 174.55 110.07 172.08 113.07 169.46 115.93 C 170.85 116.70 172.23 117.48 173.61 118.26 C 176.19 115.66 179.21 113.41 181.26 110.33 C 181.46 107.24 180.42 104.28 179.37 101.43 C 178.37 102.39 177.38 103.36 176.39 104.33 C 177.12 102.10 177.86 99.89 178.58 97.66 C 176.14 98.11 173.57 98.24 171.30 99.32 M 73.42 103.86 C 73.97 107.10 74.76 110.29 75.57 113.48 C 73.78 111.42 72.06 109.29 70.33 107.19 C 69.09 108.47 67.85 109.75 66.63 111.06 C 69.58 112.97 72.62 114.75 75.65 116.53 C 77.61 114.43 79.74 112.50 82.02 110.74 C 81.48 109.04 80.92 107.34 80.36 105.65 C 78.06 105.01 75.75 104.41 73.42 103.86 M 156.66 105.63 C 156.09 107.32 155.52 109.01 154.95 110.70 C 157.24 112.48 159.38 114.44 161.36 116.54 C 164.40 114.76 167.42 112.95 170.39 111.05 C 169.15 109.75 167.91 108.47 166.65 107.20 C 164.94 109.29 163.25 111.39 161.47 113.41 C 162.24 110.25 163.02 107.08 163.59 103.88 C 161.27 104.42 158.96 105.00 156.66 105.63 M 36.29 114.49 C 38.62 116.33 41.05 118.03 43.58 119.59 C 44.12 118.85 45.21 117.37 45.75 116.63 C 43.24 114.99 40.85 113.16 38.58 111.20 C 37.82 112.29 37.05 113.39 36.29 114.49 M 191.21 116.71 C 191.98 117.67 192.74 118.62 193.50 119.58 C 195.99 117.98 198.42 116.30 200.73 114.46 C 199.95 113.38 199.17 112.29 198.39 111.21 C 196.10 113.18 193.69 115.00 191.21 116.71 M 35.19 116.12 C 33.71 118.77 32.04 121.35 31.06 124.24 C 31.67 127.41 33.71 130.06 35.13 132.90 C 37.54 131.09 40.01 129.37 42.58 127.78 C 41.94 126.69 41.32 125.59 40.69 124.50 C 41.32 123.41 41.95 122.31 42.58 121.22 C 40.03 119.65 37.57 117.94 35.19 116.12 M 194.44 121.19 C 195.07 122.31 195.70 123.43 196.33 124.55 C 195.68 125.62 195.02 126.69 194.37 127.76 C 196.94 129.35 199.43 131.06 201.84 132.88 C 203.24 130.00 205.60 127.32 205.86 124.06 C 204.91 121.23 203.25 118.71 201.83 116.10 C 199.47 117.94 197.00 119.64 194.44 121.19 M 47.25 120.31 C 46.57 121.71 46.15 123.22 45.65 124.69 C 46.17 126.03 46.63 127.40 47.28 128.68 C 50.22 130.41 53.78 130.58 57.08 131.06 C 58.56 128.81 60.17 126.64 61.87 124.54 C 60.20 122.39 58.58 120.20 57.05 117.95 C 53.74 118.41 50.22 118.62 47.25 120.31 M 64.99 119.54 C 67.19 121.24 69.42 122.90 71.69 124.51 C 69.40 126.10 67.17 127.77 65.00 129.52 C 66.32 130.21 67.64 130.90 68.96 131.60 C 71.58 129.08 74.34 126.68 77.28 124.53 C 74.36 122.30 71.56 119.90 68.90 117.36 C 67.59 118.08 66.29 118.81 64.99 119.54 M 159.76 124.47 C 162.65 126.73 165.44 129.11 168.08 131.64 C 169.38 130.92 170.68 130.21 171.98 129.49 C 169.83 127.75 167.60 126.11 165.33 124.53 C 167.59 122.90 169.83 121.24 172.01 119.52 C 170.70 118.80 169.38 118.08 168.06 117.37 C 165.45 119.91 162.68 122.29 159.76 124.47 M 179.93 117.94 C 178.42 120.20 176.81 122.38 175.16 124.54 C 176.84 126.65 178.45 128.83 179.96 131.08 C 183.25 130.62 186.67 130.29 189.69 128.77 C 190.34 127.46 190.82 126.08 191.36 124.72 C 190.84 123.24 190.45 121.71 189.75 120.31 C 186.78 118.61 183.24 118.42 179.93 117.94 M 85.94 121.90 C 87.84 122.77 89.76 123.61 91.68 124.44 C 89.76 125.35 87.83 126.23 85.91 127.15 C 88.60 127.71 91.32 128.15 94.04 128.53 C 95.34 127.20 96.65 125.88 97.98 124.59 C 96.67 123.21 95.36 121.84 94.07 120.46 C 91.35 120.84 88.62 121.26 85.94 121.90 M 138.99 124.58 C 140.34 125.89 141.68 127.21 143.00 128.54 C 145.70 128.15 148.40 127.73 151.07 127.15 C 149.14 126.23 147.20 125.36 145.26 124.47 C 147.22 123.62 149.18 122.78 151.12 121.88 C 148.42 121.30 145.69 120.84 142.96 120.47 C 141.64 121.85 140.32 123.21 138.99 124.58 M 36.27 134.56 C 37.04 135.63 37.81 136.70 38.58 137.78 C 40.86 135.84 43.25 134.03 45.75 132.40 C 45.05 131.41 44.34 130.41 43.64 129.43 C 41.06 130.95 38.59 132.67 36.27 134.56 M 193.42 129.41 C 192.88 130.14 191.79 131.60 191.24 132.34 C 193.74 134.00 196.14 135.82 198.43 137.78 C 199.19 136.69 199.95 135.61 200.72 134.52 C 198.38 132.68 195.95 130.97 193.42 129.41 M 63.39 130.76 C 60.83 133.38 57.75 135.58 55.75 138.69 C 55.55 141.77 56.60 144.73 57.61 147.58 C 58.62 146.64 59.63 145.71 60.64 144.78 C 59.91 146.97 59.16 149.15 58.44 151.35 C 60.86 150.87 63.43 150.78 65.69 149.69 C 67.12 147.73 68.13 145.50 69.38 143.43 C 67.85 142.01 66.39 140.52 64.99 138.99 C 63.43 140.07 61.87 141.14 60.29 142.18 C 62.45 138.94 64.93 135.92 67.56 133.04 C 66.17 132.29 64.78 131.53 63.39 130.76 M 169.43 133.02 C 172.05 135.92 174.53 138.94 176.72 142.17 C 175.12 141.13 173.56 140.05 172.01 138.96 C 170.61 140.50 169.16 142.00 167.65 143.45 C 168.89 145.55 169.88 147.82 171.38 149.76 C 173.65 150.72 176.15 150.89 178.55 151.37 C 177.84 149.15 177.12 146.94 176.41 144.72 C 177.40 145.67 178.39 146.62 179.39 147.57 C 180.42 144.77 181.42 141.86 181.28 138.83 C 179.38 135.63 176.19 133.42 173.60 130.80 C 172.22 131.54 170.83 132.29 169.43 133.02 M 181.04 132.94 C 182.87 136.39 184.56 139.93 185.64 143.69 C 184.90 142.72 184.17 141.73 183.45 140.75 C 182.77 143.55 181.95 146.33 180.70 148.95 C 182.26 150.76 183.79 152.60 185.29 154.45 C 186.86 153.82 188.43 153.19 189.99 152.54 C 189.32 151.95 188.65 151.36 187.98 150.77 C 191.14 146.98 194.33 143.21 197.32 139.28 C 194.97 137.41 192.59 135.59 190.11 133.90 C 188.78 135.52 187.45 137.14 186.05 138.69 C 186.91 136.17 188.00 133.72 189.08 131.29 C 186.43 131.95 183.74 132.52 181.04 132.94 M 47.92 131.31 C 49.01 133.73 50.10 136.16 51.00 138.66 C 49.58 137.13 48.23 135.53 46.90 133.93 C 44.41 135.58 42.02 137.38 39.71 139.29 C 42.67 143.22 45.87 146.96 49.01 150.75 C 48.35 151.36 47.68 151.97 47.02 152.59 C 48.59 153.21 50.17 153.82 51.75 154.42 C 53.23 152.57 54.75 150.74 56.31 148.96 C 55.09 146.35 54.24 143.60 53.57 140.80 C 52.83 141.75 52.09 142.70 51.33 143.65 C 52.50 139.93 54.12 136.38 55.96 132.95 C 53.26 132.52 50.58 131.96 47.92 131.31 M 66.62 137.92 C 67.84 139.23 69.08 140.52 70.34 141.81 C 72.04 139.73 73.74 137.64 75.50 135.60 C 74.73 138.77 73.98 141.95 73.42 145.16 C 75.75 144.60 78.06 144.00 80.36 143.36 C 80.92 141.65 81.48 139.96 82.03 138.26 C 79.73 136.50 77.60 134.54 75.62 132.44 C 72.61 134.25 69.60 136.06 66.62 137.92 M 154.96 138.32 C 155.52 140.00 156.09 141.68 156.65 143.36 C 158.95 144.00 161.26 144.60 163.59 145.14 C 163.01 141.93 162.29 138.76 161.52 135.59 C 163.27 137.63 164.97 139.73 166.68 141.81 C 167.92 140.53 169.16 139.25 170.38 137.95 C 167.41 136.06 164.40 134.25 161.37 132.46 C 159.37 134.57 157.23 136.53 154.96 138.32 M 102.90 143.85 C 101.50 146.17 100.79 148.81 100.02 151.39 C 101.70 150.19 103.34 148.95 104.98 147.72 C 104.84 149.83 104.70 151.94 104.57 154.05 C 106.34 151.97 108.08 149.87 109.75 147.73 C 109.25 145.88 108.75 144.03 108.28 142.18 C 106.48 142.71 104.61 143.05 102.90 143.85 M 128.76 142.17 C 128.27 144.00 127.76 145.83 127.24 147.65 C 128.88 149.88 130.65 151.99 132.52 154.03 C 132.32 151.87 132.07 149.73 131.78 147.59 C 133.51 148.86 135.23 150.13 136.99 151.36 C 136.23 148.74 135.28 146.19 134.23 143.69 C 132.40 143.19 130.58 142.68 128.76 142.17 M 73.29 147.07 C 73.21 148.31 73.13 149.57 73.05 150.82 C 74.11 151.36 75.17 151.90 76.23 152.45 C 77.71 150.86 79.21 149.29 80.75 147.76 C 80.33 147.02 79.90 146.28 79.48 145.54 C 77.43 146.11 75.37 146.61 73.29 147.07 M 156.20 147.71 C 157.77 149.26 159.30 150.84 160.80 152.46 C 161.84 151.91 162.89 151.36 163.94 150.81 C 163.87 149.57 163.81 148.34 163.74 147.10 C 161.68 146.63 159.63 146.14 157.60 145.57 C 157.13 146.29 156.66 147.00 156.20 147.71 M 83.11 148.12 C 81.39 149.78 79.70 151.48 78.04 153.20 C 81.11 154.35 84.27 155.24 87.44 156.10 C 84.79 156.68 82.12 157.13 79.45 157.55 C 79.92 159.27 80.41 160.99 80.91 162.71 C 84.04 161.08 87.12 159.39 90.16 157.62 C 89.36 154.81 88.74 151.95 88.29 149.06 C 86.56 148.76 84.83 148.45 83.11 148.12 M 146.92 157.68 C 149.94 159.41 152.99 161.09 156.07 162.73 C 156.59 161.03 157.09 159.32 157.58 157.61 C 154.91 157.16 152.24 156.69 149.60 156.08 C 152.75 155.23 155.90 154.37 158.96 153.23 C 157.30 151.50 155.63 149.80 153.93 148.12 C 152.19 148.45 150.44 148.76 148.69 149.07 C 148.26 151.97 147.62 154.83 146.92 157.68 M 57.89 153.31 C 57.45 155.62 57.00 157.93 56.55 160.24 C 58.78 161.04 61.03 161.83 63.27 162.63 C 64.72 160.67 66.25 158.76 67.88 156.94 C 66.44 156.70 65.00 156.45 63.57 156.20 C 64.06 154.84 64.55 153.49 65.04 152.14 C 62.66 152.58 60.28 152.97 57.89 153.31 M 171.95 152.18 C 172.32 153.18 173.07 155.17 173.44 156.17 C 172.01 156.44 170.58 156.71 169.15 156.98 C 170.77 158.76 172.27 160.65 173.70 162.61 C 175.96 161.83 178.22 161.05 180.47 160.25 C 180.01 157.92 179.55 155.59 179.08 153.27 C 176.70 152.95 174.32 152.58 171.95 152.18 M 45.60 154.07 C 44.31 155.54 43.03 157.00 41.76 158.48 C 43.94 158.78 46.13 159.04 48.32 159.29 C 49.10 158.21 49.87 157.14 50.64 156.06 C 48.96 155.41 47.28 154.74 45.60 154.07 M 186.33 156.10 C 187.12 157.15 187.91 158.20 188.70 159.25 C 190.88 159.03 193.06 158.79 195.24 158.53 C 193.97 157.03 192.69 155.55 191.40 154.08 C 189.71 154.76 188.03 155.44 186.33 156.10 M 65.28 163.03 C 67.50 163.58 69.71 164.14 71.92 164.75 C 70.63 165.05 69.34 165.36 68.04 165.66 C 69.98 168.17 72.33 170.33 75.05 171.96 C 78.59 171.16 82.08 170.17 85.54 169.07 C 85.56 167.49 85.58 165.91 85.60 164.33 C 81.95 165.17 78.25 165.81 74.50 165.82 C 76.06 165.04 77.64 164.30 79.23 163.58 C 78.55 161.60 77.99 159.59 77.50 157.56 C 75.07 157.61 72.64 157.36 70.22 157.63 C 68.32 159.18 66.83 161.14 65.28 163.03 M 159.51 157.57 C 159.00 159.58 158.45 161.59 157.80 163.56 C 159.41 164.32 161.02 165.10 162.61 165.91 C 158.81 165.79 155.06 165.22 151.38 164.30 C 151.41 165.90 151.45 167.51 151.48 169.11 C 154.93 170.15 158.40 171.12 161.90 171.98 C 164.63 170.36 166.98 168.23 168.94 165.74 C 167.69 165.34 166.43 164.94 165.18 164.54 C 167.38 164.06 169.58 163.57 171.78 163.09 C 170.20 161.09 168.51 159.20 166.70 157.41 C 164.31 157.53 161.91 157.58 159.51 157.57 M 40.45 160.21 C 39.86 161.19 39.27 162.17 38.68 163.16 C 41.18 163.28 43.68 163.31 46.18 163.26 C 46.65 162.58 47.11 161.90 47.58 161.22 C 45.20 160.90 42.82 160.57 40.45 160.21 M 87.57 163.91 C 87.50 165.41 87.44 166.90 87.38 168.40 C 90.00 167.33 92.58 166.20 95.16 165.04 C 95.37 167.68 95.53 170.33 95.99 172.94 C 97.41 172.61 98.63 171.77 99.88 171.06 C 99.00 167.49 98.34 163.87 97.95 160.22 C 94.54 161.58 91.08 162.82 87.57 163.91 M 139.05 160.20 C 138.67 163.86 138.00 167.48 137.14 171.06 C 138.43 171.79 139.73 172.52 141.04 173.25 C 141.36 170.51 141.65 167.77 141.85 165.02 C 144.43 166.20 147.03 167.33 149.65 168.40 C 149.58 166.90 149.50 165.40 149.43 163.91 C 145.91 162.83 142.45 161.59 139.05 160.20 M 189.54 161.26 C 189.83 161.76 190.43 162.77 190.73 163.27 C 193.28 163.32 195.84 163.27 198.40 163.14 C 197.73 162.14 197.06 161.15 196.39 160.17 C 194.11 160.56 191.82 160.92 189.54 161.26 M 104.08 165.55 C 104.09 169.08 104.09 172.60 104.24 176.12 C 105.98 175.74 107.71 175.32 109.43 174.89 C 108.45 172.35 107.51 169.79 106.61 167.21 C 108.94 169.51 111.34 171.74 113.85 173.83 C 114.52 171.52 115.16 169.19 115.75 166.86 C 114.56 165.58 113.39 164.28 112.23 162.98 C 109.58 164.04 106.85 164.86 104.08 165.55 M 124.70 163.00 C 123.57 164.31 122.41 165.60 121.25 166.88 C 121.84 169.19 122.47 171.50 123.14 173.80 C 125.69 171.73 128.08 169.49 130.47 167.24 C 129.52 169.79 128.55 172.33 127.55 174.86 C 129.27 175.31 130.99 175.73 132.73 176.13 C 132.96 172.60 132.96 169.06 132.92 165.53 C 130.13 164.86 127.39 164.01 124.70 163.00 M 33.11 173.73 C 36.39 174.22 39.70 174.43 43.02 174.51 C 44.08 172.08 45.32 169.74 46.75 167.51 C 46.13 167.44 44.90 167.30 44.29 167.23 C 44.60 166.73 45.21 165.74 45.52 165.24 C 42.87 165.28 40.22 165.16 37.59 164.84 C 35.93 167.72 34.49 170.71 33.11 173.73 M 191.56 165.26 C 191.83 165.76 192.37 166.76 192.64 167.26 C 192.04 167.31 190.84 167.42 190.23 167.48 C 191.68 169.72 192.92 172.07 194.02 174.51 C 197.32 174.42 200.61 174.20 203.88 173.73 C 202.51 170.72 201.08 167.73 199.44 164.85 C 196.82 165.16 194.19 165.27 191.56 165.26 M 59.27 167.39 C 58.95 169.08 58.64 170.77 58.35 172.47 C 59.02 172.25 60.36 171.82 61.04 171.60 C 62.66 176.18 64.46 180.70 66.18 185.25 C 69.05 184.36 71.82 183.20 74.50 181.84 C 73.79 179.78 73.10 177.73 72.47 175.65 C 74.10 177.83 75.72 180.02 77.31 182.23 C 78.08 179.60 78.94 176.99 79.95 174.44 C 75.98 174.38 72.02 173.97 68.16 173.05 C 69.16 172.91 71.16 172.61 72.16 172.47 C 69.82 170.69 67.83 168.53 66.18 166.11 C 63.89 166.58 61.58 166.99 59.27 167.39 M 164.79 172.45 C 165.71 172.60 167.57 172.88 168.49 173.03 C 164.77 174.04 160.91 174.35 157.06 174.45 C 158.08 177.01 158.94 179.63 159.72 182.28 C 161.23 180.08 162.81 177.92 164.47 175.83 C 163.87 177.85 163.18 179.84 162.48 181.83 C 165.18 183.17 167.96 184.37 170.85 185.24 C 172.55 180.68 174.32 176.15 175.98 171.58 C 176.64 171.80 177.97 172.26 178.63 172.49 C 178.36 170.77 178.06 169.07 177.75 167.37 C 175.43 166.97 173.11 166.56 170.81 166.10 C 169.15 168.53 167.20 170.75 164.79 172.45 M 48.86 167.68 C 47.47 169.90 46.20 172.18 45.04 174.52 C 45.89 174.41 47.58 174.19 48.43 174.09 C 49.60 172.02 50.31 169.74 51.31 167.60 C 50.49 167.62 49.67 167.65 48.86 167.68 M 53.60 167.67 C 52.52 169.70 51.54 171.79 50.65 173.91 C 52.60 173.59 54.55 173.23 56.49 172.84 C 56.68 171.07 56.87 169.31 57.07 167.54 C 55.91 167.59 54.76 167.63 53.60 167.67 M 179.75 167.50 C 180.05 169.33 180.33 171.16 180.61 172.99 C 182.52 173.29 184.44 173.58 186.36 173.87 C 185.44 171.77 184.47 169.70 183.42 167.68 C 182.19 167.62 180.97 167.56 179.75 167.50 M 185.68 167.33 C 187.20 170.23 187.32 175.51 191.96 174.53 C 190.29 171.89 189.52 167.43 185.68 167.33 M 117.39 168.68 C 116.74 170.84 116.07 172.99 115.38 175.14 C 116.34 175.73 117.31 176.29 118.32 176.82 C 119.54 176.58 120.53 175.69 121.63 175.15 C 120.94 173.03 120.29 170.90 119.65 168.77 C 119.09 168.74 117.96 168.70 117.39 168.68 M 96.39 175.36 C 97.31 178.79 97.67 182.46 99.31 185.64 C 101.71 187.81 105.06 188.18 108.11 188.71 C 107.78 187.48 107.45 186.24 107.13 185.01 C 108.71 186.60 110.23 188.24 111.78 189.86 C 112.71 187.47 113.51 185.02 114.05 182.51 C 112.73 180.55 111.48 178.54 110.27 176.51 C 108.33 177.13 106.35 177.63 104.36 178.09 C 104.45 179.91 104.51 181.74 104.53 183.57 C 102.94 180.08 101.64 176.47 100.35 172.87 C 99.04 173.71 97.72 174.54 96.39 175.36 M 136.62 172.89 C 135.39 176.49 134.08 180.07 132.51 183.54 C 132.51 181.70 132.55 179.87 132.61 178.04 C 130.63 177.62 128.66 177.12 126.73 176.52 C 125.55 178.51 124.33 180.49 123.02 182.39 C 123.43 184.97 124.25 187.46 125.28 189.85 C 126.83 188.22 128.34 186.55 129.93 184.96 C 129.58 186.21 129.23 187.46 128.87 188.71 C 131.94 188.17 135.44 187.86 137.76 185.54 C 139.25 182.34 139.74 178.79 140.65 175.41 C 139.31 174.57 137.96 173.73 136.62 172.89 M 82.05 174.45 C 80.67 177.52 79.70 180.75 78.98 184.04 C 80.05 185.20 81.12 186.36 82.20 187.52 C 83.66 187.85 85.12 188.19 86.57 188.54 C 89.13 186.28 91.45 183.77 93.52 181.06 C 92.27 178.62 91.17 176.10 90.16 173.56 C 87.47 173.94 84.76 174.26 82.05 174.45 M 146.85 173.56 C 145.81 176.12 144.70 178.64 143.48 181.11 C 145.59 183.84 147.95 186.38 150.55 188.64 C 153.68 188.29 156.18 186.57 158.02 184.09 C 157.19 180.83 156.65 177.31 154.67 174.51 C 152.08 174.09 149.45 173.92 146.85 173.56 M 94.54 182.95 C 92.81 185.07 90.96 187.09 89.06 189.05 C 91.75 189.30 94.45 189.54 97.13 189.94 C 95.03 190.44 92.92 190.90 90.82 191.35 C 91.10 194.26 91.42 197.17 91.88 200.06 C 96.72 199.55 101.52 198.77 106.27 197.74 C 106.49 198.42 106.94 199.79 107.17 200.47 C 108.46 199.38 109.74 198.29 111.02 197.19 C 110.15 195.00 109.32 192.79 108.52 190.58 C 105.59 190.38 102.71 189.73 100.02 188.54 C 100.56 189.83 101.10 191.13 101.62 192.43 C 98.95 189.51 96.65 186.29 94.54 182.95 M 142.46 182.97 C 140.32 186.29 138.00 189.51 135.41 192.50 C 135.92 191.18 136.43 189.87 136.96 188.56 C 134.28 189.73 131.42 190.40 128.50 190.56 C 127.68 192.79 126.83 195.02 125.95 197.22 C 127.25 198.32 128.57 199.40 129.90 200.47 C 130.09 199.79 130.47 198.44 130.66 197.76 C 135.44 198.73 140.26 199.55 145.11 200.06 C 145.57 197.17 145.91 194.27 146.19 191.36 C 144.15 190.91 142.11 190.47 140.10 189.94 C 142.71 189.53 145.33 189.29 147.96 189.08 C 146.04 187.11 144.20 185.09 142.46 182.97 M 67.00 187.09 C 67.61 188.30 68.21 189.51 68.82 190.72 C 71.53 189.58 74.19 188.33 76.78 186.94 C 76.29 185.82 75.78 184.69 75.28 183.58 C 72.60 184.93 69.83 186.09 67.00 187.09 M 160.21 186.93 C 162.81 188.33 165.48 189.59 168.20 190.74 C 168.78 189.52 169.37 188.31 169.96 187.10 C 167.16 186.09 164.42 184.91 161.77 183.58 C 161.25 184.69 160.73 185.81 160.21 186.93 M 115.77 184.54 C 114.97 186.81 114.10 189.06 113.11 191.26 C 114.86 192.91 116.67 194.48 118.51 196.04 C 120.34 194.49 122.14 192.90 123.90 191.28 C 122.92 189.10 122.06 186.88 121.32 184.62 C 120.33 185.71 119.33 186.78 118.33 187.84 C 117.47 186.74 116.62 185.64 115.77 184.54 M 69.56 192.45 C 71.16 195.20 72.87 197.88 74.66 200.51 C 77.81 200.73 80.96 200.80 84.12 200.81 C 83.70 197.89 83.50 194.94 83.39 191.99 C 80.65 192.36 78.53 191.31 77.62 188.65 C 75.01 190.08 72.31 191.33 69.56 192.45 M 153.62 191.99 C 153.50 194.93 153.30 197.88 152.90 200.81 C 156.07 200.80 159.23 200.72 162.39 200.51 C 164.16 197.87 165.86 195.19 167.43 192.44 C 164.66 191.30 161.95 190.03 159.32 188.61 C 158.46 191.24 156.39 192.38 153.62 191.99 M 85.26 191.83 C 85.38 194.80 85.64 197.76 86.05 200.70 C 87.36 200.60 88.67 200.49 89.98 200.37 C 89.51 197.43 89.19 194.46 88.96 191.49 C 88.03 191.57 86.18 191.74 85.26 191.83 M 148.04 191.53 C 147.82 194.49 147.50 197.44 147.00 200.37 C 148.32 200.49 149.64 200.59 150.97 200.70 C 151.38 197.75 151.63 194.77 151.75 191.79 C 150.82 191.73 148.97 191.60 148.04 191.53 M 107.61 202.47 C 108.28 204.30 108.96 206.13 109.67 207.95 C 111.04 206.11 112.35 204.23 113.59 202.30 C 113.02 201.24 112.46 200.18 111.90 199.12 C 110.48 200.25 109.05 201.36 107.61 202.47 M 125.09 199.10 C 124.53 200.14 123.98 201.18 123.42 202.23 C 124.62 204.20 125.95 206.11 127.35 207.96 C 128.05 206.13 128.72 204.30 129.39 202.46 C 127.94 201.35 126.51 200.24 125.09 199.10 M 115.02 204.13 C 113.52 206.06 112.01 207.97 110.40 209.81 C 110.93 210.88 111.47 211.95 112.00 213.02 C 113.49 210.27 116.70 207.49 115.02 204.13 M 125.00 213.02 C 125.40 212.23 126.20 210.64 126.59 209.84 C 125.00 207.99 123.51 206.05 122.03 204.12 C 120.24 207.46 123.54 210.26 125.00 213.02 M 112.97 214.89 C 114.68 217.68 116.50 220.41 118.49 223.02 C 120.47 220.42 122.31 217.71 124.03 214.94 C 122.53 212.74 121.11 210.49 119.80 208.17 C 119.49 208.61 118.88 209.49 118.57 209.93 C 118.22 209.50 117.51 208.64 117.16 208.22 C 115.88 210.52 114.49 212.75 112.97 214.89 Z" />
<path fill="#333333" opacity="1.00" d=" M 114.82 99.51 C 115.91 97.39 117.16 95.35 118.44 93.34 C 119.79 95.31 121.07 97.32 122.18 99.44 C 120.94 98.59 119.73 97.70 118.53 96.81 C 117.30 97.72 116.07 98.63 114.82 99.51 Z" />
<path fill="#333333" opacity="1.00" d=" M 114.40 106.28 C 115.71 104.37 117.05 102.47 118.41 100.59 C 119.89 102.42 121.29 104.32 122.57 106.30 C 121.23 105.59 119.92 104.87 118.61 104.12 C 117.21 104.85 115.80 105.57 114.40 106.28 Z" />
<path fill="#333333" opacity="1.00" d=" M 91.49 108.89 C 93.80 108.78 96.11 108.69 98.43 108.69 C 97.17 109.39 95.89 110.05 94.62 110.72 C 94.66 112.20 94.69 113.67 94.71 115.15 C 93.60 113.08 92.55 110.98 91.49 108.89 Z" />
<path fill="#333333" opacity="1.00" d=" M 114.19 112.37 C 115.63 111.02 117.08 109.67 118.53 108.33 C 119.96 109.68 121.38 111.03 122.82 112.37 C 120.00 111.02 117.00 111.02 114.19 112.37 Z" />
<path fill="#333333" opacity="1.00" d=" M 138.26 108.72 C 140.68 108.70 143.11 108.78 145.53 108.90 C 144.48 110.96 143.42 113.02 142.29 115.04 C 142.30 113.56 142.33 112.09 142.37 110.61 C 140.99 109.99 139.62 109.38 138.26 108.72 Z" />
<path fill="#333333" opacity="1.00" d=" M 97.74 112.61 C 100.05 112.30 102.37 112.02 104.70 111.78 C 103.41 112.68 102.11 113.58 100.80 114.46 C 100.77 115.56 100.69 117.74 100.66 118.84 C 99.60 116.80 98.66 114.71 97.74 112.61 Z" />
<path fill="#333333" opacity="1.00" d=" M 132.25 111.75 C 134.59 112.01 136.94 112.29 139.28 112.62 C 138.35 114.65 137.44 116.69 136.36 118.64 C 136.31 117.59 136.21 115.49 136.16 114.44 C 134.85 113.55 133.54 112.66 132.25 111.75 Z" />
<path fill="#333333" opacity="1.00" d=" M 104.44 116.46 C 106.37 115.84 108.30 115.22 110.23 114.60 C 109.09 115.71 107.95 116.81 106.80 117.89 C 106.53 119.37 106.25 120.84 105.95 122.31 C 105.42 120.37 104.92 118.42 104.44 116.46 Z" />
<path fill="#333333" opacity="1.00" d=" M 126.67 114.57 C 128.64 115.20 130.61 115.84 132.58 116.48 C 132.09 118.40 131.58 120.31 131.04 122.21 C 130.74 120.76 130.46 119.31 130.19 117.85 C 129.00 116.76 127.83 115.67 126.67 114.57 Z" />
<path fill="#333333" opacity="1.00" d=" M 115.50 119.43 C 116.51 117.78 117.54 116.15 118.60 114.54 C 119.55 116.16 120.48 117.80 121.41 119.44 C 123.34 119.45 125.27 119.48 127.21 119.53 C 126.25 121.24 125.29 122.94 124.34 124.66 C 125.34 126.24 126.31 127.85 127.27 129.47 C 125.32 129.53 123.37 129.56 121.42 129.58 C 120.47 131.23 119.50 132.87 118.51 134.50 C 117.52 132.86 116.55 131.21 115.59 129.56 C 113.64 129.56 111.68 129.53 109.73 129.49 C 110.69 127.88 111.67 126.28 112.67 124.70 C 111.72 122.97 110.75 121.25 109.78 119.53 C 111.68 119.48 113.59 119.45 115.50 119.43 Z" />
<path fill="#333333" opacity="1.00" d=" M 105.95 126.72 C 106.26 128.19 106.54 129.66 106.83 131.14 C 107.98 132.21 109.12 133.31 110.25 134.41 C 108.32 133.79 106.40 133.16 104.47 132.53 C 104.93 130.59 105.42 128.65 105.95 126.72 Z" />
<path fill="#333333" opacity="1.00" d=" M 131.09 126.77 C 131.62 128.69 132.09 130.63 132.56 132.57 C 130.61 133.19 128.67 133.80 126.73 134.42 C 127.88 133.31 129.03 132.21 130.20 131.12 C 130.48 129.67 130.77 128.21 131.09 126.77 Z" />
<path fill="#333333" opacity="1.00" d=" M 97.74 136.43 C 98.66 134.34 99.59 132.24 100.62 130.20 C 100.67 131.29 100.79 133.46 100.85 134.55 C 102.10 135.40 103.35 136.25 104.59 137.12 C 102.30 136.93 100.02 136.70 97.74 136.43 Z" />
<path fill="#333333" opacity="1.00" d=" M 136.43 130.09 C 137.41 132.18 138.32 134.30 139.22 136.43 C 136.91 136.72 134.60 136.99 132.29 137.23 C 133.58 136.33 134.87 135.43 136.16 134.54 C 136.23 133.43 136.36 131.20 136.43 130.09 Z" />
<path fill="#333333" opacity="1.00" d=" M 91.50 140.15 C 92.55 138.03 93.61 135.91 94.75 133.83 C 94.71 135.33 94.65 136.84 94.59 138.34 C 95.96 138.97 97.33 139.59 98.68 140.26 C 96.29 140.29 93.89 140.23 91.50 140.15 Z" />
<path fill="#333333" opacity="1.00" d=" M 142.30 133.78 C 143.39 135.88 144.43 138.00 145.47 140.13 C 143.07 140.22 140.68 140.31 138.28 140.28 C 139.64 139.63 141.00 138.99 142.37 138.37 C 142.33 136.84 142.30 135.31 142.30 133.78 Z" />
<path fill="#333333" opacity="1.00" d=" M 114.21 136.64 C 117.03 137.96 120.04 138.01 122.87 136.69 C 121.40 138.01 119.93 139.34 118.46 140.67 C 117.05 139.32 115.63 137.97 114.21 136.64 Z" />
<path fill="#333333" opacity="1.00" d=" M 114.39 142.67 C 115.72 143.39 117.06 144.14 118.37 144.90 C 119.79 144.16 121.20 143.41 122.62 142.68 C 121.29 144.64 119.90 146.55 118.49 148.45 C 117.08 146.54 115.70 144.63 114.39 142.67 Z" />
<path fill="#333333" opacity="1.00" d=" M 114.82 149.49 C 116.07 150.38 117.30 151.31 118.51 152.24 C 119.75 151.30 120.99 150.36 122.25 149.45 C 121.12 151.59 119.83 153.65 118.50 155.68 C 117.18 153.67 115.92 151.63 114.82 149.49 Z" />
</g>
</svg>
